<?xml version="1.0" encoding="UTF-8" standalone="no"?>
<svg xmlns:dc="http://purl.org/dc/elements/1.1/" xmlns:cc="http://creativecommons.org/ns#" xmlns:rdf="http://www.w3.org/1999/02/22-rdf-syntax-ns#" xmlns:svg="http://www.w3.org/2000/svg" xmlns="http://www.w3.org/2000/svg" xmlns:xlink="http://www.w3.org/1999/xlink" xmlns:sodipodi="http://sodipodi.sourceforge.net/DTD/sodipodi-0.dtd" xmlns:inkscape="http://www.inkscape.org/namespaces/inkscape" version="1.1" width="523.22675" height="212.95523" id="svg4619" viewBox="0 0 523.22673 212.95523" sodipodi:docname="ant.svg" inkscape:version="0.92.1 r15371">
  <metadata id="metadata4625">
    <rdf:RDF>
      <cc:Work rdf:about="">
        <dc:format>image/svg+xml</dc:format>
        <dc:type rdf:resource="http://purl.org/dc/dcmitype/StillImage"/>
        <dc:title/>
      </cc:Work>
    </rdf:RDF>
  </metadata>
  <defs id="defs4623">
    <linearGradient inkscape:collect="always" id="linearGradient4755">
      <stop style="stop-color:#f39333;stop-opacity:1;" offset="0" id="stop4751"/>
      <stop style="stop-color:#f39333;stop-opacity:0;" offset="1" id="stop4753"/>
    </linearGradient>
    <linearGradient inkscape:collect="always" id="linearGradient4747">
      <stop style="stop-color:#f7ac6f;stop-opacity:1;" offset="0" id="stop4743"/>
      <stop style="stop-color:#f7ac6f;stop-opacity:0;" offset="1" id="stop4745"/>
    </linearGradient>
    <linearGradient inkscape:collect="always" id="linearGradient4739">
      <stop style="stop-color:#fdd5a5;stop-opacity:1;" offset="0" id="stop4735"/>
      <stop style="stop-color:#fdd5a5;stop-opacity:0;" offset="1" id="stop4737"/>
    </linearGradient>
    <linearGradient inkscape:collect="always" id="linearGradient4699">
      <stop style="stop-color:#fcd8ca;stop-opacity:1;" offset="0" id="stop4695"/>
      <stop style="stop-color:#fcd8ca;stop-opacity:0;" offset="1" id="stop4697"/>
    </linearGradient>
    <linearGradient inkscape:collect="always" id="linearGradient4687">
      <stop style="stop-color:#f39333;stop-opacity:1;" offset="0" id="stop4683"/>
      <stop style="stop-color:#f39333;stop-opacity:0;" offset="1" id="stop4685"/>
    </linearGradient>
    <linearGradient inkscape:collect="always" id="linearGradient4679">
      <stop style="stop-color:#f39333;stop-opacity:1;" offset="0" id="stop4675"/>
      <stop style="stop-color:#f39333;stop-opacity:0;" offset="1" id="stop4677"/>
    </linearGradient>
    <linearGradient inkscape:collect="always" id="linearGradient4663">
      <stop style="stop-color:#f6aa65;stop-opacity:1;" offset="0" id="stop4659"/>
      <stop style="stop-color:#f6aa65;stop-opacity:0;" offset="1" id="stop4661"/>
    </linearGradient>
    <linearGradient inkscape:collect="always" id="linearGradient4639">
      <stop style="stop-color:#ffcc00;stop-opacity:1;" offset="0" id="stop4635"/>
      <stop style="stop-color:#ffcc00;stop-opacity:0;" offset="1" id="stop4637"/>
    </linearGradient>
    <linearGradient inkscape:collect="always" id="linearGradient4631">
      <stop style="stop-color:#a07b09;stop-opacity:1;" offset="0" id="stop4627"/>
      <stop style="stop-color:#a07b09;stop-opacity:0;" offset="1" id="stop4629"/>
    </linearGradient>
    <radialGradient inkscape:collect="always" xlink:href="#linearGradient4639" id="radialGradient4641" cx="912.59863" cy="237.26875" fx="912.59863" fy="237.26875" r="19.54332" gradientTransform="matrix(1.2848264,1.5259041,-1.8678321,1.5727337,-48.905285,-1393.9994)" gradientUnits="userSpaceOnUse"/>
    <radialGradient inkscape:collect="always" xlink:href="#linearGradient4639" id="radialGradient4649" cx="942.40045" cy="215.52704" fx="942.40045" fy="215.52704" r="17.098534" gradientTransform="matrix(1.8761031,1.3502736,-1.5682727,2.1789964,-730.26279,-1358.5735)" gradientUnits="userSpaceOnUse"/>
    <radialGradient inkscape:collect="always" xlink:href="#linearGradient4663" id="radialGradient4665" cx="853.70502" cy="228.54958" fx="853.70502" fy="228.54958" r="5.0251217" gradientTransform="matrix(3.4960614,0.43700463,-0.33031474,2.6425363,-2295.3512,-614.93423)" gradientUnits="userSpaceOnUse"/>
    <linearGradient inkscape:collect="always" xlink:href="#linearGradient4679" id="linearGradient4681" x1="796.71057" y1="185.72351" x2="796.27136" y2="223.4948" gradientUnits="userSpaceOnUse" gradientTransform="translate(-240.99611,141.61627)"/>
    <linearGradient inkscape:collect="always" xlink:href="#linearGradient4687" id="linearGradient4689" x1="761.57452" y1="211.63637" x2="768.16254" y2="222.17719" gradientUnits="userSpaceOnUse" gradientTransform="translate(-240.99611,141.61627)"/>
    <linearGradient inkscape:collect="always" xlink:href="#linearGradient4687" id="linearGradient4691" x1="914.41644" y1="182.64909" x2="866.98273" y2="266.5365" gradientUnits="userSpaceOnUse" gradientTransform="translate(-240.99611,141.61627)"/>
    <linearGradient inkscape:collect="always" xlink:href="#linearGradient4631" id="linearGradient4693" x1="879.95416" y1="241.22176" x2="913.09497" y2="241.22176" gradientUnits="userSpaceOnUse" gradientTransform="translate(-240.99611,141.61627)"/>
    <linearGradient inkscape:collect="always" xlink:href="#linearGradient4699" id="linearGradient4701" x1="719.8504" y1="141.3642" x2="712.38397" y2="204.16994" gradientUnits="userSpaceOnUse" gradientTransform="translate(-240.99611,141.61627)"/>
    <linearGradient inkscape:collect="always" xlink:href="#linearGradient4739" id="linearGradient4741" x1="879.71954" y1="151.90503" x2="832.28589" y2="186.1627" gradientUnits="userSpaceOnUse" gradientTransform="translate(-240.99611,141.61627)"/>
    <linearGradient inkscape:collect="always" xlink:href="#linearGradient4747" id="linearGradient4749" x1="875.32758" y1="241.50203" x2="865.22595" y2="235.35321" gradientUnits="userSpaceOnUse" gradientTransform="translate(-240.99611,141.61627)"/>
    <linearGradient inkscape:collect="always" xlink:href="#linearGradient4755" id="linearGradient4757" x1="823.94104" y1="227.44759" x2="809.8866" y2="237.11002" gradientUnits="userSpaceOnUse" gradientTransform="translate(-240.99611,141.61627)"/>
    <linearGradient inkscape:collect="always" xlink:href="#linearGradient4699" id="linearGradient4759" gradientUnits="userSpaceOnUse" x1="719.8504" y1="141.3642" x2="712.38397" y2="204.16994" gradientTransform="translate(-240.99611,141.61627)"/>
    <linearGradient inkscape:collect="always" xlink:href="#linearGradient4699" id="linearGradient4761" gradientUnits="userSpaceOnUse" x1="719.8504" y1="141.3642" x2="712.38397" y2="204.16994" gradientTransform="translate(-240.99611,141.61627)"/>
  </defs>
  <sodipodi:namedview pagecolor="#ffffff" bordercolor="#666666" borderopacity="1" objecttolerance="10" gridtolerance="10" guidetolerance="10" inkscape:pageopacity="0" inkscape:pageshadow="2" inkscape:window-width="1680" inkscape:window-height="1023" id="namedview4621" showgrid="false" fit-margin-top="20" fit-margin-left="20" fit-margin-right="20" fit-margin-bottom="20" inkscape:zoom="0.40249613" inkscape:cx="504.70382" inkscape:cy="247.19717" inkscape:window-x="0" inkscape:window-y="27" inkscape:window-maximized="1" inkscape:current-layer="svg4619"/>
  <g id="Layer1000" transform="translate(-284.48019,-283.53325)">
    <path d="m 304.48019,328.24597 c 0,0 0.375,-9.3751 18.7497,-12.75 18.3753,-3.3749 39.0002,2.2499 49.5003,4.125 10.5001,1.8751 21.75,4.5003 23.25,2.6252 1.5001,-1.8752 2.6252,-1.5001 7.8753,-0.7501 5.25,0.7501 29.9996,1.8751 35.6249,4.875 5.6251,2.9999 11.9999,5.9998 13.8751,8.25 1.8751,2.2501 1.4059,-0.9374 0.8435,-1.7813 -0.5623,-0.8439 -6.0939,-6.9378 -14.9062,-11.2501 -8.8124,-4.3124 -13.0312,-4.2186 -17.1561,-4.3124 -4.125,-0.0938 -3.2814,-0.75 -5.2501,-1.5001 -1.9687,-0.75 -10.8745,-1.9689 -16.031,-2.9063 -5.1566,-0.9375 -25.5941,-6.6561 -34.5002,-5.6248 -8.9062,1.0312 -11.9061,1.7813 -14.3436,4.4061 -2.4375,2.6249 -3.0002,-0.3753 -1.1251,-2.9063 1.8751,-2.5311 16.4061,-8.2503 30.75,-3.1876 14.3438,5.0627 26.8123,6.0939 31.1249,6.3751 4.3127,0.2812 6.4687,-1.2186 8.625,0.4689 2.1563,1.6874 11.4372,3.1873 16.8749,5.7186 5.4377,2.5313 13.8751,6.7501 18.3751,12.5626 0,0 12.094,-10.6875 26.5314,-10.7813 14.4374,-0.0938 25.031,5.8124 27.5624,13.5938 2.5313,7.7814 0.375,10.8751 2.3437,9.7501 1.9686,-1.1251 11.0627,-10.5937 18.0938,-11.8126 7.0311,-1.2189 26.9059,1.2189 33.3748,11.1563 6.469,9.9375 6.2813,11.9061 6.9375,12.2811 0.6563,0.3751 0.8436,-0.1876 0.6563,-3.8437 -0.1874,-3.6562 -1.8749,-20.5314 -0.4686,-21.75 1.4063,-1.2186 7.0311,-4.0309 7.1249,1.2189 0.0938,5.2498 0.1874,23.2498 1.3124,23.9998 1.1251,0.7501 8.625,2.9999 9.0938,1.4063 0.4689,-1.5936 0.8436,-16.4064 5.0624,-17.25 4.2188,-0.8436 5.4377,0.3751 6.7505,6.1878 1.3127,5.8127 3.5626,11.8128 3.9376,14.0627 0.375,2.2498 1.5001,5.8124 1.5001,5.8124 0,0 0.9377,-10.3122 3.9376,-20.6249 2.9999,-10.3127 8.9997,-24.3757 10.4998,-27.5629 1.5001,-3.1873 1.6877,-6.5625 6.3751,-6.1875 4.6874,0.375 8.4376,2.2504 10.8751,5.4377 2.4375,3.1873 11.9999,12.3749 11.9999,12.3749 0,0 2.6252,-4.4997 6.0001,-2.6249 3.375,1.8749 7.4999,4.3121 9,5.9999 1.5001,1.6877 12.5623,15.7504 13.5,17.6252 0.9377,1.8748 14.6251,3.75 28.8751,26.0626 14.2501,22.3126 12.9379,30.1878 12.7503,32.8127 -0.1877,2.6249 3.9373,1.8749 6.7498,2.6249 2.8126,0.7501 5.4377,-2.2501 7.5002,-3.7499 2.0625,-1.4999 5.8122,-0.1874 4.3124,1.125 -1.4998,1.3125 -2.8126,4.5 -6.1875,5.2501 -3.3749,0.75 -6.9375,-0.5627 -8.625,-0.7501 -1.6874,-0.1873 -4.3126,0 -4.3126,0 l -0.5624,2.0625 c 0,0 13.6874,22.875 17.25,27.1877 3.5625,4.3126 6.5627,6.9378 6.5627,8.2502 0,1.3124 4.8751,3.7497 7.875,5.2498 2.9999,1.5001 4.875,1.5001 4.875,2.6251 0,1.1251 5.4374,1.6872 8.2499,2.6249 2.8126,0.9377 2.2502,1.6878 4.6877,2.2502 2.4375,0.5623 2.2498,0.7497 5.4374,-0.1877 3.1876,-0.9374 6.5628,-2.9999 8.8126,-1.8748 2.2499,1.125 3.5623,2.0625 4.3124,3.7499 0.75,1.6875 0.75,5.6248 -0.5624,3.75 -1.3125,-1.8749 -2.2499,-6.1872 -2.9999,-4.3124 -0.7501,1.8749 -0.5627,7.1249 -1.5001,5.4374 -0.9374,-1.6874 0.1874,-6.1877 -1.5001,-6.0001 -1.6875,0.1877 -3.1873,-0.187 -5.9998,1.3128 -2.8126,1.4998 -1.1254,3.3749 -4.1253,2.2498 -2.9999,-1.125 -3.3749,-2.0622 -5.0624,-2.2498 -1.6874,-0.1877 -1.6877,1.125 -3.5626,-0.3751 -1.8748,-1.5 -7.3125,-3.5625 -7.3125,-3.5625 0,0 1.1248,2.6251 -1.1251,1.125 -2.2498,-1.5001 -9.1876,-7.8749 -11.4375,-8.0625 -2.2498,-0.1877 -1.8748,2.2498 -2.9999,-0.7501 -1.125,-2.9999 -20.0625,-31.1253 -21.9376,-33.1877 -1.8751,-2.0625 -0.375,3.7499 -9.75,8.6249 -9.3751,4.8751 -33.3751,3.75 -52.1252,-3.7499 -18.75,-7.4999 -29.2504,-17.0626 -29.8128,-19.5001 -0.5624,-2.4375 -4.6871,1.4998 -5.9998,0.9374 -1.3127,-0.5624 -4.1253,3.7502 -5.8127,3.0002 -1.6875,-0.7501 3.1875,20.4372 5.25,28.6875 2.0625,8.2502 3.5626,12.3752 2.8125,13.5002 -0.75,1.1251 -0.9377,1.5001 1.3125,6.0001 2.2501,4.5 4.875,8.9998 6.0001,10.1248 1.125,1.1251 1.8751,0.7504 3.9376,1.3127 2.0625,0.5624 2.9999,1.5001 3.7499,3.1876 0.7501,1.6875 1.8749,5.8124 0.9374,4.125 -0.9374,-1.6875 -2.6246,-4.3124 -3.5623,-4.125 -0.9377,0.1874 -2.2498,0.7501 -3.1875,0.9374 -0.9377,0.1874 -2.4378,-0.5624 -2.6252,0.7501 -0.1873,1.3124 -0.5621,0 -1.4998,-0.7501 -0.9377,-0.75 -1.5004,-0.9377 -2.0628,-2.6251 -0.5624,-1.6875 -3.3749,-6.7502 -4.1249,-9 -0.7501,-2.2499 -1.4998,-5.2498 -1.8749,-6.3749 -0.375,-1.125 -1.3127,-3.0002 -1.3127,-3.0002 0,0 -1.1251,0.9375 -1.3124,-1.125 -0.1874,-2.0625 -3.375,-27.0003 -3.75,-28.8752 -0.375,-1.8748 -2.2501,-12.7499 -2.2501,-12.7499 0,0 -10.3125,3e-4 -14.8125,-3.75 0,0 -8.2502,3.9376 -13.3126,2.4376 -5.0624,-1.5001 -11.0622,-6.3754 -11.9999,-8.2503 -0.9377,-1.8748 -1.4998,-4.125 -1.6875,-5.25 -0.1876,-1.1251 0.5621,-2.6249 -0.9377,-5.0624 -1.4998,-2.4375 -6.1877,-7.3126 -7.3125,-8.8127 -1.1248,-1.5 -5.0624,-7.4999 -5.0624,-7.4999 0,0 -3.1876,-0.5626 -2.4375,1.1248 0.75,1.6875 6.1875,10.8754 7.3125,13.5003 1.1251,2.6249 5.6248,9.7501 2.6249,11.8125 -2.9999,2.0625 -5.8124,2.2499 -7.8749,0.9375 -2.0625,-1.3125 -2.2499,-2.0628 -3.75,-3.5626 -1.5001,-1.4998 -21.1875,-19.1248 -25.5002,-21.3749 -4.3126,-2.2502 -6.7498,-3.375 -7.8749,-2.8126 -1.1251,0.5624 -1.3127,-1.5004 -0.9377,3.1873 0.375,4.6876 -2.4375,23.0627 -4.5,27.9377 -2.0625,4.875 -5.2498,13.5 -5.4374,15.7501 -0.1877,2.2502 0.5627,2.8123 0.375,6.5625 -0.1876,3.7503 -1.6877,5.4374 -1.5001,6.9375 0.1877,1.5001 -0.1874,-1.4995 -0.1874,-5.6248 0,-4.1252 0.1877,-6.7501 -0.75,-5.4377 -0.9377,1.3125 -1.6878,0.7504 -1.8751,3.0002 -0.1874,2.2499 -0.1877,2.4373 -1.5001,4.3124 -1.3125,1.8751 -3.5626,4.5003 -3.75,7.5002 -0.1873,2.9999 -2.6249,14.625 -2.9999,18.375 -0.375,3.7499 -0.5624,5.0624 -0.5624,5.0624 0,0 -0.5626,-2.6249 -1.8751,-0.5624 -1.3124,2.0625 -3.5623,4.8747 -4.125,5.8124 -0.5626,0.9377 -1.125,1.3125 -2.4375,2.8126 -1.3124,1.5001 -1.1248,1.8751 -2.0625,2.6251 -0.9377,0.7501 -2.6248,0 -4.1249,0.9375 -1.5001,0.9374 -1.6878,0.1876 -3.0002,-0.5624 -1.3125,-0.7501 -5.6251,-3.5626 -6.9375,-1.5001 -1.3125,2.0625 -2.0622,5.0626 -2.6249,3.5625 -0.5627,-1.5 -2.8128,-1.8748 -1.3127,-4.1249 1.5,-2.2502 2.2504,-4.1253 5.8127,-2.2502 3.5623,1.8751 6.1872,3.5626 8.4373,1.5001 2.2501,-2.0625 5.4377,-5.8127 6.7501,-7.5002 1.3125,-1.6874 2.6252,-2.2501 2.8126,-4.1249 0.1873,-1.8749 3.0002,-17.2503 3.5626,-21.3753 0.5624,-4.1249 2.4378,-7.4999 3.1875,-9.1873 0.7498,-1.6875 2.2499,-2.6252 2.2499,-3.9376 0,-1.3125 6.0004,-23.0624 7.1251,-29.8126 1.1248,-6.7501 7.5002,-20.6254 9,-24.0003 1.4999,-3.375 3.5626,-4.5 3.5626,-4.5 0,0 -2.6249,-4.8751 -5.25,-2.9999 -2.6252,1.8751 -3.7505,2.4377 -4.1253,4.6876 -0.3747,2.2499 -8.2496,19.1251 -8.8123,21.5626 -0.5627,2.4375 -1.1251,2.2498 -1.1251,6.1875 0,3.9376 -1.8751,8.6249 -1.8751,8.6249 0,0 0.3753,-11.0622 -1.1248,-9.9374 -1.5001,1.1248 -3.9376,2.0622 -5.2501,4.3124 -1.3124,2.2501 -6.5627,3.9376 -6.3751,6.7501 0.1877,2.8125 -6.0003,18.5624 -6.7501,20.0625 -0.7498,1.5001 -1.6872,1.5001 -2.8123,2.6252 -1.125,1.125 -1.8754,1.3127 -3.3752,3.1875 -1.4998,1.8748 -1.6874,2.9999 -3.3749,3.3749 -1.6875,0.3751 -1.3127,-0.9377 -3.9376,0.9375 -2.6249,1.8751 -3.1876,2.6248 -5.2501,2.4375 -2.0624,-0.1874 -2.4378,0.3753 -3.1875,-0.7498 -0.7498,-1.1251 -0.1874,-2.8128 -3.3749,-2.6252 -3.1876,0.1877 -4.8754,0.1877 -6.0001,2.2502 -1.1248,2.0625 -1.6872,-3.1879 0.9377,-4.1253 2.6248,-0.9374 3.7496,-1.1248 5.9998,0.1877 2.2501,1.3124 3.3752,3.1875 5.0626,2.8125 1.6875,-0.375 6.0001,-1.3127 8.0626,-3.9376 2.0625,-2.6249 5.4372,-4.3123 6.3749,-5.8124 0.9377,-1.5001 3.1878,-6.5628 3.3752,-7.5002 0.1873,-0.9374 2.4375,-14.8127 6.9375,-19.5001 4.5,-4.6874 6.5622,-4.6874 7.1249,-6.1875 0.5626,-1.5001 5.4374,-17.6252 9,-23.4377 3.5626,-5.8124 5.4377,-10.3124 5.4377,-10.3124 0,0 -21.5629,14.2497 -33.1878,14.0624 -11.6249,-0.1874 -14.2497,-0.3751 -16.4999,0.375 -2.2501,0.75 -12.9376,0.9374 -19.8751,7.3125 -6.9375,6.3751 -7.8752,9.0003 -8.4376,7.1252 -0.5624,-1.8751 -1.8754,-9.9377 0.1874,-14.8127 2.0627,-4.8751 4.3126,-5.4374 4.3126,-5.4374 0,0 -0.1874,-5.0627 3.1876,-6.7502 3.3749,-1.6875 8.2499,-2.6249 8.2499,-2.6249 0,0 -2.2499,-1.8748 -3.3749,-3.7499 -1.1251,-1.8751 8.625,-12.5626 12.7499,-15.3751 4.125,-2.8126 -14.0624,-9.3751 -24.5625,-9.3751 -10.5001,0 -26.0628,0 -28.3127,0.3751 -2.2498,0.375 -4.5,-1.5001 -4.5,-1.5001 0,0 -41.25,-8.2503 -57.0002,-6.7502 -15.7501,1.5001 -17.0626,3.1876 -32.5306,8.5312 z m 317.1554,21.8432 c 0,0 10.3125,-8.8121 18,-7.3123 1.3125,-2.0625 4.1253,-6.3754 6.7502,-9.9377 0,0 -10.5001,-13.5 -12.1876,-14.8124 -1.6875,-1.3125 -4.8747,-1.8751 -7.4999,8.2499 -2.6252,10.1251 -2.6252,9.7501 -5.0627,23.8125 z m 44.4376,-6.5625 c 0,0 -3.7496,-7.5002 -4.6873,-9 -0.9377,-1.4998 -3.0002,-1.8751 -3.9377,0 -0.9374,1.8751 2.0625,4.5 8.625,9 z m -47.6249,53.8138 c -3.0001,-1.3125 -6.3751,-2.2499 -4.6876,-0.1874 1.6875,2.0625 4.3126,5.6248 5.0627,4.3123 0.75,-1.3124 -1.5001,-4.6873 -0.3751,-4.1249 z" style="fill:#331e14;fill-rule:evenodd" id="path4556" inkscape:connector-curvature="0"/>
    <path d="m 572.13559,397.15197 c 4.5,-1.5001 5.4372,-3.5626 8.8124,-5.6251 3.3752,-2.0625 6.188,-3.9376 6.5627,0.1874 0.3748,4.1249 -1.8751,6.5622 1.4998,8.6249 3.375,2.0628 7.5005,2.4375 5.4377,4.3127 -2.0627,1.8751 -20.2501,3.5625 -22.3126,-7.4999 z" style="fill:#462717;fill-rule:evenodd" id="path4558" inkscape:connector-curvature="0"/>
    <path d="m 591.82309,397.52697 c -1.8751,-5.2501 -1.3127,-23.0624 -0.7501,-33.0001 0.5627,-9.9377 0.5627,-19.3127 2.6252,-12.0002 2.0625,7.3125 4.3123,17.2502 4.3123,24.1877 0,6.9376 0.9375,22.1247 -1.3124,22.3124 -2.2499,0.1876 -6.3751,-5.2501 -4.875,-1.4998 z" style="fill:#f07c00;fill-opacity:0;fill-rule:evenodd" id="path4560" inkscape:connector-curvature="0"/>
    <path d="m 593.88559,341.08917 c -2.6249,3.0002 -4.6877,13.8753 -5.2501,24.1877 -0.5624,10.3125 -1.3127,22.4997 -0.375,24.7499 0.9377,2.2501 1.3124,-21.3749 1.6875,-27.375 0.375,-6.0001 0.1876,-11.8126 3.9376,-21.5626 z" style="fill:#462717;fill-rule:evenodd" id="path4562" inkscape:connector-curvature="0"/>
    <path d="m 596.69809,344.46437 c 1.6875,5.0624 10.5001,55.8751 10.5001,59.6251 0,3.7499 0.5627,2.9996 2.8125,3.5623 2.2499,0.5626 7.4997,2e-4 5.9998,-1.4998 -1.4998,-1.5001 -2.2498,-2.0628 -2.9999,-4.6877 -0.75,-2.6249 -10.4213,-45.3458 -12.1875,-51.9372 -1.7663,-6.5914 -6.5625,-11.0628 -4.125,-5.0627 z" style="fill:#f7ac6f;fill-rule:evenodd" id="path4564" inkscape:connector-curvature="0"/>
    <path d="m 619.19809,351.02687 c 0,0 -6.3748,4.6876 -6.7499,6.5625 -0.375,1.8748 -3.3752,-1.6875 -3.3752,-1.6875 0,0 5.2504,-14.2503 7.1252,-20.0628 1.8748,-5.8124 6.9372,-19.125 9.1874,-21.3749 2.2501,-2.2499 6.5625,-2.2501 8.4376,0 0,0 -3.9376,-1.1248 -5.6251,3.5626 -1.6875,4.6874 -6.9375,9.5624 -9,33.0001 z" style="fill:url(#linearGradient4741);fill-opacity:1;fill-rule:evenodd" id="path4566" inkscape:connector-curvature="0"/>
    <path d="m 619.01269,387.96397 c 1.4623,4.5 7.6765,22.875 28.8774,32.2501 21.201,9.375 55.9271,12.7502 63.9688,1.8751 8.0417,-10.8751 -4.752,-2.6252 -28.5119,-12.3749 -23.7598,-9.7498 -36.5538,-21.375 -42.7678,-27.3751 -6.2139,-6.0001 -4.7517,-1.8751 -9.8692,3.75 -5.1175,5.6251 -1.0967,10.1251 -11.6973,1.8748 z" style="fill:url(#linearGradient4691);fill-opacity:1;fill-rule:evenodd" id="path4568" inkscape:connector-curvature="0"/>
    <path d="m 640.53049,345.68407 c -7.3814,1.325 -17.0013,3.9521 -19.6429,8.9051 -2.7417,5.1403 0.1559,8.7148 9.2616,11.296 1.0814,-4.3151 7.1277,-14.8175 10.3813,-20.2011 z m 2.5985,22.7279 c 5.1548,0.7646 8.7517,1.4202 11.8837,4.5522 4.875,4.875 9.7498,5.9995 13.125,0.7498 3.3752,-5.2498 7.8749,-9.7498 3.7499,-14.9998 -3.5033,-4.4589 -10.2534,-13.7846 -21.8565,-14.1974 -1.1174,4.4071 -5.1009,18.0329 -6.9021,23.8952 z" style="opacity:1;vector-effect:none;fill:url(#linearGradient4701);fill-opacity:1;fill-rule:evenodd;stroke-width:1;stroke-linecap:butt;stroke-linejoin:miter;stroke-miterlimit:4;stroke-dasharray:none;stroke-dashoffset:0;stroke-opacity:1" id="path4570" inkscape:connector-curvature="0"/>
    <path d="m 470.47079,324.38817 c -6.5158,3.881 -16.6284,10.8548 -17.2751,17.1967 -0.6467,6.3419 4.2443,8.3929 15.6504,6.5625 11.4062,-1.8303 16.5336,-5.1433 22.8915,-2.4772 6.358,2.6662 11.2956,1.8611 12.4316,-4.2758 1.1361,-6.1369 3.5968,-12.0056 -2.2089,-15.3028 -5.8058,-3.2972 -18.3324,-11.138 -31.4895,-1.7034 z" style="fill:url(#linearGradient4761);fill-opacity:1;fill-rule:evenodd" id="path4572" inkscape:connector-curvature="0"/>
    <path d="m 625.57319,398.08937 c -1.8751,-3.5626 -1.3124,-7.6876 0.375,-11.8126 1.6875,-4.1249 20.4373,-44.0625 23.4375,-48.9376 3.0002,-4.875 5.4377,-8.0623 6.3751,-5.8124 0.9374,2.2498 -2.6249,5.0627 -4.875,13.875 -2.2502,8.8124 -17.2503,51.5628 -20.6252,53.4376 -3.3749,1.8749 -3.9373,0 -4.6874,-0.75 z" style="fill:url(#linearGradient4749);fill-opacity:1;fill-rule:evenodd" id="path4574" inkscape:connector-curvature="0"/>
    <path d="m 622.38569,382.90187 c 1.3124,-6.1875 12.5623,-27.9374 14.8124,-32.6251 2.2501,-4.6876 13.4997,-22.8747 15.5625,-22.1249 2.0628,0.7497 -12.1876,15.3745 -17.25,28.1247 -5.0624,12.7503 -12.3752,30.1879 -12.9376,32.8128 -0.5624,2.6249 0.5627,-7.6876 -0.1873,-6.1875 z" style="fill:#462717;fill-rule:evenodd" id="path4576" inkscape:connector-curvature="0"/>
    <path d="m 664.76079,334.33927 c 0,0 28.6877,41.4374 33.7501,51.5625 5.0624,10.1251 6.9375,12.9379 8.625,14.0627 1.6875,1.1248 7.1249,3.3746 3.3749,3.1873 -3.7499,-0.1874 -7.8749,-1.5001 -10.6874,-4.8751 -2.8126,-3.3749 -27.5627,-39.7499 -35.0626,-63.9374 z" style="fill:#f7ac6f;fill-rule:evenodd" id="path4578" inkscape:connector-curvature="0"/>
    <path d="m 681.07329,353.65177 c 3.5626,4.1249 31.3126,41.8127 31.875,45.5626 0.5624,3.75 3.1879,10.1248 4.3127,12.9374 1.1248,2.8125 0.1873,6.9375 -1.5001,4.875 -1.6875,-2.0625 -4.3124,-7.1252 -5.4374,-9 -1.1251,-1.8748 2.4372,-1.3125 2.2498,-3.75 -0.1874,-2.4375 -2.4375,-7.1248 -6.5625,-11.9999 -4.1249,-4.875 -15.0001,-21.5626 -24.9375,-38.6251 z" style="fill:#f07c00;fill-rule:evenodd" id="path4580" inkscape:connector-curvature="0"/>
    <path d="m 670.01079,361.52667 c 0.5627,0.9374 8.625,32.4377 -11.2501,47.2501 0,0 -13.0241,-4.3047 -18.375,-4.5 -5.351,-0.1953 5.8648,-6.8059 8.6249,-44.8123 0.3425,-4.7152 8.0629,-1.8337 10.5001,-3e-4 2.4373,1.8335 12.0002,-0.375 10.5001,2.0625 z" style="fill:url(#linearGradient4693);fill-opacity:1;fill-rule:evenodd" id="path4582" inkscape:connector-curvature="0"/>
    <path d="m 613.76069,362.08937 c -2.9999,-1.3125 -5.2501,0.5624 -5.2501,3.3749 0,2.8125 2.6252,21.5626 4.3127,22.875 1.6874,1.3125 11.4375,-12.3749 0.9374,-26.2499 z" style="fill:url(#radialGradient4665);fill-opacity:1;fill-rule:evenodd" id="path4588" inkscape:connector-curvature="0"/>
    <path d="m 521.13549,364.15187 c 6.7499,-0.7501 19.1248,4.6876 24.1875,9.375 5.0627,4.6874 13.6874,13.125 13.5,16.8749 -0.1874,3.75 0.1874,8.8126 -3.5626,6.7502 -3.7499,-2.0625 -31.3123,-29.0625 -34.8749,-27.7501 -3.5626,1.3124 -5.6251,-1.8751 0.75,-5.25 z" style="fill:#f07c00;fill-rule:evenodd" id="path4590" inkscape:connector-curvature="0"/>
    <path d="m 538.01269,335.46407 c -7.5002,1.1248 -19.5004,3.7502 -22.5003,9.375 -2.9999,5.6248 0.7504,9.3751 12.0002,11.9999 11.2499,2.6249 17.25,1.5001 22.125,6.3752 4.875,4.875 9.7498,5.9995 13.125,0.7497 3.3752,-5.2497 7.8749,-9.7497 3.7499,-14.9998 -4.1249,-5.25 -12.7499,-17.2502 -28.4998,-13.5 z" style="opacity:1;vector-effect:none;fill:url(#linearGradient4759);fill-opacity:1;fill-rule:evenodd;stroke-width:1;stroke-linecap:butt;stroke-linejoin:miter;stroke-miterlimit:4;stroke-dasharray:none;stroke-dashoffset:0;stroke-opacity:1" id="path4592" inkscape:connector-curvature="0"/>
    <path d="m 513.82299,374.65197 c -2.0625,4.5 -11.2502,33.7498 -12.5626,41.4374 -1.3124,7.6875 2.8123,0.5624 5.4374,-9 2.6252,-9.5624 8.8127,-31.6877 7.1252,-32.4374 z" style="fill:#f07c00;fill-rule:evenodd" id="path4594" inkscape:connector-curvature="0"/>
    <path d="m 515.32309,347.83927 c 8.625,3.75 21.3749,10.1254 18.1874,12.9376 -3.1876,2.8123 -9.1874,0.9372 -12.375,-1.6877 -3.1875,-2.6249 0.5624,-6.1875 -5.8124,-11.2499 z" style="fill:url(#linearGradient4689);fill-opacity:1;fill-rule:evenodd" id="path4596" inkscape:connector-curvature="0"/>
    <path d="m 550.19799,340.90177 c 5.2501,5.8125 12.75,18.9371 6.5625,20.2499 -6.1875,1.3127 -3.75,-5.4374 -6.5625,-20.2499 z" style="fill:url(#linearGradient4681);fill-opacity:1;fill-rule:evenodd" id="path4598" inkscape:connector-curvature="0"/>
    <path d="m 574.38549,352.52667 c 2.4375,0.1876 3.7502,1.1251 3.7502,-0.9374 0,-2.0625 -1.1248,-21.75 -2.4375,-20.8126 -1.3127,0.9375 -2.0625,-0.1873 -1.3127,21.75 z" style="fill:#fdd5a5;fill-rule:evenodd" id="path4600" inkscape:connector-curvature="0"/>
    <path d="m 574.94819,360.02687 c -5.2501,1.6874 -14.2504,3.1873 -14.0627,7.1249 0.1876,3.9376 7.6875,5.4377 12.5626,10.5001 4.875,5.0624 -6.1875,-14.8125 1.5001,-17.625 z" style="fill:url(#linearGradient4757);fill-opacity:1;fill-rule:evenodd" id="path4602" inkscape:connector-curvature="0"/>
    <path d="m 490.01049,332.46417 c -5.8127,-1.5001 -14.4377,2.6252 -14.8127,9.7501 -0.375,7.1248 8.2503,6.0003 12.3752,2.2501 4.125,-3.7502 8.25,-9.0003 2.4375,-12.0002 z" style="fill:#1b1918;fill-rule:evenodd;stroke:#ffffff;stroke-width:0.56690001;stroke-linecap:butt;stroke-linejoin:miter;stroke-dasharray:none" id="path4604" inkscape:connector-curvature="0"/>
    <path d="m 466.57279,334.52667 c -6,5.25 -8.4376,4.5 -12.9376,12.9376 -4.5,8.4376 -3.7502,8.4376 -6.9375,11.8125 -3.1872,3.375 -0.75,4.125 -5.4374,4.8751 -4.6874,0.75 -7.4999,-0.5627 -9.9374,3.3749 -2.4375,3.9376 -6.7501,14.6248 -3.9376,14.8124 2.8125,0.1877 4.125,-9 14.6251,-10.6874 10.5001,-1.6875 16.8749,2e-4 15.1874,-2.9999 -1.6874,-3.0002 -5.0627,-4.313 -4.875,-7.5002 0.1877,-3.1873 2.6249,-8.25 4.125,-11.6249 1.5001,-3.3749 2.6251,-3.3749 10.125,-15.0001 z" style="fill:#f07c00;fill-opacity:0;fill-rule:evenodd" id="path4606" inkscape:connector-curvature="0"/>
    <path d="m 441.07289,358.15177 c -3.7502,0.9374 -7.8752,2.2501 -7.5001,4.3126 0.375,2.0625 5.25,1.3122 6.5624,0.7498 1.3125,-0.5624 3.9374,-4.3124 4.8751,-4.6874 0.9377,-0.375 0.9377,-2.2502 -3.9374,-0.375 z" style="fill:#f07c00;fill-rule:evenodd" id="path4608" inkscape:connector-curvature="0"/>
    <path d="m 460.76439,368.08967 c 4.5,0.7501 12.7499,2.6249 19.125,-0.375 6.3752,-2.9999 23.2504,-10.125 24.7502,-13.125 1.4998,-2.9999 0.75,-7.1248 -5.2501,-2.9999 -6.0001,4.125 -21.7499,12.0002 -27.75,10.5001 -6.0001,-1.5001 -10.8751,-8.2499 -13.875,-4.875 -2.9999,3.3749 -4.8751,6.3748 2.9999,10.8748 z" style="fill:#462717;fill-rule:evenodd" id="path4610" inkscape:connector-curvature="0"/>
    <path d="m 484.34999,334.01117 a 1.875,3.3749 77.2355 0 1 3.7057,1.083 1.875,3.3749 77.2355 1 1 -3.7057,-1.083 z" style="fill:#d6ead7;fill-rule:evenodd" id="path4612" inkscape:connector-curvature="0"/>
    <path d="m 665.70359,342.21277 c 0,0 29.8125,54.7501 38.4375,59.6251 8.625,4.875 8.0629,11.0622 10.3127,14.4374 2.2499,3.3752 2.2499,3.7503 -2.2501,-1.1248 -4.5,-4.875 -2.8123,-6.5625 -10.4998,-12.3749 -7.6876,-5.8124 -32.6254,-50.0627 -36.0003,-60.5628 z" style="fill:#a65b45;fill-rule:evenodd" id="path4614" inkscape:connector-curvature="0"/>
    <path d="m 504.26539,357.02467 c 0.9374,-0.75 7.3125,-1.1251 6.5625,1.3125 -0.75,2.4375 -2.4375,2.4377 -4.125,8.6252 -1.6874,6.1875 -8.4373,16.1249 -9,18.5624 -0.5627,2.4375 0.1874,4.1247 -1.5001,4.6874 -1.6874,0.5627 -2.2498,-0.5624 -5.0624,2.6251 -2.8125,3.1876 -6.1877,4.8748 -7.5002,6.7499 -1.3124,1.8751 -2.6248,3e-4 -0.5623,-1.8748 2.0624,-1.8752 7.6878,-7.1252 8.4376,-9.1877 0.7497,-2.0625 5.8124,-16.5002 8.2499,-20.8125 2.4375,-4.3124 3.1876,-4.6874 4.5,-10.6875 z" style="fill:#462717;fill-rule:evenodd" id="path4616" inkscape:connector-curvature="0"/>
    <path d="m 659.51069,414.21427 c 5.0624,1.5 18.9377,5.4374 24.7502,3.1875 5.8124,-2.2498 13.5003,-11.0625 14.25,-13.875 0.7498,-2.8125 -3.5628,-7.1249 -5.8127,-10.3125 -2.2499,-3.1875 -4.6877,-7.4999 -8.625,-6.9375 -3.9373,0.5624 -6.3751,-1.6874 -8.0626,1.1251 -1.6874,2.8125 0.7501,10.6875 -16.4999,26.8124 z" style="fill:url(#radialGradient4641);fill-opacity:1;fill-rule:evenodd" id="path4584" inkscape:connector-curvature="0"/>
    <path d="m 678.26079,424.33927 c 7.6875,0.9377 19.8751,1.6878 24.7501,-0.5624 4.875,-2.2501 10.1251,-5.8121 9.375,-7.4999 -0.75,-1.6877 -5.4374,-10.3127 -6.5624,-10.6877 -1.1251,-0.375 -3.7503,-1.3122 -6.7502,2.6251 -2.9999,3.9374 -7.1249,8.625 -20.8125,16.1249 z" style="fill:url(#radialGradient4649);fill-opacity:1;fill-rule:evenodd" id="path4586" inkscape:connector-curvature="0"/>
  </g>
</svg>