<?xml version="1.0" encoding="UTF-8" standalone="no"?>
<!-- Created with Inkscape (http://www.inkscape.org/) -->
<svg xmlns:dc="http://purl.org/dc/elements/1.1/" xmlns:cc="http://creativecommons.org/ns#" xmlns:rdf="http://www.w3.org/1999/02/22-rdf-syntax-ns#" xmlns:svg="http://www.w3.org/2000/svg" xmlns="http://www.w3.org/2000/svg" xmlns:sodipodi="http://sodipodi.sourceforge.net/DTD/sodipodi-0.dtd" xmlns:inkscape="http://www.inkscape.org/namespaces/inkscape" id="svg2" version="1.1" inkscape:version="0.92.1 r15371" width="396.85065" height="566.92938" xml:space="preserve" sodipodi:docname="Ours brun.svg"><metadata id="metadata8"><rdf:RDF><cc:Work rdf:about=""><dc:format>image/svg+xml</dc:format><dc:type rdf:resource="http://purl.org/dc/dcmitype/StillImage"/><dc:title/></cc:Work></rdf:RDF></metadata><defs id="defs6"><clipPath clipPathUnits="userSpaceOnUse" id="clipPath16"><path d="M 0,453.54347 H 317.48053 V 0 H 0 Z" id="path18" inkscape:connector-curvature="0" style="stroke-width:1.06666672"/></clipPath><clipPath clipPathUnits="userSpaceOnUse" id="clipPath80"><path d="M 0,453.54347 H 317.48053 V 0 H 0 Z" id="path82" inkscape:connector-curvature="0" style="stroke-width:1.06666672"/></clipPath></defs><sodipodi:namedview pagecolor="#ffffff" bordercolor="#666666" borderopacity="1" objecttolerance="10" gridtolerance="10" guidetolerance="10" inkscape:pageopacity="0" inkscape:pageshadow="2" inkscape:window-width="640" inkscape:window-height="480" id="namedview4" showgrid="false" inkscape:zoom="0.44402945" inkscape:cx="186.02374" inkscape:cy="265.74814" inkscape:window-x="0" inkscape:window-y="27" inkscape:window-maximized="0" inkscape:current-layer="g10"/><g id="g10" inkscape:groupmode="layer" inkscape:label="Ours brun" transform="matrix(1.25,0,0,-1.25,0,566.92933)"><g id="g12"><g id="g14" clip-path="url(#clipPath16)"><g id="g20" transform="translate(285.41984,104.84587)"><path d="m 0,0 c -1.3493333,-0.51306667 -30.449067,-11.8656 -33.912533,-13.669333 -3.553067,-1.841067 -24.8704,-3.68 -24.8704,-3.68 l -34.945067,0.609066 -10.65707,-4.916266 -13.02186,6.146133 -10.65707,-8.592 c 0,0 -54.4864,5.518933 -56.2624,8.592 -1.77707,3.056 -14.21227,19.616 -13.02187,21.4570667 0,0 18.35094,30.6720003 20.73067,32.5109333 l 2.36373,1.84 5.91574,-0.605867 15.91573,21.160534 c 0.55253,-4.1408 2.29333,-7.986134 2.896,-9.236267 v -8.944 c 0,0 -0.12267,-0.183467 -0.30187,-0.477867 l -0.1408,0.0928 -2.22186,-1.0688 -2.37867,-2.612266 -1.91893,-0.920534 -0.58774,-2.3008 c 0,0 -1.04746,0 -0.7456,-0.459733 0.30294,-0.459733 0.4448,-1.213867 0.4448,-1.213867 0,0 -1.03146,-0.919466 -1.03146,-1.380266 v -1.5456 l 0.58666,-1.6736 0.0885,-0.0736 c -0.3008,-0.369067 -0.51414,-0.717867 -0.6752,-1.0112 l 0.7296,-0.608 c 0,0 -2.2208,-2.1536 -2.5056,-6.368 l 0.14186,-2.372267 0.74667,2.152533 0.58667,-1.232 c 0,0 0.88746,1.838934 0.7456,1.3792 -0.0885,-0.276266 -0.0704,-0.955733 -0.0523,-1.472 0.0171,-0.01707 0,-0.03627 0,-0.07253 0.0352,-0.350933 0.0523,-0.606933 0.0523,-0.606933 l 1.0304,0.459733 0.2848,-0.0384 c -0.88747,-7.338667 1.47413,-7.800533 1.3504,-5.943467 -0.10667,1.456 -0.0181,3.182934 0.15786,4.8032 l 0.2848,-0.03733 c 0,0 1.61814,0.148267 2.2208,0 0.58667,-0.165333 0.44374,1.216 0.44374,1.216 l 1.17333,-0.920533 0.53227,1.362133 c 0.12586,-2.798933 0.35626,-5.189333 0.35626,-5.189333 h 1.04854 l 0.65706,4.910933 3.55307,2.762667 1.4912,0.385066 2.43413,0.679467 2.00854,2.08 2.66346,2.061867 1.77707,1.6192 1.54453,2.759466 2.0064,1.1392 0.8896,2.302934 1.77494,1.3792 2.2048,2.760533 0.8896,1.617067 1.56373,1.141333 1.09973,1.380267 1.56267,0.680533 1.56373,1.842133 1.1008,1.157334 0.21334,1.159466 1.56373,0.4416 0.21333,1.397334 1.34934,0.680533 -0.6752,1.842133 -1.3312,1.837867 -0.17707,1.381333 h 0.0331 c 0,0 15.38453,6.752 16.576,6.752 1.18933,0 7.692797,-5.518933 7.692797,-5.518933 l 4.741333,0.606933 7.248,-2.6112 0.02027,-0.01813 c -1.032534,-0.811733 -2.078934,-1.895467 -2.078934,-1.895467 l 1.9872,-0.920533 1.121067,0.237867 1.102933,-1.380267 h 0.673067 c 0,0 -1.333333,-1.380267 0.213333,-2.9984 1.5648,-1.6 4.440534,-2.760533 4.440534,-2.760533 l 10.445866,-7.581867 5.986134,-0.919467 14.443733,-6.8992 2.663467,0.4608 L -1.9370667,7.8784 c 0,0 1.58080003,-7.6352 1.9370667,-7.8784" style="fill:#d6ceb3;fill-opacity:1;fill-rule:nonzero;stroke:none;stroke-width:1.06666672" id="path22" inkscape:connector-curvature="0"/></g><g id="g24" transform="translate(145.51147,128.58443)"><path d="M 0,0 7.1050667,0.91946667 11.5456,5.5189333 16.285867,5.8272 l 14.801066,14.718933 6.514134,3.986134 c 0,0 7.995733,-11.652267 9.178666,-11.652267 1.184,0 6.219734,3.064533 6.219734,3.064533 l 2.365866,-1.837866 c 0,0 27.832534,-7.6672003 29.313067,-7.053867 1.4784,0.6112 2.664533,3.681067 2.664533,3.681067 l -12.7328,11.037866 -17.1712,10.1216 -5.626666,2.146134 -4.741334,-0.606934 -7.6928,5.52 -16.576,-6.752 L -0.2944,1.2245333 Z" style="fill:#85847c;fill-opacity:1;fill-rule:nonzero;stroke:none;stroke-width:1.06666672" id="path26" inkscape:connector-curvature="0"/></g><g id="g28" transform="translate(226.26357,170.29792)"><path d="m 0,0 c -1.5466667,-4.1418667 -0.44373333,-12.881067 -1.5466667,-13.12 v -0.183467 C -3.7664,-13.4144 -6.608,-13.4144 -7.7632,-12.881067 c -0.6410667,0.2944 -1.6533333,0.715734 -2.721067,1.1776 l 0.410667,3.5712003 1.5637333,-0.9184 0.2144,1.8378667 1.3482667,-0.24 1.1029333,3.2384 1.1018667,0.2218667 1.1178667,6.2176 H -2.2912 l 0.4416,4.1216 1.77813333,-0.4416 0.4448,4.3605333 L 0.7808,10.3776 C 1.3664,8.1877333 1.7781333,6.6592 1.7781333,6.6592 L 2.2026667,6.6048 C 1.3664,3.9349333 0.53013333,1.4165333 0,0 M -42.474667,29.125333 C -42.7072,27.5072 -44.482133,23.146667 -45.815467,22.2272 l 2.219734,0.459733 -2.663467,-3.460266 1.777067,-0.442667 -1.12,-1.618133 1.776,-0.459734 c 0,0 -1.776,-5.52 -3.979734,-5.52 h 2.203734 c 0,0 0.461866,-3.6810663 -1.101867,-4.8394663 l 1.777067,0.24 -1.777067,-2.7605334 1.101867,-0.24 L -46.704,-0.3136 l -1.776,-2.0629333 -0.01813,-0.1461334 -0.871467,0.056533 -0.299733,0.7712 -0.5856,-0.6058667 -0.8896,0.7541333 -1.778134,-0.1482666 -2.362666,-0.1472 -0.388267,-0.0352 -0.126933,1.5637333 1.316266,1.6181333 0.6752,1.1424 1.989334,-0.2218666 -1.544534,2.9824 2.893867,-0.2218667 -0.887467,1.8378667 2.434134,-0.6965334 -0.887467,2.0608 -1.546667,2.7605341 1.102934,1.157333 -0.4448,1.1616 1.330133,1.141333 -1.1008,2.757334 2.2048,-0.2208 -1.314133,2.759466 H -48.48 l -0.443733,1.602134 -0.887467,3.2192 2.430933,-1.3792 -0.657066,3.220266 -0.656,2.2976 1.546666,-0.9184 -0.890666,2.5216 -0.656,2.539734 1.778133,-0.222934 -0.890667,2.7616 -0.1056,1.416534 0.3904,0.0352 c 0,0 1.972267,-0.440534 4.813867,-1.029334 0.03627,-0.3488 0.4448,-5.079466 0.232533,-6.6432 m 99.550934,60.573867 -2.0768,5.208533 1.776,0.919467 -4.885334,6.43947 2.2208,-0.92054 -5.329066,11.5008 -4.442667,4.13974 0.443733,1.84 -7.5488,3.68 0.8896,1.84106 -3.997866,3.67894 1.776,2.3008 c -3.1072,-0.4608 -7.995734,4.13973 -7.995734,4.13973 l 4.442667,0.45973 c -2.664533,0 -8.882133,4.59947 -8.882133,4.59947 l 0.8864,2.76053 -9.323734,2.75947 0.8864,2.76053 h -1.776 c -1.776,0 -11.1018663,2.76054 -11.1018663,2.76054 l -0.4437334,1.83893 c -2.22079997,0 -10.2165333,4.60053 -18.5845333,6.29227 -7.586133,1.52853 -35.297067,3.22133 -43.965867,7.36213 -8.651733,4.13973 -19.0976,13.33867 -19.0976,13.33867 l -2.433066,0.92053 1.101866,0.92053 -4.8864,1.60107 3.784534,1.83893 -5.330134,-0.91946 3.108267,2.29973 -6.0032,-1.84 2.894933,2.75947 -5.329066,-2.0608 5.098666,2.76053 -9.0944,-2.53867 3.995734,3.67894 -5.559467,-1.60107 3.552,4.1408 -6.2176,-4.60053 2.896,5.06026 -5.33013,-5.30026 1.77706,4.84053 -5.11466,-4.84053 3.3376,6.90133 -5.7728,-6.66133 0.65706,6.66133 -2.21973,-7.12107 -1.54667,6.44054 V 185.84 l -1.776,2.98027 -0.88853,-4.13974 -2.21973,3.4592 0.44266,-3.91893 -3.33866,2.29867 0.23146,-2.98027 -0.37333,-0.2944 -1.0304,1.36213 -1.77707,-0.91946 -1.11893,0.91946 -2.00747,-0.69866 -1.776,0.47786 -1.1008,-0.69866 -1.99146,-0.22187 -2.45014,-2.53867 -1.33333,-2.29973 c 0,0 -1.38453,-2.33707 -2.59307,-4.4896 l -0.51413,0.12907 c -1.33333,0.2208 -8.66987,0 -8.66987,0 l -10.6592,-2.99947 -3.7664,-1.6 -4.22613,-3.00053 -1.54773,-0.68054 -1.33227,-2.07893 -1.776,-0.24 -1.1008,-0.67947 -3.48267,0.31254 -3.62346,3.60533 h -1.11894 c 0,0 -4.21013,1.84 -8.4384,1.60213 l -4.2272,-0.24106 -1.99146,-0.21974 0.4448,-1.38026 -3.55307,-2.99947 -1.33227,0.47893 0.4448,-1.84 c 0,0 -1.77706,-5.2992 -1.77706,-6.67946 l -0.88747,-1.1584 1.11893,-0.68054 1.3152,-6.90026 1.776,-2.53974 1.77707,-1.14133 0.2304,-1.83893 2.21973,-0.45974 -1.1008,-0.9216 2.87787,-0.23786 -0.6752,-1.36214 1.776,0.4416 -0.21333,-2.05973 2.66453,0.91947 -0.88747,-2.06187 h 3.33974 l 1.9904,-1.1584 -1.77814,-2.5216 1.9904,-0.91947 -1.9904,-3.46026 1.56374,-1.3792 -0.2304,-5.0592 h 1.5456 l -1.1008,-2.53974 h 2.21973 l -2.21973,-2.52053 3.76533,0.45867 -0.65707,-3.2192 2.43307,1.38026 0.67627,-3.68 2.45013,-1.6192 0.21333,-2.5216 2.87787,-1.83893 0.88853,-1.38027 2.4512,-1.6192 4.29974,-4.047997 c 0.21333,-5.2992 2.66453,-12.199466 5.7728,-14.958933 0,0 1.77706,-1.380267 3.32266,-0.920533 0.26667,0.07467 0.6752,0.221866 1.17227,0.421333 l 0.0885,-0.256 c 0,0 4.21014,-3.2384 6.2176,-2.999467 0.8,0.09173 2.85974,2.005334 5.11574,4.360534 l 0.21333,-0.219734 1.54667,-8.501333 2.2368,-3.918933 v -2.520534 l 2.2048,-4.157866 1.776,-5.521067 h 1.776 l -0.21227,-2.058667 h 1.56267 l -0.46187,-2.5408 1.56373,-0.920533 0.88747,-2.981333 1.98933,-0.219734 -0.21226,-3.460266 h 1.776 L -123.536,42.4672 h 0.88853 l 0.2304,-2.760533 1.3152,-3.92 2.4512,-0.919467 -1.776,-2.059733 2.66454,0.2208 -0.88854,-2.9824 1.98934,-0.698667 0.67626,-3.9008 1.3312,0.920533 0.88854,-4.379733 2.2208,-1.838933 1.98933,-4.1216 h 1.11893 l 0.23147,-1.399467 1.1008,-0.4416 v -1.6192 l 1.10293,-0.221867 0.88747,-2.317866 2.23787,-0.919467 1.77706,-3.2021333 0.65707,1.1402666 1.332267,-1.3792 c 0,0 4.228266,-4.83839997 5.8432,-10.2666666 0.552533,-4.1397334 2.293333,-7.9861337 2.896,-9.2362667 v -8.942933 c 0,0 -0.122667,-0.183467 -0.301867,-0.478934 l -0.1408,0.0928 -2.221867,-1.0688 -2.378666,-2.6112 -1.92,-0.920533 -0.586667,-2.3008 c 0,0 -1.047467,0 -0.7456,-0.459733 0.302933,-0.4608 0.4448,-1.213867 0.4448,-1.213867 0,0 -1.031467,-0.919467 -1.031467,-1.381333 v -1.544534 l 0.586667,-1.6736 0.08853,-0.07467 c -0.3008,-0.368 -0.514133,-0.717867 -0.6752,-1.010134 l 0.7296,-0.608 c 0,0 -2.2208,-2.154666 -2.5056,-6.368 l 0.14187,-2.373333 0.74667,2.1536 0.58666,-1.232 c 0,0 0.887467,1.837867 0.7456,1.3792 -0.08853,-0.276267 -0.0704,-0.955733 -0.05227,-1.472 0.01707,-0.01813 0,-0.03627 0,-0.0736 0.0352,-0.350933 0.05227,-0.605867 0.05227,-0.605867 l 1.029334,0.459734 0.285866,-0.0384 c 0.123734,1.0304 0.318934,2.226133 0.602667,3.570133 l 0.07147,0.01707 0.3744,-1.0848 1.172266,1.213866 c -0.178133,-0.993066 -0.498133,-2.8512 -0.712533,-4.8576 l 0.2848,-0.03627 c 0,0 1.618133,0.148266 2.2208,0 0.586667,-0.165334 0.443733,1.216 0.443733,1.216 l 1.173334,-0.9216 0.532266,1.3632 c 0.125867,-2.798934 0.356267,-5.189334 0.356267,-5.189334 h 1.048533 l 0.657067,4.910934 3.553067,2.762666 1.4912,0.384 2.434133,0.680534 2.008533,2.08 2.663467,2.061866 1.777067,1.618134 1.544533,2.759466 2.0064,1.140267 0.8896,2.302933 1.774933,1.3792 2.2048,2.760534 0.8896,1.616 1.562667,1.1424 1.1008,1.380266 1.562667,0.679467 1.563733,1.8432 1.1008,1.157333 0.213333,1.159467 1.563734,0.4416 0.213333,1.396267 1.348267,0.6816 -0.674134,1.841066 -1.3312,1.838934 -0.177066,1.381333 h 0.03307 c 0,0 15.384534,6.752 16.576,6.752 1.189334,0 7.6928,-5.52 7.6928,-5.52 l 4.741334,0.608 7.248,-2.612267 0.02027,-0.01707 c 0.5312,0.4383997 1.0816,0.789333 1.472,0.8618663 1.101867,0.2410667 2.664534,-0.4586666 2.664534,-0.4586666 L -17.392,-11.355733 c 0,0 -1.474133,-0.145067 -1.918933,-0.145067 -0.4448,0 -1.3312,-1.380267 -1.3312,-1.380267 l 1.102933,-1.380266 h 0.673067 c 0,0 -1.333334,-1.380267 0.213333,-2.999467 1.563733,-1.6 4.440533,-2.760533 4.440533,-2.760533 l 10.445867,-7.5808 5.9861333,-0.919467 14.4437337,-6.8992 2.663466,0.4608 H 21.104 l 0.887467,2.059733 1.9904,0.461867 c 0,0 3.997866,11.278933 5.773866,13.339733 l 1.12,-0.846933 1.172267,2.7584 2.077867,-2.135467 c 0,0 0.5856,2.762667 0.3008,3.681067 -0.3008,0.919467 0.8896,4.599467 0.587733,5.521067 -0.302933,0.920533 2.0768,-1.84 2.0768,-1.84 l 0.285867,1.84 c 0,0 0,2.760533 -0.285867,3.6778663 -0.302933,0.9205334 2.062933,0.2965334 2.062933,0.2965334 l 1.1872,1.8410666 1.4752,-0.2954666 c 0,0 -0.282666,4.89386663 -0.584533,5.8144 -0.301867,0.9194666 1.776,-0.92053337 1.776,-0.92053337 l 0.302933,3.99253337 1.472,-0.3125334 L 44.1984,5.8144 l 1.474133,3.9914667 1.776,-0.3125334 -0.301866,2.7605337 1.776,0.920533 0.6048,4.305067 0.888533,2.446933 0.584533,4.914133 c -0.885333,1.5264 0.5888,3.053867 0.5888,3.053867 l 2.077867,0.312533 c -0.586667,1.233067 0.584533,5.8336 0.584533,5.8336 l 0.603734,-1.233066 c -0.603734,1.233066 0.2848,11.645866 0.2848,11.645866 l 2.078933,0.9216 0.302933,5.2256 0.887467,1.525334 -0.887467,3.3696 1.172267,1.543466 0.885333,5.8144 v 4.599467 6.440533 c 0,1.5456 -1.170133,11.9616 -2.503466,15.805867" style="fill:#695448;fill-opacity:1;fill-rule:nonzero;stroke:none;stroke-width:1.06666672" id="path30" inkscape:connector-curvature="0"/></g><g id="g32" transform="translate(56.98336,296.02549)"><path d="M 0,0 -0.7392,-0.92053333 0.29653333,-2.9141333 c 0,0 0.29653334,-0.3072 0.44373334,-0.9205334 C 0.88853333,-4.448 1.9253333,-4.7552 1.9253333,-4.7552 l -1.03679997,1.9936 0.29653337,1.84106667 0.7402666,1.53386666 0.2965334,1.22559997 -1.48160003,-0.3072 z m 27.239467,3.3717333 -0.148267,-1.9936 0.593067,0.1536 0.740266,0.6133334 c 0,0 0,2.1472 0.1472,2.6058666 0.148267,0.4608 0.4448,1.2277334 0.593067,1.6896 0.148267,0.4586667 1.184,0.7648 1.627733,0.9173334 0.4448,0.1546666 2.961067,0.3082666 2.961067,0.3082666 L 35.678933,6.8992 35.085867,7.8186667 c 0,0 -0.740267,0.4608 -0.888534,1.0730666 -0.1472,0.6133334 -1.035733,0 -1.184,0.4597334 -0.148266,0.4608 -1.332266,0.3072 -1.332266,0.3072 0,0 -1.0368,-0.9194667 -1.480534,-1.3792 -0.443733,-0.4608 -1.035733,0 -1.184,0.4597333 -0.149333,0.4597333 -0.592,-0.9205333 -0.592,-0.9205333 L 27.387733,6.592 l 0.296534,-1.2266667 -1.0368,-1.6864 z M 179.424,-97.063467 l 0.66453,2.762667 -3.7728,-2.301867 c 0,0 0.44374,3.912534 0.21974,3.2224 -0.21974,-0.6912 -3.10827,-5.52 -3.10827,-5.52 l -0.8896,2.529067 -2.43947,-2.760533 -1.11146,3.681066 -3.3312,-0.459733 -2.8864,2.068267 -0.22187,-2.068267 -6.66027,2.989867 h -4.66453 l -5.10933,2.299733 2.66666,0.689067 -3.77493,1.381333 3.55307,2.299733 -4.66454,-0.920533 c 0,0 3.77494,2.299733 2.88854,2.299733 -0.89067,0 -5.33014,-0.2304 -5.33014,-0.2304 l 1.77494,2.0704 H 139.2288 L 131.90187,-80.96 c 0,0 5.99573,0 5.10933,0.459733 -0.88853,0.458667 -3.99787,3.2192 -3.99787,3.2192 0,0 2.21974,1.838934 1.5552,2.0704 -0.6688,0.229334 -2.8896,1.149867 -2.8896,1.149867 l 1.99894,3.448533 -3.1072,1.3792 -2.21974,8.510934 1.33227,2.071466 -3.55413,1.3792 c 0,0 -3.02507,-0.951466 -2.8864,-1.3792 0.22186,-0.6912 0.66666,-2.3008 0.66666,-2.3008 l -1.11146,-0.690133 c 0,0 1.33333,-1.838933 0.66666,-1.6096 -0.66666,0.229333 -0.44373,0.919467 -0.66666,0.229333 -0.22187,-0.688 -0.44374,-2.299733 -0.44374,-2.299733 0,0 -2.21973,0.459733 -1.55413,-0.229333 0.66453,-0.692267 1.11147,-2.990934 1.11147,-2.990934 l 2.4416,-2.0704 -0.88854,-1.84 0.66667,-1.608533 -0.66667,-2.299733 -1.1104,-1.610667 c 0,0 0.66667,-1.3792 0.66667,-2.0704 0,-0.690133 -1.33227,-0.229333 -1.10933,-0.9184 0.22186,-0.6912 0.44266,-2.071467 0.44266,-2.071467 l 0.66667,-2.760533 -1.33227,-0.9184 0.0704,-3.138133 4.96214,-1.080534 c 0,0 1.03786,-5.0592 0.14933,-7.36 -0.8896,-2.299733 -2.66453,-5.672533 -2.66453,-5.672533 h 1.4784 l -2.66347,-3.4592 1.77707,-0.4416 -0.4448,-1.46773 1.1008,-0.61227 -1.248,-3.37173 -1.03787,-1.53387 0.50987,-0.6144 0.0832,-3.9872 0.592,-0.61227 -1.77707,-2.76053 1.0368,-0.76693 -1.0368,-3.3728 -1.03467,-1.5296 -1.63093,-0.6208 -0.88533,0.16426 -2.66774,0.60694 -2.36266,-0.1472 -0.1536,-1.232 -0.73707,-0.9216 0.592,-1.68747 -1.77813,-1.53067 -0.58774,-2.3008 12.1344,5.2128 4.4416,1.53814 7.6928,-5.51787 5.48374,0.60907 6.5056,-2.61547 1.49333,0.84587 2.66347,-0.45867 1.7728,0.08 5.27786,-1.88587 0.41067,3.5744 1.5648,-0.92373 0.21333,1.84213 1.34934,-0.23893 1.10186,3.2384 1.10187,0.21867 1.11787,6.21866 h 1.33333 l 0.4416,4.12267 1.77813,-0.4416 0.85334,4.4704 1.42186,-3.77067 -2.2752,-8.06933 -0.4448,-10.58027 h 2.6656 l 2.4416,1.6096 -2.2176,0.9216 1.55307,3.22134 h -1.99893 l 3.10826,4.82773 -0.88853,2.76053 1.33227,2.52907 -1.77707,-0.68907 1.77707,3.68 1.776,6.67094 2.44373,5.0592 -1.77493,-0.4608 1.10826,4.83093 -1.33013,-0.2304 0.66453,2.06933 c 0,0 -2.2208,-1.38026 -1.776,-0.688 0.4448,0.688 3.55307,5.516803 3.55307,5.516803 m -99.149867,-9.082663 0.555734,1.6096 -0.999467,1.15093 0.999467,2.3008 -0.999467,4.8288 0.6656,2.071467 c 0,0 -1.221333,-1.153067 -1.332267,-0.8064 -0.109866,0.3456 0.776534,4.715733 0.776534,4.715733 l -0.5536,0.4576 -0.3328,3.335467 -2.109867,-2.184534 -0.7776,1.84 -1.332267,0.116267 -0.333866,1.608533 -5.106134,4.6016 -0.110933,4.024534 -1.221333,-0.576 -1.998934,7.7056 v 3.102933 l -1.554133,-0.456533 -4.219733,10.9248 -0.555734,3.104 1.333334,5.060266 2.219733,-1.149866 -1.3312,4.139733 2.887467,2.530133 -0.8896,2.530134 0.8896,2.530133 -1.777067,3.909333 0.887467,2.071467 v 1.378133 l 1.111466,2.5312 -3.997866,0.919467 1.776,1.84 -1.776,1.84 1.332266,1.6096 v 1.84 l -2.2208,-0.689067 -1.1104,-4.1408 -1.332266,-1.149866 -1.5552,-0.689067 v -2.071467 L 55.072,-26.5664 54.071467,-28.405333 c 0,0 -0.888534,1.265066 -0.999467,0.689066 -0.04693,-0.2464 -0.279467,-0.704 -0.529067,-1.146666 l 0.01173,0.3424 0.4448,1.685333 -2.370134,-1.074133 -1.9232,1.534933 -2.0736,-4.1408 -2.071466,1.226667 -1.924267,-2.299734 -0.8896,0.920534 -2.098133,-1.346134 -0.418134,2.88 -1.332266,1.9936 -0.148267,-4.2944 -1.184,-1.533866 -3.083733,-3.287467 2.7872,3.9008 -2.368,-1.84 -2.8128,-1.992533 -7.106134,-4.293334 -6.069333,-2.759466 2.369067,-1.687467 3.255466,-1.533867 2.962134,2.1472 4.292266,4.293334 1.255467,1.757866 3.9264,0.542934 1.554133,-1.380267 -2.2208,-1.84 3.3312,-0.920533 4.663467,-0.459734 3.108267,0.6912 2.219733,1.1488 1.111467,-1.380266 2.219733,1.380266 -2.219733,-2.299733 3.330133,-1.610667 -1.3312,-2.0704 4.884267,-0.919466 -0.887467,-2.989867 2.4416,-2.069333 0.923733,-2.296534 -0.701866,-2.305066 -2.4416,0.9216 1.776,-2.760534 -2.663467,-0.4608 2.663467,-2.068266 -1.776,-1.380267 1.776,-0.690133 -1.1104,-3.451734 1.998933,-0.228266 0.443733,-3.451734 2.2208,2.3008 v -5.2896 l 2.887467,-3.68 -1.777067,-5.979733 0.887467,-3.4496 1.333333,1.608533 0.6656,-2.3008 1.333334,0.920534 0.6656,-2.068267 1.109333,-0.231467 0.4448,-3.448533 3.3312,-2.3008 -0.221867,-1.84 1.109334,-2.3008 1.777066,-3.22027 1.777067,-0.91946 0.887467,-3.67894 1.109333,-2.992 0.8896,-3.4496 1.554133,3.9104 z M -1.2213333,27.598933 c 0,0 -2.7754667,1.380267 -3.1082667,1.495467 -0.3338667,0.114133 0,1.495467 0,1.495467 l -2.9984,0.919466 0.4448,0.804267 -5.1072,2.3008 -1.888,-0.1152 -1.4432,-0.690133 -0.221867,-1.495467 c 0,0 1.997867,-0.804267 2.331734,-0.804267 0.3328,0 -1.000534,-2.530133 -1.000534,-2.530133 l 1.5552,0.1152 -0.554666,-3.7952 1.776,1.265067 1.332266,-1.608534 c 0,0 2.775467,-0.346666 3.220267,-0.346666 0.4437333,0 -1.776,-1.380267 -1.776,-1.380267 l 1.776,-0.344533 -1.4442667,-2.069334 0.8885334,0.458667 1.2224,-4.139733 -0.4448,2.5312 1.3322666,1.0336 1.888,1.380266 -0.4448,1.035734 c 0,0 0.8885334,0.690133 1.3322667,0.804266 0.4437333,0.1152 -1.2213333,1.149867 -1.2213333,1.149867 l 1.3322666,0.4608 c 0,0 -0.7765333,1.380267 -0.8874666,1.7248 -0.1109334,0.344533 2.1088,0.344533 2.1088,0.344533 M 96.3744,-155.25227 l -2,0.6912 -1.9968,1.3792 v -3.68 l -2.6656,0.23147 0.6656,-4.3712 -2.219733,0.45973 -0.222934,-2.3008 -2.221866,0.92054 c 0,0 -0.4416,-2.53014 -0.663467,-2.98987 -0.224,-0.45973 -1.111467,0.6912 -1.111467,0.6912 0,0 0,-2.53013 -0.2208,-1.84107 -0.224,0.69014 -0.890666,3.2192 -0.890666,3.2192 l -2.219734,-0.22826 0.222934,-2.99094 -0.817067,-5.66826 3.553067,2.76266 3.925333,1.06454 2.008533,2.08106 3.5424,2.75094 0.8896,3.68 2.8864,1.84 0.6656,2.7584 1.554134,1.38133 -1.997867,0.45973 z m -20.651733,-11.95733 -1.714134,-1.00587 -0.427733,-4.89386 2.664533,1.216 1.92,-0.83947 0.221867,7.5904 -0.221867,2.76053 z M 33.975467,33.003733 37.4176,32.7744 l 0.110933,-0.574933 2.1088,-0.690134 0.666667,-1.495466 1.109333,0.4608 -0.109866,2.989866 1.554133,0.690134 -0.888533,1.265066 1.777066,-0.4608 -0.443733,2.530134 h 4.106667 L 44.7456,39.7888 l 1.332267,1.265067 c 0,0 -1.554134,0.3456 -2.109867,0.459733 -0.554667,0.116267 1.997867,0.920533 1.997867,0.920533 0,0 -4.773334,-0.2304 -5.106134,-0.2304 -0.333866,0 1.220267,1.495467 1.220267,1.495467 0,0 -1.665067,-0.114133 -1.997867,0 -0.333866,0.1152 0.554667,1.149867 0.554667,1.149867 l -1.3312,-0.229334 0.554667,1.034667 c 0,0 -1.221334,-0.459733 -1.1104,-0.1152 0.109866,0.3456 1.886933,2.5312 1.886933,2.5312 L 41.413333,49.5648 39.082667,48.298667 37.4176,45.5392 34.865067,39.674667 35.751467,38.064 34.974933,37.6032 34.4192,35.419733 33.088,34.8448 33.975467,34.039467 Z" style="fill:#332c28;fill-opacity:1;fill-rule:nonzero;stroke:none;stroke-width:1.06666672" id="path34" inkscape:connector-curvature="0"/></g><g id="g36" transform="translate(65.8656,339.96459)"><path d="m 0,0 -4.2261333,-2.9994667 -1.9914667,-1.6864 v -2.1472 L -1.4794667,-4.0736 h 2.96 L 4.4416,-1.3130667 3.8496,-3.4602667 7.6981333,-0.0864 9.4752,-2.2336 11.547733,0.52693333 15.6928,-1.0058667 c 0,0 -1.479467,3.0666667 0.295467,2.4522667 1.777066,-0.61226667 5.034666,-0.3061333 5.034666,-0.3061333 l 1.776,1.84 0.296534,1.6202666 H 14.4256 Z" style="fill:#8a7e78;fill-opacity:1;fill-rule:nonzero;stroke:none;stroke-width:1.06666672" id="path38" inkscape:connector-curvature="0"/></g><g id="g40" transform="translate(33.001067,338.34528)"><path d="m 0,0 0.4448,-1.3802667 4.5898667,-0.1536 -1.7770667,-1.84 4.7370667,1.5328 0.5930666,-1.2256 c 0,0 1.7749337,2.4522667 2.0714667,1.5328 0.296533,-0.9205333 1.776,-2.7605333 1.776,-2.7605333 0,0 1.184,1.84 1.776,0.9205333 0.593067,-0.9205333 2.9632,-2.7594666 2.9632,-2.7594666 l 2.225067,1.3856 L 15.776,-1.1424 8.8832,0.91946667 Z" style="fill:#8a7e78;fill-opacity:1;fill-rule:nonzero;stroke:none;stroke-width:1.06666672" id="path42" inkscape:connector-curvature="0"/></g><g id="g44" transform="translate(95.852053,353.76352)"><path d="M 0,0 0.8064,-1.9253333 4.8672,0.44266667 4.064,-1.9253333 7.9946667,0.22186667 9.3941333,-1.6192 5.5445333,-2.5386667 2.288,-2.2314667 -1.2661333,-4.992 Z" style="fill:#8a7e78;fill-opacity:1;fill-rule:nonzero;stroke:none;stroke-width:1.06666672" id="path46" inkscape:connector-curvature="0"/></g><g id="g48" transform="translate(73.268267,297.25109)"><path d="M 0,0 5.9221333,-0.61226667 1.1850667,-2.1461333 c 0,0 6.2176,-1.2288 5.328,-1.5338667 C 5.6256,-3.9872 5.0325333,-5.8250667 5.0325333,-5.8250667 c 0,0 0.5930667,-0.9226666 1.4805334,-3.3749333 0.8896,-2.452267 0.8896,-5.8272 0.8896,-5.8272 L 8.8821333,-16.866133 6.5130667,-16.56 v -3.3728 L 2.96,-19.626667 l -2.36693333,-1.5328 -2.96213337,-2.4544 3.8496,6.1344 L -0.592,-17.173333 2.0725333,-14.1056 -0.592,-12.573867 -2.6645333,-13.186133 0.29546667,-8.5866667 -0.592,-7.3589333 l 1.18506667,3.0656 -2.66559997,2.4522666 z" style="fill:#a1938c;fill-opacity:1;fill-rule:nonzero;stroke:none;stroke-width:1.06666672" id="path50" inkscape:connector-curvature="0"/></g><g id="g52" transform="translate(130.26304,353.37088)"><path d="m 0,0 3.2576,0.76693333 c 0,0 -2.2197333,-1.38026666 -1.6288,-1.22666666 C 2.2208,-0.30506667 5.0325333,0 5.0325333,0 L 4.2933333,-1.3792 7.9936,-0.91946667 6.9578667,-2.2997333 c 0,0 3.2565333,0.6144 3.7002663,0.3082666 C 11.104,-2.2997333 7.1050667,-3.2192 7.1050667,-3.2192 L 6.0704,-1.9914667 2.2208,-3.0666667 3.2576,-1.3792 0.59306667,-1.5328 v 1.22773333 L -2.0725333,-1.5328 -0.29546667,1.0730667 Z" style="fill:#a1938c;fill-opacity:1;fill-rule:nonzero;stroke:none;stroke-width:1.06666672" id="path54" inkscape:connector-curvature="0"/></g><g id="g56" transform="translate(143.58645,349.84427)"><path d="M 0,0 2.3690667,-1.5338667 -0.14826667,-2.2997333 3.7024,-3.0656 1.6298667,-4.7530667 c 0,0 4.7381333,0.1536 5.3290666,-0.3061333 C 7.5509333,-5.52 9.4752,-7.6661333 9.4752,-7.6661333 l 3.403733,-0.3072 3.256534,-1.3792 5.776,-3.8335997 c 0,0 18.058666,-4.599467 18.8,-4.445867 0.740266,0.152533 23.534933,-2.4544 24.573866,-2.7616 1.037867,-0.306133 6.958934,-2.145067 6.958934,-2.145067 l -14.9536,1.991467 c 0,0 -11.400534,0.765867 -11.991467,0.920533 C 44.709333,-19.472 45.152,-20.24 45.152,-20.24 l -3.108267,0.4608 c 0,0 1.0368,-1.687467 0.592,-1.3792 -0.4448,0.305067 -3.2576,1.6864 -3.2576,1.6864 l -0.1472,-1.841067 -2.219733,1.9936 L 33.307733,-19.7792 31.088,-18.4 l -1.333333,-0.766933 -2.516267,2.3008 c 0,0 0.1504,-1.226667 -0.442667,-0.765867 -0.594133,0.458667 -2.219733,2.146133 -2.219733,2.146133 l -1.9264,0.613334 -4.5888,2.145066 -1.925333,1.534934 -1.4784,-1.534934 -1.778134,1.841067 c 0,0 -0.887466,-2.453333 -1.035733,-1.992533 -0.1472,0.459733 -2.368,2.759466 -2.368,2.759466 L 8.2912,-7.9733333 6.9589333,-8.7392 6.2165333,-5.9786667 3.9978667,-7.0528 1.3322667,-5.8261333 -1.3312,-5.6736 l 0.592,2.2997333 -1.9264,0.768 -2.2197333,1.99253337 L -6.3658667,1.2266667 -1.184,0.4608 Z" style="fill:#a1938c;fill-opacity:1;fill-rule:nonzero;stroke:none;stroke-width:1.06666672" id="path58" inkscape:connector-curvature="0"/></g><g id="g60" transform="translate(64.238507,293.87659)"><path d="m 0,0 -3.7024,2.9141333 c 0,0 -4.5877333,-6.4405333 3.7024,-5.6725333 z" style="fill:#000000;fill-opacity:1;fill-rule:nonzero;stroke:none;stroke-width:1.06666672" id="path62" inkscape:connector-curvature="0"/></g><g id="g64" transform="translate(85.407787,298.17088)"><path d="m 0,0 c 0,0 -0.3584,5.4144 3.9968,4.4469333 l 2.0725333,-0.4608 C 6.0693333,3.9861333 5.3290667,-2.9141333 0,0" style="fill:#000000;fill-opacity:1;fill-rule:nonzero;stroke:none;stroke-width:1.06666672" id="path66" inkscape:connector-curvature="0"/></g><g id="g68" transform="translate(75.489067,260.29792)"><path d="M 0,0 C 0,0 -0.29653333,-1.8432 0.29546667,-1.6885333 0.88853333,-1.5338667 8.8821333,3.3728 8.7338667,4.2933333 8.5856,5.2128 7.8453333,5.2128 7.8453333,5.2128 c 0,0 -2.368,-1.6853333 -2.6634666,-0.9194667 C 4.8864,5.0592 3.9968,5.8250667 4.5898667,5.9797333 c 0.592,0.1536 3.7013333,0.4597334 4.2922666,0.9194667 0.592,0.4597333 1.6437337,3.703467 -1.7749333,5.9808 -2.0746667,1.3792 -7.25546667,0.612267 -9.92,-1.84 -2.6656,-2.4533333 -4.7370667,-7.0528 -4.4405333,-8.1269333 0.2954666,-1.0741334 2.2208,-2.76053337 3.1082666,-2.30080003 0.8885334,0.46080003 1.6288,1.99466663 2.368,2.76053333 C -1.0357333,4.1386667 -0.4448,3.9850667 0.1472,3.2192 0.7392,2.4533333 1.7770667,0.91946667 0,0" style="fill:#000000;fill-opacity:1;fill-rule:nonzero;stroke:none;stroke-width:1.06666672" id="path70" inkscape:connector-curvature="0"/></g><g id="g72" transform="translate(80.670827,272.10421)"><path d="m 0,0 c 0,0 -3.8496,0.00106667 -4.7381333,-0.30613333 -0.8874667,-0.3072 -3.2565334,-1.83999997 -3.2565334,-1.83999997 0,0 4.4416,-0.00107 5.9221334,0.6122666 C -0.592,-0.91946667 0.88746667,-0.91946667 0,0" style="fill:#76716b;fill-opacity:1;fill-rule:nonzero;stroke:none;stroke-width:1.06666672" id="path74" inkscape:connector-curvature="0"/></g></g></g><g id="g76"><g id="g78" clip-path="url(#clipPath80)"><g id="g84" transform="translate(63.941653,268.27083)"><path d="m 0,0 -4.2933333,4.064 -2.4416,1.6106667 -0.8885334,1.3792 -2.8874663,1.8389333 -0.221867,2.530133 -2.442667,1.610667 -0.666666,3.68 -2.4416,-1.380267 0.666666,3.220267 -3.776,-0.459733 2.2208,2.530133 h -2.2208 l 1.1104,2.5312 H -19.8368 l 0.221867,5.0592 -1.5552,1.3792 1.998933,3.450667 -1.998933,0.919466 1.777066,2.530134 -2,1.149866 H -24.7232 l 0.888533,2.0704 -2.664533,-0.919466 0.221867,2.069333 -1.774934,-0.4608 0.6656,1.380267 -2.8864,0.2304 1.109334,0.920533 -2.219734,0.459733 -0.222933,1.84 -1.776,1.149867 -1.776,2.530133 -1.332267,6.900267 -1.1104,0.690133 0.887467,1.149867 c 0,1.380267 1.777067,6.669867 1.777067,6.669867 l -0.4448,1.838933 1.332266,-0.458667 3.553067,2.989867 -0.4448,1.380267 2,0.229333 4.2176,0.2304 c 4.219733,0.228267 8.439467,-1.6096 8.439467,-1.6096 h 1.108266 l 3.6288,-3.605333 3.4784003,-0.305067 1.1104,0.690133 1.776,0.229334 1.3322667,2.069333 1.5562667,0.6912 4.2176,2.989867 3.7749333,1.6096 10.6592,2.989866 c 0,0 7.328,0.2304 8.661333,0" style="fill:none;stroke:#000000;stroke-width:0.53333336;stroke-linecap:butt;stroke-linejoin:miter;stroke-miterlimit:4;stroke-dasharray:none;stroke-opacity:1" id="path86" inkscape:connector-curvature="0"/></g><g id="g88" transform="translate(88.14688,259.98955)"><path d="m 0,0 -6.8842667,-4.3690667 c 0,0 -6.6613333,-2.7605333 -8.2165333,-3.2213333 -1.554133,-0.4586667 -3.3312,0.9205333 -3.3312,0.9205333 -3.108267,2.7605334 -5.550933,9.6618667 -5.7728,14.9514667 -0.427733,10.1888 0.7968,24.2048 0.443733,25.300267 -0.6656,2.069333 -5.329066,4.139733 -5.329066,4.139733 -4.440534,-7.5904 3.774933,-7.361067 3.774933,-7.361067" style="fill:none;stroke:#000000;stroke-width:0.53333336;stroke-linecap:butt;stroke-linejoin:miter;stroke-miterlimit:4;stroke-dasharray:none;stroke-opacity:1" id="path90" inkscape:connector-curvature="0"/></g><g id="g92" transform="translate(83.26144,265.5104)"><path d="M 0,0 C 0,0 -2.2218667,-3.2192 -3.3312,-0.45973333 -4.4416,2.2997333 0.6656,0.92053333 1.5541333,1.8410667 2.4426667,2.7605333 1.7770667,6.4405333 -0.88853333,7.8208 -3.5530667,9.2 -11.3248,7.8208 -13.989333,1.8410667 c -2.6656,-5.9797334 1.776,-6.4416 1.776,-6.4416 C -10.6592,-4.8298667 -9.1050667,0 -7.5498667,-0.91946667 -5.9957333,-1.84 -5.7738667,-5.9808 -8.4384,-5.5210667" style="fill:none;stroke:#000000;stroke-width:0.53333336;stroke-linecap:butt;stroke-linejoin:miter;stroke-miterlimit:4;stroke-dasharray:none;stroke-opacity:1" id="path94" inkscape:connector-curvature="0"/></g><g id="g96" transform="translate(70.38176,262.75157)"><path d="M 0,0 C 0,0 3.9978667,8.9706667 13.5456,6.6698667" style="fill:none;stroke:#000000;stroke-width:0.53333336;stroke-linecap:butt;stroke-linejoin:miter;stroke-miterlimit:4;stroke-dasharray:none;stroke-opacity:1" id="path98" inkscape:connector-curvature="0"/></g><g id="g100" transform="translate(133.00256,165.6896)"><path d="M 0,0 C 0.66666667,-5.0602667 3.1082667,-9.6597333 3.1082667,-9.6597333" style="fill:none;stroke:#000000;stroke-width:0.53333336;stroke-linecap:butt;stroke-linejoin:miter;stroke-miterlimit:4;stroke-dasharray:none;stroke-opacity:1" id="path102" inkscape:connector-curvature="0"/></g><g id="g104" transform="translate(116.71723,244.50421)"><path d="M 0,0 0.4448,-4.3701333 1.9989333,-7.8208 l 1.5541334,-4.368 1.1104,-2.989867 1.5552,0.688 c 0,0 0,-3.220266 0.2208,-3.909333 0.2218666,-0.690133 2,-6.900267 2,-6.900267 l 1.3312,0.6912 L 9.5488,-28.9792 11.102933,-30.360533 14.656,-33.3504 15.099733,-35.188267 H 16.432 l 0.666667,-2.072533 2.221866,1.841067 V -38.8704 l 0.8864,0.231467 -1.332266,-5.061334 1.776,1.149867 -0.6656,-2.5312 1.1104,-4.1376 -1.1104,-2.532267 0.888533,-1.1488 -0.666667,-1.841066 0.888534,-2.299734 -1.332267,-4.5984 1.554133,0.4608 -1.332266,-3.681066 1.408,-0.384 c 0,0 -2.2208,-12.650667 -2.2208,-19.550934 v -12.189866 c 0,0 -3.3312,-4.828797 -1.997867,-7.590397 0,0 -5.7024,-4.752 -6.885333,-7.0528 L 11.0304,-112.24 c 0,0 -2.2197333,-2.1504 -2.5184,-6.3648 l 0.1482667,-2.37867 0.7402666,2.14827 0.5930667,-1.22667 c 0,0 0.8864,1.83894 0.7392,1.37814 -0.148267,-0.45867 0,-2.144 0,-2.144 l 1.035733,0.45973" style="fill:none;stroke:#000000;stroke-width:0.53333336;stroke-linecap:butt;stroke-linejoin:miter;stroke-miterlimit:4;stroke-dasharray:none;stroke-opacity:1" id="path106" inkscape:connector-curvature="0"/></g><g id="g108" transform="translate(178.67189,288.35829)"><path d="M 0,0 2.9621333,-6.4394667 0.88746667,-6.1344 2.6645333,-8.5866667 c 0,0 0.2976,-4.2933333 0.8874667,-6.4405333 0.592,-2.148267 2.3690667,-7.36 2.3690667,-7.36 -1.1829334,0.612267 -2.0704,0.308267 -2.0704,0.308267 l 2.6624,-6.135467 c -1.4784,0 -4.4405334,1.9168 -4.4405334,1.9168 L 1.5541333,-31.664 1.776,-35.573333 2.8874667,-37.4144 H 1.776 v -3.4496 l 1.776,-3.678933 -1.776,0.458666 1.1114667,-2.299733 -1.5552,0.459733 V -50.2944 l 0.6666666,-2.760533 H 0.88746667 L 1.5541333,-53.9744 0.22293333,-54.664533 0.88746667,-57.424 -1.1104,-57.883733 c 0,0 0.8864,-2.529067 1.5552,-2.990934 0.6645333,-0.4576 2.2197333,-1.6096 2.2197333,-1.6096 l -1.1104,-1.608533 0.8885334,-1.381333 -1.3333334,-0.459734 1.3333334,-1.6096 -1.55520003,0.229334 L 2.2208,-68.9248 H 0.4448 L 0.88746667,-71.453867 3.1093333,-73.7536 -1.7781333,-71.453867 1.776,-74.903467 -0.66666667,-73.984 1.776,-77.204267 l -2.368,-0.384 0.368,-5.137066 0.8896,-2.757334 -1.776,0.229334 0.66453333,-2.530134 0.89066667,-2.5312 -1.5552,0.9184 0.66453333,-2.2976 0.6688,-3.2192 -2.44266663,1.3792 0.8874666,-3.220266 0.44373337,-1.608534 H -2 l 1.33333333,-2.760533 -2.21866663,0.22827 1.1072,-2.75734 -1.3301334,-1.15306 0.4448,-1.14987 -1.1114666,-1.14773 1.5552,-2.76054 0.8874666,-2.0704 -2.4426666,0.6912 0.8896,-1.84213 -2.8874667,0.23147 1.5541333,-2.99094 -1.9989333,0.2304 -0.6666667,-1.152 -1.3333333,-1.60853 0.2250667,-2.75947 -0.8906667,-0.91946 0.4458667,-2.3008 -1.3333334,-1.14987 -0.6656003,-1.60747 0.221867,-1.84426 1.3312,-1.83787 0.6656,-1.84213 -1.3301333,-0.68907 -0.2229334,-1.38027 -1.5552003,-0.45973 -0.221866,-1.14987 -1.111467,-1.14773 -1.553067,-1.84213 -1.553066,-0.69014 -1.109334,-1.38026 -1.557333,-1.1488 -0.888533,-1.6096 -2.219734,-2.76054 -1.776,-1.3792 -0.888533,-2.30293 -1.998933,-1.14773 -1.553067,-2.76054 -1.777067,-1.6096 -2.6656,-2.0704 -1.997866,-2.07146 -2.4416,-0.688 -1.480534,-0.38614 -3.552,-2.75946 -0.666666,-4.9056 H -43.376 c 0,0 -0.888533,9.35253 -0.1472,12.57173" style="fill:none;stroke:#000000;stroke-width:0.53333336;stroke-linecap:butt;stroke-linejoin:miter;stroke-miterlimit:4;stroke-dasharray:none;stroke-opacity:1" id="path110" inkscape:connector-curvature="0"/></g><g id="g112" transform="translate(178.74581,207.09067)"><path d="m 0,0 c 0,0 18.432,-4.1418667 23.538133,-3.9104 5.1072,0.2304 13.547734,-4.8309333 13.547734,-4.8309333 L 35.086933,-5.7504 c 0,0 8.2144,-3.2213333 9.7696,-8.279467 C 46.410667,-19.0912 49.2992,-30.1312 49.2992,-30.1312" style="fill:none;stroke:#000000;stroke-width:0.53333336;stroke-linecap:butt;stroke-linejoin:miter;stroke-miterlimit:4;stroke-dasharray:none;stroke-opacity:1" id="path114" inkscape:connector-curvature="0"/></g><g id="g116" transform="translate(224.71349,157.18016)"><path d="M 0,0 C 1.1082667,0.22933333 0,8.9696 1.5541333,13.108267 3.1072,17.250133 7.104,30.589867 7.104,30.589867 L 5.4762667,30.283733 c 0,0 3.8485333,5.52 4.7370663,7.36 l -2.9610663,-1.2256 c 0,0 4.4416003,5.5168 5.3290663,7.970134" style="fill:none;stroke:#000000;stroke-width:0.53333336;stroke-linecap:butt;stroke-linejoin:miter;stroke-miterlimit:4;stroke-dasharray:none;stroke-opacity:1" id="path118" inkscape:connector-curvature="0"/></g><g id="g120" transform="translate(107.0224,353.83179)"><path d="M 0,0 -0.22186667,2.9898667 3.1082667,0.69013333 2.6645333,4.6005333 4.8842667,1.1488 5.7728,5.2896 7.5488,2.2997333 V 9.2 l 1.5562667,-6.4405333 2.2197333,7.1296 -0.666667,-6.6688 5.7728,6.6688 -3.3312,-6.8992 5.1072,4.8309333 -1.776,-4.8309333 5.329067,5.2896 -2.8864,-5.0592 L 25.0912,7.8208 21.538133,3.68 l 5.550934,1.6096 -3.995734,-3.68 9.104,2.5290667 L 27.089067,1.3781333 32.420267,3.4496 29.533867,0.69013333 35.528533,2.5301333 32.420267,0.22933333 37.749333,1.1488 33.9744,-0.69013333 l 4.885333,-1.60959997 -1.1104,-0.9205334 2.4416,-0.9205333 c 0,0 10.4384,-9.198933 19.0976,-13.338667 8.661334,-4.1408 36.388267,-5.831466 43.967997,-7.362133 8.36267,-1.685333 16.35734,-6.285867 18.57814,-6.285867 l 0.44373,-1.838933 c 0,0 9.32587,-2.760533 11.10187,-2.760533 h 1.776 l -0.8864,-2.760534 9.3248,-2.759466 -0.8864,-2.760534 c 0,0 6.2176,-4.599466 8.88213,-4.599466 l -4.44267,-0.459734 c 0,0 4.88854,-4.600533 7.99574,-4.139733 l -1.776,-2.3008 3.99786,-3.678933 -0.8896,-1.841067 7.5488,-3.68 -0.44373,-1.84 4.44267,-4.139733 5.328,-11.5008 -2.21974,0.920533 4.88427,-6.439467 -1.776,-0.919466 2.07253,-5.216 c 1.33334,-3.832534 2.5184,-14.259197 2.5184,-15.791997 v -6.44054 -4.59946 l -0.88853,-5.82507 -1.18613,-1.536 0.8896,-3.3728 -0.8896,-1.5328 -0.29654,-5.21493 -2.06933,-0.91734 c 0,0 -0.88853,-10.4288 -0.2976,-11.65333 l -0.59093,1.22453 c 0,0 -1.1872,-4.5984 -0.59414,-5.82506 l -2.07253,-0.30827 c 0,0 -1.4784,-1.52853 -0.59307,-3.06667 l -0.59093,-4.9056 -0.88747,-2.45333 -0.59093,-4.2944 -1.77707,-0.9184 0.2944,-2.76053 -1.776,0.30613 -1.48053,-3.98827 0.59093,-1.83893 -1.4784,0.3072 -0.29653,-3.98827 c 0,0 -2.07467,1.84107 -1.776,0.9216 0.29547,-0.9216 0.59307,-5.82613 0.59307,-5.82613 l -1.48374,0.30507 -1.18293,-1.83894 c 0,0 -2.37013,0.61547 -2.07147,-0.30613 0.29547,-0.92053 0.29547,-3.67893 0.29547,-3.67893 l -0.29547,-1.84214 c 0,0 -2.37013,2.76054 -2.07253,1.84214 0.29547,-0.91947 -0.88853,-4.59947 -0.592,-5.51894 0.29547,-0.9216 -0.29653,-3.68106 -0.29653,-3.68106 l -2.07254,2.14506 -1.184,-2.76053 -1.11146,0.84373 c -1.77707,-2.07146 -5.7728,-13.3408 -5.7728,-13.3408 l -1.99787,-0.45866 -0.88853,-2.0704 h -1.77707 l -2.6656,-0.46187 -14.432,6.90027 -5.9968,0.9216 -10.43733,7.58933 c 0,0 -2.8864,1.15093 -4.44054,2.76053 -1.553063,1.60854 -0.22186,2.98987 -0.22186,2.98987 H 99.7024 l -1.109333,1.3792 -1.1104,-0.22933 -2,0.91946 c 0,0 2.4448,2.53014 3.5552,2.75947 1.108263,0.22933 2.664533,-0.45867 2.664533,-0.45867 l 1.99787,0.22934 c 0,0 5.7728,-2.30187 7.77066,-3.22027 1.99787,-0.91947 9.10507,-0.22933 9.10507,-0.22933 0,0 2.7392,0.5376 2.2944,0.22933 -0.4416,-0.3072 -2.21867,-1.22667 -1.77493,-1.22667 0.4448,0 2.66346,-0.76586 2.66346,-0.76586 l 0.14827,-0.768 1.62773,0.30613 0.29654,-1.99467 c 0,0 0.59306,0.92374 1.0368,0.46187 0.44266,-0.46187 1.18293,-2.29867 1.18293,-1.83893 0,0.45866 0.88853,0.76693 0.88853,0.76693 l 1.1872,-1.68747 c 0,0 0,1.3792 0.8864,0.4608 0.8896,-0.92053 1.92427,-2.3008 1.92427,-2.3008 l 1.18507,-2.30186 0.88853,-2.60267 c 0,0 0.2944,2.60267 0.44267,2.144 0.14826,-0.45867 1.18506,-0.76693 1.18506,-1.38133 0,-0.61227 0.4448,-1.37814 0.592,-1.9904 0.1472,-0.61547 0.59094,-1.5328 0.59094,-1.5328 l 0.14826,3.06453 1.4816,-0.91947" style="fill:none;stroke:#000000;stroke-width:0.53333336;stroke-linecap:butt;stroke-linejoin:miter;stroke-miterlimit:4;stroke-dasharray:none;stroke-opacity:1" id="path122" inkscape:connector-curvature="0"/></g><g id="g124" transform="translate(83.92704,297.02027)"><path d="M 0,0 1.2245333,0.90666667 1.5552,1.1509333 c 0,0 -1.1104,4.1397334 1.9978667,5.2906667 C 6.6624,7.5914667 8.4384,5.52 8.4384,5.52 c 0,0 0.4448,-5.0592 -2.4416,-5.74933333 C 3.6661333,-0.7872 1.9989333,0.69013333 0,0 Z" style="fill:none;stroke:#000000;stroke-width:0.53333336;stroke-linecap:butt;stroke-linejoin:miter;stroke-miterlimit:4;stroke-dasharray:none;stroke-opacity:1" id="path126" inkscape:connector-curvature="0"/></g><g id="g128" transform="translate(88.071893,110.79584)"><path d="m 0,0 c 0,0 18.356267,30.6688 20.725333,32.507733 l 2.369067,1.84 5.922133,-0.612266 15.914667,21.1584 C 43.301333,60.337067 39.082667,65.168 39.082667,65.168 L 37.7504,66.548267 37.0848,65.3984 l -1.778133,3.220267 -2.219734,0.9184 -0.888533,2.301866 -1.1104,0.229334 V 73.6768 l -1.1104,0.461867 -0.221867,1.380266 h -1.1104 l -1.998933,4.1408 -2.219733,1.838934 -0.888534,4.370133 -1.3312,-0.919467 -0.666666,3.909334 -1.998934,0.689066 0.887467,2.992 -2.664533,-0.2304 1.777066,2.068267 -2.443733,0.920533 -1.332267,3.9104 -0.2208,2.760537 H 14.656 l -0.4448,4.13973 h -1.776 l 0.222933,3.45067 -1.998933,0.22826 -0.8874667,2.98987 -1.5552,0.92053 0.4437334,2.53227 H 7.1072 l 0.2208,2.0672 H 5.5509333 L 3.776,123.81973 1.5541333,127.9584 v 2.53013 l -2.22079997,3.9104 L -2.2208,142.9088" style="fill:none;stroke:#000000;stroke-width:0.53333336;stroke-linecap:butt;stroke-linejoin:miter;stroke-miterlimit:4;stroke-dasharray:none;stroke-opacity:1" id="path130" inkscape:connector-curvature="0"/></g><g id="g132" transform="translate(168.30731,160.78443)"><path d="m 0,0 c 0,0 15.3952,6.7488 16.580267,6.7488 1.184,0 7.6992,-5.5232 7.6992,-5.5232 l 4.736,0.6144 7.2544,-2.60906667" style="fill:none;stroke:#000000;stroke-width:0.53333336;stroke-linecap:butt;stroke-linejoin:miter;stroke-miterlimit:4;stroke-dasharray:none;stroke-opacity:1" id="path134" inkscape:connector-curvature="0"/></g><g id="g136" transform="translate(245.58539,135.33024)"><path d="m 0,0 37.896533,-22.616533 c 0,0 1.778134,-8.510934 1.998934,-7.819734" style="fill:none;stroke:#000000;stroke-width:0.53333336;stroke-linecap:butt;stroke-linejoin:miter;stroke-miterlimit:4;stroke-dasharray:none;stroke-opacity:1" id="path138" inkscape:connector-curvature="0"/></g><g id="g140" transform="translate(239.36875,242.66411)"><path d="M 0,0 C 0,0 -0.592,-11.345067 -1.7770667,-14.717867 L -2.0736,-9.5072 c 0,0 -2.0746667,-12.267733 -4.7381333,-13.799467 l 1.4816,7.0528 c 0,0 -7.1050667,-12.266666 -7.9935997,-16.251733 -0.888534,-3.989333 -0.888534,-8.280533 -0.888534,-8.280533" style="fill:none;stroke:#000000;stroke-width:0.53333336;stroke-linecap:butt;stroke-linejoin:miter;stroke-miterlimit:4;stroke-dasharray:none;stroke-opacity:1" id="path142" inkscape:connector-curvature="0"/></g><g id="g144" transform="translate(183.55627,206.09376)"><path d="M 0,0 C 0,0 0.4448,-5.0592 0.22293333,-6.6709333 0,-8.2794667 -1.7749333,-12.648533 -3.1082667,-13.569067 l 2.21973337,0.459734 -2.66346667,-3.4496 1.7770667,-0.4608 -1.1104,-1.610667 1.7749333,-0.458667 c 0,0 -1.7749333,-5.52 -3.9978667,-5.52 h 2.2229334 c 0,0 0.4437333,-3.681066 -1.1114667,-4.830933 l 1.7770667,0.2304 -1.7770667,-2.760533 1.1114667,-0.2304 -1.1114667,-3.909334 -1.776,-2.0704" style="fill:none;stroke:#000000;stroke-width:0.53333336;stroke-linecap:butt;stroke-linejoin:miter;stroke-miterlimit:4;stroke-dasharray:none;stroke-opacity:1" id="path146" inkscape:connector-curvature="0"/></g><g id="g148" transform="translate(226.63648,180.56352)"><path d="m 0,0 -0.4448,-4.3701333 -1.7781333,0.4608 -0.4416,-4.1408 h -1.3333334 l -1.1104,-6.2079997 -1.1093333,-0.2304 -1.1114667,-3.221334 -1.3301333,0.231467 -0.2229333,-1.837867 -1.5530667,0.9184 -0.4448,-3.681066" style="fill:none;stroke:#000000;stroke-width:0.53333336;stroke-linecap:butt;stroke-linejoin:miter;stroke-miterlimit:4;stroke-dasharray:none;stroke-opacity:1" id="path150" inkscape:connector-curvature="0"/></g><g id="g152" transform="translate(136.92395,132.1104)"><path d="M 0,0 C 0,0 0.00106667,-5.5210667 0.07573333,-7.8218667" style="fill:none;stroke:#000000;stroke-width:0.53333336;stroke-linecap:butt;stroke-linejoin:miter;stroke-miterlimit:4;stroke-dasharray:none;stroke-opacity:1" id="path154" inkscape:connector-curvature="0"/></g><g id="g156" transform="translate(134.99947,124.75104)"><path d="m 0,0 -0.592,-1.536 -1.184,0.9216 c 0,0 0.1482667,-1.3802667 -0.4437333,-1.2288 -0.592,0.1557333 -2.2208,0 -2.2208,0" style="fill:none;stroke:#000000;stroke-width:0.53333336;stroke-linecap:butt;stroke-linejoin:miter;stroke-miterlimit:4;stroke-dasharray:none;stroke-opacity:1" id="path158" inkscape:connector-curvature="0"/></g><g id="g160" transform="translate(131.15051,128.58229)"><path d="m 0,0 c 0,0 -1.3237333,-6.2730667 -1.0346667,-10.4256 0.14720003,-2.146133 -2.9621333,-1.227733 -0.7424,9.50613333" style="fill:none;stroke:#000000;stroke-width:0.53333336;stroke-linecap:butt;stroke-linejoin:miter;stroke-miterlimit:4;stroke-dasharray:none;stroke-opacity:1" id="path162" inkscape:connector-curvature="0"/></g><g id="g164" transform="translate(126.11776,124.59477)"><path d="m 0,0 c 0,0 -0.2976,-4.2933333 0,-5.9797333 0.29653333,-1.6864 1.0368,-1.5328 1.0368,0.9194666 0,2.4565334 0.2954667,5.21600003 0.2954667,5.21600003" style="fill:none;stroke:#000000;stroke-width:0.53333336;stroke-linecap:butt;stroke-linejoin:miter;stroke-miterlimit:4;stroke-dasharray:none;stroke-opacity:1" id="path166" inkscape:connector-curvature="0"/></g><g id="g168" transform="translate(128.19008,126.58955)"><path d="M 0,0 0.88853333,2.1461333 1.6298667,0 3.8496,2.2986667 3.7013333,0 c 0,0 2.0736,5.9776 3.2565334,7.6661333 L 7.4016,3.2202667 c 0,0 1.3322667,3.8304 1.776,4.4458666 l 1.0368,-3.0656 0.890667,1.9925334 L 13.0272,3.8336 13.6192,5.8250667 15.248,4.9056" style="fill:none;stroke:#000000;stroke-width:0.53333336;stroke-linecap:butt;stroke-linejoin:miter;stroke-miterlimit:4;stroke-dasharray:none;stroke-opacity:1" id="path170" inkscape:connector-curvature="0"/></g><g id="g172" transform="translate(135.44427,147.13547)"><path d="M 0,0 -2.2208,-1.0730667 -4.5888,-3.68 -6.5130667,-4.6005333 -7.1061333,-6.9002667 c 0,0 -1.0368,0 -0.7392,-0.4586666 C -7.5509333,-7.8186667 -7.4016,-8.5856 -7.4016,-8.5856 c 0,0 -1.0368,-0.9184 -1.0368,-1.3813333 v -1.5317337 l 0.5930667,-1.6864" style="fill:none;stroke:#000000;stroke-width:0.53333336;stroke-linecap:butt;stroke-linejoin:miter;stroke-miterlimit:4;stroke-dasharray:none;stroke-opacity:1" id="path174" inkscape:connector-curvature="0"/></g><g id="g176" transform="translate(170.97397,168.45003)"><path d="m 0,0 2.3669333,0.15146667 1.7781334,0.15466666 0.8896,-0.76586666 0.5909333,0.6112 0.2944,-0.76693334 2.2229333,-0.15146666 0.7392,-1.38133337" style="fill:none;stroke:#000000;stroke-width:0.53333336;stroke-linecap:butt;stroke-linejoin:miter;stroke-miterlimit:4;stroke-dasharray:none;stroke-opacity:1" id="path178" inkscape:connector-curvature="0"/></g><g id="g180" transform="translate(121.97291,331.75104)"><path d="m 0,0 c 0,0 3.4037333,-1.84 3.8485333,-1.84 0.4448,0 -0.4448,-0.7658667 -0.4448,-0.7658667 0,0 1.7770667,-0.4608 2.3712,-0.768 0.5909334,-0.3061333 0.2944,-1.2266666 0.2944,-1.2266666 l 1.6288,-1.0730667 0.4448,-1.5328 L 10.6592,-8.2794667 10.0672,-9.6597333 12.88,-11.04 l 0.1472,-1.687467 2.368,-2.146133 -0.7392,-1.226667 2.516267,-2.913066 L 16.432,-20.24 l 2.219733,-2.914133 -0.592,-0.612267 c 0,0 3.700267,-4.293333 3.997867,-5.0592 0.296533,-0.769067 -1.479467,0.306133 -1.479467,0.306133 0,0 1.778134,-2.605866 2.517334,-4.446933 0.740266,-1.84 -0.888534,-0.920533 -0.888534,-0.920533 l 2.0704,-1.6864 -2.0704,-0.306134 c 0,0 3.258667,-5.981866 3.553067,-6.5952 0.295467,-0.612266 -1.332267,0.154667 -1.332267,0.154667 l 1.627734,-0.766933 -1.778134,-1.380267 0.445867,-3.5264 -1.333333,-1.074133" style="fill:none;stroke:#000000;stroke-width:0.53333336;stroke-linecap:butt;stroke-linejoin:miter;stroke-miterlimit:4;stroke-dasharray:none;stroke-opacity:1" id="path182" inkscape:connector-curvature="0"/></g><g id="g184" transform="translate(149.36043,313.35104)"><path d="M 0,0 C 0.44266667,-0.45973333 2.6645333,-4.2933333 2.6645333,-4.2933333 L 1.1850667,-6.4394667 2.5173333,-8.5856 1.9264,-9.3536 l 0.8874667,-2.299733 -0.4448,-1.5328 c 0,0 0.8874666,-2.3008 2.0725333,-4.754134 1.184,-2.453333 1.4805333,-4.293333 1.6277333,-5.2128 0.1482667,-0.9216 -0.7402666,-0.612266 -0.7402666,-0.612266 l 1.0378666,-1.841067 -0.5952,-1.380267 0.1504,-1.533866 -0.8874666,-1.533867 c 0,0 1.0357333,-2.1472 1.3322666,-4.138667 0.2944,-1.9936 -0.7402666,-3.5264 0.4437334,-4.753066 l -1.184,1.226666 0.7402666,-2.606933 -1.1872,0.152533 0.4458667,-3.5264 -1.776,-1.9936 c 0,0 0.5941333,-6.132266 0.7392,-7.0528 C 4.7370667,-53.666133 3.552,-57.1968 3.552,-57.9616 c 0,-0.7648 -0.7381333,-3.985067 -0.7381333,-3.985067 L 2.0725333,-65.6256 c 0,0 -1.1829333,-1.381333 -1.47839997,-2.455467 C 0.29653333,-69.154133 -2.368,-70.992 -2.368,-72.066133 c 0,-1.074134 -0.7424,2.145066 -0.7424,2.145066 0,0 -1.1829333,-1.533866 -1.3322667,-1.84 -0.1461333,-0.305066 -1.0346666,1.687467 -1.0346666,1.687467 0,0 -0.2944,0.3072 -0.5898667,-0.613333" style="fill:none;stroke:#000000;stroke-width:0.53333336;stroke-linecap:butt;stroke-linejoin:miter;stroke-miterlimit:4;stroke-dasharray:none;stroke-opacity:1" id="path186" inkscape:connector-curvature="0"/></g><g id="g188" transform="translate(121.52971,323.16459)"><path d="m 0,0 2.6656,-2.1472 c 0,0 -2.5184,-0.3072 -1.92746667,-0.4597333 0.59306667,-0.1536 3.40693337,-1.6864 3.40693337,-1.6864 0,0 -0.2976,-1.8410667 0.1472,-1.9936 C 4.736,-6.4405333 6.3648,-8.2794667 6.3648,-8.2794667 L 6.0682667,-9.9669333 7.5488,-11.806933 7.6981333,-12.88 c 0,0 1.1850667,-1.994667 1.7749334,-2.606933 0.5920003,-0.612267 1.3322663,-1.533867 1.9253333,-2.453334 0.592,-0.919466 1.332267,-2.913066 1.332267,-2.913066 0,0 -1.627734,0.766933 -1.184,0.459733 0.443733,-0.305067 1.184,-1.226667 1.184,-1.226667 0,0 -0.740267,-0.919466 -0.295467,-1.687466 0.442667,-0.765867 1.034667,-1.6864 1.034667,-1.6864 l 0.592,-2.298667 0.593066,-1.841067 -0.295466,-1.5328 0.888533,-2.760533 -0.593067,-5.52" style="fill:none;stroke:#000000;stroke-width:0.53333336;stroke-linecap:butt;stroke-linejoin:miter;stroke-miterlimit:4;stroke-dasharray:none;stroke-opacity:1" id="path190" inkscape:connector-curvature="0"/></g><g id="g192" transform="translate(119.75264,290.35051)"><path d="M 0,0 2.6645333,0.92053333 1.7770667,3.5274667 3.6992,3.3749333 2.368,5.3674667 4.5888,4.7541333 3.5530667,7.2074667 2.96,9.5082667 4.1450667,9.2 c 0,0 -0.1482667,1.380267 -0.592,1.688533 -0.4448,0.306134 -1.4805334,1.072 -1.4805334,1.072 L 0.74026667,13.188267 2.368,13.3408 c 0,0 -0.8885333,1.5328 -1.184,1.992533 -0.29546667,0.4608 -2.5162667,1.687467 -2.5162667,1.687467 l 0.8874667,1.533867 -1.9232,0.765866 0.7392,0.920534 -1.4816,1.5328 0.592,1.074133 c 0,0 -1.3301333,1.6864 -1.776,1.9936 -0.4437333,0.305067 0.1493333,1.378133 0.1493333,1.378133 0,0 -1.6288,1.841067 -2.0725333,1.994667 -0.4448,0.1536 1.7770667,1.074133 1.7770667,1.074133 0,0 -2.0746667,0.7648 -2.9610667,0.7648 -0.8885333,0 -2.2208,1.457067 -2.2208,1.457067 l 4.3658667,3.143467 2.2208,3.220266 0.8885333,2.3008 0.2218667,2.069334 V 44.3136 l 0.6666666,1.150933 -0.6666666,1.6096 0.2218666,1.6096 L -2.1472,51.905067 -3.4794667,53.9744 -4.368,56.274133 h -1.776 l 0.2218667,1.610667 -1.5541334,0.919467 -0.8885333,1.84 -2.2208,0.229333 -0.442667,1.149867 -1.554133,0.461866 -1.556267,2.069334 -1.776,-0.920534 -1.1104,0.920534 -1.997866,-0.689067 -1.777067,0.459733 -1.109333,-0.6912 -2,-0.2304 -2.4416,-2.530133 -1.333334,-2.298667 c 0,0 -3.553066,-5.9808 -4.218666,-7.591466" style="fill:none;stroke:#000000;stroke-width:0.53333336;stroke-linecap:butt;stroke-linejoin:miter;stroke-miterlimit:4;stroke-dasharray:none;stroke-opacity:1" id="path194" inkscape:connector-curvature="0"/></g><g id="g196" transform="translate(89.848427,283.83488)"><path d="m 0,0 c 0,0 4.4416,-4.6005333 4.8853333,-5.2906667 0.4448,-0.6890666 1.9978667,-3.68 1.9978667,-3.68 0,0 -2.4416,2.2997334 -2.2197333,1.6106667 0.2218666,-0.6912 1.9978666,-3.220267 1.9978666,-3.220267 h -1.776 L 7.1072,-13.339733 H 5.9946667 c 0,0 2,-3.450667 1.7770666,-4.370134 -0.2218666,-0.919466 -1.3312,0.229334 -1.3312,0.229334 L 6.8832,-20.0096 5.7738667,-20.4704 4.6634667,-22.539733 2.8864,-25.300267 0.88853333,-25.530667 -1.5541333,-26.4512" style="fill:none;stroke:#000000;stroke-width:0.53333336;stroke-linecap:butt;stroke-linejoin:miter;stroke-miterlimit:4;stroke-dasharray:none;stroke-opacity:1" id="path198" inkscape:connector-curvature="0"/></g><g id="g200" transform="translate(92.513067,270.72501)"><path d="M 0,0 C 0.22186667,-0.68906667 1.3322667,-6.4405333 0.88853333,-7.5904 0.4448,-8.7402667 -9.9925333,-20.9312 -11.991467,-21.160533 c -1.997866,-0.2304 -6.2176,2.990933 -6.2176,2.990933" style="fill:none;stroke:#000000;stroke-width:0.53333336;stroke-linecap:butt;stroke-linejoin:miter;stroke-miterlimit:4;stroke-dasharray:none;stroke-opacity:1" id="path202" inkscape:connector-curvature="0"/></g><g id="g204" transform="translate(128.48597,280.61515)"><path d="m 0,0 0.66666667,-2.7605333 c 0,0 -1.77599997,1.1498666 -1.55413334,0.4597333 0.22186667,-0.6901333 0,-2.7594667 0,-2.7594667 0,0 -2.44266663,0.2293334 -2.22186663,-0.4608 C -2.8864,-6.2101333 -3.5530667,-8.2805333 -3.5530667,-8.2805333 L -5.1072,-9.4304 l -0.6656,-3.68 -1.7770667,-0.920533 0.2229334,-2.759467 -1.7770667,-0.920533 -0.6656,-1.84 -1.111467,-0.690134 c 0,0 -0.666666,-0.229333 -0.887466,-1.3792 -0.221867,-1.149866 -1.109334,-1.149866 -1.109334,-1.149866 0,0 -0.8896,-0.2304 -1.111466,-1.149867 -0.221867,-0.9216 -1.332267,-1.150933 -1.332267,-1.150933 L -17.319467,-25.76 c 0,0 -0.887466,-0.920533 -1.332266,-0.2304 -0.443734,0.690133 -1.333334,0.690133 -1.333334,0.690133 l -1.776,-0.919466 -1.1104,1.1488 -2.4416,-1.84 -1.776,-0.459734 -2,-0.229333 L -31.088,-27.140267 -33.9744,-27.6" style="fill:none;stroke:#000000;stroke-width:0.53333336;stroke-linecap:butt;stroke-linejoin:miter;stroke-miterlimit:4;stroke-dasharray:none;stroke-opacity:1" id="path206" inkscape:connector-curvature="0"/></g><g id="g208" transform="translate(121.82549,284.06453)"><path d="M 0,0 0.44266667,-2.9898667 -2,-3.9093333 c 0,0 0,-4.1397334 -0.6666667,-3.6810667 -0.6645333,0.4597333 -2.8864,-0.9194667 -2.8864,-0.9194667 l -0.2218666,-3.6800003 -1.5541334,-1.6096 H -8.8832 v -2.3008 l -1.5552,1.610667 -0.666667,-2.5312 -0.6656,1.381333 L -13.3248,-18.4 -14.212267,-17.480533 -16.2112,-20.24 l -1.997867,0.229333 c 0,0 -0.666666,-0.689066 -1.333333,-1.1488 -0.6656,-0.461866 -1.776,0.690134 -1.776,0.690134 l -1.997867,-2.5312 -1.332266,0.2304 -2.2208,-1.380267" style="fill:none;stroke:#000000;stroke-width:0.53333336;stroke-linecap:butt;stroke-linejoin:miter;stroke-miterlimit:4;stroke-dasharray:none;stroke-opacity:1" id="path210" inkscape:connector-curvature="0"/></g><g id="g212" transform="translate(35.369813,328.99061)"><path d="m 0,0 0.4448,1.8410667 c 0,0 2.3690667,-0.1546667 2.96,-0.4597334 0.592,-0.3072 -0.8874667,1.5328 -0.8874667,1.5328 l 5.7728,-1.5328 -2.0714666,1.84 c 0,0 4.8853333,-2.45439997 5.3280003,-2.45439997 0.445866,0 3.554133,-1.38026666 3.554133,-1.38026666 L 14.212267,-1.5338667 17.617067,-2.7584 16.8768,-3.8325333 l 3.997867,-1.84 -3.1104,-0.1536 1.4816,-1.9946667 c 0,0 -2.961067,-0.6122667 -2.516267,-0.6122667 0.442667,0 2.516267,-0.6122666 2.516267,-0.6122666 l -2.0736,-0.9216 1.185066,-1.2255997 -3.552,-2.1472 0.1472,-3.066667 -2.8128,-1.226667 v -3.066666 L 11.8432,-24.0736 l 1.480533,-1.992533 -1.3312,-1.073067" style="fill:none;stroke:#000000;stroke-width:0.53333336;stroke-linecap:butt;stroke-linejoin:miter;stroke-miterlimit:4;stroke-dasharray:none;stroke-opacity:1" id="path214" inkscape:connector-curvature="0"/></g><g id="g216" transform="translate(96.509867,345.09163)"><path d="m 0,0 -2.8117333,-3.9872 -0.7413334,-2.2997333 -1.3312,-2.7594667 1.3312,-2.914133 -1.184,0.765866 -0.4437333,-2.605866 -3.5530667,-0.154667 3.7013334,-1.072 -1.6288,-0.919467 5.0336,-0.459733 L -2.96,-17.480533 h 3.10826667 l -0.592,-1.533867 2.22080003,-0.612267" style="fill:none;stroke:#000000;stroke-width:0.53333336;stroke-linecap:butt;stroke-linejoin:miter;stroke-miterlimit:4;stroke-dasharray:none;stroke-opacity:1" id="path218" inkscape:connector-curvature="0"/></g><g id="g220" transform="translate(59.352107,326.99787)"><path d="M 0,0 -1.776,2.7616 0.88853333,1.5338667 1.184,4.6005333 3.2576,2.7616 5.6256,4.2933333 6.5130667,2.7616 8.2901333,3.3738667" style="fill:none;stroke:#000000;stroke-width:0.53333336;stroke-linecap:butt;stroke-linejoin:miter;stroke-miterlimit:4;stroke-dasharray:none;stroke-opacity:1" id="path222" inkscape:connector-curvature="0"/></g><g id="g224" transform="translate(86.295787,332.82496)"><path d="M 0,0 -1.184,2.4533333 -2.9610667,0 -5.0336,0.61333333 h -1.184" style="fill:none;stroke:#000000;stroke-width:0.53333336;stroke-linecap:butt;stroke-linejoin:miter;stroke-miterlimit:4;stroke-dasharray:none;stroke-opacity:1" id="path226" inkscape:connector-curvature="0"/></g><g id="g228" transform="translate(208.72501,160.4)"><path d="m 0,0 0.1472,-1.4570667 c 0,0 -1.4805333,-0.1536 -1.9253333,-0.1536 -0.4437334,0 -1.3312,-1.3802666 -1.3312,-1.3802666" style="fill:none;stroke:#000000;stroke-width:0.53333336;stroke-linecap:butt;stroke-linejoin:miter;stroke-miterlimit:4;stroke-dasharray:none;stroke-opacity:1" id="path230" inkscape:connector-curvature="0"/></g><g id="g232" transform="translate(207.39168,156.03019)"><path d="M 0,0 1.9253333,0.45973333 1.776,1.3792 4.2944,1.8389333" style="fill:none;stroke:#000000;stroke-width:0.53333336;stroke-linecap:butt;stroke-linejoin:miter;stroke-miterlimit:4;stroke-dasharray:none;stroke-opacity:1" id="path234" inkscape:connector-curvature="0"/></g><g id="g236" transform="translate(137.36821,140.54475)"><path d="m 0,0 c 0,0 2.3690667,1.6853333 2.2218667,1.2256 -0.1493334,-0.45866667 0.8874666,-2.4522667 0.8874666,-2.4522667 0,0 1.4805334,4.2933334 1.4805334,3.6789334 0,-0.6122667 2.8117333,-6.1333334 3.9957333,-7.0528 L 7.5498667,1.3792 c 0,0 1.1392,-2.4864 2.7125333,-3.5893333 0.1312,-0.090667 0.2624,-0.1717334 0.397867,-0.2432 1.773866,-0.9194667 0.295466,5.5210666 0.295466,5.5210666 0,0 1.0336,-1.9946666 2.516267,-2.30079997" style="fill:none;stroke:#000000;stroke-width:0.53333336;stroke-linecap:butt;stroke-linejoin:miter;stroke-miterlimit:4;stroke-dasharray:none;stroke-opacity:1" id="path238" inkscape:connector-curvature="0"/></g></g></g></g></svg>