<?xml version="1.0" encoding="UTF-8"?>
<svg viewBox="0 0 183.75 150" xmlns="http://www.w3.org/2000/svg">
 <g transform="matrix(1.25,0,0,-1.25,0,150)">
  <g transform="scale(.24)">
   <path d="m352.434,141.863c7.496-4.8 10.496.301 18.894,3 12.902,8.399 23.402,19.5 26.402,34.2 1.2,6.3 2.7,11.699.598,17.101 0,1.199.301,2.399.902,3 53.7,16.797 124.797-7.801 167.098,29.699 11.699,6.598 26.699,2.7 38.402,8.098l3.598,10.5c-18,7.5-38.398,7.5-57.598,9.602-2.703,1.199-3,3.898-4.203,6.898l-23.398,5.703c13.5,9 36.601,9 45.301,24.899 1.5,6.898 0,13.5-2.102,20.398 5.402,12.602 11.102,27.602 10.801,42.301-.602,1.5-1.801,3.301-3.899,3.902-67.8-7.5-126.902-39.902-180.601-67.801-10.199-7.199-22.199-13.199-29.102-23.699-.898-3.902-6-6.902-9.898-8.402v17.699c-1.496.602-4.199.301-5.699-.297l-7.5-10.5c-.598,0-1.5,0-1.801.598l1.203,16.199c0,.602 0,1.5-.602,2.102-.902,2.398-4.5,2.699-6.601,1.199l-4.801-9.598c-.293,0-1.199-.601-1.5,0-.301,22.199 0,45-4.801,67.5l-48-3.301-8.097-3-4.801-20.699 14.101,4.5 3.899-9.301 12.601,11.7c.297,0 .899,0 1.5-.301l2.098-4.5 10.801,3.301 5.398-24 3-34.801c-7.5,3.301-18.297,3-26.699-.598-6.898-3.601-11.098-9-17.398-12.301-18.903,76.5-51.602,132.301-102.903,183.598-30.898,24-55.797,56.402-96.8981,59.102-6-4.2-6-13.801-5.3984-20.102 3.5976-22.199 20.3984-39.297 12.8984-61.199-4.1992-26.098 2.6992-50.399 24.3011-66.598 14.699-10.5 28.199-20.101 42.597-30 20.407-11.703 36.301-29.402 55.801-47.101 9.301-11.102 18.602-21.899 23.102-35.399-52.196,17.699-106.2,33-161.1019,44.098-18.8984,4.5-38.6992,9-56.09763,4.801 0-.301-.60156-1.2-.60156-1.801 21.60159-23.098 38.10159-53.699 71.99999-57.899 13.1992.598 26.1011-.902 39.0001-.902 25.801,0 50.699-2.699 75.898-6.898 5.703-.899 9.606-2.399 14.703-2.7 .899-.3 1.504-.902 2.7-2.101l-3.301-14.399c1.5-2.699 4.801.301 6.898,0l-4.199-41.402c-30.598-29.398-61.199-56.3985-69.594-96.8985 .895-.8984 2.996-.8984 4.793-1.5 0,0 1.203,0 1.508.3008 12.297,37.8008 36.895,67.8007 69.594,90.5977l3.898-13.797c-1.199-14.402-6.597-25.5-13.5-36.5976-5.398-12.9023-12.898-26.7031-7.797-40.5039 .899-1.1992 2.098-2.6992 3.903-3 1.195,0 2.394.3008 2.996.8984-2.996,18.6016 7.199,38.4024 16.5,52.5001l14.398-14.0977-2.093-17.1016c.894-2.3984 4.195-3.5937 6.894-2.3984 .602.3008.602.5976 1.5,1.1992l1.801,13.5c9.898-7.5 24.601-13.5 39.305-9 11.996,2.3984 19.496,6.8984 26.996,14.3984l8.699-2.0976c.898,0 1.199,2.0976 2.699,2.0976 9.301-3.5976 9-18.2968 12.301-27.2968 6.301-21 4.199-40.8008 4.199-60.90238 0-.59766 1.504-1.79688 3-1.79688h2.699c1.805,0 2.403,1.79688 3.301,3.59766-1.496,17.3984 1.5,33.9023-3.301,51-.898,10.5-4.195,19.5-6.297,29.1016 1.2,0 0,1.5 1.5,0 8.399-16.8008 14.399-36 16.797-54.9024l3.602-1.8008c1.199,0 2.398.3008 3,.9024 2.105,8.3984-1.801,18.5976-3.301,27.8984-2.699,8.4024-6.301,15.9024-9.301,24.3008 0,.3008 0,.9023.903.9023 6.898-6.2968 11.097-16.8007 13.5-27.3007 .605-1.8008 2.699-3.6016 4.8-4.8008l3.899,1.1992c1.5,13.1992-9,24.8984-13.801,35.3984-4.199,5.1016-8.398,10.8011-12,13.5001h-4.801c-1.5,0-1.797.906-1.199,1.801l13.199,4.5c.602.601 0,1.5.301,2.699l-6,4.5 12.602,9c.898.602 1.5,2.102.898,3.902-.301.301-1.199.899-1.5.899-.598,1.199-.598,1.801 0,2.699 0,1.5-7.199,7.801-8.394,8.402" fill="#231f20"/>
   <path d="m356.027,145.461 .602.301c1.5.902.898,2.699 1.199,4.199-.301,1.203-.898,1.801-1.801,1.801l-3.593-4.801c0-1.199 1.796-.898 2.695-1.797l.898.297" fill="#17ae65"/>
   <path d="m365.629,148.164 3.301,1.797-.301,3.902c-.899,1.2-3,0-4.801-.601l.301-4.801c.301,0 .605,0 1.5-.297" fill="#17ae65"/>
   <path d="m362.629,159.563c.301,0 1.199,0 1.801.3 .304,0 .605.899 1.199,1.801l-2.699,3.899c-.602-1.5-2.102-2.7-2.102-4.801 0-.899 1.199-1.199 1.801-1.199" fill="#17ae65"/>
   <path d="m373.129,161.664h4.203c2.098,1.797-.602,4.5-.602,6.598-1.5,2.101-3.902.301-6.3,0l2.097-6.598h.602" fill="#17ae65"/>
   <path d="m385.73,164.363c.297.598.598,1.2.899,2.098 0,.902-.301,1.801-.602,3-.297.602-1.797.902-2.695.602l.898-6 1.5.3" fill="#17ae65"/>
   <path d="m271.434,171.563-.907,4.199c-1.5.301-3.297-.301-3.898-1.5 .301-1.801 3-2.399 4.805-2.699" fill="#17ae65"/>
   <path d="m368.328,174.262h3c.602.301 1.5.601 1.801,1.801l-2.699,5.699c-1.5-1.801-3.301-4.5-2.7-7.5h.598" fill="#17ae65"/>
   <path d="m278.328,176.063 2.699,5.699c-.597,1.801-2.398-.598-3.297-.899-1.5-1.199-1.203-3.601 0-5.402l.598.602" fill="#17ae65"/>
   <path d="m380.93,176.063h2.703c2.097,2.398-1.203,5.699-1.203,8.699-1.5.902-3,.301-5.098-.301l2.996-8.398h.602" fill="#17ae65"/>
   <path d="m391.73,176.961c.899,2.703 2.399,4.801 1.2,7.801 0,.601-1.801,1.199-2.996.601l1.796-8.402" fill="#17ae65"/>
   <path d="m262.129,179.063 4.801,3-.301,4.5c0,0-.602.601-1.496,1.199l-6.598-3.899c0-2.101.895-3.601 2.992-4.8h.602" fill="#17ae65"/>
   <path d="m274.73,185.664 7.2,3.899-1.5,6.601-7.5-3.601c-1.496-1.801-.301-4.5.597-6.602 0,0 .602,0 1.203-.297" fill="#17ae65"/>
   <path d="m257.33 190.76 4.801 2.699-1.801 6.301-5.699-3.598 2.101-5.402h0.598" fill="#17ae65"/>
   <path d="m375.23 190.76h3.598c2.402 1.801-1.199 4.199-1.496 6.601-2.102-1.199-3.305-4.5-2.703-6.601h0.601" fill="#17ae65"/>
   <path d="m388.43,191.363h4.199c2.101,2.7 0,7.801-1.199,10.801-1.496,1.5-4.5,0-6.602.598l2.402-11.094c.598,0 .899,0 1.2-.305" fill="#17ae65"/>
   <path d="m269.93 196.76 8.398 4.5-2.098 7.199-10.203-3.598 2.703-8.101h1.2" fill="#17ae65"/>
   <path d="m254.629,204.563c.601,0 1.5.3 2.398,1.5 .903,1.5-.297,3.3-1.199,4.8h-1.199c-1.5-1.5-.899-4.199-1.199-6.3h1.199" fill="#17ae65"/>
   <path d="m285.23,204.262 4.504,1.801-.906,6.3-6.301-1.199 1.801-6.601 .902-.301" fill="#17ae65"/>
   <path d="m382.13 206.36 7.199 2.7-4.5 11.101-4.199-13.801h1.5" fill="#17ae65"/>
   <path d="m263.93,209.664 9.597,4.199-2.695,5.7-9.602-4.801 1.797-4.5 .903-.598" fill="#17ae65"/>
   <path d="m280.43 215.96 6.3 2.703-2.402 6.297-7.801-2.098 2.703-6.902h1.2" fill="#17ae65"/>
   <path d="m259.43,220.164 7.5,5.399-2.403,4.199-6.898-3.598c-.899-1.801.301-3.301.906-6h.895" fill="#17ae65"/>
   <path d="m293.93,220.762 .898,6.601c-.598,1.2-2.098.899-3.598.301-1.8-1.5.899-4.801 1.797-6.902h.903" fill="#17ae65"/>
   <path d="m274.73 227.66 6.899 3.297c-0.602 1.5-1.199 3.602-3 5.102l-7.195-3 2.093-5.399h1.203" fill="#17ae65"/>
   <path d="m289.43,232.461 4.5,1.801c.3,1.801-.602,3.902-1.801,5.101-2.094.899-3.602,0-5.699-.902-.602,0-.903-.598-1.2-1.5l2.7-4.5h1.5" fill="#17ae65"/>
   <path d="m268.73,237.863 6.899,2.399c.601,1.801-.899,3.601-2.102,5.101 0,0-.898.301-1.797.301-1.8-.902-3.601-2.703-4.8-4.801 .3-.902.3-1.5 1.199-2.699l.601-.301" fill="#17ae65"/>
   <path d="m283.43 242.96 6.3 2.703-1.504 3.297-6.601-1.199s-0.602-0.301-1.199-1.199l1.5-3.602h1.504" fill="#17ae65"/>
   <path d="m296.93,246.563 .898.3c1.199.899.902,3.301 1.5,5.399-.301.601-.598,1.199-1.5,1.199l-3.898-.598 1.8-6c.305,0 .602,0 1.2-.3" fill="#17ae65"/>
   <path d="m281.629,253.461c.301.301 1.5.301 2.398,1.203 0,1.5 1.203,0 0,1.5-1.5.598-3-1.203-3.597-2.703h1.199" fill="#17ae65"/>
   <path d="m291.23,257.063 6.598,2.699c.902,0 1.199,1.5.902,2.699-3,.902-7.203-.598-9.3-2.699-.602-.301 0-1.5.304-2.098 .301,0 .594,0 1.496-.601" fill="#17ae65"/>
   <path d="m265.133,85.1641c9.894-.3008 21.597.3007 30.597,6l-9,9.2969 .899-7.5001c-.301-.5976-1.199-1.7968-2.399-2.0976l-15,13.1997-1.5-4.1997c-.3-.3008-1.203-.6016-1.8-1.1992-6.301,1.7969-7.5,9.8989-12.301,13.4999-2.395-1.203 0-5.703-2.094-7.5l-3.605-1.203c-.602-2.098-1.801-4.7969-1.2-7.5001l17.403-10.7968" fill="#fab217"/>
   <path d="m236.93,103.461c1.199.906 0,0 1.199,1.203l4.801,7.797-4.801,9.301c-1.5-1.5-2.102-3.899-4.797-4.801l-6.902-1.199c-1.801-3.301 2.699-6.301 5.398-9 2.106-.598 3-2.699 5.102-3.301" fill="#fab217"/>
   <path d="m332.328,144.563c1.504,4.5 2.699,9.898 8.102,12 2.097,0 2.699-2.102 4.199-3.301 13.805,19.801 23.398,47.101 31.5,74.101-1.5.899-1.5-.902-3-.902-2.699,0-5.102,2.703-6.301,5.703l4.5,13.5c-3.301.297-3.301-4.5-6.898-4.801-2.102,0-4.2,1.5-4.801,3.598l1.5,12.301-10.199-9.899c-2.102,0-4.797,3.301-5.7,5.399l.602,8.699-10.203-8.699c-2.094,0-4.5,1.5-4.801,3.902l.902,11.699c-4.496-2.402-7.5-11.402-14.402-10.8-3.598,1.199-6.301,3.601-8.996,3.898-.602-32.699-11.102-70.199-26.703-98.398l1.5-6.602c3.601,0 5.101,6 9,6.602h1.801c1.8-.301 3.3-1.801 3.898-3.899 .602-1.5-.598-4.203 1.199-6 1.801,2.699 3.903,6.598 7.5,8.098 3,0 5.403-3.301 6.903-6l1.203-5.699 10.195,9.601c1.5-.601 3.301-2.101 3.902-3.902l3.598-10.199" fill="#fab217"/>
   <path d="m406.73,262.461c1.5,0 1.805.902 3.297,1.5 2.403,9.902 4.5,22.801.903,32.402-14.403-3.902-25.5-11.402-36.903-20.402-1.199-1.199-2.097-1.797-2.398-2.398 0-.602 0-1.5.301-2.102h2.097c8.403,6 14.703,15 27,14.703 9-6 1.5-17.703 5.102-24.301l.601.598" fill="#fab217"/>
   <path d="m320.027,274.461c1.207,21.902 3.602,44.102-3.297,66.301l-45.898-4.801c-2.402-.598-2.703-4.797-3.602-7.199 3-2.098 5.7,2.699 9.297,2.402 2.703-.902 2.703-4.5 4.5-6.601l12,9.601c.903,0 2.403-.301 3.008-.601l1.492-4.2c4.203-.601 6,3 10.203,4.2 .602,0 1.2-.301 1.797-1.2l10.5-57.902" fill="#fab217"/>
   <path d="m398.328,206.063c54.004,12.601 123.902-9.899 165.902,27.898l34.797,5.703c1.5.598 3.602,3.297 3,5.699-18.297,6.598-39,4.801-57.297,6.899l-3,7.5-36.3,5.402-50.102-16.5c-.301-1.801.301-3.902 1.199-5.703 9,1.203 18.301,3.602 27.602,4.801 14.699,2.402 30,7.199 43.5,4.5 .301-.301.601-.899.601-2.098-1.5-2.703-6-3.301-9.3-4.203-12.602,3.301-28.5-2.098-42.602-4.797-1.801-1.801.301-4.5.602-7.203l36-1.797c.898-.301 1.804-.601 2.097-1.801-.597-2.699-2.699-4.199-5.699-4.8-11.098,5.398-25.199-2.7-36.598.601l-4.5,12.598c-21.902-.899-43.8-14.699-63-20.699-.601,0-.601.601-1.203,1.5 0,3.3 3.903,4.5 6.903,6.601 12,6.297 25.8,9.297 38.097,15l-.898,4.5-42.899-16.5c-1.203,0-2.703.297-3.3,1.199 0,0-.602.598-.903,1.801 0,.297.301,1.199.903,1.797 47.097,27 116.398,30 160.5,61.801 .597,4.5 1.5,9-.602,12.301l-4.199-1.801-5.102,3-43.199-5.399c-.894-.3-.894-.902-2.098-1.8l-10.5-3.602c-22.5-12.898-42.902-25.5-63.902-42.297-.898,0-1.5.899-2.098,2.098v1.5c20.7,21 46.797,31.5 69.598,47.699l-4.496,10.801c-24.898-6-45.305-19.5-64.805-30.598-.898.598-2.699,1.5-3,3.297 25.801,21 64.5,31.5 100.203,43.203 13.797,1.5 27,6 40.2,6.598l3.597,11.699c0,.902-.297,2.402-.898,2.703-4.801,1.5-11.399,0-16.199-.601-49.5-9.899-95.7-30-134.403-51.602-1.797-.898-3.597-3.598-2.699-6.297 1.801-5.402.602-10.5 1.199-15.601-1.797-7.5-.597-17.399-6.297-22.801-3.3-1.5-6.601-2.699-9.601-3.899-1.199,0-2.399.301-2.699.598l-1.2,23.703c-4.203,2.098-9-2.703-12.601-4.5-6-6.902-18-10.801-17.399-20.703 4.2,1.203 9.598,6.301 14.403,1.5l-8.403-17.098c3.598.598 9,2.098 12.598-.902 .602-.898 1.5-2.098 1.5-2.098 .305-1.5-1.199-2.402-2.699-3.902l10.5-24.598 1.199-.3" fill="#f2e9c7"/>
   <path d="m208.13 218.66c2.101 0 5.398-1.203 6.906 1.5-4.207 3.297-10.207 4.5-14.707 7.5-14.098 3.297-28.5 7.199-43.5 10.797l-0.598-11.098 51.899-8.699" fill="#f2e9c7"/>
   <path d="m222.53 225.56c0.903 0 1.801 0 2.102 1.5-36.301 16.8-80.102 29.101-120.9 38.101-6.6011 0.598-12.902 4.199-18.601 3.899 1.5-5.7 6.8984-11.399 13.199-14.399 41.102-6 84.602-12.601 122.1-28.5 1.199-0.601 1.5-0.601 2.097-0.601" fill="#f2e9c7"/>
   <path d="m136.73 227.66h9.305c0.598 0.598 1.195 0.899 1.492 1.5l0.602 10.5c-3 1.797-7.5 1.797-11.399 3-13.5 2.098-25.8 2.098-38.402 5.098-5.6992 0.902-7.8008 4.199-11.699 6-9.6016-12-26.699-4.801-40.801-6.301 1.5-5.699 8.6992-9 13.5-12.297 24.602-9 51.902-4.5 77.402-7.5" fill="#f2e9c7"/>
   <path d="m241.73 240.86c1.2 0.899 1.2 1.2 3 1.801l17.399 3.899-0.602 6.898c0.301 0.301 0.903 0.301 1.5 1.5-7.797 55.203-36.297 99.602-62.097 138.9-24.301 31.801-54.895 56.7-83.7 79.2-11.402 7.5-23.101 12.3-36.601 18-3 0-4.5-0.301-6.6016 0.3-5.6992-5.101-3.2968-14.699-1.5-21.902 3-16.5 15-29.699 12.902-46.5l46.199-18.297-13.199 33c-10.801 12.598-28.5 18.297-38.102 34.199v2.399c0.3008 0.301 0.6016 1.5 2.1016 1.801 18-14.7 36-24.301 52.199-42.602 57-48.898 90.601-112.5 106.2-193.5l0.902 0.902" fill="#f2e9c7"/>
   <path d="m227.93,242.961 3.3,3.602c-.902,14.699-5.703,30-10.8,45.3-4.801,12-9.602,23.7-13.801,33.899-6.301-.598-9.899-5.399-12.602-10.801-2.699-9 0-19.199-4.5-26.699 15-14.699 29.403-29.098 38.403-45.301" fill="#f2e9c7"/>
   <path d="m39.5273,253.461c.6016.902 3,.902 4.5,1.5 9-3 20.7032-2.098 30.9024-1.199 1.5,1.199 4.1992,2.699 4.8008,5.402 0,6-3.6016,9.297-6.9024,12.899-.8984.898-1.8008,1.5-1.8008,1.5-18,1.5-35.3984,9.3-54,6.601 2.7032-9.601 15-18.301 21.9024-27.301l.5976.598" fill="#f2e9c7"/>
   <path d="m183.535,294.262 .598,15c-9.606,13.801-25.199,24.902-33.305,38.101-10.199,9.899-23.094,16.2-20.699,32.7 .301,5.101.301,8.101 3,12.898 0,.902-.602,2.402-1.199,3-11.7,7.5-25.801,12.902-40.5003,18-3,0-5.4024,1.203-7.5,1.203-4.1992-22.801 0-47.101 19.1993-61.801 3.301-2.402 6.601-5.101 8.699-7.8 17.102-12 33.602-21.899 50.699-34.801 7.5-4.801 14.102-11.699 21.008-16.801v.301" fill="#f2e9c7"/>
   <path d="m507.23,311.063 52.2,4.5c3.597,4.199 7.5,12 7.5,18.601-3,1.797-7.2.899-10.2-.601-12.601-1.2-24.601-3.899-38.101-7.2-4.801-2.699-10.801-2.402-15-5.402l3-9.898h.601" fill="#f2e9c7"/>
   <path d="m186.23,318.863c4.2,12.899-6.601,24-11.703,33.598-4.797,4.5-6.597,9-10.5,12.902-3-2.101-2.097-6.601-4.797-10.199-1.5-14.402 14.399-22.801 21-32.101 2.098-1.2 3.903-3.301 5.399-4.801l.601.601" fill="#f2e9c7"/>
   <path d="m194.629,331.762 6.898,3.601c-13.797,35.098-40.5,64.801-70.5,93.301-.898.598-2.097,1.5-2.097,1.5 7.199-40.5 51.3-62.101 65.097-98.703l.602.301" fill="#f2e9c7"/>
   <path d="m152.03 356.36 6.305 14.399c-3.602 6.902-11.102 15.601-18.598 18.902-3.304-7.5-4.504-19.5 1.793-25.801 3.903-4.199 6.602-6.3 10.5-8.101v0.601" fill="#f2e9c7"/>
   <path d="m347.027,141.262-.297-8.699c0-.301-.3-1.2-.597-1.801 0-.301.297-1.496.597-2.098 .598-1.203 2.098-.601 3.297-1.203 0-3.598-4.195-4.199-6.898-6.297-1.801,0-2.399-.301-3.899-.902s-.902-3.594 0-5.098l4.797-1.801c0-.601.602-.902 0-1.5l-13.199-.601c-1.801-.301-2.398-.899-3-2.699l3.301-5.102c0-.297 0-1.199-.301-1.5l-4.801-.598c-.898-.601-.898-1.199-1.797-1.8005l-9.902,9.0005-3.598-.899 1.797-5.703c0-.598-.597-1.5-1.199-1.797l-16.5,9c-1.5-.301-1.5-2.703-2.098-4.5l-10.203,6.598c-.597,0-1.5,0-2.097-.301-1.5-.598-.602-3.297-.903-5.398-1.797-3.301-4.797,2.699-6.597,3.898-1.496,2.402-3,4.203-4.2,5.703-.3.598-2.101,1.504-3.597.598-1.203-.598-.903-3-1.203-4.5-3-1.801-5.7,6.601-8.102,8.699-.598,2.402-1.801,2.703-2.398,3.902-.301,0-1.196.598-1.801.598-.301,0-1.199-1.199-1.801-1.496v-3.902c-.598-.899-.898-2.102-2.098-1.5l-5.402,15.898c-1.5,1.801-5.398,1.203-7.199,0l-4.801-6c-2.695,6.602 0,15.301 2.402,21.602-1.8,2.101-5.398,0-8.101,0v20.398c-.602,1.5-3,2.102-4.801,1.5-1.5-.898-2.699-2.098-3.598-.598 .297,11.399 1.2,25.2 7.797,34.5 0,.301 0,1.5-.597,2.098-2.098,2.402-5.102,0-7.801-.898-2.102.3-.594,3.3 0,4.8 13.5,11.098 23.398,25.801 41.699,28.5-9.598-15.902-11.699-38.699-4.793-57.601 3.293-10.5 12.598-14.996 21.895-18.301l3.3-17.398c0-1.5 1.797-3.301 3.899-3.602h1.805c1.195,3 4.195,6.602 7.796,8.703l1.797-12.902c0-.598.301-2.098.903-2.696 .898-.605 3-1.503 4.8-.605l6.899,14.102 5.699-18.301c.602-.301 1.199-.598 2.102-1.496h1.8c.598.597 1.5.898 2.098,2.695-2.695,4.5 1.5,8.402 3,12.301 1.199,1.5 1.5,1.801 2.699,2.402 5.102-5.402 5.403-16.5 14.102-18 .601,0 1.199.602 1.801,1.199l1.5,15.301c1.199,1.797 3.597,0 4.8-.902 .602-1.199.903-1.801 1.797-3" fill="#cab568"/>
  </g>
 </g>
</svg>
