<?xml version="1.0" encoding="UTF-8" standalone="no"?>
<!-- Created with Inkscape (http://www.inkscape.org/) -->
<svg xmlns:dc="http://purl.org/dc/elements/1.1/" xmlns:cc="http://creativecommons.org/ns#" xmlns:rdf="http://www.w3.org/1999/02/22-rdf-syntax-ns#" xmlns:svg="http://www.w3.org/2000/svg" xmlns="http://www.w3.org/2000/svg" xmlns:sodipodi="http://sodipodi.sourceforge.net/DTD/sodipodi-0.dtd" xmlns:inkscape="http://www.inkscape.org/namespaces/inkscape" width="225.77779mm" height="378.74976mm" viewBox="0 0 800.00003 1342.0267" id="svg2" version="1.1" inkscape:version="0.91 r13725" sodipodi:docname="Emu2.svg">
  <defs id="defs4"/>
  <sodipodi:namedview id="base" pagecolor="#ffffff" bordercolor="#666666" borderopacity="1.0" inkscape:pageopacity="0.0" inkscape:pageshadow="2" inkscape:zoom="0.49924491" inkscape:cx="400.00002" inkscape:cy="671.01335" inkscape:document-units="px" inkscape:current-layer="layer1" showgrid="false" fit-margin-top="0" fit-margin-left="0" fit-margin-right="0" fit-margin-bottom="0" inkscape:window-width="1600" inkscape:window-height="837" inkscape:window-x="-8" inkscape:window-y="-8" inkscape:window-maximized="1"/>
  <metadata id="metadata7">
    <rdf:RDF>
      <cc:Work rdf:about="">
        <dc:format>image/svg+xml</dc:format>
        <dc:type rdf:resource="http://purl.org/dc/dcmitype/StillImage"/>
        <dc:title/>
      </cc:Work>
    </rdf:RDF>
  </metadata>
  <g inkscape:label="Layer 1" inkscape:groupmode="layer" id="layer1" transform="translate(215.52712,636.23392)">
    <g style="display:inline" id="g9696" transform="matrix(3.869061,0,0,3.869061,-2453.312,-1023.6143)">
      <g id="g9689">
        <path inkscape:connector-curvature="0" style="fill:#928a87;fill-opacity:1;stroke:none" d="m 653.25,291.9375 c 0,0 -7.20045,8.37426 -5.46875,13.15625 2.46883,6.81747 13.13463,15.21813 11.53125,25.9375 -4.64349,31.04394 -28.15832,63.47256 -40.625,90.84375 -2.31507,5.08284 -5.15147,5.06876 -8.9375,5.75 -2.78141,0.50047 -5.33962,3.12829 -7.375,4.84375 -2.56302,-2.046 -7.72995,-2.37911 -8.3125,1.03125 -1.90361,-1.11018 -5.08481,-0.87119 -6.75,2.15625 0,0 -3.1467,-0.32661 -4.53125,0.34375 -1.88868,0.91446 -3.63364,2.50926 -3.875,4.59375 -0.20361,1.75847 0.8125,3.0625 0.8125,3.0625 0,0 1.12204,-3.0262 3.28125,-3.375 0.68315,-0.11036 1.24655,0.75705 1.9375,0.71875 0.68672,-0.038 1.84375,-0.9375 1.84375,-0.9375 0,0 3.34641,2.26569 5.25,2.78125 3.13659,0.8495 6.48825,0.75801 9.71875,0.40625 3.46332,-0.37712 10.28125,-2.375 10.28125,-2.375 2.14372,1.28934 2.91631,1.8783 6.625,1.8125 3.83361,-0.068 8.26265,-1.34707 10.59375,-6 1.10728,-2.21015 -1.5625,-10.59375 -1.5625,-10.59375 2.33376,-3.40958 5.80475,-5.9966 5.84375,-9.875 2.1281,-1.59608 4.06429,-3.30379 3.75,-6.59375 3.17364,-2.32717 4.1879,-4.92432 4.25,-7.625 2.63287,-1.7871 4.6346,-4.12398 4.5625,-8.28125 2.93495,-2.09424 4.32429,-4.89873 4.53125,-8.28125 2.29598,-1.78619 4.6129,-3.54071 4.875,-8.96875 1.37565,-1.57118 4.55185,-2.45934 5.375,-9.96875 4.06951,-1.7433 6.05197,-5.51867 5.1875,-9.625 0,0 1.68611,-6.84089 4.3125,-9.84375 2.62637,-3.00288 7.15184,-7.97504 8.375,-12.875 0.95584,-3.82911 -1.48102,-9.08696 -2.21875,-14.28125 C 674.92371,308.55581 678.75,304 678.75,304 l -25.5,-12.0625 z m 26.8125,9.625 c 0,0 2.42326,8.97801 6.03125,12.5625 5.14377,5.11025 13.44716,13.93764 16.15625,20.15625 7.23505,16.60778 5.65304,61.57706 3.875,83.34375 -0.64931,7.94887 -0.63671,5.46418 -2,9.625 -1.14381,3.49096 -3.77647,3.60001 -7.5625,4.28125 -2.78141,0.50047 -5.74587,1.53454 -7.78125,3.25 -2.56302,-2.046 -7.72995,-2.37911 -8.3125,1.03125 -1.90361,-1.11018 -5.08481,-0.87119 -6.75,2.15625 0,0 -3.1467,-0.32661 -4.53125,0.34375 -1.88868,0.91446 -3.63364,2.50926 -3.875,4.59375 -0.20361,1.75847 0.8125,3.0625 0.8125,3.0625 0,0 1.12204,-3.0262 3.28125,-3.375 0.68315,-0.11036 1.24655,0.75705 1.9375,0.71875 0.68672,-0.038 1.84375,-0.9375 1.84375,-0.9375 0,0 3.34641,2.26569 5.25,2.78125 3.13659,0.8495 6.48825,0.75801 9.71875,0.40625 3.46332,-0.37712 10.28125,-2.375 10.28125,-2.375 2.14372,1.28934 2.91631,1.8783 6.625,1.8125 3.83361,-0.068 8.26265,-1.34707 10.59375,-6 1.10728,-2.21015 -1.34375,-8.0625 -1.34375,-8.0625 1.25444,-1.56175 2.62096,-5.03886 1,-8.5625 1.24268,-2.35202 2.25166,-4.75309 0.5625,-7.59375 1.87589,-3.45958 1.6909,-6.21893 0.59375,-8.6875 1.61754,-2.74031 2.40305,-5.70916 0.5625,-9.4375 1.75952,-3.14704 1.85092,-6.32171 0.59375,-9.46875 1.3133,-2.59562 2.67477,-5.16737 0.59375,-10.1875 0.57294,-2.00817 3.02506,-4.1395 0.5625,-11.28125 2.9353,-3.31421 3.12902,-7.59361 0.59375,-10.9375 0,0 -0.24874,-3.44438 0.84375,-7.28125 1.09248,-3.83687 3.33026,-8.64071 2.34375,-13.59375 -0.77091,-3.87057 -5.77096,-10.86822 -8.65625,-15.25 C 707.61874,309.10763 708.25,301.5625 708.25,301.5625 l -28.1875,0 z" id="path9582"/>
        <path inkscape:connector-curvature="0" style="display:inline;fill:#7f7879;fill-opacity:1;stroke:none" d="m 653.25,291.9375 c 0,0 -1.37927,1.63906 -2.78125,3.84375 -0.0493,0.52953 -0.0882,1.06709 -0.125,1.65625 -0.1863,2.97894 -0.19828,6.5449 0.84375,9.375 1.09494,2.97374 2.72551,6.65103 4.28125,10.375 2.20148,3.50318 4.00325,7.33195 4.03125,11.53125 0.17249,0.79332 0.28495,1.5441 0.34375,2.21875 0.39305,4.50952 2.78008,7.50287 4.625,9.78125 0.92246,1.13919 1.70486,2.14618 2.125,3 0.42014,0.85382 0.53499,1.48459 0.28125,2.40625 -0.14967,0.54365 -0.6567,1.72622 -1.28125,2.4375 -0.31228,0.35564 -0.62332,0.5826 -0.90625,0.6875 -0.28293,0.1049 -0.54404,0.12865 -1,-0.0312 l -4.34375,-1.53125 a 1.545533,1.545533 0 0 0 -1.75,2.375 c 0,0 1.30497,1.76937 2.4375,4.03125 1.13253,2.26188 1.89733,5.00727 1.5,6.34375 -0.0882,0.29681 -1.04183,1.01413 -1.625,1.0625 -0.64098,0.0532 -2.04556,-0.42599 -3.15625,-1.03125 -1.11069,-0.60526 -1.9375,-1.21875 -1.9375,-1.21875 a 1.545533,1.545533 0 0 0 -2.1875,2.09375 c 0,0 0.92085,1.34214 1.875,3.0625 0.95415,1.72036 1.86116,3.90708 1.90625,4.9375 0.0297,0.67879 -0.73212,1.9459 -1.21875,2.15625 -0.0894,0.0387 -0.32856,0.0716 -0.78125,-0.0625 -0.45269,-0.13405 -1.03408,-0.41767 -1.5625,-0.75 -1.05684,-0.66467 -1.90625,-1.46875 -1.90625,-1.46875 a 1.545533,1.545533 0 0 0 -2.34375,1.96875 c 0,0 0.69491,1.04168 1.40625,2.375 0.71134,1.33332 1.3828,3.05387 1.4375,3.78125 0.0971,1.29067 -0.71224,2.87847 -1.75,3.40625 -0.28638,0.14565 -1.34425,0.005 -2.375,-0.53125 C 646.28175,379.68243 645.46875,379 645.46875,379 a 1.5467961,1.5467961 0 0 0 -2.1875,2.1875 c 0,0 0.77011,0.92988 1.53125,2.1875 0.76114,1.25762 1.40862,2.85171 1.375,3.65625 -0.0198,0.474 -0.18094,1.11857 -0.40625,1.5625 -0.22531,0.44393 -0.45873,0.59631 -0.5625,0.625 -0.10636,0.0294 -0.95155,-0.10753 -1.6875,-0.53125 -0.73595,-0.42372 -1.3125,-0.90625 -1.3125,-0.90625 a 1.545533,1.545533 0 0 0 -2.34375,1.90625 c 0,0 0.48349,0.87651 0.9375,2.03125 0.45401,1.15474 0.80209,2.60447 0.71875,3.375 -0.072,0.66576 -0.24038,1.42788 -0.46875,1.96875 -0.22837,0.54087 -0.44883,0.73182 -0.59375,0.78125 -0.18892,0.0644 -1.28709,-0.0362 -2.21875,-0.40625 -0.93166,-0.37005 -1.65625,-0.8125 -1.65625,-0.8125 A 1.545533,1.545533 0 0 0 634.5,398.8125 c 0,0 0.62926,0.91571 1.25,2.0625 0.62074,1.14679 1.16202,2.60465 1.15625,3.0625 -0.006,0.47417 -0.12166,1.09276 -0.28125,1.5 -0.14629,0.3733 -0.28421,0.45115 -0.3125,0.46875 -0.0613,-0.003 -0.18382,-10e-4 -0.34375,-0.0625 -0.31986,-0.12303 -0.75073,-0.37304 -1.15625,-0.65625 -0.81105,-0.56641 -1.46875,-1.21875 -1.46875,-1.21875 a 1.545533,1.545533 0 0 0 -2.4375,1.875 c 0,0 0.4879,0.84452 0.96875,1.90625 0.48085,1.06173 0.89187,2.42202 0.875,2.8125 -0.0169,0.39107 -0.11212,0.84324 -0.21875,1.125 -0.04,0.10566 -0.0734,0.14722 -0.0937,0.1875 -0.04,-0.008 -0.0613,-0.009 -0.125,-0.0312 -0.25487,-0.0874 -0.62256,-0.27943 -0.96875,-0.5 -0.69238,-0.44115 -1.28125,-0.96875 -1.28125,-0.96875 a 1.545533,1.545533 0 0 0 -2.4375,1.78125 c 0,0 0.44229,1.00335 0.875,2.21875 0.43271,1.2154 0.79185,2.77624 0.78125,3.0625 -0.0346,0.93552 -0.14928,1.20782 -0.15625,1.21875 -0.007,0.0109 -0.19778,0.21885 -1.03125,0.625 -0.56301,0.27435 -0.90167,0.13041 -1.78125,-0.34375 -0.87958,-0.47416 -1.956,-1.33538 -3.4375,-1.75 a 1.545533,1.545533 0 0 0 -1.34375,2.71875 c 0,0 0.74364,0.5704 1.53125,1.375 0.78761,0.8046 1.52483,1.91901 1.625,2.375 0.0302,0.13749 0.0308,0.25657 0.0312,0.375 -0.0283,-0.003 -0.10046,0.0731 -0.5625,0.0625 -0.56369,-0.013 -1.35986,-0.11986 -2.21875,-0.125 -1.7349,-0.0109 -3.15625,0.46875 -3.15625,0.46875 a 1.545533,1.545533 0 0 0 0.1875,2.96875 c 0,0 1.00626,0.24682 2.21875,0.65625 0.26776,0.0904 0.38456,0.23174 0.65625,0.34375 a 1.545533,1.545533 0 0 0 -1.1875,1.625 c 0,0 0.0358,0.52161 0,1.125 -0.0313,0.52797 -0.26642,1.08856 -0.21875,1.09375 -0.89877,1.01443 -3.0362,1.39732 -5.1875,1.53125 -1.83925,0.11451 -4.3082,-1.20907 -7.375,-1.0625 -3.40286,0.16263 -5.87495,1.76543 -8.3125,2.125 -2.20505,0.32527 -7.6875,0 -7.6875,0 a 1.545533,1.545533 0 0 0 -1.125,2.71875 c 0,0 0.84162,0.63503 2.28125,1.09375 1.43963,0.45872 3.63226,0.85942 6.875,0.84375 3.17055,-0.0153 5.67987,-1.50854 7.625,-1.46875 0.13689,0.003 0.5459,0.19865 0.78125,0.25 -2.99704,0.82337 -6.54443,1.69831 -8.90625,1.84375 -1.9538,0.12032 -3.93113,-0.0941 -5.78125,-0.625 -0.68067,-0.19532 -1.55086,-0.82554 -2.59375,-1.5625 -1.04289,-0.73696 -2.39054,-1.60092 -4.125,-1.5 -0.93318,0.0543 -1.37343,0.42584 -1.78125,0.75 -0.54683,-0.36393 -1.14265,-0.85622 -2.34375,-0.75 -0.52537,0.0465 -0.97087,0.18907 -1.375,0.375 -0.009,0.004 -0.0228,-0.004 -0.0312,0 -1.29181,0.92579 -2.28865,2.22583 -2.46875,3.78125 -0.20361,1.75847 0.8125,3.0625 0.8125,3.0625 0,0 1.12204,-3.0262 3.28125,-3.375 0.68315,-0.11036 1.24655,0.75705 1.9375,0.71875 0.68672,-0.038 1.84375,-0.9375 1.84375,-0.9375 0,0 3.34641,2.26569 5.25,2.78125 3.13659,0.8495 6.48825,0.75801 9.71875,0.40625 3.46332,-0.37712 10.28125,-2.375 10.28125,-2.375 2.14372,1.28934 2.91631,1.8783 6.625,1.8125 3.83361,-0.068 8.26265,-1.34707 10.59375,-6 1.10728,-2.21015 -1.5625,-10.59375 -1.5625,-10.59375 2.33376,-3.40958 5.80475,-5.9966 5.84375,-9.875 2.1281,-1.59608 4.06429,-3.30379 3.75,-6.59375 3.17364,-2.32717 4.1879,-4.92432 4.25,-7.625 2.63287,-1.7871 4.6346,-4.12398 4.5625,-8.28125 2.93495,-2.09424 4.32429,-4.89873 4.53125,-8.28125 2.29598,-1.78619 4.6129,-3.54071 4.875,-8.96875 1.37565,-1.57118 4.55185,-2.45934 5.375,-9.96875 4.06951,-1.7433 6.05197,-5.51867 5.1875,-9.625 0,0 1.68611,-6.84089 4.3125,-9.84375 2.62637,-3.00288 7.15184,-7.97504 8.375,-12.875 0.95584,-3.82911 -1.48102,-9.08696 -2.21875,-14.28125 C 674.92366,308.55576 678.75,304 678.75,304 l -25.5,-12.0625 z m 26.8125,9.625 c 0,0 2.42326,8.97801 6.03125,12.5625 3.78998,3.76528 9.28177,9.57347 13,14.84375 1.55599,1.68545 2.86441,3.28225 3.65625,4.65625 2.33448,4.05079 5.91934,5.80182 8.5625,7.09375 1.32158,0.64597 2.4127,1.21754 3.09375,1.78125 0.68105,0.56371 0.99735,1.00819 1.125,1.90625 0.0753,0.52959 0.12082,1.89823 -0.125,2.8125 -0.12291,0.45713 -0.30661,0.76835 -0.4375,0.90625 -0.13089,0.1379 -0.16549,0.17574 -0.5,0.1875 l -4.6875,0.15625 a 1.8988554,1.8988554 0 0 0 -0.84375,3.5625 c 0,0 1.88748,1.04069 3.84375,2.59375 1.95627,1.55306 3.73043,3.71798 3.90625,4.90625 0.01,0.0656 -0.48816,1.06047 -0.875,1.28125 -0.43652,0.24914 -1.86227,0.45177 -3.09375,0.375 -1.23148,-0.0768 -2.21875,-0.28125 -2.21875,-0.28125 a 1.8988554,1.8988554 0 0 0 -1.34375,3.5 c 0,0 1.39418,0.79901 2.96875,1.9375 1.57457,1.13849 3.27453,2.73722 3.6875,3.53125 0.23309,0.44816 0.0984,1.81131 -0.125,2.0625 0.01,-0.0111 -0.14753,0.094 -0.5625,0.15625 -0.41497,0.0623 -1.02983,0.0437 -1.625,-0.0312 -1.19034,-0.15018 -2.25,-0.5 -2.25,-0.5 A 1.8988554,1.8988554 0 0 0 709.65625,375 c 0,0 1.05401,0.63113 2.25,1.53125 1.19599,0.90012 2.51526,2.18852 2.8125,2.71875 0.55504,0.99012 0.4677,2.64087 -0.15625,3.4375 -0.0691,0.0882 -0.95065,0.39647 -2.0625,0.34375 -1.11185,-0.0527 -2.09375,-0.3125 -2.09375,-0.3125 a 1.8988554,1.8988554 0 0 0 -1.3125,3.5625 c 0,0 1.08063,0.50539 2.28125,1.3125 1.20062,0.80711 2.40306,1.98493 2.65625,2.59375 0.16215,0.38992 0.26568,1.00679 0.25,1.4375 -0.0157,0.43071 -0.10952,0.57585 -0.0937,0.5625 0.0566,-0.0482 -0.72175,0.19427 -1.53125,0.125 -0.8095,-0.0693 -1.5,-0.25 -1.5,-0.25 a 1.8988554,1.8988554 0 0 0 -1.625,3.34375 c 0,0 0.78004,0.5622 1.65625,1.40625 0.87621,0.84405 1.75376,2.02474 1.96875,2.65625 0.21008,0.61709 0.38792,1.32489 0.40625,1.84375 0.0183,0.51886 -0.0747,0.66926 -0.0937,0.6875 -0.0194,0.0186 -0.97914,0.41422 -1.9375,0.46875 -0.95836,0.0545 -1.78125,-0.0312 -1.78125,-0.0312 a 1.8988554,1.8988554 0 0 0 -1.1875,3.5 c 0,0 0.94257,0.57212 1.96875,1.34375 1.02618,0.77163 2.0876,1.89638 2.21875,2.1875 0.18311,0.40645 0.34827,0.99318 0.375,1.375 0.009,0.13364 0.007,0.16669 0,0.21875 -0.036,0.007 -0.0391,-0.004 -0.0937,0 -0.29582,0.0193 -0.78054,-0.009 -1.25,-0.0937 C 710.84213,410.79947 710,410.5 710,410.5 a 1.8988554,1.8988554 0 0 0 -1.71875,3.34375 c 0,0 0.75706,0.53467 1.625,1.28125 0.86794,0.74658 1.77698,1.82585 1.875,2.0625 0.11421,0.27573 0.1765,0.59707 0.21875,0.84375 -0.2262,0.006 -0.47694,0.009 -0.78125,-0.0312 -0.77883,-0.10383 -1.5,-0.3125 -1.5,-0.3125 a 1.8988554,1.8988554 0 0 0 -1.8125,3.21875 c 0,0 0.79336,0.73946 1.6875,1.65625 0.89414,0.91679 1.8757,2.22836 1.9375,2.375 0.35684,0.84666 0.32948,1.03704 0.34375,0.9375 0.0143,-0.0995 -0.0142,0.12924 -0.59375,0.84375 -0.30295,0.3735 -0.4846,0.37614 -1.4375,0.3125 -0.9529,-0.0636 -2.31219,-0.42353 -3.9375,-0.15625 a 1.8988554,1.8988554 0 0 0 -0.3125,3.65625 c 0,0 0.72479,0.322 1.09375,0.46875 a 1.8988554,1.8988554 0 0 0 -0.28125,1.09375 c 0,0 0.034,0.49553 0,1.0625 -0.0255,0.42523 -0.21629,0.87831 -0.1875,0.9375 -0.83452,0.82089 -2.81873,1.21573 -4.875,1.34375 -1.69855,0.10575 -4.13922,-1.21566 -7.34375,-1.0625 -3.50644,0.16759 -6.01855,1.7774 -8.375,2.125 -2.10313,0.31024 -7.625,-0.0312 -7.625,-0.0312 a 1.8988554,1.8988554 0 0 0 -1.96875,2.375 c -0.85152,-0.464 -1.82999,-0.85114 -3.03125,-0.78125 -0.92922,0.0541 -1.38907,0.38081 -1.78125,0.6875 -0.34751,-0.24879 -0.75857,-0.53697 -1.34375,-0.65625 -0.25428,0.0589 -0.49029,0.12327 -0.6875,0.21875 -1.88868,0.91446 -3.63364,2.50926 -3.875,4.59375 -0.20361,1.75847 0.8125,3.0625 0.8125,3.0625 0,0 1.12204,-3.0262 3.28125,-3.375 0.68315,-0.11036 1.24655,0.75705 1.9375,0.71875 0.68672,-0.038 1.84375,-0.9375 1.84375,-0.9375 0,0 3.34641,2.26569 5.25,2.78125 3.13659,0.8495 6.48825,0.75801 9.71875,0.40625 3.46332,-0.37712 10.28125,-2.375 10.28125,-2.375 2.14372,1.28934 2.91631,1.8783 6.625,1.8125 3.83361,-0.068 8.26265,-1.34707 10.59375,-6 1.10728,-2.21015 -1.34375,-8.0625 -1.34375,-8.0625 1.25444,-1.56175 2.62096,-5.03886 1,-8.5625 1.24268,-2.35202 2.25166,-4.75309 0.5625,-7.59375 1.87589,-3.45958 1.6909,-6.21893 0.59375,-8.6875 1.61754,-2.74031 2.40305,-5.70916 0.5625,-9.4375 1.75952,-3.14704 1.85092,-6.32171 0.59375,-9.46875 1.3133,-2.59562 2.67477,-5.16737 0.59375,-10.1875 0.57294,-2.00817 3.02506,-4.1395 0.5625,-11.28125 2.9353,-3.31421 3.12902,-7.59361 0.59375,-10.9375 0,0 -0.24874,-3.44438 0.84375,-7.28125 1.09248,-3.83687 3.33026,-8.64071 2.34375,-13.59375 -0.77091,-3.87057 -5.77096,-10.86822 -8.65625,-15.25 C 707.61874,309.10753 708.25,301.5625 708.25,301.5625 l -28.1875,0 z m -56.21875,127.84375 c 0.0674,0.0515 0.29975,0.11149 0.34375,0.15625 0.0615,0.0625 0.1477,0.23627 0.25,0.40625 -0.0376,-0.0411 -0.0884,-0.0846 -0.125,-0.125 -0.23385,-0.25848 -0.28002,-0.2555 -0.46875,-0.4375 z m 1.9375,3.375 c 0.18174,0.73184 0.24566,1.47442 0.0625,2.0625 -0.40129,1.28847 -1.73935,2.68464 -2.96875,3.09375 0.58511,-0.29808 1.1676,-0.56819 1.625,-1.1875 0.73987,-1.00175 1.41339,-2.36398 1.28125,-3.96875 z" id="path9576"/>
        <path inkscape:connector-curvature="0" style="display:inline;fill:#6f6a6e;fill-opacity:1;stroke:none" d="m 652.46875,292.34375 c 0,0 -5.94477,8.13361 -4.1875,12.90625 2.50531,6.80416 10.11162,9.65491 14.5625,21.9375 2.76031,7.61731 20.74638,3.94563 5.53125,19.34375 -1.10369,1.11696 -2.13837,5.22619 -5.1875,4.15625 l -4.34375,-1.53125 c 0,0 5.43139,7.42958 4.15625,11.71875 -0.34922,1.17469 -1.74745,2.05495 -2.96875,2.15625 -2.52368,0.20933 -6.15625,-2.5625 -6.15625,-2.5625 0,0 3.92116,5.58229 4.0625,8.8125 0.0612,1.39676 -0.84166,3.07025 -2.125,3.625 -2.20832,0.95459 -5.9375,-2.5625 -5.9375,-2.5625 0,0 2.90534,4.36958 3.09375,6.875 0.14435,1.91943 -0.87803,4.03367 -2.59375,4.90625 -2.20658,1.12222 -5.90625,-1.9375 -5.90625,-1.9375 0,0 3.3701,4.03208 3.25,6.90625 -0.0584,1.39689 -0.74622,3.25239 -2.09375,3.625 -1.7732,0.49031 -4.40625,-1.78125 -4.40625,-1.78125 0,0 2.1191,3.76668 1.84375,6.3125 -0.16348,1.51142 -0.6549,3.57174 -2.09375,4.0625 -1.85692,0.63336 -5.1875,-1.375 -5.1875,-1.375 0,0 2.68393,3.83447 2.65625,6.03125 -0.0159,1.26567 -0.42794,3.02612 -1.625,3.4375 -1.61715,0.55575 -4.5625,-2.34375 -4.5625,-2.34375 0,0 2.11623,3.59525 2.03125,5.5625 -0.0437,1.01168 -0.32985,2.40322 -1.28125,2.75 -1.36763,0.49849 -3.96875,-1.84375 -3.96875,-1.84375 0,0 1.846,4.21946 1.78125,5.96875 -0.0727,1.96469 -0.26389,2.29501 -2.03125,3.15625 -2.2577,1.10018 -4.18653,-1.37376 -6.3125,-1.96875 0,0 3.25085,2.49496 3.71875,4.625 0.13869,0.63138 0.15358,1.49329 -0.34375,1.90625 -0.84155,0.69878 -2.47601,0.28981 -3.90625,0.28125 -1.43024,-0.009 -2.65625,0.40625 -2.65625,0.40625 0,0 4.42155,0.9566 6,2.5625 0.6711,0.68277 1.25,2.09375 1.25,2.09375 0.90625,1.32246 1.25797,3.21934 0.78125,4.75 -0.56349,1.80926 -2.13947,3.49542 -3.9375,4.09375 -3.71508,1.23627 -7.25,-0.78125 -7.25,-0.78125 0,0 6.00253,-1.26146 7.125,-2.78125 0.66021,-0.89389 1.21341,-2.06001 1.03125,-3.15625 -0.1901,-1.14402 -2.09375,-2.78125 -2.09375,-2.78125 0,0 0.18848,2.46466 -0.53125,3.3125 -1.43834,1.69437 -4.09425,1.95565 -6.3125,2.09375 -2.45906,0.1531 -4.94524,-1.18012 -7.40625,-1.0625 -2.88721,0.13799 -5.29669,1.70318 -8.15625,2.125 -2.65085,0.39103 -8.03125,0 -8.03125,0 0,0 1.9415,1.62378 8.15625,1.59375 2.57071,-0.0124 5.08604,-1.52133 7.65625,-1.46875 2.00006,0.0409 5.65625,1.96875 5.65625,1.96875 0,0 -9.03916,2.89933 -13.71875,3.1875 -2.11589,0.1303 -4.27484,-0.0715 -6.3125,-0.65625 -2.20935,-0.63398 -3.89287,-3.16476 -6.1875,-3.03125 -0.72986,0.0425 -1.84375,1.15625 -1.84375,1.15625 0,0 -1.40833,-1.23068 -2.25,-1.15625 -1.57839,0.13957 -3.75,2.90625 -3.75,2.90625 -0.20361,1.75847 0.84375,3.09375 0.84375,3.09375 0,0 1.12204,-3.05745 3.28125,-3.40625 0.68315,-0.11036 1.24655,0.75705 1.9375,0.71875 0.68672,-0.038 1.84375,-0.90625 1.84375,-0.90625 0,0 3.31516,2.23444 5.21875,2.75 3.13659,0.8495 6.5195,0.75801 9.75,0.40625 3.46332,-0.37712 10.25,-2.34375 10.25,-2.34375 2.14372,1.28934 2.94756,1.84705 6.65625,1.78125 3.83361,-0.068 8.2314,-1.34707 10.5625,-6 1.10728,-2.21015 -1.34375,-8.0625 -1.34375,-8.0625 l -0.46875,-2.84375 1.1875,-2 c 1.79653,-0.8861 4.51297,-3.4652 4.53125,-7.34375 2.11951,-1.60745 4.05065,-3.33677 3.71875,-6.625 3.16113,-2.34412 4.17109,-4.95526 4.21875,-7.65625 2.62327,-1.80117 4.59436,-4.15568 4.5,-8.3125 2.92369,-2.10994 4.31096,-4.92892 4.5,-8.3125 2.28638,-1.79846 4.61071,-3.53938 4.84375,-8.96875 1.36722,-1.57852 4.52957,-2.48629 5.3125,-10 4.06011,-1.76506 6.01144,-5.55462 5.125,-9.65625 0,0 1.53581,-5.37099 3.84375,-8.625 2.82493,-3.98293 8.14685,-9.5623 9.34375,-14.46875 0.93531,-3.83416 -1.7032,-9.68473 -2.46875,-14.875 -0.91685,-11.31043 1.6875,-14.96875 1.6875,-14.96875 l -25.5625,-11.90625 z m 27.59375,9.21875 c 0,0 2.42326,8.97801 6.03125,12.5625 5.14377,5.11025 13.55058,10.3105 16.9375,16.1875 4.08073,7.0809 21.40668,3.32221 15.34375,12.34375 -0.86408,1.28574 1.45682,7.37618 -3.84375,7.5625 l -4.6875,0.15625 c 0,0 8.06378,4.4485 8.71875,8.875 0.17938,1.2123 -0.74816,2.61129 -1.8125,3.21875 -2.19934,1.25525 -6.65625,0.28125 -6.65625,0.28125 0,0 5.91433,3.38147 7.40625,6.25 0.64512,1.24036 0.52288,3.1428 -0.40625,4.1875 -1.59882,1.79769 -6.4375,0.1875 -6.4375,0.1875 0,0 4.49017,2.74587 5.71875,4.9375 0.94123,1.67903 0.8744,4.01588 -0.3125,5.53125 -1.52647,1.94892 -6.15625,0.71875 -6.15625,0.71875 0,0 4.7704,2.25009 5.875,4.90625 0.53685,1.29092 0.68923,3.24955 -0.375,4.15625 -1.4004,1.19311 -4.75,0.25 -4.75,0.25 0,0 3.48727,2.54471 4.3125,4.96875 0.48993,1.43914 0.90963,3.47889 -0.1875,4.53125 -1.41589,1.35813 -5.25,0.9375 -5.25,0.9375 0,0 4.03511,2.37193 4.9375,4.375 0.51991,1.15407 0.91145,2.93418 0,3.8125 -1.23131,1.18655 -5.125,-0.21875 -5.125,-0.21875 0,0 3.43396,2.3683 4.1875,4.1875 0.38751,0.93554 0.71603,2.31522 0,3.03125 -1.0293,1.0293 -4.375,0 -4.375,0 0,0 3.44515,3.07443 4.125,4.6875 0.76357,1.8117 0.70725,2.19185 -0.53125,3.71875 -1.58211,1.95051 -4.35285,0.48552 -6.53125,0.84375 0,0 5.02366,1.78058 6.4375,3.84375 0.90625,1.32246 1.28922,3.21934 0.8125,4.75 -0.56349,1.80926 -2.17072,3.46417 -3.96875,4.0625 -3.71508,1.23627 -7.25,-0.78125 -7.25,-0.78125 0,0 6.00253,-1.26146 7.125,-2.78125 0.66021,-0.89389 1.24466,-2.06001 1.0625,-3.15625 -0.1901,-1.14402 -2.125,-2.75 -2.125,-2.75 0,0 0.18848,2.43341 -0.53125,3.28125 -1.43834,1.69437 -4.09425,1.9869 -6.3125,2.125 -2.45906,0.1531 -4.91399,-1.18012 -7.375,-1.0625 -2.88721,0.13799 -5.32794,1.67193 -8.1875,2.09375 -2.65085,0.39103 -8.03125,0 -8.03125,0 0,0 1.97275,1.62378 8.1875,1.59375 2.57071,-0.0124 5.05479,-1.49008 7.625,-1.4375 2.00006,0.0409 5.65625,1.96875 5.65625,1.96875 0,0 -9.00791,2.86808 -13.6875,3.15625 -2.11589,0.1303 -4.27484,-0.0715 -6.3125,-0.65625 -2.20935,-0.63398 -3.92412,-3.16476 -6.21875,-3.03125 -0.72986,0.0425 -1.84375,1.1875 -1.84375,1.1875 0,0 -1.37708,-1.26193 -2.21875,-1.1875 -1.57839,0.13957 -3.75,2.9375 -3.75,2.9375 -0.20361,1.75847 0.8125,3.0625 0.8125,3.0625 0,0 1.12204,-3.0262 3.28125,-3.375 0.68315,-0.11036 1.24655,0.75705 1.9375,0.71875 0.68672,-0.038 1.84375,-0.9375 1.84375,-0.9375 0,0 3.34641,2.26569 5.25,2.78125 3.13659,0.8495 6.48825,0.75801 9.71875,0.40625 3.46332,-0.37712 10.28125,-2.375 10.28125,-2.375 2.14372,1.28934 2.91631,1.8783 6.625,1.8125 3.83361,-0.068 8.26265,-1.34707 10.59375,-6 1.10728,-2.21015 -1.34375,-8.0625 -1.34375,-8.0625 1.25444,-1.56175 2.62096,-5.03886 1,-8.5625 1.24268,-2.35202 2.25166,-4.75309 0.5625,-7.59375 1.87589,-3.45958 1.6909,-6.21893 0.59375,-8.6875 1.61754,-2.74031 2.40305,-5.70916 0.5625,-9.4375 1.75952,-3.14704 1.85092,-6.32171 0.59375,-9.46875 1.3133,-2.59562 2.67477,-5.16737 0.59375,-10.1875 0.57294,-2.00817 3.02506,-4.1395 0.5625,-11.28125 2.9353,-3.31421 3.12902,-7.59361 0.59375,-10.9375 0,0 -0.24874,-3.44438 0.84375,-7.28125 1.09248,-3.83687 3.33026,-8.64071 2.34375,-13.59375 -0.77091,-3.87057 -5.77096,-10.86822 -8.65625,-15.25 C 707.61874,309.10763 708.25,301.5625 708.25,301.5625 l -28.1875,0 z" id="path9503-5"/>
        <path inkscape:connector-curvature="0" style="fill:#656064;fill-opacity:1;stroke:none" d="m 653.25,291.9375 c 0,0 -7.20045,8.37426 -5.46875,13.15625 0.27543,0.76057 0.67395,1.54275 1.125,2.34375 4.08593,1.85303 9.22189,4.46203 11.90625,7.0625 2.79434,2.70701 3.07715,7.38965 5.84375,10.125 3.52344,3.48363 8.30715,4.57742 12.03125,4.875 -0.53082,-2.98055 -1.68508,-6.30752 -2.15625,-9.625 C 674.92371,308.55581 678.75,304 678.75,304 l -25.5,-12.0625 z m 26.8125,9.625 c 0,0 1.24477,4.52557 3.25,8.4375 4.34633,2.44064 11.88825,6.8188 16.03125,10.09375 2.85076,2.25347 6.85382,6.9175 10.125,8.5 3.22484,1.56008 7.86851,2.0571 11.9375,2.15625 -1.83767,-3.84858 -5.28533,-8.73041 -7.5,-12.09375 C 707.61874,309.10763 708.25,301.5625 708.25,301.5625 l -28.1875,0 z" id="path9660"/>
        <path inkscape:connector-curvature="0" style="fill:none;stroke:#555054;stroke-width:1;stroke-linecap:butt;stroke-linejoin:miter;stroke-miterlimit:4;stroke-dasharray:none;stroke-opacity:1" d="m 653.25,291.9375 c 0,0 -7.20045,8.37426 -5.46875,13.15625 2.46883,6.81747 13.13463,15.21813 11.53125,25.9375 -4.64349,31.04394 -28.15832,63.47256 -40.625,90.84375 -2.31507,5.08284 -5.15147,5.06876 -8.9375,5.75 -2.78141,0.50047 -5.33962,3.12829 -7.375,4.84375 -2.56302,-2.046 -7.72995,-2.37911 -8.3125,1.03125 -1.90361,-1.11018 -5.08481,-0.87119 -6.75,2.15625 0,0 -3.1467,-0.32661 -4.53125,0.34375 -1.88868,0.91446 -3.63364,2.50926 -3.875,4.59375 -0.20361,1.75847 0.8125,3.0625 0.8125,3.0625 0,0 1.12204,-3.0262 3.28125,-3.375 0.68315,-0.11036 1.24655,0.75705 1.9375,0.71875 0.68672,-0.038 1.84375,-0.9375 1.84375,-0.9375 0,0 3.34641,2.26569 5.25,2.78125 3.13659,0.8495 6.48825,0.75801 9.71875,0.40625 3.46332,-0.37712 10.28125,-2.375 10.28125,-2.375 2.14372,1.28934 2.91631,1.8783 6.625,1.8125 3.83361,-0.068 8.26265,-1.34707 10.59375,-6 1.10728,-2.21015 -1.5625,-10.59375 -1.5625,-10.59375 2.33376,-3.40958 5.80475,-5.9966 5.84375,-9.875 2.1281,-1.59608 4.06429,-3.30379 3.75,-6.59375 3.17364,-2.32717 4.1879,-4.92432 4.25,-7.625 2.63287,-1.7871 4.6346,-4.12398 4.5625,-8.28125 2.93495,-2.09424 4.32429,-4.89873 4.53125,-8.28125 2.29598,-1.78619 4.6129,-3.54071 4.875,-8.96875 1.37565,-1.57118 4.55185,-2.45934 5.375,-9.96875 4.06951,-1.7433 6.05197,-5.51867 5.1875,-9.625 0,0 1.68611,-6.84089 4.3125,-9.84375 2.62637,-3.00288 7.15184,-7.97504 8.375,-12.875 0.95584,-3.82911 -1.48102,-9.08696 -2.21875,-14.28125 C 674.92371,308.55581 678.75,304 678.75,304 l -25.5,-12.0625 z m 26.8125,9.625 c 0,0 2.42326,8.97801 6.03125,12.5625 5.14377,5.11025 13.44716,13.93764 16.15625,20.15625 7.23505,16.60778 5.65304,61.57706 3.875,83.34375 -0.64931,7.94887 -0.63671,5.46418 -2,9.625 -1.14381,3.49096 -3.77647,3.60001 -7.5625,4.28125 -2.78141,0.50047 -5.74587,1.53454 -7.78125,3.25 -2.56302,-2.046 -7.72995,-2.37911 -8.3125,1.03125 -1.90361,-1.11018 -5.08481,-0.87119 -6.75,2.15625 0,0 -3.1467,-0.32661 -4.53125,0.34375 -1.88868,0.91446 -3.63364,2.50926 -3.875,4.59375 -0.20361,1.75847 0.8125,3.0625 0.8125,3.0625 0,0 1.12204,-3.0262 3.28125,-3.375 0.68315,-0.11036 1.24655,0.75705 1.9375,0.71875 0.68672,-0.038 1.84375,-0.9375 1.84375,-0.9375 0,0 3.34641,2.26569 5.25,2.78125 3.13659,0.8495 6.48825,0.75801 9.71875,0.40625 3.46332,-0.37712 10.28125,-2.375 10.28125,-2.375 2.14372,1.28934 2.91631,1.8783 6.625,1.8125 3.83361,-0.068 8.26265,-1.34707 10.59375,-6 1.10728,-2.21015 -1.34375,-8.0625 -1.34375,-8.0625 1.25444,-1.56175 2.62096,-5.03886 1,-8.5625 1.24268,-2.35202 2.25166,-4.75309 0.5625,-7.59375 1.87589,-3.45958 1.6909,-6.21893 0.59375,-8.6875 1.61754,-2.74031 2.40305,-5.70916 0.5625,-9.4375 1.75952,-3.14704 1.85092,-6.32171 0.59375,-9.46875 1.3133,-2.59562 2.67477,-5.16737 0.59375,-10.1875 0.57294,-2.00817 3.02506,-4.1395 0.5625,-11.28125 2.9353,-3.31421 3.12902,-7.59361 0.59375,-10.9375 0,0 -0.24874,-3.44438 0.84375,-7.28125 1.09248,-3.83687 3.33026,-8.64071 2.34375,-13.59375 -0.77091,-3.87057 -5.77096,-10.86822 -8.65625,-15.25 C 707.61874,309.10763 708.25,301.5625 708.25,301.5625 l -28.1875,0 z" id="path6036"/>
      </g>
      <g id="g9441">
        <path sodipodi:nodetypes="ccsssssscsssssssscccccccccccccccccccccccccccccccccccccccc" inkscape:connector-curvature="0" id="path6057" d="m 778.25177,305.74649 c -6.74206,-6.45227 -4.08118,-18.52326 -6.88736,-25.8141 -6.07783,-15.79103 -18.14081,-27.77403 -34.75702,-37.53951 -17.58166,-10.33288 -35.32712,-19.61728 -65.33038,-20.04559 -30.77154,-0.43928 -31.61536,13.11389 -44.83672,6.72996 -10.27232,-4.95999 -8.90557,-21.6 -2.76087,-42.04545 6.14469,-20.44545 17.65978,-45.28373 18.00119,-62.53899 0.14686,-7.42269 -1.08184,-22.34973 -17.03482,-23.71291 -11.10461,-0.948885 -16.11598,5.60072 -14.05013,9.02753 -7.99611,1.85703 -20.89723,7.62774 -19.69715,8.80221 2.19315,2.14634 14.97638,0.0514 21.84037,1.69329 2.52279,0.60347 4.26553,1.43572 5.42498,2.65533 1.5679,1.64924 2.16433,3.74001 2.37766,5.61741 2.17848,19.17179 -8.71288,34.70986 -19.74184,52.4196 -11.02897,17.70973 -20.89402,37.5455 -20.56748,65.44955 0.50502,43.15617 35.06367,58.34389 67.48814,64.65821 1.81568,0.35358 3.83971,1.20374 5.24849,2.35765 3.04086,2.49072 6.37628,2.89293 9.61205,5.522 l -0.96202,-4.36842 c 2.15994,1.24536 3.69074,2.89267 5.12089,4.91606 0.27448,-2.00641 -0.23114,-3.68878 -1.02418,-5.53056 l 3.07253,2.45802 0,-2.25319 c 2.28896,1.22696 3.96246,2.86478 5.53056,4.91606 0.34821,-2.67755 -0.18011,-4.90821 -1.22901,-7.37408 5.11229,4.69069 7.3609,2.39169 10.8732,11.03857 l 1.01478,-4.46504 2.43547,3.45025 c 1.0842,-2.47395 1.08735,-4.5063 0.40592,-7.10347 2.74993,2.43122 5.06194,3.06021 8.72712,2.63844 -2.70231,-1.45626 -3.98945,-2.22311 -3.45026,-5.47983 2.72407,3.04124 5.15711,4.72267 9.05339,5.85491 -1.59832,-1.81818 -2.61068,-4.28639 -1.74696,-5.85491 2.14036,4.80247 7.6196,2.75111 8.93008,7.50939 0.7742,-2.25918 0.59373,-4.0578 -0.20296,-6.29165 6.37801,4.43815 6.72135,6.49992 11.36556,5.88574 l -2.23252,-4.05913 c 3.96719,0.75007 7.53359,1.00212 7.31019,5.48921 1.83881,-2.05001 2.48088,-2.60083 1.82284,-5.28625 2.45382,2.03779 3.24942,2.42115 3.04811,5.69216 1.19683,-2.11418 2.39752,-2.85578 2.22876,-5.28625 2.09323,1.5345 3.05686,2.39962 4.26584,4.67739 0.38294,-2.80035 0.23431,-3.9926 -1.01854,-6.504 4.05075,0.97492 6.51702,2.29627 8.72712,5.88573 l 1.62365,-6.08869 c 0.95496,3.75659 3.81489,4.38679 7.50938,4.87096 -1.96754,-2.32305 -2.39571,-3.65862 -1.01478,-6.49461 3.02032,2.54764 4.44824,5.02072 5.07391,8.93008 l 3.85617,-5.68277 c 1.6026,2.15811 2.46276,3.80147 2.23252,6.4946 2.18177,-1.79208 3.02285,-3.0084 2.63843,-5.88574 3.66196,5.09227 4.67527,2.55149 6.70884,6.30104 0.41336,-2.25784 1.50398,-2.87497 0.39464,-4.88034 5.12099,2.4661 0.86139,3.8248 6.30292,5.68654 -1.85714,-2.06291 -0.51909,-4.00974 -0.21423,-6.70132 1.73929,2.28422 2.72121,4.00711 2.43547,6.90051 5.72178,-5.17759 0.18965,-13.19132 -3.94194,-17.2416 z" style="fill:#a2938b;fill-opacity:1;stroke:#000000;stroke-width:0.5;stroke-miterlimit:4;stroke-dasharray:none;stroke-opacity:1"/>
        <path sodipodi:nodetypes="cssccccccccccccccccccccccccccccccccccccccccccscscsscscsscscscscscsscssscscscsscsscsscsscsscsccsscsssscssscsssscscscscscsssscsssscsscsscscscssscssscssscscccscscscscsscscscscsscscsscscscscscscsscc" inkscape:connector-curvature="0" id="path9420" d="m 580.2322,246.44482 c 0.50502,43.15617 35.06367,58.34389 67.48814,64.65821 1.81568,0.35358 3.83971,1.20374 5.24849,2.35765 3.04086,2.49072 6.37628,2.89293 9.61205,5.522 l -0.96202,-4.36842 c 2.15994,1.24536 3.69074,2.89267 5.12089,4.91606 0.27448,-2.00641 -0.23114,-3.68878 -1.02418,-5.53056 l 3.07253,2.45802 0,-2.25319 c 2.28896,1.22696 3.96246,2.86478 5.53056,4.91606 0.34821,-2.67755 -0.18011,-4.90821 -1.22901,-7.37408 5.11229,4.69069 7.3609,2.39169 10.8732,11.03857 l 1.01478,-4.46504 2.43547,3.45025 c 1.0842,-2.47395 1.08735,-4.5063 0.40592,-7.10347 2.74993,2.43122 5.06194,3.06021 8.72712,2.63844 -2.70231,-1.45626 -3.98945,-2.22311 -3.45026,-5.47983 2.72407,3.04124 5.15711,4.72267 9.05339,5.85491 -1.59832,-1.81818 -2.61068,-4.28639 -1.74696,-5.85491 2.14036,4.80247 7.6196,2.75111 8.93008,7.50939 0.7742,-2.25918 0.59373,-4.0578 -0.20296,-6.29165 6.37801,4.43815 6.72135,6.49992 11.36556,5.88574 l -2.23252,-4.05913 c 3.96719,0.75007 7.53359,1.00212 7.31019,5.48921 1.83881,-2.05001 2.48088,-2.60083 1.82284,-5.28625 2.45382,2.03779 3.24942,2.42115 3.04811,5.69216 1.19683,-2.11418 2.39752,-2.85578 2.22876,-5.28625 2.09323,1.5345 3.05686,2.39962 4.26584,4.67739 0.38294,-2.80035 0.23431,-3.9926 -1.01854,-6.504 4.05075,0.97492 6.51702,2.29627 8.72712,5.88573 l 1.62365,-6.08869 c 0.95496,3.75659 3.81489,4.38679 7.50938,4.87096 -1.96754,-2.32305 -2.39571,-3.65862 -1.01478,-6.49461 3.02032,2.54764 4.44824,5.02072 5.07391,8.93008 l 3.85617,-5.68277 c 1.6026,2.15811 2.46276,3.80147 2.23252,6.4946 2.18177,-1.79208 3.02285,-3.0084 2.63843,-5.88574 3.66196,5.09227 4.67527,2.55149 6.70884,6.30104 0.41336,-2.25784 1.50398,-2.87497 0.39464,-4.88034 5.12099,2.4661 0.86139,3.8248 6.30292,5.68654 -1.85714,-2.06291 -0.51909,-4.00974 -0.21423,-6.70132 1.73929,2.28422 2.72121,4.00711 2.43547,6.90051 5.72178,-5.17759 0.18965,-13.19132 -3.94194,-17.2416 -6.74206,-6.45227 -4.08118,-18.52326 -6.88736,-25.8141 -4.36291,-11.33545 -11.80995,-20.70863 -21.81144,-28.70788 0,0 11.67149,12.989 15.67557,20.6462 1.77486,3.39415 3.55158,10.92793 3.55158,10.92793 0,0 -2.36359,-7.52289 -4.64438,-10.65473 -2.43084,-3.33788 -9.28874,-8.19595 -9.28874,-8.19595 0,0 5.43536,5.65261 7.37636,9.01554 2.18982,3.79404 3.85751,7.98453 4.64437,12.29393 0.45801,2.50838 0,7.64955 0,7.64955 0,0 -2.93965,-11.49891 -5.73717,-16.6651 -1.97767,-3.65217 -7.64955,-9.83514 -7.64955,-9.83514 0,0 5.11265,6.99057 6.82996,10.92794 1.39538,3.19928 2.40085,6.63374 2.73198,10.10833 0.2339,2.4544 -0.5464,7.37636 -0.5464,7.37636 0,0 -0.18458,-7.9658 -2.18558,-11.20113 -1.57129,-2.54055 -7.10316,-5.46397 -7.10316,-5.46397 0,0 3.72421,4.0992 4.91757,6.55676 1.23507,2.54344 2.18559,8.19595 2.18559,8.19595 0,0 -2.56865,-6.68946 -4.91757,-9.28874 -2.20146,-2.43609 -8.19595,-5.46397 -8.19595,-5.46397 0,0 5.30949,4.49106 5.73716,7.64955 0.36759,2.71479 -3.00518,7.64956 -3.00518,7.64956 0,0 -1.21846,-11.3643 -4.37117,-15.84551 -2.82035,-4.00881 -8.51819,-5.04027 -12.02073,-8.46914 -1.53581,-1.5035 -3.82478,-5.19077 -3.82478,-5.19077 0,0 1.18824,4.42763 2.45879,6.28356 2.58497,3.77595 7.75309,5.36538 10.10834,9.28874 1.30736,2.1778 1.90135,4.83631 1.91239,7.37636 0.007,1.50189 -1.0928,4.37117 -1.0928,4.37117 0,0 -0.83589,-4.85708 -2.18558,-6.82996 -1.38926,-2.03073 -5.73717,-4.64437 -5.73717,-4.64437 0,0 2.90926,3.19509 3.55158,5.19077 1.22795,3.8152 0.2732,12.02073 0.2732,12.02073 0,0 -5.08151,-5.09921 -6.82996,-8.19595 -1.23188,-2.18181 -1.0139,-5.05618 -2.45879,-7.10316 -1.68131,-2.38192 -6.82995,-5.46397 -6.82995,-5.46397 0,0 3.67289,3.67226 4.64437,6.01037 0.81047,1.95059 0.82574,4.17131 0.81959,6.28356 -0.006,2.02199 -0.81959,6.01036 -0.81959,6.01036 0,0 -0.74081,-6.7076 -1.91239,-9.83514 -0.70135,-1.87226 -1.70707,-3.6702 -3.00518,-5.19077 -1.21894,-1.42784 -4.37118,-3.55158 -4.37118,-3.55158 0,0 3.03577,3.77056 3.82478,6.01037 0.54798,1.55558 0.89808,3.30622 0.5464,4.91757 -0.4529,2.07516 -3.27838,5.46396 -3.27838,5.46396 0,0 0.35038,-4.18848 0.27319,-6.28356 -0.0574,-1.55774 0.11329,-3.23204 -0.54639,-4.64437 -0.95418,-2.04283 -4.64437,-4.91757 -4.64437,-4.91757 0,0 3.08772,3.73623 3.27838,6.01036 0.23339,2.78376 -2.73199,7.92276 -2.73199,7.92276 l -2.18558,-15.84551 c 0,0 -2.8106,-4.81767 -4.91757,-6.55676 -2.88978,-2.38522 -7.29833,-2.43887 -10.10834,-4.91757 -1.87527,-1.65418 -4.09798,-6.28356 -4.09798,-6.28356 0,0 0.15703,4.67992 1.36599,6.55676 2.50536,3.88941 8.21581,4.66153 11.20114,8.19595 1.70815,2.02233 2.80183,4.56436 3.55157,7.10316 0.70067,2.37262 1.19855,4.93163 0.8196,7.37635 -0.41215,2.65894 -3.27838,7.37636 -3.27838,7.37636 0,0 0.82356,-5.83573 0.5464,-8.74235 -0.27676,-2.90237 -0.55175,-6.05442 -2.18559,-8.46915 -3.10294,-4.58597 -9.59524,-5.79979 -13.38672,-9.83514 -1.03782,-1.10458 -2.45878,-3.82477 -2.45878,-3.82477 0,0 0.0117,3.29581 0.81959,4.64437 2.49979,4.17266 8.62757,5.07143 11.47433,9.01554 1.41613,1.96201 2.0428,4.4463 2.45879,6.82996 0.3914,2.24276 0.55217,4.62128 0,6.82996 -0.37548,1.5019 -2.18559,4.09797 -2.18559,4.09797 0,0 -0.21078,-3.9038 -0.8196,-5.73716 -0.71922,-2.16581 -3.27838,-6.01036 -3.27838,-6.01036 0,0 0.85307,5.07029 0,7.37635 -0.58258,1.57488 -3.27838,3.82478 -3.27838,3.82478 0,0 1.08428,-3.6066 1.0928,-5.46397 0.009,-1.94675 -1.0928,-5.73716 -1.0928,-5.73716 0,0 0.37129,4.22015 -0.54639,6.01036 -0.82457,1.60858 -4.09798,3.55158 -4.09798,3.55158 0,0 1.81397,-3.35054 2.18559,-5.19077 0.50473,-2.4994 0.76204,-5.21623 0,-7.64955 -1.19284,-3.80894 -3.83362,-7.19831 -6.82996,-9.83514 -1.92636,-1.69523 -5.09395,-1.66188 -6.82996,-3.55158 -0.80091,-0.87182 -1.36599,-3.27838 -1.36599,-3.27838 0,0 0.0275,3.11806 0.8196,4.37117 1.32359,2.09403 4.32916,2.55172 6.01036,4.37117 2.24709,2.43187 4.34338,5.26832 5.19077,8.46915 0.72286,2.73045 0.84963,5.8774 -0.2732,8.46915 -1.4335,3.30886 -7.64955,7.64955 -7.64955,7.64955 0,0 -1.54316,-2.25869 -1.91239,-3.55157 -0.8018,-2.80756 0.85403,-6.18031 -0.5464,-8.74235 -0.81246,-1.48637 -4.09797,-3.00518 -4.09797,-3.00518 0,0 2.25829,2.71952 2.73198,4.37117 0.72805,2.53858 0.70495,5.37766 0,7.92275 -0.28348,1.02347 -1.63919,2.73199 -1.63919,2.73199 0,0 -0.51545,-2.80751 -1.09279,-4.09798 -1.42344,-3.18168 -5.73717,-8.74235 -5.73717,-8.74235 0,0 2.58086,5.31721 3.00518,8.19595 0.22614,1.53423 -0.2732,4.64438 -0.2732,4.64438 0,0 -3.12956,-5.70417 -5.19076,-8.19595 -2.54604,-3.0779 -6.67395,-4.77871 -8.74235,-8.19595 -0.88094,-1.45541 -1.13622,-3.2319 -1.36599,-4.91757 -0.23369,-1.7144 0,-5.19077 0,-5.19077 0,0 -1.89363,4.09426 -1.91239,6.28356 -0.017,1.98884 0.63056,4.02297 1.63919,5.73716 1.50216,2.55295 4.82413,3.70595 6.28356,6.28357 0.36999,0.65348 0.5464,2.18558 0.5464,2.18558 0,0 -2.41881,-1.75851 -3.55158,-2.73198 -2.29587,-1.97301 -4.98389,-3.69708 -6.55676,-6.28356 -0.83845,-1.37877 -1.07242,-3.0576 -1.36599,-4.64437 -0.4155,-2.24582 -0.5464,-6.82996 -0.5464,-6.82996 0,0 -0.77741,5.26808 -0.81959,7.92275 -0.0203,1.27801 0.27319,3.82478 0.27319,3.82478 l -6.01036,-4.37118 4.91757,8.19595 c 0,0 -4.83244,-2.59493 -6.55676,-4.64437 -1.36367,-1.62078 -2.73198,-5.73716 -2.73198,-5.73716 0,0 -0.50246,3.89196 0,5.73716 0.47191,1.733 2.73198,4.64437 2.73198,4.64437 0,0 -3.84489,-5.09168 -6.28356,-7.10315 -3.1808,-2.6236 -10.65474,-6.28357 -10.65474,-6.28357 0,0 3.03154,3.64292 4.09798,5.73717 0.65339,1.2831 1.36599,4.09797 1.36599,4.09797 0,0 -3.2605,-0.97008 -4.64437,-1.91238 -2.71504,-1.84872 -4.00923,-5.42009 -6.82996,-7.10316 -1.46095,-0.87172 -4.91757,-1.36599 -4.91757,-1.36599 0,0 3.29474,2.13771 4.09798,3.82477 1.13798,2.39011 0.54639,7.92276 0.54639,7.92276 0,0 -3.2272,-8.04444 -6.28356,-10.92794 -1.48116,-1.39739 -5.46397,-2.73198 -5.46397,-2.73198 0,0 1.90123,2.03136 2.45879,3.27838 0.5686,1.27172 0.81959,4.09797 0.81959,4.09797 0,0 -2.84944,-1.08789 -3.82477,-2.18558 -2.16828,-2.44031 -1.76391,-6.48388 -3.82478,-9.01555 -0.90901,-1.11667 -3.55158,-2.45878 -3.55158,-2.45878 0,0 1.36097,2.6533 1.63919,4.09797 0.29276,1.52019 0,4.64437 0,4.64437 0,0 -2.39085,-3.53427 -3.27838,-5.46396 -0.96266,-2.09304 -1.05689,-4.54838 -2.18558,-6.55676 -0.75978,-1.35193 -3.00519,-3.55158 -3.00519,-3.55158 0,0 1.5881,3.18895 1.91239,4.91757 0.21829,1.16356 0,3.55158 0,3.55158 0,0 -2.31821,-3.31319 -3.00518,-5.19077 -0.89,-2.43248 -1.36599,-7.64955 -1.36599,-7.64955 0,0 -0.78095,2.70546 -0.8196,4.09797 -0.0357,1.28737 0.5464,3.82478 0.5464,3.82478 0,0 -2.00459,-3.89394 -2.45878,-6.01037 -0.55445,-2.58366 -0.2732,-7.92275 -0.2732,-7.92275 0,0 -2.03517,2.75399 -2.45879,4.37118 -0.27692,1.05713 0,3.27838 0,3.27838 0,0 -1.71198,-1.2706 -2.18558,-2.18559 -0.97214,-1.87814 -0.81998,-4.15345 -1.07257,-6.25313 -0.48095,-3.99797 -0.83982,-12.05116 -0.83982,-12.05116 z" style="fill:#918076;fill-opacity:1;stroke:none"/>
        <path style="fill:#998980;fill-opacity:1;stroke:none" d="m 660.05001,222.886 c -20.01947,2.40964 -22.22923,11.68632 -33.60972,6.19125 -10.27232,-4.95999 -8.90557,-21.6 -2.76087,-42.04545 6.14469,-20.44545 17.65978,-45.28373 18.00119,-62.53899 0.14686,-7.42269 -1.13965,-21.78953 -17.03482,-23.71291 -10.60336,-1.28305 -16.11598,5.60072 -14.05013,9.02753 l 2.14322,10.4955 c 2.52279,0.60347 4.26553,1.43572 5.42498,2.65533 1.5679,1.64924 2.16433,3.74001 2.37766,5.61741 1.01198,8.90594 -0.7964,17.02775 -4.12879,24.94738 4.6101,-4.23107 12.42042,-19.53755 6.91438,-31.78682 1.40776,-2.17269 2.36873,-3.72855 1.93143,-6.32106 3.32783,0.3217 5.23318,-2.71679 4.56522,-6.14548 0,0 2.99951,2.76847 3.86287,4.56521 1.31743,2.74169 1.58968,5.9176 1.75585,8.95484 0.22783,4.1641 -0.28365,8.36789 -1.05351,12.46654 -1.87006,9.95604 -5.41398,19.53226 -8.60367,29.14713 -2.92701,8.82304 -6.77215,17.32532 -9.65718,26.16218 -2.88312,8.83102 -7.23818,19.39092 -8.83433,25.53213 -2.12273,8.16728 -3.38403,17.87345 0.46134,23.17723 2.0455,2.82128 5.83206,5.94376 9.27158,6.50354 4.99654,0.81319 12.83099,-1.76088 17.46554,-3.79745 7.15871,-3.14577 12.25565,-11.32094 19.21108,-14.89375 4.47851,-2.30048 14.39798,-4.56521 14.39798,-4.56521 z" id="path9397" inkscape:connector-curvature="0" sodipodi:nodetypes="cssssccssccccsssssssssscc"/>
        <path sodipodi:nodetypes="cssssccsscccccccccccccccccccccccccccccccccccccccccccccccccccccccccccccccccccccccccccccc" inkscape:connector-curvature="0" id="path9360" d="m 654.70253,223.76127 c -15.18696,3.19503 -17.98563,10.27804 -28.26224,5.31598 -10.27232,-4.95999 -8.90557,-21.6 -2.76087,-42.04545 6.14469,-20.44545 17.65978,-45.28373 18.00119,-62.53899 0.14686,-7.42269 -1.13965,-21.78953 -17.03482,-23.71291 -10.60336,-1.28305 -16.11598,5.60072 -14.05013,9.02753 l 2.14322,10.4955 c 2.52279,0.60347 4.26553,1.43572 5.42498,2.65533 1.5679,1.64924 2.16433,3.74001 2.37766,5.61741 0.86409,7.60444 -0.32809,14.63719 -2.76951,21.46053 6.43313,-10.93432 6.01783,-25.56989 3.12603,-27.91722 7.16828,-7.38929 -0.89794,-13.14383 -8.09294,-13.92738 0.63515,-2.64949 2.69124,-4.27193 5.26982,-5.45804 l -1.50566,3.19954 c 1.84147,-1.72937 4.40744,-3.49229 7.39592,-3.62052 -1.73584,0.86329 -3.51965,1.96875 -3.44356,3.99694 3.93107,-3.74258 7.36892,-3.14657 10.98486,-1.32265 -1.878,-0.47509 -3.8183,0.12801 -5.64884,0.71995 4.73559,0.004 7.93936,1.17726 11.18691,4.5966 -2.22906,-1.66657 -4.50219,-2.06184 -7.25488,-2.15985 5.21192,1.36942 8.07884,3.90573 10.30082,8.75016 -2.52608,-3.18429 -5.66126,-4.03487 -9.63625,-4.59661 4.40876,1.63708 7.79261,4.95455 10.27548,8.90364 -2.87557,-2.25572 -5.67942,-3.37616 -8.55499,-4.29301 2.46871,2.77445 5.38246,2.25031 8.04785,11.87476 -2.76999,-4.53702 -5.57206,-5.73672 -7.97309,-6.44555 2.7646,2.93129 5.70133,5.59209 7.178,10.54726 -1.66022,-1.73329 -3.32043,-3.01379 -4.98065,-3.22278 1.97363,2.72591 3.89385,5.48581 3.80873,9.52183 -1.20405,-1.85039 -2.25867,-3.8004 -5.12714,-4.54118 1.68882,3.00634 3.56743,5.96091 3.22277,9.52183 -0.87744,-1.25774 -1.86706,-2.48744 -4.2482,-3.36926 1.52454,2.37102 3.058,4.74168 2.9298,7.17799 -0.8814,-1.44961 -2.01771,-2.58059 -3.66225,-3.07628 1.24666,2.4415 2.91424,4.88299 2.34384,7.32449 -0.76138,-1.08421 -1.35941,-2.25009 -3.22277,-2.78331 1.38688,2.05086 2.23345,4.10171 1.90436,6.15257 -0.93001,-1.31841 -1.93825,-2.63681 -3.80873,-3.95522 1.53836,2.69488 2.60101,5.74448 2.61007,7.86587 -1.17405,-1.509 -2.34809,-2.45246 -3.52214,-2.49575 1.46689,3.06318 2.38212,5.43848 2.01726,8.50166 -1.11388,-2.24231 -2.22777,-2.43973 -3.34165,-2.92395 0.66129,1.84509 1.62831,2.77303 1.25312,7.72757 -1.11388,-1.58893 -2.22777,-1.68957 -3.34165,-1.46197 1.32477,1.87764 1.19499,4.38437 1.17686,7.60492 -1.15556,-0.97889 -1.77286,-1.78407 -3.27037,-1.73712 1.40568,1.41326 1.31157,3.63504 1.25809,6.87225 -0.93045,-1.18485 -1.86089,-2.04093 -2.79134,-2.00731 1.28572,1.31215 1.26821,4.10627 1.32937,6.81093 -0.93595,-0.60083 -1.63102,-1.76371 -3.1328,-1.04427 2.0509,1.80686 1.7776,3.84615 1.87968,5.84789 -1.00972,-0.52032 -1.9351,-1.63094 -3.1328,-0.83541 1.53958,1.53159 2.38969,3.06318 2.29739,4.59477 -1.03315,-1.14724 -2.32313,-1.90665 -3.96821,-1.2181 2.3619,1.12985 2.02945,3.72013 2.50624,5.60402 -1.07955,-1.02647 -1.69928,-1.32634 -3.94746,-1.37895 1.50571,2.08854 3.14768,3.25863 2.90319,5.34716 -1.23906,-0.54358 -2.45487,-1.18014 -3.96821,-0.62656 1.34941,1.81559 3.05428,3.00914 3.34165,6.6833 -1.46197,-1.21588 -2.92395,-0.99754 -4.38592,-0.83541 1.39236,1.02441 2.78471,2.43826 4.17707,5.43018 -1.60121,-1.03382 -3.20242,-1.00155 -4.80363,-0.62656 1.38258,0.62122 2.64123,2.23393 3.74038,5.12261 -1.59742,-1.24809 -3.19483,-1.28492 -4.79224,-0.83921 1.68557,1.46338 3.78641,2.91323 4.36169,6.31963 -1.64045,-2.19851 -4.40699,-2.82264 -6.04744,-3.38954 1.50455,1.80984 3.75537,3.07507 4.39705,6.0354 -2.41467,-2.00011 -3.52852,-2.1178 -6.09144,-2.33881 2.88188,2.03874 4.05989,2.99106 5.02818,6.0602 -2.02947,0.0123 -3.44133,-0.91882 -4.52747,-2.43902 -0.84967,3.77432 0.45,9.18215 3.45234,11.76439 -0.26992,-2.19901 -0.61345,-2.90752 0.0126,-4.22176 1.1312,3.61775 3.44214,6.05577 6.16614,8.08072 -1.36042,-2.26827 -2.76718,-4.53655 -2.76446,-6.80482 1.67619,2.91041 4.04622,4.74651 7.12379,6.06054 -2.6722,-2.19739 -3.66664,-4.39477 -4.57198,-6.59216 2.36955,3.07328 5.38684,5.17495 9.35662,5.84789 -3.17936,-2.33082 -5.04573,-4.56785 -5.42259,-6.69849 3.01908,2.82131 6.13734,4.35322 9.35662,4.57198 -1.921,-1.49421 -4.7023,-2.81636 -4.78463,-4.67831 3.36697,3.0798 6.73393,1.91661 10.1009,1.80753 -2.58294,-0.74643 -5.40544,-1.37308 -6.06054,-3.08343 3.56507,2.15312 6.34831,0.65775 9.35662,0.21265 -1.64228,-0.42209 -3.75339,-0.0237 -4.67831,-1.70121 4.14264,1.37414 6.75977,-0.30275 9.78193,-1.16958 -1.22054,-0.1159 -2.63682,0.0944 -3.29609,-0.95692 4.55406,-2.26034 9.15379,-4.42109 13.77379,-6.54307 z" style="fill:#8e7d74;fill-opacity:1;stroke:none"/>
        <path style="fill:#aba29b;fill-opacity:1;stroke:none" d="m 610.59566,109.80743 c -7.99611,1.85703 -20.89723,7.62774 -19.69715,8.80221 2.19315,2.14634 14.97638,0.0514 21.84037,1.69329 2.52279,0.60347 4.26553,1.43572 5.42498,2.65533 1.82728,-1.37334 4.22666,-4.51575 4.21414,-6.8112 -1.72897,-3.80113 -5.42139,-6.54246 -11.78234,-6.33963 z" id="path6030" inkscape:connector-curvature="0" sodipodi:nodetypes="cssccc"/>
        <path style="fill:#b8b0aa;fill-opacity:1;stroke:none" d="m 592.51094,117.02916 c 0,0 14.07091,-2.98779 21.19539,-2.80636 1.62663,0.0414 3.17413,0.83116 4.80035,0.88622 0.64392,0.0218 1.92014,-0.22155 1.92014,-0.22155 -0.93545,-2.70789 -4.43109,-4.33262 -10.48692,-4.8742 -6.85793,1.98921 -12.9282,4.24096 -17.42896,7.01589 z" id="path6055" inkscape:connector-curvature="0" sodipodi:nodetypes="cssccc"/>
        <g style="stroke-width:1.04674649;stroke-miterlimit:4;stroke-dasharray:none" id="g5989" transform="matrix(-1.1529979,0,0,1.1529979,1347.412,-43.277876)">
          <path sodipodi:nodetypes="sssss" id="path5730-7" d="m 626.6575,130.18471 c -1.67848,0 -3.03556,1.35484 -3.03556,3.03994 0,1.68509 1.35708,3.03993 3.03556,3.03993 1.67849,0 3.03557,-1.35484 3.03557,-3.03993 0,-1.6851 -1.35708,-3.03994 -3.03557,-3.03994 z" style="display:inline;fill:#e0980a;fill-opacity:1;stroke:none" inkscape:connector-curvature="0"/>
          <path sodipodi:nodetypes="sssss" id="path5550-6" d="m 626.6575,130.84284 c -1.31934,0 -2.38508,1.06857 -2.38508,2.38181 0,1.31324 1.06574,2.3818 2.38508,2.3818 1.31935,0 2.38509,-1.06856 2.38509,-2.3818 0,-1.31324 -1.06574,-2.38181 -2.38509,-2.38181 z" style="display:inline;fill:#ffaf0a;fill-opacity:1;stroke:none" inkscape:connector-curvature="0"/>
          <path sodipodi:nodetypes="sssss" id="path5546-2" d="m 626.6575,131.93973 c -0.75103,0 -1.30095,0.56012 -1.30095,1.28492 0,0.7248 0.54992,1.28492 1.30095,1.28492 0.75104,0 1.30096,-0.56012 1.30096,-1.28492 0,-0.7248 -0.54992,-1.28492 -1.30096,-1.28492 z" style="display:inline;fill:#1a1a1a;fill-opacity:1;stroke:none" inkscape:connector-curvature="0"/>
          <circle r="0.72350073" cy="117.57413" cx="367.10425" transform="matrix(1.1057349,0,0,1.1057349,221.90929,3.5830994)" id="path5557-9" style="display:inline;fill:#ffffff;fill-opacity:1;stroke:none"/>
        </g>
        <path style="color:#000000;font-style:normal;font-variant:normal;font-weight:normal;font-stretch:normal;font-size:medium;line-height:normal;font-family:Sans;-inkscape-font-specification:Sans;text-indent:0;text-align:start;text-decoration:none;text-decoration-line:none;letter-spacing:normal;word-spacing:normal;text-transform:none;direction:ltr;block-progression:tb;writing-mode:lr-tb;baseline-shift:baseline;text-anchor:start;display:inline;overflow:visible;visibility:visible;fill:#4c443e;fill-opacity:1;stroke:none;stroke-width:1;marker:none;enable-background:accumulate" d="m 612.4063,115.21875 -5e-5,0 c -7.73896,0 -15.17305,3.32859 -21.57894,3.08752 l 0.48524,0.48356 c 6.67295,0.25113 13.58963,-2.59018 21.125,-2.57108 2.27574,0.006 5.65425,1.11239 7.10937,-0.46875 -2.48333,0.22307 -4.7591,-0.53125 -7.14062,-0.53125 z" id="path6047" inkscape:connector-curvature="0" sodipodi:nodetypes="ssccscs"/>
        <path style="fill:#333333;fill-opacity:1;stroke:none" d="m 597.32959,116.31918 c 0,0 2.65828,-1.59802 3.75323,-1.50591 0.7879,0.0663 0.95416,0.68565 0.95416,0.68565 -1.38675,0.5361 -2.88722,0.55681 -4.70739,0.82026 z" id="path6053" inkscape:connector-curvature="0" sodipodi:nodetypes="cscc"/>
        <path style="fill:#7f6f66;fill-opacity:1;stroke:none" d="m 771.36441,279.93239 c 2.80617,7.29084 0.1453,19.36183 6.88736,25.8141 4.13159,4.05028 9.66372,12.06401 3.94194,17.2416 0.28574,-2.8934 -0.69618,-4.61629 -2.43547,-6.90051 -0.30486,2.69158 -1.64291,4.63841 0.21423,6.70132 -5.44153,-1.86174 -1.18193,-3.22044 -6.30292,-5.68654 1.10934,2.00537 0.0187,2.6225 -0.39464,4.88034 -2.03357,-3.74955 -3.04688,-1.20877 -6.70884,-6.30104 0.38442,2.87734 -0.45666,4.09366 -2.63843,5.88574 0.23024,-2.69313 -0.62992,-4.33649 -2.23252,-6.4946 l -3.85617,5.68277 c -0.62567,-3.90936 -2.05359,-6.38244 -5.07391,-8.93008 -1.38093,2.83599 -0.95276,4.17156 1.01478,6.49461 -3.69449,-0.48417 -6.55442,-1.11437 -7.50938,-4.87096 l -1.62365,6.08869 c -2.2101,-3.58946 -4.67637,-4.91081 -8.72712,-5.88573 1.25285,2.5114 1.40148,3.70365 1.01854,6.504 -1.20898,-2.27777 -2.17261,-3.14289 -4.26584,-4.67739 0.16876,2.43047 -1.03193,3.17207 -2.22876,5.28625 0.20131,-3.27101 -0.59429,-3.65437 -3.04811,-5.69216 0.65804,2.68542 0.016,3.23624 -1.82284,5.28625 0.2234,-4.48709 -3.343,-4.73914 -7.31019,-5.48921 l 2.23252,4.05913 c -4.64421,0.61418 -4.98755,-1.44759 -11.36556,-5.88574 0.79669,2.23385 0.97716,4.03247 0.20296,6.29165 -1.31048,-4.75828 -6.78972,-2.70692 -8.93008,-7.50939 -0.86372,1.56852 0.14864,4.03673 1.74696,5.85491 -3.89628,-1.13224 -6.32932,-2.81367 -9.05339,-5.85491 -0.53919,3.25672 0.74795,4.02357 3.45026,5.47983 -3.66518,0.42177 -5.97719,-0.20722 -8.72712,-2.63844 0.68143,2.59717 0.67828,4.62952 -0.40592,7.10347 l -2.43547,-3.45025 -1.01478,4.46504 c -3.5123,-8.64688 -5.76091,-6.34788 -10.8732,-11.03857 1.0489,2.46587 1.57722,4.69653 1.22901,7.37408 -1.5681,-2.05128 -3.2416,-3.6891 -5.53056,-4.91606 l 0,2.25319 -3.07253,-2.45802 c 0.79304,1.84178 1.29866,3.52415 1.02418,5.53056 -1.43015,-2.02339 -2.96095,-3.6707 -5.12089,-4.91606 l 0.96202,4.36842 c -3.23577,-2.62907 -6.57119,-3.03128 -9.61205,-5.522 -1.40878,-1.15391 -3.43281,-2.00407 -5.24849,-2.35765 -30.57391,-5.95394 -63.04535,-19.79733 -67.07563,-57.53882 1.35915,4.21603 1.71717,8.43207 5.40285,12.6481 -1.89224,-4.13802 -2.0582,-8.27605 -1.81039,-12.41407 0.8402,4.82769 2.79386,9.65539 5.43116,14.48308 -0.81532,-3.96561 -2.41552,-7.93121 -0.51725,-11.89682 -0.19305,5.94841 3.18821,11.89682 4.9139,17.84523 -0.4503,-3.62077 -2.25046,-7.24154 -0.77588,-10.86231 0.64714,5.81182 4.67849,11.05959 7.24154,16.55209 -1.14608,-3.44835 -2.94816,-6.89671 -2.06901,-10.34506 0.67581,4.64322 3.7138,8.89274 6.46566,13.18995 -0.68882,-3.27593 -3.04107,-6.55187 -1.81038,-9.8278 0.38376,3.62077 3.99569,7.24154 6.72428,10.86231 -0.86042,-1.89659 -0.83601,-3.79319 -0.25862,-5.68978 2.29552,7.07758 5.14309,8.08261 7.75879,11.63819 -1.64973,-2.96145 -2.92746,-5.91114 -2.06901,-8.7933 1.81983,6.40965 5.23429,11.68028 9.56918,16.29346 -1.57911,-3.45177 -3.74822,-6.97729 -2.58627,-10.08643 0.67735,4.05182 4.89176,8.10363 8.27605,12.15545 -0.97539,-3.24343 -3.51139,-4.61411 -2.84489,-9.82781 1.54335,3.76585 3.55395,4.26097 5.43116,5.68978 -1.96194,-3.74267 -4.70024,-7.22655 -4.65528,-11.63819 2.50006,4.33278 5.00011,6.70163 7.50017,8.53467 -0.88206,-2.13525 -2.18528,-3.84934 -2.06902,-6.98291 1.81039,3.82475 3.62077,4.51183 5.43116,5.17253 -1.39383,-2.70681 -2.69845,-5.52068 -2.32764,-10.34506 3.27594,6.27313 6.55187,8.05925 9.82781,11.37957 -0.77874,-2.58627 -0.99254,-5.17253 -2.06901,-7.7588 4.85355,3.00452 4.48323,5.35413 6.46566,6.20704 1.31295,-2.39618 -0.38188,-5.29365 -1.03451,-8.01742 5.0843,5.35639 9.00243,10.5904 11.37957,17.5866 0.53467,-3.9221 -0.33024,-7.07333 -2.06902,-10.60369 5.37217,3.17002 6.83843,8.2145 8.01742,14.22446 0.98745,-3.62077 1.59609,-7.24155 -0.25862,-10.86232 3.80986,3.62077 4.06685,7.24155 5.17253,10.86232 0.55372,-3.02442 1.81729,-5.94743 0,-9.31056 3.20236,3.14716 3.84292,6.66691 5.17253,10.08644 0.19294,-2.4705 1.42133,-4.31974 0,-7.7588 2.80842,2.50006 2.44557,5.00011 3.62077,7.50017 0.39363,-5.09267 2.83477,-8.34787 6.6791,-11.51453 -2.21552,4.22441 -2.72476,7.1595 -0.98932,11.77316 -0.3672,-5.75099 3.11293,-9.38091 7.24154,-13.18995 -1.65743,4.51114 -3.23207,8.39079 -2.58626,13.18995 0.59903,-7.78652 8.30149,-7.34875 7.24154,-14.74171 4.62483,5.69026 -1.07399,7.69788 -0.51726,14.22445 1.19993,-4.49796 4.08441,-7.517 7.50017,-10.60368 -2.04493,4.01744 -2.44067,6.69254 -0.51725,10.86231 -0.0931,-4.68626 1.62172,-7.55026 4.9139,-10.86231 -1.52108,4.1025 -1.33413,7.88832 -0.51725,12.15544 0.30759,-5.28812 4.33581,-9.24132 3.87939,-14.22445 2.79195,4.91619 0.42038,8.26973 4.91391,12.41407 l -0.25863,-9.56918 c 1.23945,5.70211 3.58374,9.19176 8.27605,12.67269 -1.85029,-3.73118 -2.01089,-7.03868 -1.29314,-11.12093 0.50274,5.05426 2.79338,7.9458 6.72429,11.12093 -1.95971,-3.92415 -2.63461,-7.53388 -2.32764,-11.89681 2.05888,4.60181 4.18585,9.38304 6.72429,11.12093 -1.50564,-3.27593 -1.84176,-6.55187 -1.55176,-9.8278 2.17987,3.49453 4.19209,7.11479 7.7588,9.56918 -1.5487,-3.10439 -2.00408,-6.52116 -1.03451,-10.34506 0.76415,2.9311 0.83674,5.8622 3.62077,8.7933 -0.78154,-5.3107 0.53724,-9.17072 3.36215,-13.7072 -0.74361,4.4627 -0.55853,8.55004 0.51725,12.93132 0.37499,-3.74716 1.50152,-6.73652 3.62077,-9.82781 -1.03443,4.12127 -0.33687,6.82547 2.06901,10.34506 0.81044,-2.56898 0.88776,-5.50453 0.25863,-8.7933 2.9045,3.62077 4.02092,7.24154 5.17253,10.86231 1.01153,-2.88583 1.08371,-6.12393 -0.77588,-10.08643 3.10047,2.24295 4.18955,5.4916 5.17253,8.7933 0.60182,-1.98432 0.51349,-4.34264 0,-7.75879 2.90451,2.84489 3.7217,5.68978 4.9139,8.53467 -0.11,-3.55836 -0.13792,-7.03462 -1.29313,-11.63819 2.08431,3.18973 4.44378,7.18922 5.10535,10.37895 0,0 -0.95309,-4.30533 -1.32873,-7.37407 -0.50631,-4.13631 -0.24478,-6.86977 -0.66181,-10.21253 -0.46927,-3.76152 -2.57533,-11.94568 -2.57533,-11.94568 1.01608,1.91961 1.91118,3.91551 2.70434,5.97626 z" id="path9422" inkscape:connector-curvature="0" sodipodi:nodetypes="sscccccccccccccccccccccccccccccccccccccccccccccccccccccccccccccccccccccccccccccccccccccccccccccccccccccccccccccccccsscs"/>
        <path style="fill:#6d5f58;fill-opacity:1;stroke:none" d="m 627.22185,304.3964 c -3.22144,-1.82083 -5.80781,-3.70405 -7.41802,-7.07564 3.3324,3.16065 6.97229,5.5594 11.06997,7.64626 -1.79725,-1.81553 -3.19531,-3.44816 -3.30958,-6.04854 3.26552,4.91335 7.86394,6.84951 13.1133,9.37126 -3.00229,-3.0479 -8.96288,-4.14227 -8.60393,-10.70244 3.92644,7.1532 9.26744,7.41895 13.85022,10.91229 -3.19564,-4.04362 -6.80047,-6.57074 -9.35264,-13.61721 7.70239,10.22087 13.8443,13.1741 20.68464,18.65365 -5.54307,-7.05594 -13.69894,-13.19836 -13.86276,-20.46947 5.84323,10.78148 10.31385,12.99035 16.59083,19.00051 -3.40779,-5.39379 -8.66385,-11.37654 -8.11137,-16.61206 3.37821,6.88571 6.85699,11.87864 11.8887,16.40221 -1.30543,-3.56748 -4.2013,-7.13496 -3.35762,-10.70244 3.43877,4.35518 5.76397,7.33868 5.83677,9.80611 0.63847,-1.96011 0.79992,-5.13683 -1.22004,-8.547 3.15819,3.07783 6.04665,6.15565 5.87585,9.23348 0.74498,-1.80414 1.26826,-3.79303 -0.8394,-7.97437 7.26899,3.37055 6.22314,8.69634 10.91229,10.07288 -3.03033,-5.26875 -2.24113,-6.71797 -2.51822,-9.23348 2.7759,3.21773 6.138,6.43546 6.5054,9.65319 0.83834,-1.13857 -0.27474,-5.69213 -1.04925,-9.65319 3.76661,3.75582 5.49175,6.7461 5.87585,9.23348 2.26785,-3.07414 1.01123,-6.58885 0,-10.07288 2.02719,2.86935 4.06418,5.7289 6.5054,8.18422 -1.30258,-3.35763 -1.85476,-6.71526 -1.88866,-10.07289 2.24702,4.01141 4.88529,7.53375 8.81377,9.44333 -0.63175,-2.65812 -2.88756,-5.31625 -1.25911,-7.97437 3.11306,3.96404 3.77537,6.29425 4.40689,8.60393 1.90713,-1.79167 1.41954,-5.57893 0.8394,-9.44333 0,0 2.03443,5.86889 3.77734,8.39407 1.01149,1.46547 3.77733,3.77733 3.77733,3.77733 0,0 -0.94575,-4.46193 -0.83941,-6.71526 0.0608,-1.28839 0.83941,-3.77733 0.83941,-3.77733 0,0 0.37066,2.66056 1.04926,3.77733 1.4393,2.36866 6.0857,5.666 6.0857,5.666 -0.90908,-2.37832 -2.71521,-4.75664 -1.67881,-7.13496 1.79643,3.9011 3.2387,5.32312 4.61674,6.29555 -1.09238,-2.64023 -0.99103,-4.48465 -0.83941,-6.29555 2.16847,3.27814 4.33693,5.76015 6.5054,6.92511 -0.70791,-2.49584 -1.18379,-4.64366 -1.04926,-5.87585 3.1263,1.88867 3.51814,3.77733 4.19704,5.666 1.42987,-2.34986 1.10042,-4.99294 0,-7.76452 2.40716,3.54659 4.74258,7.66714 7.55466,7.97437 -2.91579,-4.19122 -2.17502,-5.77062 -2.30836,-7.97437 1.81871,3.38965 3.63743,6.47136 5.45614,8.18422 -0.58952,-2.71281 -0.47522,-5.43906 0.62956,-8.18422 2.56083,1.97483 2.87812,4.32358 2.93792,6.71526 1.89315,-1.80976 2.24104,-6.71002 2.93793,-10.91229 l 0.62955,8.39407 c 0.9114,-0.97421 1.80517,-1.99255 1.88867,-5.03645 0.71227,4.12914 2.43607,6.57238 4.40689,8.60393 -1.17093,-3.34851 -0.69153,-5.87186 -0.20986,-8.39407 1.1784,2.90241 2.22584,5.88339 5.45615,7.55466 -0.73101,-2.23842 -1.71985,-4.47684 0,-6.71526 2.23842,4.56872 4.47684,7.63064 6.71526,8.39408 -1.152,-2.64027 -1.38298,-5.12704 0,-7.34482 -1.15432,3.83461 2.28127,6.00017 5.666,8.18422 -2.70465,-3.67626 -3.15298,-6.60041 -3.35763,-9.44333 2.28021,3.44151 5.52754,7.20542 5.45614,9.86304 1.64445,-1.4737 0.86859,-3.98467 -0.4197,-6.71526 2.3997,2.37832 4.70454,4.75664 4.61674,7.13496 l 1.36827,-3.57157 c 1.941,3.68267 2.56405,7.81542 -0.87248,10.92511 0.28574,-2.8934 -0.69618,-4.61629 -2.43547,-6.90051 -0.30486,2.69158 -1.64291,4.63841 0.21423,6.70132 -5.44153,-1.86174 -1.18193,-3.22044 -6.30292,-5.68654 1.10934,2.00537 0.0187,2.6225 -0.39464,4.88034 -2.03357,-3.74955 -3.04688,-1.20877 -6.70884,-6.30104 0.38442,2.87734 -0.45666,4.09366 -2.63843,5.88574 0.23024,-2.69313 -0.62992,-4.33649 -2.23252,-6.4946 l -3.85617,5.68277 c -0.62567,-3.90936 -2.05359,-6.38244 -5.07391,-8.93008 -1.38093,2.83599 -0.95276,4.17156 1.01478,6.49461 -3.69449,-0.48417 -6.55442,-1.11437 -7.50938,-4.87096 l -1.62365,6.08869 c -2.2101,-3.58946 -4.67637,-4.91081 -8.72712,-5.88573 1.25285,2.5114 1.40148,3.70365 1.01854,6.504 -1.20898,-2.27777 -2.17261,-3.14289 -4.26584,-4.67739 0.16876,2.43047 -1.03193,3.17207 -2.22876,5.28625 0.20131,-3.27101 -0.59429,-3.65437 -3.04811,-5.69216 0.65804,2.68542 0.016,3.23624 -1.82284,5.28625 0.2234,-4.48709 -3.343,-4.73914 -7.31019,-5.48921 l 2.23252,4.05913 c -4.64421,0.61418 -4.98755,-1.44759 -11.36556,-5.88574 0.79669,2.23385 0.97716,4.03247 0.20296,6.29165 -1.31048,-4.75828 -6.78972,-2.70692 -8.93008,-7.50939 -0.86372,1.56852 0.14864,4.03673 1.74696,5.85491 -3.89628,-1.13224 -6.32932,-2.81367 -9.05339,-5.85491 -0.53919,3.25672 0.74795,4.02357 3.45026,5.47983 -3.66518,0.42177 -5.97719,-0.20722 -8.72712,-2.63844 0.68143,2.59717 0.67828,4.62952 -0.40592,7.10347 l -2.43547,-3.45025 -1.01478,4.46504 c -3.5123,-8.64688 -5.76091,-6.34788 -10.8732,-11.03857 1.0489,2.46587 1.57722,4.69653 1.22901,7.37408 -1.5681,-2.05128 -3.2416,-3.6891 -5.53056,-4.91606 l 0,2.25319 -3.07253,-2.45802 c 0.79304,1.84178 1.29866,3.52415 1.02418,5.53056 -1.43015,-2.02339 -2.96095,-3.6707 -5.12089,-4.91606 l 0.96202,4.36842 c -3.23577,-2.62907 -6.57119,-3.03128 -9.61205,-5.522 -1.40878,-1.15391 -3.43281,-2.00407 -5.24849,-2.35765 -6.06839,-1.18175 -12.21154,-2.67432 -18.19221,-4.60286 l -8.35482,-3.01675 -9.01574,-4.33669 c -16.71906,-9.39235 -24.44074,-19.31396 -27.60427,-29.5037 4.48938,5.87696 8.46638,11.73208 14.38901,16.18763 -1.75544,-2.24925 -2.49178,-4.35292 -3.1476,-6.44508 3.24752,4.65605 6.49504,8.51137 9.74256,11.09153 -1.28764,-1.59878 -2.24005,-3.19756 -2.0984,-4.79634 3.3974,4.69938 6.79481,6.63192 10.19221,9.89244 -0.48774,-0.89931 -1.3054,-1.79862 -0.89931,-2.69793 2.53172,3.84037 8.02552,7.68075 14.49008,11.52112 z" id="path9424" inkscape:connector-curvature="0" sodipodi:nodetypes="cccsscccccccccccccccccccccccccccccccccccccccccccccccccccccccccccccccccccscscscccccccccccccccccccccccccccccccccccccc"/>
        <path style="fill:none;stroke:#5a5049;stroke-width:1;stroke-linecap:butt;stroke-linejoin:miter;stroke-miterlimit:4;stroke-dasharray:none;stroke-opacity:0.99880987" d="m 778.25177,305.74649 c -6.74206,-6.45227 -4.08118,-18.52326 -6.88736,-25.8141 -6.07783,-15.79103 -18.14081,-27.77403 -34.75702,-37.53951 -17.58166,-10.33288 -35.32712,-19.61728 -65.33038,-20.04559 -30.77154,-0.43928 -31.61536,13.11389 -44.83672,6.72996 -10.27232,-4.95999 -8.90557,-21.6 -2.76087,-42.04545 6.14469,-20.44545 17.65978,-45.28373 18.00119,-62.53899 0.14686,-7.42269 -1.13965,-21.78953 -17.03482,-23.71291 -10.60336,-1.28305 -16.11598,5.60072 -14.05013,9.02753 -7.99611,1.85703 -20.89723,7.62774 -19.69715,8.80221 2.19315,2.14634 14.97638,0.0514 21.84037,1.69329 2.52279,0.60347 4.26553,1.43572 5.42498,2.65533 1.5679,1.64924 2.16433,3.74001 2.37766,5.61741 2.17848,19.17179 -8.71288,34.70986 -19.74184,52.4196 -11.02897,17.70973 -20.89402,37.5455 -20.56748,65.44955 0.50502,43.15617 35.06367,58.34389 67.48814,64.65821 1.81568,0.35358 3.83971,1.20374 5.24849,2.35765 3.04086,2.49072 6.37628,2.89293 9.61205,5.522 l -0.96202,-4.36842 c 2.15994,1.24536 3.69074,2.89267 5.12089,4.91606 0.27448,-2.00641 -0.23114,-3.68878 -1.02418,-5.53056 l 3.07253,2.45802 0,-2.25319 c 2.28896,1.22696 3.96246,2.86478 5.53056,4.91606 0.34821,-2.67755 -0.18011,-4.90821 -1.22901,-7.37408 5.11229,4.69069 7.3609,2.39169 10.8732,11.03857 l 1.01478,-4.46504 2.43547,3.45025 c 1.0842,-2.47395 1.08735,-4.5063 0.40592,-7.10347 2.74993,2.43122 5.06194,3.06021 8.72712,2.63844 -2.70231,-1.45626 -3.98945,-2.22311 -3.45026,-5.47983 2.72407,3.04124 5.15711,4.72267 9.05339,5.85491 -1.59832,-1.81818 -2.61068,-4.28639 -1.74696,-5.85491 2.14036,4.80247 7.6196,2.75111 8.93008,7.50939 0.7742,-2.25918 0.59373,-4.0578 -0.20296,-6.29165 6.37801,4.43815 6.72135,6.49992 11.36556,5.88574 l -2.23252,-4.05913 c 3.96719,0.75007 7.53359,1.00212 7.31019,5.48921 1.83881,-2.05001 2.48088,-2.60083 1.82284,-5.28625 2.45382,2.03779 3.24942,2.42115 3.04811,5.69216 1.19683,-2.11418 2.39752,-2.85578 2.22876,-5.28625 2.09323,1.5345 3.05686,2.39962 4.26584,4.67739 0.38294,-2.80035 0.23431,-3.9926 -1.01854,-6.504 4.05075,0.97492 6.51702,2.29627 8.72712,5.88573 l 1.62365,-6.08869 c 0.95496,3.75659 3.81489,4.38679 7.50938,4.87096 -1.96754,-2.32305 -2.39571,-3.65862 -1.01478,-6.49461 3.02032,2.54764 4.44824,5.02072 5.07391,8.93008 l 3.85617,-5.68277 c 1.6026,2.15811 2.46276,3.80147 2.23252,6.4946 2.18177,-1.79208 3.02285,-3.0084 2.63843,-5.88574 3.66196,5.09227 4.67527,2.55149 6.70884,6.30104 0.41336,-2.25784 1.50398,-2.87497 0.39464,-4.88034 5.12099,2.4661 0.86139,3.8248 6.30292,5.68654 -1.85714,-2.06291 -0.51909,-4.00974 -0.21423,-6.70132 1.73929,2.28422 2.72121,4.00711 2.43547,6.90051 5.72178,-5.17759 0.18965,-13.19132 -3.94194,-17.2416 z" id="path4407" inkscape:connector-curvature="0" sodipodi:nodetypes="ccsssssscsssssssscccccccccccccccccccccccccccccccccccccccc"/>
        <path style="fill:#a99b93;fill-opacity:1;stroke:none" d="m 662.6115,228.69427 c 5.53512,-2.34613 11.63308,-3.61385 17.63481,-3.2657 24.49695,1.42101 48.4477,11.78171 65.96723,27.10534 3.34339,2.92433 5.87827,8.49084 5.87827,8.49084 -2.06828,1.3235 -4.13656,-0.85361 -6.20484,-2.286 0.25767,3.29663 7.51835,9.63366 9.79712,14.69567 0.52583,1.16807 0,3.84291 0,3.84291 0,0 -1.36486,-2.33461 -4.61185,-3.87924 -4.18508,-1.99089 -10.70073,-3.60388 -14.00267,-5.51536 -5.78921,-3.35135 -10.23906,-12.6766 -10.23906,-12.6766 0,0 -2.34082,6.34381 2.16538,13.13385 1.89999,2.86294 4.55909,6.17102 5.13455,8.68672 0.4612,2.0162 0,6.20484 0,6.20484 0,0 -4.07857,-7.52755 -7.51112,-9.79712 -3.2815,-2.1697 -7.99494,-1.02172 -11.42997,-2.93913 -3.56284,-1.98875 -5.34226,-6.35252 -8.8174,-8.49083 -1.96453,-1.2088 -4.54663,-1.11075 -6.53141,-2.286 -3.03247,-1.79561 -7.10716,-9.33059 -7.10716,-9.33059 -0.2773,3.01002 -0.85473,8.28 -0.40396,11.29002 -2.50371,0.31187 -3.74363,-5.86914 -6.24733,-11.72854 -1.23286,8.21212 0.32776,14.57535 2.00191,17.93338 -5.49157,-2.40512 -10.2777,-8.61915 -12.73625,-17.88329 0,0 -1.47979,10.44588 -0.37666,13.28724 1.86837,4.81243 8.95855,9.25416 10.82692,14.06659 0.74855,1.92807 0.7915,4.294 0,6.20484 -0.70696,1.70674 -3.91885,3.91885 -3.91885,3.91885 0,0 0.73626,-4.42719 -0.32657,-6.20484 -1.82982,-3.06049 -9.14397,-5.5517 -9.14397,-5.5517 1.84478,4.10605 3.9178,7.53576 3.59227,12.08311 -2.64004,-4.56238 -6.06556,-8.37856 -9.79711,-12.08311 l 1.95942,9.47054 c 0,0 -5.08977,-5.31126 -6.85798,-8.49083 -2.40941,-4.33258 -4.5219,-19.69243 -4.5219,-19.69243 -1.56303,2.98883 -3.22789,11.7375 -2.98922,15.44701 -2.97331,-4.62262 -1.51371,-13.16918 -2.18581,-16.47682 -1.77901,4.35427 -4.19871,11.72184 -3.03932,19.08939 -5.13399,-3.58657 -10.72572,-5.87851 -16.65509,-7.83769 l 2.93913,5.22512 c -6.86734,-4.24684 -12.76614,-7.44281 -20.90051,-7.51112 l 0.97971,3.91885 c 0,0 -3.95456,-2.78416 -5.5517,-4.57199 -1.72992,-1.93647 -5.86716,-6.27438 -6.50537,-8.79137 -1.37788,-5.43413 1.30628,-9.47054 1.30628,-9.47054 0.37355,4.06168 2.16902,8.12337 5.29622,12.18505 -0.15355,-3.92382 -2.01652,-7.20661 0,-11.94421 2.53696,9.71991 6.65669,10.73465 10.33013,14.20393 -1.26006,-3.84597 -3.58946,-6.01156 -2.90535,-12.91266 4.02247,3.14647 7.02552,6.38528 9.36168,9.68449 -0.0579,-3.12056 -0.36552,-6.24112 -1.9369,-9.36168 4.64461,2.04451 6.41444,4.08901 8.39323,6.13352 -0.143,-2.47493 -0.5994,-4.94985 -2.25972,-7.42478 7.79851,1.18366 11.87238,2.36732 13.5583,3.55098 0.20398,-2.15211 -3.41758,-4.30422 -7.10196,-6.45633 0,0 10.05128,0.002 14.84956,1.29126 3.6726,0.98698 10.33013,4.84225 10.33013,4.84225 0,0 -3.44351,-5.67289 -6.13352,-7.42478 -2.99737,-1.95206 -10.33013,-2.90535 -10.33013,-2.90535 0,0 4.47942,-1.23798 6.77915,-1.29126 5.32477,-0.12335 15.81801,2.25971 15.81801,2.25971 0,0 -6.90177,-5.14971 -10.97576,-6.13351 -2.93064,-0.7077 -9.03887,0.32281 -9.03887,0.32281 0,0 5.46928,-2.44087 8.39324,-2.90534 5.84599,-0.92862 11.83587,0.26901 17.75491,0.32281 1.93682,0.0176 5.81069,0 5.81069,0 0,0 -8.29978,-2.62414 -12.58984,-3.22816 -1.64219,-0.23121 -4.97312,-0.14302 -4.97312,-0.14302 z" id="path9426" inkscape:connector-curvature="0" sodipodi:nodetypes="cssccscsscsscsssscccccssscsccccsccccccccsscccccccccccscscscscsscsc"/>
        <path style="fill:#a99b93;fill-opacity:1;stroke:none" d="m 585.12316,242.39504 c -2.51789,-40.53797 33.76979,-75.46793 40.23862,-102.78583 1.75655,-7.41791 2.30449,-13.62722 1.07635,-18.06044 0.382,-1.05962 1.33799,-1.21319 1.23012,-3.49748 0.96712,0.76864 1.93425,1.17049 2.90137,0.9153 0,0 0.95396,9.86977 0.26357,14.65256 -3.8601,26.74148 -17.78813,53.43884 -28.47774,78.25294 -9.41912,21.8649 0.32657,31.12292 0.32657,31.12292 -2.71674,3.58419 -4.09072,6.33692 -3.32262,10.44183 -4.92442,-3.58985 -9.20763,-8.83233 -12.18418,-15.25542 z" id="path9428" inkscape:connector-curvature="0" sodipodi:nodetypes="cscccsscccc"/>
      </g>
    </g>
  </g>
</svg>