<?xml version="1.0" encoding="UTF-8" standalone="no"?>
<!-- Created with Inkscape (http://www.inkscape.org/) -->
<svg xmlns:inkscape="http://www.inkscape.org/namespaces/inkscape" xmlns:rdf="http://www.w3.org/1999/02/22-rdf-syntax-ns#" xmlns="http://www.w3.org/2000/svg" xmlns:cc="http://creativecommons.org/ns#" xmlns:dc="http://purl.org/dc/elements/1.1/" xmlns:sodipodi="http://sodipodi.sourceforge.net/DTD/sodipodi-0.dtd" xmlns:svg="http://www.w3.org/2000/svg" xmlns:ns1="http://sozi.baierouge.fr" xmlns:xlink="http://www.w3.org/1999/xlink" id="svg2" sodipodi:docname="zeimusu_Magpie_no_gradients.svg" inkscape:export-filename="C:\joanna\Gfx\drawings_vector\admin\thumbs\zeimusu_Magpie.png" viewBox="0 0 850.77 583.47" sodipodi:version="0.32" inkscape:export-xdpi="30.889702" version="1.0" inkscape:output_extension="org.inkscape.output.svg.inkscape" inkscape:export-ydpi="30.889702" inkscape:version="0.46dev+devel" sodipodi:docbase="C:\Documents and Settings\James\デスクトップ">
  <sodipodi:namedview id="base" bordercolor="#666666" inkscape:pageshadow="2" guidetolerance="10.0" showgrid="false" pagecolor="#ffffff" gridtolerance="10.0" inkscape:zoom="0.45688599" objecttolerance="10.0" borderopacity="1.0" inkscape:current-layer="layer2" inkscape:cx="567.39335" inkscape:cy="291.73499" inkscape:window-y="130" inkscape:window-x="144" inkscape:window-height="643" inkscape:guide-bbox="true" inkscape:pageopacity="0.0" inkscape:window-width="1120" showguides="true"/>
  <g id="layer2" inkscape:label="trace" inkscape:groupmode="layer" transform="translate(-551.32 15.69)">
    <g id="g3215" inkscape:transform-center-x="-101.22641" inkscape:transform-center-y="-159.34619" transform="matrix(2.526 .90327 -.61266 1.7133 -639.86 -713.94)">
      <path id="path3217" sodipodi:nodetypes="ccscc" style="fill:#000000" d="m648.37 298.98c3.36-1.55 11.17 2.29 10.32 5.08-2.05-2-4.47-1.95-5.45-1.5-1.34 0.6-1.48 1.97-1.48 1.97l-3.39-5.55z"/>
      <path id="path3219" sodipodi:nodetypes="cccc" style="fill:#000000" d="m628.79 337.16c3.46 1.1 1.75 5.91 1.75 5.91 2.68-2.2 5.88-4.84 5.73-7.55l-7.48 1.64z"/>
      <path id="path3221" sodipodi:nodetypes="ccccc" style="fill:#000000" d="m605.76 324.67c-2.44 3.44-3.87 9.04-1.67 11.62 0.68-2.7 1.82-3.86 3.18-5.43s2.86-1.17 2.86-1.17c-1.46-1.67-3.03-3.5-4.37-5.02z"/>
      <path id="path3223" sodipodi:nodetypes="cccc" style="fill:#000000" d="m608.03 309.64c-2.65 0.56-5.64 0.97-4.63 4.51 2.12-1.2 4.2-1.08 7.36-0.05l-2.73-4.46z"/>
      <path id="path3225" sodipodi:nodetypes="ccccsccscsscsssccc" style="fill:#353340" d="m658.9 252.57l-24.06 54.6 14.59-8.99 3.19 6.53s-14.53 5.31-16.78 8.96c-2.25 3.64 0.87 22.26 0.87 22.26l-8.08 1.83s2.48-15.83 0.99-16.3c-1.49-0.46-20.76 9.25-20.76 9.25s-6.25-4.58-2.16-7.45c4.1-2.87 15.4-2.52 16.27-4.93 0.86-2.4-15.72-4.8-15.72-4.8s-0.65-4.81 4.79-6.1c5.45-1.3 11.53 6.39 13.93 4.84 2.41-1.56 20.6-39.69 18.41-41.74-2.2-2.06-2.5-7.45-2.5-7.45l13.51-1.85 3.51-8.66z"/>
    </g>
    <path id="path3227" style="fill:#000000" d="m815.96 300.4l4.74 27.57 29.06 2.19 33.28-23.09-61.99-20.55-5.09 13.88z"/>
    <g id="g3201" inkscape:transform-center-x="-101.22641" inkscape:transform-center-y="-159.34619" transform="matrix(2.526 .90327 -.61266 1.7133 -723.93 -673.83)">
      <path id="path3203" sodipodi:nodetypes="ccscc" style="fill:#000000" d="m648.37 298.98c3.36-1.55 11.17 2.29 10.32 5.08-2.05-2-4.47-1.95-5.45-1.5-1.34 0.6-1.48 1.97-1.48 1.97l-3.39-5.55z"/>
      <path id="path3205" sodipodi:nodetypes="cccc" style="fill:#000000" d="m628.79 337.16c3.46 1.1 1.75 5.91 1.75 5.91 2.68-2.2 5.88-4.84 5.73-7.55l-7.48 1.64z"/>
      <path id="path3207" sodipodi:nodetypes="ccccc" style="fill:#000000" d="m605.76 324.67c-2.44 3.44-3.87 9.04-1.67 11.62 0.68-2.7 1.82-3.86 3.18-5.43s2.86-1.17 2.86-1.17c-1.46-1.67-3.03-3.5-4.37-5.02z"/>
      <path id="path3209" sodipodi:nodetypes="cccc" style="fill:#000000" d="m608.03 309.64c-2.65 0.56-5.64 0.97-4.63 4.51 2.12-1.2 4.2-1.08 7.36-0.05l-2.73-4.46z"/>
      <path id="path3211" sodipodi:nodetypes="ccccsccscsscsssccc" style="fill:#353340" d="m658.9 252.57l-24.06 54.6 14.59-8.99 3.19 6.53s-14.53 5.31-16.78 8.96c-2.25 3.64 0.87 22.26 0.87 22.26l-8.08 1.83s2.48-15.83 0.99-16.3c-1.49-0.46-20.76 9.25-20.76 9.25s-6.25-4.58-2.16-7.45c4.1-2.87 15.4-2.52 16.27-4.93 0.86-2.4-15.72-4.8-15.72-4.8s-0.65-4.81 4.79-6.1c5.45-1.3 11.53 6.39 13.93 4.84 2.41-1.56 20.6-39.69 18.41-41.74-2.2-2.06-2.5-7.45-2.5-7.45l13.51-1.85 3.51-8.66z"/>
    </g>
    <path id="path2277" sodipodi:nodetypes="cscsccscscccccccc" style="fill:#1a1a1a" d="m1054.8 285.73s125.6 65.27 132.5 72.95c6.8 7.68 15.9 22.84 15.9 22.84s113.4 72.99 117 79.09c3.5 6.11 6.2 14.54 6.2 14.54l24.6 12.7s51.1 43.56 51.1 53.11-9.6 12.68-9.6 12.68 7.3 12.41-2.9 14.07c-10.1 1.66-68.1-27.57-68.1-27.57l-51-25.33-49.5-25.57-35.7-15.53-37.4-15.32c-24.5 14.43-142.8-102.21-210.98-161.66l121.28-8.35-3.4-2.65z"/>
    <path id="path3185" sodipodi:nodetypes="cscsscc" style="fill:#333333" d="m749.91 10.799c31.35 2.7 78.06 20.065 80.11 33.192 2.04 13.128-4.59 1.932-4.59 1.932s-19.96 4.303-28.56 4.61c-8.61 0.307-36.88 2.744-45.2 3.578-8.32 0.835-37.69-1.448-37.69-1.448l35.93-41.864z"/>
    <path id="path3213" style="fill:#000000" d="m731.89 340.51l4.74 27.57 29.06 2.19 33.28-23.09-61.99-20.55-5.09 13.88z"/>
    <path id="path2297" style="fill:#b3b3b3" d="m575.53 246.41c55.45 62.88 171.53 102.82 201.14 103.76s121.91-42.76 121.91-42.76l-164.11-23.12-152.18-81.87-17.76-3.48 11 47.47z"/>
    <path id="path2273" style="fill:#000000" d="m891.2 182.64l70.34 39.2 56.16 36.33 25.2 15.49-96.1-17.36-74.66-44.09-49.36-10.34 11.66-28.86 56.76 9.63z"/>
    <path id="path2271" style="fill:#ececec" d="m840.85 150.67l29.19 18.6-1.54 2.62s23.88 8.68 17.4 18.48c-6.48 9.79-21.71 5.85-33.05 2.57-11.33-3.28-23.04 0.95-23.04 0.95l-17.52-4.85 13.86-13.25 14.7-25.12z"/>
    <path id="path2279" sodipodi:nodetypes="ccccccccccccccccccc" style="fill:#000000" d="m1052.5 287.59l124.1 72.11c30.2 43.59 91.5 68.98 137.2 103.36 13.3 10.98-2.4 18.35 39.9 32.96 15.1 21.6 17.5 31.56-6.8 15.23l-38.2-25.9 44.3 55.34-41.3-27.28 26.5 25.7c-72.1-32.47-84.6-56.98-107.9-82.55l17.7 41.62c-16.7-2.14-26.8-15.34-54-37.75l16.3 23.38-42-31.68 15.4 21.22-37.5-27.2-11.2 6.03c-69.4-40.5-132.3-103.49-198.19-155.67l115.69-8.92z"/>
    <path id="path2265" sodipodi:nodetypes="cssscccccccccc" style="fill:#000000" d="m581.29 205.69s-0.66 35.21 15.03 53.6c15.7 18.39 64.44 44.05 146.32 52.61 81.88 8.55 230.01-12.83 249.07-15.7 19.09-2.86 89.39-6.97 89.39-6.97 10.7-8.04 1.3-13.28-10.8-18.15l-100.76-16.94-27.11-9.96-34.85-28.69-79.22-23.17-18.9-4.7-146.69-33.34-52.98 6.56-28.5 44.85z"/>
    <path id="path2269" sodipodi:nodetypes="csscsscscccc" style="fill:#ececec" d="m603.52 194.48s24.91 32.26 33.18 35.16c8.26 2.91 28.4 15.66 35.83 15.66s56.32 6.26 81.34-6.06c18.98 0.74 50.92-11.5 51.69-19.23 0.85-8.55 28.98-4.07 27.98-16.27-0.99-12.21-65.22-34.84-65.22-34.84s-64.49-17.44-68.22-20.39c-3.74-2.95-79.68 0.96-79.68 0.96l-27.03 12.12-2.82 34.26 12.95-1.37z"/>
    <path id="path2263" sodipodi:nodetypes="cccsscscscssscssscccssssc" style="fill:#000000" d="m751.2 11.441l-14.2 34.296 17.43 7.391s-45.67 17.19-39.69 39.113c5.98 21.919 27.49 25.619 58.54 31.219 31.06 5.61 68.22 33.68 68.22 33.68s11.55 11.87 7.27 15.2c-4.28 3.32-13.41 5.85-13.41 5.85s-4.28 12-9.05 10.38c-4.78-1.62-14.79 2.7-14.79 2.7s-42.6-14.37-47.62-13.91-26.49 5.98-40.4 7.1-42.68-5.44-54.81-4.4c-12.12 1.04-40.77-13.04-40.77-13.04s-0.75 7.93-5.73 9.05-18.14 0.5-20.63 5.32c-2.5 4.81-4.78 9.71-5.9 14.4-1.12 4.7-9.26 16.53-9.26 16.53l-8.84-0.62-0.13 34.79s-23.04-44.26-25.57-61.62c-2.54-17.35 4.27-50.53 11.58-78.64 7.31-28.106 7.64-57.752 28.36-83.08s52.98-36.622 80.22-38.49c27.23-1.869 59.37 3.28 79.18 26.781z"/>
    <path id="path2275" sodipodi:nodetypes="csccsssc" style="fill:#000000" d="m867.95 167.32s53.27 27.86 78.06 38.86c24.79 11.01 105.39 62.92 105.39 62.92l-33-7.24s-31.29-23.37-45.82-32.42-50.11-24.21-58.83-31.06-24.42-14.99-27.7-16.03-17.31-15.32-18.1-15.03z"/>
    <path id="path3187" sodipodi:nodetypes="cc" style="stroke:#000000;stroke-linecap:round;stroke-width:2;fill:#333333" d="m824.18 44.825s-35.68-18.725-88.27-10.712"/>
    <path id="path3195" sodipodi:rx="10.284562" sodipodi:ry="9.4176083" style="stroke:#000000;stroke-linecap:round;stroke-width:2;fill:#333333" sodipodi:type="arc" d="m779.86 82.715a10.285 9.4176 0 1 1 -20.57 0 10.285 9.4176 0 1 1 20.57 0z" transform="translate(-76.24 -55.32)" sodipodi:cy="82.715446" sodipodi:cx="769.57074"/>
    <path id="path3197" sodipodi:rx="4.544086" sodipodi:ry="4.0173016" style="fill:#000000" sodipodi:type="arc" d="m823.67 82.342a4.5441 4.0173 0 1 1 -9.09 0 4.5441 4.0173 0 1 1 9.09 0z" transform="matrix(1.343 0 0 1.3989 -406.9 -87.926)" sodipodi:cy="82.342255" sodipodi:cx="819.12762"/>
    <path id="path3199" sodipodi:rx="3.1611032" sodipodi:ry="3.5123947" style="fill:#ffffff" sodipodi:type="arc" d="m826 80.345a3.1611 3.5124 0 1 1 -6.32 0 3.1611 3.5124 0 1 1 6.32 0z" transform="translate(-124.18 -53.608)" sodipodi:cy="80.344582" sodipodi:cx="822.83752"/>
  </g>
  <metadata>
    <rdf:RDF>
      <cc:Work>
        <dc:format>image/svg+xml</dc:format>
        <dc:type rdf:resource="http://purl.org/dc/dcmitype/StillImage"/>
        <cc:license rdf:resource="http://creativecommons.org/licenses/publicdomain/"/>
        <dc:publisher>
          <cc:Agent rdf:about="http://openclipart.org/">
            <dc:title>Openclipart</dc:title>
          </cc:Agent>
        </dc:publisher>
        <dc:title>Magpie</dc:title>
        <dc:date>2006-11-23T07:32:15</dc:date>
        <dc:description>trace of P.D. jpeg from wikimedia commons. http://commons.wikimedia.org/wiki/Image:Pica_pica.jpg</dc:description>
        <dc:source>https://openclipart.org/detail/12245/magpie-by-zeimusu-12245</dc:source>
        <dc:creator>
          <cc:Agent>
            <dc:title>zeimusu</dc:title>
          </cc:Agent>
        </dc:creator>
        <dc:subject>
          <rdf:Bag>
            <rdf:li>animal</rdf:li>
            <rdf:li>bird</rdf:li>
            <rdf:li>externalsource</rdf:li>
            <rdf:li>magpie</rdf:li>
            <rdf:li>nature</rdf:li>
            <rdf:li>pica</rdf:li>
          </rdf:Bag>
        </dc:subject>
      </cc:Work>
      <cc:License rdf:about="http://creativecommons.org/licenses/publicdomain/">
        <cc:permits rdf:resource="http://creativecommons.org/ns#Reproduction"/>
        <cc:permits rdf:resource="http://creativecommons.org/ns#Distribution"/>
        <cc:permits rdf:resource="http://creativecommons.org/ns#DerivativeWorks"/>
      </cc:License>
    </rdf:RDF>
  </metadata>
</svg>