<?xml version="1.0" encoding="UTF-8" standalone="no"?>
<!-- Generator: Adobe Illustrator 12.0.0, SVG Export Plug-In . SVG Version: 6.00 Build 51448)  -->
<svg xmlns:inkscape="http://www.inkscape.org/namespaces/inkscape" xmlns:rdf="http://www.w3.org/1999/02/22-rdf-syntax-ns#" xmlns="http://www.w3.org/2000/svg" xmlns:cc="http://web.resource.org/cc/" xmlns:dc="http://purl.org/dc/elements/1.1/" xmlns:sodipodi="http://sodipodi.sourceforge.net/DTD/sodipodi-0.dtd" xmlns:svg="http://www.w3.org/2000/svg" xmlns:ns1="http://sozi.baierouge.fr" xmlns:xlink="http://www.w3.org/1999/xlink" id="Layer_1" style="enable-background:new 0 0 186.971 278.243" space="preserve" sodipodi:docname="cigno_di_spalle_archite_04r.svg" viewBox="0 0 186.971 278.243" sodipodi:version="0.32" version="1.1" inkscape:output_extension="org.inkscape.output.svg.inkscape" inkscape:version="0.45.1" sodipodi:docbase="/Users/johnolsen/Desktop/openclipart-0.20-pre/recovered-zerobyte-files/animals/birds">
  <sodipodi:namedview id="base" bordercolor="#666666" inkscape:pageshadow="2" inkscape:window-width="787" pagecolor="#ffffff" inkscape:zoom="1.2938330" inkscape:window-x="88" borderopacity="1.0" inkscape:current-layer="Layer_1" inkscape:cx="93.485497" inkscape:cy="139.12151" inkscape:window-y="116" inkscape:window-height="510" inkscape:pageopacity="0.0"/>
  <path id="path3" style="clip-rule:evenodd;fill-rule:evenodd" d="m127.93 12.022c3.327 0.121 8.035 0.641 7.59 5.105-0.292 2.94-4.146 5.769-3.829 8.598 0.273 2.434 14.368 12.821 6.046 11.017-2.579-0.559-6.992-2.951-9.662-4.06-4.582-1.903-9.166-4.102-13.846-5.748-7.711-2.712-15.527-4.465-22.846-8.245-6.137-3.168-18.561 0.27-25.038 1.839-7.042 1.708-16.94 5.151-21.264 11.456-4.319 6.299-7.711 16.348 0.222 21.567 8.318 5.473 16.543 9.266 26.056 12.253 20.446 6.42 74.194 17.312 61.14 49.125 15.354-3.96 33.78-15.393 47.283-0.806-2.861 1.208-7.212 0.064-10.478 0.135 5.796 2.484 11.56 4.529 15.368 9.857 1.437 2.009 4.154 8.85-0.322 7.07 3.026 10.198 3.115 19.077 1.87 29.64-0.695 5.902-1.843 10.938-4.079 16.462-0.893 2.205-4.847 9.358-7.059 9.249 0.761-1.89 1.224-3.878 1.342-5.912-7.832 17.047-19.351 28.164-34.606 38.845-7.104 4.974-14.154 9.713-22.058 13.352-6.991 3.22-19.007 5.876-23.8 12.021 4.944 0.865 9.573 1.762 14.546 0.868 5.444-0.979 5.808-5.705 8.895-9.063 2.609-2.839 6.226 0.38 9.068 0.805 2.783 0.416 8.262-0.727 10.41 1.411 2.545 2.532-2.813 1.341-4.031 1.747-2.341 0.779-4.688 3.777-3.021 6.247 2.257 3.345 13.972 0.958 12.896 6.313-1.556-1.915-3.156-0.806-5.241-0.135-1.876 0.604-1.896 1.69-4.296 1.211-2.08-0.416-3.029-0.591-5.062 0.65-2.109 1.288-3.705 2.646-5.134 4.668-1.227 1.736 1.113 0.57 1.598 1.398 1.143 1.955 3.81 3.205 1.342 5.643 0.149-4.653-2.767-1.361-4.699-1.747-3.604-0.72-5.159-5.025-8.306-7.07-4.006-2.604-8.942-3.435-13.054-0.788-4.074 2.622-7.582-2.237-10.478 1.41-0.903-2.001 0.078-3.296 1.747-4.166 0.241-0.126 2.333 0.538 2.551 0.538 2.412 0 4.528-1.402 6.18-3.09-4.505-1.62-8.15 2.904-12.29-0.403-1.704-1.361-3.264-1.843-2.62-4.433-5.484 1.098-18.684 1.372-21.291 6.583-3.229 6.453-13.556 11.29-19.41 15.113-6.671 4.358-15.512 7.751-23.413 8.829-1.52 0.207-5.252 1.454-6.407 0.508-0.528-0.433-1.558-7.671-2.032-9.267-2.666-8.973-1.071-16.98-1.34-26.138-0.184-6.255 4.207-16.422 0.417-21.155-9.868-12.326-15.183-33.651-12.992-49.167 2.201-15.586 4.548-28.886 13.294-42.262 4.052-6.197 7.863-11.642 13.601-16.383 6.771-5.595 11.853-8.06 20.485-10.009-1.365-0.077-9.29 0.58-9.94-0.134-1.72-1.889 7.469-4.396 8.731-4.475 8.874-0.556 17.649 1.487 24.293 7.713 4.47 4.189 15.12 9.162 20.035 2.672 5.144-6.792-4.094-15.28-9.767-17.943-8.32-3.905-16.476-5.645-25.318-7.919-7.345-1.89-18.688-4.633-23.868-10.521-12.855-14.612-14.323-32.86-0.38-47.341 12.443-12.928 31.336-15.595 47.807-20.301 9.156-2.616 16.999-5.854 26.708-5.16 7.85 0.561 15.87 7.222 21.75 11.927"/>
  <path id="path5" style="fill:#FFFFFF;clip-rule:evenodd;fill-rule:evenodd" d="m115.44 15.381c-1.38-0.922-0.61-0.406 0 0m18.53 0.268c-0.1 1.872-2.062 3.307-2.953 1.075-0.97-2.434 1.68-3.829 2.95-1.075"/>
  <path id="path7" style="fill:#E0E3FF;clip-rule:evenodd;fill-rule:evenodd" d="m67.615 111.57c0.191-0.18 0.698-0.66 0 0"/>
  <path id="path9" style="fill:#E0E3FF;clip-rule:evenodd;fill-rule:evenodd" d="m101.73 164.91c-0.59 0.59-0.59 0.59 0 0"/>
  <path id="path11" style="fill:#E0E3FF;clip-rule:evenodd;fill-rule:evenodd" d="m176.69 180.09c-0.18 0.71-0.18 0.71 0 0"/>
  <path id="path13" style="fill:#F0EDF5;clip-rule:evenodd;fill-rule:evenodd" d="m119.74 6.783c2.038 1.299 4.092 2.693 5.642 4.568-2.323 0.634-5.033 0.885-6.046 3.358-1.692-2.084-5.104-4.339-7.12-1.344-2.945 4.376 3.178 5.188 5.778 5.911-1.105 1.331-2.2 2.958-2.285 4.702-0.664-0.586-1.459-0.881-2.015-1.746 0.691 1.234 0.999 2.124 2.282 3.09-7.358 0.666-16.094-3.06-22.388-6.6-6.906-3.885-17.293-1.457-24.65 0.266-13.02 3.049-38.677 15.118-26.976 32.532 4.103 6.105 14.261 10.027 21.117 12.4 9.649 3.34 19.277 6.49 29.048 9.452 12.796 3.878 35.732 11.289 40.253 25.664 1.493 4.747 1.159 10.349-0.688 14.956-1.561 3.892-9.386 3.039-12.762 4.164-4.582 1.528-8.629 3.737-13.162 4.972-5.849 1.593-11.357 3.332-16.792 6.044 1.459-3.031 1.069-6.146-0.806-8.866-2.2-3.192-7.392-5.106-0.738-7.322 9.305-3.1 5.703-13.515-0.032-18.39-6.548-5.566-14.696-8.922-23.143-10.412-8.861-1.563-16.667-4.444-24.951-7.955-14.858-6.297-21.994-27.663-13.81-41.58 9.479-16.081 26.942-21.09 43.69-25.975 8.326-2.429 18.62-6.931 27.126-7.518 9.146-0.631 15.586 0.665 23.446 5.643m-40.034 178.01c-1.936 1.277-3.268 3.077-4.971 4.837-2.609 2.696-5.769 3.516-9.226 5.59-4.505 2.704-13.721 9.15-5.685 12.144-1.691 1.534-10.456 9.881-7.12 10.748-2.843 2.124-9.39 7.379-3.223 9.538-2.643 1.235-15.915 7.779-7.12 9.136-2.435 1.151-5.261 2.777-6.662 5.159-0.285 0.485-1.798 4.22-1.801 4.11 0.05 2.167-0.521 1.6 2.686 2.688 2.591 0.879 5.292 0.752 8.06 1.343-2.258 6.187-4.435 12.327-9.646 16.768-3.86 3.289-10.712 10.523-16.278 9.967 1.934-11.984 2.732-22.438 8.06-33.72 0.654 1.533 0.362 5.516 2.687 3.762 2.59-1.954 0.094-8.97-0.538-11.286 0.651 1.415 1.836 8.113 3.224 8.195 2.37 0.141 2.384-4.693 2.284-6.181 3.015 0.187 5.089-4.866 5.507-7.791 3.645 3.015 5.483-20.237 5.776-23.242 0.149 2.127-1.072 13.993 2.297 9.599 4.056-5.291 5.55-10.396 5.897-16.988 4.965 0.764 8.962-13.395 9.94-17.061 5.287 1.79 10.286 2.49 15.852 2.67m102.75-45.68c0.97-0.682 2.066-0.818 2.955-1.747 2.854 6.873 0.673 16.485-0.27 23.646-1.164 8.85-3.881 15.51-8.461 23.106 1.321-8.1 5.74-18.397 5.507-26.197-4.151 3.798-4.711 15.788-6.448 21.226-2.793 8.739-7.399 15.161-13.246 22.085-9.729 11.518-28.198 23.786-42.767 27.892-14.373 4.051-27.807-5.37-27.807-20.97 0-15.69 6.144-33.651 21.292-40.963 4.792-2.313 10.447-9.11 15.178-8.06 5.248 1.164 13.021-2.759 17.36-5.422 3.202-1.966 6.287-3.989 9.368-6.14 2.549-1.777 6.404-1.788 9.339-3.486 2.927-1.694 5.331-4.03 8.806-4.03 2.969 0 6.513-2.084 8.521-4.164 0.12 1 0.62 2.25 0.66 3.21"/>
  <path id="path15" style="fill:#9EC2FF;clip-rule:evenodd;fill-rule:evenodd" d="m67.615 226.44c0.901-0.197 1.775-0.447 2.687-0.536-0.896 0.18-1.794 0.35-2.687 0.54"/>
  <path id="path17" style="fill:#DEC2FF;clip-rule:evenodd;fill-rule:evenodd" d="m135.58 239.2c0.638-0.063 1.087-0.414 1.881 0-0.61 0-1.26-0.06-1.88 0m-8.06 23.92c-0.972-0.388-1.744-0.667-2.418-1.479 1.2 0.05 1.58 0.67 2.42 1.48m-32.905-7.53c-0.388 0.153-1.525 0.521-2.283 0.672 0.666-1.6 1.223-0.68 2.283-0.67m2.285-73.49c-1.063 2.511-2.507 8.637-5.102 8.18-5.572-0.983-11.009-0.048-16.527 0.956 2.705-7.9 14.657-9.36 21.629-9.14m12.76 50.65c-12.285 5.142-24.576 7.775-37.777 9.36-11.733 1.409-24.235 4.423-35.969 4.21 21.325-11.23 50.247-11.25 73.746-13.57m-73.209 1.88c0.978-2.576 1.342-5.367 1.881-8.061 0.607 2.85-0.116 5.76-1.881 8.06m56.553-42.99c-1.213 3.604-0.073 5.373-4.41 5.373-4.151 0-8.284 0.16-12.382 0.942-6.595 1.259-13.427 3.399-19.343 6.582 4.309-10.25 26.391-17.05 36.135-12.89m-1.613 6.45c0.44 3.938-3.729 2.119-6.515 1.879-3.032-0.261-6.759 0.159-9.659 1.04-4.677 1.42-13.425 7.422-17.677 4.201 11.414-5.03 21.358-7.49 33.851-7.12m-0.403 3.76c-0.044 4.646 1.041 6.737-4.022 6.661-4.721-0.071-9.038 0.438-13.73 1.079-7.254 0.99-13.443 5.397-20.396 7.306 7.172-10.7 24.78-20.12 38.148-15.05m0 8.06c0.123 4.716 0.819 4.193-4.568 4.567-4.363 0.303-8.634 1.283-12.938 2.001-8.934 1.488-17.227 4.562-25.478 8.209 7.458-10.98 30.393-18.99 42.984-14.78m0.806 5.65c0.663 2.123 1.756 4.055 2.417 6.178-8.51-0.314-16.749-0.387-25.18 1.018-5.526 0.921-15.943 5.941-20.895 3.014 11.783-5.62 30.269-13.89 43.658-10.21m2.956 7.65c-7.858 0.175-16.682 0.131-24.044 2.688 4.425-0.674 23.64-4.605 25.925-0.538-9.608 1.25-19.154 2.554-28.633 4.605-5.299 1.147-10.566 2.264-15.793 3.695-3.441 0.942-8.197 3.407-11.723 1.507 8.766-3.47 17.596-6.271 26.731-8.598-8.805 0.509-18.114 4.556-26.328 7.523 12.854-10.47 38.041-13.94 53.865-10.88m6.18 5.11c-11.313 2.368-22.709 4.687-34.101 6.649-10.529 1.814-21.312 3.65-30.78 8.801 3.067-8.586 21.693-10.579 29.351-12.158 6.671-1.375 13.37-2.579 20.083-3.732 4.911-0.85 11.143-2.84 15.447 0.44m9.27 2.69c-24.596 4.092-49.791 4.218-73.344 13.165 11.116-6.037 24.041-7.399 36.325-9.797 6.031-1.177 12.05-2.509 18.108-3.532 7.359-1.25 11.731-1.09 18.911 0.16m-19.212 12.76c-19.248 5.697-35.832 7.144-55.611 3.493 6.311-2.404 14.728-1.687 21.576-2.464 10.305-1.171 20.453-2.595 30.69-4.262 7.584-1.235 16.109-3.383 22.958-6.977 6.924-3.634 14.534-5.641 21.76-9.137-13.28 7.9-27.01 13.71-41.372 19.35m-25.388 7.25c-0.608 0.534-0.822 1.382-1.88 1.748 0.258 0.193 0.542 0.184 0.806 0.401-2.561 3.702-6.348 6.51-10.209 8.733 1.413-2.685 3.327-5.51 3.9-8.523 0.658-3.45 4.283-2.08 7.383-2.36m-49.298-21.36c-0.688 3.512-1.597 6.97-2.284 10.479 0.31-4.979 0.971-9.794 2.15-14.644 0.495 1.29 0.521 2.73 0.134 4.16m36-38.02c0.736 7.736 1.287 17.947-4.97 23.779 0-6.48 0.696-15.103-1.478-21.227 1.396-0.515 3.118-0.499 4.433-0.402-0.184-0.316-0.452-0.409-0.672-0.672 0.856-0.47 1.721-1.18 2.687-1.48m-7.388 3.36c0.572 10.304-0.74 22.559-3.627 32.514 0-11.172-1.225-22.203-2.283-33.318 2.006-0.07 4.005 0.17 5.91 0.81m-12.895-8.06c3.568-2.28 3.459 0.524 3.694 3.56 0.259 3.335 2.135 3.442 2.538 6.664 1.214 9.705 2.129 19.22 1.962 29.004-3.72-7.353-2.508-18.279-5.188-26.316-1.67-5.01-3.094-10.07-4.871-15.046-1.686-4.721-3.739-5.572 0.522-9.017-0.064 3.69-0.217 7.77 1.343 11.17m-1.075 3.22c4.448 13.645 7.954 27.24 5.104 41.514-0.542-10.326-2.263-19.669-5.373-29.556-1.457-4.63-2.844-9.455-4.925-13.849-0.453-0.956-2.998-4.824-2.732-5.767 0.179-0.635 3.002-2.26 3.627-2.822 2 3.24 3.056 6.94 4.299 10.49m-8.731-7.12c6.83 15.479 15.012 34.275 12.358 51.588-2.017-10.715-4.717-20.891-8.204-31.222-1.508-4.469-3.077-9.023-5.028-13.313-1.467-3.23-3.556-5.77 0.874-7.06m-4.164 2.29c7.171 17.457 15.82 36.413 14.641 55.753-3.875-19.378-13.403-36.138-18.805-54.946 1.418-0.12 2.802-0.39 4.164-0.8m-7.792 0.4c5.233 0.058 9.108 16.826 10.881 21.495 3.564 9.385 8.935 19.595 9.806 29.689-4.991-10.243-9.617-20.229-14.759-30.2-3.925-7.612-11.35-23.316-8.615-32.001 0.349 3.79 1.6 7.4 2.687 11.02m12.493 36.41c2.553 6.569 4.798 12.935 6.044 19.884-4.724-11.023-10.375-21.347-15.826-32.016-4.032-7.892-9.122-19.613-6.203-28.709 3.488 14.7 8.801 27.59 15.985 40.85m4.567 18.81c-7.034-14.542-17.54-26.056-23.104-41.514 2.02 4.924 2.614 0.39 2.418-2.284 5.934 15.1 14.235 28.91 20.686 43.79"/>
  <path id="path19" style="fill:#F07A00;clip-rule:evenodd;fill-rule:evenodd" d="m130.08 246.32c2.052 1.162 12.694 5.261 6.985 7.389-4.019 1.498-5.808-6.338-9.94-7.12-3.678-0.696-9.812-0.035-12.87 2.214-6.389 4.696 0.459 6.214 4.906 9.18 2.383 1.589 2.04-0.168 3.933 2.846 0.754 1.201 3.287 3.316 0.068 3.023-2.603-0.237-2.685-3.201-4.659-4.584-2.71-1.898-4.851-3.559-7.985-4.677-4.145-1.479-11.049 5.112-14.287 2.275-1.47-1.288 10.196-5.169 11.953-6.65-3.235-1.395-6.658-0.691-9.938-1.613-3.611-1.015-6.306-4.298-9.672-0.133 2.924 2.794 4.302 3.671 8.104 1.557 2.496-1.389 7.83 0.078 10.566 0.458v0.269c-6.795-0.13-14.055 3.065-19.611-1.746 2.911-3.639 4.205-4.374 8.598-5.911-2.929 3.705 2.747 3.236 5.374 3.761 3.639 0.728 7.22 0.957 10.916 0.767 3.257-0.167 5.893-2.022 8.447-3.938 2.42-1.83 6.53 1.39 9.1 2.63m1.88-223.55c-2.837 5.895 3.579 8.815 7.253 12.225-6.492-2.222-12.825-5.354-19.073-8.195v-0.269c2.721-1.27 5.224-2.606 7.789-4.164-0.853 1.592-1.213 8.322 2.418 6.18 0.38-0.226-3.39-8.594 1.61-5.777"/>
  <path id="path21" style="fill:#FF9C17;clip-rule:evenodd;fill-rule:evenodd" d="m130.88 249.01c0.969 2.586 2.17 3.377-0.311 4.937-2.813 1.768-4.571 3.604-6.807 6.079-0.755-2.922-12.874-5.308-11.822-8.732 0.343-1.115 7.762-3.729 8.865-3.896 2.52-0.39 7.71 0.04 10.08 1.61m-4.7-10.75c3.003-0.094 5.237-0.12 8.057 1.074-1.827 2.664-4.969-1.202-8.191-0.403 2.031-0.011 4.086 1.133 5.64 2.149-0.612 1.509-1.065 3.099-1.343 4.703-1.411-0.757-5.97-4.406-7.386-4.434-1.407-0.027-5.381 3.489-6.583 4.3 1.535-1.774 3.065-3.555 4.593-5.337 0.864-1.008 3.688-0.087 5.214-1.247-3.018-0.369-4.898-0.371-6.956 1.98-2.863 3.273-4.945 4.125-9.028 5.813 4.403-2.357 5.77-3.084 8.063-7.47 1.74-3.29 5.09-3.12 7.93-1.12"/>
  <path id="path23" style="fill:#A83800;clip-rule:evenodd;fill-rule:evenodd" d="m143.51 251.16c-1.464 0.072-2.481-0.149-3.895 0.537 0.82-1.53 2.48-1.6 3.89-0.54m-47.149-1.75c-2.532 1.659-5.298 1.369-6.582-1.611 2.303-1.08 5.334-0.8 6.582 1.61"/>
  <path id="path25" style="fill:#E0E3FF;clip-rule:evenodd;fill-rule:evenodd" d="m57.407 251.29c-2.096 6.985-4.96 12.299-11.473 15.983-3.899 2.207-8.392 3.633-12.035 6.05 5.194-4.12 11.092-7.636 14.238-13.704 1.1-2.122 2.107-4.684 2.523-7.04 0.48-2.72 4.228-1.56 6.747-1.29m-7.792-0.54c-2.576 10.125-12.598 24.565-24.313 25.123 5.858-4.251 11.293-8.375 15.448-14.375 2.945-4.25 2.965-12.19 8.865-10.75m-23.507-9.13c-3.504 11.277-7.519 20.602-8.462 32.646-4.829-9.542 0.141-29.968 5.239-38.827 1.102 2.04 2.177 4.1 3.223 6.18m-4.03-7.66c-3.417 10.936-6.665 20.941-7.119 32.512-1.481-13.335 0.252-25.103 3.09-38.154 1.332 1.89 2.793 3.69 4.029 5.64m61.792-120.37c-0.672-0.086-1.132-0.287-1.881 0 1.188-0.69 1.401-0.744 2.955-0.672-0.314 0.23-0.793 0.4-1.074 0.67m-0.808 0.94c-0.812 0.632-0.649 1.539-2.015 1.613 0.388 0.154 0.81 0.338 1.21 0.403-0.642 0.604-1.534 1.095-2.687 1.344 0.225-1.86 1.634-3.04 3.492-3.35m-4.163-2.02c-1.056 0.343-2.285 0.382-3.358 0.269 0.968-1.08 1.942-0.8 3.358-0.27m-62.328 26.2c-1.522 3.083-3.613 5.831-4.97 9.001 0.705-3.12 2.899-6.59 4.97-9m32.239-8.06c-6.058 5.224-11.616 11.052-16.521 17.331 4.947-7.422 10.73-12.917 17.73-18.405-0.119 0.84-0.571 0.6-1.209 1.07m4.567-5.37c-2.408 4.411-7.983 6.928-11.555 10.425-5.612 5.496-9.638 11.338-13.43 18.19 0.315-6.48 0.387-17.331 6.447-21.293 3.002-1.964 6.154-3.882 8.966-6.109 3.527-2.79 5.32-1.35 9.572-1.21m-1.746 27.14c-0.321 14.12-5.014 28.231-19.343 33.317-2.614-9.218 1.59-13.307 6.313-20.557 1.428-2.192 3.538-8.838 5.843-9.604 2.502-0.84 4.806-2.34 7.187-3.16m56.149 17.32c-1.819 2.142-3.675 3.502-6.581 3.359 1.54-2.83 3.86-2.51 6.58-3.36m-7.792 7.93c-1.383-0.042-2.438-0.513-3.895-0.135 1.867-2.053 4.09-3.736 6.984-3.627-0.84 1.39-1.95 2.6-3.092 3.76m-0.806 0.67c-0.826 4.552-5.081 2.955-8.73 2.955 2.658-1.93 5.365-3.26 8.73-2.96m-12.089-58.44c-0.262 4.401-4.853 9.007-8.866 10.345 2.834-3.618 5.707-7.428 6.85-11.958 0.943 0.27 1.506 0.81 2.016 1.62m-2.955-2.42c-1.207 5.089-3.148 9.01-7.253 12.36-0.046-4.2 1.872-13.45 7.253-12.36m-10.88 17.47c-3.409 3.489-7.488 5.235-11.418 7.523 0.669-0.018 1.117-0.02 1.881-0.134-5.587 1.449-10.672 3.755-16.925 2.418 9.894-7.377 20.284-14.006 30.09-21.495-1.806 4 0.382 8.79-3.628 11.69m5.237-19.35c1.512 3.797-7.162 6.454-8.193 3.896-1.551-3.847 5.66-5.646 7.791-6.045-0.619 1.21 0.327 1.48 0.402 2.14m-5.775-2.01c-2.179 1.35-2.801 3.588-3.885 5.757-0.91 1.819-5.257 2.831-7.066 3.454-4.689 1.616-9.365 2.414-14.168 0.864 5.371-4.35 17.888-11.04 25.119-10.07m4.566 8.33c-9.701 7.801-21.41 13.531-30.625 21.763 0.416-5.766 3.418-17.496 10.142-18.74 3.977-0.736 7.54-2.476 11.25-4.022 2.996-1.249 6.524 0.503 9.907-1.285-0.115 0.76-0.302 1.59-0.674 2.28m-31.969 22.84c4.433 1.73 8.888 1.074 13.432 0.27-4.358 4.032-8.402 7.377-14.061 9.415-3.048 1.097-12.155 5.153-15.087 2.407-4.216-3.948 15.826-22.46 19.343-25.391-2.055 4.22-2.969 8.67-3.627 13.3m35.73-31.98c0.216 0.507 0.137 0.977 0.538 1.479-0.882 0.445-1.963 0.757-2.955 0.671 0.197-1.51 1.073-1.79 2.417-2.15m-6.178-1.48c-0.651 0.913-0.686 1.593-2.014 1.478 0.225-1.99 0.821-1.67 2.014-1.48m-1.747-1.48c-1.511 0.43-3.105 0.572-4.566 0 1.434-0.86 3.132-0.86 4.566 0m-10.88-8.06c-2.209 1.304-7.873 1.209-10.478 1.209-4.114 0-8.215-0.806-12.358-0.806 7.03-3.971 15.571-3.801 22.836-0.4m9.805 6.86c-3.678-0.134-9.481-1.3-11.82-4.702 3.808-2.89 9.518 1.36 11.82 4.7m-12.625-5.51c-0.255 3.385 5.967 4.389 8.461 5.777-4.39 4.232-12.865-0.054-17.327-2.284 1.787-2.58 5.826-3.73 8.866-3.5m-8.06 1.34c-3.377 2.066 0.171 2.93-4.88 3.352-5.47 0.457-10.473 2.311-15.538 4.307 5.142-4.48 13.291-8.56 20.418-7.66m5.238 5.51c-0.812 0.809-0.948 1.581-2.014 2.15 3.208 2.413 9.254 1.245 12.895-0.538-3.649 0.797-7.317 1.732-11.015 0.672 1.013-3.762 12.103-0.441 15.851-1.344-1.685 2.925-9.208 3.926-12.357 5.105-4.372 1.636-9.133 3.917-12.896 6.718 0.432-4.376 3.052-8.527 6.985-10.345-2.595-0.602-6.287 1.483-9.1 1.64-4.821 0.269-9.241 0.094-14.004-0.7 8.18-3.84 16.955-6.93 25.655-3.36m-17.596 5.24c-9.571 6.126-17.076 12.777-24.045 21.764 0-7.797 2.918-12.723 8.329-18.271 5.415-5.55 8.444-4.13 15.716-3.49m10.88-1.21c-2.153 3-2.519 6.957-4.299 9.673-1.984 3.028-7.841 5.828-10.864 7.799-4.786 3.121-12.964 7.573-18.822 5.903 4.52-6.296 9.414-12.052 15.917-16.389 6.001-3.99 11.3-5.19 18.068-6.98m-18.403 20.42c-6.076 11.629-14.418 24.521-24.85 32.78 0.249-7.27 3.071-15.052 6.582-21.36 2.455-4.411 3.76-6.052 8.329-7.389 3.479-1.02 6.726-2.35 9.939-4.03m-17.462 3.36c2.317 1.372-3.264 9.496-4.298 12.226-1.938 5.119-3.446 10.498-4.567 15.853-2.028-13.068 1.707-23.584 8.865-34.527-0.482 2.12-0.506 4.33 0 6.45m-11.418 31.17c-0.183 8.791-0.494 17.202 0.806 25.928-2.694-11.928-2.072-22.608-0.403-34.66 0.797 2.94-0.082 5.79-0.403 8.73m3.493 0c0.328-0.367 0.515-0.677 0.94-0.94-0.179 10.263-1.72 20.173-1.344 30.496-3.934-10.453-2.832-22.557-2.015-33.452 0.209 1.73 0.792 3.32 2.419 3.89m21.491-19.89c-6.786 11.376-13.084 21.875-16.791 34.662-1.387-4.022-2.154-7.978-2.552-12.226-0.485-5.184 1.831-6.463 5.314-10.052 5.751-5.926 10.813-12.354 14.969-19.505-0.318 2.39-0.523 4.77-0.94 7.13m0.941 8.6c4.574 0.492 8.871 0.21 13.298-1.074-5.294 11.836-15.761 29.092-30.089 28.749 2.977-12.461 8.371-22.298 15.447-32.913 0.125 1.98-0.278 3.91 1.344 5.23m33.716 21.5c0.478 6.83-2.53 13.146-7.253 18.944-0.084-1.833-0.975-4.155-0.806-5.912 0.266-2.774 0.779-2.803 2.502-5.264 1.459-2.09 3.172-8.97 5.557-7.77m26.328-51.46c-2.406 3.981-7.347 5.604-10.897 8.376-3.619 2.825-7.346 5.723-10.023 9.509-2.307 3.263-12.476 16.713-2.99 15.701-5.335 4.183-5.952 9.294-5.641 15.181 0.333 6.296-2.881 11.065-8.165 14.783-2.533 1.781-5.192 1.742-8.089 1.742-3.273 0-4.652 0.702-6.045-1.882-3.53-6.544 5.806-9.637 8.508-14.215 3.333-5.647 5.877-11.245 6.513-17.884 0.426-4.443-0.273-6.618 3.416-9.077 2.273-1.515 3.715-4.164 6.011-5.71 5.086-3.425 9.925-5.736 14.105-10.546 4.1-4.718 9.874-5.686 12.761-12.024 1.014 1.9 0.978 3.98 0.536 6.05m5.911 39.5c1.154 2.667 4.419 3.385 7.119 3.494-2.173 5.293-12.235 10.688-17.552 12.105-4.584 1.223-15.792 2.511-19.657-1.493-2.406-2.492 0.861-1.78 3.492-2.419 3.669-0.891 7.77-2.928 11.016-4.836 6.874-4.042 13.382-9.249 19.344-14.508-1.276 2.56-2.583 5.08-3.762 7.67m10.079-16.39c-5.966 7.847-13.633 14.4-21.896 19.749-4.667 3.021-21.567 13.355-23.238 3.224-1.799-10.912 10.178-13.223 17.731-14.913 9.283-2.08 18.391-4.99 27.403-8.06m2.68-27.14c-2.338 1.979-16.893 14.056-9.268 14.645-1.17 0.339-1.944 0.988-2.955 1.478 1.908-0.448 3.81-0.96 5.775-1.075-7.47 2.847-14.577 6.459-21.895 9.672 0.236-0.308 0.506-0.521 0.807-0.806-6.672 2.98-12.255 7.992-18.135 12.226 5.358-19.46 27.438-33.37 45.673-36.13m14.11 14.38c-4.268 3.807-6.104 6.954-11.505 9.281-5.979 2.577-12.186 4.563-18.368 6.59-8.337 2.732-20.086 7.12-28.829 6.296 10.205-7.266 20.695-12.882 32.093-18.049 8.854-4.02 17.534-2.08 26.614-4.12m-5.11 10.75c0.957 0.191 2.006 0.894 2.955 1.209-6.734 6.255-14.717 14.42-23.641 17.33 1.995-4.05 13.551-27.52 20.681-18.54m14.1 1.61c0.528 0.103 0.634 0.466 1.211 0.134-6.346 8.987-22.334 23.018-34.256 18.138 5.551-3.619 10.736-7.48 15.81-11.747 2.634-2.214 5.396-4.225 8.163-6.271 1.28-0.94 7.07 0.21 9.08-0.25m-6.17-21.36c5.27 2.45 13.612-0.449 18.401-2.82-8.577 10.63-23.375 12.091-36.268 12.091-0.518-1.339-7.757-0.877-10.074-1.344 4.11-6.353 8.746-10.788 15.495-14.258 6.524-3.354 12.801-4.208 19.834-6.163-3.59 3.64-6.59 7.28-7.38 12.49m14.37 2.95c-6.922 6.694 15.597 6.254 18.94 5.911-6.547 4.802-13.055 8.766-21.049 10.691-6.595 1.589-15.781 3.303-21.398-1.555 0.716-0.477 1.073-1.261 2.015-1.613-3.32-5.62 18.17-11.7 21.5-13.44m15.99 14.11c-6.573 7.316-17.096 10.882-26.6 12.092 1.503-2.415 3.191-4.693 4.657-7.136 0.901-1.502 2.789-0.858 4.189-1.389 6.399-2.423 12.381-5.338 18.424-8.537-1.3 1.72-2.65 3.38-0.67 4.98m14.37-6.45c-0.422 2.818-13.812 9.086-14.372 4.702-0.281-2.201 5.016-6.838 6.581-7.524 3.136-1.375 7.408-0.782 10.88-1.478-0.95 1.49-2.01 2.91-3.09 4.3m9.4-26.33c-9.199-1.501-18.002-0.585-27.268-0.403 5.648 2.051 12.489 0.517 18.403 2.552 7.396 2.545 15.07 6.226 16.655 14.645-7.237-2.793-13.376-8.426-19.745-12.629 3.046 3.722 24.136 14.671 17.062 20.286 0.719-6.287-2.913-1.07-6.026 0.294-2.103 0.921-4.881 1.663-6.872 1.318 1.737-3.015 5.074-4.77 6.583-7.657-0.134 0.044-0.179 0-0.134-0.134-1.595 1.151-9.666 6.02-11.417 3.896-1.064-1.291 2.371-5.69 2.687-6.986-2.053 1.869-2.727 4.607-4.689 6.568-1.808 1.806-6.041 2.074-8.543 2.365-3.722 0.434-11.863 1.217-14.978-1.275-3.316-2.653-0.307-3.938 2.083-7.67 2.299-3.59 5.787-5.937 8.663-8.854-3.293-0.228-7.891 3.226-11.956 3.359 0.75-17.19 30.02-20.61 39.51-9.68m-36.27-0.81c-1.589 2.743-3.592 5.521-4.17 8.693-0.778 4.276 4.316 2.544 7.26 1.786-4.8 5.709-12.966 5.588-19.746 5.911 1.57-8.95 8.48-13.82 16.66-16.39"/>
  <metadata>
    <rdf:RDF>
      <cc:Work>
        <dc:format>image/svg+xml</dc:format>
        <dc:type rdf:resource="http://purl.org/dc/dcmitype/StillImage"/>
        <cc:license rdf:resource="http://creativecommons.org/licenses/publicdomain/"/>
        <dc:publisher>
          <cc:Agent rdf:about="http://openclipart.org/">
            <dc:title>Openclipart</dc:title>
          </cc:Agent>
        </dc:publisher>
        <dc:title>Architetto -- Cigno di spalle</dc:title>
        <dc:date>2009-04-30T07:51:42</dc:date>
        <dc:description>A white swan by Francesco 'Architetto' Rollandin.</dc:description>
        <dc:source>https://openclipart.org/detail/25510/architetto----cigno-di-spalle-by-anonymous-25510</dc:source>
        <dc:creator>
          <cc:Agent>
            <dc:title>Anonymous</dc:title>
          </cc:Agent>
        </dc:creator>
        <dc:subject>
          <rdf:Bag>
            <rdf:li>animal</rdf:li>
            <rdf:li>bird</rdf:li>
            <rdf:li>swan</rdf:li>
          </rdf:Bag>
        </dc:subject>
      </cc:Work>
      <cc:License rdf:about="http://creativecommons.org/licenses/publicdomain/">
        <cc:permits rdf:resource="http://creativecommons.org/ns#Reproduction"/>
        <cc:permits rdf:resource="http://creativecommons.org/ns#Distribution"/>
        <cc:permits rdf:resource="http://creativecommons.org/ns#DerivativeWorks"/>
      </cc:License>
    </rdf:RDF>
  </metadata>
</svg>