<?xml version="1.0" encoding="UTF-8"?>
<svg width="468.08" height="323.46" enable-background="new 0 0 468.077 323.458" viewBox="0 0 468.077 323.458" xmlns="http://www.w3.org/2000/svg">
 <g fill-rule="evenodd">
  <path d="m0,257.82c-1.096,11.276 33.048,27.724 54.038,22.396 28.662-7.202 18.325,13.473 45.578,4.074 17.699-5.951 12.06,16.604 55.759,4.385 34.614-9.708 44.326-2.816 53.724,2.822 9.24,5.795-30.074,20.045-12.843,28.032 17.228,7.835 70.635,3.446 90.686-7.987 .939-.467 39.938-8.454 82.074-9.24 41.035-.782 85.206,5.638 85.83,5.171 .783-.472 1.568-.787 2.192-1.254 .472-.158-45.733-8.302-87.398-8.146-39,.157-73.771,8.459-73.457,8.303 11.276-6.267 12.373-6.735 12.373-10.18 0-4.391 17.071-2.508 26.47-3.294 9.241-.625 7.518-6.734 13.94-6.734s18.168-2.506 12.529-12.53c-5.796-10.022-116.06-43.693-138.15-45.104-22.083-1.41-150.36-9.398-177.46-2.979-27.242,6.57-45.097,24.43-45.88,32.26z" fill="#848671"/>
  <path d="m65,205.04s1.723,7.678-4.071,14.098c-5.953,6.42-13.627,13.158-19.892,13.94-6.266.939-17.073,8.456-12.687,14.093 .313,5.481.627,7.988 2.506,9.557 .156-3.917 1.253-5.796 1.253-5.796s1.252,3.131 1.096,5.014c-.157,1.721.469,8.298 8.614,9.241 8.301.938 13.783.938 13.783.938s-3.602-2.664-8.301-3.135c-4.699-.311-7.519-6.263-7.048-8.928 1.566,2.979 7.048,5.64 10.964,3.289s8.614-1.097 8.614-1.097-2.975-2.816-7.361-1.878c-4.229,1.097-5.638-4.699-9.084-5.323-2.35-.314-2.507-2.664-2.507-2.664s2.977.314 4.855,2.35c-.939-3.131-5.638-3.917-3.915-7.205 1.567-3.133 2.036-3.441 2.663-4.854 .469-1.41 5.638-2.663 11.12-6.892 5.326-4.384 10.964-8.773 14.253-16.446-1.878-3.28-4.855-8.29-4.855-8.29z" fill="#b88638" stroke="#000" stroke-linecap="round" stroke-linejoin="round" stroke-miterlimit="2.4142" stroke-width=".216"/>
  <path d="m68.603,215.53s-4.072,7.207-13,13.784c-9.555,6.891-10.337,5.17-11.59,7.678 .939-1.883 3.603-3.294 6.421-5.015s13.94-10.337 17.073-18.481c.627.93 1.096,2.03 1.096,2.03z" fill="#37290e"/>
  <path d="m66.411,144.74c-1.097,3.601-1.723,8.146-2.35,14.253-1.722,16.761-2.976,40.252 0,47.144 3.603,8.303 4.385,11.434 7.205,12.845-2.663,2.663-5.326,5.637-7.362,8.773-1.879,3.288-6.265,5.323-8.928,6.105-2.663.786-5.325.628-5.011,6.577 .313,6.109 5.638,5.638 8.457,6.892s6.892,4.856 28.037,6.733c21.145,2.035 37.277,2.035 38.061,3.604 2.976,4.698 7.519,1.726 8.928,7.206 .47,2.193 1.723,8.769 14.566,8.455 5.013-.311 11.747-8.298 18.638-9.24 7.049-.782 10.496-1.564 10.496-1.564s2.349-2.664 2.349-5.014-1.879-5.795-4.541-7.206c6.421.157 22.71,0 32.264-1.563 9.398-1.568 15.508-1.41 18.169.467 2.662,2.04 3.603,1.097 4.385,3.136 1.097,1.879 0,5.01 3.604,7.36-1.254.938-2.193,2.506-2.82,4.385-.469,2.038-4.854,5.327-7.675,6.895-2.817,1.407-2.817,6.578 2.193,7.988s7.989,3.288 12.062,1.406c4.385-1.721 5.638,1.097 9.396,2.821 3.761,1.567 10.338,3.913 26.94.624 8.929-1.721 24.436-.311 39.314,1.726 7.519,1.097 20.829,5.481 25.528,1.721 1.882-1.406 4.075-4.385 4.075-4.385s4.385-1.879 6.734-1.254c2.349.787 7.988,2.192 11.275-1.563 4.073-4.856 5.953-14.097 1.411-17.229-4.385-2.979-24.592-15.979-31.17-25.688-1.096-1.721-1.096-4.853-2.192-5.795-.938-.782 2.351-2.975 2.819-6.105 .313-2.979 7.677-7.678 13-24.435 5.481-16.915 10.337-26.156 8.302-51.846-.157-1.408-.314-2.975-.314-4.228h-47.926c-.785.939-2.351,1.253-2.664,5.324-.313,5.326-.94,4.387-1.724,3.917-.938-.47-3.288,1.877-3.445,3.131s-1.566,0-2.348,1.723c-.629,1.879-1.567-1.408-6.267.157-4.543,1.722-6.735-2.507-8.458-3.758-1.565-1.253-6.107-4.073-8.929-10.339v-.155h-204.06z" fill="#b88638"/>
  <path d="m270.5,144.74c-4.228-9.868-7.048-22.243-9.241-26.94-3.915-7.833-9.553-13-15.975-17.23-6.42-4.385-15.035-19.421-18.795-28.82-4.23-8.3-5.012-18.325-22.085-21.614-16.916-3.289-25.06,5.953-28.193,11.277-3.288,5.483-9.397,16.604-16.132,16.289s-10.338-1.565-11.434-6.421c-1.096-4.854-2.819-15.818-17.072-16.603-14.097-.784-17.543,12.375-19.893,21.616-3.446,13.626-8.614,19.734-10.963,25.374-2.663,5.793-16.133,17.229-24.747,26.939-5.482,6.108-7.988,9.868-9.554,16.133h204.07z" fill="#b88638"/>
  <path d="m412.56,73.313c1.879-1.88.782-3.445.625-4.542s1.567-.314 2.037-1.568 1.566-1.096 1.254-2.035c-.158-.938 1.565-1.565 1.096-2.192-.627-.784.155-1.096.155-2.038 .157-.939 0-2.192-1.251-3.916-1.254-1.88-2.976-4.856-2.195-5.795 .786-.939 2.508-5.169-.155-10.023-2.661-4.856-11.433-5.64-14.566-7.206-10.18-5.012-17.698-1.566-26.784-10.65-6.892-6.892-14.25-6.892-16.287-6.58-2.038.47-5.796,1.097-6.736-1.722-1.097-2.82-5.639-4.699-5.639-4.699s.94,2.506-.625,2.976c-2.976-2.662-5.953-2.507-8.302-2.976-2.351-.627 0,.938.156,2.037-1.253-.941-2.663-.941-5.951-.472 .625.472 0,1.568-1.879.472 .938,1.096 0,1.566-1.254,2.347-4.541-10.337-8.458-7.831-12.843-12.685-4.229-4.543-4.073-.471-2.664,2.82 2.349,5.011.313,10.964 4.856,17.071 2.192,2.819-.627,3.446-4.856,5.326-4.071,1.723 0,2.819-3.289,4.542-3.446,1.565-3.603,2.977-1.254,2.662-2.349,1.723-3.758,5.326-5.951,9.084s-.313,2.194 1.252,1.411c-2.192,2.976-3.758,7.361-2.816,6.422 .782-.941 2.034-1.565 2.034-1.565s-.156.939-3.917,5.323c-3.758,4.542 1.1.315 1.883,1.097-3.445,2.821-4.857,9.712-4.857,9.712 1.254-1.41 2.508-1.41 1.254,1.096-1.254,2.35-1.879,6.108-1.096,5.795 .782-.157 2.192-2.976 1.409.313-.155,0-.155.157-.155.157h62.647c2.037-2.349 3.918-.941 4.699-.784 1.097.314 2.192.627 3.134.784h5.169c1.723-.47 2.977-1.568 4.386-2.819 3.133-2.977 9.867-4.699 13.314-3.917 3.446.941 6.42,4.544 10.338,4.544 3.913.155 4.696.625 6.105,2.036 .156,0 .156.157.314.157h7.21z" fill="#b88638"/>
  <path d="m295.24,73.313c-.787,3.288-2.195,7.673-1.097,6.892 1.252-.941-1.882,5.951 0,4.542s2.192-1.253 2.192-1.253c.781,2.976 2.035,4.856 2.035,5.012 .314,2.664 4.228,13.627 4.541,15.036 .315,1.411-.938,2.664-.313,5.796 .629,2.976 1.882,5.013 1.41,5.795-.938,1.723-1.097,3.134-.47,4.23 2.038,3.446-.627,2.819.941,5.326 2.505,3.915-2.193,8.77 1.409,11.903 1.723,1.565-.627,3.289-.941,6.892 0,.627-.313.939-.624,1.253h47.926c-.782-12.375 0-21.146.157-28.507 0,0 .939,3.603 1.567,2.193 .468-1.409-.313-4.385-.156-8.458 1.408,1.88 1.565,3.761 2.035.47 .627-3.132-1.724-7.674-1.254-9.242 .315-1.565 2.35,2.195 2.35,2.195s1.254-2.037-.313-4.387c-1.565-2.35.627-2.035-.626-4.854-.784-1.567-.939-3.603-.627-4.543 .627-2.036-2.037-2.974-1.096-4.542 .312-.627-.158-1.723.312-3.758 .939,1.409 2.35,1.565 1.567.313-.94-1.096-.472-4.385-.156-5.169 .626-1.409 1.253-2.35 1.877-3.131h-62.65z" fill="#b88638"/>
  <path d="m365.72,73.313c2.35.469 3.915.469 5.169,0h-5.17z" fill="#b88638"/>
  <path d="m405.35,73.313c1.567,1.409 4.229,2.662 6.577.626l.628-.626h-7.21z" fill="#b88638"/>
  <path d="m352.41,116.23s.939,3.603 1.567,2.193c.468-1.409-.313-4.385-.156-8.458 1.408,1.88 1.565,3.761 2.035.47 .627-3.132-1.724-7.674-1.254-9.242 .315-1.565 2.35,2.195 2.35,2.195s1.254-2.037-.313-4.387c-1.565-2.35.627-2.035-.626-4.854-.784-1.567-.939-3.603-.627-4.543 .627-2.036-2.037-2.974-1.096-4.542 .312-.627-.158-1.723.312-3.758 .939,1.409 2.35,1.565 1.567.313-.94-1.096-.472-4.385-.156-5.169 2.818-6.422 5.638-4.228 6.576-3.915 7.676,2.35 9.714.784 12.688-2.036 3.133-2.977 9.867-4.699 13.314-3.917 3.446.941 6.42,4.544 10.338,4.544 3.913.155 4.696.625 6.105,2.036 1.568,1.253 4.387,2.819 6.892.783 2.664-2.194 1.41-4.072 1.253-5.168s1.567-.314 2.037-1.568 1.566-1.096 1.254-2.035c-.158-.938 1.565-1.565 1.096-2.192-.627-.784.155-1.096.155-2.038 .157-.939 0-2.192-1.251-3.916-1.254-1.88-2.976-4.856-2.195-5.795 .786-.939 2.508-5.169-.155-10.023-2.661-4.856-11.433-5.64-14.566-7.206-10.18-5.012-17.698-1.566-26.784-10.65-6.892-6.892-14.25-6.892-16.287-6.58-2.038.47-5.796,1.097-6.736-1.722-1.097-2.82-5.639-4.699-5.639-4.699s.94,2.506-.625,2.976c-2.976-2.662-5.953-2.507-8.302-2.976-2.351-.627 0,.938.156,2.037-1.253-.941-2.663-.941-5.951-.472 .625.472 0,1.568-1.879.472 .938,1.096 0,1.566-1.254,2.347-4.541-10.337-8.458-7.831-12.843-12.685-4.229-4.543-4.073-.471-2.664,2.82 2.349,5.011.313,10.964 4.856,17.071 2.192,2.819-.627,3.446-4.856,5.326-4.071,1.723 0,2.819-3.289,4.542-3.446,1.565-3.603,2.977-1.254,2.662-2.349,1.723-3.758,5.326-5.951,9.084s-.313,2.194 1.252,1.411c-2.192,2.976-3.758,7.361-2.816,6.422 .782-.941 2.034-1.565 2.034-1.565s-.156.939-3.917,5.323c-3.758,4.542 1.1.315 1.883,1.097-3.445,2.821-4.857,9.712-4.857,9.712 1.254-1.41 2.508-1.41 1.254,1.096-1.254,2.35-1.879,6.108-1.096,5.795 .782-.157 2.192-2.976 1.409.313-.942,3.288-2.351,7.83-1.252,7.048 1.252-.941-1.882,5.951 0,4.542s2.192-1.253 2.192-1.253c.781,2.976 2.035,4.856 2.035,5.012 .314,2.664 4.228,13.627 4.541,15.036 .315,1.411-.938,2.664-.313,5.796 .629,2.976 1.882,5.013 1.41,5.795-.938,1.723-1.097,3.134-.47,4.23 2.038,3.446-.627,2.819.941,5.326 2.505,3.915-2.193,8.77 1.409,11.903 1.723,1.565-.627,3.289-.941,6.892-.155,2.192-2.975,1.253-3.288,6.578s-.94,4.387-1.724,3.917c-.938-.47-3.288,1.877-3.445,3.131s-1.566,0-2.348,1.723c-.629,1.879-1.567-1.408-6.267.157-4.543,1.722-6.735-2.507-8.458-3.758-1.565-1.253-6.107-4.073-8.929-10.339-4.228-9.711-7.048-22.398-9.241-27.095-3.915-7.833-9.553-13-15.975-17.23-6.42-4.385-15.035-19.421-18.795-28.82-4.23-8.3-5.012-18.325-22.085-21.614-16.916-3.289-25.06,5.953-28.193,11.277-3.288,5.483-9.397,16.604-16.132,16.289s-10.338-1.565-11.434-6.421c-1.096-4.854-2.819-15.818-17.072-16.603-14.097-.784-17.543,12.375-19.893,21.616-3.446,13.626-8.614,19.734-10.963,25.374-2.663,5.793-16.133,17.229-24.747,26.939-8.615,9.553-10.024,13.626-11.904,30.386-1.722,16.761-2.976,40.252 0,47.144 3.603,8.303 4.385,11.434 7.205,12.845-2.663,2.663-5.326,5.637-7.362,8.773-1.879,3.288-6.265,5.323-8.928,6.105-2.663.786-5.325.628-5.011,6.577 .313,6.109 5.638,5.638 8.457,6.892s6.892,4.856 28.037,6.733c21.145,2.035 37.277,2.035 38.061,3.604 2.976,4.698 7.519,1.726 8.928,7.206 .47,2.193 1.723,8.769 14.566,8.455 5.013-.311 11.747-8.298 18.638-9.24 7.049-.782 10.496-1.564 10.496-1.564s2.349-2.664 2.349-5.014-1.879-5.795-4.541-7.206c6.421.157 22.71,0 32.264-1.563 9.398-1.568 15.508-1.41 18.169.467 2.662,2.04 3.603,1.097 4.385,3.136 1.097,1.879 0,5.01 3.604,7.36-1.254.938-2.193,2.506-2.82,4.385-.469,2.038-4.854,5.327-7.675,6.895-2.817,1.407-2.817,6.578 2.193,7.988s7.989,3.288 12.062,1.406c4.385-1.721 5.638,1.097 9.396,2.821 3.761,1.567 10.338,3.913 26.94.624 8.929-1.721 24.436-.311 39.314,1.726 7.519,1.097 20.829,5.481 25.528,1.721 1.882-1.406 4.075-4.385 4.075-4.385s4.385-1.879 6.734-1.254c2.349.787 7.988,2.192 11.275-1.563 4.073-4.856 5.953-14.097 1.411-17.229-4.385-2.979-24.592-15.979-31.17-25.688-1.096-1.721-1.096-4.853-2.192-5.795-.938-.782 2.351-2.975 2.819-6.105 .313-2.979 7.677-7.678 13-24.435 5.481-16.915 10.337-26.156 8.302-51.846-1.23-14.75-.3-24.62-.14-32.76z" fill="none" stroke="#000" stroke-linecap="round" stroke-linejoin="round" stroke-miterlimit="2.4142" stroke-width=".216"/>
  <path d="m115.28,224.77s-1.096-14.723-8.615-23.024c-7.519-8.146-5.013-20.989-5.326-26.47-.313-5.324 5.013-18.481 3.603-11.119-1.409,7.516 0,8.612 2.192,5.481 2.037-3.289 7.832-9.24 5.64-1.878-2.194,7.517-3.29,29.445 1.41,25.217 4.698-4.385 2.192,11.9 6.892,7.516 6.107-5.795.313,6.734 8.144,9.556 7.989,2.817 6.266,11.119 22.242,15.036 18.951,4.699 5.482,9.084 10.963,9.557 5.326.31 9.242,3.131 9.085,5.791-.157,2.82 3.289,4.699 8.302,4.228 4.854-.625 11.276,3.76 18.638.628 7.205-2.979 9.554-3.917 9.241-6.733-.471-2.817 1.096-1.879 2.35-1.097 1.252.63-.627-3.761-4.073-5.638-3.603-1.726-6.735-7.049-2.192-4.228 4.543,2.974 6.579,3.602 3.916-3.918s-7.988-8.146-7.988-17.386 1.723-13.312 1.565-6.892c-.155,6.577 2.35,13.315 5.326,14.569s2.507,2.659 2.662,6.105c.157,3.445 2.193,11.433 6.109,13.473 5.326,2.817 2.036,3.131 4.072,5.167 2.19,2.035 8.458,8.454 9.867,12.058-2.819-1.253-4.229-3.917-11.591-3.917s-18.324,3.917-43.855,2.82c-2.036-2.349-4.229-2.192-7.048-2.507-3.29-2.349-6.892-3.131-14.253-2.349-1.723.156-4.542.938-7.832.156-7.048-1.41-16.29,0-21.145.63-8.458,1.405-21.614-2.979-21.301-2.979 10.51-.16 14.12-12.69 13.02-17.86z" fill="#815e20"/>
  <path d="m333.93,173.71c.314,1.882 0,3.603-1.565,2.664-1.88-1.096.155,3.131 1.251,5.639 1.099,2.35-1.096,4.542-1.563,9.869-.315,5.481-1.412,7.988-1.884,5.481-.624-2.507-1.25-3.288-2.034,3.917-.625,7.202-1.879-1.882-2.035,5.324-.314,7.205-3.289,4.856-3.289,8.459s-2.978,1.721-3.446,5.01c-.628,5.952-2.506-1.254-2.978,2.979-.625,4.384-3.289,4.07-4.542,4.852-1.254.943-1.721-4.07-1.721-4.07s0,4.542-1.881,5.639c-1.722,1.096-1.41,1.567-2.349,3.131-1.097,1.567-.785-2.507-2.037-3.756-1.254,6.892-3.289,5.796-2.817,2.975 .312-2.664-1.099-.782-3.133,3.131-1.881,3.913-4.699,2.04-4.074-.157 .471-2.192 0-2.974-1.252-1.097-1.254,1.726-2.192,2.04-1.41-1.252 .628-3.289-.625-6.106-1.097-9.395-.624-3.446-2.192-3.604-1.254-.787s0,2.04-.782,6.582c-.626,4.542-1.722,1.097-1.88-2.979-.313-4.228-4.542-9.556-4.542-9.556s1.096,3.136 2.192,7.678c1.099,4.699-.47,5.953-1.097,3.132-.783-2.975-3.6-8.612-5.638-10.338-1.879-1.567 1.097,2.664 2.35,6.734 1.251,4.075 4.542,10.966 7.988,12.845 7.518,2.502 12.061,10.337 16.917,12.53 4.854,2.192 8.144,6.262 12.529,8.297 4.542,1.883 17.386,9.398 16.915,9.241-.626-.152-4.543-5.481-6.108-6.42s-4.388-1.096-4.699-3.918c-.313-2.974-.469-3.912-2.034-3.598-1.254.311-2.039-.158-1.881-4.856s5.325-8.303 7.36-10.963 2.508-2.663 2.037-3.917c-.625-1.254-1.096-1.41.471-3.76 2.818-4.228-1.096-1.406 7.361-12.688 5.013-6.734 11.433-26.155 14.097-37.117 .47-1.882.782-3.76 1.096-5.485h-17.56z" fill="#815e20"/>
  <path d="m351.47,173.71c1.411-8.927.939-16.756.47-21.612-.47-5.953-.627-20.832-.627-26.313 0-1.723.939-5.168-.314-5.952-2.034-1.096-52.311-38.845-52.311-38.845s-1.725,5.641 2.661,16.447c-.156-5.011-1.41-5.638-.627-4.856 .94.784.94,4.072 7.674,7.518 10.025,5.169 15.665,13.784 16.762,14.255 1.096.624.313-2.664.313-2.664s2.504,3.76 5.168,5.638c6.267,4.542 2.351-.47 2.351-.47s5.168,5.638 7.674,6.11c2.349.469.471,1.409-.469,2.505s-1.252,7.048-2.506,6.265c-3.134-1.565-2.664-.313-.938,2.819 1.877,2.977.467,5.483.467,8.145 0,8.459 3.446,1.253 3.603,13.941 .157,5.638-4.855-.784-4.228.938 .47,1.88 2.035,5.641-.628,5.327-2.351-.157 1.566,4.699.314,9.241-.94,2.974-3.289-1.411-2.507.625 0,.314.156.628.156.939h17.57z" fill="#815e20"/>
  <path d="m302.14,148.65c0,.626-.158,1.253-.158,2.192 0,2.038 2.192,5.953.313,8.457-.471.472-.785-2.974-.785-4.542 0-1.565-.155-.939-.624-.155s.313,4.854.157,5.795-.785.782-1.099-1.253c-.469-1.88-.938-2.349-1.096-1.722-.155.469.157,1.565.157,3.6 .155,1.881-1.409,2.506-2.35,1.725-.627-.783-.941-3.759-.47-4.699s-.627-.157-.783.313c-.313.314-.627,2.349-.313,4.386 .313,2.349-2.506,2.349-2.82,1.253-.313-1.253.156-4.229.156-4.543 .158-.469-.624-.469-1.096,2.35-.314,2.818-2.662,6.264-4.072,5.953-1.565-.314 1.41-6.11 2.195-7.362s.467-1.41-.315-1.41c-.938.157-2.665,5.169-3.445,7.986-.627,2.664-1.881,1.253-2.978.629-1.096-.629 1.254-5.169 2.508-6.423 1.097-1.409 1.723-1.566.783-1.409-.94,0-3.133,3.29-4.698,5.639-1.568,2.502-2.507,8.927-2.977,8.77s-.157-4.228.784-6.11c.781-1.878 0-1.406-1.568-1.721-1.724-.157-.156-3.132 1.096-5.796 1.411-2.819 4.543-1.878 3.917-2.036-.628-.314-1.724-1.095-4.229,1.096-2.508,2.036-2.508,5.64-4.229,5.797-1.723.31-2.508-3.761.626-7.676 2.977-3.916 6.266-.312 4.699-2.036-1.408-1.88-5.169-.314-7.989,5.638-2.817,5.794 1.253,15.507 1.098,18.953-.156,3.604 1.096,7.674 1.409,12.059 .628,7.521.783.314 1.254-2.035 .625-2.35 3.603-.472 3.444,1.253-.312,1.879.473,6.268 1.411,7.363s-.314-4.074 0-6.267c.313-2.035 1.565-6.268 1.565-4.385 0,1.721-.312,5.009.627,6.734 .782,1.878.627-4.228.782-6.42 .313-2.197 2.35-7.206 2.35-5.952s.156,4.852 1.567,7.201c1.566,2.35 1.096-2.817.47-6.105-.784-3.289 4.072-13.001 4.23-12.377 .156.786.469,3.917 1.565,5.485 1.096,1.411.783-1.253.312-4.231-.625-2.817 2.192-4.227 2.664-2.192 .313,1.882 2.192,4.542 2.192,4.542s-.627-2.502-.782-4.542c-.156-1.878 2.661-3.446 2.975-1.096 .472,2.192 2.507,7.049 3.131,6.425 .472-.787-1.407-5.014-2.034-7.678-.47-2.817 1.879-4.699 2.349-2.974 .472,1.878 2.192,5.014 3.132,5.014 1.098,0-.939-3.136-1.878-5.485-.938-2.191 0-3.288 1.096-1.407s2.82,3.914 3.604,3.756c.624-.157-2.821-4.541-3.604-6.264-.938-2.035.627-5.325 1.568-4.072s2.659,4.384 3.601,4.072c.94-.469-1.252-3.133-2.819-5.48-1.253-1.723-.47-5.796 1.096-6.579h-3.287c-.158.312-.315.626-.627.312l-.313-.312h-1.097c.155.469.468.938.624,1.253 .94,1.723-.624,5.326-1.41,4.227-.782-.781-.938-4.072-1.096-5.48h-.47z" fill="#815e20"/>
  <path d="m310.75,148.65c.313.157.628.469.94.938 2.192,2.977 5.951,4.542 3.916,2.819-1.254-1.251-2.036-2.504-2.819-3.758h-2.04z" fill="#815e20"/>
  <path d="m302.6,148.65c0-.315 0-.47-.155-.627-.156-.469-.156-.157-.312.627h.47z" fill="#815e20"/>
  <path d="m305.58,148.65c-.473-.939-.629-2.977-.629-3.604s-.155-.312-.782.158c-.472.469-.313,2.035.314,3.446h1.1z" fill="#815e20"/>
  <path d="m312.79,148.65c-.47-.47-.941-1.096-1.409-1.88-1.882-2.035.782-4.542 1.564-3.915 .94.784 1.725,1.253 3.76,1.096s-2.975-2.192-5.48-4.699c-2.508-2.35-1.254-5.638-.94-6.735s1.409.158 4.386,1.724c3.132,1.722 2.35.312-2.038-2.507-1.407-.938-3.444-3.131-2.819-4.699 .782-1.565 5.639,3.446 5.797,2.665s-4.7-4.387-4.856-6.735c-.313-4.387 5.638,3.289 5.638,1.409-.155-1.723-2.193-2.507-4.07-4.854-2.036-2.349-1.726-5.483.47-3.917 1.88,1.253 5.795,4.699 4.072,1.724-1.724-2.975-3.445-2.975-4.542-5.324s.156-5.326 3.604-3.76c1.096.469 1.407-.158.781-.784-2.192-2.974-5.324-4.228-6.893-5.169-1.565-.782-5.951-3.758-6.892-4.07s1.254,2.505 4.073,4.697c2.818,2.35 2.505,6.579 1.566,5.168-.939-1.251-2.351-2.192-4.071-2.662-1.882-.626 0,1.097 1.878,3.134 1.724,1.878 2.193,1.723 2.82,5.95 .783,4.857-2.351,1.723-3.289.941s-2.351-.626 0,1.723c2.192,2.349 3.289,2.974 2.349,6.107-.156.627-3.134-3.134-2.976-2.036 0,1.251 2.976,3.446 3.289,4.697 .313,1.411-.47,1.723-2.193.157-.469-1.096-.627.314-.157,1.096 .315.784 1.254,1.566 1.568,4.229s-.157,4.854-1.253,3.758c-1.254-1.251-1.254-3.915-1.724-1.878-.627,2.036 2.035,3.132 2.035,4.697-.155.784 1.88,1.41 1.88,3.291-.156,1.878-2.191.47-2.507-.469-.47-1.098-.156,1.408.627,3.289 .627,1.409.313,3.758-.312,4.542h3.287c.315-.158.627-.158.94,0h2.03z" fill="#815e20"/>
  <path d="m63.122,196.89s3.915,10.027 4.699,13.315c.939,3.289 1.096,4.229 3.759,6.105 2.662,1.726 4.698,5.328 7.831,7.049 5.639,2.821 3.917,5.014 7.518,6.582 3.916,1.563 1.254,1.721-1.096.624-2.505-.938-6.109-5.323-7.047-5.323s.938,3.756 2.505,5.323c1.566,1.725-.626,2.351-2.976-2.35-2.506-4.856-4.072-6.577-3.445-5.166 .47,1.563 1.566,4.852.313,3.599s-1.565-3.913-2.819-3.599c-1.253,0-3.759.467-5.326,3.288-1.723,2.817-5.638,5.166-5.638,5.166 2.663-2.506 7.674-10.337 10.964-12.528-2.506-1.721-3.132-2.665-4.699-6.11-1.568-3.27-5.17-10.79-4.543-15.96z" fill="#815e20"/>
  <path d="m120.29,229c3.916,2.664 10.025,9.713 15.036,12.058 10.651,4.857 15.193,3.917 20.989,3.445-6.265-.624-9.711-2.345-16.76-5.638-7.204-3.127-9.396-9.394-13.313-13.464-3.916-3.918-3.289-12.534-5.012-15.037-3.602-4.699.47,9.395-2.35,6.893-1.252-1.254-2.662-5.172-3.759-11.281s-2.819-4.853-2.662-1.406c.156,3.445-3.917-5.171-6.58-9.556-2.818-4.228-3.915-18.168-4.229-22.71-.469.939-.313,7.202-.313,11.277s0,12.529 5.169,18.011c5.168,5.638 7.049,13.783 8.614,21.771 .784,3.761.158,6.893-.783,8.931-.783,2.192-2.35,9.395-11.434,10.177 1.41.785 8.771,3.136 15.349,3.136-2.662-.63-7.675-2.664-7.831-2.979-.157-.468 1.723-.468 2.975-1.878s3.759-5.01 3.603-8.771c-.33-3.75-1.74-5.63 3.27-2.97z" fill="#37290e"/>
  <path d="m73.145,234.95c-2.192-1.878-5.325-3.288-3.915-1.406 1.566,1.721 3.915,3.131 1.566,2.975-2.506-.157-9.241,1.877-4.229,1.877s7.674-1.253 10.023,0 3.132,1.879 1.096,2.351c-1.879.31-.469.938 2.663.31 3.29-.781 5.952-.468 7.205.473 2.663,2.192 3.759-.625 5.952,1.877 1.41,1.726 1.723-1.721 6.579.157 4.855,1.725 16.602,2.04 16.602,2.04s-10.495-1.726-12.843-2.979c4.855-.468 9.24-2.664 9.24-5.949 0-3.131 2.35.782 1.88-2.507-.627-3.131 1.723-4.385-1.567-5.795-3.446-1.41-10.807,2.192-7.205,1.41 3.603-.785 8.615-2.191 7.519,3.761-2.192-1.882-7.205-1.254-8.771-.472 1.723.314 7.361.314 7.205,2.035-.313,1.883-3.132,6.105-7.988,5.009s-10.494-4.694-11.903-5.009c-3.29-.625 3.289,3.756 6.891,5.324-2.036.624-4.072-.315-5.795-1.097-1.88-.624-1.253,2.35-4.229.939-2.82-1.411-4.23-2.975-5.013-4.853-.627-1.726-2.036-1.726-1.41.314 .783,1.879 1.253,2.817-.626,1.563-2.037-1.253-4.229-6.263-4.229-4.542 0,1.883 1.879,4.699-.157,3.289-1.871-1.41-2.654,0-4.534-1.1z" fill="#815e20"/>
  <path d="m56.23,240.12c-.783,1.568-.627,4.543 1.409,4.543 2.192,0 4.386.943 5.012.313 .784-.472.939-2.034-.626-1.721-1.723.153-2.507-.313-2.819-1.724-.157-1.412-1.411,1.096-1.567-.473-.156-1.72-1.096-1.72-1.409-.94z" fill="#815e20"/>
  <path d="m95.074,109.81s5.168-4.542 7.518-10.493c2.35-6.267 4.229-5.795 6.892-13.158 2.35-7.361 5.325-22.398 10.181-26.156s7.205-2.037 6.578-.627c-.783,1.253 0,1.253 1.723.47 1.879-.782-1.723,2.038.627,1.566 2.349-.313 2.662,1.253.783,2.349-1.723,1.096-4.072,4.699-1.723,3.76s1.253.939.157,2.193-2.35,3.133-.939,2.976c1.565-.157 1.565.939 0,2.35-1.41,1.409 3.289.782 0,3.758-3.133,3.133-2.663,4.387-1.566,3.916 1.096-.313 0,2.037 1.879,1.253 1.723-.627 1.566.469.627,2.192s3.132,1.098 2.193,2.821c-.94,1.877 2.35,1.251 2.037,2.974-.47,1.568 4.699,0 3.132,1.723s.939.941 3.446.314c2.505-.469 3.916,2.662.313,3.603-7.205,2.192-2.819-1.253-5.953,0-2.975,1.251-4.072.313-6.107,1.723-1.88,1.251-2.82.469-2.35-.784 .626-1.253.939-2.193-1.096-.313-2.193,1.723-5.169,3.446-4.385,2.036s-2.507-.784-3.29,1.096c-.94,2.037-2.036,1.096-3.915,3.288-1.723,2.195-2.819,3.76-5.482,3.76s-4.386.313-6.109,2.662c-1.566,2.349-5.168,3.291-1.879-.626 3.132-3.601 5.325-7.674 3.289-5.638-1.888,2.03-5.49,4.54-6.586,5.01z" fill="#815e20"/>
  <path d="m165.09,76.916s4.229-3.448 7.206-7.99c2.818-4.385 7.519-13.784 14.723-16.445 7.361-2.662 9.711-2.506 6.265-.157-3.603,2.349-4.699,3.76-2.818,3.133 2.036-.469 2.349-.315-.157,1.565-2.505,1.723-4.229,5.011-2.351,4.542 2.036-.312 1.724.469-.313,2.192-1.88,1.723.939,2.507-1.409,4.699-2.349,2.037 2.349,2.664-.156,5.483-2.507,2.977 1.723,2.192.156,4.073-1.567,2.036.156,2.819-1.567,5.324-1.567,2.507-3.132,7.363-4.699,8.929-1.722,1.565.783-3.604-1.097-.784-2.036,2.819-8.458,4.856-6.108,3.134 2.349-1.88 3.603-3.604.471-1.88-2.976,1.88-3.917,2.037-1.88-.157 1.88-2.192.469-.782-1.723.157-2.35,1.096-8.615,2.35-5.952,1.096s6.579-7.675 5.168-6.422 1.41-2.976-1.567-1.253c-3.132,1.723-7.673,2.977-5.795,1.723 2.036-1.251 3.29-2.819-.469-1.097-3.759,1.88-5.482.784-2.35-.312 2.977-.938 5.326-3.603 2.819-2.662-2.505.939-7.675.939-4.698-.472 3.14-1.408 7.68-5.323 8.31-6.419z" fill="#815e20"/>
  <path d="m241.68,241.37c1.096,2.507 2.35,3.917 4.542,4.232 2.035,0 5.951.467 6.578,2.035 .783,1.563 2.817,2.659 4.071,2.35 1.254-.315.47,1.721 4.385,2.817s5.638,1.252 1.568-3.604c-4.073-4.699-2.037,1.884-5.015-1.405-2.973-3.136-4.541-1.882-4.541-5.486s-2.35-3.445-2.35-8.297c0-4.856.472-7.517-.939-6.263s-2.034,5.947-.781,8.612c1.251,2.659.781,7.516-.473,6.105-2.192-2.351-2.973.313-4.071-1.097-.96-1.4-3.62-1.71-2.99.01z" fill="#815e20"/>
  <path d="m273.94,212.08c-2.817-5.48-8.612-5.952-9.084-8.145-.627-2.192 5.953-1.563 10.022,6.424 3.92,8.15-.94,1.72-.94,1.72z" fill="#815e20"/>
  <path d="m228.52,279.28c3.604,1.252 4.857,1.882 9.087.472s5.795.624 7.519,1.721 7.047,4.698 19.106,2.979c12.061-1.568 14.882-2.351 27.881-1.727 13.156.786 23.963,2.822 30.386,4.075s15.035,3.446 18.951-3.603c1.096-1.568 5.483-2.665 7.676-2.035 2.191.467 8.145,2.659 11.119-1.882 2.664-4.071 4.856-10.024 2.979-13.312-.786,2.192-.314,6.42-2.507,8.769-2.192,2.192-6.422,5.171-6.422,2.664s-5.326,3.446-5.953-1.41c-.155-1.563.784-4.856-.938-2.507-1.881,2.192 0,3.289-4.388,5.327 1.097-4.074-1.097-7.048-1.097-7.048s.314,4.228-2.034,7.048c-4.856,5.481-4.856,2.192-7.988,3.289-6.267,2.036-.784-3.917-5.171-1.882-5.009,2.506-4.07-1.721-6.419-.938-2.351.938-2.664-.625-2.819-2.817-.158-2.035-3.292-5.481-3.134-3.446 .157,2.192.157,7.202-1.254,6.105s-.781,2.507-2.662,1.726c-1.723-.939 1.097,1.568-3.603,1.568-4.541,0-9.553-.472-17.855-.943-8.303-.311-13.157-1.097-15.506,0s-6.892-.311-6.265-1.407c.781-1.096 2.818-4.856.314-3.136-2.507,1.882-3.134,2.979-3.291.943-.155-1.882.627-4.232-.938-1.725-1.409,2.507-3.916,4.542-6.736,5.324-8.301,2.192-2.817-1.879-5.639-.94-2.974,1.097-4.542.94-5.166-.467-.785-1.41-2.351-.157-3.918-3.292-1.408-2.975-1.566-5.481-2.35-4.071-.624,1.411-.471,3.446-.155,4.071 .48.79-4.22,4.08-10.8,2.52z" fill="#815e20"/>
  <path d="m300.41,267.22c-2.035-.938-2.035-1.253.784-.938 2.662.31 2.662-.472 5.326,1.563 2.662,2.192 1.722,3.603 2.974,4.699s-1.252.315-2.35-1.253c-.93-1.57-5.16-1.41-6.73-4.07z" fill="#815e20"/>
  <path d="m333.77,260.95c-2.351-.78-4.543-2.973-.626-2.192s8.301,3.133 8.613,5.796c.471,2.508-2.35,3.132-2.975,1.254-.78-2.04-1.09-3.61-5.01-4.86z" fill="#815e20"/>
  <path d="m349.9,263.77c-1.877.311-4.854,3.445-4.069,5.166 .938,1.882 1.252,1.41 2.973-.781 1.568-2.35 1.726-3.604 2.822-3.918 1.11-.16-.62-.63-1.72-.47z" fill="#815e20"/>
  <path d="m132.04,258.92c-1.254,1.096-5.482-1.254-7.832-4.857s-5.952-3.603-9.241-3.603c-3.446,0-4.699.786-.157,1.254 4.386.628 4.856,2.349 2.193,2.979-2.35.467-22.555-.472-22.555-.472 3.132,1.096 19.578.938 26.941,2.034s1.252,2.507 8.771,4.386c4.542.943 2.976,5.328 5.326,8.146 3.445,4.074 11.747,4.854 15.036,3.444 3.133-1.406 5.168-5.009 2.192-3.131-2.976,2.035-7.362,2.507-12.843.156-5.639-2.19-5.952-2.82-3.759-6.733 0,0 .783-1.254-.47-1.41s-2.192-1.254-2.663-1.721c-.33-.64-.95-.48-.95-.48z" fill="#815e20"/>
  <path d="m224.92,244.04c3.915,5.014 5.637,7.206 5.95,10.809 .472,3.6 3.134,4.695 3.134,4.695s3.133-2.035 5.952-.938c2.35-2.192 7.83-3.132 9.709,2.663 2.192-.314 10.336-.156 13.939,2.664 3.604,2.975 11.434,1.406 19.108,3.289 7.677,1.721 20.987,5.639 23.81,9.241s1.722-1.882-5.17-5.639c-7.048-3.759-17.386-8.302-25.843-8.93-8.302-.469-12.375-5.481-19.108-5.481-6.736,0-12.687-4.071-15.819-3.761-2.976.472-1.098-4.228-3.759-1.878-2.66,2.36-7.83-4.85-11.9-6.72z" fill="#a2782b"/>
  <path d="m276.6,265.96c15.193,1.563 23.336,5.638 29.289,8.926 5.795,3.132.469,4.228-2.037,3.761-2.506-.629-.625-1.254 1.252-1.726 1.724-.311-3.914-3.131-11.433-6.105-7.519-3.135-21.301-4.541-24.747-4.389-3.445.157-3.601,1.097-6.265-1.878-2.665-3.132-12.845-2.817-12.845-2.817-2.349,1.097-6.265,3.446-7.203,6.421-.939,2.82-2.508.781-4.073,2.191-1.722,1.411-3.131.472.469-1.721-2.19,0-4.071-.156-1.252-1.1s5.953-2.503 5.953-4.228c0-1.879-.785-3.446-3.289-4.385 1.253-.158 3.603.782 4.228,2.506 .783,1.879 4.698,0 3.446-2.506s-5.325-2.822-8.144-.314c-2.194-.782-4.856-.157-5.952.938-1.881-1.249-2.82-3.131-3.134-5.795 1.88,2.196 6.578,3.76 10.337,2.506s7.049.473 8.614,2.665c1.41,2.192 3.446,1.41 6.58,1.41 5.15-.01 7.81,5 20.18,5.63z" fill="#815e20"/>
  <path d="m268.3,169.32c0-6.42-.626-9.552 1.567-12.216 2.036-2.819-1.725-2.977-3.134,4.542-1.41,8 1.25,15.67 1.56,7.68z" fill="#815e20"/>
  <path d="m264.86,164.94c-.782-4.386-1.254-6.579 0-10.651 1.254-3.916 2.664-6.422.783-4.542-1.722,1.723-2.662,9.241-2.662,9.241s-1.096-6.892.782-11.122c1.724-4.073.47-3.446-.627-1.096-1.096,2.507-2.349,10.495-.469,16.134 2.04,5.96 3.29,9.09 2.2,2.04z" fill="#815e20"/>
  <path d="m137.83,128.92c-6.892,4.387-12.844,13.94-12.217,21.928 .783,7.833 1.565-5.481 6.891-12.217 5.33-6.9 12.85-14.41 5.33-9.71z" fill="#a2782b"/>
  <path d="m145.35,129.38c-4.071,3.604-9.24,12.844-8.928,16.29 .314,3.603 3.603-7.831 8.928-13.157 5.33-5.32 9.71-11.74 0-3.13z" fill="#a2782b"/>
  <path d="m151.15,134.24c-5.325,7.048-7.988,14.095-6.892,14.722 1.096.784 4.7-8.143 10.338-14.722 5.795-6.422 10.181-10.337 8.3-10.337-1.73,0-8.62,6.11-11.75,10.34z" fill="#a2782b"/>
  <path d="m165.71,145.36c2.505-7.833 5.012-10.337 9.084-10.337 3.916,0 3.916.313.313,2.505s-5.481,3.603-6.735,7.518c-1.55,3.92-4.06,5.02-2.65.32z" fill="#a2782b"/>
  <path d="m116.22,125.31c-1.098,1.723-2.194,5.013-.94,7.049 1.252,1.88.469-1.723 1.096-3.915 .62-2.19 1.09-5.01-.16-3.13z" fill="#a2782b"/>
  <path d="m121.7,121.87c-2.506,3.134-2.506,10.025-1.253,12.063s.156-3.76 1.41-7.675c1.41-3.92.62-5.33-.16-4.39z" fill="#a2782b"/>
  <path d="m127.81,118.26c-1.879,2.504-3.759,8.926-1.723,12.06 1.88,3.289 1.41,0 1.88-4.387 .62-4.53 2.5-11.43-.16-7.67z" fill="#a2782b"/>
  <path d="m133.76,117.8c-1.098,1.723-2.506,4.542-.94,7.988 1.565,3.289.626-1.723 1.409-4.699 .94-3.14.16-4.39-.47-3.29z" fill="#a2782b"/>
  <path d="m227.42,223.67c-1.722-7.363.627-21.456-3.289-26.155-3.914-4.542-5.794-8.146-5.011-12.063 .782-4.07-2.819-4.07-6.109-8.302-3.132-4.385-3.132.315-1.096,2.507 2.193,2.191 5.482,5.328 4.386,13.625-1.096,8.146 6.423,5.328 7.047,15.979 .783,10.806.472,14.408 3.603,18.636 3.29,4.37 1.88,2.17.47-4.25z" fill="#815e20"/>
  <path d="m203.3,178.26c.941-5.014 3.916-7.835 2.977-11.124-1.096-3.288-1.096-5.951 0-9.867 .938-4.072 1.409-8.929-1.096-3.288-2.507,5.795 1.096,17.072-1.411,18.793-2.506,1.882-3.603,10.027-2.192,11.905 1.41,1.72 1.1-2.51 1.72-6.42z" fill="#815e20"/>
  <path d="m229.3,250.61s-3.133-5.64-8.928-11.12c-3.445-3.131.314-2.659-3.759-5.324-3.76-2.349-6.578-5.638-7.362-15.036-.47-6.267-1.722.939-.313,5.014 .939,2.975 1.254,7.048 3.759,9.866 2.507,2.979 1.41,2.663-.938.781-2.351-2.035-2.508-.625 0,1.726 2.505,2.345 6.892,5.166 5.168,5.166-1.566,0-4.386-1.41-4.073.624 .314,1.882-.469,2.351-2.191,1.254-1.566-1.096-2.35-1.878-2.977.472-.471,2.35-5.795,3.131-9.085,3.445-3.445.315-23.023,1.097-28.506,0 2.507.782 3.603,1.568 4.23,2.351 3.445,0 17.542.467 26.939-.782s17.7-3.293 22.867-1.101c5.17,2.35 2.67,2.19 5.17,2.66z" fill="#37290e"/>
  <path d="m300.57,246.23s6.265,3.132 8.927,2.665c4.387-.63 3.918-6.892 4.542-4.857 .629,2.192 2.194,4.228 2.821-.472 1.254-9.08 2.192-1.096 2.506-2.35 .469-1.253 6.735-7.517 2.192-.467-4.541,6.892-5.325,12.687-2.82,12.687s2.195.468 2.195,1.878 .469,3.445 2.19,4.075c1.881.467 3.602,2.973 3.602,2.973s-12.687-6.109-14.564-8.302c-2.05-2.05-10.35-6.12-11.6-7.84z" fill="#37290e"/>
  <path d="m397.52,44.336c-1.097-.313-2.508-1.565-2.192-.784 1.407,2.821 5.166,5.483 6.106,5.014 .941-.627 2.819-1.411 4.073.626 1.41,2.192 3.915,3.916 5.011,3.601 .941-.313 3.446-1.251 3.603-3.601 .313-2.35 1.567-4.072.471-6.265-.939-2.194-1.723-2.35-1.411-1.88 .157.312 0,.781-.781,1.253-.627.627.626,1.251.47,1.723-.627,1.251-1.409,5.168-1.252,3.446 .155-7.206-.472-4.073-.94-3.76-.313.158-.941-.313-.785,1.253 .158,2.035.785,3.603-1.095.939-1.098-1.565-2.508-2.974-4.229-2.974-1.097,0-2.192-1.411-2.664-.627-.938,1.878-1.877,2.662-2.818,1.723-.31-.314-.47.627-1.57.313z" fill="#9c762b"/>
  <path d="m347.56,66.576c-7.674-.154-19.108-10.022-19.422-11.434-1.097-4.699-6.892-5.011-4.857-17.855 2.195-12.999 4.388-3.915 3.446-1.408-.938,2.504 1.1,7.049 2.195,10.18 1.095,2.977 6.421,3.604 9.396,9.399 3.134,5.951 3.291,2.505 1.568-1.411-1.881-3.915-.627-7.204 1.253-2.819 1.722,4.23 9.554,4.23 15.35,8.457 2.349,1.724 5.638-1.096 8.614,0 2.818,1.099 5.013-.155 6.109-.938 1.878-1.566 9.241.626 10.181-1.096-.785,3.915-1.568,2.976-7.832,4.384-6.43,1.41-15.67,5.012-26,4.541z" fill="#a2782b"/>
  <path d="m415.06,67.047c-.471,1.096-1.253.469-1.882,1.096-1.097.313 1.254,2.977-1.097,5.169-4.699,4.228-6.42-2.192-10.649-2.349-5.795-.315-7.203-1.88-10.649-3.916-3.29-1.88-11.748-.784-15.665,2.975-4.543,4.387-7.359,3.291-12.687,1.723-5.481-1.251-11.12-1.251-17.696-1.723-6.425-.47-8.773-6.42-12.375-8.458-3.603-1.88-5.795-5.795-7.833-12.061 4.542-.312 3.445-2.662 5.796-1.565 4.387,2.036 5.171,4.228 1.726,2.505-2.039-.939-3.134,4.387-.785,6.736 2.348,2.504-.157-4.072 3.134,1.408 1.564,2.507-.472-4.699.938-4.542 1.097.315 1.254,3.604 4.856,7.519 3.602,3.761 2.817-.157 3.447.315 5.48,3.915 5.009,2.192 3.758.626-1.099-1.722 4.696,1.724 2.348-1.253-1.409-2.038 1.098-1.723 4.23.155 5.323,3.445 7.674-1.724 10.805.626 1.568,1.254 3.446.627 5.641-1.096 2.192-1.878 4.073-1.878 7.361-1.096s2.507-3.289 3.289-4.385c.938-1.411-2.975-.941-6.892,0-3.916,1.096-3.604-1.723-1.097-1.88s5.326-2.35 8.303-3.758c2.819-1.411 4.385,2.505 10.022,2.348 2.506-.155 2.821,2.821 1.096,1.879-1.877-.781-3.288-.469-6.892,0-3.603.627-.157,3.761.785,4.857s4.229,1.723 7.832,1.723c3.445.158 6.42,2.977 8.457,4.228 1.88,1.411 1.88,2.038 5.326,2.194 3.445.155 3.758-.941 4.541-2.818 .625-1.724 0-4.23-.628-4.857-.468-.469-.624-3.446-.782-4.542 0-1.096.627-2.664 1.568-3.289 1.096-.471 1.563-1.411 1.721-2.976 .157-1.568.472-2.976.783-3.916 .784,4.697-1.408,6.265-1.253,7.047 .47,3.76 2.507,5.014 3.445,7.206 .941,2.505-.626,2.662-.155,3.915 .468.939-.628,1.096-.941,1.723 0,.626.313.938-.312,1.41-.65.471-.65.783-.97,1.097z" fill="#815e20"/>
  <path d="m396.11,46.058c-1.41-1.096-2.973-3.915-1.877-6.264s2.974-3.289 6.263-2.507c3.133.784 5.952,1.88 4.229.315-1.724-1.411-4.385-2.819-2.192-2.193 2.192.47 8.929,2.036 10.807,5.012 1.88,3.131.158.939-.782,0-.938-.784-2.192-1.253-2.82-.314-.624.941-.468,1.411-1.878.314-1.253-1.097-1.097-.157 0,1.096 1.096,1.411 2.192,4.7 0,2.35-2.035-2.35-5.638-5.169-8.927-4.543-3.134.47-3.761,1.724-2.822,4.543 1.1,2.818.94,2.975 0,2.191z" fill="#815e20"/>
  <path d="m378.26,40.106c-1.409-.625-2.035-1.565 0-1.408 2.194.157 3.603.312 5.64-.47 1.879-.941 6.578.47 7.517,2.663 .784,2.037 2.821,4.699-2.817,1.88-5.8-2.665-8.15-1.724-10.34-2.665z" fill="#815e20"/>
  <path d="m355.23,28.987c1.254,1.566-.938,5.638-1.88,4.542-.782-1.096-5.323-2.976-8.928-2.664-3.759.314-2.507-2.663-2.663-3.446-.313-.782-1.878-.782-2.663,0s-1.722-.939-3.287-.47c-.627.315-1.566-.155-2.351-1.565-.94-1.565.627-1.722 2.038-.627 1.409.939 2.504,1.254 4.542.315 1.721-.941 7.361-3.761 12.687-.941 5.324,2.819 2.662,2.819.939,1.88-1.73-1.096-.48.626 1.56,2.976z" fill="#cba84f"/>
  <path d="m333.77,36.505c.313,3.445 2.507,8.3 3.917,7.987 1.407-.469-2.664-4.856-1.725-8.771 .786-3.915 1.725-2.819 2.036-.313 .313,2.819 3.446,8.615 9.399,8.927 5.792.157 4.229-1.723 1.723-1.723s-5.014-1.409-4.856-2.192c.156-.626 2.82.627 5.481.313 2.349-.313 3.917-2.35 2.037-1.878-1.724.469-3.602.469-1.881-.157 1.567-.627 3.134-2.977 2.979-1.88-.157.941.468,1.723 1.563,0 1.097-1.88 1.883-1.723.941.627s0,2.192 2.192,1.879c2.037,0 2.507,1.409 4.542,1.097 2.194,0 2.819-1.411 1.099-1.097-1.568.47-3.604-2.037-4.699-2.037-1.254,0-.785-1.878-1.254-4.384-.627-2.35-1.097-6.422-5.326-7.519-4.072-1.096-5.326.313-2.818.627s6.107,2.819 5.323,4.229c-.624,1.566-.154,3.601-1.563,2.036-1.253-2.036-5.171-4.23-8.302-2.819-2.977,1.409-2.038-.627-.314-1.254 1.88-.783 3.603-2.819 1.88-2.35-1.88.47-2.662,1.88-2.662.784 0-.941-1.096-.941-1.88.312s-.47-.469-2.037.784c-1.409,1.253-1.566,1.565-2.661.469-.941-1.096-2.663,1.566-3.916-1.096-1.254-2.819-1.881.313-1.254,2.192 .79,1.724 2.36,5.327 2.04,7.207z" fill="#815e20"/>
  <path d="m335.03,22.722c1.567,1.251 3.133,3.446 5.17,2.035s5.168-2.662 6.892-2.506c1.879.157 2.661-.939-.628-1.096s-7.831,2.194-9.553.784c-1.57-1.566-3.92-.628-1.88.783z" fill="#815e20"/>
  <path d="m311.69,6.118s.938,2.821.938,5.326c0,2.507 1.254,7.206 3.604,9.867s.47,4.073-3.759,5.795c-4.386,1.723-1.724,2.192-1.724,2.192s4.856-3.131 5.482-2.819c.47.469-4.072,3.446-2.194,3.289 2.037-.155 4.855-3.758 5.327-3.289 .625.626-3.603,3.603-2.349,4.23 1.253.469 3.131-2.192 3.289-.941s-3.289,3.917-4.543,5.952c-1.253,1.88.782,1.565 2.351-.469 1.721-1.88-.785,4.385 2.192-.158 2.973-4.384 2.817-2.192 2.192-.626-.782,1.411-1.097,3.291-.471,4.387 .784,1.096.784,3.601 1.723-2.037 .782-5.795 1.724-7.048 3.761-7.831 1.879-.626.938-2.976.938-2.976s-.472,1.723-2.349,2.192c-2.036.315-4.699.784-5.168-1.096-.313-2.035-2.195-4.856-3.134-5.168-.939-.469-2.663-3.289-3.604-6.891-.79-3.603-.32-7.049-2.51-8.929z" fill="#815e20"/>
  <path d="m409.42 50.758c-3.134-7.049-6.734-10.495-9.868-8.771s1.568 5.168 2.193 4.072 2.664-1.408 4.229 1.253c1.73 2.662 5.18 7.676 3.45 3.446z" fill="#37290e"/>
  <path d="m411.15,50.288c.158-2.819.314-5.326 0-6.421-.313-1.254.314-3.134 1.254-1.723 1.097,1.565 1.565,5.795.781,4.854-.938-.781-1.097.314-1.097,2.037s-1.09,3.916-.93,1.253z" fill="#37290e"/>
  <path d="m390.79,67.047s4.228,1.878 6.108,1.251 3.134,1.723 2.504.157c-.624-1.565-1.097-1.88-2.349-2.505-1.097-.472-.94-.941.628-.626 1.409.469 3.289,1.877 5.012,3.445 1.565,1.566 3.916,3.758 6.579,3.601 2.192,0 2.975-2.035 2.35-3.289-.472-.939-.629-.157-1.099.157-.627.312-1.722.157-3.134-.627s-3.6-.47-6.733-3.446c-3.289-2.976-7.36-3.134-10.022-3.134-2.822,0-5.483-.469-6.735-2.192-1.096-1.723-.472-1.566.625-.47 1.096,1.253 3.76,2.192 7.363,2.036 3.446,0 6.577.941 9.084,3.133 2.661,2.35 6.892,3.758 8.614,3.289 1.88-.313 2.976-1.408 3.289-2.35-.155,1.411.94,2.35 1.879,1.723-.156.941-2.034.472-1.879,1.568 .156,1.097.94,2.193.156,3.446-.941,1.409-2.193,2.505-3.914,2.505-2.978,0-4.23-2.977-6.892-3.446-2.038-.312-4.543.314-7.988-1.878-1.72-1.251-3.44-2.348-3.44-2.348z" fill="#37290e"/>
  <path d="m327.66,57.022s.47,3.134 3.916,5.326c3.445,2.192 6.267,7.519 9.084,8.615s1.725,5.168 3.133,6.577c.47-4.073.157-5.48.157-5.48s1.881,1.253 3.133,2.976c1.252,1.88.625-1.253-.156-2.35-.629-1.096-.629-.941 2.507,0 3.288.939 5.481,2.036 5.481,3.758 0,1.88.156,2.664.312,2.819 .313-3.446.469-3.446 2.037-5.481 1.409-2.192 2.507-2.506 4.542-2.037 1.878.627 8.145,3.291 11.747-.312 3.602-3.289 7.047-5.169 13.469-5.326-1.722-.469-7.672-.469-9.556,1.253-2.034,1.723-3.287,2.037-4.227,2.819-.781.941-4.699,2.35-8.145,1.41-3.604-1.096-3.916-1.096-1.878-1.096 1.878-.314 5.009-2.35 7.516-2.35 2.664.155 4.229-.314 6.267-1.253 1.879-.939 4.071-.784 5.796-.939 1.878,0 5.639.155 6.734.625-.939-1.25-1.726-2.035-2.821-2.035s-1.254,1.096-2.662.157c-1.251-1.096-2.976-1.253-5.795-.941-2.819.315-6.265,0-7.361.941-1.254,1.096-7.673,4.228-9.084,3.758-1.567-.313-2.508,1.566-5.325.627s-11.903,2.662-17.388-2.507c-5.47-5.168-9.55-6.265-11.43-9.554z" fill="#37290e"/>
  <path d="m341.6,32.745c0,1.723 2.192,6.265 5.169,6.11 2.975-.157 5.168-1.253 5.795-2.819-.627.313-4.385,3.288-7.205,1.723-2.662-1.568-2.975-3.603-2.975-4.387-.15-.785-.78-.627-.78-.627z" fill="#37290e"/>
  <path d="m344.11,40.733s-2.817-.782-4.228-5.169c-1.568-4.385-1.41-4.542-2.351-4.699-1.096,0-2.818-.782-3.131,1.722-.157,2.507.625,9.241 3.131,11.591-.625.158-1.722-.469-3.288-5.324-1.567-4.856.625-4.699-1.097-7.363-1.725-2.504-1.725-4.542-.941-3.289 .785,1.254 2.508,1.88 2.978,1.566s1.568-.313 2.035-.155c1.41.939 1.567-1.096 3.603-1.88 .627-.314-1.724,1.723-1.41,2.35 .472.627 1.882-1.096 2.979-2.192 .938-.941 2.35-1.253 1.254-.314s-3.134,2.819-2.351,3.446c.938.627 1.721-1.88 5.95-1.565 3.604.313 5.012,2.662 5.326,3.131 .314.315-2.507-2.504-5.638-2.504s-4.7,1.096-4.7,1.566c-.156.469-.471.938 1.097.157 1.411-.941 3.76-1.723 5.952-.941 2.192.626 3.289,2.349 4.543,2.349 1.097-.155 1.408.941 1.408,1.411 0,.312.627.469.627-1.411 0-.627-1.097-3.131-.627-2.975s1.565,2.975 1.099,4.543c-.472,1.723-1.099.154-1.883.312-.781,0-1.563-.469-2.035-1.565-.47-.941-3.445-3.289-6.576-2.35-2.979,1.096-4.23,1.88-4.075,2.035 .156.784 1.097,4.856 3.917,5.64 2.819.627 4.385-.314 4.385-.314s-2.034,1.88-5.48.314c-2.507-1.096-3.604-4.387-3.761-5.168s-.938-1.099-.781-.158c.31,1.095 1.1,5.48 4.07,7.203z" fill="#37290e"/>
  <path d="m343.17,33.372c0,.784.627,3.915 4.386,4.23 3.133.157 4.074-1.723 4.074-2.507 0-.312-2.98-1.566-8.46-1.723z" fill="#f1e69f"/>
  <path d="m345.68,33.529c-.157.939.47,2.507 2.035,2.662 1.726.315 2.821-.312 2.977-1.096 .3-.784-1.26-1.566-5.02-1.566z" fill="#100f0b"/>
  <path d="m343.48,32.902c1.565-.158 6.108.157 7.83,1.253 1.568,1.096 0-2.038-2.349-2.35-2.976-.47-5.169.469-5.796.781-.46.316.01.316.32.316z" fill="#b88638"/>
  <path d="m346.15,34.156c-.627,0-1.097.469 0,.312h1.409c.15,0 .31-.469-1.41-.312z" fill="#d8d9bd"/>
  <path d="m313.41,6.744s2.192,3.446 2.507,5.953 2.816,3.446 2.192,4.072c-.627.47-.314,1.253.624,2.036s1.253,2.977 2.664,3.76c1.41.626 2.507,0 3.445.938 .782.784 1.565,2.193 1.41.784-.156-2.819-1.88-2.192-2.507-5.326-.472-2.977-1.879-7.204-4.856-8.145-2.81-.938-5.47-4.072-5.47-4.072z" fill="#815e20"/>
  <path d="m326.41,22.408c-1.251-1.566-1.096-2.505-1.722-2.35-.626.157.156-2.505-.626-4.699-.786-2.192-3.759-5.795-5.482-6.107-1.723,0-1.096-1.411-2.819-2.35-1.725-.784-2.664-2.035-2.976-2.819-.47-.627-.941,0-.313,1.411 .469,1.408 3.133,3.288 3.133,4.227s1.566,2.35 2.818,2.35 3.133,1.096 3.133,2.662c-.156,1.568 1.254.157 1.254,3.291s.938,2.192.938,3.289c0,1.254.782.627 1.724,1.411 .938.939.627,2.662.938,2.662 .48-.002.8-2.037.01-2.978z" fill="#37290e"/>
  <path d="m381.08,29.926c3.134,1.411 13.783,2.192 16.604,3.761 2.817,1.565 4.071,3.131-2.192,1.096-6.267-1.88-10.182-2.35-15.036-2.977-4.856-.784-10.495-.47-12.688-2.192-2.193-1.88-2.037-1.88.468-1.723 3.45.469 8.93.627 12.85,2.035z" fill="#cba84f"/>
  <path d="m356.8,24.445c-1.721-1.096-2.192-3.446-4.699-3.76-2.349-.313-.467-1.566.786-1.253 1.409.314 4.385-.939 8.612,0 4.542.783 5.014,3.917 7.206,5.64 2.035,1.565 2.818,2.192-.157,1.723s-7.99.311-11.75-2.35z" fill="#cba84f"/>
  <path d="m368.39,32.902c-4.854-.939-10.806-1.096-7.516.938 3.446,2.038 6.108,4.542 6.264,6.265 .156,1.88 2.037,2.665 8.146,3.761s15.507,1.879 6.891-.939c-8.613-2.507-9.708-3.917-9.708-5.326s1.877-1.411 4.069-1.253 2.507-1.411-2.192-2.192c-4.7-.627-5.01-.942-5.95-1.254z" fill="#cba84f"/>
  <path d="m344.58,10.974s4.07,1.565 4.856,4.385c.311.941 2.192,2.037 2.192,2.037s-1.882,1.566-3.603-.469c-1.73-1.88-1.57-4.23-3.45-5.953z" fill="#cba84f"/>
  <path d="m334.71,10.505s6.734.469 8.614,3.131c1.723,2.507 3.76,3.604 3.76,3.604s-2.506.157-4.23-1.096c-2.03-1.412-2.97-4.231-8.14-5.639z" fill="#cba84f"/>
  <path d="m335.65,11.758s2.661.782 4.387,3.289c1.721,2.506 3.758,1.722 2.662,2.349-1.254.47-2.662,0-3.604-1.723-.94-1.88-2.51-3.446-3.45-3.915z" fill="#cba84f"/>
  <path d="m329.86,12.07s4.384-.626 5.793.784c1.254,1.566 2.349,3.446 3.758,3.915 1.254.784-.782.627-2.192,0-1.26-.626-2.98-4.229-7.36-4.699z" fill="#cba84f"/>
  <path d="m328.13,13.009s2.192.314 3.603,1.098c1.254.782 2.507,2.192 4.385,2.662s-.469.939-2.662,0c-2.19-.626-3.92-2.818-5.33-3.76z" fill="#cba84f"/>
  <path d="m326.41,14.578s.941,2.818 1.412,4.699c.312,2.035.153,4.697 1.096,4.385 .783-.313.941-2.977 2.349-3.447s-.94-2.662-2.661-2.976c2.034.314 2.661.314 3.913,1.253 1.096.939 1.725,0 2.507-.313s.313.313-2.35-.941c-2.663-1.566-4.229-2.977-5.324-3.289-.48.314-.95.629-.95.629z" fill="#cba84f"/>
  <path d="m406.29,54.046c-1.097-.781-2.974-1.565-4.854-1.253-1.88.472-3.445.314-2.349-.155s1.408-1.096-.627-.784c-1.878.157-3.131.313-2.819,0 .157-.47 1.096-.784 1.096-.784s-1.723.157-2.037.941c-.312.626 2.037,1.409 2.037,2.192s3.446,1.096 1.097,1.88c-2.192.782-2.662,1.566-2.348,1.878 .155.314 3.446-1.878 4.543-1.409s-2.195.626-3.919,2.819c2.192-.784 3.604-1.41 4.543-.312 .314.469-2.351-.314-2.975,1.096 .782,0 2.505-.472 2.975,0s-2.975.312-1.878,1.096c1.254.627 2.35-1.253 4.227-.627-1.722.627-2.818,1.566-2.192,1.723 .627,0 2.508-1.411 3.916-1.096-1.252.469-3.289,1.565-2.976,1.877 .313.472 1.879-1.25 3.288-1.096-1.096.942-2.505,1.723-2.036,2.195 .315.624.315-.941 2.036-.941-.313.626-1.096,1.253-.468,1.88 .468.47.939-2.192 1.721-2.192 .629,0 1.568-.315.784.626s-.469,2.662-.469,2.662 .78-2.192 1.253-2.035c.469.154-.627,2.192-.158,2.192 .627.154.939-1.254.939-1.254s.158,1.566.629,1.408c.468-.154 0-1.723.468-1.877 .472-.315.156,1.565.472,1.565 .47-.157.781-2.035 1.097-1.411 .624,1.411.469-2.348.78-1.877 .315.469.785-.627 0-1.723-.624-1.096-.938-2.192-.467-1.723s-.157-1.096-.785-1.567c-.625-.625-.155-1.096-.155-1.878 .155-.626 0-.941-.47-.626-.472.626-1.41,0-1.568-.469-.16-.626-2.03-.626-2.35-.941z" fill="#cba84f"/>
  <path d="m416.16,63.602c-.629-1.411.781-1.097.468-1.568-.313-.626-.313-.781.157-1.408 .626-1.253-.782-1.096-1.096-3.134-.313-1.408-2.192-1.096-2.975-3.131-.314-.472-.941,2.192-.314,3.289 .938,1.253 1.097,2.035 1.097,3.134s1.566.469.313,2.974c-.784,1.411-.629,2.038.155,2.819 .783.627.47-1.096 1.098-1.096 .782,0 .939,0 .626-.626-.49-.626.76-.472.45-1.253z" fill="#cba84f"/>
  <path d="m351.63,46.842c3.131,1.565 3.758,5.951 7.203,6.578 3.289.469 5.639-1.878 8.457-1.409 2.977.313 3.288-1.568-.781-2.037s-8.617-.155-11.434-2.663c-3.29-2.661-5.64-1.41-3.45-.469z" fill="#9c762b"/>
  <path d="m226.33,71.745c1.568.315 2.192-.781 2.192-.781s-3.131-1.254-3.131-2.038c0-.627 1.097-1.878 2.351-2.662s-2.819-2.192-3.446-2.35c-.47-.157 1.879-.938 2.661-1.253 .941-.155-2.661-1.723-3.915-1.723s.313-1.409 1.411-2.035c1.252-.47-3.917-1.096-.784-1.723 2.977-.784-2.975-2.35-5.481-2.192 2.976-1.568 9.866-2.507-.471-2.35 1.097-1.567 4.072-1.567 2.351-2.507-1.88-.939-4.855,0-5.64.627-.625.469-2.661-.47-.783-1.096 1.724-.784.158-1.723-1.252-.784-1.567.941-1.253-.47-.471-1.253 .939-.782-.47-.782-1.565,0s-2.507,2.037-2.507,2.037-.313-2.507.471-3.445c.626-.942-2.194.157-3.447,2.349-.156-2.349.784-5.169.784-5.169s-2.976,2.193-3.445,4.073c.313-2.664 0-3.603-.471-3.917s0,1.88-.939,3.291c-.94,1.253-1.567-1.88-1.567-1.88s.158,2.662-1.096,2.819c-.627.157.94-2.192-.782-3.604-.627,1.723-1.41,4.073-1.41,4.073s-1.567-1.878-2.036-3.289c-.471-1.566-.94-.313-.783.627s.625,2.349.625,2.349-1.878-1.565-2.036-2.664c-.156-.938-.938.472-.782,2.35-1.097-1.096-3.759-2.505-3.447-1.251 .469,1.409 1.567,1.096 2.193,3.131-2.036-.938-5.168-1.722-6.579-.938-1.251.782 1.881.155 3.29,1.565-2.349.157-5.012.469-5.326,1.411-.469,1.096 1.41-.157 2.506.625-2.192.157-5.012,1.567-5.639,2.35-.469.941.783.314 2.193.472-2.506.781-3.603,2.192-3.29,2.662 .156.626 1.41-.312.783.469s-3.289,1.565-4.229,3.289 2.036-1.097 1.409.472c-.469,1.408-1.878,2.192-1.565,2.974 .469.941-.785,2.038-.785,2.35 0,.472 1.41-.312 2.194-1.723 .625-1.25.314-1.877 1.41-2.035 .938-.157 1.409-1.411 1.096-2.037-.471-.625-.314-.625.469-.47 .627.157.94,0 1.252-.939 .314-1.096.627-1.723 1.411-2.037 .782-.155 1.252-.939 1.409-1.566 0-.626 1.254-1.253 2.35-.781 .939.469.625-1.098.625-1.88 1.096-.314 2.35-.469 2.663,0 .156.47.625-.626.313-1.253 1.723.157 2.976.157 2.976.939 0,.626.94.469 1.411-.939 .783.627 1.566.627 1.879,1.409s.627-2.035 0-2.974c1.252.312 2.036.939 2.192,1.565 0,.627 1.096-.469 1.096-1.41 .784.314 1.723.626 1.88,1.096 .156.626.941.784.941-.313 .938.626 1.565,1.411 1.878,2.035 .156.627 1.254-1.251 1.409-2.662 1.254.784 2.037,1.724 1.723,2.507-.157.627 1.566,0 1.566-1.41 .47,1.41-.313,2.976.626,2.192 1.098-.627 1.724-2.036 1.724-2.036s.627,1.723.627,2.35 1.252.158 1.566-.157c.313-.312-.158,1.253 1.096.784s.94.938 1.567.626c.625,0 2.036-.314 2.661.627s.471,2.662 1.724,2.35c1.253-.157 3.132,1.878 3.443,2.819 .314,1.096 0,2.035 1.1,2.035 .938-.157 1.251,2.662.781,2.977s.157.312.47.626c.314.158.783.939.472,1.254-.472.313-.784,1.097.155,1.097 .96.15 1.75,1.873 1.75,1.873z" fill="#37290e" stroke="#000" stroke-linecap="round" stroke-linejoin="round" stroke-miterlimit="2.4142" stroke-width=".216"/>
  <path d="m113.56,69.552s-.157-4.699.783-5.95 1.41-2.507 1.096-3.918c-.313-1.251.94.784.94.784s0-1.253.626-2.506c.313-1.096.94-2.193 1.096-.782 .156,1.566 1.253.627 1.253.627s-.313-1.88.625-2.507 .471,1.253 1.098.784c.783-.626.938-2.819 2.036-3.603s.157,2.036 1.096,1.88 1.566-2.194 2.663-2.664c.157-.155-.313,1.723 0,2.037s2.819-2.35 2.662-1.567c-.313,2.506 2.507-1.566 2.507-1.251 0,.312-.784,2.505 0,2.505 .783-.155 1.723-2.505 3.132-2.505-.471,1.723-.313,2.974.313,2.819 .469-.314.783-1.88 1.253-1.41 .156.157.625,1.41.625,1.41s1.096-1.88 1.881-1.723c-.471.782-.627,2.819-.314,2.977 .314.312 2.192-.942 2.192-.942s0,1.254-.469,1.723c-.627.626.469.47 1.252.314 .94-.157 1.88.47 1.88.47s-1.567.784-.782,1.253c.782.626 2.192.312 2.035.939s-.938,1.411 0,1.253c.94,0 2.507,1.253 2.507,1.253s-1.409-.627-1.097.469 1.411.312 1.097,1.254c-.157.626-.471,1.253 0,1.565 .627.312 1.252,2.35 1.252,2.35s-1.096-.469-.783.312c.314.941 1.41,1.723.941,2.35s.469,1.568.469,1.568v2.192s-1.565-1.253-1.565-2.037 0-2.35-.471-2.035c-.627.312-.94-.157-.94-.157s.784-2.192 0-2.036c-.783,0-.626-.472-.313-.941 .313-.627 0-1.877-.471-1.723 0-.781-.469-1.565-.94-1.096-.625.469-.313-.312-.313-.782s0-.941-.784-.941c-.625,0-1.565-.157-1.879.315-.313-.941.783-1.568.783-1.568-.941,0-2.036,0-2.35-.312-.313-.315.94-.627 1.098-.939 .156-.472-1.098,0-1.725-.157-.782-.315-.312-1.253-.938-.941-.471.157-1.254-.47-.94-1.096-.783,0-1.566.941-1.566.314-.157-.784-.157-1.096-.157-1.096s-.627.627-1.253.47-.313-1.096-1.565-.47c-.783.312-.783.939-.783.939s-1.097-.627-.94-1.253c-.47.157-1.41.314-1.41.784s-.626.157-.94-.158c-.157-.312-.627-.626-1.096-.312-.47.47-.627-.626-.627-.626s-.313,1.253-1.409,1.409c-.471.157 0-.782-.784-.782-.626-.157-.47.627-.783.939-.47.315-1.41-.157-1.41.315-.157.625 0,1.408-1.096,1.408-.94,0-.94.784-.94.784s-1.252.155-1.096.939c.156.939-2.037,1.096-2.192,2.037-.313.939-.313,1.566-.313,1.566s-.313,0-.313-.47c-.313.627-.313,1.565 0,1.877-.313-.154-.783-.469-.783-.781-.471.312-.471,1.253-.313,1.565s-.471.312-.626.158c-.471.469-.313,2.035-.783,1.877-.49-.155-.95,1.253-.95,1.253z" fill="#37290e" stroke="#000" stroke-linecap="round" stroke-linejoin="round" stroke-miterlimit="2.4142" stroke-width=".216"/>
  <path d="m152.24,255.78c3.759.625 11.592.781 10.965,6.734-.784,5.953.627,3.289.939.782 .313-2.664-.313-7.207-6.265-7.988-6.109-.782-3.603-4.07-2.193-4.856 1.566-.624 3.29-2.816-1.409,0 0,0-.314-1.254 0-1.878 .313-.781-.94.157-1.252,1.878-.471-.938-2.663-2.192-2.036-.157 .469,2.197.782,2.821.782,2.821s-2.036,0-2.505-2.034c-.158,1.721.156,3.131-1.254.938-1.409-2.351-1.878-6.735-12.06-7.206-10.337-.626-8.615,1.097-16.289,1.097 4.385.156 19.579-1.412 23.338,2.034 3.758,3.293 3.758,4.075 4.385,5.171 .63,1.27 2.98,2.37 4.86,2.68z" fill="#815e20"/>
  <path d="m166.65,247.32s3.604,1.41 4.073,5.481c.627,4.23-1.096,8.458-1.096,8.458s3.445-5.171 2.663-9.083c-.93-3.92-2.65-4.7-5.63-4.86z" fill="#815e20"/>
  <path d="m147.07,257.98c4.386,1.721 4.699.467 7.519,1.096 2.663.781 4.386,2.191 3.446,6.262-.784,4.075-1.096.63-1.096-1.252 0-1.723-1.723-5.01-4.7-3.913-3.132,1.095-5.168-.63-6.265-1.097-1.096-.629-2.349-.782-3.132.314-.627.938.94-2.507 2.036-2.351-.94,0-4.072.782-2.349-.313 1.567-.939 2.818,0 2.192-1.411-.783-1.41-2.192-3.288-.625-2.664 1.722.472 2.036,2.04 2.036,3.761 0,1.87.93,1.56.93,1.56z" fill="#815e20"/>
  <path d="m149.42,270.98s0-3.136 2.506-5.013c2.349-1.882 4.855-2.192 4.071-1.568-.782.629.785.157.941-.157 .313-.311 1.096-2.349 2.663-2.503 1.565,0 4.385,1.25 4.072,2.975-.46,1.71-14.25,6.26-14.25,6.26z" fill="#815e20"/>
  <path d="m162.42,263.61c1.254.939 1.411,4.543.314,7.674-1.254,2.979-2.192.628-3.759-.468-1.411-1.097-4.855-3.917-.627-7.048 1.58-1.24 3.77-.46 4.08-.15z" fill="#cba832" stroke="#000" stroke-linecap="round" stroke-linejoin="round" stroke-miterlimit="2.4142" stroke-width=".216"/>
  <path d="m158.19,264.24s-.627,1.726 1.411,4.543c1.878,2.82 1.722,2.978 1.722,3.444 .156.63-.469.158-1.409-.624-.783-.938-2.663-1.879-3.132-4.699-.31-1.57 1.41-2.66 1.41-2.66z" fill="#a08528"/>
  <path d="m150.83,271.44c1.254,1.879 3.759,2.665 7.049,2.979 2.036.31 2.036-3.446.782-6.582-1.096-3.131-2.663-2.816-4.385-2.192-2.19.78-4.54,4.07-3.45,5.79z" fill="#cba832" stroke="#000" stroke-linecap="round" stroke-linejoin="round" stroke-miterlimit="2.4142" stroke-width=".216"/>
  <path d="m163.68,259.7c.313.313 1.409-1.254 3.602-1.254 2.35,0 3.603-.153 3.917-1.254 .625,1.101.782,1.726 2.505,1.254s4.855,1.254 3.916,3.292c-.94,1.878-8.615,1.878-11.434,1.564-2.67-.32-2.51-3.6-2.51-3.6z" fill="#815e20"/>
  <path d="m171.35,260.01c1.409-.782 4.854-1.41 5.795,1.097 .625,2.506-2.506,6.267-4.386,7.049-1.723.938-2.192,1.095-2.819-2.35-.62-3.29.01-4.7 1.42-5.8z" fill="#cba832" stroke="#000" stroke-linecap="round" stroke-linejoin="round" stroke-miterlimit="2.4142" stroke-width=".216"/>
  <path d="m171.98,260.01s-.94,1.725-.782,3.917 .156,2.975 0,3.446c0,.467.469.938 1.409-.157s3.132-2.664 3.289-4.699c.313-2.035-.313-2.82-.313-2.82s1.722.628 1.567,2.82c-.314,2.192-2.819,5.167-5.326,5.953-1.252.467-1.41-.943-1.723-2.664-.33-1.41-.48-5.33 1.87-5.8z" fill="#a08528"/>
  <path d="m165.4,260.32c1.409-.938 3.289-1.41 4.698-.314 1.723,1.097.784,5.481-.156,7.674s-2.192,1.41-4.072-.311c-1.72-1.72-3.76-5.01-.47-7.05z" fill="#cba832" stroke="#000" stroke-linecap="round" stroke-linejoin="round" stroke-miterlimit="2.4142" stroke-width=".216"/>
  <path d="m151.62,267.84s-.472,1.726 1.095,3.289c1.567,1.567 5.169,2.821 5.482,2.821 .314-.157.784-1.096.784-1.096s.313,1.877-1.567,1.41c-1.88-.314-4.855-.314-6.579-3.446-.31-.31-.31-2.03.79-2.97z" fill="#a08528"/>
  <path d="m122.33,245.91s5.796-.311 7.675-.311 10.338,0 13.001,2.192c4.698,4.385 3.445,5.323 5.952,6.892 4.699,2.659 8.144,0 13.469,4.541 1.254,1.097.627,4.854.627,4.854s.313,1.41.469-1.407c.158-2.664-.156-5.328-6.108-6.582-5.794-1.249-8.144-.781-10.18-4.384-1.881-3.446-4.699-6.105-12.218-6.421-7.51-.15-11.43.79-12.68.63z" fill="#37290e"/>
  <path d="m106.04,241.84s-5.168.467-6.421,0-6.265-1.567-6.421-.938c-.313.625-4.073.781-6.267-.787-1.879-1.563-6.265-1.405-7.047-2.029 .783.934 2.505,1.405 4.072,1.563 1.41.158 4.542,2.192 7.361,2.035 2.819,0 3.446-.781 6.265.157s9.241,2.035 9.241,2.035l-.78-2.04z" fill="#37290e"/>
  <path d="m341.6,282.88s2.192-4.071 1.88-6.892c-.628-4.856-2.82-5.953-12.375-11.119-9.71-5.17-12.374-6.577-12.374-6.577s6.892,2.035 10.809,4.542c4.07,2.502 14.723,6.105 14.565,11.591-.155,5.324 2.037,6.263 4.074,6.42-2.49.32-5.63,1.26-6.57,2.04z" fill="#37290e"/>
  <path d="m305.89,274.89c-5.953-3.288-14.096-7.362-29.289-8.926-12.375-.63-15.037-5.639-20.205-5.639-3.134,0-5.17.782-6.58-1.41-1.565-2.192-4.854-3.919-8.614-2.665s-8.457-.31-10.337-2.506c.313,2.664 1.253,4.546 3.134,5.795 1.096-1.096 3.758-1.721 5.952-.938 2.818-2.508 7.047-2.192 8.144.314 .94,2.192 1.722,2.82 1.722,2.82s9.241-1.566 11.906,1.564c1.877,1.882 5.95,2.664 8.457,2.82 3.444.158 16.133,1.407 23.649,4.228 4.23,1.75 10.18,4.26 12.06,4.57z" fill="#37290e"/>
  <path d="m223.98,270.35s-2.818,1.411-4.541,1.878c-1.567.314-3.29.158-.782,3.446 2.505,3.445 6.892,3.445 6.892,3.445s-.472-1.249-1.254-1.721c-.95-.48-3.92-3.76-.32-7.05z" fill="#cba832" stroke="#000" stroke-linecap="round" stroke-linejoin="round" stroke-miterlimit="2.4142" stroke-width=".216"/>
  <path d="m217.56,273.01c-.157.311 0,.939.626,1.721 .471.786 2.036,3.761 7.204,4.232 0-.628-.469-1.254-1.096-1.568-.47-.156-.941-.628-.941-.628s-1.565.156-3.287-1.097c-1.72-1.08-2.5-2.34-2.5-2.65z" fill="#a08528"/>
  <path d="m28.506,246.85s-.469-4.228 3.29-6.892c3.602-2.503 6.734-3.599 6.734-3.599s-5.795,1.096-8.457,4.227c-2.663,3.29-2.349,5.17-1.567,6.26z" fill="#815e20"/>
  <path d="m30.542,255.94s-1.565-5.485-.156-9.088c1.565-3.446 3.759-5.796 4.854-5.948-1.879,1.877-3.289,4.852-3.289,6.892s.313-1.568 2.35-2.822c-1.096,2.507-1.096,4.857-.627,6.111 .627,1.096 1.254,3.911 1.096,6.104-.156,2.039 2.35,7.835 19.579,8.617-8.458-.473-18.795.157-20.675-7.206-.313-1.878.313-4.856-1.565-8.146-1.097,1.11-1.567,4.87-1.567,5.5z" fill="#815e20"/>
  <path d="m40.724,258.29s-3.445-3.446-2.819-8.931c.784-5.481 0-6.578 0-6.578s1.566,3.761 1.253,5.953c-.157,2.192 6.108,9.866 12.844,7.83-2.35,2.036-8.458,2.192-11.748-2.82-.471.79-.627,2.04.47,4.55z" fill="#815e20"/>
  <path d="m41.663,248.58s-2.506-.781-2.036-4.542c.469-3.603 2.192-6.263 2.192-6.263s-1.253,3.599-.627,5.167c.627,2.664 2.977,3.288 3.603,4.541-2.35-1.096-4.229-1.41-4.229-1.41s-.156,1.56 1.097,2.5z" fill="#815e20"/>
  <path d="m41.193,261.58s-5.168-2.192-4.855-7.521c.627,1.72 1.723,5.17 4.855,7.52z" fill="#815e20"/>
  <path d="m35.555,248.58s-.939-3.604.627-6.734 3.602-4.385 4.698-5.795c-.626,2.04-2.505,4.699-3.758,5.638-1.254.92-.157,4.53-1.567,6.88z" fill="#815e20"/>
  <path d="m39.94,255.31s-2.192-3.131-1.41-7.206c.47,2.979 1.097,4.075 2.663,5.639 1.567,1.725 4.542,3.917 6.109,4.074-1.723-.157-5.012-.938-7.048-4.074-.157.32-.314,1.26-.314,1.57z" fill="#37290e"/>
  <path d="m32.109,250.46c1.879,3.289.939,6.425 1.879,8.46-.313-.782.47-4.071-.94-7.83-.469-.94-.469-2.351-.156-3.604-.783.782-.94,2.508-.94,2.508s.157-.629 0-1.568 0-1.878.627-3.446c-2.192,2.822-1.096,6.578-1.096,6.578l.626-1.1z" fill="#37290e"/>
  <path d="m40.567,246.07s-.784-3.761.47-5.953c-.313,2.192-.47,3.604.156,4.856s1.253,1.568 1.253,1.568l-1.879-.48z" fill="#37290e"/>
  <path d="m390,60.311s-1.409-.627-1.409-2.349c0-1.566-.628-5.324-.314-6.42 .314-1.253.625-4.699.782-6.422s1.725-7.361 2.663-8.771c.94-1.565 1.567-2.192 2.192-2.35 .782-.312 2.192-1.096 3.446-.784-.627-1.723-4.856-2.975-7.83,2.194-2.821,5.324-3.918,16.133-3.288,18.637 .79,2.507-.94,7.206 3.76,6.265z" fill="#815e20"/>
  <path d="m383.74,57.962s-2.037-4.542-1.097-7.988c.782-3.446-.313-6.265 1.254-8.3 1.409-1.88 0-3.447 1.252-4.857 1.254-1.565 1.565-4.542 2.35-5.011 .626-.627 1.098-3.289 2.194-2.507 1.096.627 2.975-2.504 3.446-1.253 .624,1.568 2.816-1.251 2.973.941 .158,1.723 2.351.312 1.881,2.035-.313,1.253.627,2.507.627,2.507-1.881-.941-3.604-1.723-4.385-.626-.94,1.096-2.192,2.192-3.133,2.192s-.627,2.507-1.409,3.76c-1.568,2.505-.786,5.481-1.725,6.892-1.097,1.409 0,4.385-.47,5.638-.627,1.253.626,4.385.312,5.953-.312,1.723.158,2.974.786,4.07-1.41,0-4.38-.625-4.85-3.446z" fill="#e5e2cd" stroke="#000" stroke-linecap="round" stroke-linejoin="round" stroke-miterlimit="2.4142" stroke-width=".144"/>
  <path d="m330.01,51.697s2.663.314 4.073.941c1.253.782 6.734,3.446 11.749,4.385 5.165.784 11.118,2.662 13.782,3.603s12.529,1.254 15.976,1.254c3.445-.158 6.107.469 6.265-1.254 .155-1.565-11.121-1.096-13.472-1.253-2.349-.312-41.19-11.59-41.19-11.59s1.565,7.36 2.817,9.398 3.292,4.854 3.292,4.854-.629-2.035-.629-3.288c0-1.408-2.036-2.977-2.192-4.229-.16-1.098-.48-2.821-.48-2.821z" fill="#815e20"/>
  <path d="m329.86,43.709s-.472-3.289-1.099-5.011 .94-4.387 1.407-6.892c.472-2.664 1.254-4.542 1.568-6.11 .157-1.723 2.036-4.542 3.603-5.481 1.724-.783 6.735-2.349 10.181-1.879 3.446.314 4.856-.313 5.48-.782 .63-.626-13.469-2.194-16.757.939-3.445,3.133-10.025,19.266-8.459,20.831 1.57,1.409 3.45,2.193 4.08,4.385z" fill="#815e20"/>
  <path d="m329.07,45.432c.157-2.819-.781-7.674-3.601-7.988-2.976-.312-3.603,4.542-3.603,7.206 0,3.132.783,7.047 3.445,7.517 1.565.314 3.446-3.132 3.604-5.481-.784-.157-1.723-.469-1.723-.469s-.315,3.445-1.881,3.445c-1.408.157-1.723-3.289-1.723-5.012s.471-4.544 1.723-4.544c1.408-.155 2.037,3.603 1.881,4.856 .62.312 1.87.47 1.87.47z" fill="#ebd23d" stroke="#000" stroke-miterlimit="2.4142" stroke-width=".072"/>
  <path d="m382.64,57.022c-4.855.784-5.482-1.565-7.361-.469-1.254.626-5.325-1.096-7.362-.158-1.565.784-3.601-1.096-4.696-.626-2.038.941-3.761-1.723-5.641-1.096-1.409.469-4.229-2.192-6.266-1.565-2.191.782-3.914-2.664-5.951-1.723-1.254.627-2.82-2.192-5.168-1.565-.628.312-3.444-2.037-4.23-1.88-2.351.313-4.855-4.229-6.264-3.915-.313.155-.629,0-.629.313 0,.626-1.877.157-1.877-.313 0-.627-.94-.314-1.411.939-.625,2.349 1.725,4.699 3.288,4.542 1.567-.312 2.664,2.038 4.074,1.88 2.818-.314 1.879,1.88 4.854,1.88 3.134,0 2.508,1.877 4.388,1.408 1.721-.627 3.131,1.723 5.012,1.253 1.723-.469 2.976,1.723 4.854,1.411 2.665-.315 2.977,1.408 5.014,1.25 1.878-.155 4.07,1.723 6.108,1.096 2.192-.781 4.698,1.411 6.735.472 2.035-.784 3.289,1.251 5.481.155 1.41-.627 4.856,1.253 6.42-.155 1.725-1.411 3.603-.314 3.603-.314s-.45-3.132-2.96-2.82z" fill="#e5e2cd" stroke="#000" stroke-linecap="round" stroke-linejoin="round" stroke-miterlimit="2.4142" stroke-width=".144"/>
  <path d="m323.59,40.578s-1.566,4.228.156,7.047c-.627-2.035-.313-5.324.314-6.577l-.47-.47z" fill="#d9b226"/>
  <path d="m323.91,42.144c.938,1.096 2.504-1.253 2.504-1.253s-.783-.784 0-2.036c.47-.784 1.099-.157 1.099-.157s.625-1.88.313-3.446c-.313-1.565.783-1.411.625-2.977 0-1.565 1.254-.784 1.097-3.446 0-2.819 2.192-2.506 1.878-5.011-.155-2.507 2.351-1.411 2.507-3.291 0-1.878 2.978-.625 3.761-2.035 .624-1.253 4.541.469 5.48-.784 1.097-1.251 2.193.784 3.604.157 1.254-.626 2.819.939 3.915,0 .941-.939 3.134-.626 3.134-.626s-2.192-2.35-2.822-1.566c-.624.627-2.192-1.095-3.6-.314-1.254.784-2.662-1.096-3.758-.312-1.1.626-2.822-.469-3.761.312s-3.289-.312-3.917.784-2.975.157-3.446,1.565c-.313,1.253-2.975,1.253-2.975,2.819-.156,1.567-1.722,2.194-1.41,3.76 .472,1.409-2.035,1.723-1.724,3.603s-1.251,2.035-.938,3.758-1.724,3.134-1.409,4.542c.34,1.254-2.48,3.291-.13,5.954z" fill="#e5e2cd" stroke="#000" stroke-linecap="round" stroke-linejoin="round" stroke-miterlimit="2.4142" stroke-width=".144"/>
  <path d="m324.84,51.542s-2.349-1.411-2.819-6.579c-.156,2.507.471,6.265 2.819,6.892v-.313z" fill="#d9b226"/>
  <path d="m325.47,47.625c-1.565.314-1.88,3.603-.157,5.168 1.881,1.723.313,3.291 2.194,4.699 1.721,1.411 1.409,3.604 3.289,4.388 2.034.626 3.603,3.915 5.953,4.072-2.038-2.349-4.232-4.387-4.388-5.795-.312-1.411 0-2.507-1.565-3.446-1.41-.784-.158-3.134-1.568-3.917-1.407-.626.314-2.819-1.096-3.601-1.39-.628-.6-2.038-2.64-1.568z" fill="#e5e2cd" stroke="#000" stroke-linecap="round" stroke-linejoin="round" stroke-miterlimit="2.4142" stroke-width=".144"/>
  <path d="m326.57,47.469s2.037,1.409 3.6.938c1.568-.469 2.351-.157 1.568.313-.938.471.157,1.567 1.41,1.41 1.254-.312 3.76,0 2.663.313-1.097.472.783,1.723 2.037,1.411 1.408-.313 3.288-.313 2.504.157-.783.626 1.097,1.409 2.192,1.253 1.254-.157 3.134-.627 2.507.155-.783.784 1.409,1.41 2.662,1.41 1.096-.157 3.918-.314 3.134.312s1.88,1.253 3.133,1.097 2.975-.155 2.351.627c-.63.784 2.192,1.096 3.131.784s3.603-.47 2.975.313 2.037.784 3.134.314c1.097-.314 2.661-.469 1.722.312-.625.784 3.134.472 4.073-.155 1.099-.471 2.976-.784 2.507,0-.627.627 1.879,1.251 3.133.47 1.097-.627 3.759-.941 3.446,0-.472.781 1.096,0 1.563-.315 .314-.312 2.507.472 2.664.784-3.288-.469-2.664,2.192-5.481,1.253-4.074-1.411-3.446.627-6.424-.314-3.132-.939-2.348.941-6.106-.312-3.289-1.253-3.289.784-7.048-.784-3.288-1.565-1.881.314-4.542-1.253-1.41-.939-2.037-.782-2.507-.625-2.349.312-3.603-1.88-5.168-1.568-2.195.626-3.291-1.565-4.857-1.096-2.034.469-1.408-1.253-4.542-1.408s-1.88-2.038-4.542-1.88c-2.504.157-2.037-1.88-4.387-1.88-2.47-.001-2.47-2.036-2.47-2.036z" fill="#b8b5a4"/>
  <path d="m326.72,47.938s0,1.253 2.038,1.565c2.976.315 2.037,1.88 4.698,1.88 2.82.157 1.409,1.723 4.542,1.88s2.35,1.723 4.388,1.408c1.878-.312 2.661,1.723 5.167,1.253 1.567-.312 2.664,1.723 5.013,1.411 2.351-.315 2.662,1.408 4.699,1.25 1.878-.155 3.446,1.88 6.42,1.096 2.35-.624 3.603,1.568 6.579.472 2.038-.627 3.134,1.251 5.326.312 1.877-.939 3.916,1.411 6.577-.312 1.88-1.096 3.134-.472 3.134-.472s-1.254-1.096-3.291-.155c-2.192.782-3.289.313-3.131.155s-.158-.781-1.412-.312c-1.721.784-4.541.784-4.698,0s-.467-.469-1.252-.157c-.783.157-3.914,1.411-4.854,0-.313-.155-.628-.469-1.41-.155-.938.155-3.603.312-3.917-.314-.313-.784-.939-.313-2.036-.313-1.252,0-3.131-.157-3.914-.941-.313-.312.155-.626-1.096-.626-1.254-.155-3.446.157-4.544-1.097-.155-.312.156-.469-1.097-.469-1.096,0-3.132.157-4.385-.939-.313-.315-.157-.627-1.254-.472-1.253.157-2.974,0-3.445-1.096-.313-.313 0-.626-1.409-.313s-2.506-.626-2.976-1.096c-.47-.626-.157-.941-1.568-.626-1.409.157-2.505-.627-2.816-1.254-.158-.626.312-.626-.785-.626-.95.317-2.67.003-3.3-.937z" fill="#828279"/>
  <path d="m382.8,183.74c-.158.938-.158,2.035.155,2.659 .94,2.04-.313,7.05 1.096,8.46s.158,4.542.941,6.109c.624,1.564-.783,4.228.467,5.639s-.154,5.638 1.411,6.892c1.725,1.253-.469,5.481 1.41,6.734 2.035,1.253-.157,4.384 1.566,5.952 1.879,1.568.313,5.639 1.879,7.206 1.567,1.406-.156,5.634 2.036,6.573 2.037.943.783,4.541 2.349,5.643 2.351,1.563.785,4.541 2.351,5.948 1.723,1.567.314,4.698 1.88,5.795 2.037,1.254 0,4.543 2.505,6.109 2.507,1.411.314,4.385 2.82,5.639s.782,5.014 3.289,6.109c2.507,1.097.627,4.543 3.916,5.167 3.133.786 1.252,4.542 3.603,4.542 2.192,0 2.192,4.698 4.385,4.231 1.88-.313 1.724,3.913 4.072,4.385 2.192.314 2.664,3.917 5.326,4.07 2.505.315 2.976,3.76 6.265,3.604 2.819-.157 3.76,3.289 5.952,2.821 1.879-.472 3.447,2.659 5.953,2.192 2.349-.472 3.289,2.034 6.107,1.254 2.819-.94 2.662,1.877 5.48.78 2.978-1.096 3.758,1.412 6.108.63 2.195-.63 2.664-4.232.472-5.015s-3.918-1.096-5.17,0-3.758-1.725-5.482-.78c-1.565,1.096-3.131-2.193-5.48-1.727s-4.541-2.349-6.268-1.877c-1.878.625-3.6-2.979-5.165-2.35-1.726.467-4.23-3.446-5.64-2.821-1.41.786-2.664-3.913-4.387-3.604-1.88,0-2.818-4.228-4.387-4.069-1.409.156-1.563-4.228-3.131-4.075-1.723.156-2.036-4.07-4.856-4.695-2.817-.472-2.035-4.856-3.446-5.013s-2.035-5.171-3.289-5.328c-1.565-.153-.78-5.168-2.818-5.792-1.881-.472-.784-5.171-2.661-5.643-1.724-.624-.315-4.694-1.568-5.166-1.254-.629-.468-5.323-2.036-6.109-1.41-.939-.156-5.481-2.034-5.953-2.038-.468-1.097-4.695-2.35-5.477-1.254-.942-.784-5.953-1.881-6.738-1.096-.625-.156-4.542-1.723-5.949-1.567-1.567.471-4.231-1.097-5.952-1.566-1.882.158-7.049-1.566-7.83-1.879-.629.156-5.485-1.097-6.738s.472-5.639-.782-7.202c-1.254-1.411.314-3.445-.938-5.795-.784-1.411-.472-2.35-.472-3.446h-4.06z" fill="#e5e2cd"/>
  <path d="m386.87,183.74c.156-.939.156-1.883-.469-2.979-1.409-2.817.469-6.263-.785-8.456s.785-5.952-.938-7.834c-1.565-2.034 1.097-4.227-.157-5.792-1.253-1.568 1.726-6.579 0-8.302-1.565-1.565.627-5.795-.312-7.361-.941-1.411.312-7.049-.471-8.459-.938-1.565.626-5.481-.314-6.578-.782-.941.627-4.072-.156-5.638-.626-1.567 1.097-4.856-.155-6.264s.938-5.171 0-6.422 .783-5.014-.471-6.736c-1.252-1.565.782-4.073.158-6.265-.786-2.035 1.409-4.072-.158-6.892-1.566-2.977 1.097-5.795 0-7.204s1.409-4.857.313-6.422 1.254-4.542.157-6.109 1.408-2.975.783-5.481c-.313-1.565 3.131-1.565 2.506-3.758-.785-2.35-1.881-2.35-2.506-2.195-.628.158-3.76.941-3.291,2.038 .785,2.192-2.191,2.504-1.408,6.265 .313,1.565-1.254,3.603-.472,5.481 .63,2.037-.938,2.821-.312,5.168 .783,2.35-.942,2.664-.157,5.326 .94,2.665-1.097,4.542 0,6.266 1.099,1.879-.785,3.915.157,5.795 1.097,2.037-.784,3.446 0,5.638 .941,2.35-.942,4.699 0,6.58 1.097,1.722-.784,4.072.312,6.264s-1.254,5.326.314,7.676c1.565,2.349-1.253,4.854 0,6.577 1.254,1.88-.626,4.699.471,6.892 1.095,2.037-1.254,4.387.312,6.579 1.254,2.192-1.097,4.073.157,6.892 1.097,2.977-1.254,5.483.157,7.361 1.41,2.038-.781,5.952.939,8.615 1.566,2.974-.939,5.324.626,7.673 1.566,2.664-1.097,5.17.47,7.206 1.097,1.41.784,3.132.629,4.856h4.06z" fill="#e5e2cd"/>
  <path d="m380.6,60.625c.785,2.192-2.191,2.504-1.408,6.265 .313,1.565-1.254,3.603-.472,5.481 .63,2.037-.938,2.821-.312,5.168 .783,2.35-.942,2.664-.157,5.326 .94,2.665-1.097,4.542 0,6.266 1.099,1.879-.785,3.915.157,5.795 1.097,2.037-.784,3.446 0,5.638 .941,2.35-.942,4.699 0,6.58 1.097,1.722-.784,4.072.312,6.264s-1.254,5.326.314,7.676c1.565,2.349-1.253,4.854 0,6.577 1.254,1.88-.626,4.699.471,6.892 1.095,2.037-1.254,4.387.312,6.579 1.254,2.192-1.097,4.073.157,6.892 1.097,2.977-1.254,5.483.157,7.361 1.41,2.038-.781,5.952.939,8.615 1.566,2.974-.939,5.324.626,7.673 1.566,2.664-1.097,5.17.47,7.206 1.725,2.192-.157,5.481.784,7.516s-.313,7.05 1.096,8.46 .158,4.542.941,6.109c.624,1.564-.783,4.228.467,5.639s-.154,5.638 1.411,6.892c1.725,1.253-.469,5.481 1.41,6.734 2.035,1.253-.157,4.384 1.566,5.952 1.879,1.568.313,5.639 1.879,7.206 1.567,1.406-.156,5.634 2.036,6.573 2.037.943.783,4.541 2.349,5.643 2.351,1.563.785,4.541 2.351,5.948 1.723,1.567.314,4.698 1.88,5.795 2.037,1.254 0,4.543 2.505,6.109 2.507,1.411.314,4.385 2.82,5.639s.782,5.014 3.289,6.109c2.507,1.097.627,4.543 3.916,5.167 3.133.786 1.252,4.542 3.603,4.542 2.192,0 2.192,4.698 4.385,4.231 1.88-.313 1.724,3.913 4.072,4.385 2.192.314 2.664,3.917 5.326,4.07 2.505.315 2.976,3.76 6.265,3.604 2.819-.157 3.76,3.289 5.952,2.821 1.879-.472 3.447,2.659 5.953,2.192 2.349-.472 3.289,2.034 6.107,1.254 2.819-.94 2.662,1.877 5.48.78 2.978-1.096 3.758,1.412 6.108.63 2.195-.63 2.664-4.232.472-5.015s-3.918-1.096-5.17,0-3.758-1.725-5.482-.78c-1.565,1.096-3.131-2.193-5.48-1.727s-4.541-2.349-6.268-1.877c-1.878.625-3.6-2.979-5.165-2.35-1.726.467-4.23-3.446-5.64-2.821-1.41.786-2.664-3.913-4.387-3.604-1.88,0-2.818-4.228-4.387-4.069-1.409.156-1.563-4.228-3.131-4.075-1.723.156-2.036-4.07-4.856-4.695-2.817-.472-2.035-4.856-3.446-5.013s-2.035-5.171-3.289-5.328c-1.565-.153-.78-5.168-2.818-5.792-1.881-.472-.784-5.171-2.661-5.643-1.724-.624-.315-4.694-1.568-5.166-1.254-.629-.468-5.323-2.036-6.109-1.41-.939-.156-5.481-2.034-5.953-2.038-.468-1.097-4.695-2.35-5.477-1.254-.942-.784-5.953-1.881-6.738-1.096-.625-.156-4.542-1.723-5.949-1.567-1.567.471-4.231-1.097-5.952-1.566-1.882.158-7.049-1.566-7.83-1.879-.629.156-5.485-1.097-6.738s.472-5.639-.782-7.202c-1.254-1.411.314-3.445-.938-5.795-1.411-2.35.467-3.761-.94-6.425-1.409-2.817.469-6.263-.785-8.456s.785-5.952-.938-7.834c-1.565-2.034 1.097-4.227-.157-5.792-1.253-1.568 1.726-6.579 0-8.302-1.565-1.565.627-5.795-.312-7.361-.941-1.411.312-7.049-.471-8.459-.938-1.565.626-5.481-.314-6.578-.782-.941.627-4.072-.156-5.638-.626-1.567 1.097-4.856-.155-6.264s.938-5.171 0-6.422 .783-5.014-.471-6.736c-1.252-1.565.782-4.073.158-6.265-.786-2.035 1.409-4.072-.158-6.892-1.566-2.977 1.097-5.795 0-7.204s1.409-4.857.313-6.422 1.254-4.542.157-6.109 1.408-2.975.783-5.481c-.313-1.565 3.131-1.565 2.506-3.758-.785-2.35-1.881-2.35-2.506-2.195-.61.172-3.74.955-3.28,2.051z" fill="none" stroke="#000" stroke-linecap="round" stroke-linejoin="round" stroke-miterlimit="2.4142" stroke-width=".144"/>
  <path d="m398.15,33.214s-2.192-1.096-3.132-.939c-1.253.312-2.035,2.192-3.76,2.662-1.563.315-.624,2.038-1.721,3.761-1.254,2.506-.939,5.638-1.567,6.577-1.254,1.568-.313,4.856-.625,5.953-.629,1.566.625,4.073.312,5.953-.312,1.566.155,3.289.627,4.073-.627-.314-3.916-5.483-2.664-5.014 1.097.627 0-2.193-.469-3.288-.47-1.097-.47-3.132.157-2.507s.941-2.036.312-2.974c-.782-1.096-.312-3.291 0-2.664s1.254-1.253.785-2.35c-.313-.939-.313-3.132.312-2.505 .472.627 1.254-.941 1.254-2.192-.158-1.253 0-3.76.472-2.976 .467.938 1.408-.784 1.408-1.411 .157-.784 1.723-2.662 1.723-1.723-.157,1.096 1.41.157 1.568-.47 .312-.626 1.721-1.565 1.721-.784-.158.627.628.627 1.252.47 .627-.155 1.412.157 1.254.626-.3.471.33.314.8,1.722z" fill="#b8b5a4"/>
  <path d="m327.2,48.721 1.096.626c.47.314.627.941.47,1.723-.313.784-.313,1.253.469,1.723 1.568.941 0,3.133 1.568,4.073 2.034,1.096 1.254,3.76 1.878,4.387 .629.627 4.075,4.699 4.075,4.699s-.786.47-3.292-2.037c-2.504-2.662-2.819-1.88-3.915-3.915-1.097-2.35 1.096-1.411-.626-3.133s-1.723-2.662-.942-2.35c.785.314.158-1.409-.467-2.036-.629-.784-1.725-2.037-.786-1.88 .473.158.629-.938 0-1.096-.313-.312-1.563-1.565-.781-1.879 .77-.157 1.25,1.095 1.25,1.095z" fill="#b8b5a4"/>
  <path d="m327.51,38.698s.467-1.565.313-3.761c0-1.565.783-.938.625-2.662 0-1.723 1.097-.469 1.097-3.289 0-2.976 1.878-2.507 1.878-4.856 .158-2.976 2.192-1.565 2.507-3.603 .157-1.878 2.822-.625 3.761-2.035s3.915.626 5.638-.939c1.411-1.096 1.566.939 3.604.155 1.565-.469 2.192,1.096 3.915.157 1.096-.784 2.977-.626 2.977-.626s-1.568-.47-2.508-.627c-.626-.155-1.566-.469-1.095.157s-.782.939-1.412.313c-.78-.625-2.349-.938-1.721-.313 .469.784-1.724.313-2.037-.157-.469-.469-2.193-.939-1.88-.469s-.469,1.253-1.41.938c-.625-.469-2.036-.625-1.721-.155 .47.626-1.411.626-2.192.313-.629-.158-2.35,0-1.567.314 .938.469-.782,1.096-1.254.939-.782-.313-2.35.157-1.721.469 .781.157-.473,1.723-1.568,2.037-.938.312-1.877.627-1.253.939 .783.157.626,1.724-.315,2.035s-.78,1.099-.155.941 .155,1.409-1.252,2.192c-.938.47-.627,1.096 0,1.096s.312,1.88-.627,2.35c-.782.313-1.411,1.565-.782,1.411 .782-.157.471,1.565-.314,2.192-.938.469-1.253,2.035-.469,1.565s-.158,1.723-.47,2.037-.939,1.723 0,2.662c-.01-1.877.77-2.347 1.4-1.72z" fill="#b8b5a4"/>
  <path d="m388.59,61.252s-1.098-1.568-.786-3.761-.938-4.699-.312-6.107c.47-1.41-.627-3.76.47-5.795 1.253-2.038.313-3.915 1.41-6.266 1.254-2.506.782-4.072 1.878-4.229 2.507-.626 2.35-2.662 4.075-2.662 1.096,0 2.973.939 2.973.939s-1.565-.784-1.565-1.096c-.154-.312 0-.626-.627-.469-.624.312-1.722.312-1.565,0 0-.157-.156,0-.469.469-.158.312-1.568,1.723-2.035,1.565-.472,0-.786-.312-1.099.315-.155.627-1.096,1.88-1.408,2.035s-.314.158-.314.784c0,.784-.314,3.446-.781,3.758s-.785.471-.63,1.253c0,.941-.312,4.387-.782,4.23-.313-.158-.156.781 0,1.408s.158,3.917-.313,3.917-.467.625-.155.939c.155.313.939,3.915.469,4.385s-.469.941 0,1.722c.33.786.02,1.725 1.58,2.666z" fill="#828279"/>
  <path d="m336.75,65.951s-.786.47-3.137-1.879c-2.348-2.192-1.721-2.819-2.034-3.289-.471-.472-1.254-1.723-.782-2.35 .312-.626-.785-1.723-1.41-2.35-.47-.626-.627-1.253-.315-1.253 .472,0-.312-1.879-.781-2.35-.469-.626-.627-1.096-.157-1.41 .313-.313 0-1.723-.625-2.192 .782.314 1.563.626 1.252,2.192-.47,2.664 1.252.626 1.252,4.072 0,2.195 1.881.941 2.351,4.23 .155,2.192.469,1.88 1.251,2.977 .94.939 3.13,3.602 3.13,3.602z" fill="#828279"/>
  <path d="m327.51,38.698s.467-1.565.313-3.134c0-2.35.625-1.408.625-3.289 .158-1.88 1.097-.469 1.097-2.977 .157-3.603 1.878-2.504 1.878-5.168 .158-3.131 1.883-1.253 2.507-3.603 .314-2.035 2.664-.47 3.761-2.035 1.096-1.411 3.603.626 5.638-.939 1.566-1.096 1.723.939 3.604.155 1.408-.469 2.192,1.253 4.069,0 .941-.782 2.351-.469 2.351-.469s-2.351-.47-2.505,0c0,.469-1.253.941-2.194.314-.782-.626-1.096-.626-1.096-.314 .156.314-1.721.469-2.192,0-.625-.313-1.721-.782-1.721-.47 0,.47-1.727,1.253-2.351.939-.472-.469-.783-.313-.783,0 .155.157-1.724.314-2.351.157-.783-.313-.94,0-.783.314 0,.313-1.096.938-2.036.782s-1.41-.157-1.253.157-.313,1.566-1.096,1.88c-.627.312-1.568.782-1.254.782 .469,0-.47,2.037-.781,2.192-.315.314.154.627-.157,1.254-.158.469-1.097,2.192-1.88,2.349 .47.314.47,2.038.154,2.507-.154.627-1.408,1.253-.938,1.723 .627.626-.312,2.35-.625,2.662-.472.315-.472.626-.157.784s.157,1.408-.314,1.88-.627,1.722-.627,1.722c.17-.312.8-.625 1.11-.155z" fill="#828279"/>
  <path d="m327.35,39.951c-.472-.627-.629-1.41-.156-1.096 .627.627 1.41,2.82 1.41,4.542s-.472.47-.472-.314-.47-2.663-.78-3.132z" fill="#fff2ba"/>
  <path d="m327.2,43.867s-.315.157 0,.626c.313.313 1.723.627 2.034.157 .472-.626-.157-.472-.157-.472s.157.472-.312.472-1.56-.157-1.56-.783z" fill="#b8b5a4"/>
  <path d="m311.53,40.42c-.155-4.385 2.819-7.518 3.603-7.988-.469-.626-.156-1.88-.156-1.88s-3.758,2.976-4.388,5.168c0-1.41 1.726-4.072 1.568-5.638-.938.157-2.664-.626-2.664-1.253-.312.784.157,2.192-.938,2.662-1.724.784-5.64,2.665-1.724,2.665-2.035,2.035-2.662,2.35-7.203,11.434l2.349-.939s-2.664,3.916-3.133,6.108c1.409-1.254 2.506-1.254 2.506-1.254-1.097,2.82-4.386,5.638-5.011,7.049 1.566-.784 2.193-1.096 2.817-.314-1.878,1.568-4.071,5.641-4.7,8.614 .942-.781 2.038,0 1.411,1.568-.782,1.722-1.878,4.699-1.721,5.795 .938-.941 1.878-1.568 1.878-1.568s.157,1.096-.939,5.169c-1.254,3.917-1.254,4.072-.313,3.917 .783-.314-.625,4.542-.625,4.542s1.563-1.568 2.505-.941c.784,3.445 5.325,11.748 11.121,14.567 5.639,2.976 13.157,7.206 15.036,10.18 1.721,2.819.312-4.072-1.096-5.168 5.009,5.795 5.481,10.182 8.926,11.905 .782.312-2.817-6.11 0-3.291 2.975,2.976 7.674,7.99 11.12,9.086 0-1.097-.625-3.134 0-3.291s5.796,4.856 6.579,2.818c.627-2.192 3.446-.155 3.446.784 .156-2.977.156-5.011.469-5.481 .784,1.096.938,2.349 1.411,2.504 .313,0-.473-7.518 0-8.771 .157-.625 1.565,2.195 1.565,2.195s.94-1.723-.627-7.206c-1.565-5.326 1.096-4.228 2.35-1.723 .783-1.88-2.034-3.446-1.096-5.795 .783-1.723-1.724-3.758-.938-7.204 .469-1.723-1.881-2.665-1.412-3.915 .785-1.88.315-3.292.785-4.857 .783.47 1.407,1.253 1.407,1.253s-.469-1.565-.78-2.037c-1.097-2.193-.94-3.601-5.171-5.324 0,0 .313,2.819-.94,7.361-.312,1.566-1.096-4.542-3.603-6.265 .158,2.35-.782,8.145-.782,8.145s-2.976-4.856-3.131-7.207c0-2.192-1.725-5.168-3.603-5.795s-4.23-7.361-7.05-8.614-1.879-3.446-3.917-4.854c-1.563-.784.314-2.977-2.505-5.171-2.662-1.878-3.758-5.481-2.192-12.216-.47-.627-.47-1.723-.941-.784s-2.192,4.7-1.565,7.049c-.783-2.977-.312-7.049.47-8.615-.781-.627-1.877,0-1.877-.627-.627.47-.158,4.542-2.192,6.422 .467-2.349.781-4.699.312-5.483-.941,1.41-2.194,2.037-2.194,2.037s.941-1.568.941-3.603c0-.939 1.88-2.819 1.88-2.819s-4.09,1.093-5.35,6.888z" fill="#b89243"/>
  <path d="m309.18,63.445s-.94,7.361 2.976,11.121c1.254,1.251 2.35,4.697 2.35,4.697s.626-3.132-.315-5.169c2.193,3.133 2.038,6.579 4.857,7.833-1.253-2.037-1.097-3.603-1.097-3.603s3.289,2.977 4.072,5.483c.627-1.411.471-2.507.471-2.507s.78,5.326 4.384,7.676c-.625-1.568-.781-3.446-.781-3.446s2.349,5.323 5.011,6.419c2.505,1.096 3.291,2.35 3.291,2.35s-1.096-2.192-2.037-3.446c1.723.315 4.543,3.917 4.543,3.917s-1.881-3.917-4.074-5.326c-2.192-1.568-5.01-5.014-5.48-7.361-.472.781 1.721,5.48 1.721,5.48s-3.913-5.011-4.228-6.734c-.627-2.819-2.664-4.542-2.664-4.542s1.254,2.505 1.096,3.601c-1.407-.782-2.346-3.915-2.346-3.915s-.627,1.253-.158,2.192c-1.096-.782-2.976-3.289-3.133-5.169-.155,1.096.157,2.664.313,3.133-.627-.784-2.192-1.565-2.976-3.76-.941-1.878-.785-2.504-.785-2.504s-.467,1.722-.312,2.349c-.784-1.096-1.881-2.664-2.192-4.387-.469.941 0,2.664 0,2.664s-2.03-1.878-2.5-7.046z" fill="#a2823a"/>
  <path d="m331.74,76.601c0,2.193 1.878,5.953 4.229,7.676-.626-1.411-.626-2.977-.626-2.977s2.819,2.819 3.446,5.011c.47,2.193 0,3.603 1.41,5.326-.313-2.35.155-3.446.313-4.385 .155-1.098 0-1.723 0-1.723s1.096,2.347 1.251,3.915c.629-1.096.629-2.192.629-2.192s1.096,1.723 1.565,3.758c.313,2.035 2.036,3.289 2.036,3.289s-.94-1.877-.94-3.446c.785,1.411 2.506,2.35 3.289,4.542 .627,2.35 2.037,2.665 2.037,2.665s-1.097-1.724-.938-3.134c1.251,1.096 1.408,3.446 2.816,4.542 .157-1.251.629-1.566.629-1.566s.782,1.723 2.036,2.35c1.096.783 1.877,1.565 2.034,2.192 .314-1.253-1.878-3.915-2.507-4.699-.781-.626-1.254-3.289-1.254-3.289s-.624,1.096-.467,2.037c-.94-1.098-1.096-2.35-1.096-2.35s-.315,1.566 0,2.505c-.941-1.878-1.41-2.976-2.507-4.072 .314.784.314,1.411.314,1.411s-1.726-.626-2.037-1.88c-.313-1.096-.627-2.976-1.41-3.758v2.349s-1.881-1.722-2.506-4.072c-.628-2.35-2.192-3.761-2.192-3.761s.782,2.038.468,2.819c-1.878-1.877-1.251-3.758-2.816-4.699 .467,1.253.312,2.821.312,2.821s-2.349-1.723-2.819-3.917c-.156.941 0,1.568 0,1.568s-3.75-1.719-4.69-4.852z" fill="#a2823a"/>
  <path d="m315.6,49.192s-1.254,5.796 1.253,8.615c-.472-1.411.157-2.665.157-2.665s2.192,2.82 1.877,5.796c-.156,2.976 2.039,4.856 2.039,4.856s-1.099-2.507-.313-3.915c.782,2.662 2.035,3.915 1.721,6.107 .627-.939.627-2.977.627-2.977s.312,2.664 1.253,3.446c.313-.939.941-1.88 1.097.627 .157,2.35 1.408,4.073 1.408,4.073s-.624-2.663-.154-3.289c.94.938 1.565,3.6 1.565,3.6s0-2.974-1.097-4.542c-1.253-1.566-.938-4.073-.938-4.073s-.627.626-.627,1.568c-.941-.784-1.88-1.568-1.88-2.507s-.157-1.88-.782-1.565-2.35-1.723-2.35-3.603c0-1.723-.472-2.035-.628-1.408-.313.469-2.975-2.507-2.348-5.171-.627.471-.784,1.879-.784,1.879s-1.25-2.347-1.1-4.852z" fill="#a2823a"/>
  <path d="m309.97,44.493s-1.41,3.132-1.097,5.169c.47,2.192 1.097,3.603.625,5.168 .785-1.096.629-3.446.629-3.446s1.097,3.446.781,4.854c-.314,1.568 0,3.76.315,4.387 .156-1.723.469-2.819.469-2.819s.938,1.723.783,3.131c-.156,1.411.94,2.976.94,2.976s-.158-1.723 0-2.35c.313-.469 1.253,2.819 1.096,3.446s1.723,1.565 1.723,1.565-1.253-1.723-1.253-2.974c.156-1.568-.941-2.977-1.252-2.819-.313,0-.94-1.723-.785-2.507-.625-.469-.625,0-.625-2.192 .156-2.038-.627-2.194-.627-2.194-.157.941-.313.784-.313.784s.313-1.408-.314-2.976c-.48-1.565-2.2-3.758-1.1-7.203z" fill="#a2823a"/>
  <path d="m346.77,81.144s.782,2.349 2.35,2.819c1.565.627 1.877,2.506 1.877,2.506s.314-.938 0-1.723c.785,1.253.941,2.35 1.254,3.915 .472,1.566.938,2.037.938,2.037l.158-1.88s.628,1.88.783,2.977c.158,1.251.785,1.723.785,1.723s-1.881-.941-2.036-1.723c-.157-.941-1.253-2.35-1.253-2.35s0,1.408.155,2.192c-.471-.939-1.409-3.133-1.252-4.073-.157.784-.313,2.35-.313,2.35s-.158-2.819-1.254-4.856c.313,1.253-.314,2.349-.314,2.349s.156-1.253-.624-2.349c-.95-.939-1.27-3.914-1.27-3.914z" fill="#a2823a"/>
  <path d="m344.58,97.119s.313,2.507 2.192,4.072c1.723,1.568 1.41,2.664 1.41,2.664s.313-1.568-.472-2.819c.939.627 1.726,1.878 2.036,3.601s1.252,2.195 1.252,2.195-.624-1.254-.467-2.195v-1.251s.467,2.504 1.563,3.288c.941.782 1.254,2.505 1.254,2.505s.628-2.035-.468-3.289c-.941-1.253-1.253-4.072-.941-4.385-.47.157-.627,2.193-.627,2.193s0-1.411-1.253-2.507c-1.096-1.096-2.034-1.878-1.878-2.35-.472.627.468,2.037.468,2.037s-2.65-.6-4.06-3.731z" fill="#a2823a"/>
  <path d="m308.87,35.094s-3.288,2.507-4.385,5.796c1.097-1.096 2.505-1.566 2.505-1.566s-1.723,1.724-2.037,3.916c-.155,2.192-2.036,3.915-2.036,3.915s1.881-.313 2.351-1.409c-.47,1.723-1.568,3.446-1.254,5.324 .472-1.251 1.096-1.566 1.096-1.566s.473,1.88-.156,3.289c-.782,1.568 2.192,6.11 2.192,6.11s-1.878-4.387-1.096-7.049-.782-5.169 1.41-8.927c-.938,0-1.565,1.565-1.565,1.565s.469-2.506 1.565-3.603c.938-1.096 1.097-2.192.783-3.132-.469.313-1.253.625-1.253.625s1.12-2.192 1.9-3.288z" fill="#dfc268"/>
  <path d="m302.45,55.457s-2.349,2.192-2.507,5.481c1.099-1.566 1.565-1.409 1.565-1.409s-1.252,1.878-1.252,4.854c0,3.133-.625,3.916-.625,3.916s1.095-.469 1.095-2.504c.158-1.88 1.097-2.507 1.097-2.507s-.938,5.011.315,7.833c.155-2.194.467-4.073.467-4.073s1.096,4.073.629,6.108c-.629,2.037 1.253,3.915 1.253,3.915s-1.253-2.819-.628-4.385c.628.782.628,2.036.628,2.036s.782-1.409.155-3.601c-.47-2.037-.941-3.917-.627-5.641-.47.784-.781,1.723-.781,1.723s-.472-2.504 0-4.227c.625-1.568.155-2.665.155-2.665s-.313,1.253-.784,1.723c-.155-.938-.155-2.662.472-3.915-.472.157-.783.627-.783.627s-.78-1.724.16-3.289z" fill="#dfc268"/>
  <path d="m299.63,73.625s-1.881,2.976-.939,6.109 .782,4.385.782,4.385 .627-1.88.469-3.758c1.254,2.192.783,5.481 2.351,7.831 1.565,2.35 2.193,2.819 2.193,2.819s-1.568-2.976-1.568-5.011c1.254,1.723 2.351,3.601 2.978,5.481 .627,2.038 1.88,3.291 1.88,3.291s-.784-1.725-.784-2.976c0-1.411-.157-2.35-.157-2.35s2.195,3.601 2.507,5.169c.155,1.722 2.35,3.131 2.35,3.131s-1.409-1.878-1.409-3.289-.313-2.035-.313-2.035 1.723,1.408 2.506,4.072c.313-.941.313-1.723.469-2.037 .94,2.037 1.882,3.604 1.882,5.012 .467-1.408-.157-3.758-.157-3.758s.781,1.723 3.603,2.819c2.975,1.253 3.758,3.289 3.758,3.289 0-1.409-1.095-3.446-1.095-3.446s4.071,3.446 4.854,6.11c.938,2.662 2.507,4.228 2.507,4.228s-1.096-2.977-.939-4.542c1.096.941 2.192,4.542 3.915,5.795 1.724,1.411 3.446,3.446 3.446,3.446s-.627-2.349-1.408-3.603c-.786-1.096-3.292-1.878-3.292-4.697 1.409.625 2.978,3.289 2.978,3.289s-1.724-4.387-3.131-5.638c-1.412-1.096-1.726-4.073-4.075-6.422 .471,1.097.471,2.662.157,3.289-.47-1.88-1.411-4.385-2.35-5.169-.471,1.096 0,3.446 0,3.446s-2.661-1.88-3.446-4.542c-.938-2.819-3.288-3.446-3.288-3.446s1.878,1.566 1.878,3.446c.156,2.035.783,3.133.783,3.133s-2.348-1.567-3.133-4.072c-.781-2.507-2.66-4.857-2.66-4.857s.155,1.566 0,2.507c-.94-1.096-3.136-2.195-3.291-4.23 0-2.192-1.879-2.507-1.879-2.507 .627,1.096.783,2.819.783,3.917 0,1.251.94,2.504.94,2.504s-2.193-1.096-2.663-4.227-2.192-4.7-2.192-4.7 1.408,3.446.938,5.012c-1.096-1.411-2.506-2.819-2.664-4.856-.312-1.878-1.407-3.446-1.407-3.446s.783,2.821.469,4.073 .314,2.506.314,2.506-2.035-1.723-2.035-5.168c0-3.603-.785-3.603-.785-3.603s.156,2.037-.313,2.819c-.5-1.566-.66-3.601-.34-4.542z" fill="#dfc268"/>
  <path d="m385.3,60.156c.154.782 0,2.504-1.409,2.504s-3.291,2.819-2.037,2.507c1.254-.469 1.409,1.88.313,2.976-1.096.939-2.035,3.446-1.096,2.977 1.096-.627 1.566,2.347.783,3.446s-1.565,4.697-.469,3.446c.938-1.096 1.252,1.409.312,2.662-.784,1.253-2.191,4.385-.938,3.604s1.408,2.192.627,3.288c-.627,1.096-1.568,4.385-.473,3.446s2.351,1.723.941,3.289c-1.254,1.568-2.037,4.073-1.096,3.134 1.096-.939 1.565,2.035.783,3.131-.941,1.253-2.35,5.326-1.096,4.072 1.251-1.409 2.35,1.723 1.251,3.291-1.097,1.409-1.565,3.131-.47,2.35 1.097-.941 1.881,1.878.627,3.601-1.096,1.722-1.723,3.76-.627,2.819 1.097-1.097 1.881,1.568.782,3.291s-1.563,4.072-.313,2.819c1.099-1.253 1.566,1.723.627,3.131-.627,1.411-1.724,5.014-.627,3.761 1.411-1.253 1.723,1.408.47,3.289-1.096,2.037-.939,3.603 0,2.506 .941-1.253 1.88,1.723.784,3.289-1.097,1.723-1.88,4.23-.784,3.289 .784-.627 1.88,1.253 1.88,1.253s-.469-.939-.313-2.504c0-1.568.313-4.857-.156-6.11-1.097-2.507.627-4.699-.314-6.577s.628-4.073-.155-5.953c-.784-1.723.938-4.542-.157-5.953-1.254-1.878.783-5.012 0-6.577-.941-1.568.783-4.699-.627-6.736-1.253-2.036.784-3.289.157-6.265s1.565-3.758-.157-6.892c-1.411-2.977 1.096-5.638.157-7.048-1.096-1.723 1.253-4.697.314-6.42-1.099-2.037 1.251-4.544.313-6.109-1.254-2.192.938-2.663.626-5.481-.156-2.507 3.604-1.411 2.192-4.542-.626-1.723-1.41-1.411-1.41-1.411s.82,1.09.82,1.404z" fill="#b8b5a4"/>
  <path d="m211.92,71.745c-2.663,7.363.783,10.182-1.097,15.82-2.818,9.241 7.988,5.012 12.217,8.302 4.229,2.974 16.76,3.915 8.93-7.206-4.229-6.107-6.11-11.434-8.93-17.229-2.82-5.638-8.3-7.518-11.12.313z" fill="#c19743" stroke="#bd8f3c" stroke-linecap="round" stroke-linejoin="round" stroke-miterlimit="2.4142" stroke-width=".216"/>
  <path d="m245.44 105.11c6.892 3.446 12.53 12.842 13.94 17.229 1.409 4.228-7.83 7.205-15.662 4.228-4.854-1.723-11.277-12.53-8.928-16.445 3.13-5.01 5.63-7.52 10.65-5.01z" fill="#c19743" stroke="#bd8f3c" stroke-linecap="round" stroke-linejoin="round" stroke-miterlimit="2.4142" stroke-width=".216"/>
  <path d="m330.48,239.02c-.157,1.096-.157,4.542-.782,5.796-.472,1.253 1.879-.782 2.192-2.66 .63-3.14-1.25-4.39-1.41-3.14z" fill="#d0af5a"/>
  <path d="m329.39,236.68c.313.625-.158,5.792-.94,7.359-.938,1.568-.313-4.699-.472-5.947-.16-1.57 1.09-2.04 1.41-1.41z" fill="#d0af5a"/>
  <path d="m335.03,243.72c1.41,1.41 11.59,9.869 15.508,12.371 3.913,2.508 11.434,7.679 11.589,8.774 .313,1.097-1.724.625-2.505,1.411-.629.782-1.096-.786-2.664-2.979-1.565-2.351-11.434-8.456-15.193-11.591-3.759-2.975-6.421-3.289-8.146-4.385-1.878-1.097.158-1.721.158-3.133-.01-1.41.62-.94 1.25-.47z" fill="#d0af5a"/>
  <path d="m306.68,252.5c4.071,2.974 9.709,5.323 13.627,7.516 3.914,2.192 20.517,10.809 20.047,12.063s-4.386-.314-5.325.782c-1.097,1.096-.782-2.664-4.542-5.015s-11.434-6.105-15.818-7.987c-4.23-2.035-9.713-4.542-11.591-6.734-1.74-2.04.92-2.66 3.59-.62z" fill="#d0af5a"/>
  <path d="m392.67,230.88c.156.939.472,1.41.783.782 .627-1.097 1.096,0 .469,1.567-.469,1.563.158,5.634.94,4.857 .628-.63 1.567-1.097 1.252,1.248-.156,2.35.94,6.268 1.412,4.699 .469-1.41 1.565-.157 1.41,1.097-.157,1.41-.472,6.577.312,5.166 .785-1.405 1.724-2.035 1.409.787-.47,2.973.783,6.104 1.097,5.008 .313-.938 1.41,0 .783,1.568-.47,1.254.627,5.014 1.096,4.385 .627-.625 1.565-1.253 1.565,1.254 .158,2.349 1.881,5.481 2.192,4.699s1.412-.782 1.097,1.41c-.155,2.35 1.41,5.014 1.882,4.07 .469-.782 1.409-.157 1.564,2.192 .156,2.196 1.568,4.075 1.725,2.821 .157-1.097 1.254-.472 1.565.938 .157,1.411 2.037,4.385 2.505,3.761 .472-.629.629-1.725.941.313 .312,1.879 1.724,4.385 2.037,3.446 .155-.943.938-1.567 1.253-.157 .155,1.254 1.722,3.913 2.192,2.816s.782.472 1.409,1.726c.469,1.254 2.037,2.975 2.195,1.879 .154-1.254 1.407.156 1.407,1.096 .155.938 1.565,2.663 1.724,1.725 .157-.786.624-.938 1.096.158 .627,1.252 4.385,4.385 4.072,2.973-.312-1.567 1.097-.78 1.881.625 .781,1.254 4.228,3.761 3.914,2.35 0-1.563.627-1.721 1.409-.31 .627,1.406 5.014,2.975 4.542,2.034s.784-1.41 1.567-.156c.625,1.253 4.699,2.507 4.699,1.725-.156-.786.782-1.097 1.565-.156 .627.938 4.854,2.816 4.385,1.721-.469-1.254 0-2.351 1.099-1.254 1.097,1.254 6.106,2.35 6.578.938-.94,2.664-2.665,2.35-4.073,1.726-3.29-1.726-3.759.782-6.422-.938-2.662-1.726-2.192,1.096-5.796-.787s-2.974.472-6.106-1.877c-3.447-2.507-2.351.628-5.326-2.351-3.446-2.974-3.761.157-6.735-3.131-3.603-3.917-2.663,0-5.795-3.917-2.821-3.913-2.821-.468-4.542-4.385-.939-2.351-1.096-2.036-2.037-2.036-2.192,0-1.723-4.228-4.385-4.385-2.195-.156-.158-3.445-3.446-4.389-3.603-.938-1.098-3.6-3.914-5.166-2.822-1.412-.158-4.543-3.289-6.11-2.507-1.097.155-3.913-2.822-5.638-2.661-1.721-.156-4.699-2.506-6.11-1.563-.939.157-4.384-1.878-5.948-1.254-1.097.314-4.075-2.192-5.638-2.037-1.412.157-4.699-2.664-5.953-2.036-.786 0-5.009-2.036-6.733-.313-.315-.471-1.097-.471-2.036h1.43z" fill="#b8b5a4"/>
  <path d="m391.25,230.88c-.154-1.725 0-4.075-1.096-4.856-1.879-1.253.472-4.542-1.721-5.952-1.726-.939.312-5.167-1.412-6.734-1.41-1.411 0-5.324-1.41-6.892-1.252-1.411.472-3.289-.469-5.638-.783-1.726.783-4.386-.938-6.268-1.409-1.406.155-5.795-1.097-8.455-.627-1.253.938-4.542-.627-7.363-1.568-2.507 1.253-4.385-.627-7.206-1.408-2.502 1.254-4.699-.783-7.673-1.565-2.194.938-6.109-.782-8.614-.627-.784-.314-1.723-.314-1.723s.314,1.878 1.097,1.409c.626-.626 2.037-1.253 1.096.939-1.096,2.038-.939,4.856-.157,3.76 .628-1.096 1.099-.314.472,2.193-.472,1.564-.784,4.386-.157,3.447 .784-.786.939.781.472,1.721-.314.786-.629,5.795 0,4.385 .782-1.563 1.251-.31.624,1.725-.782,2.035-.469,6.42.314,5.324 .939-1.406 1.409-.938.782,1.725-.782,2.664-.625,6.578.157,5.324 .627-1.254 1.097.629.47,2.507-.783,2.035-.155,5.014.627,4.228 .783-.938.938,0 .472,1.726-.315,1.567-.63,7.205.312,6.109 .939-1.254 1.251.153.784,2.035-.629,1.563-.784,5.323 0,4.542 .625-.629 1.878-.782.938,1.878-.783,2.821-.627,4.699 0,4.385 .782-.153 1.724-.939.939,1.568-.625,2.821 0,5.638.939,5.013 .783-.629 1.253-.157.783,1.411-.312,1.563.158,6.42.627,5.323 .627-1.253 1.724-1.097 1.097.782-.314.938-.158,2.82 0,3.917h-1.4z" fill="#b8b5a4"/>
 </g>
</svg>
