<?xml version="1.0" encoding="UTF-8" standalone="no"?>
<!DOCTYPE svg PUBLIC "-//W3C//DTD SVG 1.0//EN" "http://www.w3.org/TR/2001/REC-SVG-20010904/DTD/svg10.dtd" [
<!ENTITY ns_flows "http://ns.adobe.com/Flows/1.0/">
	<!ENTITY ns_extend "http://ns.adobe.com/Extensibility/1.0/">
	<!ENTITY ns_ai "http://ns.adobe.com/AdobeIllustrator/10.0/">
	<!ENTITY ns_graphs "http://ns.adobe.com/Graphs/1.0/">
	<!ENTITY ns_vars "http://ns.adobe.com/Variables/1.0/">
	<!ENTITY ns_imrep "http://ns.adobe.com/ImageReplacement/1.0/">
	<!ENTITY ns_sfw "http://ns.adobe.com/SaveForWeb/1.0/">
	<!ENTITY ns_custom "http://ns.adobe.com/GenericCustomNamespace/1.0/">
	<!ENTITY ns_adobe_xpath "http://ns.adobe.com/XPath/1.0/">
	<!ENTITY ns_svg "http://www.w3.org/2000/svg">
	<!ENTITY ns_xlink "http://www.w3.org/1999/xlink">
]>
<svg enable-background="new 0 0 451.027 379.159" height="379.16" viewBox="0 0 451.027 379.159" width="451.03" xml:space="preserve" xmlns="http://www.w3.org/2000/svg">
	
		
		
			
						<path d="m450.66,246.83c-.45,1.208-.753,1.208-.45,2.568 .45,2.115-3.021,8.461-7.856,9.215 0,0-2.715.601-3.168.3-.604-.3-1.208,5.591-4.835,5.591 0,0-2.568.601-3.775,0-1.358-.453-1.961-.76-2.565-.607-.453.154-.908.607-.908.607v-.907l-1.357.454 .3-1.361-1.357.607s.15-.454-.152-1.215c-.45-.747-1.508-1.354-1.508-1.354l-.305,1.509s-.3-1.361-.903-1.809c-.454-.606-1.512-2.416-2.115-3.176-.454-.601-.758-1.508-.758-1.508l-.3,1.508s-1.058-1.361-1.208-2.415-2.869-4.831-4.38-6.646c-1.662-1.814-3.775-2.716-5.134-3.776-1.512-1.055-7.857-4.377-8.761-5.438-.754-1.055-5.737-3.47-6.945-3.77-1.211-.153-1.965-.153-1.965-.153l1.357-.454s-1.357-.754-2.415-.907l-2.115-.301h2.415s-.45-1.061-1.508-1.361c-1.058-.146-2.418-.907-2.418-.907h1.66s-.149,0-1.207-1.208c-1.054-1.054-5.134-3.321-8.304-3.622 0,0-6.494-.907-8.609.907 0,0-2.415,3.022-3.02,5.584-.758,2.723-1.815,11.329-1.815,14.352s-1.058,8.607-3.168,12.837c0,0-11.479,24.16-12.084,28.543-.753,4.53 3.173,24.766 8.608,32.919 5.286,8.161 21.445,31.866 32.771,35.342s10.271,4.23 13.744,4.23c3.623,0 6.796.601 7.854,2.716 1.058,2.268 4.23,1.207 5.283,3.63 1.058,2.415 2.42,3.168 2.115,5.584-.453,2.569-.753,5.737-3.926,6.045-3.173.3-6.341-1.36-7.398-2.423-1.058-1.053-1.058-.753-2.87-.753-1.66,0-6.341,0-10.571-2.115s-7.403-1.055-8.456-2.415c-1.058-1.508-58.297-53.309-61.77-96.05-3.478-42.741 21.143-102.7 57.992-89.257 36.58,13.29 68.29,60.86 68.29,60.86z" fill="#e6e3d9" fill-rule="evenodd" stroke="#000" stroke-linecap="round" stroke-miterlimit="2.4142" stroke-width=".36"></path>
					<path d="m418.8,373.54s-.15-.753-.755-1.053c-.453-.147-.758-1.662-1.207-2.416-.304-.754-1.661-2.715-3.477-2.415 0,0-2.112-3.17-3.926-3.476-1.812-.3-2.72-.3-2.72-.3l.607.605s-3.626-.907-4.683-.76c-1.058.307-2.72,1.061-2.72,1.061s-.754-.906-1.508-1.061c-.607-.147-1.966,0-1.966,0l.15.607s-1.811,0-2.716-.301c-.907-.454-3.625,0-3.625,0l.904.754s-3.32-.453-4.077-.906c-.604-.607-12.233-4.985-16.31-9.815-4.076-4.837-23.559-25.828-27.186-39.118-3.473-13.291 1.208-12.383 1.208-16.612 0-4.077.154-7.854 1.662-11.177 1.66-3.322 2.718-5.737 2.718-5.737v1.809l1.813-5.131 .453.6 .604-3.016 .603.454s.455-1.969.908-3.176c.452-1.055 4.229-6.792 4.229-6.792s-6.345,14.645-6.948,16.006-2.72,5.591-2.565,7.699c.15,2.115.753,9.215 3.019,17.221 2.115,7.698 5.438,14.651 6.945,16.613 1.661,1.961 10.422,15.098 16.463,21.597 0,0 8.157,9.061 13.596,11.176 5.434,2.263 9.06,2.569 12.079,4.378 0,0 1.357.607 3.775.607 2.266-.155 5.588.452 6.946,1.808s1.66,2.421 1.66,2.421 2.57.147 3.628,1.202c.902,1.213 1.811,3.628 1.811,3.628s.93,0 .63,3.02z" fill="#d7aa87" fill-rule="evenodd"></path>
					<path d="m444.63,251.81s-1.965,2.722-6.8,3.63c0,0-4.53,0-7.698-1.815-3.931-1.961-6.041-2.723-8.461-4.984 0,0-2.111-1.814-2.719-3.623v.602s.304,2.415 1.361,3.93c1.058,1.808 1.812,1.661 2.265,2.262 .455.753 3.928,3.022 6.343,3.63 2.266.6 6.041,1.808 5.891,2.262-.304.306-.604.754-.604.754l1.662-.448-.304.901s1.207-.3 1.207-.453c0-.301.908,0 .758.453 0,.301-.604,1.515-.604,1.515l1.208-1.515s.15.301 0,.761v.754l.604-1.515s0-.147.454-.147c0,0 .453.147 1.66,0l.755-.152s-.755-.3-.755-.602c0-.46-.149-.76.605-1.514 .452-.907 3.018-3.169 3.622-4.53 .6-1.2-.45-.15-.45-.15z" fill="#bfbdb4" fill-rule="evenodd"></path>
						<path d="m289.37,257.86s-4.833-8.761-9.514-11.937c-4.53-3.169-12.687-8.153-17.972-9.961-5.286-1.661-22.2-9.215-28.241-12.69-6.043-3.477-29.904-18.729-39.419-29.297-8.76-9.666-11.929-14.65-14.798-20.388 0,0-3.022-5.438-4.08-6.192l3.323,2.416s-4.38-10.269-6.496-12.837c-2.112-2.415-3.473-3.323-3.473-3.323l2.418.454s-2.718-3.626-5.438-5.741c-2.868-2.112-6.794-7.7-9.667-9.061l3.172,1.208s-2.565-2.416-4.834-3.473-7.096-3.776-9.664-4.077c-2.718-.15-2.718-1.361-14.499-1.511-11.929-.15-9.059-1.812-9.967-2.265-.754-.604 95.599-16.613 134.56,36.699 39.27,53.17 34.59,91.98 34.59,91.98z" fill="#e6e3d9" fill-rule="evenodd" stroke="#000" stroke-linecap="round" stroke-miterlimit="2.4142" stroke-width=".36"></path>
						<path d="m114.49,82.365c3.776-3.022-7.553-1.811-11.326-8.91-3.023-5.287-5.741-7.702-7.853-9.061-1.965-1.511-3.173-2.268-3.173-2.268s-1.965-1.358-3.473-.604c-1.361.604-4.23,1.361-4.23,1.361l2.115.454s-6.042.603-7.099,2.112c-1.058,1.36-22.201,9.517-27.939,10.571-5.588,1.058-20.086,3.176-22.201,2.419-2.115-.604-5.284-4.53-9.817-4.227 0,0-3.169-3.477-7.096-1.361s-4.984,6.345-3.476,8.757c1.211,2.268 2.719,6.645 7.703,8.914 4.984,2.112 23.259,5.588 36.699,0 10.421-4.38 22.351-2.269 25.07-.753 2.871,1.357 30.06-2.873 36.1-7.404z" fill="#e6e3d9" fill-rule="evenodd" stroke="#000" stroke-linecap="round" stroke-miterlimit="2.4142" stroke-width=".36"></path>
					<path d="m84.736,66.81c.904-.604 2.565-1.208 3.319-.754 .907.604 2.115-.606 3.626,1.812 1.357,2.419 2.265,3.323 2.265,3.323v-1.361s1.661,3.927 1.812,4.834c.153.753.757,1.661.757,1.661s-2.265-2.415-2.719-3.173c-.454-.754-2.266-3.773-2.266-3.773v.908s-.907-1.662-1.965-2.419-1.812-1.208-2.565-1.058c-.607.154-2.719,1.058-2.719,1.058l.455-1.058z" fill="#bfbdb4" fill-rule="evenodd"></path>
					<path d="m13.149,80.251s.15-2.416 1.058-3.323c1.058-.908 2.266-2.569 4.681-2.569 0,0-1.662-.904-3.773.304 0,0-2.269,1.511-2.719,4.077-.303,1.815 0,2.118.45,2.265 .453,0 .303-.754.303-.754z" fill="#bfbdb4" fill-rule="evenodd"></path>
					<path d="m39.277,84.48s-8.003,1.208-10.876.905c-2.715-.301-5.887-1.509-7.398-2.566-1.358-.907-2.565-1.814-2.565-1.814l.15,1.21s-1.511-.303-1.965-1.21c-.3-.904-.454-1.961-.454-1.961l-.604,1.058s-1.208-.904-1.058-1.512c.154-.454.154-1.055.154-1.055s-1.208.755-1.208,1.662c0,.904-1.661,1.808-1.965,1.204-.3-.754-.454-2.265-.454-2.265l-.904,1.061-.153-1.361s-2.112.754-.904,3.169c1.358,2.872 2.719,5.741 4.681,6.948 2.569,1.662 15.102,2.416 17.671.908 2.718-1.361 7.852-4.381 7.852-4.381z" fill="#d7aa87" fill-rule="evenodd"></path>
						<path d="m406.57,183.1c1.662.454 2.265.604 3.775,1.357 .907.454 2.115-7.399 4.53-3.019 1.058,2.115 3.628,6.042 5.288,6.946 3.17,1.661 6.646,4.082 7.854,5.289 3.322,3.169 9.664,10.115 13.741,19.029 2.872,6.191 1.36,11.629.907,12.837 0,0 .303,2.715 1.058,4.076 .753,1.508 5.437,9.215 6.944,14.952 1.662,6.646-6.794.301-8.002-1.208-1.207-1.661-4.835-6.645-7.553-7.552-4.53-1.662-5.738-1.508-8.304-.908-2.718.754-2.718-1.354-6.195-2.568-3.473-1.208-13.439-2.568-18.12-9.968 0,0-4.685-6.639-4.835-11.623 0,0 .907-6.498-1.058-8.16-1.961-1.508-7.852-.147-11.024.908-2.87,1.054-16.156.146-21.141,2.716-4.984,2.415-8.308,13.59-9.365,17.22-1.058,3.776-3.171,18.428-7.551,26.581-4.381,8.006-19.938,27.936-19.633,32.166 .453,4.377 3.173,6.345 4.23,8.153 1.053,1.814 9.664,15.858 12.382,24.013 2.87,8.16 7.099,13.443 11.026,18.728 3.772,5.292 10.571,14.498 11.929,16.313 1.358,1.661 6.646,7.854 8.156,7.854 1.358,0 10.269,1.207 11.326,4.376 0,0 1.813,5.285 2.415,6.498 .604,1.055.305,5.285-3.775,5.285 0,0 .303,2.268-2.263,2.716-2.418.607-5.438-.448-5.438-.448s-.15,1.662-1.965,1.963c-1.661.3-4.831,0-5.737-.762 0,0-1.058,2.27-4.835,1.814-3.622-.6-5.588-2.261-6.491-3.775-.907-1.362-2.115-4.224-4.08-4.831-1.961-.754-5.738-4.983-6.646-7.553 0,0-5.738-14.952-14.194-26.581s-21.447-24.612-25.223-30.203c-3.928-5.586-3.928-4.678-6.188-7.554-1.965-2.415-5.438-5.885-6.949-7.246-1.357-1.507-4.53-6.345-4.834-14.498-.45-8.153-1.358-15.559-1.508-18.274-.153-2.415-.153-19.782-7.554-25.374-7.398-5.584-17.367-10.568-27.938-16.159-10.571-5.738-31.564-17.061-42.587-27.183-10.875-10.119-17.67-14.044-28.243-31.715s-26.431-28.543-35.34-28.997c-8.761-.3-23.56,4.23-34.131,2.569-10.571-1.812-27.185-4.23-35.038-18.729 0,0-3.173-8.91-3.473-13.138-.454-4.229-3.172-13.444-9.214-14.348 0,0-4.53.604-6.041,2.415-1.357,1.662-19.782,14.802-25.066,16.914-5.288,2.115-16.16,2.115-20.844,1.058-4.53-1.058-5.284.303-7.703-1.358-2.415-1.812-5.284-3.626-5.588-6.041-.454-2.569-1.208-8.457 2.719-8.457 0,0 3.926-4.229 8.456-3.169 0,0 4.23,1.054 5.438,1.054 .908,0 5.134.304 7.249.754 2.266.304 5.738,0 8.611-1.808 2.715-1.815 17.971-11.783 20.386-13.748 2.569-2.111 5.288-4.98 6.646-7.549 1.511-2.416 11.025-10.875 14.498-5.891 0,0 8.91,9.817 9.968,12.233 1.058,2.569 5.738,6.799 7.703,7.853 2.115,1.058 10.722,6.042 16.613,3.476 6.041-2.418 12.684-9.514 13.894-11.329 .905-1.662 13.292-16.914 27.786-23.862 0,0 12.083-7.85 24.016-8.153 0,0 .755-3.927-1.058-5.285 0,0-11.629-16.917-34.587-14.952 0,0-17.972,2.262-27.485,9.968 0,0-19.179,11.629-31.111,16.913 0,0-17.972,6.796-32.47,2.115-14.498-4.533-28.996-16.913-33.527-28.542-4.68-11.783-1.511-14.198.3-14.499 1.815-.453 7.099,3.927 8.46,6.038 1.357,2.115 10.572,15.859 20.84,21.447 10.272,5.738 21.598,7.1 31.866,2.869 10.118-4.227 17.217-8.76 19.636-10.872 2.564-2.269 43.191-25.073 67.507-14.499 0,0 8.456,2.416 26.128,18.725 0,0 6.038,9.814 10.269,11.176 4.229,1.512 16.16,8.91 20.54,14.194 4.831,6.045 13.59,21.901 16.763,28.246s15.856,23.255 19.782,27.182c3.777,3.927 14.349,14.802 29.903,22.655 0,0 20.54,1.357 31.866,9.514 3.626,2.719 11.329,1.058 19.785,7.399 4.835,3.626 11.176,12.083 21.145,16.16 9.814,4.38 20.085,5.738 26.578,8.61 2.872,1.208 8.459,6.646 8.156,3.623-1.661-14.194 2.718-3.019 4.23-1.962 5.86,3.77 6.92,6.95 8.58,7.4z" fill="#d7aa87" fill-rule="evenodd" stroke="#000" stroke-linecap="round" stroke-miterlimit="2.4142" stroke-width=".36"></path>
					<path d="m386.33,361.91s-.604-1.814-3.628-2.567c-3.019-.755-6.038-1.662-4.68,0 1.207,1.508 4.53,0 5.737,2.261 .91,1.67 3.02,1.37 2.57.31z" fill="#f0c299" fill-rule="evenodd"></path>
					<path d="m381.8,362.06s0-.755-2.72-.755c-1.51,0-4.38-.907-5.133-.6-1.966,1.055 2.415,1.207 3.473,1.808 1.058.755 1.961.454 1.961.454s3.17.46 2.42-.9z" fill="#f0c299" fill-rule="evenodd"></path>
					<path d="m34.443,25.28s-2.869-2.872-3.773-4.38c-.757-1.661-1.815-3.626-1.815-3.626l-.15,1.361s-2.869-3.476-3.473-4.834c-.454-1.208-3.172-4.68-3.776-5.588-.754-.907-2.415-2.265-2.415-2.265l.45,1.208s-2.416-2.415-3.323-3.02c-1.208-.603-1.812-1.964-1.812-1.964l.604,2.869s-2.869-2.565-3.169-3.169c-.154-.757-.604-1.815-.604-1.815l.45,4.38-1.057-1.511s-.15,3.172 0,3.776c.154.757.454,1.814.454,1.814l-.904-1.057s.15,2.265.45,3.323c.454,1.208.758,3.927 1.512,5.284l-1.358-.907s1.058,3.323 1.961,4.08c.908.904 3.173,4.831 3.173,4.831l-1.058-.754s3.019,3.626 3.927,4.53c.907.757 3.323,2.418 3.323,2.418l-3.019-4.081s3.623,3.173 5.587,3.777c1.962.451 3.323,1.661 3.323,1.661s-4.984-4.833-5.287-5.738c-.454-.908-.904-1.964-.904-1.964l3.473,3.022-1.208-2.568s1.661,1.058 3.773,2.718c2.115,1.511 3.477,3.019 3.477,3.019l-2.873-3.625 2.569,1.514 3.323,2.565-3.173-3.623s3.477,1.057 4.08,1.507c.45.605 2.265,1.512 2.265,1.512l-4.38-3.476-1.661-1.809 4.53,3.019-1.512-2.414z" fill="#7e614e" fill-rule="evenodd"></path>
					<path d="m84.886,74.059s-4.08-6.492-5.437-7.553-5.134-7.095-7.25-7.699c-2.115-.454-6.795,2.415-7.853,3.319-1.208,1.211-3.623,3.626-4.077,4.683-.607,1.058-6.041,6.342-7.402,7.403-1.508,1.054-5.738,5.13-2.565,2.865 3.323-2.415 8.153-5.588 9.665-6.792 1.358-1.211 4.983-5.138 6.945-5.892 1.965-.907 5.592-.754 6.95.301 1.357,1.058 4.38,3.322 4.68,3.929 .454.452 9.363,10.72 6.344,5.436z" fill="#f0bd97" fill-rule="evenodd"></path>
					<path d="m406.87,184.31s2.416.304 6.342,1.812c3.926,1.661 9.818,3.926 13.44,7.247 0,0-4.984-2.413-7.703-3.625-4.077-1.661-6.646-2.865-7.853-2.565-1.358.304 2.115,1.511 2.115,1.511s-4.381-.304-5.284,0c-.92.3-1.07-4.38-1.07-4.38z" fill="#e9b893" fill-rule="evenodd"></path>
					<path d="m393.43,179.32s-2.873-1.357-6.196-3.623c-3.018-1.964-5.737-2.264-8.153-3.172-2.567-.907-16.009-4.38-19.481-5.892-3.474-1.662-7.099-3.623-10.572-4.53-5.588-1.358-32.169-8.606-20.235,1.661 0,0 11.175-1.208 18.575,1.361h-6.043s5.288.3 8.004,1.508c2.569,1.058 5.438,1.815 5.438,1.815h-2.868s3.473,1.054 4.833,1.358c1.358.15 3.927.604 3.927.604l-1.511.15s3.022.907 4.38.907c1.511,0 6.796.15 9.364,1.058h-4.983s4.833.754 6.494,1.058c1.962.453 4.377.904 4.377.904s5.134,1.361 6.346,1.964-4.535-1.057-8.61-.603c0,0 9.668.907 11.629,2.568 1.965,1.508 5.288,3.927 5.288,3.927v-3.04z" fill="#e9b893" fill-rule="evenodd"></path>
					<path d="m175.05,39.321s3.926-.3 4.983,0l-1.51-.604s1.51,0 2.415.304c.757.454 1.964.604 1.964.604l-.756-.604s1.058,0 1.814.454c.904.454.151-.758-.153-.904s-3.473-2.873-4.83-4.534-9.969-9.664-12.99-10.875c-2.416-.904-7.703-3.923-14.346-4.527 0,0-6.948-1.057-12.839.15 0,0 6.044-.908 14.347,1.357 0,0 4.38,1.058 9.668,4.081 0,0 7.249,4.379 11.176,9.967 0,0 1.51,2.112 1.06,5.131z" fill="#b69073" fill-rule="evenodd"></path>
					<path d="m450.52,246.68c0-1.814-1.058-4.831-1.662-6.045-.604-1.054-2.868-6.338-2.868-6.338s-3.021-4.838-3.173-6.346c-.301-1.515-.455-2.415-.604-2.869s.149-2.114.149-2.722c0-.754.305-1.208-1.657-1.655 0,0-2.418-.454-3.173-1.661-.453-.761-1.965-1.661-2.568-1.515-1.058,0-1.058,1.208-1.207,2.262-.605,2.723-1.208,2.422-1.513,3.323-.453,1.061 1.513,8.006 2.72,9.821s6.191,9.515 8.006,10.269c1.95.62 7.54,3.49 7.54,3.49z" fill="#b29974" fill-rule="evenodd"></path>
						<path d="m442.66,219.79c-.15-3.169-1.512-2.408-2.869-3.623-1.208-1.054-2.416-2.262-3.474-2.415-1.058-.3-3.173-1.508-3.926,1.062 0,0-.304.907-.304,1.961s-.15,2.569-.754,3.476c-.454.901-.604,1.962-.303,3.623 .15,1.662 2.264,9.361 5.437,12.99" fill="none" stroke="#d7aa87" stroke-linecap="round" stroke-miterlimit="2.4142" stroke-width="1.152"></path>
						<path d="m442.51,219.95c-.154-3.17-1.361-2.262-2.569-3.023-1.357-1.054-2.415-1.961-3.322-2.262-1.208-.453-3.172-1.661-3.927.601 0,0-.3.907-.3,1.969 0,1.054-.154,2.262-.607,3.169-.603.908-.753,1.962-.603,3.623s2.418,9.367 5.586,12.99" fill="none" stroke="#d2a785" stroke-linecap="round" stroke-miterlimit="2.4142" stroke-width="1.944"></path>
						<path d="m442.51,220.71c-.154-2.722-.907-2.115-2.419-3.176-1.357-.907-2.415-1.661-3.323-2.115-1.053-.453-3.018-1.814-3.772.308 0,0-.304.9-.304,1.962 0,1.054-.149,2.107-.604,3.021-.604.748-.754,1.809-.754,3.47 .301,1.661 2.565,9.368 5.738,12.99" fill="none" stroke="#cda683" stroke-linecap="round" stroke-miterlimit="2.4142" stroke-width="1.944"></path>
						<path d="m442.51,221.31c0-2.569-.757-2.263-2.265-3.023-1.362-.754-2.42-1.508-3.323-1.961-.907-.601-2.869-2.115-3.476,0 0,0-.451.754-.451,1.814 0,.907-.153,1.809-.604,2.568-.607.901-.907,1.962-.757,3.623s2.567,9.515 5.74,13.138" fill="none" stroke="#c7a480" stroke-linecap="round" stroke-miterlimit="2.4142" stroke-width="1.944"></path>
						<path d="m442.51,221.92c0-2.422-.604-2.269-2.114-2.869-1.358-.761-2.266-1.214-3.173-1.968-.905-.601-2.87-2.115-3.623-.454 0,0-.305.761-.305,1.815s-.15,1.661-.604,2.567c-.604.908-.907,1.809-.754,3.471s2.565,9.514 5.888,13.144" fill="none" stroke="#c2a17d" stroke-linecap="round" stroke-miterlimit="2.4142" stroke-width="1.944"></path>
						<path d="m442.36,222.36c0-2.262-.149-2.109-1.811-2.716-1.508-.601-2.265-.907-3.17-1.661-.757-.754-2.718-2.262-3.476-.754 0,0-.3.601-.3,1.661 0,1.055-.153,1.36-.604,2.262-.604.907-1.058,1.815-.758,3.476 0,1.662 2.569,9.515 5.893,13.138" fill="none" stroke="#bc9d79" stroke-linecap="round" stroke-miterlimit="2.4142" stroke-width="1.944"></path>
						<path d="m442.21,224.18c.304-2.262.149-3.322-1.508-3.776-1.511-.453-2.115-.754-3.022-1.508-.754-.754-2.719-2.568-3.474-1.207 0,0-.303.6-.303,1.661 0,1.054-.149,1.054-.604,1.962-.604.906-1.058,1.808-.903,3.469 .15,1.661 2.716,9.521 6.038,13.144" fill="none" stroke="#b79b77" stroke-linecap="round" stroke-miterlimit="2.4142" stroke-width="1.944"></path>
						<path d="m442.21,224.93c0-1.055.304-3.476-1.358-3.776-1.51-.447-2.114-.447-2.868-1.361-.907-.9-2.72-2.715-3.477-1.654 0,0-.301.601-.301,1.654 0,.914 0,.914-.603,1.662-.604.907-1.208,1.814-1.058,3.476 .3,1.662 2.868,9.515 6.191,13.137" fill="none" stroke="#b29974" stroke-linecap="round" stroke-miterlimit="2.4142" stroke-width=".36"></path>
						<path d="m449.91,246.53c-1.058.454-4.983-1.207-8.004-4.677-3.172-3.629-6.19-7.552-14.347-7.405 0,0-1.813,0-3.173-.601-1.357-.761-3.473-3.022-6.946-3.323-3.476-.3-15.858-5.744-18.424-16.459l-.604-9.215s0-4.229-4.23-3.629c-4.229.454-10.571,2.115-17.367,2.269-6.645.146-13.439.907-15.705,4.83-2.266,3.776-4.985,6.646-7.553,18.882 0,0-4.834,19.936-9.818,27.335-4.831,7.399-16.46,23.105-16.913,25.674-.305,2.415.153,4.53 1.811,7.1 1.513,2.715 9.669,14.951 11.177,18.274" fill="none" stroke="#d7aa87" stroke-linecap="round" stroke-miterlimit="2.4142" stroke-width="1.584"></path>
					<g fill="none">
							<path d="m449.91,246.68c-1.058.453-5.134-1.515-8.156-4.831-2.87-3.176-6.038-6.498-13.741-6.645 0,0-2.266-.153-3.926-.607-1.815-.3-3.478-3.323-7.101-3.623-3.473-.454-16.763-5.892-19.332-16.613l-.604-8.46s.304-4.077-3.926-3.623c-4.38.6-9.968,2.115-16.764,2.261-6.646.154-12.687.454-14.952,4.229-2.415,3.931-4.681,6.953-7.4,19.183 0,0-4.528,19.629-9.816,27.335-4.984,7.246-15.856,21.897-16.31,24.313-.454,2.568-.454,4.683 1.058,7.398 1.661,2.723 8.909,13.744 10.422,17.222" stroke="#d9b293"></path>
							<path d="m449.91,246.83c-1.208.454-5.284-1.661-8.456-4.978-2.416-2.722-6.043-5.444-12.837-5.891 0,0-2.87-.308-4.835-.454-2.266-.153-3.623-3.776-7.099-4.23-3.473-.3-17.817-5.891-20.237-16.613l-.603-7.552s.453-4.23-3.776-3.777c-4.228.607-9.365,2.116-16.16,2.268-6.645.301-12.08,0-14.348,3.776-2.266,3.923-4.53,7.246-7.096,19.329 0,0-4.381,19.482-9.818,27.182-4.983,7.406-15.252,20.844-15.705,23.259-.604,2.569-1.208,4.837.453,7.553 1.508,2.568 8.003,12.69 9.514,16.014" stroke="#ddbda0"></path>
							<path d="m449.91,246.83c-1.208.454-5.284-1.661-8.606-5.131-1.965-2.114-5.893-4.229-12.084-4.983 0,0-3.473-.454-5.891-.308-2.565.154-3.473-4.377-7.096-4.677-3.478-.307-18.729-6.045-21.145-16.613l-.605-7.1s.756-4.076-3.474-3.476c-4.228.454-8.607,2.115-15.403,2.269s-11.479-.606-13.744,3.169c-2.415,3.93-4.229,7.406-6.945,19.482 0,0-4.229,19.182-9.817,27.035-5.135,7.246-14.498,19.636-15.256,22.051-.753,2.568-1.661,5.131-.15,7.699 1.662,2.723 7.249,11.782 8.761,15.105" stroke="#ddc3ad"></path>
							<path d="m449.91,246.98c-1.208.454-5.438-1.962-8.911-5.284-1.511-1.661-5.738-3.169-11.326-4.076 0,0-3.926-.907-6.644-.454-3.023.454-3.628-4.684-7.101-4.983s-19.785-6.192-22.351-16.768l-.303-6.338s.906-4.083-3.323-3.477c-4.38.454-8.003,2.115-14.799,2.263-6.646.152-10.876-1.208-13.141,2.722-2.266,3.923-3.926,7.553-6.645,19.782 0,0-3.927,18.876-9.815,26.882-5.138,7.252-13.894,18.428-14.651,20.844-.903,2.568-2.415,5.283-.753,7.853s6.494,10.722 7.852,14.045" stroke="#dfccba"></path>
							<path d="m449.76,247.14c-1.208.447-5.438-2.268-8.911-5.438-1.207-1.208-5.891-2.114-10.571-3.322 0,0-4.683-1.062-7.703-.454-3.322.908-3.473-4.983-7.099-5.284-3.473-.453-20.689-6.345-23.104-16.913l-.455-5.444s1.209-4.224-3.171-3.623c-4.077.454-7.25,2.114-14.046,2.269-6.645.153-10.117-1.662-12.382,2.262-2.266,3.93-3.777,7.706-6.496,19.936 0,0-3.775,18.575-9.813,26.735-5.288,7.245-13.292,17.514-14.199,19.782-.907,2.568-2.868,5.284-1.207,8.006 1.512,2.563 5.588,9.661 6.945,12.984" stroke="#e2d7c9"></path>
					</g>
						<path d="m449.76,247.14c-1.208.601-5.438-2.268-9.061-5.591-.907-.607-5.741-.907-9.818-2.415 0,0-5.286-1.208-8.609-.3-3.772,1.207-3.623-5.438-7.096-5.892-3.476-.301-21.747-6.345-24.166-16.914l-.454-4.837s1.512-3.924-2.716-3.47c-4.229.601-6.798,2.115-13.44,2.262-6.799.301-9.518-2.114-11.933,1.815-2.265,3.93-3.473,7.999-6.192,20.089 0,0-3.626,18.422-9.816,26.729-5.285,7.099-12.685,16.159-13.592,18.574-1.058,2.568-3.473,5.438-1.965,8.007 1.662,2.715 4.835,8.606 6.192,12.083" fill="none" stroke="#e6e1d8" stroke-linecap="round" stroke-miterlimit="2.4142" stroke-width="1.584"></path>
					<path d="m443.87,241.7c-.455-.153-2.415-1.508-2.87-2.114-.603-1.516-3.623-4.077-4.983-4.984-1.208-.754-1.813.3-3.02.3s-5.137-2.262-7.702-1.054c-2.115.9-4.08,2.115-4.984,4.076 0,0-1.811,3.47-1.058,5.285 0,0 .149-1.355.454-2.27 .453-.9.604-2.408.903-1.808s1.362,1.661 1.058,1.061c-.3-.907-.3-1.661 0-2.422 .454-.601 1.362-1.361 1.815-1.207 .754.453 1.207.753 1.207.753l.15-1.207s-.303-.754.454-1.054c.753-.454.903-.154 2.114-.154 1.058,0 5.284,1.062 6.646,1.815 1.357.453 3.17.453 4.228,1.814 6.495,8.453 7.398,8.153 7.398,8.153l-1.81-4.98z" fill="#32251f" fill-rule="evenodd"></path>
					<path d="m441.46,254.99c-1.662,1.054-3.777,1.054-6.043.9l-1.66-.3 .753-.146s-2.868-.454-3.926-.908c-.905-.453-4.227-1.661-4.227-1.661h.753s-.907-.454-1.96-1.061c-1.058-.454-2.873-1.809-3.777-2.869-1.058-.907-1.511-1.809-1.361-1.508s1.661,2.715 2.568,3.322c1.058.601 3.623,2.716 5.588,3.323 1.966.6 5.285,1.961 6.946,2.268 1.66.447 3.022.755 3.476.901 .454.454.755.907 1.058.454 .15-.601.15-.908.604-1.355 .3-.45 1.21-1.35 1.21-1.35z" fill="#a6a49c" fill-rule="evenodd"></path>
					<path d="m445.23,251.97-2.115,2.115c-.453.453-2.868,2.115-2.868,2.568-.154.601-.454.454-.454.146 0-.754-1.812-.907-2.266-.907-.604.153.755,0 1.208-.146s1.812,0 3.473-1.361c1.812-1.361 2.569-2.415 2.569-2.415h.45z" fill="#32251f" fill-rule="evenodd"></path>
					<path d="m450.21,245.47c-1.058,0-2.718-1.514-3.171-2.115-.455-.453-2.416-2.268-4.381-2.568-1.662-.453-1.512.754-1.207,1.361 .452,1.508.753.9 1.811,1.661 1.207.754 2.265,2.262 2.115,3.322-.15.301 0,.601-.304,1.208 0,0-.3,1.354-.904,3.016 0,0 .3,1.061 1.208.607 .907-.3.907-.754 1.51-1.508 .755-.761 1.358-1.969 1.963-2.269 0,0 .604-.301 1.207-.301 .304,0 .604-.453.604-1.061 .15-.6.3-1.51-.46-1.36z" fill="#835e4d" fill-rule="evenodd"></path>
					<path d="m442.36,241.24c.607,0 1.212.3 2.27,1.054 .754.454 1.661,1.208 1.961,1.361 .455.453 1.208,1.508 1.208,1.962 .152.3-.15,1.661-1.058,3.176-.903,1.661-1.357,2.715-1.661,2.715-.45,0-.45-.153-.3-.453 .15-.454.604-1.508.753-2.716 .15-1.361.305-2.269.15-3.022-.3-1.208-2.415-2.415-3.169-2.568-.454,0-.757-.601-.907-.901-.14-.3.31-.75.76-.6z" fill="#b1836e" fill-rule="evenodd"></path>
					<path d="m449.61,246.08c1.054,0 1.054.301.754,1.061 0,.447-.304.447-.754.447s-1.058.307-1.361.761c-.453.454-1.206,1.962-2.414,3.016-.758.907 0-.146.15-.454 .149-.146 1.66-2.415 2.115-3.169 .3-.61.9-1.67 1.51-1.67z" fill="#b1836e" fill-rule="evenodd"></path>
					<path d="m431.34,221.61c0-.454 0-1.508.301-2.115 .303-1.054.303-1.354.603-2.716 .154-1.515-.149-2.568-.603-3.623-.453-.907.149-2.415-.905-3.776-1.21-1.361-4.379-1.961-6.798-1.061-1.508.453-3.773,2.568-3.019,4.684 .9,1.96 10.42,8.61 10.42,8.61z" fill="#d9d2b6" fill-rule="evenodd"></path>
					<path d="m420.61,213.46s-.753-.301-.903.607c-.15.9 1.661,5.885 4.681,6.645 3.17.89-3.17-6.81-3.78-7.26z" fill="#d9d2b6" fill-rule="evenodd"></path>
					<path d="m432.09,224.33c1.358-2.875-.754-4.983-.906-5.591-.452-1.815-1.813-3.477-4.681-4.53-3.173-1.055-3.173-.754-3.473-.754-.604-.154-1.815-1.361-2.87-1.055-1.211.301.604,1.354 1.208,2.262 .754.754.754,1.208.754,1.962 0,.607.304,4.984 5.287,4.984 0,0 1.509,0 1.962.907 .61.91 1.66,3.63 2.72,1.82z" fill="#32251f" fill-rule="evenodd"></path>
					<path d="m427.41,215.26c1.209.607 3.02,1.815 3.02,3.783 0,0-.604,1.961-3.323,1.809 0,0-2.868.3-3.926-2.569 0,0-.604-2.415 0-3.923 0,0 1.81-.15 4.23.9z" fill="#bfd97c" fill-rule="evenodd"></path>
					<path d="m430.43,218.74c-.3-1.661-1.811-3.016-3.02-3.477-2.419-1.054-4.229-.9-4.229-.9-.304.601-.304,1.208-.304,1.808 0,0 1.662-.6 4.533.454 1.66.46 3.02,2.12 3.02,2.12z" fill="#a2b869" fill-rule="evenodd"></path>
					<path d="m429.22,216.48c.15.146-.754,3.016-3.022,2.568-1.508-.307-.3-3.322 1.211-3.63 0,0 .75.15 1.81,1.06z" fill="#1a1a1a" fill-rule="evenodd"></path>
					<path d="m448.55,246.23c0,.147-.604,1.354-1.057,1.962-.453.754-1.966,3.169-2.419,3.623-.3.307-.149,0 0-.146 0-.154 1.511-1.969 2.419-3.63 .753-1.661.753-1.962.753-1.962s.31-.3.31.16z" fill="#715142" fill-rule="evenodd"></path>
					<path d="m399.77,196.39s.3,1.062-.903,1.361c-1.212,0-1.062,1.508-2.115.754-1.058-.754-1.965-.153-1.965-.153l-3.626.153 .756,1.061s-2.418.447-3.472,1.055l2.111.3s-1.058.606-1.811,1.208c-.604.454-1.813,1.508-1.963,2.722 0,0 0-1.661 1.513-3.175l-1.513-.3s.605-1.361 3.623-1.961c0,0 0-1.361-.753-1.508-.454-.154 1.357,0 2.568-.154l2.415-.3-.907-.607h1.36s-1.208-2.115-2.718-2.262c0,0 1.66.3 2.112.6s1.06.454 1.06.454l-1.512-1.361s1.357.307 1.662.754c.15.307.3-1.508 0-1.662-.17-.15 3.31,1.81 4.06,3.02z" fill="#a48268" fill-rule="evenodd"></path>
					<path d="m393.88,178.42s.603,5.134 1.963,7.399c.907,1.358 1.511,2.565 2.115,3.473 .753.908 1.207,2.721 1.207,2.721l-1.207-.909s1.66,1.663 1.66,2.57 2.87,3.923 1.662,3.623c-2.415-.607-3.627-1.961-3.927-2.415-.453-.754-3.023-1.962-2.418-1.962 1.36-.153.606-.761.303-1.212-.453-.604-.756-1.358-.756-1.358l1.06.15s-.454-1.208-.757-1.962c-.303-.604-1.357-2.265-1.357-2.265l1.207.754s-.305-1.661-.907-2.265c-.453-.454-.604-1.511-.604-1.511l.906.604v-1.811c.01-.91-.14-3.62-.14-3.62z" fill="#d9d2b6" fill-rule="evenodd"></path>
						<path d="m286.96,247.28s-.907-11.322-19.032-20.99c-18.271-9.668-58.896-28.543-73.999-47.423-15.255-19.029-22.355-38.057-35.645-43.794-13.438-5.588-14.044-4.834-20.537-4.684" fill="none" stroke="#e6e1d8" stroke-linecap="round" stroke-miterlimit="2.4142" stroke-width="1.584"></path>
					<g fill="none">
							<path d="m287.41,248.04s-.604-12.684-18.271-22.352c-.907-.447-1.814-.907-2.72-1.354-18.124-9.214-53.462-26.581-69.471-43.95-1.208-1.21-2.415-2.568-3.323-3.927-12.083-15.252-19.179-30.204-28.696-38.21-2.715-2.265-5.738-4.076-8.911-4.984-12.08-4.53-14.649-3.473-20.99-2.869" stroke="#e2d3c3"></path>
							<path d="m287.71,248.64s-.15-13.897-17.367-23.559c-.907-.606-1.965-1.061-3.022-1.508-18.275-8.914-54.975-27.335-70.681-45.311-1.208-1.358-2.415-2.869-3.473-4.077-12.232-16.01-19.482-30.962-29.75-38.511-3.022-2.115-6.192-3.626-9.515-4.38-11.025-3.323-15.405-1.812-21.598-1.058" stroke="#ddc3ad"></path>
							<path d="m288.17,249.24s.149-15.1-16.613-24.767c-1.057-.602-2.114-1.208-3.322-1.809-18.575-8.606-56.332-28.089-71.738-46.519-1.358-1.508-2.416-3.019-3.623-4.377-12.537-16.613-20.085-31.716-31.111-38.664-3.173-1.962-6.646-3.173-9.968-3.777-9.817-2.115-16.31-.15-22.351.908" stroke="#d9b698"></path>
					</g>
						<path d="m288.62,250s.604-18.882-19.482-27.942c-18.879-8.606-57.693-29.143-72.945-48.023-15.255-19.031-23.258-36.548-36.095-43.498-11.781-6.342-25.07-2.265-33.376-.3" fill="none" stroke="#d7aa87" stroke-linecap="round" stroke-miterlimit="2.4142" stroke-width="1.584"></path>
						<path d="m429.37,199.56c.907.301 1.662.901 1.813,1.055 .453.454 1.813,2.568 1.813,2.568s1.207,1.055 1.357,2.568c.15,1.055-1.058.448-1.511.147-.604-.453-.904-.607-3.17-1.207-2.113-.454-1.207-.454-3.476-.454-2.11-.147-3.019.754-4.076,1.208-.907.606-1.662,3.021-.907,2.114 1.511-1.809 4.684-3.322 6.346-2.568 1.511.907 2.113.76 3.019,1.061 .757.3 3.173,1.361 3.173,1.361s1.207.447 1.66,1.201c.454.76 1.512.46 1.512,1.514 .15.908.15,1.662.15,1.662s-.305.3-1.058-.301c-.755-.607-.604-.907-1.662-1.061-1.058,0-1.511.153-.603.307 1.057.301.603.301 1.207.754 .453.601 1.058,1.055 1.511,1.055 .454.153 1.058.907 1.662,1.36s.753.908.907,1.508c.15.754 1.054,2.115 1.054,3.023 0,1.054.305,1.661.154,2.715 0,1.061-.604,3.93-.454,3.176 .454-1.36 1.357-3.476 1.207-5.284-.15-1.515.15-1.968-.3-2.876-.303-1.054.149-1.508.604-1.207s.903.453 1.053.761c0,.3-.149-.907-.45-1.361-.152-.454-.603-.761-1.207-.761-.453-.146-.907-.146-1.511-1.201-.604-.907-.758-1.814-1.058-2.422-.15-.453-.755-2.562-1.362-2.716-.603-.307-.903-2.115-1.66-2.868-.755-.607-2.112-2.422-1.357-2.269 .603,0 1.811.606 2.265,1.208 0,0-.755-1.208-1.208-1.508-.454-.153-1.36,0-2.265-.754-.907-.607-1.208-1.061-2.415-1.508 .03.01-3.14-.59-.73.01z" fill="#b29079" fill-rule="evenodd" stroke="#b8957d" stroke-linecap="round" stroke-miterlimit="2.4142" stroke-width=".36"></path>
						<path d="m438.43,208.47c.607.147 1.211,1.055 1.661,1.508 .305.454.454,1.208 0,.607-.604-.607-1.054-.907-1.357-1.061-.3,0-1.05-1.21-.3-1.06z" fill="#b29079" fill-rule="evenodd" stroke="#b8957d" stroke-linecap="round" stroke-miterlimit="2.4142" stroke-width=".36"></path>
					<path d="m406.87,183.85c-.604-.3-1.662-.904-1.965-1.507-.454-.758-4.53-4.684-6.038-5.588-1.662-.907-1.815-1.511-2.115-1.814s-2.569-4.531-2.72-3.777c0,0-.756,2.719.3,7.553 .908,4.984 1.058,5.588 2.115,7.249 1.058,1.512 3.021,4.984 3.173,5.738 0,.605.905,2.874 1.208,3.628 .454.6 3.173,4.377 6.646,4.229 0,0-1.36-4.229-.758-5.437 0,.146 1.362-4.532 1.362-4.986 0-.757.15-1.208.15-1.965-.14-2.55-1.35-3.31-1.35-3.31z" fill="#b28968" fill-rule="evenodd"></path>
					<path d="m411.1,184.61s1.36-3.477 2.115-3.927c.754-.304.754,0 1.207.754 .453.604 2.719,4.681 4.081,5.888 0,0 1.207,1.058-1.513-.3-2.415-1.511-3.926-1.812-4.53-1.965-.47,0-1.37-.45-1.37-.45z" fill="#b28968" fill-rule="evenodd"></path>
					<path d="m439.19,258.46c.15-.448.3-1.208-.305-1.354-.753-.308-2.565-1.062-3.623-1.062-.757,0-1.66-.3-2.265-.3l.451-.153s-3.02-.754-4.228-1.208c-1.207-.754-3.473-1.361-3.473-1.361l.604-.146s-.604-.153-1.362-.754c-1.057-.453-2.868-1.661-4.83-4.384 0,0-.907-1.054-.604-.601 .15.601 1.658,3.17 3.169,4.377 1.662,1.208 4.23,3.169 8.308,4.23 3.926,1.054 5.437,1.661 6.494,2.115 1.05.28 1.51,1.19 1.66.58z" fill="#32251f" fill-rule="evenodd"></path>
					<path d="m427.71,235.96c.908-.153 1.208.601.304.754-.9.3-1.51-.6-.3-.75z" fill="#32251f" fill-rule="evenodd"></path>
					<path d="m428.92,237.77c.756-.3 1.211.454.604.607-.6.3-1.36-.31-.6-.61z" fill="#32251f" fill-rule="evenodd"></path>
					<path d="m425.3,237.77c.903-.3 1.208.454.453.907-.91.6-1.51-.46-.45-.91z" fill="#32251f" fill-rule="evenodd"></path>
					<path d="m426.65,240.04c.757-.453 1.058.153.757.601-.45.6-1.51-.3-.76-.6z" fill="#32251f" fill-rule="evenodd"></path>
					<path d="m428.77,241.39c.604-.3 1.208.46.604.607-.45.3-1.36-.3-.6-.61z" fill="#32251f" fill-rule="evenodd"></path>
					<path d="m422.43,240.64c.45-.3.904.153.3.907-.3.75-1.36-.31-.3-.91z" fill="#32251f" fill-rule="evenodd"></path>
					<path d="m423.78,242.6c.604-.301.755.307.604.76-.45.45-1.35-.45-.6-.76z" fill="#32251f" fill-rule="evenodd"></path>
					<path d="m426.05,243.96c.604-.301.604.3.305.907-.31.45-1.37-.46-.31-.91z" fill="#32251f" fill-rule="evenodd"></path>
					<path d="m419.86,243.05c.453-.3.907.607.453,1.361-.3.76-1.36-.75-.45-1.36z" fill="#32251f" fill-rule="evenodd"></path>
					<path d="m421.06,245.47c.604-.307.604.147.604.754-.29.61-1.35-.3-.6-.75z" fill="#32251f" fill-rule="evenodd"></path>
					<path d="m423.03,246.83c.3-.453.903,0 .453.454-.15.61-.9.16-.45-.45z" fill="#32251f" fill-rule="evenodd"></path>
					<path d="m354.01,163.92c1.813.607-6.19-1.812-6.19-1.812l-2.568-1.208 1.058,1.058-3.623-1.058 1.054,1.058s-2.868-1.361-5.134-1.058c-2.415.454-4.681-1.058-4.681-1.058l1.058,1.512h-1.66l1.207.904s-1.965.908-2.869,1.511c-.908.454-3.927.15-3.927.15l.903.907s-1.058,1.058-2.115,1.208c-1.053.15-2.868,1.662-2.868,1.662s-1.207,1.361-2.415,1.208c-1.208-.3-1.965.908-1.965.908l-1.508,1.661-.303-1.965s.756-1.208 1.36-1.208l2.718-1.961s-.152-1.208-1.36-1.511-2.415-.907-2.415-.907l3.775.304-1.814-1.208 2.419.454s2.719-.304 1.208-1.361c-1.662-1.058-2.42-2.115-2.42-2.115l2.42.907s-1.058-1.357-1.362-1.964c-.45-.451-1.961-1.508-1.961-1.508s2.869,1.058 3.623,1.662c.758.753 1.965.604 1.965.604s-.754-1.812-2.114-2.869-2.266-1.814-2.266-1.814 1.661,0 2.868,1.211c1.058,1.057 2.415,1.508 2.266.603-.301-.907-.301-1.51-1.508-2.114s-1.965-1.361-1.965-1.361l2.569,1.058s.3-1.961-.907-2.869c-1.208-.904-2.416-2.115-2.416-2.115l2.111.907s.607-1.208-.604-2.115c-1.207-.904-2.415-3.623-3.473-3.926s4.076,2.719 5.138,3.473c1.054.908 3.169,3.173 5.134,4.684 1.813,1.661 2.715,3.019 3.623,3.323l-1.058-1.662s3.322,2.869 4.833,3.322c1.358.301 1.963.754 1.963.754l-1.208-1.358s3.626,2.266 4.53,2.565c.907.154 2.719.757 2.719.757l-1.358-1.36 3.777,1.964c-.01.01 3.47,2.42 5.73,3.18z" fill="#a17f66" fill-rule="evenodd"></path>
						<path d="m424.99,195.18s-2.564-1.961-5.737-2.115-5.134-.3-3.926-.454c1.207-.3 4.229-.6 6.19.307 1.97.9 3.48,2.26 3.48,2.26z" fill="#b29079" fill-rule="evenodd" stroke="#b8957d" stroke-linecap="round" stroke-miterlimit="2.4142" stroke-width=".36"></path>
						<path d="m425.3,228.41c-1.058,0-3.173-1.207-3.777-.153-.753,1.062-.753,1.208-1.961,1.509-1.212.46-2.115,1.36.15,1.36 2.415-.3 6.191.907 7.398-.9 1.361-1.969 1.966-5.444 1.361-3.93-.76,1.35-2.27,2.11-3.17,2.11z" fill="#b29079" fill-rule="evenodd" stroke="#b8957d" stroke-linecap="round" stroke-miterlimit="2.4142" stroke-width=".36"></path>
					<path d="m340.87,203.33c-.905,1.961-1.963,5.591-1.358,8.46 .753,2.868 1.811,3.169 3.173,5.284 1.508,2.115 2.868,6.345 2.868,6.345l-1.36-.754s.758,1.207.303,7.853c-.303,6.646-.303,8.153-.303,8.153l-.755-1.054s-1.058,3.77-2.415,6.339c-1.511,2.415-4.23,10.121-2.418,7.398 1.66-2.869 3.775-6.792 3.775-6.792l-.303,2.869s2.115-3.476 2.115-4.983c0-1.361 1.36-3.17 1.36-5.586 0-2.567.755,2.416.755,2.416s1.357-4.229 1.058-5.591 .3-6.345.3-6.345l1.36,1.813-.753-5.284s4.681,3.776 3.623.901c-.907-2.563.303-2.108-2.415-4.83-2.87-2.869-3.323-5.285-3.323-5.285l-.304,2.869s-2.869-3.169-3.323-5.284c-.3-1.968-.3-4.984-.3-4.984l-1.36,2.569c-.03-.03-.03-3.05-.03-6.53z" fill="#a17f66" fill-rule="evenodd"></path>
					<path d="m291.79,225.08c1.207-1.814 1.512,4.076 1.512,7.699 0,1.962-.755,4.685-.755,4.685l1.508-1.508s-.15,2.107-.753,3.623c-.454,1.354.15,3.623.15,3.623l.452-1.208s1.208,4.529.905,5.737c-.45,1.361-.45,6.646-.45,6.646l-.907-5.892-.455-2.262-1.207,1.809s.154-5.584.154-6.646c0-1.054-1.212,1.661-1.212,1.661s.304-3.322.304-4.984c0-1.507.15-3.769.15-3.769l-1.208.907c.03.01.78-8.61 1.84-10.12z" fill="#a17f66" fill-rule="evenodd"></path>
					<path d="m297.23,274.47v3.169l.904-.754s0,3.322-.149,4.983c-.302,1.809.453,4.077.453,4.077l.453-1.061s.304,2.422.754,3.021c.604.454 1.211,1.516 1.211,1.516l.3-1.662s.3,2.262 1.362,3.47c1.053,1.207 1.207,2.869 1.207,2.869l-2.27-3.016-1.053,1.207s-1.058-2.868-1.815-3.176c-.603-.3-.3-1.808-.3-1.808l-1.511.9v-5.737c0-1.509.604-3.623.604-3.623l-.908.606c.01,0-.14-2.27.77-4.99z" fill="#b69073" fill-rule="evenodd"></path>
					<path d="m237.72,128.58s-2.719-.15-5.435,1.511c-2.872,1.812-3.93,2.266-3.93,2.266l2.718-.154s-2.564,1.211-3.926,2.873c-1.207,1.508-3.927,3.472-3.927,3.472h1.965s-2.418,1.812-5.286,5.134c-.908,1.058.753-1.961 1.66-3.927 1.058-2.114 2.418-3.472 2.418-3.472l-1.51.15s1.811-2.265 3.622-3.323l-1.66-.15s1.66-1.208 2.871-1.812c1.22-.61 3.18-3.17 10.43-2.57z" fill="#bd9577" fill-rule="evenodd"></path>
					<path d="m227.6,123.14s-4.075.454-5.283,1.058c-1.061.604-1.512,1.058-1.512,1.058l2.566.3s-1.962.454-3.17,1.211c-1.058.904-2.115,1.508-2.115,1.508l1.208.304s-2.416.754-3.019,1.662c-.607.907-1.512,1.812-1.512,1.812s1.057-2.719 1.965-3.323h-.908s2.115-2.115 3.17-2.565l-1.055-.304s1.662-1.662 2.869-1.965c1.96-.61 6.79-.76 6.79-.76z" fill="#bd9577" fill-rule="evenodd"></path>
					<path d="m300.4,146.25s-3.626.604-7.099.754l3.168.754s-2.865-.3-4.376.604l2.266.607s-2.415.15-3.323.45-1.207,1.211-1.207,1.211l2.718-.154-2.418.908c-1.208.3-2.415,1.208-2.415,1.208s3.019-.754 3.623-.454-3.323,1.058-4.378,1.661c-1.061.758-1.511,1.662-1.511,1.662l2.868-.454s-2.868.907-3.625,1.511c-.755.454-1.208,1.36-1.208,1.36s4.08-.604 4.38-.604-3.776.904-4.68,1.658l-1.513,1.814 .908-1.661-1.814.454s1.211-2.115 2.872-3.172l-1.661.604s1.508-2.869 3.923-3.323l-1.962.15s2.265-1.507 3.777-2.265h-1.662s2.115-1.357 2.869-1.961c.604-.454 1.511-.604 1.511-.604l-1.207.15s1.058-1.361 1.962-1.361l-1.058-.3s2.115-1.058 3.476-1.361c2.4-.62 6.78.14 6.78.14z" fill="#b69073" fill-rule="evenodd"></path>
					<path d="m80.657,76.021c-1.358-1.054-3.019-3.019-3.927-4.53-1.058-1.358-3.019-4.227-3.773-4.527-1.361-.458-3.626-1.21-3.626-1.21l.454,1.357s-.454-.147-2.115,0c-1.512.153-3.173.607-3.173.607l.754.451s-1.508,1.061-2.716,1.964c-1.21.908-3.172,3.019-3.172,3.019s3.776-2.719 4.684-3.323c2.111-1.058 4.077-1.204 4.077-1.204l-1.211-.457s3.777-.301 4.684.457l-.754-1.514s.904.457 1.812.907c.754.304 1.512,1.662 2.115,2.269 .45.754 1.508,2.111 2.565,3.019s3.322,2.715 3.322,2.715z" fill="#b69073" fill-rule="evenodd"></path>
					<path d="m3.936,93.691s.304,2.265 2.872,3.927l-1.21-.15s2.418,1.208 3.322,1.208c.757.15 1.661.907.153.604s-2.719-1.058-3.323-1.357c-.604-.15-1.36-.454-1.661-.908-.153-.454.604-.3.604-.3s-1.51-1.961-1.661-3.776 .753-.606.904.752z" fill="#b69073" fill-rule="evenodd"></path>
					<path d="m35.351,85.234s-2.719,3.019-6.646,4.23c-1.965.45-6.495.45-7.702.15-1.208-.454-3.623-.604-3.623-.604l.45.758s-2.265-.607-4.227-.304c-1.965.15-3.473-.304-3.473-.304l.3.754s-1.511.454-2.265.454c-.604,0-2.265.304-2.265.304l.604.454s-1.208.45-2.114.45c0,0 .153.454.604.454s.303.758-.301.604c-.604,0-1.057-.604-1.057-.604l.3,1.062s0,.6-.754.3c-.454-.3-1.058-.604-1.058-.604s.454,1.357 1.058,1.812-.454.153-.908-.304c-.45-.3-.604-.3-.604-.3s.154,1.058.454,1.208c.454.15-1.208-.304-1.208-.604 0,0-.15.604 0,.904 .304.304-.454,1.211-.454,0s0-3.473.604-4.227c.604-1.057 1.058-1.208 2.265-1.361 0,0 2.872-2.869 5.741-3.169 2.869-.454 4.531.604 5.738.754 1.358.15 6.795.607 8.003.754s4.683.757 7.856-.45c3.17-1.359 4.682-2.571 4.682-2.571z" fill="#e6e3d9" fill-rule="evenodd"></path>
					<path d="m3.635,89.465s-.604.604.15,3.773c0,0-.15.454-.754.153 0,0-.304-1.511-.15-2.569 0-1.207.754-1.357.754-1.357z" fill="#bfbdb4" fill-rule="evenodd"></path>
					<path d="m220.5,58.503c2.115,4.38-4.53-9.968-22.047-15.403-10.118-3.022-7.403-1.814-9.668-4.53s-13.74-21.297-34.13-26.582c0,0-9.815-2.418-20.994,1.208-11.022,3.473-25.824,8.304-32.469,12.234-6.645,4.076-25.22,13.59-33.677,13.44 0,0 7.55,0 24.617-10.422 0,0 8.457-5.737 13.291-7.852s20.387-11.025 40.776-12.233c0,0 11.475,0 17.518,3.322 5.891,3.473 15.859,9.365 23.108,17.217 0,0 2.115,1.965 2.718,2.719 .455.908 4.228,6.496 5.738,7.399 1.662,1.058 1.358,1.814 4.831,2.869 3.32,1.059 16.46,8.611 20.38,16.614z" fill="#f0bd97" fill-rule="evenodd"></path>
					<path d="m292.09,134.17s-10.723-1.662-14.802-.908c-4.984.604-7.1-2.112-10.572-.754-4.076,1.511-10.422,1.511-12.837,3.173-4.381,3.019-10.571,3.473-14.647,9.664 0,0 4.226-5.588 12.082-4.68 3.17.3 13.591,1.812 13.591,1.812l-13.291-3.776s2.72-.754 7.099-1.511c3.625-.604 14.799,1.511 14.799,1.511l-8.306-3.019s4.38-1.662 10.571-.304c1.965.454 8.006,1.208 8.006,1.208l-4.983-1.961s6.34-1.36 13.29-.45z" fill="#f0bd97" fill-rule="evenodd"></path>
					<path d="m423.33,222.36c1.815,0-4.681-2.109-5.285-4.224-.758-2.115-.453-4.23-1.511-5.591-1.058-1.508-8.761-4.984-8.003-.754 .604,4.229.604,5.737 4.53,7.699 3.78,2.11 6.65,2.86 10.27,2.86z" fill="#e9b893" fill-rule="evenodd"></path>
					<path d="m243.16,124.35s-6.646-1.812-10.571-.454c-2.569.758-5.738,2.569-5.738,2.569l-3.322,4.077s5.737-5.738 12.533-5.434l-3.173,1.508s3.776-.45 5.588-.754c1.81-.32 4.68-1.53 4.68-1.53z" fill="#f0bd97" fill-rule="evenodd"></path>
					<path d="m249.8,130.69s-5.588-1.058-9.516.454c-2.567.904-5.586,2.716-5.586,2.716l-2.873,4.23s5.591-5.438 9.214-5.284l-.3,1.054s2.565-1.962 4.376-2.266c1.83-.29 4.69-.9 4.69-.9z" fill="#f0bd97" fill-rule="evenodd"></path>
					<path d="m184.41,41.287s-8.911-.304-17.971,1.511c-9.211,1.661-12.534,4.983-12.534,4.983l3.623-.757s-8.456,3.476-11.325,5.287c-3.927,2.565-8.458,6.042-8.458,6.042l3.473-1.058s-7.398,4.227-8.156,5.284c-.605,1.061-4.531,5.588-4.531,5.588s2.869-3.17 6.796-4.831c3.776-1.815 9.517-7.099 11.932-8.157 2.565-1.058 6.343-3.473 9.516-4.23 3.168-.754-.305,2.119-.305,2.119s3.173-2.569 6.796-2.873c3.476-.3 3.777-1.661 9.818-2.415 6.041-.757 10.271.304 10.271.304l-4.983-2.118s.3-.301 7.399-.301 11.629,0 16.914,2.419 7.098,3.623 7.098,3.623-4.53-5.741-14.044-7.852c-9.67-2.115-11.33-2.568-11.33-2.568z" fill="#f0bd97" fill-rule="evenodd"></path>
					<path d="m381.2,226.44s-1.66-1.354-2.868-2.862c-.907-1.361-.757-1.661-.757-1.661l-2.72-1.814h1.814s-1.511-2.115-2.871-2.115l3.172-.754-1.812-.153s1.661-1.208 2.266-1.208c.453,0 1.357-1.054 1.357-1.054l-2.112.3s1.963-1.208 2.565-1.515c.758-.447 1.965-1.508 1.965-1.508l-1.511.153 2.416-1.814 1.511-1.814s-1.208,1.661-4.684,2.268c-3.32.754-4.378,1.208-4.378,1.208l1.513.454s-2.419.907-3.626.606c-1.208-.153-3.627,2.569-4.985,3.924l2.115-.301s-1.965.754-2.868,1.662c-.758,1.054-2.42,3.923-2.42,3.923l1.966-1.655s-1.361,2.409-2.266,4.53c-.907,2.109-2.265,6.492-2.115,8.454s0,6.191 0,6.191v6.945l-1.058-2.415s.305,3.169-.907,6.045l-.604-3.022s-2.415,5.892-4.53,8.606c-1.811,2.416-2.868,4.077-2.868,4.077l.303-2.716s-1.21,2.115-1.965,3.022c-.907.907-1.961,1.354-3.775,3.169-1.813,1.661-5.136,2.263-5.889,3.776-.604,1.661-1.965,2.716-1.965,2.716s7.854-5.284 10.421-7.093c.908-.76 1.662-1.661 1.662-1.661l-.454,2.262s3.626-4.383 4.381-5.438c2.567-2.715 4.53-8.153 4.53-8.153l.603,4.224s1.662-2.869 1.662-4.677l1.058,3.776s.908-1.661 1.058-5.138c0-1.962.907-7.853.907-10.422 0-2.715 1.208-6.646 2.719-9.207 1.357-2.569 4.83-3.176 6.341-3.176 1.36-.01 6.65.15 7.71,1.05z" fill="#bfbdb4" fill-rule="evenodd"></path>
					<path d="m339.06,269.94s-6.944,8.753-7.398,10.868c0,0-.758,1.662-.758,2.568s.305,1.361.305,1.815 1.058,1.661 1.357,2.115c.152.6 4.833,9.661 5.891,12.836 .908,2.87 2.416,5.285 2.416,5.285s-.905-2.715-1.358-4.377c-.454-1.815-4.38-11.183-4.53-12.99-.303-1.815-.758-2.569-.303-4.531 .453-1.961 1.058-2.722 2.113-3.476 .908-.754 1.813-1.508 1.813-1.508l-2.266.907 .604-.454s-1.508.454-1.811.454c-.453,0-1.358-.153-1.358-.153l.905-.754-.905.301s.905-1.361 1.208-1.662c2.28-3.49 3.18-6.66 4.09-7.26z" fill="#bfbdb4" fill-rule="evenodd"></path>
					<path d="m176.41,112.12s-5.588.304-9.061,3.776c-4.23,4.38-15.256,10.421-30.658,13.744-7.703,1.662 11.326-1.965 14.499-1.511 3.018.604 10.268,3.022 14.497,7.553s12.534,14.344 11.476,9.36c-1.053-4.98-2.715-8.606-1.661-11.779 1.058-3.169 2.568-5.284 2.568-5.284l-3.173,2.719s1.362-4.53 2.419-5.288c1.058-.604 2.115-1.812 2.115-1.812l-3.173,1.511 3.173-4.684s.753-4.077.753-5.134c-.01-2.43-1.37-3.18-3.78-3.18z" fill="#b18c70" fill-rule="evenodd"></path>
						<path d="m142.28,89.465-7.703,3.773-4.983,1.058 1.511-2.719-5.738,2.419s-2.418.757-7.401,1.358c-4.985.757-11.026-.3-8.153.454 2.868.604 7.096,3.473 13.441,2.719 6.341-.604 7.852,0 7.852,0l-4.684,1.511s11.026,1.057 13.141-.454c2.115-1.361 3.173-2.419 3.173-2.419l-5.592.758s3.173-1.965 4.08-2.569c2.266-1.058 3.928-2.416 3.928-2.416s-3.928.3-7.1,2.416 5.438-4.531 8.157-5.285c0,0-5.892,1.812-8.458,3.169-.02-.002 1.8-2.418 4.52-3.775z" fill="#bd9577" fill-rule="evenodd" stroke="#c59d7d" stroke-linecap="round" stroke-miterlimit="2.4142" stroke-width=".36"></path>
					<path d="m157.83,120.27c-3.927,2.869-19.032,7.249-26.732,7.703-7.852.3-10.722.3-10.722.3l-4.833-.3 1.058.904s-9.668.454-14.802-1.358c-5.284-1.811-8.457-2.265-10.269-3.323 0,0 5.588,3.173 12.234,4.531 6.794,1.511 12.079,2.719 17.063,2.418 4.985-.454 19.937-1.361 28.243-4.834s14.194-7.099 16.764-9.667c2.56-2.71-8.01,3.63-8.01,3.63z" fill="#caa180" fill-rule="evenodd"></path>
					<path d="m13.453,79.197s-.454,1.358-.304,2.412c.304,1.21.304,1.512.304,1.512l-.454-.755s0,1.208.604,1.962c.604.757 1.058.757 1.058.757s-.908-.153-1.662-1.208c-.757-.907-.757-2.268-.757-2.268l.454.304s-.754-1.357-.3-1.357c.753-.305 1.057-1.359 1.057-1.359z" fill="#b69073" fill-rule="evenodd"></path>
					<path d="m386.78,362.82c-.452.447-1.21,1.354-2.718.6-1.362-.6-1.965-.6-2.569-.152-.453.453-2.266,1.814-3.773,1.66-1.66-.3-1.36,1.963-8.609,1.362s-7.703.906-9.365.601c-12.986-1.508-3.473,3.175-2.718,4.083 .757,1.207 2.115,2.868 2.265,3.469 .153.454 2.719,3.477 6.799,3.477 0,0 2.716,0 4.077-1.962 0,0 1.508,1.361 4.229,1.055 0,0 2.715.307 3.473-2.569 0,0 .904,1.662 4.228,1.361 0,0 3.022.453 3.322-3.022 0,0 2.115.907 3.022-1.354 1.208-2.269.604-2.723.301-3.776-.43-1.22-1.95-4.84-1.95-4.84z" fill="#e6e3d9" fill-rule="evenodd"></path>
					<path d="m369.57,376.41s.45-1.215.604-2.115c.15-.907.15-1.814.15-1.814l.453.907s.149-1.962 0-2.87c-.15-.753-.453-1.814-.453-1.814l.453.454s-.453-2.415-.758-2.715c-.3-.455.455-.455.907.447 .455.907.908,3.022.908,3.022l-.604-.147s.301,2.568.301,3.923v1.208l-.755-.601s-.15,1.809-.453,2.115c-.16.44-1.37.9-.76-.01z" fill="#bfbdb4" fill-rule="evenodd"></path>
					<path d="m377.87,375.05s.3-1.361.15-2.269v-1.354l.304.907s.301-1.061.301-1.661c0-.607 0-1.361-.301-1.662 0-.307.601.447.601.447s-.15-.754-.45-1.66c-.15-.755-.604-2.109-.755-2.415-.152-.455.301-.902.604-.301 .45.606.45,1.208.45,1.809 0,.607.758,3.175.758,3.175l-.607-.152-.15,3.476-.3-.454-.15,1.814c.01-.02-.45,1.34-.45.28z" fill="#bfbdb4" fill-rule="evenodd"></path>
					<path d="m384.07,363.58c.453.302.907,1.509 1.058,1.962 0,.453.3,1.508.3,1.508l-.3-.3 .45,1.36c.453.755.453.755.453,1.208s.154.602.154.602l-.607-.302s.607,1.508.303,3.022c-.303.9-.303.455-.303.147v-1.508c-.15-.601-.3-2.263-.45-2.569l.45.307s-.45-.907-.45-1.213c0-.3-.604-1.655-.604-1.655h.3s0-.454-.149-.907c-.15-.308-1.058-1.815-1.511-2.115-.61-.47.91.44.91.44z" fill="#bfbdb4" fill-rule="evenodd"></path>
					<path d="m412.16,364.63s1.058,4.53.454,5.891l-.604-1.061s-1.058,1.815-1.811,3.323c-.455.753-.907,1.515-.907,1.515l-.302-1.062s-1.813,1.815-2.568,2.27c-.604.3 1.962-.607 1.962-.607l.153.607s.604-.308 1.207-.907c.905-.755 2.416-3.17 2.416-3.17l.303,1.207s.904-1.66.904-2.421c.153-.755.153-3.77-.149-4.225-.3-.62-1.05-1.37-1.05-1.37z" fill="#bfbdb4" fill-rule="evenodd"></path>
					<path d="m418.04,369.16c.3.907 0,3.176-.453,3.931s-.454,1.66-.454,1.66l-.3-1.061s-.604,1.661-1.361,2.269c-.754.755-.754.9-1.511.9-.904,0-1.357.154-1.357.154l1.057-1.055s-1.208.454-1.964.454c-.905,0-2.717.146-3.473-.307 0,0 1.66.753 2.265.753 .453,0 1.208.154 1.208.154l-.604.453s3.022.154 3.775-.146c.907-.461 1.662-1.515 1.662-1.515l.15.753s1.66-2.561 1.815-3.322c0-2.23-.46-4.05-.46-4.05z" fill="#bfbdb4" fill-rule="evenodd"></path>
					<path d="m399.47,364.18c.453.907 1.058,2.115.907,4.076l-.305,1.061-.149-.761s-.453,1.215-1.208,1.968c-.753.601-1.357.908-1.357.908l.149-.908s-1.511,1.355-3.021,1.508c-1.662.154-1.963.308-1.358.308 .453.147 2.868-.153 3.172-.308 .149-.152.454-.152.454-.152l-.758.907s2.266-.601 2.568-.907c.305-.147 1.208-1.661 1.208-1.661l.15.761s1.058-1.208 1.207-1.963c.6-2.89-1.66-4.85-1.66-4.85z" fill="#bfbdb4" fill-rule="evenodd"></path>
						<path d="m34.443,25.28s-2.869-2.872-3.773-4.38c-.757-1.661-1.815-3.626-1.815-3.626l-.15,1.361s-2.869-3.476-3.473-4.834c-.454-1.208-3.172-4.68-3.776-5.588-.754-.907-2.415-2.265-2.415-2.265l.45,1.208s-2.416-2.415-3.323-3.02c-1.208-.603-1.812-1.964-1.812-1.964l.604,2.869s-2.869-2.565-3.169-3.169c-.154-.757-.604-1.815-.604-1.815l.45,4.38-1.057-1.511s-.15,3.172 0,3.776c.154.757.454,1.814.454,1.814l-.904-1.057s.15,2.265.45,3.323c.454,1.208.758,3.927 1.512,5.284l-1.358-.907s1.058,3.323 1.961,4.08c.908.904 3.173,4.831 3.173,4.831l-1.058-.754s3.019,3.626 3.927,4.53c.15,0 .304.153.304.153" fill="none" stroke="#000" stroke-linecap="round" stroke-miterlimit="2.4142" stroke-width=".36"></path>
					<path d="m384.67,214.21c.149.907 1.662,4.53 1.662,4.53l-2.266-1.661v2.715c0,1.214 1.208,2.876 1.208,2.876l-1.662-1.214s.149,2.121.3,3.022c.154.907 1.212,1.961 1.212,1.961l-1.212-.3 2.42,3.021s-1.513-1.813-2.42-2.114c-.903-.453-1.961-1.661-1.961-1.661h1.208s-.755-.907-1.058-1.509c-.301-.76-.301-1.207-1.058-1.661-.755-.606-1.358-.76-1.358-.76l2.416.907s.303-1.655-.604-1.962c-.604-.3-1.508-1.054-1.508-1.054l2.415.446-.604-1.054 .903.307s.908-1.214.154-2.122c-.757-.9-.757-1.661-.757-1.661l1.21.607 .45-1.508 .908-2.115c.01-.03-.29,1.32.01,1.93z" fill="#bfbdb4" fill-rule="evenodd"></path>
					<path d="m441,219.35c0,.906.15,2.415-.3,3.623-.303.606-.153,1.36-.153,2.268 .153.901.453,1.962.908,2.716 .3.453.452,1.508.452,1.508s-1.36-1.962-1.965-2.716-.753-2.115-.3-2.869c.3-.453.45-2.114.15-2.268-.15-.153.754-.754.754-1.355-.14-.47.46-2.43.46-.91z" fill="#988263" fill-rule="evenodd"></path>
					<path d="m433.9,222.67s.303.447.758.601c.603.153.903.454.903.454s-.301.152-.903,0-1.362-.301-1.362-.301-.76-1.66.6-.75z" fill="#988263" fill-rule="evenodd"></path>
						<path d="m369.87,377.01c.604-.907.757-3.323.757-3.323l.453.308c.302-1.362-.303-4.685-.303-4.685l.454.146c-.151-1.507-1.058-3.168-1.058-3.168s-.907-2.415-2.265-2.569c-1.513-.453-2.72-.754-2.72-.754" fill="none" stroke="#32251f" stroke-linecap="round" stroke-miterlimit="2.4142" stroke-width=".36"></path>
						<path d="m378.02,375.66c0-.307.304-3.175.304-3.175l.301.453c.149-.601.149-3.323.149-3.323l.453.154c-.15-1.215-1.207-4.383-1.207-4.383s-1.058-2.416-2.416-2.563c-1.511-.153-2.265-.607-2.265-.607" fill="none" stroke="#32251f" stroke-linecap="round" stroke-miterlimit="2.4142" stroke-width=".36"></path>
						<path d="m385.57,373.24c.453-2.261-.3-3.923-.3-3.923l.603.146c-.303-1.055-1.058-3.015-1.058-3.015h.305c-.15-1.815-1.512-3.176-1.512-3.176s-1.208-2.263-2.416-2.263c-1.66,0-2.418-.152-2.418-.152" fill="none" stroke="#32251f" stroke-linecap="round" stroke-miterlimit="2.4142" stroke-width=".36"></path>
						<path d="m394.48,359.65s4.078.753 5.437,5.283c.757,2.423 1.058,3.776.149,4.985l-.149-.455s-1.661,2.416-3.323,2.876l.305-.907s-2.87,1.508-5.892.907" fill="none" stroke="#32251f" stroke-linecap="round" stroke-miterlimit="2.4142" stroke-width=".36"></path>
						<path d="m412.3,364.48s1.511,4.07.305,6.793l-.454-.755s-1.813,3.478-3.323,4.378l-.149-.755s-1.812,1.662-2.568,1.662" fill="none" stroke="#32251f" stroke-linecap="round" stroke-miterlimit="2.4142" stroke-width=".36"></path>
						<path d="m418.04,369.31s.755,3.022-1.207,6.038v-.453s-1.059,2.568-4.834,2.422l.453-.461s-3.473.154-4.833-.9" fill="none" stroke="#32251f" stroke-linecap="round" stroke-miterlimit="2.4142" stroke-width=".36"></path>
						<path d="m289.22,257.25s-.908-9.515-1.661-11.329" fill="none" stroke="#32251f" stroke-linecap="round" stroke-miterlimit="2.4142" stroke-width=".36"></path>
						<path d="m341.17,306.64s-4.684-12.084-5.892-14.045-4.83-8.308-4.53-9.515c.305-1.36 2.57-5.738 4.684-8.606 2.266-2.869 3.928-5.438 4.53-5.892 .45-.454 6.043-4.23 7.096-4.837 .907-.447 3.928-3.316 3.928-3.316l-.15,1.055s3.171-2.415 4.079-4.685" fill="none" stroke="#32251f" stroke-linecap="round" stroke-miterlimit="2.4142" stroke-width=".36"></path>
						<path d="m345.7,260.43s-5.288,7.245-5.738,8.153" fill="none" stroke="#32251f" stroke-linecap="round" stroke-miterlimit="2.4142" stroke-width=".36"></path>
						<path d="m319.27,142.93s6.345,3.623 8.91,6.492c2.419,2.873 5.139,4.684 5.139,4.684" fill="none" stroke="#32251f" stroke-linecap="round" stroke-miterlimit="2.4142" stroke-width=".36"></path>
						<path d="m286.2,132.51s-5.588-.754-7.701-1.058c-3.17-.604-4.985-1.812-4.985-1.812" fill="none" stroke="#32251f" stroke-linecap="round" stroke-miterlimit="2.4142" stroke-width=".36"></path>
						<path d="m3.332,89.615s-.754,2.265.454,4.681c1.058,2.265 1.964,3.022 1.964,3.022h-.907s1.812,1.058 2.115,1.058c.454.15 1.961.754 1.961.754" fill="none" stroke="#32251f" stroke-linecap="round" stroke-miterlimit="2.4142" stroke-width=".36"></path>
						<path d="m19.191,74.213s-2.569.3-3.776,1.054c-1.058.754-2.869,2.268-2.416,6.192l.15.757-.604-.153s.15,1.208.604,1.814" fill="none" stroke="#32251f" stroke-linecap="round" stroke-miterlimit="2.4142" stroke-width=".36"></path>
						<path d="m174.59,39.321s2.87-.3 3.928-.3l-1.208-.304s1.661-.6 4.38.304l-1.058-.604s1.508.454 2.264.454c.754.15 1.509.604 2.87.908" fill="none" stroke="#32251f" stroke-linecap="round" stroke-miterlimit="2.4142" stroke-width=".36"></path>
					<path d="m376.51,364.33c-.604-.301-.45-.908-1.508-1.061s-1.815-.301-2.266-.447-3.476-1.516-4.08-.761c-.453.761 1.208,1.061 2.569,1.968 .45.453.604,1.055 1.961,1.208 1.98.3 3.94-.46 3.33-.91z" fill="#f0c299" fill-rule="evenodd"></path>
					<path d="m367.91,365.38c-.455-.455-.755-1.355-1.813-1.508-.907-.154-1.965-.154-3.022-.455-.453,0-2.415.153-2.868.153-3.623.302-4.23,1.509-2.87,1.662 2.115.453 6.646,0 7.4.147 .45.16 3.62.46 3.17,0z" fill="#f0c299" fill-rule="evenodd"></path>
						<path d="m423.33,242.91s-24.768-6.039-37.304-2.568" fill="none" stroke="#32251f" stroke-linecap="round" stroke-miterlimit="2.4142" stroke-width=".936"></path>
						<path d="m421.22,244.26s-16.31-2.108-22.502.76" fill="none" stroke="#32251f" stroke-linecap="round" stroke-miterlimit="2.4142" stroke-width=".936"></path>
						<path d="m422.43,246.53s-6.949-.453-10.422,1.962" fill="none" stroke="#32251f" stroke-linecap="round" stroke-miterlimit="2.4142" stroke-width=".936"></path>
						<path d="m422.12,240.94s-19.332-8.453-30.808-7.092" fill="none" stroke="#32251f" stroke-linecap="round" stroke-miterlimit="2.4142" stroke-width=".936"></path>
						<path d="m426.05,240.04s-11.778-11.476-23.104-12.083" fill="none" stroke="#32251f" stroke-linecap="round" stroke-miterlimit="2.4142" stroke-width=".936"></path>
						<path d="m422.12,237.77s-11.78-8.006-23.255-7.399" fill="none" stroke="#32251f" stroke-linecap="round" stroke-miterlimit="2.4142" stroke-width=".936"></path>
						<path d="m365.34,193.82-1.96.154" fill="none" stroke="#b1836e" stroke-linecap="round" stroke-miterlimit="2.4142" stroke-width=".576"></path>
						<path d="m362.17,192.77-3.931.454" fill="none" stroke="#b1836e" stroke-linecap="round" stroke-miterlimit="2.4142" stroke-width=".576"></path>
						<path d="m357.94,192.01h-3.02" fill="none" stroke="#b1836e" stroke-linecap="round" stroke-miterlimit="2.4142" stroke-width=".576"></path>
						<path d="m394.64,171.32s1.811,3.776 3.776,5.284" fill="none" stroke="#7e5d4e" stroke-linecap="round" stroke-miterlimit="2.4142" stroke-width=".576"></path>
						<path d="m393.88,171.02s2.565,4.984 4.078,6.192" fill="none" stroke="#7e5d4e" stroke-linecap="round" stroke-miterlimit="2.4142" stroke-width=".576"></path>
						<path d="m395.54,174.94s1.812,2.565 3.169,3.476" fill="none" stroke="#7e5d4e" stroke-linecap="round" stroke-miterlimit="2.4142" stroke-width=".576"></path>
						<path d="m393.73,173.58s1.965,3.172 3.022,3.623" fill="none" stroke="#7e5d4e" stroke-linecap="round" stroke-miterlimit="2.4142" stroke-width=".576"></path>
						<path d="m394.94,176.45s1.814,1.813 3.022,2.569" fill="none" stroke="#7e5d4e" stroke-linecap="round" stroke-miterlimit="2.4142" stroke-width=".576"></path>
						<path d="m393.73,176.3s1.814,1.508 2.415,2.115" fill="none" stroke="#7e5d4e" stroke-linecap="round" stroke-miterlimit="2.4142" stroke-width=".576"></path>
						<path d="m394.64,177.81s2.568,2.115 3.473,2.718" fill="none" stroke="#7e5d4e" stroke-linecap="round" stroke-miterlimit="2.4142" stroke-width=".576"></path>
						<path d="m394.03,178.42s1.962,1.658 3.323,2.265" fill="none" stroke="#7e5d4e" stroke-linecap="round" stroke-miterlimit="2.4142" stroke-width=".576"></path>
						<path d="m394.18,179.32s2.115,1.812 3.473,2.569" fill="none" stroke="#7e5d4e" stroke-linecap="round" stroke-miterlimit="2.4142" stroke-width=".576"></path>
						<path d="m394.48,180.38s1.963,1.965 3.171,2.416" fill="none" stroke="#7e5d4e" stroke-linecap="round" stroke-miterlimit="2.4142" stroke-width=".576"></path>
						<path d="m394.79,181.59s1.058,1.208 2.418,1.965" fill="none" stroke="#7e5d4e" stroke-linecap="round" stroke-miterlimit="2.4142" stroke-width=".576"></path>
						<path d="m395.09,182.65s1.055,1.511 2.115,2.115" fill="none" stroke="#7e5d4e" stroke-linecap="round" stroke-miterlimit="2.4142" stroke-width=".576"></path>
						<path d="m395.54,184.31s1.358,1.208 2.716,1.812" fill="none" stroke="#7e5d4e" stroke-linecap="round" stroke-miterlimit="2.4142" stroke-width=".576"></path>
						<path d="m396,185.67s2.419,1.812 3.474,2.265" fill="none" stroke="#7e5d4e" stroke-linecap="round" stroke-miterlimit="2.4142" stroke-width=".576"></path>
						<path d="m397.21,187.63s1.813,1.357 2.716,1.511" fill="none" stroke="#7e5d4e" stroke-linecap="round" stroke-miterlimit="2.4142" stroke-width=".576"></path>
						<path d="m398.56,189.44s1.208,1.208 2.266,1.661" fill="none" stroke="#7e5d4e" stroke-linecap="round" stroke-miterlimit="2.4142" stroke-width=".576"></path>
						<path d="m399.32,191.4s1.36.755 1.811,1.209c.455.454 1.513.754 1.513.754" fill="none" stroke="#7e5d4e" stroke-linecap="round" stroke-miterlimit="2.4142" stroke-width=".576"></path>
						<path d="m399.77,193.52s1.813,1.508 2.72,1.815" fill="none" stroke="#7e5d4e" stroke-linecap="round" stroke-miterlimit="2.4142" stroke-width=".576"></path>
						<path d="m399.47,192.31s1.511,1.208 2.115,1.508" fill="none" stroke="#7e5d4e" stroke-linecap="round" stroke-miterlimit="2.4142" stroke-width=".576"></path>
						<path d="m400.68,195.18s1.813,1.508 2.266,1.662" fill="none" stroke="#7e5d4e" stroke-linecap="round" stroke-miterlimit="2.4142" stroke-width=".576"></path>
						<path d="m398.87,177.51 1.961,1.211" fill="none" stroke="#7e5d4e" stroke-linecap="round" stroke-miterlimit="2.4142" stroke-width=".576"></path>
						<path d="m398.26,178.72s1.208.604 1.36.754" fill="none" stroke="#7e5d4e" stroke-linecap="round" stroke-miterlimit="2.4142" stroke-width=".576"></path>
						<path d="m397.05,184.01s1.661,1.208 1.966,1.208" fill="none" stroke="#7e5d4e" stroke-linecap="round" stroke-miterlimit="2.4142" stroke-width=".576"></path>
						<path d="m397.05,181.89s1.361,1.058 1.815,1.208" fill="none" stroke="#7e5d4e" stroke-linecap="round" stroke-miterlimit="2.4142" stroke-width=".576"></path>
						<path d="m399.47,189.6s1.058.604 1.965,1.054" fill="none" stroke="#7e5d4e" stroke-linecap="round" stroke-miterlimit="2.4142" stroke-width=".576"></path>
						<path d="m398.41,186.72s2.415,1.211 2.869,1.662" fill="none" stroke="#7e5d4e" stroke-linecap="round" stroke-miterlimit="2.4142" stroke-width=".576"></path>
						<path d="m413.82,180.53s.758,1.361 1.058,1.815" fill="none" stroke="#7e5d4e" stroke-linecap="round" stroke-miterlimit="2.4142" stroke-width=".576"></path>
						<path d="m413.36,180.68s1.058,1.961 1.361,2.416" fill="none" stroke="#7e5d4e" stroke-linecap="round" stroke-miterlimit="2.4142" stroke-width=".576"></path>
						<path d="m412.91,180.83s.604,1.058.903,1.512" fill="none" stroke="#7e5d4e" stroke-linecap="round" stroke-miterlimit="2.4142" stroke-width=".576"></path>
						<path d="m412.61,181.13s.303,1.058.906,1.662" fill="none" stroke="#7e5d4e" stroke-linecap="round" stroke-miterlimit="2.4142" stroke-width=".576"></path>
						<path d="m412.3,181.74s.305,1.361.607,1.815" fill="none" stroke="#7e5d4e" stroke-linecap="round" stroke-miterlimit="2.4142" stroke-width=".576"></path>
						<path d="m412,182.5s.15,1.208.453,1.661" fill="none" stroke="#7e5d4e" stroke-linecap="round" stroke-miterlimit="2.4142" stroke-width=".576"></path>
						<path d="m411.7,183.55s.152.454.303.754" fill="none" stroke="#7e5d4e" stroke-linecap="round" stroke-miterlimit="2.4142" stroke-width=".576"></path>
						<path d="m411.4,184.01 .302.604" fill="none" stroke="#7e5d4e" stroke-linecap="round" stroke-miterlimit="2.4142" stroke-width=".576"></path>
						<path d="m415.02,182.8 .604.907" fill="none" stroke="#7e5d4e" stroke-linecap="round" stroke-miterlimit="2.4142" stroke-width=".576"></path>
						<path d="m413.67,182.5 .454.904" fill="none" stroke="#7e5d4e" stroke-linecap="round" stroke-miterlimit="2.4142" stroke-width=".576"></path>
						<path d="m413.21,183.1 .303.753" fill="none" stroke="#7e5d4e" stroke-linecap="round" stroke-miterlimit="2.4142" stroke-width=".576"></path>
						<path d="m393.58,172.22 1.208,1.662" fill="none" stroke="#7e5d4e" stroke-linecap="round" stroke-miterlimit="2.4142" stroke-width=".576"></path>
						<path d="m394.03,177.81 1.357,1.057" fill="none" stroke="#7e5d4e" stroke-linecap="round" stroke-miterlimit="2.4142" stroke-width=".576"></path>
						<path d="m396.75,182.95s.903.604 1.508.904" fill="none" stroke="#7e5d4e" stroke-linecap="round" stroke-miterlimit="2.4142" stroke-width=".576"></path>
						<path d="m406.11,182.95s1.511,1.058 1.814,1.662c.45.604.903,1.961.903,2.565 .305.757.907,1.965 1.208,2.265" fill="none" stroke="#32251f" stroke-linecap="round" stroke-miterlimit="2.4142" stroke-width=".576"></path>
						<path d="m410.49,184.61s4.379,1.058 6.948,2.565" fill="none" stroke="#32251f" stroke-linecap="round" stroke-miterlimit="2.4142" stroke-width=".576"></path>
						<path d="m423.33,242.91s-24.768-6.039-37.304-2.568" fill="none" stroke="#e6e6e6" stroke-linecap="round" stroke-miterlimit="2.4142" stroke-width=".144"></path>
						<path d="m421.22,244.26s-16.31-2.108-22.502.76" fill="none" stroke="#e6e6e6" stroke-linecap="round" stroke-miterlimit="2.4142" stroke-width=".144"></path>
						<path d="m422.43,246.53s-6.949-.453-10.422,1.962" fill="none" stroke="#e6e6e6" stroke-linecap="round" stroke-miterlimit="2.4142" stroke-width=".144"></path>
						<path d="m422.12,240.94s-19.332-8.453-30.808-7.092" fill="none" stroke="#e6e6e6" stroke-linecap="round" stroke-miterlimit="2.4142" stroke-width=".144"></path>
						<path d="m422.12,237.77s-11.78-8.006-23.255-7.399" fill="none" stroke="#e6e6e6" stroke-linecap="round" stroke-miterlimit="2.4142" stroke-width=".144"></path>
						<path d="m426.05,240.04s-11.778-11.476-23.104-12.083" fill="none" stroke="#e6e6e6" stroke-linecap="round" stroke-miterlimit="2.4142" stroke-width=".144"></path>
						<path d="m396.9,193.37s-1.813-1.659-2.418-1.659" fill="none" stroke="#b1836e" stroke-linecap="round" stroke-miterlimit="2.4142" stroke-width=".576"></path>
						<path d="m396,191.71s-1.207-1.358-1.812-1.508" fill="none" stroke="#b1836e" stroke-linecap="round" stroke-miterlimit="2.4142" stroke-width=".576"></path>
						<path d="m395.24,188.38s-1.208-1.662-2.114-1.965" fill="none" stroke="#b1836e" stroke-linecap="round" stroke-miterlimit="2.4142" stroke-width=".576"></path>
						<path d="m394.48,184.76s-.755-1.361-1.358-1.661" fill="none" stroke="#b1836e" stroke-linecap="round" stroke-miterlimit="2.4142" stroke-width=".576"></path>
						<path d="m394.79,185.97s-.905-.907-1.511-1.208" fill="none" stroke="#b1836e" stroke-linecap="round" stroke-miterlimit="2.4142" stroke-width=".576"></path>
						<path d="m394.18,182.35s-.906-1.211-1.208-1.361" fill="none" stroke="#b1836e" stroke-linecap="round" stroke-miterlimit="2.4142" stroke-width=".576"></path>
						<path d="m396.6,194.13s-1.357-1.361-2.415-1.361" fill="none" stroke="#b1836e" stroke-linecap="round" stroke-miterlimit="2.4142" stroke-width=".576"></path>
						<path d="m397.96,191.71-1.058-.754" fill="none" stroke="#b1836e" stroke-linecap="round" stroke-miterlimit="2.4142" stroke-width=".576"></path>
						<path d="m403.7,204.85s-3.322-1.814-5.135-2.115" fill="none" stroke="#b1836e" stroke-linecap="round" stroke-miterlimit="2.4142" stroke-width=".576"></path>
						<path d="m401.58,202.73s-3.928-2.114-6.796-1.514" fill="none" stroke="#b1836e" stroke-linecap="round" stroke-miterlimit="2.4142" stroke-width=".576"></path>
						<path d="m396,199.41s-2.868-.908-5.737-.301" fill="none" stroke="#b1836e" stroke-linecap="round" stroke-miterlimit="2.4142" stroke-width=".576"></path>
						<path d="m382.7,222.22s1.966,2.115 3.628,2.263" fill="none" stroke="#b1836e" stroke-linecap="round" stroke-miterlimit="2.4142" stroke-width=".576"></path>
						<path d="m383.76,221.46s1.513,1.214 3.628,1.661" fill="none" stroke="#b1836e" stroke-linecap="round" stroke-miterlimit="2.4142" stroke-width=".576"></path>
						<path d="m383.91,225.38s1.662,1.36 3.478,1.814" fill="none" stroke="#b1836e" stroke-linecap="round" stroke-miterlimit="2.4142" stroke-width=".576"></path>
						<path d="m383.76,218.89s.908,1.208 3.022,2.114" fill="none" stroke="#b1836e" stroke-linecap="round" stroke-miterlimit="2.4142" stroke-width=".576"></path>
						<path d="m385.27,227.95s1.66,1.809 2.868,2.269" fill="none" stroke="#b1836e" stroke-linecap="round" stroke-miterlimit="2.4142" stroke-width=".576"></path>
						<path d="m389.2,231.42 2.415.907" fill="none" stroke="#b1836e" stroke-linecap="round" stroke-miterlimit="2.4142" stroke-width=".576"></path>
						<path d="m389.2,229.62 2.115.607" fill="none" stroke="#b1836e" stroke-linecap="round" stroke-miterlimit="2.4142" stroke-width=".576"></path>
						<path d="m391.92,231.12 1.513.454" fill="none" stroke="#b1836e" stroke-linecap="round" stroke-miterlimit="2.4142" stroke-width=".576"></path>
						<path d="m293.6,223.42-1.965,4.983" fill="none" stroke="#b1836e" stroke-linecap="round" stroke-miterlimit="2.4142" stroke-width=".576"></path>
						<path d="m294.36,218.89-2.415,3.776" fill="none" stroke="#b1836e" stroke-linecap="round" stroke-miterlimit="2.4142" stroke-width=".576"></path>
						<path d="m295.11,214.66-2.115,2.869" fill="none" stroke="#b1836e" stroke-linecap="round" stroke-miterlimit="2.4142" stroke-width=".576"></path>
						<path d="m294.36,227.65-2.415,3.47" fill="none" stroke="#b1836e" stroke-linecap="round" stroke-miterlimit="2.4142" stroke-width=".576"></path>
						<path d="m294.05,232.33-1.058,3.176" fill="none" stroke="#b1836e" stroke-linecap="round" stroke-miterlimit="2.4142" stroke-width=".576"></path>
						<path d="m294.81,209.38-1.813,2.716" fill="none" stroke="#b1836e" stroke-linecap="round" stroke-miterlimit="2.4142" stroke-width=".576"></path>
						<path d="m299.64,214.21s-2.415,2.869-2.868,4.23" fill="none" stroke="#b1836e" stroke-linecap="round" stroke-miterlimit="2.4142" stroke-width=".576"></path>
						<path d="m296.77,211.49 2.568-3.176" fill="none" stroke="#b1836e" stroke-linecap="round" stroke-miterlimit="2.4142" stroke-width=".576"></path>
						<path d="m295.42,224.78 1.811-2.716" fill="none" stroke="#b1836e" stroke-linecap="round" stroke-miterlimit="2.4142" stroke-width=".576"></path>
						<path d="m291.18,219.95s-2.415,4.53-2.87,6.646" fill="none" stroke="#b1836e" stroke-linecap="round" stroke-miterlimit="2.4142" stroke-width=".576"></path>
						<path d="m291.18,216.78-2.115,2.716" fill="none" stroke="#b1836e" stroke-linecap="round" stroke-miterlimit="2.4142" stroke-width=".576"></path>
						<path d="m298.43,281.57s-1.358,2.563-1.208,3.469" fill="none" stroke="#b1836e" stroke-linecap="round" stroke-miterlimit="2.4142" stroke-width=".576"></path>
						<path d="m298.43,277.19-1.058,3.623" fill="none" stroke="#b1836e" stroke-linecap="round" stroke-miterlimit="2.4142" stroke-width=".576"></path>
						<path d="m297.98,274.77-.905,2.869" fill="none" stroke="#b1836e" stroke-linecap="round" stroke-miterlimit="2.4142" stroke-width=".576"></path>
						<path d="m324.41,161.05-4.985-2.416" fill="none" stroke="#b1836e" stroke-linecap="round" stroke-miterlimit="2.4142" stroke-width=".576"></path>
						<path d="m325.16,157.58s-4.23-2.869-5.738-3.173" fill="none" stroke="#b1836e" stroke-linecap="round" stroke-miterlimit="2.4142" stroke-width=".576"></path>
						<path d="m324.71,154.71s-3.17-2.415-4.53-3.173" fill="none" stroke="#b1836e" stroke-linecap="round" stroke-miterlimit="2.4142" stroke-width=".576"></path>
						<path d="m322.3,150.93-3.473-2.869" fill="none" stroke="#b1836e" stroke-linecap="round" stroke-miterlimit="2.4142" stroke-width=".576"></path>
						<path d="m320.48,147.76s-1.66-1.208-2.718-1.508" fill="none" stroke="#b1836e" stroke-linecap="round" stroke-miterlimit="2.4142" stroke-width=".576"></path>
						<path d="m320.48,153.35-3.926-2.111" fill="none" stroke="#b1836e" stroke-linecap="round" stroke-miterlimit="2.4142" stroke-width=".576"></path>
						<path d="m205.25,180.83s-2.266,1.812-5.438,1.512" fill="none" stroke="#b1836e" stroke-linecap="round" stroke-miterlimit="2.4142" stroke-width=".576"></path>
						<path d="m209.03,182.95-4.833.45" fill="none" stroke="#b1836e" stroke-linecap="round" stroke-miterlimit="2.4142" stroke-width=".576"></path>
						<path d="m216.58,185.82-3.623.754" fill="none" stroke="#b1836e" stroke-linecap="round" stroke-miterlimit="2.4142" stroke-width=".576"></path>
						<path d="m188.19,154.71h-4.53" fill="none" stroke="#b1836e" stroke-linecap="round" stroke-miterlimit="2.4142" stroke-width=".576"></path>
						<path d="m187.13,156.52s2.568-.3 3.625-.3" fill="none" stroke="#b1836e" stroke-linecap="round" stroke-miterlimit="2.4142" stroke-width=".576"></path>
						<path d="m177.61,133.56-3.473,3.173" fill="none" stroke="#b1836e" stroke-linecap="round" stroke-miterlimit="2.4142" stroke-width=".576"></path>
						<path d="m178.37,131.45-4.23,1.812" fill="none" stroke="#b1836e" stroke-linecap="round" stroke-miterlimit="2.4142" stroke-width=".576"></path>
						<path d="m177.31,137.79-1.815,1.361" fill="none" stroke="#b1836e" stroke-linecap="round" stroke-miterlimit="2.4142" stroke-width=".576"></path>
						<path d="m179.12,129.64s1.662-1.661 3.173-1.661" fill="none" stroke="#b1836e" stroke-linecap="round" stroke-miterlimit="2.4142" stroke-width=".576"></path>
						<path d="m178.37,126.46-4.985,2.115" fill="none" stroke="#b1836e" stroke-linecap="round" stroke-miterlimit="2.4142" stroke-width=".576"></path>
						<path d="m180.79,118.01-2.416,1.357" fill="none" stroke="#b1836e" stroke-linecap="round" stroke-miterlimit="2.4142" stroke-width=".576"></path>
						<path d="m10.58,101.09 4.984-.303" fill="none" stroke="#b1836e" stroke-linecap="round" stroke-miterlimit="2.4142" stroke-width=".576"></path>
						<path d="m14.507,102.15 2.873-1.055" fill="none" stroke="#b1836e" stroke-linecap="round" stroke-miterlimit="2.4142" stroke-width=".576"></path>
						<path d="m21.91,102.15 2.415-.754" fill="none" stroke="#b1836e" stroke-linecap="round" stroke-miterlimit="2.4142" stroke-width=".576"></path>
						<path d="m81.261,81.005 2.868,1.661" fill="none" stroke="#b1836e" stroke-linecap="round" stroke-miterlimit="2.4142" stroke-width=".576"></path>
						<path d="m83.375,83.724 2.869,1.057" fill="none" stroke="#b1836e" stroke-linecap="round" stroke-miterlimit="2.4142" stroke-width=".576"></path>
						<path d="m85.49,86.292 2.415.301" fill="none" stroke="#b1836e" stroke-linecap="round" stroke-miterlimit="2.4142" stroke-width=".576"></path>
						<path d="m12.242,5.645s1.058,2.719 1.965,3.927" fill="none" stroke="#b1836e" stroke-linecap="round" stroke-miterlimit="2.4142" stroke-width=".576"></path>
						<path d="m11.188,5.645s1.054,6.041 3.019,8.006" fill="none" stroke="#b1836e" stroke-linecap="round" stroke-miterlimit="2.4142" stroke-width=".576"></path>
						<path d="m11.488,10.328 .604,1.661" fill="none" stroke="#b1836e" stroke-linecap="round" stroke-miterlimit="2.4142" stroke-width=".576"></path>
						<path d="m15.564,5.645s1.058,1.814 2.265,2.872c1.211,1.055 1.815,2.265 1.815,2.265" fill="none" stroke="#b1836e" stroke-linecap="round" stroke-miterlimit="2.4142" stroke-width=".576"></path>
						<path d="m20.702,8.817s2.265,2.869 2.715,4.076" fill="none" stroke="#b1836e" stroke-linecap="round" stroke-miterlimit="2.4142" stroke-width=".576"></path>
						<path d="m24.929,15.916 1.661,2.415" fill="none" stroke="#b1836e" stroke-linecap="round" stroke-miterlimit="2.4142" stroke-width=".576"></path>
						<path d="m16.775,10.024s2.869,2.869 3.169,4.23c.304,1.208 1.814,2.416 1.814,2.416" fill="none" stroke="#b1836e" stroke-linecap="round" stroke-miterlimit="2.4142" stroke-width=".576"></path>
						<path d="m29.159,24.976s5.888,5.134 7.853,6.042" fill="none" stroke="#b1836e" stroke-linecap="round" stroke-miterlimit="2.4142" stroke-width=".576"></path>
						<path d="m19.491,25.28s5.588,6.342 8.61,8.757" fill="none" stroke="#b1836e" stroke-linecap="round" stroke-miterlimit="2.4142" stroke-width=".576"></path>
						<path d="m22.967,27.241s6.192,6.192 8.457,7.703" fill="none" stroke="#b1836e" stroke-linecap="round" stroke-miterlimit="2.4142" stroke-width=".576"></path>
						<path d="m18.587,26.485 4.831,4.987" fill="none" stroke="#b1836e" stroke-linecap="round" stroke-miterlimit="2.4142" stroke-width=".576"></path>
						<path d="m21.759,21.5s8.303,11.783 14.648,14.352" fill="none" stroke="#b1836e" stroke-linecap="round" stroke-miterlimit="2.4142" stroke-width=".576"></path>
						<path d="m13.903,16.82s2.569,3.626 3.173,3.927" fill="none" stroke="#b1836e" stroke-linecap="round" stroke-miterlimit="2.4142" stroke-width=".576"></path>
						<path d="m26.29,20.143 2.111,2.569" fill="none" stroke="#b1836e" stroke-linecap="round" stroke-miterlimit="2.4142" stroke-width=".576"></path>
						<path d="m272.16,127.67s-3.926-1.358-5.738-2.416" fill="none" stroke="#b1836e" stroke-linecap="round" stroke-miterlimit="2.4142" stroke-width=".576"></path>
						<path d="m267.48,124.35s-3.775-1.358-5.136-2.718" fill="none" stroke="#b1836e" stroke-linecap="round" stroke-miterlimit="2.4142" stroke-width=".576"></path>
						<path d="m263.7,121.18s-2.115-.453-3.776-2.418" fill="none" stroke="#b1836e" stroke-linecap="round" stroke-miterlimit="2.4142" stroke-width=".576"></path>
						<path d="m275.33,129.64s-3.022-.454-4.684-1.511" fill="none" stroke="#b1836e" stroke-linecap="round" stroke-miterlimit="2.4142" stroke-width=".576"></path>
						<path d="m259.62,117.55-1.812-1.812" fill="none" stroke="#b1836e" stroke-linecap="round" stroke-miterlimit="2.4142" stroke-width=".576"></path>
						<path d="m343.59,206.66s-1.811,2.869-1.811,4.53" fill="none" stroke="#b1836e" stroke-linecap="round" stroke-miterlimit="2.4142" stroke-width=".576"></path>
						<path d="m343.44,211.79s-1.207,2.868-.453,4.076" fill="none" stroke="#b1836e" stroke-linecap="round" stroke-miterlimit="2.4142" stroke-width=".576"></path>
						<path d="m344.35,214.82s-.607,2.715.3,3.923 1.813,3.93 1.813,3.93" fill="none" stroke="#b1836e" stroke-linecap="round" stroke-miterlimit="2.4142" stroke-width=".576"></path>
						<path d="m346.61,218.89s.755,2.716 1.508,3.322" fill="none" stroke="#b1836e" stroke-linecap="round" stroke-miterlimit="2.4142" stroke-width=".576"></path>
						<path d="m342.23,202.13s-2.266,3.776-2.115,5.891" fill="none" stroke="#b1836e" stroke-linecap="round" stroke-miterlimit="2.4142" stroke-width=".576"></path>
						<path d="m342.23,205.45s.904-2.87 1.812-3.624" fill="none" stroke="#b1836e" stroke-linecap="round" stroke-miterlimit="2.4142" stroke-width=".576"></path>
						<path d="m342.38,200.92s.755-2.569 2.57-3.169" fill="none" stroke="#b1836e" stroke-linecap="round" stroke-miterlimit="2.4142" stroke-width=".576"></path>
						<path d="m348.42,274.92-3.173,3.924" fill="none" stroke="#b1836e" stroke-linecap="round" stroke-miterlimit="2.4142" stroke-width=".576"></path>
						<path d="m345.25,276.43-2.115,2.869" fill="none" stroke="#b1836e" stroke-linecap="round" stroke-miterlimit="2.4142" stroke-width=".576"></path>
						<path d="m342.08,278.09-1.508,1.508" fill="none" stroke="#b1836e" stroke-linecap="round" stroke-miterlimit="2.4142" stroke-width=".576"></path>
						<path d="m351.9,272.2-1.357,2.722" fill="none" stroke="#b1836e" stroke-linecap="round" stroke-miterlimit="2.4142" stroke-width=".576"></path>
						<path d="m297.23,260.12-1.511,3.93" fill="none" stroke="#b1836e" stroke-linecap="round" stroke-miterlimit="2.4142" stroke-width=".576"></path>
						<path d="m297.23,264.5-1.058,2.716" fill="none" stroke="#b1836e" stroke-linecap="round" stroke-miterlimit="2.4142" stroke-width=".576"></path>
						<path d="m297.23,268.58-.453,1.508" fill="none" stroke="#b1836e" stroke-linecap="round" stroke-miterlimit="2.4142" stroke-width=".576"></path>
						<path d="m233.34,102.15-3.926-2.112" fill="none" stroke="#b1836e" stroke-linecap="round" stroke-miterlimit="2.4142" stroke-width=".576"></path>
						<path d="m229.72,101.4-3.775-1.058" fill="none" stroke="#b1836e" stroke-linecap="round" stroke-miterlimit="2.4142" stroke-width=".576"></path>
						<path d="m225.64,101.4-3.776.303" fill="none" stroke="#b1836e" stroke-linecap="round" stroke-miterlimit="2.4142" stroke-width=".576"></path>
						<path d="m220.36,143.08-4.983,2.416" fill="none" stroke="#b1836e" stroke-linecap="round" stroke-miterlimit="2.4142" stroke-width=".576"></path>
						<path d="m218.24,145.95-2.868,2.416" fill="none" stroke="#b1836e" stroke-linecap="round" stroke-miterlimit="2.4142" stroke-width=".576"></path>
						<path d="m216.58,149.72-2.265,2.869" fill="none" stroke="#b1836e" stroke-linecap="round" stroke-miterlimit="2.4142" stroke-width=".576"></path>
						<path d="m222.17,139.6-3.173,1.661" fill="none" stroke="#b1836e" stroke-linecap="round" stroke-miterlimit="2.4142" stroke-width=".576"></path>
						<path d="m217.94,128.28-4.229,3.173" fill="none" stroke="#b1836e" stroke-linecap="round" stroke-miterlimit="2.4142" stroke-width=".576"></path>
						<path d="m214.77,132.05-2.568,1.812" fill="none" stroke="#b1836e" stroke-linecap="round" stroke-miterlimit="2.4142" stroke-width=".576"></path>
						<path d="m213.41,134.62-2.872,1.812" fill="none" stroke="#b1836e" stroke-linecap="round" stroke-miterlimit="2.4142" stroke-width=".576"></path>
						<path d="m211.59,137.49-1.358,2.114" fill="none" stroke="#b1836e" stroke-linecap="round" stroke-miterlimit="2.4142" stroke-width=".576"></path>
						<path d="m76.73,72.248s-2.565-2.869-2.869-3.477c-.15-.603-1.358-1.357-1.812-1.661" fill="none" stroke="#b1836e" stroke-linecap="round" stroke-miterlimit="2.4142" stroke-width=".576"></path>
						<path d="m71.296,66.963-1.665-.757" fill="none" stroke="#b1836e" stroke-linecap="round" stroke-miterlimit="2.4142" stroke-width=".576"></path>
						<path d="m70.388,68.017s-1.208-.754-1.965-.754c-.754,0-1.512-.153-1.512-.153" fill="none" stroke="#b1836e" stroke-linecap="round" stroke-miterlimit="2.4142" stroke-width=".576"></path>
						<path d="m67.819,67.567s-2.265-.153-2.568.15" fill="none" stroke="#b1836e" stroke-linecap="round" stroke-miterlimit="2.4142" stroke-width=".576"></path>
						<path d="m66.008,68.321s-1.812.45-2.415.45" fill="none" stroke="#b1836e" stroke-linecap="round" stroke-miterlimit="2.4142" stroke-width=".576"></path>
						<path d="m64.046,69.378s-1.061.604-1.662.754" fill="none" stroke="#b1836e" stroke-linecap="round" stroke-miterlimit="2.4142" stroke-width=".576"></path>
						<path d="m321.99,311.77 .908,4.677" fill="none" stroke="#b1836e" stroke-linecap="round" stroke-miterlimit="2.4142" stroke-width=".576"></path>
						<path d="m324.71,315.85s1.208,3.469 1.208,4.83" fill="none" stroke="#b1836e" stroke-linecap="round" stroke-miterlimit="2.4142" stroke-width=".576"></path>
						<path d="m327.58,320.53 1.058,3.17" fill="none" stroke="#b1836e" stroke-linecap="round" stroke-miterlimit="2.4142" stroke-width=".576"></path>
						<path d="m330.15,323.55 .453,3.323" fill="none" stroke="#b1836e" stroke-linecap="round" stroke-miterlimit="2.4142" stroke-width=".576"></path>
						<path d="m332.56,327.17 .303,2.723" fill="none" stroke="#b1836e" stroke-linecap="round" stroke-miterlimit="2.4142" stroke-width=".576"></path>
			
		
	
</svg>
