<?xml version="1.0" encoding="UTF-8" standalone="no"?>
<svg enable-background="new 0 0 422.041 228.923" viewBox="0 0 422.041 228.923" xmlns="http://www.w3.org/2000/svg">
<path d="m127.998,20.914c31.294,2.844 67.159,5.912 95.654-8.328 31.843-15.913 67.979,5.851 93.021,23.233 7.775,5.397 14.923,10.965 21.938,15.78 3.081,2.115 22.818,11.355 22.818,14.028 0,4.229 17.638,6.137 21.06,6.137 7.427,0 15.876-11.118 19.306-15.781 4.323-5.878 10.78-19.284 17.553-10.521 5.756,7.447-2.421,16.221-5.704,22.795-7.306,14.626-22.806,25.55-41.685,20.165-31.082-8.867-51.202-35.484-78.98-49.097 7.194,16.832 1.636,34.239 18.429,44.713 3.454,2.154 12.556,2.361 14.04,4.384 1.456,1.984-.493,10.143-.877,12.273-1.564,8.696-4.094,17.066-7.02,25.426-4.941,14.117-6.788,33.341-20.185,42.082-10.646,6.946-43.899-9.446-31.592-21.918 5.729-5.805 15.461-3.538 21.938-11.397 2.506-3.04 11.534-16.113 8.776-21.041-1.983-3.545-20.444-5.578-24.572-6.137-4.313-.583-10.353-.348-14.041-2.192-5.786-2.893-5.367.092-8.776,3.068-5.73,5.003-12.178,15.568-15.356,21.919-4.568,9.126-10.044,12.227-17.112,19.287-13.158,13.144-39.923-10.649-21.062-21.918 3.887-2.322 8.511.569 12.286-1.315 4.463-2.228 7.008-7.882 10.531-9.644 4.937-2.469 7.087-20.757 9.653-25.863-9.375,12.173-31.59,22.093-45.634,28.056-15.165,6.438-31.123,8.018-43,18.411-6.216,5.439-11.043,12.971-19.306,17.095-5.999,2.995-16.683,9.226-19.745,15.344-3.277,6.546-13.603,12.908-13.603,21.041 0,3.895-11.387,17.142-14.919,21.041-4.503,4.973-17.439,13.689-19.306.876-4.007,7.011-19.878,10.712-21.062,0-8.151,8.68-19.363-4.998-9.652-11.396-14.146-9.192 7.758-9.528 12.286-11.397 9.456-3.904 17.185-13.611 26.327-18.412 16.338-8.58 27.278-27.407 26.327-47.342-13.758,5.995-26.309,12.684-35.103,25.863-4.803,7.197 5.265,14.908-3.51,19.287-5.93,2.96-16.58-1.958-20.184-4.822-13.694-10.884-.395-28.43 9.652-39.451 6.195-6.796 12.913-10.723 6.143-19.288-5.316-6.726-15.326-6.066-21.061-12.274 1.449.138 2.94-.151 4.388,0-3.38-.887-6.405-2.7-8.776-5.26 1.441.723 2.907,1.141 4.388,1.753-2.652-2.407-5.083-4.956-7.021-7.891-1.228-.756 3.488.87 3.51.877-2.146-1.862-3.398-4.168-5.265-6.137 .849.472 2.546.608 3.511.876-3.159-1.813-2.815-3.014-4.389-6.137 .648.214 2.155.756 2.633.877-2.595-6.489 3.235-19.876 7.021-25.425-7.421-1.448-7.124-12.33-14.918-14.904 20.688,1.313 40.706-8.738 60.552-9.644 10.179-.465 16.184,7.542 27.205,5.26 10.84-2.246 21.43-4.934 32.47-7.015" fill="#ff7f00" fill-rule="evenodd"/>
<path d="m127.998,20.914c16.161,1.469 33.095,1.754 50.021,1.754 18.223,0 29.676-6.049 46.511-10.521" fill="none" stroke="#000" stroke-linecap="square" stroke-miterlimit="10" stroke-width=".75"/>
<path d="m224.529,12.147c7.082-1.074 14.407-4.175 21.938-4.383 7.376-.204 14.524,2.63 21.063,2.63 12.363,0 37.22,12.793 43.878,22.794" fill="none" stroke="#000" stroke-linecap="square" stroke-miterlimit="10" stroke-width=".75"/>
<path d="m311.408,33.188c15.689,3.489 28.518,21.264 43.001,28.494 13.135,6.557 24.903,17.068 39.49,3.068" fill="none" stroke="#000" stroke-linecap="square" stroke-miterlimit="10" stroke-width=".75"/>
<path d="m393.899,64.75c5.576-4.301 21.183-34.162 27.204-16.657 3.788,11.011-12.623,27.095-17.552,33.315" fill="none" stroke="#000" stroke-linecap="square" stroke-miterlimit="10" stroke-width=".75"/>
<path d="m403.551,81.408c-5.554,6.015-13.981,9.468-22.816,8.767-8.208-.651-16.012-7.891-23.693-7.891-3.284,0-18.913-8.856-20.623-12.273-1.924-3.845-15.747-13.34-19.745-14.904" fill="none" stroke="#000" stroke-linecap="square" stroke-miterlimit="10" stroke-width=".75"/>
<path d="m316.673,55.106c-5.827-6.707-16.214-12.116-23.694-15.781 4.199,9.825 1.739,22.326 6.143,31.562 .94,1.974 7.925,11.397 10.531,11.397 1.402,0 15.438,6.72 15.795,7.015" fill="none" stroke="#000" stroke-linecap="square" stroke-miterlimit="10" stroke-width=".75"/>
<path d="m325.448,89.299c.501,15.654-6.232,31.279-10.529,45.589-3.75,12.487-8.737,34.347-23.695,36.821" fill="none" stroke="#000" stroke-linecap="square" stroke-miterlimit="10" stroke-width=".75"/>
<path d="m291.223,171.709c-7.216-.47-17.034-5.025-21.938-9.644-2.52-2.372-10.688-16.657-1.756-16.657 16.815,0 24.092-15.487 28.96-28.932" fill="none" stroke="#000" stroke-linecap="square" stroke-miterlimit="10" stroke-width=".75"/>
<path d="m296.49,116.477c.004-5.681-37.038-13.555-43.001-12.274-9.844,2.114-20.06,29.627-26.327,37.699" fill="none" stroke="#000" stroke-linecap="square" stroke-miterlimit="10" stroke-width=".75"/>
<path d="m227.162,141.901c-5.03,5.672-12.853,10.598-20.184,10.521-6.875-.072-16.674-2.727-16.674-9.644 0-8.212 2.147-12.727 9.653-15.781 3.5-1.425 6.569.255 10.531-1.753 3.396-1.721 6.539-6.326 8.775-8.768" fill="none" stroke="#000" stroke-linecap="square" stroke-miterlimit="10" stroke-width=".75"/>
<path d="m219.263,116.477c3.888-7.886 4.875-17.663 8.776-25.425-11.685,15.17-37.938,24.664-55.287,32.438" fill="none" stroke="#000" stroke-linecap="square" stroke-miterlimit="10" stroke-width=".75"/>
<path d="m172.752,123.49c-6.451,3.014-14.184,1.824-20.184,4.822-7.067,3.531-12.387,9.304-17.551,14.466-11.079,11.076-25.59,20.485-37.735,29.808" fill="none" stroke="#000" stroke-linecap="square" stroke-miterlimit="10" stroke-width=".75"/>
<path d="m97.282,172.586c-7.209,10.807-12.008,20.467-19.306,30.686-3.932,5.506-22.722,28.357-25.449,9.644-4.629,8.1-13.189,7.916-20.184,3.508" fill="none" stroke="#000" stroke-linecap="square" stroke-miterlimit="10" stroke-width=".75"/>
<path d="m32.342,216.423c-.205-1.351-1.075-1.967-.878-3.508-8.151,8.68-19.363-4.998-9.652-11.396-14.413-9.365 8.71-9.611 13.163-11.836 10.187-5.089 15.956-15.146 27.205-18.85" fill="none" stroke="#000" stroke-linecap="square" stroke-miterlimit="10" stroke-width=".75"/>
<path d="m62.18,170.833c15.611-6.265 25.398-29.142 24.572-46.466-9.215,4.016-20.744,8.903-28.082,16.657" fill="none" stroke="#000" stroke-linecap="square" stroke-miterlimit="10" stroke-width=".75"/>
<path d="m58.669,141.024c-6.344,4.312-8.082,11.269-8.775,18.41-.378,3.895 5.301,4.315 0,8.769-4.24,3.562-6.299-.618-10.531.438-6.67,1.666-14.505-3.29-16.673-8.33-3.868-8.99 1.245-16.53 6.143-22.793" fill="none" stroke="#000" stroke-linecap="square" stroke-miterlimit="10" stroke-width=".75"/>
<path d="m28.833,137.519c4.323-4.208 18.753-19.261 18.429-25.426-.598-11.36-18.274-11.594-24.572-18.411 1.449.138 2.94-.151 4.388,0-3.38-.887-6.405-2.7-8.776-5.26 1.441.723 2.907,1.141 4.388,1.753-2.034-2.03-3.984-4.241-6.143-6.137" fill="none" stroke="#000" stroke-linecap="square" stroke-miterlimit="10" stroke-width=".75"/>
<path d="m16.546,84.038c.507-.292-1.234-1.768-1.755-1.754 1.63.699 3.834.712 4.388.877-2.146-1.862-3.398-4.168-5.265-6.137 .849.472 2.546.608 3.511.876-3.159-1.813-2.815-3.014-4.389-6.137 .648.214 2.155.756 2.633.877-2.595-6.489 3.235-19.876 7.021-25.425-7.421-1.448-7.124-12.33-14.918-14.904 1.432,0 2.971-.168 4.387,0" fill="none" stroke="#000" stroke-linecap="square" stroke-miterlimit="10" stroke-width=".75"/>
<path d="m12.158,32.312c16.195-.981 31.604-7.014 47.389-7.014 9.328,0 11.758-2.082 21.061.877 8.757,2.785 16.553,2.915 25.45-1.754" fill="none" stroke="#000" stroke-linecap="square" stroke-miterlimit="10" stroke-width=".75"/>
<path d="m106.058,24.421c6.841-2.318 14.807-2.163 21.939-3.507" fill="none" stroke="#000" stroke-linecap="square" stroke-miterlimit="10" stroke-width=".75"/>
<path d="m127.998,20.914c31.294,2.844 67.159,5.912 95.654-8.328 31.843-15.913 67.979,5.851 93.021,23.233 7.775,5.397 14.923,10.965 21.938,15.78 3.081,2.115 22.818,11.355 22.818,14.028 0,4.229 17.638,6.137 21.06,6.137 7.427,0 15.876-11.118 19.306-15.781 4.323-5.878 10.78-19.284 17.553-10.521 5.756,7.447-2.421,16.221-5.704,22.795-7.306,14.626-22.806,25.55-41.685,20.165-31.082-8.867-51.202-35.484-78.98-49.097 7.194,16.832 1.636,34.239 18.429,44.713 3.454,2.154 12.556,2.361 14.04,4.384 1.456,1.984-.493,10.143-.877,12.273-1.564,8.696-4.094,17.066-7.02,25.426-4.941,14.117-6.788,33.341-20.185,42.082-10.646,6.946-43.899-9.446-31.592-21.918 5.729-5.805 15.461-3.538 21.938-11.397 2.506-3.04 11.534-16.113 8.776-21.041-1.983-3.545-20.444-5.578-24.572-6.137-4.313-.583-10.353-.348-14.041-2.192-5.786-2.893-5.367.092-8.776,3.068-5.73,5.003-12.178,15.568-15.356,21.919-4.568,9.126-10.044,12.227-17.112,19.287-13.158,13.144-39.923-10.649-21.062-21.918 3.887-2.322 8.511.569 12.286-1.315 4.463-2.228 7.008-7.882 10.531-9.644 4.937-2.469 7.087-20.757 9.653-25.863-9.375,12.173-31.59,22.093-45.634,28.056-15.165,6.438-31.123,8.018-43,18.411-6.216,5.439-11.043,12.971-19.306,17.095-5.999,2.995-16.683,9.226-19.745,15.344-3.277,6.546-13.603,12.908-13.603,21.041 0,3.895-11.387,17.142-14.919,21.041-4.503,4.973-17.439,13.689-19.306.876-4.007,7.011-19.878,10.712-21.062,0-8.151,8.68-19.363-4.998-9.652-11.396-14.146-9.192 7.758-9.528 12.286-11.397 9.456-3.904 17.185-13.611 26.327-18.412 16.338-8.58 27.278-27.407 26.327-47.342-13.758,5.995-26.309,12.684-35.103,25.863-4.803,7.197 5.265,14.908-3.51,19.287-5.93,2.96-16.58-1.958-20.184-4.822-13.694-10.884-.395-28.43 9.652-39.451 6.195-6.796 12.913-10.723 6.143-19.288-5.316-6.726-15.326-6.066-21.061-12.274 1.449.138 2.94-.151 4.388,0-3.38-.887-6.405-2.7-8.776-5.26 1.441.723 2.907,1.141 4.388,1.753-2.652-2.407-5.083-4.956-7.021-7.891-1.228-.756 3.488.87 3.51.877-2.146-1.862-3.398-4.168-5.265-6.137 .849.472 2.546.608 3.511.876-3.159-1.813-2.815-3.014-4.389-6.137 .648.214 2.155.756 2.633.877-2.595-6.489 3.235-19.876 7.021-25.425-7.421-1.448-7.124-12.33-14.918-14.904 20.688,1.313 40.706-8.738 60.552-9.644 10.179-.465 16.184,7.542 27.205,5.26 10.84-2.246 21.43-4.934 32.47-7.015" fill="none" stroke="#000" stroke-linecap="square" stroke-miterlimit="10" stroke-width=".75"/>
<path d="m84.119,27.928c4,8.609 18.145,1.754 26.327,1.754-.177,0 16.002,20.012 16.674,21.917-1.461-6.87-7.556-19.615-14.042-23.671-9.833-6.15-19.293,3.875-28.959,0" fill-rule="evenodd"/>
<path d="m84.119,27.928c4,8.609 18.145,1.754 26.327,1.754-.177,0 16.002,20.012 16.674,21.917-2.704-12.716-10.61-23.217-23.695-26.301" fill="none" stroke="#000" stroke-linecap="square" stroke-miterlimit="10" stroke-width=".75"/>
<path d="m103.425,25.298c-4.867,2.813-14.064,4.731-19.306,2.63" fill="none" stroke="#000" stroke-linecap="square" stroke-miterlimit="10" stroke-width=".75"/>
<path d="m84.119,27.928c4,8.609 18.145,1.754 26.327,1.754-.177,0 16.002,20.012 16.674,21.917-1.461-6.87-7.556-19.615-14.042-23.671-9.833-6.15-19.293,3.875-28.959,0" fill="none" stroke="#000" stroke-linecap="square" stroke-miterlimit="10" stroke-width=".75"/>
<path d="m84.119,27.928c.811,2.041 2.347,3.575 4.388,4.384" fill="none" stroke="#000" stroke-linecap="square" stroke-miterlimit="10" stroke-width=".75"/>
<path d="m84.119,27.928c.811,2.041 2.347,3.575 4.388,4.384" fill="none" stroke="#000" stroke-linecap="square" stroke-miterlimit="10" stroke-width=".75"/>
<path d="m88.507,32.312c3.28-.253 6.384-.535 9.653-.877" fill="none" stroke="#000" stroke-linecap="square" stroke-miterlimit="10" stroke-width=".75"/>
<path d="m88.507,32.312c3.28-.253 6.384-.535 9.653-.877" fill="none" stroke="#000" stroke-linecap="square" stroke-miterlimit="10" stroke-width=".75"/>
<path d="m98.16,31.435c3.854-1.441 8.036-2.021 12.286-1.753" fill="none" stroke="#000" stroke-linecap="square" stroke-miterlimit="10" stroke-width=".75"/>
<path d="m98.16,31.435c3.854-1.441 8.036-2.021 12.286-1.753" fill="none" stroke="#000" stroke-linecap="square" stroke-miterlimit="10" stroke-width=".75"/>
<path d="m59.547,73.518c-4.762,9.515-6.472,15.667-3.072,25.862 1.705,5.11.478,10.819 7.459,11.836 2.113.308 13.436-5.174 14.041-6.137 1.579-2.513 0-10.902 0-14.027 0-4.187 6.057-9.288 5.266-14.027-2.269-13.605-16.584-7.507-23.694-3.507" fill="#963d2a" fill-rule="evenodd"/>
<path d="m81.486,84.915c5.595-16.522-14.667-22.586-22.817-9.644-8.649,13.738 15.478,15.03 22.817,9.644" fill="#7b3222" fill-rule="evenodd"/>
<path d="m78.853,69.134c-3.906-3.163-9.931-3.822-14.041,0 3.251,3.268 13.681,3.673 14.041,0" fill-rule="evenodd"/>
<path d="m78.853,69.134c-3.906-3.163-9.931-3.822-14.041,0 3.251,3.268 13.681,3.673 14.041,0" fill="none" stroke="#000" stroke-linecap="square" stroke-miterlimit="10" stroke-width=".75"/>
<path d="m78.853,69.134c-3.906-3.163-9.931-3.822-14.041,0 3.251,3.268 13.681,3.673 14.041,0" fill="none" stroke="#000" stroke-linecap="square" stroke-miterlimit="10" stroke-width=".75"/>
<path d="m77.976,103.325c-1.199-1.566-7.494-4.313-6.582-6.138 1.53-3.059 2.62-6.322 3.071-9.643-3.382,1.252-12.447-1.431-13.602.877-1.862,3.721-4.691,9.917-2.633,14.027 2.883,5.755 5.288,5.911 10.97,6.137s10.628-3.927 8.776-5.26" fill="none" stroke="#000" stroke-linecap="square" stroke-miterlimit="10" stroke-width=".75"/>
<path d="m77.976,103.325c-1.199-1.566-7.494-4.313-6.582-6.138 1.53-3.059 2.62-6.322 3.071-9.643-3.382,1.252-12.447-1.431-13.602.877-1.862,3.721-4.691,9.917-2.633,14.027 2.883,5.755 5.288,5.911 10.97,6.137s10.628-3.927 8.776-5.26" fill="none" stroke="#000" stroke-linecap="square" stroke-miterlimit="10" stroke-width=".75"/>
<path d="m73.588,102.448c-3.316-2.929-7.339-3.034-10.53,0" fill="none" stroke="#000" stroke-linecap="square" stroke-miterlimit="10" stroke-width=".75"/>
<path d="m73.588,102.448c-3.316-2.929-7.339-3.034-10.53,0" fill="none" stroke="#000" stroke-linecap="square" stroke-miterlimit="10" stroke-width=".75"/>
<path d="m62.18,72.641c0,5.688.276,11.096.878,16.658 .035-5.67 1.524-11.285 2.632-16.658 2.532.698.529-.037 1.755,1.753 3.418-.781 1.265-.773 5.265,0v-1.753c1.736.113 1.47,1.308 2.633,1.753-.57.067 1.22-1.61 1.755-1.753 .807.607.469,2.046.877,2.63 .714-1.933.02-1.465 1.755-2.63 2.404,4.98 2.963,10.176 2.633,15.781 2.792-5.231 2.523-24.769-6.143-16.658-2.108-2.452-1.347-1.974-2.633,0-2.21-1.184-7.987-3.384-11.407.877" fill="#ffffc9" fill-rule="evenodd"/>
<path d="m62.18,72.641c0,5.688.276,11.096.878,16.658 .035-5.67 1.524-11.285 2.632-16.658 2.532.698.529-.037 1.755,1.753 3.418-.781 1.265-.773 5.265,0v-1.753c1.736.113 1.47,1.308 2.633,1.753-.57.067 1.22-1.61 1.755-1.753 .807.607.469,2.046.877,2.63 .547-2.037.074-1.501 1.755-2.63 .279,1.62 1.063,2.856 1.755,4.383" fill="none" stroke="#000" stroke-linecap="square" stroke-miterlimit="10" stroke-width=".75"/>
<path d="m81.486,77.024c1.068,3.662 1.104,7.548.877,11.397 2.792-5.231 2.523-24.769-6.143-16.658-2.108-2.452-1.347-1.974-2.633,0-2.21-1.183-7.987-3.383-11.407.878" fill="none" stroke="#000" stroke-linecap="square" stroke-miterlimit="10" stroke-width=".75"/>
<path d="m62.18,72.641c0,5.688.276,11.096.878,16.658 .035-5.67 1.524-11.285 2.632-16.658 2.532.698.529-.037 1.755,1.753 3.418-.781 1.265-.773 5.265,0v-1.753c1.736.113 1.47,1.308 2.633,1.753-.57.067 1.22-1.61 1.755-1.753 .807.607.469,2.046.877,2.63 .714-1.933.02-1.465 1.755-2.63 2.404,4.98 2.963,10.176 2.633,15.781 2.792-5.231 2.523-24.769-6.143-16.658-2.108-2.452-1.347-1.974-2.633,0-2.21-1.184-7.987-3.384-11.407.877" fill="none" stroke="#000" stroke-linecap="square" stroke-miterlimit="10" stroke-width=".75"/>
<path d="m81.486,106.833c1.522,7.577-4.878,3.961-10.092,5.698-8.202,2.732-9.324,3.344-13.603-5.698 4.54.778 5.457,2.491 9.654,2.63 4.545.149 8.664-3.318 14.041-2.63" fill-rule="evenodd"/>
<path d="m81.486,106.833c1.522,7.577-4.878,3.961-10.092,5.698-8.202,2.732-9.324,3.344-13.603-5.698 4.54.778 5.457,2.491 9.654,2.63 4.545.149 8.664-3.318 14.041-2.63" fill="none" stroke="#000" stroke-linecap="square" stroke-miterlimit="10" stroke-width=".75"/>
<path d="m81.486,106.833c1.522,7.577-4.878,3.961-10.092,5.698-8.202,2.732-9.324,3.344-13.603-5.698 4.54.778 5.457,2.491 9.654,2.63 4.545.149 8.664-3.318 14.041-2.63" fill="none" stroke="#000" stroke-linecap="square" stroke-miterlimit="10" stroke-width=".75"/>
<path d="m80.608,91.929c4.034,6.698 1.308,20.361-7.898,15.781-1.322,1.666-2.096,1.499-4.387,3.506l-.877-1.753c-.267.8-.669,1.945-.877,2.63l-1.755-1.754c-4.35,5.625-7.158-12.408-4.388-17.534 .729,5.446 1.413,11.438 4.388,15.781 .247-.317.568-2.109.877-2.63l1.755,2.63v-2.63c3.083.913 1.757-1.222 5.265.877v-2.631l2.633,2.631c2.875-4.652 3.131-10.006 5.264-14.904" fill="#ffffc9" fill-rule="evenodd"/>
<path d="m80.608,91.929c4.034,6.698 1.308,20.361-7.898,15.781-1.322,1.666-2.096,1.499-4.387,3.506l-.877-1.753c-.267.8-.669,1.945-.877,2.63l-1.755-1.754c-4.35,5.625-7.158-12.408-4.388-17.534 .288,3.031 1.169,5.79 1.755,8.768" fill="none" stroke="#000" stroke-linecap="square" stroke-miterlimit="10" stroke-width=".75"/>
<path d="m62.18,101.572c.313,2.816.707,4.943 2.633,7.014 .247-.317.568-2.109.877-2.63l1.755,2.63v-2.63c3.083.913 1.757-1.222 5.265.877v-2.631l2.633,2.631c2.876-4.652 3.132-10.006 5.265-14.904" fill="none" stroke="#000" stroke-linecap="square" stroke-miterlimit="10" stroke-width=".75"/>
<path d="m80.608,91.929c4.034,6.698 1.308,20.361-7.898,15.781-1.322,1.666-2.096,1.499-4.387,3.506l-.877-1.753c-.267.8-.669,1.945-.877,2.63l-1.755-1.754c-4.35,5.625-7.158-12.408-4.388-17.534 .729,5.446 1.413,11.438 4.388,15.781 .247-.317.568-2.109.877-2.63l1.755,2.63v-2.63c3.083.913 1.757-1.222 5.265.877v-2.631l2.633,2.631c2.875-4.652 3.131-10.006 5.264-14.904" fill="none" stroke="#000" stroke-linecap="square" stroke-miterlimit="10" stroke-width=".75"/>
<path d="m15.669,72.641c-1.142-.288-1.104-1.273-2.633-.877 1.573,3.123 1.23,4.324 4.389,6.137-.965-.269-2.662-.404-3.511-.876 1.867,1.968 3.119,4.274 5.265,6.137-.021-.007-4.738-1.633-3.51-.877 1.938,2.935 4.369,5.483 7.021,7.891-1.481-.612-2.947-1.03-4.388-1.753 2.371,2.56 5.396,4.373 8.776,5.26-1.447-.151-2.939.138-4.388,0 5.503,5.712 14.32,6.035 20.184,11.397 6.428,5.877 5.268,14.279 8.775,21.918 .178-1.538.712-2.794.878-4.384-.048,3.394.855,6.666 2.633,9.646 .293-2.29 1.203-3.185 1.755-5.262 .446,4.198 1.016,4.005 3.511,7.015-.031-1.895.757-4.518.877-7.015 .751,4.523 1.474,8.657 4.388,12.274-.372-3.465.808-5.175 1.755-7.89 .858,2.975 2.117,2.951 3.51,5.26 .274-3.238.87-6.499 1.754-9.645 .09,1.955.648,3.498.878,5.262 .819-2.823 2.451-5.245 3.51-7.892-.058,1.455-.003,2.927 0,4.384 1.978-5.355 5.511-10.959 5.266-16.658-5.56,5.27-13.836,4.384-21.062,4.384-5.377,0-8.119-13.37-11.408-16.658-3.276-3.274-16.837-5.586-17.991-7.891-3.203-6.396-12.037-12.741-16.234-19.287" fill="#fddc8e" fill-rule="evenodd"/>
<path d="m15.669,72.641c-1.142-.288-1.104-1.273-2.633-.877 1.573,3.123 1.23,4.324 4.389,6.137-.965-.269-2.662-.404-3.511-.876 1.867,1.968 3.119,4.274 5.265,6.137-.021-.007-4.738-1.633-3.51-.877 1.938,2.935 4.369,5.483 7.021,7.891-1.481-.612-2.947-1.03-4.388-1.753 2.371,2.56 5.396,4.373 8.776,5.26-1.447-.151-2.939.138-4.388,0 5.238,5.437 13.722,7.336 20.184,11.397" fill="none" stroke="#000" stroke-linecap="square" stroke-miterlimit="10" stroke-width=".75"/>
<path d="m42.874,105.079c6.27,6.098 5.226,14.188 8.775,21.918 .178-1.538.712-2.794.878-4.384-.048,3.394.855,6.666 2.633,9.646 .293-2.29 1.203-3.185 1.755-5.262 .446,4.198 1.016,4.005 3.511,7.015-.031-1.895.757-4.518.877-7.015 .751,4.523 1.474,8.657 4.388,12.274-.372-3.465.808-5.175 1.755-7.89 .858,2.975 2.117,2.951 3.51,5.26 .112-3.116 1.392-5.69 1.754-8.768" fill="none" stroke="#000" stroke-linecap="square" stroke-miterlimit="10" stroke-width=".75"/>
<path d="m72.71,127.874c.053-1.5.434,3.024.878,4.385 .819-2.823 2.451-5.245 3.51-7.892-.058,1.455-.003,2.927 0,4.384 1.978-5.355 5.511-10.959 5.266-16.658-4.026,3.816-14.541,6.466-20.184,4.384-6.583-2.428-7.123-9.439-10.531-14.904" fill="none" stroke="#000" stroke-linecap="square" stroke-miterlimit="10" stroke-width=".75"/>
<path d="m51.648,101.572c-5.613-6.057-13.354-5.307-19.306-8.768-6.412-3.728-12.652-13.892-16.673-20.163" fill="none" stroke="#000" stroke-linecap="square" stroke-miterlimit="10" stroke-width=".75"/>
<path d="m15.669,72.641c-1.142-.288-1.104-1.273-2.633-.877 1.573,3.123 1.23,4.324 4.389,6.137-.965-.269-2.662-.404-3.511-.876 1.867,1.968 3.119,4.274 5.265,6.137-.021-.007-4.738-1.633-3.51-.877 1.938,2.935 4.369,5.483 7.021,7.891-1.481-.612-2.947-1.03-4.388-1.753 2.371,2.56 5.396,4.373 8.776,5.26-1.447-.151-2.939.138-4.388,0 5.503,5.712 14.32,6.035 20.184,11.397 6.428,5.877 5.268,14.279 8.775,21.918 .178-1.538.712-2.794.878-4.384-.048,3.394.855,6.666 2.633,9.646 .293-2.29 1.203-3.185 1.755-5.262 .446,4.198 1.016,4.005 3.511,7.015-.031-1.895.757-4.518.877-7.015 .751,4.523 1.474,8.657 4.388,12.274-.372-3.465.808-5.175 1.755-7.89 .858,2.975 2.117,2.951 3.51,5.26 .274-3.238.87-6.499 1.754-9.645 .09,1.955.648,3.498.878,5.262 .819-2.823 2.451-5.245 3.51-7.892-.058,1.455-.003,2.927 0,4.384 1.978-5.355 5.511-10.959 5.266-16.658-5.56,5.27-13.836,4.384-21.062,4.384-5.377,0-8.119-13.37-11.408-16.658-3.276-3.274-16.837-5.586-17.991-7.891-3.203-6.396-12.037-12.741-16.234-19.287" fill="none" stroke="#000" stroke-linecap="square" stroke-miterlimit="10" stroke-width=".75"/>
<path d="m72.71,67.38c6.652,2.462 9.481,9.644 17.991,9.644 8.597,0 8.049-11.395 5.704-17.534-3.574-9.353-8.71-9.667-15.357-7.453-7.399,2.465-18.292,8.138-21.5-3.068-11.608,7.798-17.552,12.956-17.552,27.179 0,13.307 28.915-8.333 30.714-8.768" fill="#ff6500" fill-rule="evenodd"/>
<path d="m42.874,63.873c-7.387,16.963 8.455,17.972 19.306,10.521 8.098-5.56 7.205-7.883 15.796-3.507 3.495,1.78 10.758,9.908 16.674,6.137 3.051-1.945 3.894-16.657 1.755-16.657-7.634,0-11.218-2.211-18.429-.877-8.133,1.505-29.927,14.17-35.102,4.383" fill="#fddc8e" fill-rule="evenodd"/>
<path d="m77.976,51.599c13.449-1.236 2.969,20.333-7.02,15.343-2.254-1.126-8.943-9.364-7.021-12.712 1.919-3.342 11.235-1.393 14.041-2.631" fill-rule="evenodd"/>
<path d="m77.976,51.599c13.449-1.236 2.969,20.333-7.02,15.343-2.254-1.126-8.943-9.364-7.021-12.712 1.919-3.342 11.235-1.393 14.041-2.631" fill="none" stroke="#000" stroke-linecap="square" stroke-miterlimit="10" stroke-width=".75"/>
<path d="m77.976,51.599c13.449-1.236 2.969,20.333-7.02,15.343-2.254-1.126-8.943-9.364-7.021-12.712 1.919-3.342 11.235-1.393 14.041-2.631" fill="none" stroke="#000" stroke-linecap="square" stroke-miterlimit="10" stroke-width=".75"/>
<path d="m77.976,52.476c9.865-1.484 1.988,5.423 1.755,6.137-2.052,6.308-2.566,8.719-7.898,6.137 .429.208-6.63-10.25-7.02-8.767 1.429-5.44 8.894-2.387 13.163-3.507" fill="#fc6522" fill-rule="evenodd"/>
<path d="m77.976,52.476c9.865-1.484 1.988,5.423 1.755,6.137-2.052,6.308-2.566,8.719-7.898,6.137 .429.208-6.63-10.25-7.02-8.767 1.429-5.44 8.894-2.387 13.163-3.507" fill="none" stroke="#000" stroke-linecap="square" stroke-miterlimit="10" stroke-width=".75"/>
<path d="m77.976,52.476c9.865-1.484 1.988,5.423 1.755,6.137-2.052,6.308-2.566,8.719-7.898,6.137 .429.208-6.63-10.25-7.02-8.767 1.429-5.44 8.894-2.387 13.163-3.507" fill="none" stroke="#000" stroke-linecap="square" stroke-miterlimit="10" stroke-width=".75"/>
<path d="m73.588,60.367v6.137" fill="none" stroke="#000" stroke-linecap="square" stroke-miterlimit="10" stroke-width="1.4999"/>
<path d="m73.588,60.367v6.137" fill="none" stroke="#000" stroke-linecap="square" stroke-miterlimit="10" stroke-width="1.4999"/>
<path d="m.75.75" fill="none" stroke="#000" stroke-linecap="square" stroke-miterlimit="10" stroke-width="1.4999"/>
<path d="m97.282,67.38c1.716,10.591-8.42.896-10.53-.876 3.456,1.149 7.265,1.622 10.53.876" fill-rule="evenodd"/>
<path d="m97.282,61.244c.249,6.088-6.789,3.067-10.53.876 3.606.255 7.209.208 10.53-.876" fill-rule="evenodd"/>
<path d="m96.404,60.367c-4.138.889-8.031.963-9.653-2.631 4.366-1.033 9.059-2.237 9.653,2.631" fill-rule="evenodd"/>
<path d="m89.385,50.723 1.754,1.753c-2.824,1.154-3.076,1.622-6.143.877 1.671-.642 2.925-1.776 4.389-2.63" fill-rule="evenodd"/>
<path d="m52.526,54.23c2.772-2.103 3.846-2.408 4.388,2.63-.387-2.942-2.096-1.391-4.388-2.63" fill-rule="evenodd"/>
<path d="m46.384,59.49c2.212-1.921 2.715-3.934 6.143-1.754-1.978.728-3.94,1.353-6.143,1.754" fill-rule="evenodd"/>
<path d="m42.874,63.873c2.805-2.613 7.818-3.001 9.653.877-2.445-3.252-5.819-1.08-9.653-.877" fill-rule="evenodd"/>
<path d="m41.118,71.764c-.643-6.238 6.152-4.306 10.53-5.26-3.657,1.171-6.794,3.921-10.53,5.26" fill-rule="evenodd"/>
<path d="m43.75,78.778-1.754-1.753c3.646-1.246 6.289-4.554 9.652-7.014-2.199,3.927-2.772,8.326-7.898,8.767" fill-rule="evenodd"/>
<path d="m84.119,67.38h-.877" fill="none" stroke="#000" stroke-linecap="square" stroke-miterlimit="10" stroke-width=".75"/>
<path d="m84.119,67.38h-.877" fill="none" stroke="#000" stroke-linecap="square" stroke-miterlimit="10" stroke-width=".75"/>
<path d="m82.364,65.627-.878.877" fill="none" stroke="#000" stroke-linecap="square" stroke-miterlimit="10" stroke-width=".75"/>
<path d="m82.364,65.627-.878.877" fill="none" stroke="#000" stroke-linecap="square" stroke-miterlimit="10" stroke-width=".75"/>
<path d="m84.119,63.873-1.755-.876" fill="none" stroke="#000" stroke-linecap="square" stroke-miterlimit="10" stroke-width=".75"/>
<path d="m84.119,63.873-1.755-.876" fill="none" stroke="#000" stroke-linecap="square" stroke-miterlimit="10" stroke-width=".75"/>
<path d="m63.058,61.244-1.756-.877" fill="none" stroke="#000" stroke-linecap="square" stroke-miterlimit="10" stroke-width=".75"/>
<path d="m63.058,61.244-1.756-.877" fill="none" stroke="#000" stroke-linecap="square" stroke-miterlimit="10" stroke-width=".75"/>
<path d="m60.425,58.613h-1.756" fill="none" stroke="#000" stroke-linecap="square" stroke-miterlimit="10" stroke-width=".75"/>
<path d="m60.425,58.613h-1.756" fill="none" stroke="#000" stroke-linecap="square" stroke-miterlimit="10" stroke-width=".75"/>
<path d="m63.058,62.12h-1.756" fill="none" stroke="#000" stroke-linecap="square" stroke-miterlimit="10" stroke-width=".75"/>
<path d="m63.058,62.12h-1.756" fill="none" stroke="#000" stroke-linecap="square" stroke-miterlimit="10" stroke-width=".75"/>
<path d="m59.547,62.12h-.878" fill="none" stroke="#000" stroke-linecap="square" stroke-miterlimit="10" stroke-width=".75"/>
<path d="m59.547,62.12h-.878" fill="none" stroke="#000" stroke-linecap="square" stroke-miterlimit="10" stroke-width=".75"/>
<path d="m56.914,62.12h-.877" fill="none" stroke="#000" stroke-linecap="square" stroke-miterlimit="10" stroke-width=".75"/>
<path d="m56.914,62.12h-.877" fill="none" stroke="#000" stroke-linecap="square" stroke-miterlimit="10" stroke-width=".75"/>
<path d="m57.792,58.613v.877" fill="none" stroke="#000" stroke-linecap="square" stroke-miterlimit="10" stroke-width=".75"/>
<path d="m57.792,58.613v.877" fill="none" stroke="#000" stroke-linecap="square" stroke-miterlimit="10" stroke-width=".75"/>
<path d="m61.302,64.75-.877.877" fill="none" stroke="#000" stroke-linecap="square" stroke-miterlimit="10" stroke-width=".75"/>
<path d="m61.302,64.75-.877.877" fill="none" stroke="#000" stroke-linecap="square" stroke-miterlimit="10" stroke-width=".75"/>
<path d="m57.792,65.627-.878.877" fill="none" stroke="#000" stroke-linecap="square" stroke-miterlimit="10" stroke-width=".75"/>
<path d="m57.792,65.627-.878.877" fill="none" stroke="#000" stroke-linecap="square" stroke-miterlimit="10" stroke-width=".75"/>
<path d="m55.159,65.627-.877,1.753" fill="none" stroke="#000" stroke-linecap="square" stroke-miterlimit="10" stroke-width=".75"/>
<path d="m55.159,65.627-.877,1.753" fill="none" stroke="#000" stroke-linecap="square" stroke-miterlimit="10" stroke-width=".75"/>
<path d="m58.669,67.38-.877,1.754" fill="none" stroke="#000" stroke-linecap="square" stroke-miterlimit="10" stroke-width=".75"/>
<path d="m58.669,67.38-.877,1.754" fill="none" stroke="#000" stroke-linecap="square" stroke-miterlimit="10" stroke-width=".75"/>
<path d="m63.935,64.75-.877.877" fill="none" stroke="#000" stroke-linecap="square" stroke-miterlimit="10" stroke-width=".75"/>
<path d="m63.935,64.75-.877.877" fill="none" stroke="#000" stroke-linecap="square" stroke-miterlimit="10" stroke-width=".75"/>
<path d="m56.037,70.01-.878.877" fill="none" stroke="#000" stroke-linecap="square" stroke-miterlimit="10" stroke-width=".75"/>
<path d="m56.037,70.01-.878.877" fill="none" stroke="#000" stroke-linecap="square" stroke-miterlimit="10" stroke-width=".75"/>
<path d="m52.526,70.887v.877" fill="none" stroke="#000" stroke-linecap="square" stroke-miterlimit="10" stroke-width=".75"/>
<path d="m52.526,70.887v.877" fill="none" stroke="#000" stroke-linecap="square" stroke-miterlimit="10" stroke-width=".75"/>
<path d="m57.792,58.613-1.755.877" fill="none" stroke="#000" stroke-linecap="square" stroke-miterlimit="10" stroke-width=".75"/>
<path d="m57.792,58.613-1.755.877" fill="none" stroke="#000" stroke-linecap="square" stroke-miterlimit="10" stroke-width=".75"/>
<path d="m82.364,52.476c2.454-3.574 3.019-1.262 5.266-3.506 2.391-2.389 2.448-6.711 4.387-9.645-2.573.395-9.444-1.405-11.408.877-.807.937 2.3,8.698 1.755,12.274" fill-rule="evenodd"/>
<path d="m82.364,52.476c2.454-3.574 3.019-1.262 5.266-3.506 2.391-2.389 2.448-6.711 4.387-9.645-2.573.395-9.444-1.405-11.408.877-.807.937 2.3,8.698 1.755,12.274" fill="none" stroke="#000" stroke-linecap="square" stroke-miterlimit="10" stroke-width=".75"/>
<path d="m82.364,52.476c2.454-3.574 3.019-1.262 5.266-3.506 2.391-2.389 2.448-6.711 4.387-9.645-2.573.395-9.444-1.405-11.408.877-.807.937 2.3,8.698 1.755,12.274" fill="none" stroke="#000" stroke-linecap="square" stroke-miterlimit="10" stroke-width=".75"/>
<path d="m80.608,41.956c12.011-5.508 1.582,15.074 0,0" fill="#ffff06" fill-rule="evenodd"/>
<path d="m80.608,41.956c12.011-5.508 1.582,15.074 0,0" fill="none" stroke="#000" stroke-linecap="square" stroke-miterlimit="10" stroke-width=".75"/>
<path d="m80.608,41.956c12.011-5.508 1.582,15.074 0,0" fill="none" stroke="#000" stroke-linecap="square" stroke-miterlimit="10" stroke-width=".75"/>
<path d="m82.364,41.956c.112,1.44 0,2.938 0,4.383 3.433-2.467.909-2.794 0-4.383" fill-rule="evenodd"/>
<path d="m82.364,41.956c.112,1.44 0,2.938 0,4.383 3.433-2.467.909-2.794 0-4.383" fill="none" stroke="#000" stroke-linecap="square" stroke-miterlimit="10" stroke-width=".75"/>
<path d="m82.364,41.956c.112,1.44 0,2.938 0,4.383 3.433-2.467.909-2.794 0-4.383" fill="none" stroke="#000" stroke-linecap="square" stroke-miterlimit="10" stroke-width=".75"/>
<path d="m78.853,41.956c-.882,1.62-1.167,3.396-.877,5.26" fill="none" stroke="#000" stroke-linecap="square" stroke-miterlimit="10" stroke-width="1.4999"/>
<path d="m78.853,41.956c-.882,1.62-1.167,3.396-.877,5.26" fill="none" stroke="#000" stroke-linecap="square" stroke-miterlimit="10" stroke-width="1.4999"/>
<path d="m77.976,38.449c-1.971,2-2.856,4.225-2.632,7.013" fill="none" stroke="#000" stroke-linecap="square" stroke-miterlimit="10" stroke-width="1.4999"/>
<path d="m77.976,38.449c-1.971,2-2.856,4.225-2.632,7.013" fill="none" stroke="#000" stroke-linecap="square" stroke-miterlimit="10" stroke-width="1.4999"/>
<path d="m69.201,46.339c-2.044-3.984-6.063-5.933-10.531-5.26" fill="none" stroke="#000" stroke-linecap="square" stroke-miterlimit="10" stroke-width="1.4999"/>
<path d="m69.201,46.339c-2.044-3.984-6.063-5.933-10.531-5.26" fill="none" stroke="#000" stroke-linecap="square" stroke-miterlimit="10" stroke-width="1.4999"/>
<path d="m67.445,49.846c-1.613-.619-3.114-1.516-4.388-2.63" fill="none" stroke="#000" stroke-linecap="square" stroke-miterlimit="10" stroke-width="1.4999"/>
<path d="m67.445,49.846c-1.613-.619-3.114-1.516-4.388-2.63" fill="none" stroke="#000" stroke-linecap="square" stroke-miterlimit="10" stroke-width="1.4999"/>
<path d="m63.058,47.216c-.717-1.993-2.271-2.905-4.388-2.629" fill="none" stroke="#000" stroke-linecap="square" stroke-miterlimit="10" stroke-width="1.4999"/>
<path d="m63.058,47.216c-.717-1.993-2.271-2.905-4.388-2.629" fill="none" stroke="#000" stroke-linecap="square" stroke-miterlimit="10" stroke-width="1.4999"/>
<path d="m80.608,40.202c1.668-9.554 13.002-7.014 20.184-7.014-4.831,8.533-12.499,5.623-20.184,7.014" fill="#ff6500" fill-rule="evenodd"/>
<path d="m52.526,41.956c-1.18-5.099-6.128-8.768-11.408-8.768-5.876,0-3.434,6.524-3.511,10.521 5.077-.238 9.733-1.599 14.919-1.753" fill="#ff6500" fill-rule="evenodd"/>
<path d="m56.914,44.586c-8.59-4.42-10.328-1.969-19.307-1.754 4.768,7.403 13.024,10.482 19.307,1.754" fill-rule="evenodd"/>
<path d="m56.914,44.586c-8.59-4.42-10.328-1.969-19.307-1.754 4.768,7.403 13.024,10.482 19.307,1.754" fill="none" stroke="#000" stroke-linecap="square" stroke-miterlimit="10" stroke-width=".75"/>
<path d="m56.914,44.586c-8.59-4.42-10.328-1.969-19.307-1.754 4.768,7.403 13.024,10.482 19.307,1.754" fill="none" stroke="#000" stroke-linecap="square" stroke-miterlimit="10" stroke-width=".75"/>
<path d="m49.894,41.956c3.509,3.114.493,8.137-4.388,5.698-5.411-2.703.555-7.159 4.388-5.698" fill="#ffff06" fill-rule="evenodd"/>
<path d="m49.894,41.956c3.509,3.114.493,8.137-4.388,5.698-5.411-2.703.555-7.159 4.388-5.698" fill="none" stroke="#000" stroke-linecap="square" stroke-miterlimit="10" stroke-width=".75"/>
<path d="m49.894,41.956c3.509,3.114.493,8.137-4.388,5.698-5.411-2.703.555-7.159 4.388-5.698" fill="none" stroke="#000" stroke-linecap="square" stroke-miterlimit="10" stroke-width=".75"/>
<path d="m47.261,41.956c-.371,2.051-1.473,3.043 0,5.26 3.202-2.843 1.084-3.264 0-5.26" fill-rule="evenodd"/>
<path d="m47.261,41.956c-.371,2.051-1.473,3.043 0,5.26 3.202-2.843 1.084-3.264 0-5.26" fill="none" stroke="#000" stroke-linecap="square" stroke-miterlimit="10" stroke-width=".75"/>
<path d="m47.261,41.956c-.371,2.051-1.473,3.043 0,5.26 3.202-2.843 1.084-3.264 0-5.26" fill="none" stroke="#000" stroke-linecap="square" stroke-miterlimit="10" stroke-width=".75"/>
<path d="m102.548,53.353c4.485,14.673 7.859,24.505-2.633,39.452-4.333,6.173-12.123,8.295-15.796,14.028-3.128,4.883-5.364,15.727-7.021,21.041 12.337-3.863 30.973-18.053 37.297-30.687 6.143-12.272-.658-37.374-11.847-43.834" fill="#5a241e" fill-rule="evenodd"/>
<path d="m106.058,51.599c17.805,7.786 21.867,29.087 17.551,46.465-3.267,13.15-28.333,30.253-41.245,28.933 3.961-6.142 12.003-7.445 17.551-10.521 6.715-3.722 11.681-9.57 17.551-14.028-3.133-7.711 1.756-17.474 1.756-25.424 0-10.057-7.113-18.136-13.164-25.425" fill-rule="evenodd"/>
<path d="m106.058,51.599c17.34,7.582 18.429,23.198 18.429,39.891 0,20.884-22.709,18.299-28.083,34.631" fill="none" stroke="#000" stroke-linecap="square" stroke-miterlimit="10" stroke-width=".75"/>
<path d="m96.404,126.121c-4.724.141-9.256,1.365-14.041.876 3.961-6.142 12.003-7.445 17.551-10.521 6.715-3.722 11.681-9.57 17.551-14.028-4.863-11.968 8.544-29.927-3.51-40.328" fill="none" stroke="#000" stroke-linecap="square" stroke-miterlimit="10" stroke-width=".75"/>
<path d="m113.956,62.12c-2.24-3.675-5.089-7.138-7.898-10.521" fill="none" stroke="#000" stroke-linecap="square" stroke-miterlimit="10" stroke-width=".75"/>
<path d="m106.058,51.599c17.805,7.786 21.867,29.087 17.551,46.465-3.267,13.15-28.333,30.253-41.245,28.933 3.961-6.142 12.003-7.445 17.551-10.521 6.715-3.722 11.681-9.57 17.551-14.028-3.133-7.711 1.756-17.474 1.756-25.424 0-10.057-7.113-18.136-13.164-25.425" fill="none" stroke="#000" stroke-linecap="square" stroke-miterlimit="10" stroke-width=".75"/>
<path d="m47.261,52.476c-11.973,2.884-14.919-.756-14.919-12.274 .17,8.757 6.543,12.244 14.919,12.274" fill-rule="evenodd"/>
<path d="m47.261,52.476c-11.973,2.884-14.919-.756-14.919-12.274 .17,8.757 6.543,12.244 14.919,12.274" fill="none" stroke="#000" stroke-linecap="square" stroke-miterlimit="10" stroke-width=".75"/>
<path d="m47.261,52.476c-11.973,2.884-14.919-.756-14.919-12.274 .17,8.757 6.543,12.244 14.919,12.274" fill="none" stroke="#000" stroke-linecap="square" stroke-miterlimit="10" stroke-width=".75"/>
<path d="m46.384,58.613c-11.19-3.248-20.731-2.973-14.919-17.534-10.387,7.914 3.952,29.514 14.919,17.534" fill-rule="evenodd"/>
<path d="m46.384,58.613c-11.19-3.248-20.731-2.973-14.919-17.534-10.387,7.914 3.952,29.514 14.919,17.534" fill="none" stroke="#000" stroke-linecap="square" stroke-miterlimit="10" stroke-width=".75"/>
<path d="m46.384,58.613c-11.19-3.248-20.731-2.973-14.919-17.534-10.387,7.914 3.952,29.514 14.919,17.534" fill="none" stroke="#000" stroke-linecap="square" stroke-miterlimit="10" stroke-width=".75"/>
<path d="m41.996,77.024c-9.803-8.569-19.973-15.995-14.041-30.685-3.45,4.405-5.542,17.257-.877,21.918 1.57,1.569 3.424,8.767 6.143,8.767 3.817,0 9.133,4.346 8.775,0" fill-rule="evenodd"/>
<path d="m41.996,77.024c-9.803-8.569-19.973-15.995-14.041-30.685-3.45,4.405-5.542,17.257-.877,21.918 1.57,1.569 3.424,8.767 6.143,8.767 3.817,0 9.133,4.346 8.775,0" fill="none" stroke="#000" stroke-linecap="square" stroke-miterlimit="10" stroke-width=".75"/>
<path d="m41.996,77.024c-9.803-8.569-19.973-15.995-14.041-30.685-3.45,4.405-5.542,17.257-.877,21.918 1.57,1.569 3.424,8.767 6.143,8.767 3.817,0 9.133,4.346 8.775,0" fill="none" stroke="#000" stroke-linecap="square" stroke-miterlimit="10" stroke-width=".75"/>
<path d="m40.241,92.805c-2.223-7.308-11-11.458-14.48-18.41-3.746-7.483-3.071-16.254-3.071-24.548-1.966,7.61-2.362,18.408 0,25.425 1.089,3.237 5.266,7.609 5.266,10.959-.001,1.752 10.11,4.567 12.285,6.574" fill-rule="evenodd"/>
<path d="m40.241,92.805c-2.223-7.308-11-11.458-14.48-18.41-3.746-7.483-3.071-16.254-3.071-24.548-2.396,9.272-2.604,38.207 9.653,38.576" fill="none" stroke="#000" stroke-linecap="square" stroke-miterlimit="10" stroke-width=".75"/>
<path d="m32.342,88.422c2.944.826 5.782,2.431 7.898,4.383" fill="none" stroke="#000" stroke-linecap="square" stroke-miterlimit="10" stroke-width=".75"/>
<path d="m40.241,92.805c-2.223-7.308-11-11.458-14.48-18.41-3.746-7.483-3.071-16.254-3.071-24.548-1.966,7.61-2.362,18.408 0,25.425 1.089,3.237 5.266,7.609 5.266,10.959-.001,1.752 10.11,4.567 12.285,6.574" fill="none" stroke="#000" stroke-linecap="square" stroke-miterlimit="10" stroke-width=".75"/>
<path d="m102.548,56.86c0,14.065-4.186,22.308-17.552,28.055 16.385-2.067 24.304-12.133 17.552-28.055" fill-rule="evenodd"/>
<path d="m102.548,56.86c0,14.065-4.186,22.308-17.552,28.055 16.385-2.067 24.304-12.133 17.552-28.055" fill="none" stroke="#000" stroke-linecap="square" stroke-miterlimit="10" stroke-width=".75"/>
<path d="m102.548,56.86c0,14.065-4.186,22.308-17.552,28.055 16.385-2.067 24.304-12.133 17.552-28.055" fill="none" stroke="#000" stroke-linecap="square" stroke-miterlimit="10" stroke-width=".75"/>
<path d="m102.548,79.654c-2.939,3.944-4.526,6.586-7.898,9.645-3.869,3.509-7.927,2.75-9.653,8.766 5.508-7.985 16.822-5.531 17.551-18.411" fill-rule="evenodd"/>
<path d="m102.548,79.654c-2.939,3.944-4.526,6.586-7.898,9.645-3.869,3.509-7.927,2.75-9.653,8.766 5.508-7.985 16.822-5.531 17.551-18.411" fill="none" stroke="#000" stroke-linecap="square" stroke-miterlimit="10" stroke-width=".75"/>
<path d="m102.548,79.654c-2.939,3.944-4.526,6.586-7.898,9.645-3.869,3.509-7.927,2.75-9.653,8.766 5.508-7.985 16.822-5.531 17.551-18.411" fill="none" stroke="#000" stroke-linecap="square" stroke-miterlimit="10" stroke-width=".75"/>
<path d="m49.017,119.984c-1.545-.105-2.583-1.154-4.388-.877 .341-3.419 1.181-6.528 2.633-9.645 .6,3.602 1.536,6.878 1.755,10.522" fill-rule="evenodd"/>
<path d="m49.017,119.984c-1.545-.105-2.583-1.154-4.388-.877 .341-3.419 1.181-6.528 2.633-9.645 .6,3.602 1.536,6.878 1.755,10.522" fill="none" stroke="#000" stroke-linecap="square" stroke-miterlimit="10" stroke-width=".75"/>
<path d="m49.017,119.984c-1.545-.105-2.583-1.154-4.388-.877 .341-3.419 1.181-6.528 2.633-9.645 .6,3.602 1.536,6.878 1.755,10.522" fill="none" stroke="#000" stroke-linecap="square" stroke-miterlimit="10" stroke-width=".75"/>
<path d="m51.648,126.997c-4.39-4.317-9.856-8.905-14.041-1.753 4.869.255 9.251,1.509 14.041,1.753" fill-rule="evenodd"/>
<path d="m51.648,126.997c-4.39-4.317-9.856-8.905-14.041-1.753 4.869.255 9.251,1.509 14.041,1.753" fill="none" stroke="#000" stroke-linecap="square" stroke-miterlimit="10" stroke-width=".75"/>
<path d="m51.648,126.997c-4.39-4.317-9.856-8.905-14.041-1.753 4.869.255 9.251,1.509 14.041,1.753" fill="none" stroke="#000" stroke-linecap="square" stroke-miterlimit="10" stroke-width=".75"/>
<path d="m59.547,139.271c-2.583-.052-5.624-4.688-9.653-6.137-3.498-1.258-8.594.013-12.287-.876 3.057,4.145 19.471,10.816 21.94,7.013" fill-rule="evenodd"/>
<path d="m59.547,139.271c-2.583-.052-5.624-4.688-9.653-6.137-3.498-1.258-8.594.013-12.287-.876 3.057,4.145 19.471,10.816 21.94,7.013" fill="none" stroke="#000" stroke-linecap="square" stroke-miterlimit="10" stroke-width=".75"/>
<path d="m59.547,139.271c-2.583-.052-5.624-4.688-9.653-6.137-3.498-1.258-8.594.013-12.287-.876 3.057,4.145 19.471,10.816 21.94,7.013" fill="none" stroke="#000" stroke-linecap="square" stroke-miterlimit="10" stroke-width=".75"/>
<path d="m129.752,56.86c3.389,3.638 12.662,20.788 10.97,25.862-1.366,4.096-3.949,8.562-3.949,12.713 0,3.886 1.298,10.559-.439,14.027-4.717,9.418-12.94,14.135-22.378,18.85-8.235,4.114-20.326,4.654-27.204,11.835 .36-9.21 19.354-7.697 25.449-12.273 4.052-3.043 3.961-6.361 7.021-9.644 3.501-3.756 8.96-5.911 11.408-10.521 2.522-4.747 3.827-18.337 4.387-24.549 .74-8.213-1.036-18.82-5.265-26.3" fill-rule="evenodd"/>
<path d="m129.752,56.86c3.17,3.402 10.531,16.874 10.531,21.917 0,7.899-2.77,14.917-3.511,23.671-1.18,13.952-19.242,31.411-34.225,29.811" fill="none" stroke="#000" stroke-linecap="square" stroke-miterlimit="10" stroke-width=".75"/>
<path d="m102.548,132.259c-5.122-.086-12.725,4.682-15.796,7.889 .348-8.892 13.234-6.656 19.307-8.766 7.589-2.637 8.465-8.11 13.164-13.151 6.251-6.707 9.822-7.731 12.286-15.782 2.054-6.711 2.26-13.753 4.387-20.164" fill="none" stroke="#000" stroke-linecap="square" stroke-miterlimit="10" stroke-width=".75"/>
<path d="m135.895,82.284c.579-7.836-2.49-18.963-6.143-25.424" fill="none" stroke="#000" stroke-linecap="square" stroke-miterlimit="10" stroke-width=".75"/>
<path d="m129.752,56.86c3.389,3.638 12.662,20.788 10.97,25.862-1.366,4.096-3.949,8.562-3.949,12.713 0,3.886 1.298,10.559-.439,14.027-4.717,9.418-12.94,14.135-22.378,18.85-8.235,4.114-20.326,4.654-27.204,11.835 .36-9.21 19.354-7.697 25.449-12.273 4.052-3.043 3.961-6.361 7.021-9.644 3.501-3.756 8.96-5.911 11.408-10.521 2.522-4.747 3.827-18.337 4.387-24.549 .74-8.213-1.036-18.82-5.265-26.3" fill="none" stroke="#000" stroke-linecap="square" stroke-miterlimit="10" stroke-width=".75"/>
<path d="m81.486,150.669c3.906-11.3 14.474-8.282 23.694-9.645 7.833-1.157 13.548-4.383 21.939-4.383-8.836.531-12.906,9.644-21.5,9.644-9.299,0-14.198,5.973-24.133,4.384" fill-rule="evenodd"/>
<path d="m81.486,150.669c3.906-11.3 14.474-8.282 23.694-9.645 7.833-1.157 13.548-4.383 21.939-4.383-8.836.531-12.906,9.644-21.5,9.644-9.299,0-14.198,5.973-24.133,4.384" fill="none" stroke="#000" stroke-linecap="square" stroke-miterlimit="10" stroke-width=".75"/>
<path d="m.75.75" fill="none" stroke="#000" stroke-linecap="square" stroke-miterlimit="10" stroke-width=".75"/>
<path d="m81.486,150.669c3.906-11.3 14.474-8.282 23.694-9.645 7.833-1.157 13.548-4.383 21.939-4.383-8.836.531-12.906,9.644-21.5,9.644-9.299,0-14.198,5.973-24.133,4.384" fill="none" stroke="#000" stroke-linecap="square" stroke-miterlimit="10" stroke-width=".75"/>
<path d="m69.201,163.818c2.324-2.068 6.031-8.767 8.775-8.767 3.755,0 7.443,1.46 11.409.877 7.554-1.111 14.755-6.82 18.429,5.26-7.146-12.481-29.121,3.601-38.613,2.63" fill-rule="evenodd"/>
<path d="m69.201,163.818c2.324-2.068 6.031-8.767 8.775-8.767 3.755,0 7.443,1.46 11.409.877 7.554-1.111 14.755-6.82 18.429,5.26-7.146-12.481-29.121,3.601-38.613,2.63" fill="none" stroke="#000" stroke-linecap="square" stroke-miterlimit="10" stroke-width=".75"/>
<path d="m69.201,163.818c2.324-2.068 6.031-8.767 8.775-8.767 3.755,0 7.443,1.46 11.409.877 7.554-1.111 14.755-6.82 18.429,5.26-7.146-12.481-29.121,3.601-38.613,2.63" fill="none" stroke="#000" stroke-linecap="square" stroke-miterlimit="10" stroke-width=".75"/>
<path d="m57.792,172.586c10.599-6.288 25.541-10.94 35.103,0-6.167-1.169-10.874-3.506-16.673-3.506-5.629,0-11.93,3.689-18.43,3.506" fill-rule="evenodd"/>
<path d="m57.792,172.586c10.599-6.288 25.541-10.94 35.103,0-6.167-1.169-10.874-3.506-16.673-3.506-5.629,0-11.93,3.689-18.43,3.506" fill="none" stroke="#000" stroke-linecap="square" stroke-miterlimit="10" stroke-width=".75"/>
<path d="m57.792,172.586c10.599-6.288 25.541-10.94 35.103,0-6.167-1.169-10.874-3.506-16.673-3.506-5.629,0-11.93,3.689-18.43,3.506" fill="none" stroke="#000" stroke-linecap="square" stroke-miterlimit="10" stroke-width=".75"/>
<path d="m147.303,114.723c1.909,5.389.298,15.304-3.51,18.412" fill="none" stroke="#000" stroke-linecap="square" stroke-miterlimit="10" stroke-width="1.4999"/>
<path d="m147.303,114.723c1.909,5.389.298,15.304-3.51,18.412" fill="none" stroke="#000" stroke-linecap="square" stroke-miterlimit="10" stroke-width="1.4999"/>
<path d="m.75.75" fill="none" stroke="#000" stroke-linecap="square" stroke-miterlimit="10" stroke-width="1.4999"/>
<path d="m35.853,158.559c.05,3.221 1.309,6.334 3.51,8.768" fill="none" stroke="#000" stroke-linecap="square" stroke-miterlimit="10" stroke-width=".75"/>
<path d="m35.853,158.559c.05,3.221 1.309,6.334 3.51,8.768" fill="none" stroke="#000" stroke-linecap="square" stroke-miterlimit="10" stroke-width=".75"/>
<path d="m.75.75" fill="none" stroke="#000" stroke-linecap="square" stroke-miterlimit="10" stroke-width=".75"/>
<path d="m29.71,156.806c-1.716,2.321-2.271,4.976-1.755,7.89" fill="none" stroke="#000" stroke-linecap="square" stroke-miterlimit="10" stroke-width=".75"/>
<path d="m29.71,156.806c-1.716,2.321-2.271,4.976-1.755,7.89" fill="none" stroke="#000" stroke-linecap="square" stroke-miterlimit="10" stroke-width=".75"/>
<path d="m.75.75" fill="none" stroke="#000" stroke-linecap="square" stroke-miterlimit="10" stroke-width=".75"/>
<path d="m42.874,165.572c-1.165-.049-2.345,0-3.511,0 .677,4.536 5.422,6.924 10.531,7.014-4.015-.672-6.438-3.261-7.02-7.014" fill="#fdff98" fill-rule="evenodd"/>
<path d="m42.874,165.572c-1.165-.049-2.345,0-3.511,0 .677,4.536 5.422,6.924 10.531,7.014-4.015-.672-6.438-3.261-7.02-7.014" fill="none" stroke="#000" stroke-linecap="square" stroke-miterlimit="10" stroke-width=".75"/>
<path d="m42.874,165.572c-1.165-.049-2.345,0-3.511,0 .677,4.536 5.422,6.924 10.531,7.014-4.015-.672-6.438-3.261-7.02-7.014" fill="none" stroke="#000" stroke-linecap="square" stroke-miterlimit="10" stroke-width=".75"/>
<path d="m32.342,167.326c-2.445,5.228 4.308,7.632 8.776,7.891-3.981-1.43-7.393-5.175-8.776-7.891" fill="#fdff98" fill-rule="evenodd"/>
<path d="m32.342,167.326c-2.445,5.228 4.308,7.632 8.776,7.891-3.981-1.43-7.393-5.175-8.776-7.891" fill="none" stroke="#000" stroke-linecap="square" stroke-miterlimit="10" stroke-width=".75"/>
<path d="m32.342,167.326c-2.445,5.228 4.308,7.632 8.776,7.891-3.981-1.43-7.393-5.175-8.776-7.891" fill="none" stroke="#000" stroke-linecap="square" stroke-miterlimit="10" stroke-width=".75"/>
<path d="m41.996,219.052c-1.005-7.271 10.862-13.789 15.795-17.533-2.088,9.894-7.328,13.538-15.795,17.533" fill="#c76300" fill-rule="evenodd"/>
<path d="m94.649,174.34c-7.45,5.305-15.584,10.393-21.939,16.658-3.182,3.137-15.05,22.533-12.724,27.178 2.891,5.771 17.642-14.066 19.745-17.534 4.899-8.079 10.066-19.048 14.918-26.302" fill="#c76300" fill-rule="evenodd"/>
<path d="m37.607,191.875c-5.015,3.778-10.206,6.708-15.795,8.767" fill="none" stroke="#000" stroke-linecap="square" stroke-miterlimit="10" stroke-width=".75"/>
<path d="m37.607,191.875c-5.015,3.778-10.206,6.708-15.795,8.767" fill="none" stroke="#000" stroke-linecap="square" stroke-miterlimit="10" stroke-width=".75"/>
<path d="m61.302,213.792c-7.947-.234-6.873,8.141-3.511,13.15-1.553-6.263 3.565-8.758 3.511-13.15" fill="#fdff98" fill-rule="evenodd"/>
<path d="m61.302,213.792c-7.947-.234-6.873,8.141-3.511,13.15-1.553-6.263 3.565-8.758 3.511-13.15" fill="none" stroke="#000" stroke-linecap="square" stroke-miterlimit="10" stroke-width=".75"/>
<path d="m61.302,213.792c-7.947-.234-6.873,8.141-3.511,13.15-1.553-6.263 3.565-8.758 3.511-13.15" fill="none" stroke="#000" stroke-linecap="square" stroke-miterlimit="10" stroke-width=".75"/>
<path d="m41.996,214.669c-5.561.999-7.203,7.033-6.143,12.273 2.407-4.629 7.526-6.362 6.143-12.273" fill="#fdff98" fill-rule="evenodd"/>
<path d="m41.996,214.669c-5.561.999-7.203,7.033-6.143,12.273 2.407-4.629 7.526-6.362 6.143-12.273" fill="none" stroke="#000" stroke-linecap="square" stroke-miterlimit="10" stroke-width=".75"/>
<path d="m41.996,214.669c-5.561.999-7.203,7.033-6.143,12.273 2.407-4.629 7.526-6.362 6.143-12.273" fill="none" stroke="#000" stroke-linecap="square" stroke-miterlimit="10" stroke-width=".75"/>
<path d="m36.73,205.025c-6.215,2.513-14.096.976-14.918,9.644 7.466,3.461 11.397-4.687 14.918-9.644" fill="#c76300" fill-rule="evenodd"/>
<path d="m21.812,213.792c1.435-2.251 1.753-4.337.877-7.014-6.198,1.766-10.138,7.987-4.388,13.15-.699-4.071 1.51-3.984 3.511-6.136" fill="#fdff98" fill-rule="evenodd"/>
<path d="m21.812,213.792c1.435-2.251 1.753-4.337.877-7.014-6.198,1.766-10.138,7.987-4.388,13.15-.699-4.071 1.51-3.984 3.511-6.136" fill="none" stroke="#000" stroke-linecap="square" stroke-miterlimit="10" stroke-width=".75"/>
<path d="m21.812,213.792c1.435-2.251 1.753-4.337.877-7.014-6.198,1.766-10.138,7.987-4.388,13.15-.699-4.071 1.51-3.984 3.511-6.136" fill="none" stroke="#000" stroke-linecap="square" stroke-miterlimit="10" stroke-width=".75"/>
<path d="m18.301,197.135c-1.934.611-3.838,2.142-5.266,3.507 1.34,1.653 3.471,4.195 5.266,5.261-.372-4.907.01-2.079 2.633-5.261-.818-1.13-1.867-2.871-2.633-3.507" fill="#fdff98" fill-rule="evenodd"/>
<path d="m18.301,197.135c-1.934.611-3.838,2.142-5.266,3.507 1.34,1.653 3.471,4.195 5.266,5.261-.372-4.907.01-2.079 2.633-5.261-.818-1.13-1.867-2.871-2.633-3.507" fill="none" stroke="#000" stroke-linecap="square" stroke-miterlimit="10" stroke-width=".75"/>
<path d="m18.301,197.135c-1.934.611-3.838,2.142-5.266,3.507 1.34,1.653 3.471,4.195 5.266,5.261-.372-4.907.01-2.079 2.633-5.261-.818-1.13-1.867-2.871-2.633-3.507" fill="none" stroke="#000" stroke-linecap="square" stroke-miterlimit="10" stroke-width=".75"/>
<path d="m168.366,91.052c-1.774,5.905-4.578,11.094-6.582,17.097-2.47,7.398-11.766,9.955-10.093,19.726 8.517-11.872 18.274-19.912 16.675-36.823" fill-rule="evenodd"/>
<path d="m168.366,91.052c-1.774,5.905-4.578,11.094-6.582,17.097-2.47,7.398-11.766,9.955-10.093,19.726 8.517-11.872 18.274-19.912 16.675-36.823" fill="none" stroke="#000" stroke-linecap="square" stroke-miterlimit="10" stroke-width=".75"/>
<path d="m168.366,91.052c-1.774,5.905-4.578,11.094-6.582,17.097-2.47,7.398-11.766,9.955-10.093,19.726 8.517-11.872 18.274-19.912 16.675-36.823" fill="none" stroke="#000" stroke-linecap="square" stroke-miterlimit="10" stroke-width=".75"/>
<path d="m162.223,126.121c-1.428.536-2.513,1.298-4.389.876 3.894-5.359 9.369-8.482 14.042-13.151 4.186-4.183 2.959-11.172 5.704-16.658 7.142-14.275.822-21.855.438-36.82 .212,13.126 9.376,21.135 6.143,35.068-2.985,12.859-12.466,21.341-21.938,30.685" fill-rule="evenodd"/>
<path d="m162.223,126.121c-1.428.536-2.513,1.298-4.389.876 3.894-5.359 9.369-8.482 14.042-13.151 4.186-4.183 2.959-11.172 5.704-16.658 7.142-14.275.822-21.855.438-36.82 .092,5.706 3.205,12.464 5.266,17.534" fill="none" stroke="#000" stroke-linecap="square" stroke-miterlimit="10" stroke-width=".75"/>
<path d="m183.284,77.901c10.035,17.081-10.231,37.537-21.061,48.22" fill="none" stroke="#000" stroke-linecap="square" stroke-miterlimit="10" stroke-width=".75"/>
<path d="m162.223,126.121c-1.428.536-2.513,1.298-4.389.876 3.894-5.359 9.369-8.482 14.042-13.151 4.186-4.183 2.959-11.172 5.704-16.658 7.142-14.275.822-21.855.438-36.82 .212,13.126 9.376,21.135 6.143,35.068-2.985,12.859-12.466,21.341-21.938,30.685" fill="none" stroke="#000" stroke-linecap="square" stroke-miterlimit="10" stroke-width=".75"/>
<path d="m153.446,107.71c-.41-14.605 3.51-28.869 3.51-43.398 0-5.311-3.624-6.61-5.265-10.959-1.684-4.463-.88-7.115-.877-11.397 .003-6.779-.134-14.729-7.02-19.288 14.115-3.361 17.375,30.152 18.429,39.452 1.516,13.386-1.293,34.443-8.777,45.59" fill-rule="evenodd"/>
<path d="m153.446,107.71c-.41-14.605 3.51-28.869 3.51-43.398 0-5.311-3.624-6.61-5.265-10.959-1.684-4.463-.88-7.115-.877-11.397 .003-6.779-.134-14.729-7.02-19.288 1.665,0 3.628-.283 5.266,0" fill="none" stroke="#000" stroke-linecap="square" stroke-miterlimit="10" stroke-width=".75"/>
<path d="m149.059,22.668c19.218,15.725 17.177,65.993 4.387,85.042" fill="none" stroke="#000" stroke-linecap="square" stroke-miterlimit="10" stroke-width=".75"/>
<path d="m153.446,107.71c-.41-14.605 3.51-28.869 3.51-43.398 0-5.311-3.624-6.61-5.265-10.959-1.684-4.463-.88-7.115-.877-11.397 .003-6.779-.134-14.729-7.02-19.288 14.115-3.361 17.375,30.152 18.429,39.452 1.516,13.386-1.293,34.443-8.777,45.59" fill="none" stroke="#000" stroke-linecap="square" stroke-miterlimit="10" stroke-width=".75"/>
<path d="m156.956,22.668c14.38.445 14.774,8.361 15.796,20.165 .663,7.654 5.575,19.139 0,25.425 0-8.919-5.265-17.986-5.265-25.424 0-2.968 1.437-10.241-1.755-11.836-4.057-2.029-7.856-3.428-8.776-8.33" fill-rule="evenodd"/>
<path d="m156.956,22.668c14.38.445 14.774,8.361 15.796,20.165 .663,7.654 5.575,19.139 0,25.425 0-12.85-5.265-22.623-5.265-35.069" fill="none" stroke="#000" stroke-linecap="square" stroke-miterlimit="10" stroke-width=".75"/>
<path d="m167.488,33.188c-3.275-4.095-9.392-4.447-10.532-10.52" fill="none" stroke="#000" stroke-linecap="square" stroke-miterlimit="10" stroke-width=".75"/>
<path d="m156.956,22.668c14.38.445 14.774,8.361 15.796,20.165 .663,7.654 5.575,19.139 0,25.425 0-8.919-5.265-17.986-5.265-25.424 0-2.968 1.437-10.241-1.755-11.836-4.057-2.029-7.856-3.428-8.776-8.33" fill="none" stroke="#000" stroke-linecap="square" stroke-miterlimit="10" stroke-width=".75"/>
<path d="m113.956,22.668c9.407.833 12.917-1.854 20.184,4.383 7.802,6.697 6.976,12.436 8.775,21.918 2.686,14.153 5.621,27.195 3.511,42.959 1.676-15.541-5.381-26.04-9.654-39.453-1.847-5.798.365-14.851-4.388-19.288-4.948-4.618-13.235-6.296-18.428-10.519" fill-rule="evenodd"/>
<path d="m113.956,22.668c9.407.833 12.917-1.854 20.184,4.383 7.802,6.697 6.976,12.436 8.775,21.918 2.686,14.153 5.621,27.195 3.511,42.959 0-1.446-.104-2.939 0-4.384" fill="none" stroke="#000" stroke-linecap="square" stroke-miterlimit="10" stroke-width=".75"/>
<path d="m146.426,87.545c-1.876-14.39-5.657-23.973-10.093-37.261-1.586-4.751.508-14.871-4.826-17.534-7.108-3.549-11.755-5.37-17.551-10.082" fill="none" stroke="#000" stroke-linecap="square" stroke-miterlimit="10" stroke-width=".75"/>
<path d="m113.956,22.668c9.407.833 12.917-1.854 20.184,4.383 7.802,6.697 6.976,12.436 8.775,21.918 2.686,14.153 5.621,27.195 3.511,42.959 1.676-15.541-5.381-26.04-9.654-39.453-1.847-5.798.365-14.851-4.388-19.288-4.948-4.618-13.235-6.296-18.428-10.519" fill="none" stroke="#000" stroke-linecap="square" stroke-miterlimit="10" stroke-width=".75"/>
<path d="m199.08,147.161c-3.834.738-3.296,4.744-1.756,8.768-1.544-6.735 7.659-5.351 1.756-8.768" fill="#fdff98" fill-rule="evenodd"/>
<path d="m199.08,147.161c-3.834.738-3.296,4.744-1.756,8.768-1.544-6.735 7.659-5.351 1.756-8.768" fill="none" stroke="#000" stroke-linecap="square" stroke-miterlimit="10" stroke-width=".75"/>
<path d="m199.08,147.161c-3.834.738-3.296,4.744-1.756,8.768-1.544-6.735 7.659-5.351 1.756-8.768" fill="none" stroke="#000" stroke-linecap="square" stroke-miterlimit="10" stroke-width=".75"/>
<path d="m190.304,143.655c-1.929,2.124-3.181,3.274-1.754,7.014 2.842-2.395 4.308-4.636 1.754-7.014" fill="#fdff98" fill-rule="evenodd"/>
<path d="m190.304,143.655c-1.929,2.124-3.181,3.274-1.754,7.014 2.842-2.395 4.308-4.636 1.754-7.014" fill="none" stroke="#000" stroke-linecap="square" stroke-miterlimit="10" stroke-width=".75"/>
<path d="m190.304,143.655c-1.929,2.124-3.181,3.274-1.754,7.014 2.842-2.395 4.308-4.636 1.754-7.014" fill="none" stroke="#000" stroke-linecap="square" stroke-miterlimit="10" stroke-width=".75"/>
<path d="m170.998,22.668c17.938-3.249 17.551,15.667 17.551,26.302 0,2.892 3.51,4.504 3.51,7.89 0,3.437-1.33,5.698-1.755,8.767-.812,5.856.237,13.441-1.754,19.288 .703-5.462-1.467-11.414-3.072-16.22-1.813-5.43 2.09-12.923 0-17.096-2.856-5.702-.282-11.036-2.194-16.658-2.379-6.993-7.991-7.197-12.286-12.273" fill-rule="evenodd"/>
<path d="m170.998,22.668c17.938-3.249 17.551,15.667 17.551,26.302 0,2.892 3.51,4.504 3.51,7.89 0,3.437-1.33,5.698-1.755,8.767-.812,5.856.237,13.441-1.754,19.288 .899-6.991-2.369-14.616-4.389-21.042" fill="none" stroke="#000" stroke-linecap="square" stroke-miterlimit="10" stroke-width=".75"/>
<path d="m184.161,63.873c-.057-3.705 1.756-6.968 1.756-10.52 0-4.191-2.633-7.584-2.633-12.274 0-11.609-5.878-10.839-12.286-18.411" fill="none" stroke="#000" stroke-linecap="square" stroke-miterlimit="10" stroke-width=".75"/>
<path d="m170.998,22.668c17.938-3.249 17.551,15.667 17.551,26.302 0,2.892 3.51,4.504 3.51,7.89 0,3.437-1.33,5.698-1.755,8.767-.812,5.856.237,13.441-1.754,19.288 .703-5.462-1.467-11.414-3.072-16.22-1.813-5.43 2.09-12.923 0-17.096-2.856-5.702-.282-11.036-2.194-16.658-2.379-6.993-7.991-7.197-12.286-12.273" fill="none" stroke="#000" stroke-linecap="square" stroke-miterlimit="10" stroke-width=".75"/>
<path d="m184.161,22.668c22.401-4.724 16.7,29.012 20.624,40.767 4.353,13.04-10.365,40.141-19.746,48.658 11.04-28.949 29.084-66.147-.878-89.425" fill-rule="evenodd"/>
<path d="m184.161,22.668c20.392-4.3 18.268,25.985 20.185,37.699 2.846,17.386-6.832,29.898-14.042,45.589" fill="none" stroke="#000" stroke-linecap="square" stroke-miterlimit="10" stroke-width=".75"/>
<path d="m190.304,105.956c-1.55,2.283-3.623,4.636-5.265,6.137 9.883-25.916 28.907-64.604 2.633-86.794" fill="none" stroke="#000" stroke-linecap="square" stroke-miterlimit="10" stroke-width=".75"/>
<path d="m187.671,25.298c-.941-1.187-2.113-2.067-3.511-2.63" fill="none" stroke="#000" stroke-linecap="square" stroke-miterlimit="10" stroke-width=".75"/>
<path d="m184.161,22.668c22.401-4.724 16.7,29.012 20.624,40.767 4.353,13.04-10.365,40.141-19.746,48.658 11.04-28.949 29.084-66.147-.878-89.425" fill="none" stroke="#000" stroke-linecap="square" stroke-miterlimit="10" stroke-width=".75"/>
<path d="m198.202,21.791c7.786-6.859 10.445,5.688 14.041,11.397 4.5,7.145 3.578,12.382 5.267,21.042 1.44,7.389 5.512,13.539 1.314,21.918-3.625,7.238-1.911,16.375-6.581,23.67v-20.603c0-7.883 6.492-12.008 2.194-20.603-2.361-4.722-2.194-13.925-2.194-19.288 0-4.678-11.345-13.987-14.041-17.533" fill-rule="evenodd"/>
<path d="m198.202,21.791c7.786-6.859 10.445,5.688 14.041,11.397 4.5,7.145 3.578,12.382 5.267,21.042 1.44,7.389 5.512,13.539 1.314,21.918-3.625,7.238-1.911,16.375-6.581,23.67" fill="none" stroke="#000" stroke-linecap="square" stroke-miterlimit="10" stroke-width=".75"/>
<path d="m212.243,99.818v-20.603c0-7.883 6.492-12.008 2.194-20.603-2.361-4.722-2.194-13.925-2.194-19.288 0-4.68-11.344-13.988-14.041-17.535" fill="none" stroke="#000" stroke-linecap="square" stroke-miterlimit="10" stroke-width=".75"/>
<path d="m198.202,21.791c7.786-6.859 10.445,5.688 14.041,11.397 4.5,7.145 3.578,12.382 5.267,21.042 1.44,7.389 5.512,13.539 1.314,21.918-3.625,7.238-1.911,16.375-6.581,23.67v-20.603c0-7.883 6.492-12.008 2.194-20.603-2.361-4.722-2.194-13.925-2.194-19.288 0-4.678-11.345-13.987-14.041-17.533" fill="none" stroke="#000" stroke-linecap="square" stroke-miterlimit="10" stroke-width=".75"/>
<path d="m209.61,18.284c26.131-10.529 26.085,30.167 15.796,43.836 3.621-6.702 1.755-17.026 1.755-24.548 .001-12.5-9.37-14.261-17.551-19.288" fill-rule="evenodd"/>
<path d="m209.61,18.284c26.131-10.529 26.085,30.167 15.796,43.836 4.474-8.279 2.943-27.354-1.755-35.069" fill="none" stroke="#000" stroke-linecap="square" stroke-miterlimit="10" stroke-width=".75"/>
<path d="m223.652,27.051c-2.913-5.771-9.291-5.848-14.042-8.767" fill="none" stroke="#000" stroke-linecap="square" stroke-miterlimit="10" stroke-width=".75"/>
<path d="m209.61,18.284c26.131-10.529 26.085,30.167 15.796,43.836 3.621-6.702 1.755-17.026 1.755-24.548 .001-12.5-9.37-14.261-17.551-19.288" fill="none" stroke="#000" stroke-linecap="square" stroke-miterlimit="10" stroke-width=".75"/>
<path d="m222.774,13.024c19.403-5.09 25.449,18.788 25.449,33.314 0,10.17-.834,15.743-7.897,22.795-5.162,5.153-12.229,13.535-12.286,21.041-4.728-15.585 12.357-25.542 14.042-40.329 1.995-17.511-1.251-29.696-19.308-36.821" fill-rule="evenodd"/>
<path d="m222.774,13.024c19.403-5.09 25.449,18.788 25.449,33.314 0,10.004-1.107,14.564-7.02,21.918-5.063,6.299-12.239,12.754-13.164,21.042" fill="none" stroke="#000" stroke-linecap="square" stroke-miterlimit="10" stroke-width=".75"/>
<path d="m228.04,89.299c-7.813-8.976 14.042-26.99 14.042-38.576 0-18.093.631-29.831-19.308-37.698" fill="none" stroke="#000" stroke-linecap="square" stroke-miterlimit="10" stroke-width=".75"/>
<path d="m222.774,13.024c19.403-5.09 25.449,18.788 25.449,33.314 0,10.17-.834,15.743-7.897,22.795-5.162,5.153-12.229,13.535-12.286,21.041-4.728-15.585 12.357-25.542 14.042-40.329 1.995-17.511-1.251-29.696-19.308-36.821" fill="none" stroke="#000" stroke-linecap="square" stroke-miterlimit="10" stroke-width=".75"/>
<path d="m246.467,8.64c7.401-1.406 17.511,11.268 19.746,17.973 2.684,8.047.438,20.213.438,29.37 0,12.25-4.933,14.241-10.092,24.548-2.31,4.615-15.125,23.368-20.622,13.15 13.142,3.991 24.571-27.882 24.571-39.014 .001-18.163 2.544-33.948-14.041-46.027" fill-rule="evenodd"/>
<path d="m246.467,8.64c7.094-1.348 12.795,7.157 15.358,12.274 4.735,9.455 4.826,13.294 4.826,24.548 0,5.795 1.722,14.678 0,20.165-1.841,5.867-9.629,12.516-12.286,19.288" fill="none" stroke="#000" stroke-linecap="square" stroke-miterlimit="10" stroke-width=".75"/>
<path d="m254.366,84.915c-3.041,4.298-13.86,17.257-18.428,8.767 10.773,3.272 19.114-17.57 21.938-25.424 3.782-10.522 3.511-22.57 3.511-34.192" fill="none" stroke="#000" stroke-linecap="square" stroke-miterlimit="10" stroke-width=".75"/>
<path d="m261.386,34.065c-2.589-9.891-5.597-18.635-14.919-25.425" fill="none" stroke="#000" stroke-linecap="square" stroke-miterlimit="10" stroke-width=".75"/>
<path d="m246.467,8.64c7.401-1.406 17.511,11.268 19.746,17.973 2.684,8.047.438,20.213.438,29.37 0,12.25-4.933,14.241-10.092,24.548-2.31,4.615-15.125,23.368-20.622,13.15 13.142,3.991 24.571-27.882 24.571-39.014 .001-18.163 2.544-33.948-14.041-46.027" fill="none" stroke="#000" stroke-linecap="square" stroke-miterlimit="10" stroke-width=".75"/>
<path d="m252.611,104.202c-7.052-2.271-20.107-9.166-23.693-17.533" fill="none" stroke="#000" stroke-linecap="square" stroke-miterlimit="10" stroke-width="1.4999"/>
<path d="m252.611,104.202c-7.052-2.271-20.107-9.166-23.693-17.533" fill="none" stroke="#000" stroke-linecap="square" stroke-miterlimit="10" stroke-width="1.4999"/>
<path d="m221.896,108.586c-.908-7.973 10.454-10.606 16.675-10.521-1.997,3.632-12.571,9.247-16.675,10.521" fill-rule="evenodd"/>
<path d="m221.896,108.586c-.908-7.973 10.454-10.606 16.675-10.521-1.997,3.632-12.571,9.247-16.675,10.521" fill="none" stroke="#000" stroke-linecap="square" stroke-miterlimit="10" stroke-width=".75"/>
<path d="m221.896,108.586c-.908-7.973 10.454-10.606 16.675-10.521-1.997,3.632-12.571,9.247-16.675,10.521" fill="none" stroke="#000" stroke-linecap="square" stroke-miterlimit="10" stroke-width=".75"/>
<path d="m251.733,104.202c-1.816-.209-20.359,2.482-22.815,5.261 9.58-4.172 16.877,7.816 22.815-5.261" fill-rule="evenodd"/>
<path d="m251.733,104.202c-1.816-.209-20.359,2.482-22.815,5.261 9.58-4.172 16.877,7.816 22.815-5.261" fill="none" stroke="#000" stroke-linecap="square" stroke-miterlimit="10" stroke-width=".75"/>
<path d="m251.733,104.202c-1.816-.209-20.359,2.482-22.815,5.261 9.58-4.172 16.877,7.816 22.815-5.261" fill="none" stroke="#000" stroke-linecap="square" stroke-miterlimit="10" stroke-width=".75"/>
<path d="m240.326,121.737c-4.98,6.512-10.084,3.557-15.797,0h15.797" fill-rule="evenodd"/>
<path d="m240.326,121.737c-4.98,6.512-10.084,3.557-15.797,0h15.797" fill="none" stroke="#000" stroke-linecap="square" stroke-miterlimit="10" stroke-width=".75"/>
<path d="m240.326,121.737c-4.98,6.512-10.084,3.557-15.797,0h15.797" fill="none" stroke="#000" stroke-linecap="square" stroke-miterlimit="10" stroke-width=".75"/>
<path d="m217.509,118.23c1.768-13.213 16.294-.804 21.062-3.508-4.13,4.33-14.866.451-21.062,3.508" fill-rule="evenodd"/>
<path d="m217.509,118.23c1.768-13.213 16.294-.804 21.062-3.508-4.13,4.33-14.866.451-21.062,3.508" fill="none" stroke="#000" stroke-linecap="square" stroke-miterlimit="10" stroke-width=".75"/>
<path d="m217.509,118.23c1.768-13.213 16.294-.804 21.062-3.508-4.13,4.33-14.866.451-21.062,3.508" fill="none" stroke="#000" stroke-linecap="square" stroke-miterlimit="10" stroke-width=".75"/>
<path d="m262.264,9.517c7.943-.53 4.109,3.348 7.021,7.891 2.573,4.014 8.047,8.192 10.091,12.274 3.174,6.335 3.878,20.83 3.07,27.179-.648,5.099-3.91,8.405-5.264,13.15-1.204,4.22.711,10.85-1.316,14.905-2.983,5.967-11.141,23.548-18.867,20.164 1.881-9.455 12.427-12.699 15.357-21.479 2.572-7.71 2.402-18.119 3.948-26.739 1.382-7.703 2.327-18.148-1.315-25.425-1.854-3.703-6.767-5.624-8.776-9.644-2.258-4.519 1.208-9.618-3.949-12.276" fill-rule="evenodd"/>
<path d="m262.264,9.517c6.68-.445 3.959,2.264 6.144,5.26 2.138,2.932 6.766,9.138 8.336,12.274 3.15,6.289 4.091,12.445 4.827,20.164 .914,9.587-1.666,13.257-4.388,22.794-2.398,8.407-.113,15.953-5.266,23.671" fill="none" stroke="#000" stroke-linecap="square" stroke-miterlimit="10" stroke-width=".75"/>
<path d="m271.917,93.682c-4.415,4.469-8.895,14.036-14.918,11.397 1.372-6.896 7.888-9.477 11.408-14.027 4.71-6.09 5.265-11.213 5.265-18.411 0-11.961 3.511-22.699 3.511-35.068" fill="none" stroke="#000" stroke-linecap="square" stroke-miterlimit="10" stroke-width=".75"/>
<path d="m277.183,37.572c-1.201-6.456-5.362-8.865-9.653-13.15-4.897-4.891.723-11.818-5.266-14.905" fill="none" stroke="#000" stroke-linecap="square" stroke-miterlimit="10" stroke-width=".75"/>
<path d="m262.264,9.517c7.943-.53 4.109,3.348 7.021,7.891 2.573,4.014 8.047,8.192 10.091,12.274 3.174,6.335 3.878,20.83 3.07,27.179-.648,5.099-3.91,8.405-5.264,13.15-1.204,4.22.711,10.85-1.316,14.905-2.983,5.967-11.141,23.548-18.867,20.164 1.881-9.455 12.427-12.699 15.357-21.479 2.572-7.71 2.402-18.119 3.948-26.739 1.382-7.703 2.327-18.148-1.315-25.425-1.854-3.703-6.767-5.624-8.776-9.644-2.258-4.519 1.208-9.618-3.949-12.276" fill="none" stroke="#000" stroke-linecap="square" stroke-miterlimit="10" stroke-width=".75"/>
<path d="m273.672,13.024c8.596-1.663 13.476,11.722 10.53,19.288 1.119-11.33-7.467-11.152-10.53-19.288" fill-rule="evenodd"/>
<path d="m273.672,13.024c8.596-1.663 13.476,11.722 10.53,19.288 1.119-11.33-7.467-11.152-10.53-19.288" fill="none" stroke="#000" stroke-linecap="square" stroke-miterlimit="10" stroke-width=".75"/>
<path d="m273.672,13.024c8.596-1.663 13.476,11.722 10.53,19.288 1.119-11.33-7.467-11.152-10.53-19.288" fill="none" stroke="#000" stroke-linecap="square" stroke-miterlimit="10" stroke-width=".75"/>
<path d="m292.979,20.038c5.62,3.015 6.998,11.202 3.511,16.657 .543-6.365-1.571-11.349-3.511-16.657" fill-rule="evenodd"/>
<path d="m292.979,20.038c5.62,3.015 6.998,11.202 3.511,16.657 .543-6.365-1.571-11.349-3.511-16.657" fill="none" stroke="#000" stroke-linecap="square" stroke-miterlimit="10" stroke-width=".75"/>
<path d="m292.979,20.038c5.62,3.015 6.998,11.202 3.511,16.657 .543-6.365-1.571-11.349-3.511-16.657" fill="none" stroke="#000" stroke-linecap="square" stroke-miterlimit="10" stroke-width=".75"/>
<path d="m279.816,162.065c-3.833.739-3.295,4.744-1.755,8.768 .904-2.996 1.613-6.528 1.755-8.768" fill="#fdff98" fill-rule="evenodd"/>
<path d="m279.816,162.065c-3.833.739-3.295,4.744-1.755,8.768 .904-2.996 1.613-6.528 1.755-8.768" fill="none" stroke="#000" stroke-linecap="square" stroke-miterlimit="10" stroke-width=".75"/>
<path d="m279.816,162.065c-3.833.739-3.295,4.744-1.755,8.768 .904-2.996 1.613-6.528 1.755-8.768" fill="none" stroke="#000" stroke-linecap="square" stroke-miterlimit="10" stroke-width=".75"/>
<path d="m271.04,156.806c-3.945,1.386-4.753,4.332-1.754,7.89 .151-2.666.871-5.732 1.754-7.89" fill="#fdff98" fill-rule="evenodd"/>
<path d="m271.04,156.806c-3.945,1.386-4.753,4.332-1.754,7.89 .151-2.666.871-5.732 1.754-7.89" fill="none" stroke="#000" stroke-linecap="square" stroke-miterlimit="10" stroke-width=".75"/>
<path d="m271.04,156.806c-3.945,1.386-4.753,4.332-1.754,7.89 .151-2.666.871-5.732 1.754-7.89" fill="none" stroke="#000" stroke-linecap="square" stroke-miterlimit="10" stroke-width=".75"/>
<path d="m57.792,201.519c-.019,4.658-2.462,8.739-5.265,12.273" fill="none" stroke="#000" stroke-linecap="square" stroke-miterlimit="10" stroke-width=".75"/>
<path d="m57.792,201.519c-.019,4.658-2.462,8.739-5.265,12.273" fill="none" stroke="#000" stroke-linecap="square" stroke-miterlimit="10" stroke-width=".75"/>
<path d="m.75.75" fill="none" stroke="#000" stroke-linecap="square" stroke-miterlimit="10" stroke-width=".75"/>
<path d="m47.261,198.889c-4.981,2.918-12.692,8.186-14.919,13.15" fill="none" stroke="#000" stroke-linecap="square" stroke-miterlimit="10" stroke-width=".75"/>
<path d="m47.261,198.889c-4.981,2.918-12.692,8.186-14.919,13.15" fill="none" stroke="#000" stroke-linecap="square" stroke-miterlimit="10" stroke-width=".75"/>
<path d="m32.342,194.505c-3.347,1.252-12.902.596-14.041,3.507-2.396,6.127 12.642-2.519 14.041-3.507" fill="#c76300" fill-rule="evenodd"/>
<path d="m193.814,148.915c-.489-2.819.397-5.23 2.632-7.014" fill="none" stroke="#000" stroke-linecap="square" stroke-miterlimit="10" stroke-width=".75"/>
<path d="m193.814,148.915c-.489-2.819.397-5.23 2.632-7.014" fill="none" stroke="#000" stroke-linecap="square" stroke-miterlimit="10" stroke-width=".75"/>
<path d="m196.446,141.901c3.993-.71 7.424-2.569 10.532-5.26" fill="none" stroke="#000" stroke-linecap="square" stroke-miterlimit="10" stroke-width=".75"/>
<path d="m196.446,141.901c3.993-.71 7.424-2.569 10.532-5.26" fill="none" stroke="#000" stroke-linecap="square" stroke-miterlimit="10" stroke-width=".75"/>
<path d="m205.223,132.259c-3.596.074-7.039-.347-10.531-.877" fill="none" stroke="#000" stroke-linecap="square" stroke-miterlimit="10" stroke-width=".75"/>
<path d="m205.223,132.259c-3.596.074-7.039-.347-10.531-.877" fill="none" stroke="#000" stroke-linecap="square" stroke-miterlimit="10" stroke-width=".75"/>
<path d="m.75.75" fill="none" stroke="#000" stroke-linecap="square" stroke-miterlimit="10" stroke-width=".75"/>
<path d="m202.589,135.765c-3.623,1.143-7.951,3.252-11.408,5.26" fill="none" stroke="#000" stroke-linecap="square" stroke-miterlimit="10" stroke-width=".75"/>
<path d="m202.589,135.765c-3.623,1.143-7.951,3.252-11.408,5.26" fill="none" stroke="#000" stroke-linecap="square" stroke-miterlimit="10" stroke-width=".75"/>
<path d="m.75.75" fill="none" stroke="#000" stroke-linecap="square" stroke-miterlimit="10" stroke-width=".75"/>
<path d="m288.59,149.792c-4.027,2.59-8.283,4.798-12.285,7.014" fill="none" stroke="#000" stroke-linecap="square" stroke-miterlimit="10" stroke-width=".75"/>
<path d="m288.59,149.792c-4.027,2.59-8.283,4.798-12.285,7.014" fill="none" stroke="#000" stroke-linecap="square" stroke-miterlimit="10" stroke-width=".75"/>
<path d="m276.305,156.806c-1.67,2.038-2.229,4.386-1.755,7.013" fill="none" stroke="#000" stroke-linecap="square" stroke-miterlimit="10" stroke-width=".75"/>
<path d="m276.305,156.806c-1.67,2.038-2.229,4.386-1.755,7.013" fill="none" stroke="#000" stroke-linecap="square" stroke-miterlimit="10" stroke-width=".75"/>
<path d="m.75.75" fill="none" stroke="#000" stroke-linecap="square" stroke-miterlimit="10" stroke-width=".75"/>
<path d="m274.55,148.915c-3.827.205-7.355.719-9.653,3.507" fill="none" stroke="#000" stroke-linecap="square" stroke-miterlimit="10" stroke-width=".75"/>
<path d="m274.55,148.915c-3.827.205-7.355.719-9.653,3.507" fill="none" stroke="#000" stroke-linecap="square" stroke-miterlimit="10" stroke-width=".75"/>
<path d="m294.734,42.833c-4.747,15.544-1.219,33.829-12.287,47.342 7.015-2.238 6.398-12.783 9.215-18.411 .786-1.57 3.335-1.75 3.95-3.507 .581-1.657-.413-4.022.438-6.575 1.868-5.595-.615-13.25-1.316-18.849" fill-rule="evenodd"/>
<path d="m294.734,42.833c-4.747,15.544-1.219,33.829-12.287,47.342 7.015-2.238 6.398-12.783 9.215-18.411 .786-1.57 3.335-1.75 3.95-3.507 .581-1.657-.413-4.022.438-6.575 1.868-5.595-.615-13.25-1.316-18.849" fill="none" stroke="#000" stroke-linecap="square" stroke-miterlimit="10" stroke-width=".75"/>
<path d="m294.734,42.833c-4.747,15.544-1.219,33.829-12.287,47.342 7.015-2.238 6.398-12.783 9.215-18.411 .786-1.57 3.335-1.75 3.95-3.507 .581-1.657-.413-4.022.438-6.575 1.868-5.595-.615-13.25-1.316-18.849" fill="none" stroke="#000" stroke-linecap="square" stroke-miterlimit="10" stroke-width=".75"/>
<path d="m306.143,27.928c7.604,4.314 5.644,13.818-1.756,17.534 4.718-6.137 4.662-10.201 1.756-17.534" fill-rule="evenodd"/>
<path d="m306.143,27.928c7.604,4.314 5.644,13.818-1.756,17.534 4.718-6.137 4.662-10.201 1.756-17.534" fill="none" stroke="#000" stroke-linecap="square" stroke-miterlimit="10" stroke-width=".75"/>
<path d="m306.143,27.928c7.604,4.314 5.644,13.818-1.756,17.534 4.718-6.137 4.662-10.201 1.756-17.534" fill="none" stroke="#000" stroke-linecap="square" stroke-miterlimit="10" stroke-width=".75"/>
<path d="m316.673,36.695c9.722.932 4.171,13.726-1.755,15.781 3.635-5.175 3.914-9.788 1.755-15.781" fill-rule="evenodd"/>
<path d="m316.673,36.695c9.722.932 4.171,13.726-1.755,15.781 3.635-5.175 3.914-9.788 1.755-15.781" fill="none" stroke="#000" stroke-linecap="square" stroke-miterlimit="10" stroke-width=".75"/>
<path d="m316.673,36.695c9.722.932 4.171,13.726-1.755,15.781 3.635-5.175 3.914-9.788 1.755-15.781" fill="none" stroke="#000" stroke-linecap="square" stroke-miterlimit="10" stroke-width=".75"/>
<path d="m299.122,71.764c-6.123,2.973-4.311,15.627-7.46,21.917-1.656,3.31-17.781,18.177-3.948,17.534-1.373-7.881 5.201-12.961 7.46-19.726 1.41-4.226 3.896-19.811 3.948-19.725" fill-rule="evenodd"/>
<path d="m299.122,71.764c-6.123,2.973-4.311,15.627-7.46,21.917-1.656,3.31-17.781,18.177-3.948,17.534-1.373-7.881 5.201-12.961 7.46-19.726 1.41-4.226 3.896-19.811 3.948-19.725" fill="none" stroke="#000" stroke-linecap="square" stroke-miterlimit="10" stroke-width=".75"/>
<path d="m299.122,71.764c-6.123,2.973-4.311,15.627-7.46,21.917-1.656,3.31-17.781,18.177-3.948,17.534-1.373-7.881 5.201-12.961 7.46-19.726 1.41-4.226 3.896-19.811 3.948-19.725" fill="none" stroke="#000" stroke-linecap="square" stroke-miterlimit="10" stroke-width=".75"/>
<path d="m304.387,77.901c4.839,4.807 7.021,3.903 7.021,10.521 0,2.985-.53,9.201-2.632,11.396-2.715,2.835-8.112,1.089-10.532,3.507-2.962,2.961-4.721,6.712-7.021,8.768-.695-7.797 5.317-11.423 11.409-14.467 6.655-3.325 3.601-13.347 1.755-19.725" fill-rule="evenodd"/>
<path d="m304.387,77.901c4.839,4.807 7.021,3.903 7.021,10.521 0,2.985-.53,9.201-2.632,11.396-2.715,2.835-8.112,1.089-10.532,3.507-2.962,2.961-4.721,6.712-7.021,8.768-.695-7.797 5.317-11.423 11.409-14.467 6.655-3.325 3.601-13.347 1.755-19.725" fill="none" stroke="#000" stroke-linecap="square" stroke-miterlimit="10" stroke-width=".75"/>
<path d="m304.387,77.901c4.839,4.807 7.021,3.903 7.021,10.521 0,2.985-.53,9.201-2.632,11.396-2.715,2.835-8.112,1.089-10.532,3.507-2.962,2.961-4.721,6.712-7.021,8.768-.695-7.797 5.317-11.423 11.409-14.467 6.655-3.325 3.601-13.347 1.755-19.725" fill="none" stroke="#000" stroke-linecap="square" stroke-miterlimit="10" stroke-width=".75"/>
<path d="m289.468,134.012c2.05-10.013 16.309-6.595 24.572-10.521-5.073,7.594-17.041,9.96-24.572,10.521" fill-rule="evenodd"/>
<path d="m289.468,134.012c2.05-10.013 16.309-6.595 24.572-10.521-5.073,7.594-17.041,9.96-24.572,10.521" fill="none" stroke="#000" stroke-linecap="square" stroke-miterlimit="10" stroke-width=".75"/>
<path d="m289.468,134.012c2.05-10.013 16.309-6.595 24.572-10.521-5.073,7.594-17.041,9.96-24.572,10.521" fill="none" stroke="#000" stroke-linecap="square" stroke-miterlimit="10" stroke-width=".75"/>
<path d="m295.612,119.984c-.13-8.085 17.645-14.365 22.817-20.166-1.065,6.848-8.044,7.453-10.092,13.59-2.667,7.987-7.282,1.484-12.725,6.576" fill-rule="evenodd"/>
<path d="m295.612,119.984c-.13-8.085 17.645-14.365 22.817-20.166-1.065,6.848-8.044,7.453-10.092,13.59-2.667,7.987-7.282,1.484-12.725,6.576" fill="none" stroke="#000" stroke-linecap="square" stroke-miterlimit="10" stroke-width=".75"/>
<path d="m295.612,119.984c-.13-8.085 17.645-14.365 22.817-20.166-1.065,6.848-8.044,7.453-10.092,13.59-2.667,7.987-7.282,1.484-12.725,6.576" fill="none" stroke="#000" stroke-linecap="square" stroke-miterlimit="10" stroke-width=".75"/>
<path d="m325.448,62.12c-1.505-1.217-2.692-2.652-3.511-4.384 8.511,1.737 10.912-8.889 5.267-14.027 8.597,2.685 8.696,18.078-1.756,18.411" fill-rule="evenodd"/>
<path d="m325.448,62.12c-1.505-1.217-2.692-2.652-3.511-4.384 8.511,1.737 10.912-8.889 5.267-14.027 8.597,2.685 8.696,18.078-1.756,18.411" fill="none" stroke="#000" stroke-linecap="square" stroke-miterlimit="10" stroke-width=".75"/>
<path d="m325.448,62.12c-1.505-1.217-2.692-2.652-3.511-4.384 8.511,1.737 10.912-8.889 5.267-14.027 8.597,2.685 8.696,18.078-1.756,18.411" fill="none" stroke="#000" stroke-linecap="square" stroke-miterlimit="10" stroke-width=".75"/>
<path d="m337.734,50.723c15.429,5.193 1.652,26.28-3.51,17.534 10.521.125 6.524-12.623 3.51-17.534" fill-rule="evenodd"/>
<path d="m337.734,50.723c15.429,5.193 1.652,26.28-3.51,17.534 10.521.125 6.524-12.623 3.51-17.534" fill="none" stroke="#000" stroke-linecap="square" stroke-miterlimit="10" stroke-width=".75"/>
<path d="m337.734,50.723c15.429,5.193 1.652,26.28-3.51,17.534 10.521.125 6.524-12.623 3.51-17.534" fill="none" stroke="#000" stroke-linecap="square" stroke-miterlimit="10" stroke-width=".75"/>
<path d="m348.266,56.86c7.771,5.826 10.412,27.344-2.633,19.288 9.404-3.801 4.908-12.025 2.633-19.288" fill-rule="evenodd"/>
<path d="m348.266,56.86c7.771,5.826 10.412,27.344-2.633,19.288 9.404-3.801 4.908-12.025 2.633-19.288" fill="none" stroke="#000" stroke-linecap="square" stroke-miterlimit="10" stroke-width=".75"/>
<path d="m348.266,56.86c7.771,5.826 10.412,27.344-2.633,19.288 9.404-3.801 4.908-12.025 2.633-19.288" fill="none" stroke="#000" stroke-linecap="square" stroke-miterlimit="10" stroke-width=".75"/>
<path d="m361.43,64.75c5.126,3.977 6.554,14.681.875,20.165-1.521-.576-4.683-1.888-6.142-2.631 5.894-4.9 6.715-10.383 5.267-17.534" fill-rule="evenodd"/>
<path d="m361.43,64.75c5.126,3.977 6.554,14.681.875,20.165-1.521-.576-4.683-1.888-6.142-2.631 5.894-4.9 6.715-10.383 5.267-17.534" fill="none" stroke="#000" stroke-linecap="square" stroke-miterlimit="10" stroke-width=".75"/>
<path d="m361.43,64.75c5.126,3.977 6.554,14.681.875,20.165-1.521-.576-4.683-1.888-6.142-2.631 5.894-4.9 6.715-10.383 5.267-17.534" fill="none" stroke="#000" stroke-linecap="square" stroke-miterlimit="10" stroke-width=".75"/>
<path d="m371.959,70.887c8.348.84 4.388,11.829 4.388,18.412-8.612.21-7.16-13.689-4.388-18.412" fill-rule="evenodd"/>
<path d="m371.959,70.887c8.348.84 4.388,11.829 4.388,18.412-8.612.21-7.16-13.689-4.388-18.412" fill="none" stroke="#000" stroke-linecap="square" stroke-miterlimit="10" stroke-width=".75"/>
<path d="m371.959,70.887c8.348.84 4.388,11.829 4.388,18.412-8.612.21-7.16-13.689-4.388-18.412" fill="none" stroke="#000" stroke-linecap="square" stroke-miterlimit="10" stroke-width=".75"/>
<path d="m381.613,71.764c1.613-1.081 3.551-1.774 5.266-2.63-2.107,3.59 13.141,24.416-5.266,21.041 6.453-6.6-3.929-10.708 0-18.411" fill-rule="evenodd"/>
<path d="m381.613,71.764c1.613-1.081 3.551-1.774 5.266-2.63-2.107,3.59 13.141,24.416-5.266,21.041 6.453-6.6-3.929-10.708 0-18.411" fill="none" stroke="#000" stroke-linecap="square" stroke-miterlimit="10" stroke-width=".75"/>
<path d="m381.613,71.764c1.613-1.081 3.551-1.774 5.266-2.63-2.107,3.59 13.141,24.416-5.266,21.041 6.453-6.6-3.929-10.708 0-18.411" fill="none" stroke="#000" stroke-linecap="square" stroke-miterlimit="10" stroke-width=".75"/>
<path d="m393.021,65.627c1.506-2.483 3.782-4.494 6.144-6.137-.361,8.22 7.247,6.622 8.774,13.151 1.208,5.167-5.277,8.283-7.896,11.397 4.399-8.76-7.8-9.106-7.022-18.411" fill-rule="evenodd"/>
<path d="m393.021,65.627c1.506-2.483 3.782-4.494 6.144-6.137-.361,8.22 7.247,6.622 8.774,13.151 1.208,5.167-5.277,8.283-7.896,11.397 4.399-8.76-7.8-9.106-7.022-18.411" fill="none" stroke="#000" stroke-linecap="square" stroke-miterlimit="10" stroke-width=".75"/>
<path d="m393.021,65.627c1.506-2.483 3.782-4.494 6.144-6.137-.361,8.22 7.247,6.622 8.774,13.151 1.208,5.167-5.277,8.283-7.896,11.397 4.399-8.76-7.8-9.106-7.022-18.411" fill="none" stroke="#000" stroke-linecap="square" stroke-miterlimit="10" stroke-width=".75"/>
<path d="m401.795,55.983c.737-1.922 2.377-3.561 3.511-5.26 3.451,3.29 7.974.036 12.287,2.191 4.876,2.437-2.29,11.679-3.512,14.466 2.291-9.44-9.35-3.676-12.286-11.397" fill-rule="evenodd"/>
<path d="m401.795,55.983c.737-1.922 2.377-3.561 3.511-5.26 3.451,3.29 7.974.036 12.287,2.191 4.876,2.437-2.29,11.679-3.512,14.466 2.291-9.44-9.35-3.676-12.286-11.397" fill="none" stroke="#000" stroke-linecap="square" stroke-miterlimit="10" stroke-width=".75"/>
<path d="m401.795,55.983c.737-1.922 2.377-3.561 3.511-5.26 3.451,3.29 7.974.036 12.287,2.191 4.876,2.437-2.29,11.679-3.512,14.466 2.291-9.44-9.35-3.676-12.286-11.397" fill="none" stroke="#000" stroke-linecap="square" stroke-miterlimit="10" stroke-width=".75"/>
<path d="m407.062,48.093c5.405-7.185 14.345-7.842 14.041,3.506-2.753-6.624-8.404-3.21-14.041-3.506" fill-rule="evenodd"/>
<path d="m407.062,48.093c5.405-7.185 14.345-7.842 14.041,3.506-2.753-6.624-8.404-3.21-14.041-3.506" fill="none" stroke="#000" stroke-linecap="square" stroke-miterlimit="10" stroke-width=".75"/>
<path d="m407.062,48.093c5.405-7.185 14.345-7.842 14.041,3.506-2.753-6.624-8.404-3.21-14.041-3.506" fill="none" stroke="#000" stroke-linecap="square" stroke-miterlimit="10" stroke-width=".75"/>
<path d="m110.446,30.558c-9.351,4.144-13.396,22.961-13.164,33.315 7.685-4.344 1.66-10.633 3.511-16.657 .693-2.258 4.235-3.211 5.266-5.26 1.896-3.77 2.145-7.878 4.387-11.398" fill-rule="evenodd"/>
<path d="m110.446,30.558c-9.351,4.144-13.396,22.961-13.164,33.315 7.685-4.344 1.66-10.633 3.511-16.657 .693-2.258 4.235-3.211 5.266-5.26 1.896-3.77 2.145-7.878 4.387-11.398" fill="none" stroke="#000" stroke-linecap="square" stroke-miterlimit="10" stroke-width=".75"/>
<path d="m110.446,30.558c-9.351,4.144-13.396,22.961-13.164,33.315 7.685-4.344 1.66-10.633 3.511-16.657 .693-2.258 4.235-3.211 5.266-5.26 1.896-3.77 2.145-7.878 4.387-11.398" fill="none" stroke="#000" stroke-linecap="square" stroke-miterlimit="10" stroke-width=".75"/>
<path d="m80.608,36.695c.124-2.327.833-3.448 1.755-5.26 4.161,2.1 6.44,2.395 9.653,6.137-4.274-2.343-8.12-4.822-11.408-.877" fill-rule="evenodd"/>
<path d="m80.608,36.695c.124-2.327.833-3.448 1.755-5.26 4.161,2.1 6.44,2.395 9.653,6.137-4.274-2.343-8.12-4.822-11.408-.877" fill="none" stroke="#000" stroke-linecap="square" stroke-miterlimit="10" stroke-width=".75"/>
<path d="m80.608,36.695c.124-2.327.833-3.448 1.755-5.26 4.161,2.1 6.44,2.395 9.653,6.137-4.274-2.343-8.12-4.822-11.408-.877" fill="none" stroke="#000" stroke-linecap="square" stroke-miterlimit="10" stroke-width=".75"/>
<path d="m52.526,38.449c-3.203-2.812-7.012-2.361-10.53-.877 1.535-6.09 9.86-5.013 10.53.877" fill-rule="evenodd"/>
<path d="m52.526,38.449c-3.203-2.812-7.012-2.361-10.53-.877 1.535-6.09 9.86-5.013 10.53.877" fill="none" stroke="#000" stroke-linecap="square" stroke-miterlimit="10" stroke-width=".75"/>
<path d="m52.526,38.449c-3.203-2.812-7.012-2.361-10.53-.877 1.535-6.09 9.86-5.013 10.53.877" fill="none" stroke="#000" stroke-linecap="square" stroke-miterlimit="10" stroke-width=".75"/>
<path d="m49.894,33.188c.955-.474 1.551-.891 2.632-.876-2.908-4.485-7.934-6.32-10.53-.877 3.72-1.768 5.493-.218 7.898,1.753" fill-rule="evenodd"/>
<path d="m49.894,33.188c.955-.474 1.551-.891 2.632-.876-2.908-4.485-7.934-6.32-10.53-.877 3.72-1.768 5.493-.218 7.898,1.753" fill="none" stroke="#000" stroke-linecap="square" stroke-miterlimit="10" stroke-width=".75"/>
<path d="m49.894,33.188c.955-.474 1.551-.891 2.632-.876-2.908-4.485-7.934-6.32-10.53-.877 3.72-1.768 5.493-.218 7.898,1.753" fill="none" stroke="#000" stroke-linecap="square" stroke-miterlimit="10" stroke-width=".75"/>
<path d="m69.201,35.819c-3.224-3.94-5.282-1.507-6.143,2.63 2.155-2.778 3.283-1.81 6.143-2.63" fill-rule="evenodd"/>
<path d="m69.201,35.819c-3.224-3.94-5.282-1.507-6.143,2.63 2.155-2.778 3.283-1.81 6.143-2.63" fill="none" stroke="#000" stroke-linecap="square" stroke-miterlimit="10" stroke-width=".75"/>
<path d="m69.201,35.819c-3.224-3.94-5.282-1.507-6.143,2.63 2.155-2.778 3.283-1.81 6.143-2.63" fill="none" stroke="#000" stroke-linecap="square" stroke-miterlimit="10" stroke-width=".75"/>
<path d="m66.568,28.805c-5.7-.674-10.342,4.748-6.143,8.767 .066-4.125 2.444-7.44 6.143-8.767" fill-rule="evenodd"/>
<path d="m66.568,28.805c-5.7-.674-10.342,4.748-6.143,8.767 .066-4.125 2.444-7.44 6.143-8.767" fill="none" stroke="#000" stroke-linecap="square" stroke-miterlimit="10" stroke-width=".75"/>
<path d="m66.568,28.805c-5.7-.674-10.342,4.748-6.143,8.767 .066-4.125 2.444-7.44 6.143-8.767" fill="none" stroke="#000" stroke-linecap="square" stroke-miterlimit="10" stroke-width=".75"/>
<path d="m63.058,27.051c-5.322-2.692-8.543,1.008-6.144,6.137-.039-4.13 1.926-6.317 6.144-6.137" fill-rule="evenodd"/>
<path d="m63.058,27.051c-5.322-2.692-8.543,1.008-6.144,6.137-.039-4.13 1.926-6.317 6.144-6.137" fill="none" stroke="#000" stroke-linecap="square" stroke-miterlimit="10" stroke-width=".75"/>
<path d="m63.058,27.051c-5.322-2.692-8.543,1.008-6.144,6.137-.039-4.13 1.926-6.317 6.144-6.137" fill="none" stroke="#000" stroke-linecap="square" stroke-miterlimit="10" stroke-width=".75"/>
<path d="m25.322,45.462c-4.022-1.118-7.28-4.267-10.531-7.013 2.451,4.176 5.326,11.676 10.531,7.013" fill-rule="evenodd"/>
<path d="m25.322,45.462c-4.022-1.118-7.28-4.267-10.531-7.013 2.451,4.176 5.326,11.676 10.531,7.013" fill="none" stroke="#000" stroke-linecap="square" stroke-miterlimit="10" stroke-width=".75"/>
<path d="m25.322,45.462c-4.022-1.118-7.28-4.267-10.531-7.013 2.451,4.176 5.326,11.676 10.531,7.013" fill="none" stroke="#000" stroke-linecap="square" stroke-miterlimit="10" stroke-width=".75"/>
<path d="m75.343,34.942c-2.335-3.035-5.153-3.95-7.898-5.26 4.584-2.429 9.561.165 7.898,5.26" fill-rule="evenodd"/>
<path d="m75.343,34.942c-2.335-3.035-5.153-3.95-7.898-5.26 4.584-2.429 9.561.165 7.898,5.26" fill="none" stroke="#000" stroke-linecap="square" stroke-miterlimit="10" stroke-width=".75"/>
<path d="m75.343,34.942c-2.335-3.035-5.153-3.95-7.898-5.26 4.584-2.429 9.561.165 7.898,5.26" fill="none" stroke="#000" stroke-linecap="square" stroke-miterlimit="10" stroke-width=".75"/>
<path d="m77.098,30.558c-1.872-2.881-5.126-3.994-8.775-3.507 2.016-5.726 8.149-1.168 8.775,3.507" fill-rule="evenodd"/>
<path d="m77.098,30.558c-1.872-2.881-5.126-3.994-8.775-3.507 2.016-5.726 8.149-1.168 8.775,3.507" fill="none" stroke="#000" stroke-linecap="square" stroke-miterlimit="10" stroke-width=".75"/>
<path d="m77.098,30.558c-1.872-2.881-5.126-3.994-8.775-3.507 2.016-5.726 8.149-1.168 8.775,3.507" fill="none" stroke="#000" stroke-linecap="square" stroke-miterlimit="10" stroke-width=".75"/>
<path d="m37.607,28.805c-5.903,6.28-21.396,5.027-29.836,3.507 10.439,0 19.524-4.681 29.836-3.507" fill-rule="evenodd"/>
<path d="m37.607,28.805c-5.903,6.28-21.396,5.027-29.836,3.507 10.439,0 19.524-4.681 29.836-3.507" fill="none" stroke="#000" stroke-linecap="square" stroke-miterlimit="10" stroke-width=".75"/>
<path d="m37.607,28.805c-5.903,6.28-21.396,5.027-29.836,3.507 10.439,0 19.524-4.681 29.836-3.507" fill="none" stroke="#000" stroke-linecap="square" stroke-miterlimit="10" stroke-width=".75"/>
<path d="m92.017,40.202c6.231,3.195 4.967,10.23.877,14.904-2.473-4.081 2.068-9.82-.877-14.904" fill-rule="evenodd"/>
<path d="m92.017,40.202c6.231,3.195 4.967,10.23.877,14.904-2.473-4.081 2.068-9.82-.877-14.904" fill="none" stroke="#000" stroke-linecap="square" stroke-miterlimit="10" stroke-width=".75"/>
<path d="m92.017,40.202c6.231,3.195 4.967,10.23.877,14.904-2.473-4.081 2.068-9.82-.877-14.904" fill="none" stroke="#000" stroke-linecap="square" stroke-miterlimit="10" stroke-width=".75"/>
<path d="m191.182,133.135c-1.683.999-3.314,2.47-4.387,3.507 3.903.754 3.013-1.035 4.387-3.507" fill="#fdff98" fill-rule="evenodd"/>
<path d="m191.182,133.135c-1.683.999-3.314,2.47-4.387,3.507 3.903.754 3.013-1.035 4.387-3.507" fill="none" stroke="#000" stroke-linecap="square" stroke-miterlimit="10" stroke-width=".75"/>
<path d="m191.182,133.135c-1.683.999-3.314,2.47-4.387,3.507 3.903.754 3.013-1.035 4.387-3.507" fill="none" stroke="#000" stroke-linecap="square" stroke-miterlimit="10" stroke-width=".75"/>
</svg>
