<?xml version="1.0" encoding="UTF-8"?>
<svg width="31.409mm" height="31.939mm" version="1.1" viewBox="0 0 111.29298 113.16798" xmlns="http://www.w3.org/2000/svg" xmlns:xlink="http://www.w3.org/1999/xlink">
 <defs>
  <pattern id="e" xlink:href="#d" patternTransform="matrix(1.075 0 0 1.075 .078427 946.44)"/>
  <pattern id="d" width="10" height="10" patternTransform="translate(0) scale(10)" patternUnits="userSpaceOnUse">
   <circle cx="2.567" cy=".81" r=".45"/>
   <circle cx="3.048" cy="2.33" r=".45"/>
   <circle cx="4.418" cy="2.415" r=".45"/>
   <circle cx="1.844" cy="3.029" r=".45"/>
   <circle cx="6.08" cy="1.363" r=".45"/>
   <circle cx="5.819" cy="4.413" r=".45"/>
   <circle cx="4.305" cy="4.048" r=".45"/>
   <circle cx="5.541" cy="3.045" r=".45"/>
   <circle cx="4.785" cy="5.527" r=".45"/>
   <circle cx="2.667" cy="5.184" r=".45"/>
   <circle cx="7.965" cy="1.448" r=".45"/>
   <circle cx="7.047" cy="5.049" r=".45"/>
   <circle cx="4.34" cy=".895" r=".45"/>
   <circle cx="7.125" cy=".34" r=".45"/>
   <circle cx="9.553" cy="1.049" r=".45"/>
   <circle cx="7.006" cy="2.689" r=".45"/>
   <circle cx="8.909" cy="2.689" r=".45"/>
   <circle cx="9.315" cy="4.407" r=".45"/>
   <circle cx="7.82" cy="3.87" r=".45"/>
   <circle cx="8.27" cy="5.948" r=".45"/>
   <circle cx="7.973" cy="7.428" r=".45"/>
   <circle cx="9.342" cy="8.072" r=".45"/>
   <circle cx="8.206" cy="9.315" r=".45"/>
   <circle cx="9.682" cy="9.475" r=".45"/>
   <circle cx="9.688" cy="6.186" r=".45"/>
   <circle cx="3.379" cy="6.296" r=".45"/>
   <circle cx="2.871" cy="8.204" r=".45"/>
   <circle cx="4.59" cy="8.719" r=".45"/>
   <circle cx="3.181" cy="9.671" r=".45"/>
   <circle cx="5.734" cy="7.315" r=".45"/>
   <circle cx="6.707" cy="6.513" r=".45"/>
   <circle cx="5.73" cy="9.67" r=".45"/>
   <circle cx="6.535" cy="8.373" r=".45"/>
   <circle cx="4.37" cy="7.154" r=".45"/>
   <circle cx=".622" cy="7.25" r=".45"/>
   <circle cx=".831" cy="5.679" r=".45"/>
   <circle cx="1.257" cy="8.519" r=".45"/>
   <circle cx="1.989" cy="6.877" r=".45"/>
   <circle cx=".374" cy="3.181" r=".45"/>
   <circle cx="1.166" cy="1.664" r=".45"/>
   <circle cx="1.151" cy=".093" r=".45"/>
   <circle cx="1.151" cy="10.093" r=".45"/>
   <circle cx="1.302" cy="4.451" r=".45"/>
   <circle cx="3.047" cy="3.763" r=".45"/>
  </pattern>
  <radialGradient id="f" cx="19.175" cy="996.63" r="2.1882" gradientTransform="matrix(1.5251 -.52511 .27652 .8031 -285.65 206.29)" gradientUnits="userSpaceOnUse">
   <stop offset="0"/>
   <stop stop-color="#511609" offset="1"/>
  </radialGradient>
 </defs>
 <g transform="translate(2.5042 -942.9)" fill-rule="evenodd">
  <path d="m30.6 1005.5c0.22426 0.6219-1.2659 1.5868-1.9051 2.3814-1.4806-0.2657-3.4195-0.073-5.2391 0-1.6482-0.5248-2.2019 0.4826-2.9938 1.1567l2.2453 0.6123c-2.3366 0.5896-3.8551 1.361-4.5587 2.3134l4.7628-0.3402c-1.7245 1.2087-2.24 2.0721-2.7216 2.9257 1.7936-0.2365 3.4864-1.1783 5.4432-0.2721l-7.9607 7.4164c-2.457 1.7161-3.8471 3.2189-5.4432 4.7628-0.78234 0.4993-1.1889 1.7499-1.4288 3.334 1.0421 1.5474 1.3426 3.1772 3.8783 4.5587 3.5778 0.4538 7.0745 2.529 10.818-0.3402 2.5142-0.3183 3.3773-1.0495 7.8246-0.8845 4.1935 0.6713 8.5754 0.213 13.132-1.2928 1.9431-1.0522 4.0019-3.0297 5.7834-2.7897l7.7566 0.2042c4.1016-1.3208 7.0937-4.3057 10.138-7.2123 1.7519-0.3413 1.0417 1.2519 7.4164-2.7216 0.50513 0.095 1.1859-0.3372 1.3608 0.7484 0.20097 0.8747-2.0371 2.9691-3.1299 4.4907-0.13386 2.9609-0.23564 5.9378-1.4288 8.3689l-5.3752 4.6948c-0.8724 1.5344-1.7669 3.0522-1.2247 5.6474 1.9106-0.996 2.3074-1.5222 3.8754-1.7753 2.0163-0.3255 4.1567-2.0748 4.9018-1.7628-0.21714 2.5986-0.59213 5.3549-0.47628 7.6205l1.2928 4.0144c1.5843-1.8244 3.3469-3.1138 4.4226-6.4639 0.33062-1.1535 0.11102-2.1236 1.4288-3.6061 1.5196-0.1045 3.0391 1.6909 4.5587 2.7216 0.65662 1.6784 2.6795 3.3566 4.3546 5.035 0.38942-1.3622 0.8919-2.6341 0.40824-4.6948l-0.47628-2.1092 2.5175 0.4082 2.3814 1.2928c-0.81208-2.2453-1.6601-4.4907-3.5381-6.736l1.769-0.4083 3.1299 1.1567c0.10089-1.2773-1.5146-2.7692-2.7897-4.2185l-4.4907-2.0412-2.1093-2.1092c1.9651-2.6408 3.54-1.3801 5.9876-8.8453 0.40418-4.4726 1.1047-9.0193-1.2928-12.792l-5.3071-4.5587 4.4226-5.171c0.98956-1.2723 0.88798-3.4174 1.0206-5.3752 0.20658 0.48946 0.73391 1.2195 2.3814 2.7896l0.81648-3.9463c0.85056 1.0659 1.6209 2.2921 2.9938 2.3134 0.70106-0.50888 0.58499-1.9711 0.20412-3.7422l-0.6804-1.633c0.81882 0.20484 1.9553 0.50742 5.103 1.4288-0.9072-1.4515-0.89375-2.3791-2.7216-4.0144-1.8378-0.56924-3.6864-1.5107-5.1711-1.0206l0.81648-5.3752c-0.13215-1.4226-1.1729-2.5423-2.3814-3.6061-1.8653-0.42406-3.9226-0.41636-5.103-2.3814 1.2761-2.1006 0.03758-4.9557-0.3402-7.5525-0.37541-1.6544-0.51389-5.8786-2.9938-8.9813l-2.5175-0.27216c0.16489-1.1509 0.12362-2.3431-0.61236-3.6742-0.71474-0.97211-1.6284 0.0448-2.5175 0.81649-0.54971-1.5342 0.27724-2.7021-2.3814-3.2659l-2.8577 2.0412c-0.15427-1.4545-0.35658-2.877-2.1093-3.2659-0.93186-0.051-1.3888 1.8035-2.3134 1.9051-0.7004-1.2509-1.1509-2.823-3.0618-2.5175l-1.0886 2.3814-3.8103-2.3134-1.3608 2.4494c-1.379-1.8112-2.9863-3.5579-4.8989-3.9463 0.02401 1.3608 0.09416 2.7216-0.40824 4.0824-2.8185-1.4131-2.9938-3.3329-4.4907-3.0618 0.07207 1.9359-0.0763 3.0226-0.54432 3.8783-1.3213-1.7144-2.682-3.121-3.8783-3.402 0.70776 2.0193 0.19359 2.9912-0.3402 3.9463-1.2646-1.5124-2.709-1.7665-4.1505-2.0412 0.2662 1.3958 0.58669 2.7826-0.20412 4.3546-0.99457-1.7618-2.5614-2.1882-4.0824-2.7216l-1.701-0.068c1.6636 1.7237 2.707 3.4474 2.3814 5.1711l-2.7897-2.6536c-2.3769-0.58741-3.0106-0.30327-4.4226-0.40824l2.5855 3.9463-4.6948-1.701-1.769-0.13608 1.9051 3.7422c-3.583-1.3008-4.2694-1.285-6.0556-1.769l1.633 4.1505-6.8721-2.1092 1.701 4.2866c-4.5761-1.612-4.3621-1.8554-5.3752-2.4495l0.54432 3.8783c-1.7237-1.3189-3.4474-2.2179-5.1711-2.4494l-1.2247 2.7897-4.0144-1.9732-0.95257 2.5855-2.8734-0.17553c8.33e-4 1.6359 0.39048 2.9997 2.3501 4.6356l8.5804 2.0042 6.7357 2.1169 10.969-0.96223 8.4677-6.7357 7.1205-1.5396 7.1205-1.732 9.6224-0.3849c1.5886 0.50962 3.3594 0.29032 4.6187 2.1169l-1.1547 2.3094-2.3094 1.3471-4.8112-1.5396c-1.9697 0.25604-3.453 0.99848-4.5157 2.1616-1.0584 1.2681-1.8719 2.5362-2.0275 3.8042-3.4191 2.0416-4.8573 3.885-6.5315 5.7521-2.7079 3.5353-4.3026 7.0706-5.0153 10.606l-4.6187 0.19245-3.6565 3.6565-6.5432 1.5396c-0.81838-1.325-2.7436-2.5117-5.0036-3.6565-1.9397-1.0689-3.5678-0.73504-5.1494-0.19245l-3.3183 2.6943c-1.5817 0.12977-2.6028 1.5208-3.464 3.2715-0.50732 1.0035-2.8695 1.1414-0.96224 3.2716 1.7033 0.7266 1.9642 2.0079 5.7734 1.9245 1.6312 0.9148 3.5195 1.7127 7.1205 1.732l3.0792 0.3849c-0.06542-1.2314 1.6257-1.8772 3.1344-2.5839 1.1331 0.5605 2.9537-0.025 3.117 2.1516z" fill="#00800b" stroke="#f00" stroke-width=".38574"/>
  <path d="m70.313 1037.1c-2.3169 0.6937-3.6981 6.0784-2.199 5.8836 1.9179-1.025 3.1016-1.5393 4.5274-1.8562-0.44775-1.9627-0.88699-3.3879-2.3284-4.0274z" fill="#efe6ce" stroke="#d45500" stroke-width=".35433"/>
  <path d="m93.559 992.98 2.49 2.8954 0.61872-3.9775c-0.48187-0.28416-0.80533-0.72673-1.591-0.7071-1.1521 0.38103-1.3434 1.0823-1.5178 1.7892z" fill="#efe6ce" stroke="#f60" stroke-width=".35433"/>
  <path d="m52.375 1017.6c2.4718-0.6805 3.7498-2.9127 4.5625-5.75 4.3125 4.0848 7.8125 8.5378 12.938 5.75 0.55026-0.7394 1.3306-1.3449 1.5786-2.2095 0.39595-1.3803 0.11284-2.9373 0.48388-3.103-0.12646 0.7484 0.89002 3.2812 1.3158 3.7094 2.3398-0.741 6.5394-0.01 8.0343 0.9874-0.81035 1.0719-0.97981 2.0495-1.8501 2.5532-0.87978-0.347-2.9727-0.2302-4.8056 1.0825-1.959 1.4029-3.2877 1.4497-4.2569 1.23-3.2168 3.49-6.5549 5.6466-9.9375 7.3125l-8.0625-0.3125-6.0625 2.875-10.188 1.875-4.875-0.625c-0.21755-0.7311 1.2614-1.745 1.9375-2.625l1.9375-0.375 2.25-1.875 3.625-0.5c1.9583-0.3498 4.2292-1.1296 6.25-3.0625l1-2.0625c0.80598-0.2904 1.7175-0.2643 2.375-1 0.66393-0.8887 1.2527-2.1531 1.75-3.875z" fill="#005f08"/>
  <path d="m17.625 1028.6c0.91453-1.8446 1.9529-3.6979 5.125-6.1875l7.8125-5.625c1.4616-0.9718 1.605-1.6303 4.25-2.75 0.9689-1.1326 0.8542-4.8958 1.125-7.25 3.0084 0.099 4.2872-0.7449 5.5-1.625 2.9219 1.0001 5.6402 1.4572 8.0625 1.125l0.625 2.9375-1.4375 3.625-3.6875 4.875c-4.0648 1.3513-4.7395 3.3009-6.125 5.125l-2.5 1.375c-2.795-0.8987-4.181 0.4923-5.6875 1.6875l-2.25 0.125c-1.3631 0.1786-2.6779 0.4054-3.875 0.75-0.40598 1.3189-1.071 2.4824-3.125 2.8125-1.6591 0.5402-2.8159-0.05-3.8125-1z" fill="#5f0010"/>
  <path d="m31.289 1005.1-2.5633 2.5633-5.8336 0.088c-2.1726 0.5303-2.0011 1.0607-2.9168 1.591 1.6716-0.066 2.6411 0.1017 3.6239 0.2651-2.0209 0.5139-4.121 0.5531-5.922 2.3865l5.4801-0.4419c-1.1068 0.9745-2.8252 1.4903-3.0936 3.0936 3.0891-0.7987 4.4168-0.5405 6.4523-0.7071 2.0615-0.8411 3.7419-2.2537 4.8614-4.5078z" fill="#005f08"/>
  <path d="m76.375 1002.5c2.8413-1.1221 4.4448-0.8298 8.75-3.625 1.8744-1.2438 3.3573-2.8632 4.529-4.9268l0.13258-5.0303c0.59931-1.2247 1.1473-2.4494 1.0518-3.6742l2.2866 4.5063c0.125 2.0833-0.0305 4.7277 0.375 6.25-0.54397 1.8884-1.2448 3.5573-2.375 4.625-0.84647 1.2873-1.9748 2.0108-3.0442 2.8523l-6.2058-1.3523c-2.7105-0.3623-3.7296 0.215-5.5 0.375z" fill="#005f08"/>
  <path d="m55.508 964.24c4.5962-2.2686 11.835-0.40165 14.407-6.1872 1.3886-1.1103 1.5161 0.55365 1.7678 1.9446l-1.4142 3.7123v1.5026c-0.90912 1.4732-1.8132 2.9639-3.182 2.8284 0.05529-0.67946 1.0257-0.90134-0.17678-2.2097-2.8407-1.6248-4.7821-1.6311-6.4523-1.149z" fill="#005f08"/>
  <path d="m43.222 955.31c0.5809-0.50903 1.1526-1.0593 1.5026-2.6075 1.0718-0.42423 1.8856 0.44194 2.8284 0.66291 0.63513-0.39607 1.4239-0.63853 1.5026-1.591 1.4577 0.036 1.8316 0.93891 2.74 1.4142 0.63859-0.84178 1.2064-0.88086 1.3258-2.5191 1.2374-0.30146 2.4749 1.0302 3.7123 1.5468 0.67764-0.69301 1.1343-0.81281 1.812-2.3423 1.641 0.18426 2.3278 1.5612 3.4913 2.3423 0.65919-0.21089 1.264-0.48975 1.4584-1.2816 0.71977-0.76596 2.3865 0.67764 3.5797 1.0165 1.0014-0.0721 1.9966-0.14793 2.0771-0.7955 0.12401-0.71492 1.6205 0.76603 2.4307 1.149 1.8659-1.8462 2.4876 0.66242 3.7123 1.0607 2.7628 0.79545 1.8395 1.445-0.46999 2.5381-1.8314 0.33195-1.2736 3.6274-4.53 1.8055-1.1394 0.94756-1.5583-1.2359-2.6014-2.399l-1.149 1.3258c-1.2976-0.95508-2.7004-2.9628-3.8891-2.8284l-0.7955 2.0329c-1.2442-1.0177-2.502-2.0082-3.9775-2.5633-0.53033-0.025-1.0607-0.18099-1.591 0.35356l0.17678 2.2981-3.182-1.6794c-1.0892-0.37429-1.9009-0.3323-2.5191 0 0.42083 0.67764 0.98314 1.3553 1.1932 2.0329-1.8115-0.60621-3.5619-1.518-5.4801-1.591l-1.0607 2.9168c-0.76603-0.46064-1.5321-0.91758-2.2981-2.2981z" fill="#005f08"/>
  <path d="m87.151 967.47c1.4452 1.2331 0.49506 4.1961-0.08839 6.8943l3.182-1.0165c0.91179-1.7283-0.20328-4.3779-0.44194-6.6291-0.31846-2.6685-0.83066-4.7559-1.5026-6.364l-1.0607 3.0936c0.19028 0.86366 0.13414 3.1658-0.08839 4.0217z" fill="#005f08"/>
  <path d="m40.747 990.76c0.95231 1.0103 3.0115-0.26951 5.0381 1.2374 1.1066-1.4107 2.4441-2.3597 4.9497-0.97227 0.24134-0.77397-0.11631-1.7476 2.1213-1.8562l-0.17678-3.4471 2.0329-2.2981s-3.6568 3.5184-5.8336 4.773c-2.5365 1.4619-8.1317 2.5633-8.1317 2.5633z" fill="#005f08"/>
  <path d="m53.387 972.72c-0.4429 0.76722-0.38356 0.93332-0.60341 2.0635 2.5881-0.78349 5.3257-0.98512 6.5254-0.64928 0.12634-0.92593 1.8946-0.86671 3.0936-1.149l0.88388-2.4749s-2.6499 1.6881-3.8891 2.0329c-2.082 0.57931-6.0104 0.17677-6.0104 0.17677z" fill="#005f08"/>
  <path d="m76.136 1043.7c-0.21234 2.8815 0.2309 5.021 1.3517 7.5692 1.2705-1.7364 2.9764-2.711 3.6543-5.4845 0.41775-1.1918-0.47186-2.2384-1.5329-3.2659-0.95341 0.036-1.8725 0.012-3.473 1.1812z" fill="#efe6ce" stroke="#f60" stroke-width=".35433"/>
  <path d="m86.65 983.35c0.20396 1.0579 0.31612 2.419-1.0369 2.7983-0.01274 1.0241 0.30126 2.2071-0.26199 2.7726-0.40497 0.40659-1.5563 0.42564-2.1138 0.53145-0.19704 0.76221-0.14017 1.5623-0.31043 2.3261-0.14357 0.64412-1.1825 0.59757-1.6882 0.55228-0.32386 0.8334-0.63208 2.0156-1.0829 2.2213-0.63021 0.28759-1.8588 0.15962-2.5105 0.40938-0.05113 0.66111-0.07854 1.5848-0.83062 1.8024-0.84151 0.24351-1.7604 9e-3 -2.5969 0.31321 2.2385 0.87442 2.7101 0.72302 3.7038 0.36444 0.60666-0.2189 0.48063-1.1535 0.77305-1.5619 0.95904-0.1056 1.9579-0.29931 2.6788-1.0544 0.48173-0.50461 0.39867-0.9566 0.57228-1.562 0.4846-5e-3 1.5338-0.18893 1.7909-0.54584 0.27242-0.37832 0.69139-1.5554 0.10491-2.7515 1.8858 0.21652 2.3853 0.25057 2.7503-1.2379 0.15329-0.62519-0.07597-1.2894-0.43896-2.1594 0.57309-0.24245 1.1923-0.95481 1.1932-1.2656 0.0017-0.59567-0.26789-1.216-0.69589-1.9529z" color="#000000" color-rendering="auto" image-rendering="auto" shape-rendering="auto" solid-color="#000000" style="block-progression:tb;isolation:auto;mix-blend-mode:normal;text-decoration-color:#000000;text-decoration-line:none;text-decoration-style:solid;text-indent:0;text-transform:none;white-space:normal"/>
  <path d="m96.844 991.28c0.7445 2.0077 2.1404 2.5498 3.5355 3.0936-7e-3 -1.383 0.26676-2.8362-0.35356-4.0659l-0.97227-1.2374c-0.67138 0.042-1.1694 0.43063-1.6794 0.79549z" fill="#efe6ce" stroke="#f60" stroke-width=".35433"/>
  <g fill="url(#e)" opacity=".224">
   <path d="m52.375 1017.6c2.4718-0.6805 3.7498-2.9127 4.5625-5.75 4.3125 4.0848 7.8125 8.5378 12.938 5.75 0.55026-0.7394 1.3306-1.3449 1.5786-2.2095 0.39595-1.3803 0.11284-2.9373 0.48388-3.103-0.12646 0.7484 0.89002 3.2812 1.3158 3.7094 2.3398-0.741 6.5394-0.01 8.0343 0.9874-0.81035 1.0719-0.97981 2.0495-1.8501 2.5532-0.87978-0.347-2.9727-0.2302-4.8056 1.0825-1.959 1.4029-3.2877 1.4497-4.2569 1.23-3.2168 3.49-6.5549 5.6466-9.9375 7.3125l-8.0625-0.3125-6.0625 2.875-10.188 1.875-4.875-0.625c-0.21755-0.7311 1.2614-1.745 1.9375-2.625l1.9375-0.375 2.25-1.875 3.625-0.5c1.9583-0.3498 4.2292-1.1296 6.25-3.0625l1-2.0625c0.80598-0.2904 1.7175-0.2643 2.375-1 0.66393-0.8887 1.2527-2.1531 1.75-3.875z"/>
   <path d="m17.625 1028.6c0.91453-1.8446 1.9529-3.6979 5.125-6.1875l7.8125-5.625c1.4616-0.9718 1.605-1.6303 4.25-2.75 0.9689-1.1326 0.8542-4.8958 1.125-7.25 3.0084 0.099 4.2872-0.7449 5.5-1.625 2.9219 1.0001 5.6402 1.4572 8.0625 1.125l0.625 2.9375-1.4375 3.625-3.6875 4.875c-4.0648 1.3513-4.7395 3.3009-6.125 5.125l-2.5 1.375c-2.795-0.8987-4.181 0.4923-5.6875 1.6875l-2.25 0.125c-1.3631 0.1786-2.6779 0.4054-3.875 0.75-0.40598 1.3189-1.071 2.4824-3.125 2.8125-1.6591 0.5402-2.8159-0.05-3.8125-1z"/>
   <path d="m31.289 1005.1-2.5633 2.5633-5.8336 0.088c-2.1726 0.5303-2.0011 1.0607-2.9168 1.591 1.6716-0.066 2.6411 0.1017 3.6239 0.2651-2.0209 0.5139-4.121 0.5531-5.922 2.3865l5.4801-0.4419c-1.1068 0.9745-2.8252 1.4903-3.0936 3.0936 3.0891-0.7987 4.4168-0.5405 6.4523-0.7071 2.0615-0.8411 3.7419-2.2537 4.8614-4.5078z"/>
   <path d="m76.375 1002.5c2.8413-1.1221 4.4448-0.8298 8.75-3.625 1.8744-1.2438 3.3573-2.8632 4.529-4.9268l0.13258-5.0303c0.59931-1.2247 1.1473-2.4494 1.0518-3.6742l2.2866 4.5063c0.125 2.0833-0.0305 4.7277 0.375 6.25-0.54397 1.8884-1.2448 3.5573-2.375 4.625-0.84647 1.2873-1.9748 2.0108-3.0442 2.8523l-6.2058-1.3523c-2.7105-0.3623-3.7296 0.215-5.5 0.375z"/>
   <path d="m55.508 964.24c4.5962-2.2686 11.835-0.40165 14.407-6.1872 1.3886-1.1103 1.5161 0.55365 1.7678 1.9446l-1.4142 3.7123v1.5026c-0.90912 1.4732-1.8132 2.9639-3.182 2.8284 0.05529-0.67946 1.0257-0.90134-0.17678-2.2097-2.8407-1.6248-4.7821-1.6311-6.4523-1.149z"/>
   <path d="m43.222 955.31c0.5809-0.50903 1.1526-1.0593 1.5026-2.6075 1.0718-0.42423 1.8856 0.44194 2.8284 0.66291 0.63513-0.39607 1.4239-0.63853 1.5026-1.591 1.4577 0.036 1.8316 0.93891 2.74 1.4142 0.63859-0.84178 1.2064-0.88086 1.3258-2.5191 1.2374-0.30146 2.4749 1.0302 3.7123 1.5468 0.67764-0.69301 1.1343-0.81281 1.812-2.3423 1.641 0.18426 2.3278 1.5612 3.4913 2.3423 0.65919-0.21089 1.264-0.48975 1.4584-1.2816 0.71977-0.76596 2.3865 0.67764 3.5797 1.0165 1.0014-0.0721 1.9966-0.14793 2.0771-0.7955 0.12401-0.71492 1.6205 0.76603 2.4307 1.149 1.8659-1.8462 2.4876 0.66242 3.7123 1.0607 2.7628 0.79545 1.8395 1.445-0.46999 2.5381-1.8314 0.33195-1.2736 3.6274-4.53 1.8055-1.1394 0.94756-1.5583-1.2359-2.6014-2.399l-1.149 1.3258c-1.2976-0.95508-2.7004-2.9628-3.8891-2.8284l-0.7955 2.0329c-1.2442-1.0177-2.502-2.0082-3.9775-2.5633-0.53033-0.025-1.0607-0.18099-1.591 0.35356l0.17678 2.2981-3.182-1.6794c-1.0892-0.37429-1.9009-0.3323-2.5191 0 0.42083 0.67764 0.98314 1.3553 1.1932 2.0329-1.8115-0.60621-3.5619-1.518-5.4801-1.591l-1.0607 2.9168c-0.76603-0.46064-1.5321-0.91758-2.2981-2.2981z"/>
   <path d="m87.151 967.47c1.4452 1.2331 0.49506 4.1961-0.08839 6.8943l3.182-1.0165c0.91179-1.7283-0.20328-4.3779-0.44194-6.6291-0.31846-2.6685-0.83066-4.7559-1.5026-6.364l-1.0607 3.0936c0.19028 0.86366 0.13414 3.1658-0.08839 4.0217z"/>
   <path d="m40.747 990.76c0.95231 1.0103 3.0115-0.26951 5.0381 1.2374 1.1066-1.4107 2.4441-2.3597 4.9497-0.97227 0.24134-0.77397-0.11631-1.7476 2.1213-1.8562l-0.17678-3.4471 2.0329-2.2981s-3.6568 3.5184-5.8336 4.773c-2.5365 1.4619-8.1317 2.5633-8.1317 2.5633z"/>
   <path d="m53.387 972.72c-0.4429 0.76722-0.38356 0.93332-0.60341 2.0635 2.5881-0.78349 5.3257-0.98512 6.5254-0.64928 0.12634-0.92593 1.8946-0.86671 3.0936-1.149l0.88388-2.4749s-2.6499 1.6881-3.8891 2.0329c-2.082 0.57931-6.0104 0.17677-6.0104 0.17677z"/>
  </g>
  <path d="m88.182 1044.7c1.2842 1.8276 2.5683 3.19 3.8525 4.1846 0.64694-1.0231 0.74299-2.5052 0.39016-4.3614-0.08537-1.4761-0.76071-2.3623-1.5026-3.1819-0.80013-0.093-1.0873 0.3269-1.591 0.5303-0.58799 0.5328-1.3535 0.7107-1.149 2.8284z" fill="#efe6ce" stroke="#f60" stroke-width=".35433"/>
  <path d="m43.683 997.94c0.44379-0.55021 0.8346-1.0763 3.0625-2.4375 1.1768 0.0304 2.4525 0.35746 4.125 1.875l-3.5 2.125c-2.5537 0.20165-2.8579-0.82371-3.6875-1.5625z" fill="#fff" stroke="#f0f" stroke-width=".35433"/>
  <g transform="matrix(1.0886 0 0 1.0886 -3.5562 -86.592)" shape-rendering="auto">
   <path d="m56.279 997.27c1.3101 1.2187 3.1382 2.6743 3.2172 4.5843 0.03844 0.9287-0.93358 1.6246-1.4798 2.2762-0.06721 0.8993-0.24636 2.1298-0.73314 2.8824-0.71666 1.1079-1.8421 1.5924-2.1486 1.8341 0.14585 1.1432 0.50194 1.7512 0.29601 2.7659-0.19626 0.9671-0.94759 2.3482-1.1086 3.145-0.29153 1.4428-1.4751 3.4136-2.9011 3.2451-0.03106 1.0522-0.47955 1.7823-0.9334 2.5533-0.64429 1.0947-1.5413 1.8198-2.3141 2.411 1.9302-0.2927 3.4131-2.0507 3.8478-4.2559 0.90414 0.3234 1.6136-0.5852 2.1002-1.4674 0.44681-0.8101 0.81545-1.8168 1.1152-2.7143 0.55381-1.6583 1.4251-3.4405 0.74788-5.2419 0.7393-0.2107 1.7299-0.7637 2.2575-1.7812 0.48031-0.9263 0.52399-2.2905 0.67773-3.0994 0.90568-0.5191 1.5197-1.0856 1.5997-2.0051 0.14578-1.675-1.5198-3.7281-4.2405-5.1321z" color="#000000" color-rendering="auto" image-rendering="auto" solid-color="#000000" style="block-progression:tb;isolation:auto;mix-blend-mode:normal;text-decoration-color:#000000;text-decoration-line:none;text-decoration-style:solid;text-indent:0;text-transform:none;white-space:normal"/>
   <path d="m46.278 998.76c-0.98244 0.48597-2.0245 0.90306-3.1179 0.78703-0.42533-0.0451-0.84711-0.11677-1.2653-0.20453 1.0458 1.046 3.0195 1.2105 3.8739 0.8747 0.36128-0.142 0.6928-0.37405 1.5746-0.58632 1.7695-0.42592 3.4598 0.2593 4.3346-0.74159-0.77909-0.10719-1.4945 0.0273-2.4007-0.0849-0.90618-0.11218-2.0687-0.50475-2.9993-0.0444z" color="#000000" color-rendering="auto" image-rendering="auto" solid-color="#000000" style="block-progression:tb;isolation:auto;mix-blend-mode:normal;text-decoration-color:#000000;text-decoration-line:none;text-decoration-style:solid;text-indent:0;text-transform:none;white-space:normal"/>
  </g>
  <path d="m47.353 995.21c-0.77776-0.0584-1.4944 0.3411-2.1433 0.70804-0.84383 0.4772-1.6018 1.103-2.2602 1.8201-1.2081 1.3158-1.9324 1.2009-2.813 2.2304 1.1229-0.2464 2.543-0.7223 3.4998-1.3352 0.63876 0.8257 1.6113 1.4097 2.677 1.3438 1.788-0.1107 3.334-1.4278 4.2223-1.8545 0.8444-0.4056 1.7029-0.5029 1.9439-0.3866 1.1701 0.5647 1.7933 1.6035 3.1341 1.4352-1.162-0.754-1.7498-1.2884-2.8279-2.1986-0.29382-0.19458-1.0158-0.0894-1.314 0.0213-0.34282 0.12719-0.78378-0.14889-0.88665-0.28917-0.73779-1.0061-2.0161-1.4034-3.2319-1.4948zm-0.22538 0.84412c1.0508-0.17858 2.501 0.68076 3.1936 1.3034-1.0532 0.5325-2.6801 1.5336-3.8592 1.7201-0.79188 0.1253-1.5423-0.5825-1.9817-1.2226 0.88625-0.75853 1.6565-1.6325 2.6472-1.8009z" color="#000000" color-rendering="auto" fill="#052f00" image-rendering="auto" shape-rendering="auto" solid-color="#000000" style="block-progression:tb;isolation:auto;mix-blend-mode:normal;text-decoration-color:#000000;text-decoration-line:none;text-decoration-style:solid;text-indent:0;text-transform:none;white-space:normal"/>
  <path d="m12.193 998.64c-0.8795 0.6108-0.33896 0.5849-0.95009 1.4705-0.3051 0.453-0.7347 0.6688-0.76793 1.2192 0.04127 0.7297 0.55353 1.1119 1.0185 1.3333-0.41899-0.6096 0.69831-2.951 1.4146-3.1879 0.23216-0.2935 0.1513-1.0272 0.50124-1.374 0.40274-0.3992 1.2436-0.4075 1.5952-0.65352-1.4142-0.78801-1.7868-0.6117-2.8115 1.1924z" color="#000000" color-rendering="auto" image-rendering="auto" shape-rendering="auto" solid-color="#000000" style="block-progression:tb;isolation:auto;mix-blend-mode:normal;text-decoration-color:#000000;text-decoration-line:none;text-decoration-style:solid;text-indent:0;text-transform:none;white-space:normal"/>
  <g transform="matrix(1.0886 0 0 1.0886 -3.5562 -86.592)" shape-rendering="auto">
   <path d="m39.947 1009.3c-1.4516 0.2176-2.545 1.3501-3.3439 2.4934-1.1437 1.6366-2.3508 3.3004-4.0637 4.3843-0.60076 0.3802-1.2307 0.7097-1.8561 1.0461 1.3242 0.6304 3.7685-1.121 4.5825-1.9668 0.94141-0.9782 1.6566-2.1319 2.4777-3.2014 0.65582-0.8542 1.0947-1.3719 2.1928-1.7145 1.2481-0.3894 1.8131-0.4682 2.9346-0.5899-0.96554-0.206-1.9173-0.602-2.9239-0.4512z" color="#000000" color-rendering="auto" image-rendering="auto" solid-color="#000000" style="block-progression:tb;isolation:auto;mix-blend-mode:normal;text-decoration-color:#000000;text-decoration-line:none;text-decoration-style:solid;text-indent:0;text-transform:none;white-space:normal"/>
   <path d="m39.538 1013c-0.77278 0.5624-1.2086 1.3215-1.8152 2.0471-0.6182 0.7395-1.9041 2.0207-2.1471 2.9635 1.02-1.2486 1.6806-1.6081 2.7995-2.6082 0.4546-0.4063 1.1359-1.5316 1.6747-1.8496 0.69244-0.4086 1.53-0.3271 2.3031-0.5012-1.443-0.2019-2.0652-0.5973-2.8151-0.052z" color="#000000" color-rendering="auto" image-rendering="auto" solid-color="#000000" style="block-progression:tb;isolation:auto;mix-blend-mode:normal;text-decoration-color:#000000;text-decoration-line:none;text-decoration-style:solid;text-indent:0;text-transform:none;white-space:normal"/>
  </g>
  <g transform="matrix(1.0886 0 0 1.0886 -3.5562 -86.592)" shape-rendering="auto">
   <path d="m42.046 994.29c-0.48568 0.55245-1.468-0.11208-2.1297 0.23337-1.4526 0.75829-3.7612 1.2223-3.8314 1.648-0.04297 0.26065 0.93796 0.37146 1.3289 0.35527 1.2548-0.052 1.8495-1.2641 3.1666-1.1962 0.47834 0.0247 1.4684 0.57262 1.7919 0.2121 0.91198-1.0166 1.7112-2.3628 3.0344-2.7708 1.1999-0.36989 2.4188 0.50266 3.5678 0.92409 0.51066 0.18731 1.0224 0.84335 1.5363 0.66033 1.0558-0.37598 2.2052-0.56803 3.2862-0.11247 1.008 0.4248 1.9076 1.0294 2.9294 1.4262 0.85092 0.33046 1.7335 0.55439 2.6179 0.766-1.5214-1.0112-2.8487-1.8978-4.015-2.6665-0.56719-0.37384-1.2449-0.53378-1.8938-0.69975-0.97053-0.24823-1.9993-0.0795-2.9408 0.23151-1.3996-0.75753-2.8823-1.5268-4.4958-1.65-0.29215-9e-3 -0.58686 0.0167-1.3776 0.27441-0.79076 0.25771-1.6634 1.4018-2.5751 2.3644z" color="#000000" color-rendering="auto" image-rendering="auto" solid-color="#000000" style="block-progression:tb;isolation:auto;mix-blend-mode:normal;text-decoration-color:#000000;text-decoration-line:none;text-decoration-style:solid;text-indent:0;text-transform:none;white-space:normal"/>
   <path d="m68.473 954.92c-0.96561-0.21389-1.7981 0.19709-1.7754 0.9668 0.67294-0.42318 1.1093-0.5333 1.5563-0.4129 0.39912 0.10748 0.73844 0.97387 0.77569 1.4461 0.53786-0.19552 1.4071-0.22619 2.0294-0.0446 0.46851 0.13668 1.1721 0.26864 0.61401 1.1349 1.0897 0.57836 1.3634 0.33277 2.4346 1.3853-0.11518 0.39072-0.2716 0.9417-0.15138 1.1433 0.23046 0.38652 0.66351 0.14781 1.1468 0.40659 0.26675 0.45441-0.27299 1.1031-0.6489 1.2833 0.18891 0.19596 1.0726 1.0842 0.99353 1.2143-0.16686 0.27451-0.84952 0.32548-0.9311 0.99377-0.05997 0.49125 0.65416 1.4761 0.53425 1.7886-0.26904 0.70121-1.4997 0.67407-2.2005 1.1961-0.69078 0.51457-0.35445 1.8985-0.74762 2.2933-0.15076 0.15136-1.1141-4e-3 -1.5556 0.1731-1.2441 0.50043-1.1044 0.85331-1.595 1.6626-0.26644 0.14936-1.8033 0.4992-1.9495 0.62692-0.49525 0.43257-0.45248 0.82657-0.89799 1.7616-0.49681 0.14742-1.5772 0.21574-2.007 0.5219-0.82417 0.58705-0.84563 1.5467-0.92274 2.0947-0.63258 0.1002-1.8856 0.57264-2.202 0.90734-0.62549 0.66162-0.76628 1.6398-0.94812 2.3747-0.64706 0.23208-2.005 0.52674-2.4711 1.0664-0.38247 0.44277-0.35635 1.6748-0.26136 2.3184-0.80149 0.56506-1.2311 0.86048-1.761 2.0559-0.27229 0.61432-0.0042 2.1361 0.65221 3.139-0.04124-1.5134-0.50238-2.1043 0.20142-3.0134 0.52343-0.67608 1.215-1.287 1.9056-1.669-0.29112-0.73026-0.44257-1.8968 0.02168-2.3068 0.46506-0.41078 1.984-0.68968 2.5312-0.89437 0.35073-1.0008 0.22543-1.4045 0.7468-2.3169 0.53549-0.93717 1.5347-0.75121 2.2935-0.87749 0.09356-0.7093 0.11782-1.7057 0.67004-2.2388 0.34959-0.33748 1.723-0.53318 2.2383-0.55436 0.13765-0.70634 0.23402-1.3869 0.7306-1.7124 0.23447-0.15369 1.5894-0.57198 2.0488-0.53268 0.68936-0.61397 0.17643-1.0326 1.1848-1.514 0.71453-0.34107 2.2236 0.24415 2.5963-0.16176-0.14187-0.77333-0.20815-1.822 0.32708-2.3957 0.62354-0.66839 1.2387-0.83847 2.3004-1.4144 0.19129-0.5192-0.64265-1.4087-0.45557-1.9527 0.08322-0.24202 0.82212-0.81795 0.98976-1.2569 0.09194-0.24076-0.44095-0.98732-1.1193-1.1662 0.36494-0.53305 0.73973-1.2252 0.67225-1.6299-0.08465-0.50771-0.8914-0.53238-1.2648-0.80623 0.16392-0.64835 0.04661-1.2733-0.3667-1.5869-0.5719-0.4339-1.6015-0.28426-1.6345-0.75983 0.14486-0.51853-0.13952-0.96452-0.62858-1.2697-0.69896-0.43615-1.816-0.58469-2.6956-0.24627 0.01349-0.7839-0.42397-1.245-1.0039-1.2206z" color="#000000" color-rendering="auto" image-rendering="auto" solid-color="#000000" style="block-progression:tb;isolation:auto;mix-blend-mode:normal;text-decoration-color:#000000;text-decoration-line:none;text-decoration-style:solid;text-indent:0;text-transform:none;white-space:normal"/>
   <path d="m78.66 960.49c0.33708 0.55937 0.0025 1.7839 0.23452 2.0913 0.25696 0.22817 0.59897 0.79801 0.66587 1.0611 0.167 0.65678-0.39939 1.037-1.0932 1.4018 0.61241 0.71949 1.382 1.1403 1.3169 2.3419-0.09437 1.7426-2.1718 1.9188-2.7849 2.7182-0.84626 1.1035-0.16758 1.803 0.19794 2.6717-0.72501-0.0708-1.7395-0.40761-2.1931 0.46005-0.38187 0.73041-0.32552 1.6511 0.08678 2.3254-0.90287 0.15024-1.4294-0.64735-2.1603 0.53591-0.56433 0.9136-0.28826 1.4781 0.0091 2.0673-0.86966 0.0544-1.3506-0.9824-2.5011 0.26869-0.91285 0.99262-0.12819 1.9587 0.10581 2.5874-0.57719-0.2906-1.2894-0.98286-2.376 0.067-0.77683 0.75055-0.3802 1.219-0.08806 2.0597-0.76867-0.24625-1.4046-0.49362-2.4605 0.58572-0.95134 0.97246-0.82363 2.0819-0.54624 3.0351-0.56085-0.10386-2.1002-0.77412-2.8509-0.23377-0.89917 0.64723-1.0635 2.1591-0.60427 3.0275 0.34214-1.0802 0.58492-1.5237 1.0771-2.1557 0.60193-0.77298 2.083 5e-3 2.9513 0.0906 0.10342-1.1008-0.21195-2.8277 1.107-3.0556 0.88984-0.27197 1.1733-0.6293 1.9114-0.69164 0.09817-0.51889-0.3028-1.4071 0.0222-1.8422 0.383-0.51276 1.5312-0.51774 2.154-0.31682 0.63693 0.0162 0.06718-1.5632 0.42648-2.0819 0.57632-0.83197 1.0781-0.32776 2.3711-0.94336 0.07215-0.55843-0.15189-1.2267 0.1299-1.7205 0.23918-0.41917 1.5551-0.6502 2.1811-0.64433-0.52117-0.5868-0.41026-1.9677-0.15623-2.3376 0.37851-0.55113 1.5645-0.32528 2.1909-0.67212-0.47168-0.97419-0.57724-1.4986-0.12468-2.2998 0.33683-0.59631 1.1686-0.49447 1.8051-1.1762 0.64647-0.69248 1.2978-1.0226 1.1771-2.1124-0.16836-1.5196-0.54723-2.1878-1.1645-2.4778 0.4331-0.43629 1.0661-1.1288 1.0768-1.8261 0.0065-0.42384-0.21702-0.84941-0.85523-1.2202-1.2872-4.3217-2.9921-3.1076-3.4531-3.0388 1.2265 0.25633 1.7359 0.65709 2.2139 1.4503z" color="#000000" color-rendering="auto" image-rendering="auto" solid-color="#000000" style="block-progression:tb;isolation:auto;mix-blend-mode:normal;text-decoration-color:#000000;text-decoration-line:none;text-decoration-style:solid;text-indent:0;text-transform:none;white-space:normal"/>
   <path d="m51.024 978.12c-0.64692 0.59237-0.45368 1.67-0.4683 2.5525-0.79664 0.28437-1.7171 0.3831-2.1161 1.2054-0.20006 0.4123 0.0013 1.4762 0.19866 2.4331-0.80247 0.21982-1.9537 0.15187-2.2196 1.1637-0.23736 0.90323 0.2008 1.9008 0.82522 3.0793-0.23166-1.287-0.49028-2.0631-0.29676-2.813 0.25065-0.97134 1.5552-0.93655 2.1194-1.1788-0.10285-0.80037-0.27599-1.848 0.19564-2.5595 0.38242-0.57692 1.1457-0.71022 1.7146-1.0614-0.10662-0.89057 0.06949-1.6382 0.5794-2.2048 0.45059-0.50072 1.4843-0.60441 2.0396-0.78177 0.10312-0.91341 0.35487-1.7266 1.1381-2.1905 0.43906-0.26005 1.1504-0.36159 1.4041-0.18359-0.82994-0.76841-1.5887-0.36013-2.0967-0.0855-0.80435 0.43491-0.88433 1.3268-0.80857 2.0262-0.71974 0.0365-1.5735 0.017-2.2087 0.59864z" color="#000000" color-rendering="auto" image-rendering="auto" solid-color="#000000" style="block-progression:tb;isolation:auto;mix-blend-mode:normal;text-decoration-color:#000000;text-decoration-line:none;text-decoration-style:solid;text-indent:0;text-transform:none;white-space:normal"/>
   <path d="m58.379 989.12c-0.5131 0.0164-0.88823 0.55723-1.3887 0.55664-0.7699-9.1e-4 -1.5207-0.52172-2.2806-0.24606-0.5151 0.18686-0.84764 0.74248-1.3776 0.8652-0.74097 0.17158-1.5725-0.26378-2.2844 0.11555-0.52152 0.27786-0.93234 0.72458-1.2351 1.2243 1.0816-0.60333 1.8117-0.83957 2.3717-0.71132 0.55639 0.12743 1.0061 0.70627 1.5189 0.4477 0.63273-0.319 0.7818-1.3291 1.5464-1.2489 0.53673 0.0563 1.3237 0.76151 1.856 0.70006 0.32913-0.038 0.81599-0.77598 1.1374-0.89718 1.3189-0.49734 1.163-0.40575 2.2083-0.25735-0.62146-0.36978-1.3478-0.57174-2.0723-0.54864z" color="#000000" color-rendering="auto" image-rendering="auto" solid-color="#000000" style="block-progression:tb;isolation:auto;mix-blend-mode:normal;text-decoration-color:#000000;text-decoration-line:none;text-decoration-style:solid;text-indent:0;text-transform:none;white-space:normal"/>
   <path d="m86.141 986.72c-1.5112 2.0454-0.17674 3.9334-0.98633 5.791-0.80958 1.8576-2.333 2.9602-3.1113 3.5488l-2.1953 1.6602c2.777-0.65049 4.6734-2.007 5.7812-3.9082 0.62911-1.0796 0.17544-3.2503 0.3457-5.1953z" color="#000000" color-rendering="auto" image-rendering="auto" solid-color="#000000" style="block-progression:tb;isolation:auto;mix-blend-mode:normal;text-decoration-color:#000000;text-decoration-line:none;text-decoration-style:solid;text-indent:0;text-transform:none;white-space:normal"/>
  </g>
  <path d="m17.825 995.7 1.2374-0.79549c1.1133-0.18734 2.096 0.0171 2.74 1.2374l-0.08839 2.0329-2.0329-0.35356c-1.2382-0.55224-1.536-1.3396-1.8562-2.1213z" fill="url(#f)" stroke="#f0f" stroke-width=".35433"/>
  <path d="m17.37 995.57c-0.23606 0.87356 0.51879 1.103 1.1237 1.7437 0.93315 0.98827 1.4227 1.1782 2.9047 1.3177 0.99496 0.094 1.0611-0.5444 1.1486-1.3661 0.10085-0.94716-0.43226-1.7586-1.1803-2.3049-0.9902-0.72309-1.8435-0.45108-2.963-0.30144-0.57118 0.0763-0.87107 0.30948-1.0337 0.91115zm1.3149 0.20266c0.17966-0.49845 0.72959-0.16823 1.2149-0.16385 0.78503 8e-3 1.1323 0.36393 1.4664 1.1008 0.18662 0.4116-0.02822 0.54972-0.43224 0.75223-0.74851 0.37521-1.0489-0.0691-1.6636-0.60287-0.3462-0.30044-0.75498-0.61572-0.58537-1.0863z" color="#000000" color-rendering="auto" image-rendering="auto" shape-rendering="auto" solid-color="#000000" style="block-progression:tb;isolation:auto;mix-blend-mode:normal;text-decoration-color:#000000;text-decoration-line:none;text-decoration-style:solid;text-indent:0;text-transform:none;white-space:normal"/>
  <path d="m48.525 997.47c-3e-6 0.66327-0.46692 1.2349-1.1168 1.3672s-1.3032-0.2111-1.5625-0.8215c-0.25937-0.61047-0.05317-1.3191 0.49323-1.6951 0.5464-0.37596 1.282-0.31533 1.7594 0.14506-1.1765 0.37489-1.1064 0.72571-1.209 1.1246 0.54527-0.16786 1.0905-0.44097 1.6358-0.12027z" color="#000000" fill="#a15200"/>
  <path d="m99.761 988.63 4.6846 1.3258-1.6794-3.5355-1.4142-0.70711c-0.36328-0.11841-0.88814 0.73264-1.4142 1.591z" fill="#efe6ce" stroke="#f60" stroke-width=".35433"/>
  <path d="m92.212 1042.3c0.0445-0.7303-0.09265-0.9926 0.74372-2.6731 1.2834-0.5558 1.5458-0.5281 1.6794-0.4268 0.92582 0.817 1.6939 2.1072 2.1213 4.4195l-2.6517-1.1491z" fill="#efe6ce" stroke="#f60" stroke-width=".35433"/>
  <path d="m93.585 1037.1c-0.67416-1.5133-0.94266-3.0267-0.45266-4.54 2.3004 0.7531 3.341 1.9362 4.1543 2.9642l1.149 2.3391s-2.6516-1.0607-3.0936-1.0607-1.757 0.2974-1.757 0.2974z" fill="#efe6ce" stroke="#f60" stroke-width=".35433"/>
  <path d="m56.628 946.45c-0.1994 1.4815 0.19473 3.7488-0.39761 4.2589-0.90964-0.56339-2.2493-3.5056-4.4481-3.3-0.21345 1.6343 0.15434 2.9524-0.19562 4.0059-1.4534-1.9178-4.1625-3.8756-4.5119-3.4998 0.58747 1.1564 0.16005 3.2443 0.27642 4.1781-1.2368-0.86263-4.782-2.849-5.456-2.5409 0.76981 1.2141 0.59085 3.1954 0.99084 4.3737-1.0467-1.5635-5.6703-2.7173-6.449-1.7733 0.42354 0.91865 2.7842 3.1812 2.8045 4.2504-1.6637-2.8128-6.4805-3.0858-7.5589-2.1816 0.73816 0.9424 1.0026 1.811 2.1943 3.3978-0.51169-1.0735-5.7651-2.3105-7.0486-1.5224 0.4074 1.193 2.5013 2.4182 2.6493 3.2043-1.6739-0.33549-6.0507-2.5516-6.9593-1.195 1.1408 1.3137 2.017 2.1905 2.509 3.4297-1.1167 0.23032-4.821-2.0756-7.3186-1.3332 0.37426 0.53809 2.3806 3.8362 2.3687 4.0463-1.6215-0.33334-4.8199-3.2027-5.9386-2.4516 0.91454 0.87748 1.0636 2.5161 1.3927 3.4488-0.73572-0.82071-3.6601-2.0768-5.0626-1.9136 0.06682 0.99387-0.56807 0.72105-1.0376 2.3134-0.56846-0.15276-2.7906-2.1775-4.6289-2.1305 0.054255 0.45734-0.58231 2.8311-0.84838 2.9172-1.0067 0.3259-1.226-0.19583-2.8641-0.49967-0.42449 3.3506 1.9239 6.1402 3.2213 6.7466 2.6081 1.219 6.7936 1.07 9.6915 2.5579 4.7553 2.4416 10.631 1.1511 15.932 0.42313 5.224-0.71737 7.8867-7.5841 13.593-7.7034 5.235-0.14594 9.4538-3.0952 14.692-2.2475 2.596-0.79734 8.2434 0.15173 8.5327 1.4884 0.12918 0.5968-1.0993 1.766-3.2298 2.5069-1.9555-1.2617-4.888-1.6749-6.8976-0.88027-2.5988 1.0276-4.1226 3.7535-4.8755 5.9216-3.3813 1.5574-5.7576 4.2238-7.6163 7.2761-1.4067 2.3101-2.1624 3.476-3.015 5.9812-0.17485 0.51372-0.68829 2.1516-0.98659 2.324-0.7292 0.42155-2.214 0.0263-3.6083 0.23814-0.93484 0.14201-1.8295 0.55672-2.4282 1.6712-1.8617 3.4659-8.4076 4.0804-10.789 0.77184-0.29372-0.40814-2.9837-1.716-5.641-1.5628-1.9164 0.11049-3.5941 1.1868-4.3695 2.5536-3.4677 1.2613-3.5674 2.4765-4.6331 4.008-2.962 2.0302-1.3009 4.3758 0.11269 5.2922 1.4441 0.9363 3.8194 1.5333 4.8436 2.1922 2.1506 2.1463 6.1708 0.3738 9.4661 1.1652 1.3708 0.3292 3.3691-1.2542 4.648-1.7202 1.042-0.3796 1.8813-0.1194 1.903 0.2361-0.67335 0.7437-0.74584 1.5325-1.2375 2.0199-0.82358-0.173-1.6448-0.6277-2.3538-0.053-0.16403 0.2146-0.56389 0.4154-0.7931 0.4168-0.73538-0.016-1.9063-0.2697-2.6387-0.1552-1.2554 0.3186-2.6603 0.7738-3.3276 2.1241 0.40523 0.1045 1.9824 0.01 2.3687 0.1744-1.5032 0.3623-4.1794 1.0898-4.901 2.8619 1.4828-0.082 4.2152-0.2142 4.5034-0.2232-0.58945 0.4917-2.252 2.2623-2.0263 3.0682 1.0637-0.2987 2.9955-0.5622 4.563-0.7549-2.4609 1.5696-3.9328 3.9237-6.1321 5.843-3.0768 2.685-8.2998 4.8837-7.2272 9.7149 0.74406 1.4613 1.7027 3.1404 2.9598 4.1164 2.1175 1.644 4.905 2.0888 7.6503 1.9392 4.5109-0.1997 8.3618-3.1869 12.955-2.1029 4.4402 1.1532 8.7411-0.7578 13.03-1.5373 3.576-2.9209 6.3972-2.7824 11.165-2.3644 5.4105 0.4743 8.6373-5.0149 12.464-7.68 2.0501 1.0508 6.3705-2.7304 6.7806-2.6834 2.4617 0.2822-0.94526 2.0142-1.886 3.2213-1.1668 2.6363-0.48783 5.6388-1.297 7.931-0.3905 1.1061-1.4595 1.8627-2.6196 2.6833-2.595 1.9608-6.5219 7.7062-3.8953 10.459 1.1334-1.627 3.0946-1.8265 4.9372-2.3623 1.2758-0.371 2.4949-1.2026 3.3425-1.5458-0.53277 2.4846-0.41708 2.82-0.64426 5.3539 0.23373 2.8915 1.3245 4.8202 1.7839 6.8891 0.74613-0.9788 3.012-3.1814 4.2483-5.1689 1.2152-1.9537 1.4511-4.4615 1.937-5.5581 2.0621 1.083 2.5902 1.1468 3.9293 2.9066 1.0913 1.0558 3.7042 3.8243 4.9138 4.9925 1.5816-2.5939 0.59211-6.1356 0.57622-6.9805 2.1685 0.1801 2.6449 1.3472 4.6693 1.903 0.0725-2.472-1.6525-5.8597-3.2829-6.9869 0.48108-0.2828 0.72412-0.3629 1.55-0.2467 0.86315 0.1216 2.6066 1.1177 3.1426 1.127-0.38358-3.2609-3.4585-6.1734-6.4979-6.6659-3.5735-1.7302-0.55291-3.4545 0.86964-5.6601 2.9854-4.1697 4.0556-9.5627 2.4537-14.488 0.34768-4.2185-3.5661-6.8159-5.8855-8.4944 3.2449-1.5838 4.5729-5.2869 4.6246-8.7453 0.61751 1.047 1.6808 2.0074 2.0221 1.835 0.28325-1.0371 0.31197-1.3121 0.65488-3.5551 0.77761 1.1474 2.9111 2.1638 3.4339 1.9221 0.71555-0.33074 0.2397-3.5949-0.31261-5.1392 1.9837 0.0677 3.5309 0.8681 5.0222 1.2162 0.18184-1.3281-1.2568-3.4502-1.8392-4.1675-1.0467-1.289-4.1483-2.1634-5.9259-2.1199 0.24433-1.1844 0.7363-2.9824 0.60386-4.3503-0.38231-3.9491-3.7784-5.3395-7.0358-6.3256 0.67668-2.411-0.17891-4.7845-0.71017-7.2824-0.61656-2.899-1.0086-7.5304-3.1214-9.6894-0.53361-0.54528-1.5009-0.27947-2.3857-0.48691 0.3311-2.2813-0.10716-2.8762-0.95039-3.587-0.73891-0.62288-1.5522-0.44204-2.7089 0.52519 0.28054-1.5761-0.91966-2.8601-2.0455-3.251-0.60686-0.21075-2.1018 0.16366-2.5898 1.6032-0.08496-1.3085-1.2713-2.5188-2.341-2.7663-1.0665-0.2467-2.401 0.80171-2.6025 1.9881-0.33749-1.654-2.0783-3.0846-3.3404-2.9236-1.1125 0.14191-1.0189 1.6447-1.3268 2.66-0.65729-1.3423-2.5801-2.5429-3.4934-2.4792-1.0808 0.0754-1.1333 1.613-1.5011 2.3814-0.88504-1.1499-3.2604-4.153-5.288-4.0186zm1.4076 2.0922c1.5595 0.61028 3.2092 2.8648 4.042 3.9123 0.91882-0.88183 0.6904-2.1744 1.5607-2.2028 1.6674-0.0544 2.6289 1.6681 3.7762 1.5904 0.59192-0.65652 0.71787-2.167 1.5734-2.2177 1.1416-0.0676 1.8317 2.4572 2.4622 2.5324 0.93418-0.61026 1.5405-1.9527 2.3112-1.9328 0.53869 0.0139 1.4039 1.734 1.4735 3.0023 1.466 0.76829 2.7362-1.8243 3.4934-1.5245 1.3482 0.53374 1.8681 1.0597 1.9753 3.0299 0.6473-0.33429 1.5888-1.5537 2.2857-1.0419 0.57594 0.42297 0.75386 2.3489 0.3721 4.0973 1.3167-0.50015 2.2862-0.33631 2.8981 0.29981 0.72196 0.75052 0.94634 2.1588 0.65914 3.9144-0.4583 0.84413-0.59195 2.1983-0.25302 3.2043 0.47224 1.4017-0.15177 3.0776-1.414 3.9527-1.5184 1.0527-0.16748 3.1661-1.4416 4.3546-0.79265 0.73937-0.37574 1.9542-0.71868 3.3361-0.19169 0.77243-0.81585 0.98776-1.1354 1.8009-0.21795 0.5546-0.35186 1.5242-0.54007 2.3049-0.78795-0.02-1.9913 0.53487-2.2049 1.0972-0.24265 0.63861-0.2156 1.3632 0.1701 1.9583-0.74803-0.0624-1.7672 0.0948-2.0901 0.55283-0.53023 0.75219-0.37008 1.8749-0.40399 2.5324-0.85895-0.1237-1.8442 0.25416-2.3495 0.76758-0.72717 0.73886-0.82112 1.8093-1.1567 2.4984-0.64391-0.26071-1.578-0.40245-2.173 0.0128-0.64631 0.45093-0.93685 1.4978-1.1567 2.1667-0.9485-0.51867-1.0586-0.88803-2.1114-0.87815-0.85109 8e-3 -1.2106 0.47095-1.9455 1.5075-0.84786-0.2232-1.8311-1.049-2.947-0.77821-1.1381 0.27624-2.4052 1.6614-2.8088 2.5855 1.1071-0.90887 1.9095-1.4907 3.1703-1.6883 1.1536-0.18076 1.793 0.55202 2.9491 1.2247 0.5053-1.0007 0.9809-1.4383 1.886-1.8137 0.92041-0.38173 1.3932 0.55905 2.071 1.1864 0.31713-0.60808 0.91582-2.1579 1.5054-2.6812 0.61872-0.5492 1.3371-0.0468 2.2496 0.4614 0.05445-1.0412 0.85559-2.1491 1.3672-2.9874 0.70761-0.53079 1.9879-0.77271 2.8386-0.5018-0.44084-1.142-0.30501-2.3269-0.07016-2.7982 0.3812-0.76504 0.88553-0.82674 2.2496-0.47203-0.45108-1.1544-0.77188-1.4186-0.41249-2.2134 0.5159-1.141 1.8429-0.57529 2.6961-0.5996-0.32565-0.70815-0.69177-1.4065 0.05316-2.1986 0.47769-0.50793 0.32653-1.2698 0.74419-1.8413 0.80256-1.0983 0.17322-2.1622 0.47416-3.3318 0.22665-0.88094 1.7357-1.3218 1.684-2.2177-0.07115-1.2336 0.04861-2.3802 1.0929-3.1362 1.251-0.90569 1.426-3.0189 0.99722-4.4481-0.15058-0.50191 0.0186-2.0647 0.3806-2.796 1.4205 2.3959 0.15961 6.244 1.3417 8.4774 0.664 1.2546 0.04719 1.8255-0.39548 2.7918-1.3018-0.10451-2.8067 0.69404-3.6423 1.4714-1.2227 1.1374-0.33106 2.9114-0.28492 4.3652 0.778-1.1448 0.18705-1.9485 0.65914-2.7918 0.20522-0.36657 0.51598-0.96062 0.91854-1.0865 0.8312-0.25994 0.90227-0.41864 1.7542-0.26578 0.21058 0.0378 0.98544-0.30239 1.5054-0.35934 1.7524 2.6524 5.6648 0.49372 5.8876 4.3014 2.2 1.8506-0.43688 6.3767 0.03828 6.9699 1.5175-0.44702 3.0766-0.32193 4.3929 0.15309-0.18514 0.1518-0.3479 0.32899-0.44226 0.56559-0.18578 0.44449-0.31875 0.92031-0.35083 1.3884-0.57504-0.38481-2.5141-0.95143-2.5515-0.72506 0.29879 0.51965 0.80252 0.57117 1.0851 0.80281 0.32739 0.26838 0.67758 0.55021 0.70523 0.63667-0.91626 0.0561-1.7328 0.77148-1.9285 1.6712-8e-3 0.0321-0.95833-0.58089-1.1354-0.99083-0.34806-0.18271-0.444-0.0998-0.53794 0.13182 0.16671 0.43609 1.1188 1.3828 1.0482 1.6479-0.21124-0.21064-0.43283-0.3932-0.68891-0.43376-0.79186-0.15695-1.399 0.39788-1.8286 1.0674-0.03667-0.17419-0.05438-0.33864-0.02552-0.47415 0.29666-1.3928-0.51719-3.5438-1.7648-4.8989 0.75502 0.78884 2.3018 0.42142 2.56-0.16585l-1.2056-0.0128c-0.64687-7e-3 -1.4388-0.77002-1.9073-1.129-0.53494-0.80632-0.65008-1.2312-1.3799-1.8669-0.44811-0.39024-1.8362-1.1845-3.1022-1.903 1.2562 1.3505 3.0303 3.0798 4.0165 4.6438 0.70176 1.1129 1.0177 2.4171 1.3821 3.672 0.19628 0.67602 0.56976 1.3429 0.52519 2.0455-0.04341 0.68429-0.44089 1.6095-0.33595 2.5281 0.48414 4.2379-3.3027 5.0307-4.799 8.1904-2.7883-0.6991-4.7198-1.2646-7.646-1.1631-1.1516 0.04-3.1621 0.423-4.227 0.8633-1.0122-0.4912-1.8945-0.7247-2.8747-0.8654-0.9799-1.3879-2.0323-2.7418-3.2936-3.8868-0.70912-0.64377-1.5644-1.1506-2.5111-1.3183-1.5529-0.27506-2.5378-0.58419-4.8181 0.78459 1.7936-0.25605 3.5263-0.30332 5.0052 0.47841 0.90083 0.47621 1.7031 1.046 2.3899 1.7542 0.75004 0.7733 1.4033 1.6356 2.0306 2.5111-0.22705 0.1339-0.43654 0.296-0.5996 0.5167-0.73024 0.7585-0.51702 1.3027-0.17648 2.8598 0.19971-1.5306 0.9855-2.2603 1.5968-2.5069 1.1958-0.024 2.7887 0.3947 3.3808 1.2375 1.844-0.8752 4.0186-1.3055 5.9769-0.8526 2.0208 0.4673 4.0934 0.8241 5.9854 1.6755 1.115 0.5017 2.8531 1.1859 3.5998 2.207 2.5899 3.5418 3.5788 8.6681 2.5749 12.943-0.89004 3.7897-3.2546 6.9926-6.2831 9.3513-1.6169-0.4359-3.3846-1.6596-5.035-1.4055-1.8093 0.2786-2.8513-0.122-4.984 2.3687 1.6588-1.0316 3.3917-1.5934 5.1817-1.4097 1.5035 0.1542 3.0993 0.8231 4.5119 1.3182 2.1435 0.7514 2.8938 2.7697 5.1838 3.1916-0.27113 0.5312-0.5441 2.4514 0.43588 3.3637-0.44095-0.2662-2.5827-0.5532-3.0597-0.7484-0.02543-1.9291-1.2366-2.637-2.4728-2.0519 0.26022 0.2283 0.97476 0.5335 1.2843 0.674 0.37403 0.2185 0.45451 1.4272 0.61449 1.8031 0.97526 0.4975 2.4704 0.4526 3.2596 1.0653 0.24987 0.4155 0.69807 1.261 0.99296 1.7669-0.74897 0.1084-1.0913 0.1955-1.331 0.9526-0.18572 0.5865-0.53423 1.3196-0.60386 1.5713-0.37467-0.1944-0.79237-1.2102-1.129-1.3523-0.55342-0.8932-1.2628-1.7072-2.1794-2.2369-0.26671-0.1541-0.6408-0.05-0.8909-0.2466-0.83466-0.6547-1.1131-1.6074-2.2156-2.6366 0.44994 0.9342 0.71902 1.9613 1.3374 2.8088 0.18136 0.2486 0.3443 0.5345 0.59748 0.7102 0.55019 0.3817 0.92726 0.4349 1.3842 0.9419 0.36488 0.4049 1.1947 1.0155 1.4522 1.4161-0.99898 0.357-2.1218 1.2657-2.1709 2.341-2.006-1.3793-3.8996-3.5479-5.7983-2.1028-0.04885 1.0526-0.39906 1.9763-0.89516 2.8343-0.33977-0.8656-0.85951-1.6808-1.818-1.8924-0.80849-0.1785-1.8608 0.1594-2.4941 0.5039-0.51295-0.5651-0.09359-2.9659 0.42525-4.0909-1.5616 0.1234-2.3684 0.9611-4.3376 1.7648-0.01356-0.86-1.2207-2.8268-1.8094-3.419 0.4972-0.4351 1.3301-1.0751 1.2736-1.6798 3.4548-0.5773 1.9609-3.7021 4.008-5.7537-1.7668-3.5726 1.5141-6.6234 2.5239-8.5369s2.392-3.057 3.9017-4.2929c0.45336-0.3712 2.6444-1.1664 3.1277-1.3289-2.0916-0.9838-4.6796 1.3504-5.3454 2.1071-0.51157 0.5814-0.98181 1.1941-1.4374 1.8201-0.73317-0.6052-1.4262-0.7075-2.1135-0.5337-0.26694-1.3265-0.33585-2.6639-0.49329-4.008-0.10351-0.8837-1.3359-1.6796-1.0057-2.56 0.16206-0.4321 0.50736-2.2121 0.30406-2.4155-0.11913-0.074-0.75187 1.3988-0.83775 1.5097-0.81611 1.0539 0.35452 2.404 0.77183 3.5274 0.21976 0.5917-0.10482 1.1734-0.01488 1.8116 0.0555 0.3939 0.21107 1.5272-0.05316 1.5139-0.95272-0.41-1.5009-0.4825-1.9306-1.3693-0.34924-0.7206-0.26637-2.4497-0.68253-3.8804-0.04043 0.9094-0.61834 3.0296-0.31681 4.0462 0.57807 1.2111 1.6527 1.9031 2.6451 2.5813-1.3345 0.8196-2.7584 1.8746-4.5226 1.4608 0.26884-0.9968 0.42389-2.0594 0.05103-3.0406-0.28017-0.7373 0.27394-1.2113 0.61236-1.7733 0.59019-0.9801 0.52432-2.1407 0.7208-3.2468 0.13681-0.7701 0.98004-1.3772 0.99509-2.1985 0.03545-1.9341-0.73472-2.1026-1.8669-3.6317-2e-3 1.2804 1.0679 2.3753 0.73356 3.6763-0.17059 0.6638-0.80285 1.1231-0.99722 1.7499-0.28357 0.9146 0.21908 1.9711-0.32957 2.8513-0.33133 0.5316-0.90647 0.9142-1.1184 1.5012-0.36557 1.0125 0.52533 1.4674 0.38485 2.5579-0.06052 0.4697-1.1654 1.672-1.0355 2.7747-3.0645 1.8289-5.0009 5.0249-8.9452 5.9451-3.9177 0.914-8.3115-2.1038-11.501 1.4012-4.0984 2.0828-9.0632 3.3991-13.723 2.8726-0.91824-0.3882-1.8096-0.4519-2.694-0.3828 0.35553-0.4467 0.70565-0.8975 1.1205-1.1992 0.44607-0.3243 1.7667-0.066 2.3857-0.725 0.67955-0.7233 1.5467-1.3207 2.4792-1.6288 1.0874-0.3592 2.4627-0.1081 3.5572-0.4231 1.1668-0.3359 3.3627-1.1267 4.7012-2.173 1.6934-1.3238 2.1454-3.2 2.1454-3.2s1.6105-0.059 2.2326-0.7868c0.8883-1.5174 2.163-3.7288 1.348-4.9201-0.1592 1.0819-0.90523 2.9691-1.8009 3.9633-0.77604 0.8613-1.6533 0.8716-2.5047 1.3098-0.35494 0.754-0.47552 1.5771-1.0121 1.9434-1.6631 1.4882-3.3066 2.2241-5.4092 2.8428-1.6462 0.4844-3.8089 0.3928-5.3114 1.1928-0.97849 0.5211-1.6973 1.5056-2.8471 1.7627-1.357 0.3035-1.8029 2.1085-3.2128 2.3899-1.663 0.3645-3.3538 0.7657-5.2008 0.094-3.0947 3.2881-7.4429 2.025-10.678 0.2424-1.73-0.9533-2.6074-4.0128-1.5968-5.524 0.2865 0.6932 0.89677 1.7684 1.3757 2.105 0.57449 1.0654 1.3337-0.3486 2.2283 0.2424 1.5133 0.3937 2.9524 1.1801 4.3652 1.8243 0.23564-1.3028 1.6968-1.4801 2.7471-0.7527 0.91028-1.2539 0.93712-1.8876 1.7797-3.2681 1.1445-0.903 3.4595 0.8433 4.4439-0.6995 0.98161-0.1168 2.3138 0.2084 2.8768-1.0227 1.0822-1.5971 2.7469-0.2944 4.176-0.8357 1.6206-0.2399 2.9494-1.213 3.9825-2.3941 1.4142-1.6701 2.59-3.7076 4.9436-4.0038 1.0987-1.6041 1.6186-3.6792 3.4594-4.6501 1.0078-0.2961 1.3187-2.4197 1.3566-3.3446 0.74221-1.2574 1.47-0.8481 2.5919-1.4289 0.62373-0.6777 2.5698-0.9072 3.4998-0.8951-1.0584-0.663-2.776-0.5327-4.344-0.2127-0.409 0.2752-1.0844 0.2578-1.6308 0.6358 0.09345-0.5285 0.03245-0.7411-0.27429-1.2609 0.57674-0.085 1.1881-0.5776 1.65-0.9462 0.95767-0.7642 1.4457-1.936 2.3687-2.2432 0.47385-0.1577 0.99878 0.1066 1.7308 0.4636 0.58628 0.2859 1.051 0.7688 2.526 1.8562-0.13102-1.122-0.81338-1.9745-1.3225-2.3687-0.60885-0.4714-1.5896-0.9391-2.8513-1.112s-1.5967 1.2613-2.3538 1.9561c-0.7332 0.673-1.9798 0.8055-2.9853 0.572-2.2113 0.4573-2.2437-0.031-3.8804 0.1212-1.2129 0.022-2.7336-0.7656-3.7932-1.2779-0.87129 0.5072-1.9052 1.2247-2.796 1.6904-1.0606 0.3849-1.4536 0.8895-2.4452 0.1169-0.26974-0.3007-1.5962-1.3643-2.3155-1.5925-0.52258-0.079-1.8295-0.1483-2.4686-0.2318-1.9682-1.3982-5.8878-1.7429-7.5142 0.6953-3.7384-0.4588-6.7755 0.4986-9.4682-1.7499-2.0757 0.067-5.3237-1.2188-5.6048-2.6323-0.09828-0.4942 1.3192-1.0736 2.1539-1.9115 0.75373-2.6628 4.0066-3.6434 5.8706-5.135 2.7423 0.0257 6.8898-0.0967 7.5886 3.3808 2.0349 0.7907 5.2637 0.1403 7.2739-0.93555 3.0587 0.87314 3.8574-2.9784 5.7622-3.8273 0.73567-0.32785 1.6365-0.20694 2.896 0.80585 0.84476-0.64697 1.7562-0.93686 2.7089-1.0291 0.93886-0.0909 2.2069 0.13335 2.8917 0.67615 0.51796-0.69837 1.0808-1.3519 2.1135-1.5543 1.1006-0.21573 2.5548 0.4993 3.1426 0.59109 0.05465-0.57619 0.09075-1.3965 0.48266-1.7286 0.356-0.30169 1.3366-0.33548 1.8031-0.34658-0.16064-0.86441-0.50642-2.9104-0.0489-4.008 0.29189-0.70023 1.4602-1.1167 1.7563-1.7031-0.05156-0.81216-0.36502-1.6541 0.05316-2.3878 0.35659-0.62566 1.3731-0.66516 1.718-1.1142 0.01563-0.8141-0.1359-1.7596 0.33808-2.4494 0.46262-0.67337 1.4706-0.83726 1.9753-1.3566 0.25274-0.86006 0.37962-1.9809 1.195-2.4856 0.74073-0.33814 1.5602-0.40935 2.3623-0.46566-0.09206-0.67413 0.05597-1.708 0.94193-2.1688 0.71587-0.9031 2.1578-1.5843 3.7188-2.6004s2.8676-2.3827 3.621-4.1462c-0.24637-0.85967 0.23082-1.5409 0.53794-2.3006 0.21951-0.62427 0.38174-0.87474 0.54645-1.4735 0.35316-1.7808-0.65406-3.4082-1.414-4.9414-0.32862 0.50335-0.5852 1.0617-1.01 1.4948-0.38346-1.2963-1.3-2.7495-2.8152-2.7365-0.49173-0.0223-0.98588-0.0308-0.69316 0.5911 0.31286 1.3538-0.82672-0.48439-1.3247-0.78672-0.73186-0.6519-1.7435-1.6796-2.796-1.0972-0.80622 0.31713 0.29556 2.3557-0.78884 1.4841-1.1429-0.75335-2.289-1.6474-3.6635-1.9094-0.56259-0.11528-1.9325 0.16386-1.6479 0.92705 0.09969 0.61113-0.02619 0.99433 0.04252 1.4033-1.3136-0.88743-2.1241-1.4197-3.7039-1.65-0.55989-0.0816-2.5067 0.23227-1.886 0.60173 0.50529 0.41458 1.5197 2.0088 0.33595 1.2843-1.6034-0.69492-2.9566-1.227-4.7416-1.1014-0.06669 1.1031-0.57404 2.3606-0.74419 2.5919-0.44629-0.1305-1.1004-1.2864-1.5033-1.5756 0.74638-0.81015 0.52513-2.5394 0.05954-3.7635 1.2835-0.11478 2.5436 0.86243 3.4382 1.8584 1.6232-0.42961 1.4579-2.8506 1.2013-3.6529 1.1266 0.32505 1.9917 2.4162 2.9853 3.368 1.324-0.4051 0.8228-3.586 1.3757-3.8336 0.84743-8e-3 1.8075 1.9226 4.0994 2.9874 1.0138-1.0984 1.1356-2.2612 1.0631-3.8549zm-19.84 4.2802c1.9212 0.61047 3.3253 1.5595 4.5141 2.7875 0.92552 0.96961 1.84 2.196 3.2553 2.458 0.52465-0.98749 0.96068-2.1355 0.84838-2.9257 1.0599 0.10689 4.138 1.1486 5.1179 1.5437-0.87343 0.53906-1.7709 0.58406-2.3963 1.4437-0.30528 0.41967-0.04995 1.9906-0.0723 2.5536-0.04943 1.2457-1.099 2.2253-0.65064 3.4318 0.14309 0.38505 0.35426 0.74375 0.45502 1.1439-2.3054 0.70663-4.7939 1.039-7.2059 1.2651 0.41833-1.5409 0.58595-3.157 0.22964-4.7246-0.11757-0.51725-0.15693-1.1036-0.48904-1.516-0.74452-0.92458-1.626-1.8199-1.4374-2.9491 0.18862-1.1292-0.33725-3.1979-2.1688-4.5119zm19.326 0.85476c0.41512 0.0291 0.92234 0.32633 1.129 0.44652 1.1989 0.49189 1.6867 1.5212 2.7939 2.1667 0.03535 1.2995-0.59561 2.5238-1.3842 3.5232-0.26793 0.31953-0.54663 0.63224-0.72931 1.0121-0.44995 0.80126-0.62965 1.8147-0.22964 2.6727 0.0578 0.1402 0.12684 0.27402 0.20199 0.40399-2.2579 0.17385-4.5305 0.4988-6.8466 0.0425-0.68501 0.37913-1.4116 0.69184-2.1582 0.96745-0.16582-0.65955-0.64692-1.2082-0.69529-1.903-0.06297-0.90445 0.78265-1.5014 0.66552-2.3899-0.12632-0.95827-0.32677-1.8045-0.10844-2.0518 0.17738-0.20097 2.5517-1.3937 2.7578-1.8307-0.17159-0.69867-0.203-0.78895-0.71868-1.2609-0.27989-0.25615-0.69819-0.50702-0.83987-0.93769 1.8538-0.50676 4.5347 1.68 5.5495 2.1348 0.19051-0.51959 0.17347-0.44918 0.27429-1.4055-0.18495-0.52247-0.48018-1.2257-0.0319-1.5139 0.10332-0.0664 0.23159-0.0863 0.36997-0.0765zm5.6601 0.88665c1.1205 0.68239 1.8325 1.8481 2.8641 2.6238 0.73753 0.5839 1.6712-0.24333 1.4331-1.0695 1.1246 0.32299 0.98392 1.8188 1.7265 2.5154 0.77862 0.70345 1.4119-1.1224 1.5968 0.20199 0.45779 0.87025 0.30231 1.8647-0.11907 2.7067-0.26137 0.70086-0.30929 0.8281-0.64 1.4501-0.1454 1.0858-0.24403 2.1245-1.0482 3.0002-0.21982 0.31374-0.46058 0.61631-0.71442 0.90791-0.02868-0.80218-0.67328-1.5679-2.307-2.1688-1.8035-0.83091-3.5999-0.96456-5.4028-0.89728-0.25159-0.35739-0.49425-0.71972-0.59535-1.1503-0.14016-0.64917 0.23008-1.2593 0.5826-1.7733-0.06569 0.0835 0.25613-0.2933 0.32319-0.38273 0.92266-1.1517 1.6316-2.5645 1.6521-4.0633 0.57482-0.42269 0.28132-1.8551 0.64851-1.9009zm-28.041 0.5507c0.30395-0.0253 0.60221 0.0121 1.1248 0.23602 1.0621 0.45504 1.6127 1.0152 2.4877 2.1539 0.61383 1.0399 1.3057 2.4951 1.7308 2.9832 0.42509 0.48808 0.66604 1.4417 0.69741 1.5373 0.46009 1.8719 0.11868 3.2295-0.32532 4.7246-2.3714 0.67044-4.3052 2.1973-6.2087 3.7528-0.16314-0.1989-0.28556-0.46489-0.3806-0.68253-0.24228-0.55479-0.46786-1.1255-0.59323-1.7159-0.2546-1.199 0.31818-2.4196 0.26578-3.6295-0.05277-1.2185-0.9424-2.3894-1.8498-3.1128-0.90745-0.72348-1.755-2.7496-2.3346-3.7614 1.0762-0.29448 5.0624 1.2238 5.9876 2.2517 0.57823-1.3551-1.1785-3.0684-1.7669-4.5991 0.55115-0.0255 0.86124-0.11293 1.1652-0.13821zm-9.4087 4.4354c0.64659 0.0308 3.2849 0.71224 4.1249 1.0993 0.84005 0.38704 1.6311 1.7507 2.0561 2.2049 0.44712 0.47787 0.91766 1.0622 0.90791 1.7074-0.01969 1.3036-0.58162 2.6456-0.18286 3.9187 0.29206 0.93243 0.56072 1.9161 1.1716 2.7004-1.0811 0.87797-2.0324 2.0828-3.3446 2.3963-2.9873 0.71369-6.4727 1.0001-9.5597 0.7527 0.361-0.74151 0.94441-2.4104 0.91217-3.2447-0.03218-0.83243-0.43314-1.5824-0.73356-2.3516-0.44261-1.1333 0.03104-2.1791 0.35083-3.1915 0.42477-0.90195-0.31575-2.0447-1.1418-3.8868 1.7215 0.17595 4.7604 1.649 7.089 1.8988-0.13208-0.94708-0.86772-2.9459-1.65-4.0038zm-8.9792 3.9442c0.75889 0.99693 2.7549 1.7604 3.5828 1.9136-0.27614 0.84348-0.5566 1.6876-0.51668 2.5855 0.0241 0.54213 0.18791 1.0744 0.46352 1.5437 0.59883 1.0197 0.37159 2.1922 0.09994 3.1001-0.24325 0.84422-1.1845 1.1186-1.7457 1.5054-2.1393 0.11954-3.8411-0.48694-5.5623-1.1333-2.309-0.86713-4.4601-1.2341-7.4972-1.8647-1.2508-0.25971-3.5023-1.5106-2.8641-3.015 0.23556-0.55531 2.8275 0.33518 2.8513 0.068 0.084381-0.9467 0.14043-2.2317 0.75057-2.3198 0.95385-0.1377 3.0601 2.0474 3.8528 1.8584 1.1014-0.26261 1.0599-1.4778 1.3162-3.0831 1.618 0.89979 3.2401 1.579 5.1987 2.5983 0.18148-0.79162 0.3678-2.3046 0.07016-3.7571zm42.391 6.3405c1.3267-0.0581 2.7848 0.49927 3.8294 0.72718-0.48012 0.77304-0.71149 1.0484-0.95682 2.2262-0.59566 0.0915-2.4388 0.30102-2.7854 0.7123-1.8551-0.22979-4.1985-0.16913-5.641 0.68465 0.27483-0.78428 0.97972-1.6914 1.4692-2.2581 0.86236-0.99823 2.8433-2.0379 4.0845-2.0922zm-1.5564 4.7862c0.41517 9e-3 0.74578 0.0536 0.94831 0.13395-0.12994 0.35255-0.22937 0.7156-0.30831 1.0589-0.76826 0.34986-1.592 0.85378-2.0518 1.5692-0.23765 0.3697-0.42537 1.5184-0.219 2.2007-0.66944 0.26906-1.2597 0.72922-1.6946 1.4884-0.34905 0.60931-0.18614 1.5649-0.1616 2.3729-1.0388 0.61448-1.3373 1.3554-1.4863 1.684-0.49604 1.0946-0.40193 2.4161-0.23176 3.5934-0.44164 3e-3 -0.84628 0.13622-1.1843 0.36572-0.4133 0.28059-0.72702 0.70538-0.88665 1.2162-0.69306-0.3688-1.519-0.61259-2.2942-0.49542-1.1546 0.17451-1.0182 0.48464-2.2581 1.7797-0.64107-1.0148-2.1337-1.6102-3.6423-1.0504 1.2062-2.2319 1.5728-5.1635 3.4403-7.1251 0.87416-4.0159 4.2945-6.2682 6.4681-7.51 1.4984-0.85603 4.3168-1.3083 5.5623-1.2821zm43.68 12.007c0.045 9.9e-4 0.0745 9e-3 0.11695 0.0127 0.3517 0.20009 0.68203 0.41759 0.96532 0.66552 0.40062 0.35063 1.2279 1.5329 1.095 1.9817-0.43633-0.29969-2.0059-0.85057-3.2383-1.0886 0.0511-0.38485 0.20761-0.80209 0.34871-1.129 0.0871-0.37383 0.41633-0.44881 0.71229-0.44226zm-2.6688 2.8574c0.18969-0.0964 0.70488 0.25311 0.88349 0.73948 0.41862 0.66104 0.50244 1.6748 0.39894 3.0519-0.51734 0.35281-1.872-0.56696-2.4792-1.7286-0.0799-0.5245 0.13207-1.3754 0.57622-1.6691 0.16371-0.10826 0.25198-0.20631 0.62057-0.39361zm-2.5789 2.724c-0.15178 0.82364-0.11478 1.9238-0.37635 2.4771-0.43528-0.15893-1.1591-1.159-1.5522-1.8498 0.08438-0.52249 0.02077-1.1171 0.73638-1.2828 0.65853-0.15242 0.85289 0.38391 1.1921 0.6555zm-63.367 13.695c0.93652 0.082 1.7213 0.726 2.3516 1.3991 1.2532 1.0298 3.0018 0.7837 4.4014 0.2254 0.75648-0.2843 1.3987-0.8106 2.1071-1.1971 0.58334-0.4383 1.2456 0.4417 1.8945 0.4529 1.0622 0.4228 2.2021 0.2356 3.3063 0.2934 0.65532-0.4292 1.4348 0.085 2.1964 0.1254 0.05415 0.3701 0.3615 0.3966 0.52519 0.9101 0.08281 0.7234-0.03957 0.1535-0.5018 1.0525-0.24161 0.4515-0.32473 0.9552-0.39336 1.4565-0.1646 1.0865-0.63855 2.119-1.431 2.4026-1.2751 1.0019-1.8098 2.5744-2.611 3.9209-2.2929 0.5199-3.8681 2.3998-5.2668 4.1504-0.56287 0.5319-1.9467 2.1801-3.3893 2.2092-1.6291-0.4044-3.6474 0.1327-5.1158 1.8095-1.6031-0.5448-2.695 1.0817-4.3099 0.4188-0.26326-0.106-0.99406 0.3192-1.9009 0.3551-0.90681 0.036-1.5646 1.9637-1.701 2.8088-1.1605-0.8882-2.2411 0.5358-3.0427 0.538-0.50054-0.2373-0.98038-0.5983-1.4735-0.925 0.51171-1.4575 1.904-2.4689 2.9874-3.5657 1.4097-1.4271 3.0633-2.8239 4.6842-3.991 2.6352-1.8975 4.5568-3.6591 7.4993-5.0881 1.3523-0.6568 2.7752-1.8069 2.054-4.4163-0.28636 0.3287-0.32594 2.137-1.0929 2.475-0.81779 0.3604-1.9013 1.0144-2.6833 1.4331-2.6012 1.3926-4.7399 3.4712-7.1719 5.1136-2.6242 1.7724-5.2935 3.7399-6.8636 6.5383-0.13287 0.2368-0.32541 0.5878-0.45715 0.9334-0.139-0.052-0.28017-0.095-0.42525-0.1233-0.58978-0.1159-1.3364 0.2235-1.9477 0.4316-0.8375-0.4095-0.85871-1.1891-1.1737-1.7286 0.25808-0.1316 1.1415-0.733 1.8945-1.6287 1.8173-2.1618 3.9507-3.0782 5.7154-5.2583 1.0378-1.2821 5.8121-4.7771 6.2151-5.76 3.0633-1.7643 5.3327-4.772 5.12-7.7715zm-1.6075 0.5635c0.85333 2.1219-2.6257 5.1226-4.7224 6.8295-1.3103 0.095-3.5117 0.1381-4.7947 0.4061 1.0048-1.0517 2.4112-1.9168 3.5126-2.6854-1.35 0.1099-3.9543-0.086-5.5006 0.54 0.94833-1.3194 5.602-1.8757 6.2576-1.9646-1.1656-0.038-3.269-0.2718-4.2143-0.6443 1.2917-0.7931 2.7468-0.8668 4.4056-0.5592 0.91611-0.54 1.7853-0.5901 2.7514-0.049 0.49158-0.5152 1.6091-1.6756 2.3049-1.8732zm62.487 27.061c1.319 0.2213 3.4839 1.5807 3.9187 3.5955-1.4635-0.7654-3.0531-0.7659-3.5679-0.5741-0.79133-0.4682-0.74142-2.3229-0.35083-3.0214zm-23.076 4.1037c0.57685 0.4489 1.6876 2.2236 1.5883 2.9746-0.70743 0.2268-2.6473 0.5483-3.368 1.701-1.3522-0.8191 0.45492-3.8438 1.7797-4.6756zm23.644 1.8753c1.1198 0.6733 1.7184 1.7855 1.8456 3.3765-1.3558-1.3305-2.8036-0.5531-3.3297-0.8547-0.29337-0.5983 0.31974-2.3732 1.4841-2.5218zm-3.5147 2.105c0.89561 0.9095 2.2721 4.7601 1.1588 6.3427-0.25795-0.2852-2.3014-1.8649-3.3212-3.9357-0.40619-1.2059 1.4046-2.3928 2.1624-2.407zm-12.135 1.4119c0.17928-0.015 0.35432-0.011 0.52094 0.01 0.22215 0.026 0.42793 0.083 0.60173 0.1658 0.5821 0.2765 1.0735 1.0371 1.2885 1.6075-0.3584 1.2028-2.2898 4.087-3.081 4.935-0.43582-1.3532-1.424-4.5463-0.86751-6.0683 0.43121-0.3999 0.99944-0.6047 1.5373-0.6485z" color="#000000" color-rendering="auto" image-rendering="auto" shape-rendering="auto" solid-color="#000000" style="block-progression:tb;isolation:auto;mix-blend-mode:normal;text-decoration-color:#000000;text-decoration-line:none;text-decoration-style:solid;text-indent:0;text-transform:none;white-space:normal"/>
  <g transform="matrix(1.0886 0 0 1.0886 -3.5562 -86.592)" fill="#fff" stroke="#000" stroke-width="1px">
   <path d="m13.7 1022.5c-0.07033-1.5511 0.52685-1.9896 1.149-2.3865 0.43301 1.1749 1.3049 2.985 0.61872 3.7123-1.0332 0.1844-1.1864-0.092-1.7678-1.3258z"/>
   <path d="m17.147 1020.9c-1.0539-0.1557-1.1133-0.8917-1.2374-2.2096-1.4e-4 -0.9132-1.0676-2.9213 0.17678-3.7124 1.0249-0.021 1.1141 1.9074 1.6794 2.5633 0.6575 0.7629 1.3258 1.7678 1.3258 1.7678-0.03903 1.1394-0.72728 1.6297-1.9445 1.5909z"/>
   <path d="m37.035 1004.6c-0.18465 0.929-0.18628 2.1109 0.97227 2.9168 0.79338-1.1038 1.3297-2.3512 1.2374-3.0936z"/>
   <path d="m32.704 1002.9c-0.15495 1.5146 0.12582 2.7867 1.149 3.3587 0.6286-0.7333 0.68314-1.8641 0.61872-2.8284z"/>
   <path d="m13.877 1001.7c-0.05023 1.6828 0.21173 2.0635 0.97227 3.2704 0.83787-0.8021 1.9516-1.3627 1.149-3.0052-1.002-0.3479-2.1213-0.2652-2.1213-0.2652z"/>
   <path d="m17.678 1003.2c0.03393 0.9972 0.57088 2.1102 1.4142 3.0052 0.39389-0.8696 1.1471-1.0875 1.149-2.7401-0.85442-0.9615-1.7088-0.3977-2.5633-0.2651z"/>
   <path d="m26.605 1002.9c-0.32223 1.836 0.0627 4.2611 0.88388 4.5079 0.78536-0.036 1.3364-2.4686 2.3865-5.5685-0.93786-0.5451-3.3732 0.6203-3.2704 1.0606z"/>
   <path d="m11.137 1e3c-1.0833 1.3553-1.6125 4.2132 0.17678 5.3917 0.54647 0.2488 0.96606-3.4257 1.591-4.5078z"/>
   <path d="m16.087 1025c-0.04767-0.8249-0.09525-1.6499 1.2374-2.4748 0.98828 1.4029 1.2494 2.515 1.0607 3.4471-0.58926 0.093-1.7088 0.6512-2.2981-0.9723z"/>
   <path d="m19.622 1026.1c-0.21463-0.7627 0.10984-1.8647 1.0607-3.0936 1.4546 1.1316 1.8114 1.941 1.4142 3.5356-0.81142 0.3924-1.8982 0.4246-2.4749-0.442z"/>
   <path d="m23.6 1026c-0.52963-0.8473-0.12375-1.9283 0.26516-3.0052 0.97838 0.5361 1.7585 1.2043 2.0329 2.2097-0.40383 0.6273-0.74989 1.3125-2.2981 0.7955z"/>
   <path d="m41.012 1003.4c0.2479 1.2307 0.39684 2.1852 1.2374 3.2704 0.94008-1.0018 1.1821-1.7384 0.70711-3.0937z"/>
   <path d="m44.901 1003.8c-0.31716 1.3578 0.50897 2.442 0.7955 2.8285 1.5488-0.8202 1.2871-1.5769 1.3258-2.8285z"/>
   <path d="m33.588 1022.6c-0.43589-0.4175-0.8204-0.8484 0.08839-2.3865 1.4786 0.075 1.7757 0.9375 1.8562 1.9445-0.64818 0.4657-1.2964 0.682-1.9445 0.442z"/>
   <path d="m26.163 1022.8c-0.44017-0.7816-1.3034-3.4731 0.08839-4.6846 1.1454 0.3937 1.4274 2.4005 2.1274 3.1621 0.49696 0.5407 1.3779 1.3863 1.2314 1.7876-0.19229 0.5273-0.0168 0.9337-1.3258 1.2376-0.96414 0.3423-1.4794-0.3216-2.1213-1.5027z"/>
   <path d="m21.618 1003.6c0.03393 0.9972 0.30571 1.6683 1.0607 2.9168 1.2778-0.6928 1.5007-0.9991 1.5026-2.6517-0.85442-0.9615-1.7088-0.3977-2.5633-0.2651z"/>
   <path d="m39.069 1020.9c-0.50399-0.3321-1.9321-2.2777-1.3154-3.9544 1.4679-0.1927 2.8878 2.1932 3.1484 3.1692-0.55365 0.5749-1.1522 0.9044-1.8331 0.7852z"/>
   <path d="m43.311 1018.5c-0.52714-0.2939-1.008-0.6139-0.51673-2.3315 1.4497-0.3006 1.9548 0.459 2.2868 1.4131-0.50968 0.6142-1.0823 0.9871-1.7701 0.9184z"/>
   <path d="m46.7 1015.8c-0.56517-0.2119-1.0884-0.4563-0.85953-2.2281 1.3884-0.514 2.0015 0.1616 2.4724 1.0553-0.41211 0.6835-0.92254 1.1378-1.6128 1.1728z"/>
   <path d="m49.428 1011.8c-0.57619-0.1798-1.1123-0.3944-0.98339-2.1763 1.3574-0.5911 2.0074 0.049 2.5278 0.9148-0.37305 0.7055-0.85714 1.1878-1.5444 1.2615z"/>
   <path d="m20.837 1017.9c-0.52019-0.3061-0.99344-0.6371-0.46253-2.3429 1.4562-0.2669 1.9436 0.5042 2.2534 1.4658-0.52378 0.6022-1.1049 0.9617-1.7909 0.8771z"/>
   <path d="m24.395 1014.9c-0.5254-0.297-1.7998-1.8572-1.2985-3.5719 1.4514-0.2921 2.7476 1.7079 3.0739 2.664-0.51328 0.6111-1.0881 0.9806-1.7754 0.9079z"/>
   <path d="m27.86 1012.1c-0.52929-0.2901-1.0124-0.6065-0.53387-2.3277 1.4474-0.3112 1.9581 0.4446 2.2971 1.3963-0.50515 0.6179-1.075 0.995-1.7633 0.9314z"/>
   <path d="m31.213 1009c-0.52799-0.2925-1.0097-0.611-0.52349-2.3301 1.4488-0.3048 1.9561 0.4534 2.2909 1.4065-0.50789 0.6157-1.0794 0.9902-1.7674 0.9236z"/>
  </g>
 </g>
</svg>
