<?xml version="1.0" encoding="UTF-8"?>
<svg xmlns:rdf="http://www.w3.org/1999/02/22-rdf-syntax-ns#" xmlns="http://www.w3.org/2000/svg" xmlns:cc="http://web.resource.org/cc/" xmlns:dc="http://purl.org/dc/elements/1.1/" id="Layer_1" style="enable-background:new 0 0 277.662 144.173" space="preserve" viewBox="0 0 277.662 144.173" version="1.1">
  <path id="path3" d="m106.64 129.8c-35.68 0-71.031 1.983-106.64 4.204 35.616 1.191 71.302 7.169 106.91 9.39 35.902 2.239 72.012-0.836 107.82-3.302 16.323-1.125 32.81-1.882 49.168-1.882 4.395 0 21.51-0.212 9.667-3.168-8.726-2.178-17.036 0.363-25.879 0.363-34.215 0-68.179-3.063-102.34-4.612-12.95-0.58-25.76-0.99-38.71-0.99" fill-rule="evenodd" clip-rule="evenodd" fill="#E6E6E6"/>
  <path id="path5" d="m94.011 131.2c-1.729 2.771-4.774-1.462-7.018-4.204 1.551 1.04 2.901 2.896 4.211 4.204-3.983 3.268-8.539-0.76-12.628-2.803 3.385 1.691 7.047 3.035 9.82 5.605h-9.82c2.626 0.124 4.453 0.75 7.015 1.401-2.793 1.327-6.291 3.122-9.821 2.805h21.047c-1.441-2.04-2.403-4.33-2.806-7" fill-rule="evenodd" clip-rule="evenodd" fill="#D8D0B8"/>
  <path id="path7" d="m196.44 103.17c-1.488 0.957-2.456 2.246-5.613 0 1.84 0 3.77-0.17 5.61 0" fill-rule="evenodd" stroke-miterlimit="10" clip-rule="evenodd" stroke-width="0" fill="#BFBFBF"/>
  <path id="path9" d="m101.02 135.41c2.035 0.821 3.682-0.779 2.806 2.805-1.02-1.03-1.89-1.59-2.81-2.81" fill-rule="evenodd" stroke-miterlimit="10" clip-rule="evenodd" stroke-width="0" fill="#BFBFBF"/>
  <path id="path11" d="m182.41 75.143c-0.773 0.866-2.061 0.325-1.402 2.803-0.22-1.482 0.48-1.781 1.4-2.803" fill-rule="evenodd" stroke-miterlimit="10" clip-rule="evenodd" stroke-width="0" fill="#7FCC66"/>
  <path id="path13" d="m181 77.946c-1.057-0.862-2.401-0.366-2.806-2.803 0.93 0.917 1.81 1.982 2.81 2.803" fill-rule="evenodd" stroke-miterlimit="10" clip-rule="evenodd" stroke-width="0" fill="#BFBFBF"/>
  <path id="path15" d="m182.41 76.544c-1.125 0.829-1.249 1.631-2.806 1.401 3.43-0.068 3.1-1.807 2.81-1.401" fill-rule="evenodd" stroke-miterlimit="10" clip-rule="evenodd" stroke-width="0" fill="#7FCC66"/>
  <path id="path17" d="m202.05 75.143c-0.569 1.438-0.566 2.433-2.806 2.803-0.591-0.589-2.212-2.211-2.807-2.803 1.83 0 3.81-0.219 5.62 0" fill-rule="evenodd" stroke-miterlimit="10" clip-rule="evenodd" stroke-width="0" fill="#98E57F"/>
  <path id="path19" d="m196.44 75.143c0.146-0.876 0-1.913 0-2.803 0.7 2.682-0.03 2.962 0 2.803" fill-rule="evenodd" stroke-miterlimit="10" clip-rule="evenodd" stroke-width="0" fill="#BFBFBF"/>
  <path id="path21" d="m182.41 59.726c0.274 8.98 0.842 12.042-2.806 19.623 5.293-1.801 5.691-5.151 7.016-9.812 2.105-7.412 2.342-15.208 7.017-22.425-7.8 1.123-8.35 6.49-11.23 12.614" fill-rule="evenodd" stroke-miterlimit="10" clip-rule="evenodd" stroke-width="0" fill="#7FCC66"/>
  <path id="path23" d="m199.24 75.143v-2.803 2.803" fill-rule="evenodd" stroke-miterlimit="10" clip-rule="evenodd" stroke-width="0" fill="#BFBFBF"/>
  <path id="path25" d="m148.73 24.689c-11.335-1.282-25.271 4.922-36.479 7.008-13.301 2.476-26.227 1.684-39.287-1.402-11.886-2.809-23.921-9.819-35.91-11.316-7.209-0.9-32.293-3.324-35.651 2.908 22.541 0 44.043 1.447 63.843 13.314 9.423 5.647 20.27 7.65 28.766 14.016 6.123 4.589 21.387 5.333 25.256 11.913 1.354 2.303-0.669 21.023-2.105 21.023-5.245 0-10.395 21.405-15.045 24.5-6.11 4.068-16.171 35.253 0.313 31.562-5.021-10.775-5.993-10.508 2.806-21.025 5.356-6.403 10.957-14.469 16.838-22.422 2.838-3.838 9.823-12.836 9.823-16.119 0-2.94 9.808-13.316 11.925-12.612 3.168 1.054 12.054 0.794 13.33 3.503 1.955 4.149-6.225 20.23-9.121 23.126-10.577 10.574 8.694 6.306 12.629 6.306 10.928 0 20.72-7.423 28.764-2.803 1.774 1.02 6.107 6.368 5.613 9.811h1.403c0-7.25-0.29-11.377-7.017-14.015-4.623-1.813-26.967 3.859-29.465-1.401-0.733-1.544 7.446-11.858 9.093-14.327 5.031-7.542 6.05-9.194 0.728-13.704 4.241-2.012 8.007-5.005 11.227-8.409-1.505 8.303 2.879 9.678 9.821 11.214 3.794 0.84 12.004 0.34 11.226 5.604-0.436 2.948-2.603 4.471-5.612 4.204v1.401c1.247-0.331 7.015-1.544 7.015-2.103 0-0.473 5.845-7.707 2.104-7.707-3.254 0-17.539-9.454-17.539-10.512 0-9.159 13.106-9.138 16.137-18.22 3.333-9.993 16.933-16.153 25.957-17.519 6.725-1.018 13.324-2.804 20.346-2.804 2.503 0 9.986-4.912 14.733-5.606 3.558-0.521 10.026 1.595 11.226-1.401 1.613-4.031-3.42-4.227-5.613-5.606-4.662-2.932-20.809-7.812-23.854-2.802-10.375-4.417-28.712 10.961-39.2 14.453-9.424 3.138-17.944 7.972-27.682 7.972-10.45 0.007-20.89 0.007-31.34 0.007" fill-rule="evenodd" clip-rule="evenodd" stroke-miterlimit="10" stroke-width="0" fill="#87e169"/>
  <path id="path27" d="m145.92 56.923c6.724-1.987 32.477-0.812 35.079-7.006 1.224 6.032-7.71 10.759-12.629 12.612 12.419 6.767-7.608 28.722-9.821 15.416-1.685 1.371-3.094 1.7-4.209 4.206 0.696-3.621 4.146-11.169 1.403-14.016-1.832-1.902-11.381-2.146-14.032-2.802 1.87-1.754 4.68-4.798 4.21-8.41" fill-rule="evenodd" clip-rule="evenodd" fill="#57b639"/>
  <path id="path29" d="m2.806 21.886c-4.039-2.229 3.762-2.804 6.264-2.804 5.918 0 11.74-1.401 17.59-1.401 12.457 0 23.497 6.218 35.079 9.812 24.541 7.615 43.574 3.991 68.102 0.493 11.216-1.6 20.727-3.296 32.222-3.296 6.291 0 12.664 0.301 18.942 0 6.603-0.316 9.307-2.165 15.435-4.205 12.285-4.091 38.973-23.132 50.512-18.219 3.685-6.061 27.088 1.341 29.467 7.007-8.279 0.866-15.152-2.803-23.151-2.803-3.353 0-11.282 7.299-16.137 8.409-11.189 2.559-18.102 1.647-28.063 9.11-5.745 4.304-13.109 8.197-15.433 14.716-2.859-3.101-8.479-2.533-12.629-1.402-1.057 0.288-3.512 2.153-5.612 2.804-2.991 0.927-3.219-0.314-4.209 2.804-5.848-3.398-19.277 5.917-22.452 9.811 0.145-0.882-0.24-1.944 0-2.802 0.143 8.086-11.576 27.205-21.046 25.226 1.187-1.582 5.665-5.557 3.508-7.707-3.779-3.771-1.711-10.53 0.703-13.315-2.556-1.657-2.164-6.653-5.614-7.008-3.754-0.386-5.823 7.568-7.015 9.811-1.277-4.657-6.628-3.636-9.823-4.204-4.416-0.784-13.712-3.888-17.538-7.708-3.271-3.268-12.759-6.866-17.591-8.073-8.549-2.134-15.702-7.519-23.801-10.848-16.554-6.803-30.813-4.021-47.724-4.208" fill-rule="evenodd" clip-rule="evenodd" fill="#009919"/>
  <path id="path31" d="m144.52 26.09c21.7 0 42.343 4.064 61.737-7.008" stroke="#009919" stroke-linecap="square" stroke-miterlimit="10" stroke-width=".7482" fill="none"/>
  <path id="path33" d="m145.92 26.09c21.323 0 41.257 3.884 60.335-7.008" stroke="#0A9E23" stroke-linecap="square" stroke-miterlimit="10" stroke-width=".7482" fill="none"/>
  <path id="path35" d="m145.92 26.09c21.884 0 40.227 3.037 60.335-7.008" stroke="#14A32D" stroke-linecap="square" stroke-miterlimit="10" stroke-width=".7482" fill="none"/>
  <path id="path37" d="m145.92 26.09c21.104 0 40.015 3.792 58.932-7.008" stroke="#1EA838" stroke-linecap="square" stroke-miterlimit="10" stroke-width=".7482" fill="none"/>
  <path id="path39" d="m145.92 26.09c20.882 0 38.771 3.701 57.528-7.008" stroke="#28AD42" stroke-linecap="square" stroke-miterlimit="10" stroke-width=".7482" fill="none"/>
  <path id="path41" d="m147.33 26.09c20.503 0 37.682 3.521 56.125-7.008" stroke="#32B24C" stroke-linecap="square" stroke-miterlimit="10" stroke-width=".7482" fill="none"/>
  <path id="path43" d="m157.15 47.113c0.544-1.14-0.1-1.9 1.403-2.803-1.452 1.292-2.907 2.761-4.209 4.204 0.913-2.039 0.754-2.569 1.403-5.605-0.277 3.083-0.885 3.151-2.806 5.605-0.006-1.353-0.188-2.866 0-4.204-1.294 2.807-2.285 5.538-4.212 8.41 3.6-0.304 5.08-3.056 8.43-5.607" fill-rule="evenodd" clip-rule="evenodd" fill="#007200"/>
  <path id="path45" d="m133.3 75.143c-1.703-0.331-2.226-2.811-2.808 0-0.468-0.468-0.936-0.935-1.403-1.402 5.613-3.906 3.53-10.154 2.809-18.219-0.295-3.299-0.354-5.957-4.211-9.811-3.946-3.941-7.743 5.437-8.418 8.409-1.946-1.632-3.729-2.109-5.612-4.203-0.849 2.07-1.787 1.617-2.807 2.802-1.338-4.862-22.172-11.698-29.467-15.418-11.243-5.734-25.602-11.648-37.779-14.689-13.286-3.317-24.525-2.128-37.989-2.128" stroke-width="0" stroke-miterlimit="10" fill="none"/>
  <path id="path47" d="m276.42 9.272c-7.863 0.748-13.903-2.803-21.047-2.803-4.299 0-12.515 4.594-17.149 7.682-3.085 2.055-9.227 0.67-13.019 1.428-5.721 1.143-9.702 4.495-14.785 7.034-8.333 4.163-12.634 9.861-16.784 16.092-2-2.474-4.863-3.878-8.42-2.103-4.839 2.416-7.345 1.983-12.627 3.504-7.359 2.12-20.34 7.192-23.855 12.614 0-0.758-0.258-2.097 0-2.802" stroke-width="0" stroke-miterlimit="10" fill="none"/>
  <path id="path49" d="m276.42 9.272c-15.547 1.479-23.033-5.222-36.17 3.529-8.868 5.907-21.906 1.221-30.87 10.174-5.748 5.743-12.712 9.752-15.744 15.729-2.878-3.121-7.468-2.579-11.226-0.701-2.191 1.095-9.27 1.551-10.523 2.803-4.693 4.686-17.953 5.536-23.153 11.914 0-0.82-0.22-2.018 0-2.802" stroke-width="0" stroke-miterlimit="10" fill="none"/>
  <path id="path51" d="m276.42 9.272c-7.264 0.67-14.141-2.803-21.047-2.803-4.841 0-10.198 5.732-16.137 7.708-5.529 1.841-10.758 0.794-16.442 3.065-5.829 2.329-8.202 3.299-13.414 6.771-6.507 4.335-12.867 9.019-15.744 14.69-6.214-4.339-15.015 1.37-21.047 2.802-6.965 1.654-18.959 5.208-23.855 11.213 0-0.82-0.22-2.018 0-2.802" stroke-width="0" stroke-miterlimit="10" fill="none"/>
  <path id="path53" d="m276.42 9.272c-5.218 0.464-13.728 0.152-18.24-2.102-4.521-2.258-10.946 3.362-15.436 5.606-9.596 4.797-23.499 1.75-31.181 9.421-5.53 5.522-16.227 9.89-17.928 17.909-3.154-4.628-12.632-4.11-14.032 1.401-5.92-4.956-26.647 10.762-28.062 8.411-0.868 1.218-2.449 1.528-2.809 4.203 0-1.379-0.132-2.831 0-4.203" stroke-width="0" stroke-miterlimit="10" fill="none"/>
  <path id="path55" d="m276.42 9.272c-5.057 0-11.688 0.317-15.436 0-2.063-0.175-4.854-1.401-7.716-1.401-2.991 0-1.486 2.803-4.21 2.803-3.899 0-4.615 3.071-7.718 4.205-4.714 1.723-8.971 0.67-13.725 1.62-10.917 2.181-15.645 5.551-24.16 12.395-4.903 3.941-7.525 8.48-11.224 9.811-0.975 0.351-4.387-2.015-7.017-0.701-4.234 2.116-4.442 2.103-7.717 2.103-6.888 0-25.831 7.493-28.766 14.015 0-0.759-0.258-2.097 0-2.802" stroke-width="0" stroke-miterlimit="10" fill="none"/>
  <path id="path57" d="m276.42 9.272h-16.838c-6.567 0-6.514-0.396-12.629 2.802-8.037 4.205-17.982 2.7-26.352 6.044-5.485 2.192-8.441 5.445-13.248 8.647-2.136 1.423-6.801 7.733-8.808 7.733-3.316 0-1.149 4.95-3.508 5.606-2.306 0.642-4.795-2.718-4.21-2.804-5.684 0.834-9.877 4.205-15.434 4.205-7.505 0-13.13 5.397-19.644 8.411-3.754 1.737-6.318 1.46-8.42 4.203 1.464-0.878 0.965-1.592 1.402-2.802" stroke-width="0" stroke-miterlimit="10" fill="none"/>
  <path id="path59" d="m276.42 9.272c-4.209 0-21.379-2.471-23.151-0.701-6.565 6.559-20.734 9.109-30.475 9.109-9.564 0-19.938 13.104-26.353 18.22-2.413 1.925-1.229 7.185-6.315 2.102-1.798-1.797-9.77 3.044-10.522 4.906-2.887-2.42-9.573-0.565-11.226 0-6.39 2.186-11.067 6.609-16.836 9.811v-1.401c-1.476 1.61-2.735 1.905-4.211 2.802 1.473-0.883 0.945-1.602 1.402-2.802" stroke-width="0" stroke-miterlimit="10" fill="none"/>
  <path id="path61" d="m275.01 9.272c-5.862 0-12.474-0.952-18.24 0-6.47 1.067-8.947 3.257-15.436 5.606-10.419 3.772-21.068 3.315-30.869 9.811-7.927 5.253-11.35 10.984-16.836 16.817-2.72-3.882-11.196-3.459-14.032 1.403-10.958-6.622-21.107 11.211-31.571 11.211-1.617 0 0.297-0.814 0.701-1.401" stroke-width="0" stroke-miterlimit="10" fill="none"/>
  <path id="path63" d="m133.3 75.143c-1.385 0.106-2.821 0-4.211 0 3.828-3.587 3.763-13.243 2.809-19.621-0.443-2.961-1.168-7.59-4.211-9.109-5.85-2.921-6.427 5.762-8.418 9.109-2.174-2.831-3.214-2.845-5.612-4.204 2.737 1.551-6.797-1.401-4.912-1.401-5.041 0-8.735-2.645-14.731-5.607-12.113-5.985-25.159-10.831-37.885-16.818-15.675-7.375-31.887-7.008-49.111-7.008" stroke-width="0" stroke-miterlimit="10" fill="none"/>
  <path id="path65" d="m133.3 75.143c-5.877 0.211-2.628-1.363-2.808-2.803-0.354-2.837 0-9.859 0-13.314 0-2.525 1.405-3.135 1.405-5.605 0-0.69-2.809-1.314-2.809-4.905 0-3.178-7.015-0.799-7.015 0.701 0 2.68-2.444 4.936-2.806 7.708-0.71-1.863-1.601-2.438-2.807-4.204v1.401c-3.047-1.217-5.757-1.14-7.017-4.203v1.401c-4.811-2.511-8.221-3.161-12.627-5.606-6.407-3.556-13.135-7.455-21.047-9.811-11.681-3.479-22.607-9.344-34.247-13.704-9.516-3.564-23.046-1.713-33.103-1.713" stroke-width="0" stroke-miterlimit="10" fill="none"/>
  <path id="path67" d="m133.3 75.143c-1.008 0.425-1.843-0.401-1.402 1.401-1.047-0.225-2.875-1.042-4.211-1.401 2.013-3.868 2.806-5.777 2.806-9.108 0-5.695-1.75-7.188 1.405-11.914-5.222-1.457-0.169-6.677-5.614-7.008-5.075-0.309-5.091 6.658-7.015 9.811-1.492-2.372-2.832-3.313-5.612-4.204-0.624 0.648-9.216-1.311-12.629-2.802-0.892-0.39-2.978-2.154-4.209-2.805-2.683-1.417-0.438-2.803-4.209-2.803-1.222 0-4.029-1.219-4.913-2.103-4.205-4.204-12.428-5.106-17.845-7.271-6.156-2.459-11.683-6.381-17.933-8.847-13.542-5.342-26.284-5.606-40.691-5.606" stroke-width="0" stroke-miterlimit="10" fill="none"/>
  <path id="path69" d="m133.3 75.143c-2.42 0.571-2.898-0.196-4.211 1.401-0.936-0.467-1.87-0.935-2.806-1.401 7.276-4.429 2.518-29.708-1.091-27.303-3.489 2.325-1.624 7.59-4.521 9.083-1.954 1.007-2.76-2.803-4.911-2.803-5.508 0-5.65-2.564-9.121-4.203-4.733-2.235-6.98 0.031-10.523-3.505-4.533-4.526-14.331-6.859-20.345-9.111-22.292-8.343-40.268-16.817-64.546-16.817" stroke-width="0" stroke-miterlimit="10" fill="none"/>
  <path id="path71" d="m131.9 76.544c-1.848 0.139-3.761 0-5.614 0v-1.401c3.774-2.382 3.361-11.909 2.806-18.22-0.27-3.067-0.468-9.145-4.209-8.409-3.938 0.774-2.555 6.963-5.611 9.811-1.484-7.509-15.064-3.083-19.645-9.811v1.403c-7.256-7.86-21.889-11.831-31.965-15.856-18.852-7.525-33.409-13.471-53.638-12.175" stroke-width="0" stroke-miterlimit="10" fill="none"/>
  <path id="path73" d="m131.9 76.544c-1.632 1.602-3.938 1.269-7.018 0 3.785-5.422 5.591-14.549 4.209-21.022-2.808-13.152-5.771-0.567-9.82 4.204-0.412-3.426-2.597-4.639-5.612-5.605-2.138 2.967-24.687-9.524-29.519-11.938-22.922-11.449-43.822-20.297-70.109-20.297" stroke-width="0" stroke-miterlimit="10" fill="none"/>
  <path id="path75" d="m131.9 77.946c-2.975 0.589-6.203 0.267-8.421-1.401 9.741-5.054 3.831-18.967 2.807-26.627-4.248 1.52-4.626 6.296-5.611 9.809-1.995-2.481-4.503-4.252-7.016-5.605-0.068 0.912-0.033 1.889 0 2.803-2.4-2.081-3.325-1.951-4.211-4.204v1.401c-24.49-12.055-59.496-32.236-92.612-32.236" stroke-width="0" stroke-miterlimit="10" fill="none"/>
  <path id="path77" d="m188.02 30.294c0.817 0.613 4.479 4.732 5.614 4.205 2.31-1.073 1.353-6.903 0-8.409 0.275 1.813-0.116 3.774 0 5.606-1.285-1.46-3.069-2.634-4.211-4.205 1.738 1.693 2.053 2.703 4.211 4.205-2.32-0.175-3.63-0.67-5.61-1.402" fill-rule="evenodd" clip-rule="evenodd" fill="#007200"/>
  <path id="path79" d="m96.816 47.113c0.886 0.84 2.2 0.13 1.402 2.805 0.648-2.439-0.514-1.964-1.402-2.805" fill-rule="evenodd" clip-rule="evenodd" fill="#7FD866"/>
  <path id="path81" d="m99.622 47.113c0.556 1.418 0.917 2.75 1.403 4.206 0.04-1.694-0.73-2.666-1.398-4.206" fill-rule="evenodd" clip-rule="evenodd" fill="#7FD866"/>
  <path id="path83" d="m101.02 48.514c0.834 1.451 0.938 3.014 2.806 4.206-0.23-2.565-1.59-3.207-2.81-4.206" fill-rule="evenodd" clip-rule="evenodd" fill="#7FD866"/>
  <path id="path85" d="m103.83 49.917c0.891 1.341 0.945 3.017 2.807 4.203-0.46-1.841-1.67-3.038-2.81-4.203" fill-rule="evenodd" clip-rule="evenodd" fill="#7FD866"/>
  <path id="path87" d="m106.64 49.917c1.65 2.708 2.974 5.648 4.21 7.006-1.78-1.645-0.99-5.683-4.21-7.006" fill-rule="evenodd" clip-rule="evenodd" fill="#7FD866"/>
  <path id="path89" d="m110.85 52.72c0.157 2.832 0.007 4.871 2.807 5.605-1.06-1.323-4.55-7.243-2.81-5.605" fill-rule="evenodd" clip-rule="evenodd" fill="#7FD866"/>
  <path id="path91" d="m112.25 52.72c1.008 2.695 1.731 5.798 4.209 7.006-1.55-2.211-3.02-5.68-4.21-7.006" fill-rule="evenodd" clip-rule="evenodd" fill="#7FD866"/>
  <path id="path93" d="m115.06 52.72c1.173 2.798 1.95 5.848 4.209 8.409-2.81-2.552-2.77-6.722-4.21-8.409" fill-rule="evenodd" clip-rule="evenodd" fill="#7FD866"/>
  <path id="path95" d="m116.46 52.72c1.442 2.566 1.922 5.244 2.807 8.409 0.53-3.189-0.38-6.264-2.81-8.409" fill-rule="evenodd" clip-rule="evenodd" fill="#7FD866"/>
  <path id="path97" d="m116.46 48.514c-0.139 1.85 0 3.75 0 5.606h1.403c0-2.185 0.475-4.895 0-7.008 0.49 1.995-0.59 0.763-1.4 1.402" fill-rule="evenodd" clip-rule="evenodd" fill="#007200"/>
  <path id="path99" d="m113.65 47.113c0.524 2.487 1.456 4.829 2.806 7.008-0.21-2.966-1.36-5.939-2.81-7.008" fill-rule="evenodd" clip-rule="evenodd" fill="#007200"/>
  <path id="path101" d="m112.25 47.113c-0.152 1.838 0 3.757 0 5.607h1.403c-0.16-2.213-0.57-3.754-1.4-5.607" fill-rule="evenodd" clip-rule="evenodd" fill="#007200"/>
  <path id="path103" d="m109.44 47.113c0.011 2.441-0.347 3.808 1.404 5.607 0.57-2.822-0.6-4.473-1.4-5.607" fill-rule="evenodd" clip-rule="evenodd" fill="#007200"/>
  <path id="path105" d="m106.64 47.113c0.614 1.91-0.509 2.786 1.403 4.206-0.49-1.481-0.89-2.734-1.4-4.206" fill-rule="evenodd" clip-rule="evenodd" fill="#007200"/>
  <path id="path107" d="m103.83 47.113c0.267 1.284 0 2.875 0 4.206h1.403c-1.05-3.327-1.21-4.287-1.4-4.206" fill-rule="evenodd" clip-rule="evenodd" fill="#007200"/>
  <path id="path109" d="m101.02 45.712c0.285 2.336-0.908 3.679 1.403 4.206-1.79-1.416-1.1-2.26-1.4-4.206" fill-rule="evenodd" clip-rule="evenodd" fill="#007200"/>
  <path id="path111" d="m98.219 44.31c0.561 1.411 0.919 2.752 1.403 4.204-0.061-2.597-0.504-2.528-1.403-4.204" fill-rule="evenodd" clip-rule="evenodd" fill="#007200"/>
  <path id="path113" d="m96.816 42.909c0.284 2.335-0.907 3.678 1.402 4.204-1.797-1.415-1.11-2.259-1.402-4.204" fill-rule="evenodd" clip-rule="evenodd" fill="#007200"/>
  <path id="path115" d="m1.402 20.484c19.88-8.177 41.505 1.165 60.336 7.008 21.134 6.558 40.414 6.728 61.736 1.401 3.476 6.807 14.417 6.641 8.421-1.401 2.11 1.465 3.023 4.046 4.209 7.007 1.537-1.897 2.026-0.948 2.806-2.802 4.315 3.552 7.486 0.074 4.209-4.205 0.595-1.732 1.667 0.471 0-2.803 1.572 1.768 1.862 5.776 5.611 5.605v1.402c-0.866 0.177-1.92-0.032-2.806 0v1.401c3.687 0.509 8.524-0.188 9.823-2.803 1.798 1.01 2.37 0.755 4.209 1.402-0.538-4.01-4.598-4.468-8.418-7.008 6.536 0.87 8.942 8.508 15.433 7.008-0.648-3.241-0.754-3.767-1.402-7.008h1.402c-0.426 4.022 0.993 10.306 5.614 11.212 5.095 0.999 4.209-6.722 4.209-11.212 0.593 1.479 2.186 8.409 3.507 8.409 4.525 0 7.239-1.575 2.104-2.803 2.052-0.66 3.297-0.948 4.21-1.401-1.088 4.701 2.213 5.447 5.613 2.804-1.706-2.548-1.233-4.496 0-7.008h1.403c-0.273 1.814 0.142 3.779 0 5.605 3.461-3.968 8.87-5.516 8.418-11.212 0.351 1.227 0.986 1.688 1.402 2.804 2.826-3.249 8.648-3.485 7.016-7.008 1.117 0.613 1.603-0.557 1.403 1.401 3.756-0.966 7.926-2.439 11.226-4.205-1.019-1.032-1.514-1.973-2.807-2.802 3.74 2.324 11.841 2.82 12.629-2.803 2.477 2.14 4.692 0.739 2.807-2.804 0.732 1.178 1.164 0.246 1.402 2.804 1.914-1.912 2.421-1.229 2.807-4.205 0.961 6.265 3.993 3.104 8.418 2.802-4.17 0.063-6.307 3.693-1.403 4.205-2.556-0.396-3.407-0.553-5.612-1.401-2.699 2.064-3.378 4.991-8.418 7.007-2.832 1.133-13.249-3.912-12.629 2.803-2.484-2.261-8.886 0.309-8.419 5.606-4.999-3.721-7.46-0.448-8.419 4.206v-1.402c-1.955 3.298-10.376 5.417-9.82 11.211-1.591-5.458-11.117-2.337-12.629 1.402-2.016-0.464-0.513 0.058-1.403-1.402-3.089 0.572-0.797 2.007-2.806 0-2.666 3.475-10.514 2.709-15.436 4.205 0.262-0.08-6.245 0.934-7.015 1.403-2.299 1.402-3.427 4.654-5.614 7.008-0.006-0.934 0.028-1.871 0-2.805-1.235 5.537-8.113 12.586-7.015 18.222 0.174-0.897-0.201-1.914 0-2.805-1.847 1.753-2.761 4.908-4.209 7.008h1.403c-3.034 0.896-2.415 1.061-4.209 2.803 0.904-1.267 1.018-0.244 1.403-2.803-1.985 1.891-2.336 0.763-2.807 4.203-0.679-1.947-0.976-3.346-1.402-4.203 6.596-1.376 3.019-8.629-2.809-8.409 8.162 2.803 7.018-0.101 7.018-8.409-1.269 0.431-3.119 0.723-4.209 1.401 3.124-1.224 4.996-11.211 0.701-11.211-8.139 0-11.671 3.581-13.33 11.211-0.111-3.109 0.084-4.515 1.403-7.008-2.307 1.455-2.841 1.75-4.21 4.206 0.41-4.571-3.833-5.35-5.612-2.804-1.379-0.852-4.546-1.664-7.017-2.802-1.724 2.762-4.486 0.017-7.015-2.803-1.634 2.752-22.691-10.139-29.159-11.432-10.586-2.116-19.346-7.337-29.824-9.955-7.762-1.938-20.869 0.931-26.607-2.44-1.821 1.807-6.621 2.759-9.793 1.402" fill-rule="evenodd" clip-rule="evenodd" fill="#59D859"/>
  <path id="path117" d="m61.738 28.893c10.19 2.193 19.023 5.684 29.49 6.73 10.244 1.023 19.558-4.429 29.441-3.926" stroke="#59D859" stroke-linecap="square" stroke-miterlimit="10" stroke-width=".7482" fill="none"/>
  <path id="path119" d="m63.141 30.294c9.32 2.442 17.971 4.205 27.596 4.205h14.966c4.724 0 8.582-3.307 13.564-2.802" stroke="#5FDB5F" stroke-linecap="square" stroke-miterlimit="10" stroke-width=".7482" fill="none"/>
  <path id="path121" d="m63.141 30.294c9.32 2.442 17.971 4.205 27.596 4.205 9.39 0 18.221-2.695 27.127-2.802" stroke="#6d6" stroke-linecap="square" stroke-miterlimit="10" stroke-width=".7482" fill="none"/>
  <path id="path123" d="m63.141 30.294c9.32 2.442 17.971 4.205 27.596 4.205 8.844 0 17.52-2.902 25.724-2.802" stroke="#6CDF6C" stroke-linecap="square" stroke-miterlimit="10" stroke-width=".7482" fill="none"/>
  <path id="path125" d="m64.544 30.294c8.997 2.249 16.896 4.205 26.192 4.205 8.844 0 17.52-2.902 25.724-2.802" stroke="#73E173" stroke-linecap="square" stroke-miterlimit="10" stroke-width=".7482" fill="none"/>
  <path id="path127" d="m65.946 30.294c17.716 6.289 31.44 1.207 49.111 1.402" stroke="#79E379" stroke-linecap="square" stroke-miterlimit="10" stroke-width=".7482" fill="none"/>
  <path id="path129" d="m65.946 30.294c12.176 2.862 36.659 10.224 47.708 1.402" stroke="#7FE57F" stroke-linecap="square" stroke-miterlimit="10" stroke-width=".7482" fill="none"/>
  <path id="path131" d="m145.92 42.909c0.567 5.062-1.229 9.29-2.806 14.014" stroke="#59D859" stroke-linecap="square" stroke-miterlimit="10" stroke-width="2.2447" fill="none"/>
  <path id="path133" d="m145.92 42.909c0.567 5.062-1.229 9.29-2.806 14.014" stroke="#68DF63" stroke-linecap="square" stroke-miterlimit="10" stroke-width="2.2447" fill="none"/>
  <path id="path135" d="m145.92 42.909c0.567 5.062-1.229 9.29-2.806 14.014" stroke="#77E56E" stroke-linecap="square" stroke-miterlimit="10" stroke-width="1.4965" fill="none"/>
  <path id="path137" d="m145.92 42.909c0.316 4.221-0.285 8.541-1.402 12.613" stroke="#85EB79" stroke-linecap="square" stroke-miterlimit="10" stroke-width=".7482" fill="none"/>
  <path id="path139" d="m145.92 42.909c1.547 3.628-0.711 8.096-1.402 12.613" stroke="#94F283" stroke-linecap="square" stroke-miterlimit="10" stroke-width=".7482" fill="none"/>
  <path id="path141" d="m145.92 42.909c1.541 3.139-0.917 7.006-1.402 11.211" stroke="#A3F88E" stroke-linecap="square" stroke-miterlimit="10" stroke-width=".7482" fill="none"/>
  <path id="path143" d="m145.92 44.31c2.397 2.135 0.592 6.029-1.402 9.811" stroke="#B2FF99" stroke-linecap="square" stroke-miterlimit="10" stroke-width=".7482" fill="none"/>
  <path id="path145" d="m238.53 9.272c-0.983-0.458-1.851 0.431-1.403-1.401-3.419 1-7.618 1.778-8.42 4.204 3.69 2.527 9.93 1.648 9.82-2.803" fill-rule="evenodd" clip-rule="evenodd" fill="#009919"/>
  <path id="path147" d="m159.96 41.506c-3.603 4.448-5.114-10.734 5.612-2.802-1.67 0.832-3.88 2.432-5.61 2.802" fill-rule="evenodd" clip-rule="evenodd" fill="#009919"/>
  <path id="path149" d="m134.7 52.72c0.331-2.144 1.691-3.243 1.403-5.607 2.89 2.619 4.43 6.285-1.4 5.607" fill-rule="evenodd" clip-rule="evenodd" fill="#009919"/>
  <path id="path151" d="m137.51 52.72c-1.57 1.432-2.271 2.858 0 5.605 1.72-2.344 1.05-3.39 0-5.605" fill-rule="evenodd" clip-rule="evenodd" fill="#009919"/>
  <path id="path153" d="m136.1 62.53c-0.258 1.104 0.264 1.81-1.403 1.402 0.468 0.468 0.936 0.935 1.403 1.402 0-0.85-0.19-1.979 0-2.804" fill-rule="evenodd" clip-rule="evenodd" fill="#009919"/>
  <path id="path155" d="m136.1 66.735c0.154 0.867 0 1.92 0 2.803 1.1-2.082 0.03-2.636 0-2.803" fill-rule="evenodd" clip-rule="evenodd" fill="#009919"/>
  <path id="path157" d="m137.51 66.735c0.195-0.822 0-1.955 0-2.803 2.39 1.448 0.34 1.346 0 2.803" fill-rule="evenodd" clip-rule="evenodd" fill="#009919"/>
  <path id="path159" d="m137.51 62.53c-0.588-1.584-1.437-2.484-1.402-4.205 3.57 0.616 3.63 2.29 1.4 4.205" fill-rule="evenodd" clip-rule="evenodd" fill="#009919"/>
  <path id="path161" d="m136.1 47.113c-0.292-1.649-1.537-1.103 0-2.803 0 0.884-0.15 1.935 0 2.803" fill-rule="evenodd" clip-rule="evenodd" fill="#009919"/>
  <path id="path163" d="m138.91 45.712v2.802-2.802" fill-rule="evenodd" clip-rule="evenodd" fill="#009919"/>
  <path id="path165" d="m141.72 59.726c-0.287 1.721 0.811 2.865-1.402 2.804 2.23 0.187 1.11-1.085 1.4-2.804" fill-rule="evenodd" clip-rule="evenodd" fill="#009919"/>
  <path id="path167" d="m151.54 45.712c-0.756 0.352-0.331 2.059-2.809 1.401v-1.401c0.69 0 2.2 0.286 2.81 0" fill-rule="evenodd" clip-rule="evenodd" fill="#009919"/>
  <path id="path169" d="m115.06 47.113c0.903-1.035 1.622-1.312 1.402-2.803 0.81 2.722-0.65 1.945-1.4 2.803" fill-rule="evenodd" clip-rule="evenodd" fill="#009919"/>
  <path id="path171" d="m260.98 5.067c0.936-0.467 1.871-0.934 2.807-1.401-2.828-2.643-7.293-4.471-8.418 0" stroke-width="0" stroke-miterlimit="10" fill="none"/>
  <path id="path173" d="m260.98 5.067c1.938-3.923-4.403-6.204-5.611-1.401" stroke-width="0" stroke-miterlimit="10" fill="none"/>
  <path id="path175" d="m260.98 5.067c2.379-3.359-3.558-4.962-5.611-1.401" stroke-width="0" stroke-miterlimit="10" fill="none"/>
  <path id="path177" d="m260.98 5.067c1.615-1.995-3.919-4.184-5.611-1.401" stroke-width="0" stroke-miterlimit="10" fill="none"/>
  <path id="path179" d="m259.58 5.067c3.153-2.599-2.672-3.789-4.209-1.401" stroke-width="0" stroke-miterlimit="10" fill="none"/>
  <path id="path181" d="m255.37 3.666c1.561-2.424 4.491-1.914 5.611 1.401-2.14 0.261-3.75-0.333-5.61-1.401" stroke-width="0" stroke-miterlimit="10" fill="none"/>
  <path id="path183" d="m260.98 3.666c-1.61-1.983-3.774-1.606-5.611 0 2.67 2.217 4.12 1.551 5.61 0" fill-rule="evenodd" stroke-miterlimit="10" clip-rule="evenodd" stroke-width="0" fill="#B2D88C"/>
  <path id="path185" d="m256.77 3.666c1.397-0.055 2.81 0 4.208 0v-1.401c-2.78-0.666-3.18 0.709-4.21 1.401" fill-rule="evenodd" clip-rule="evenodd" fill="#8CB265"/>
  <path id="path187" fill-rule="evenodd" clip-rule="evenodd" d="m259.58 2.265c0.743 2.047-0.586 3.568 2.806 2.802-1.03-1.025-1.59-1.907-2.81-2.802"/>
  <path id="path189" fill-rule="evenodd" clip-rule="evenodd" d="m256.77 2.265c-0.282 0.625 0 2.104 0 2.802-2.75-2.343-0.44-1.829 0-2.802"/>
  <path id="path191" d="m260.98 3.666c-0.409 1.017 0.389 1.839-1.402 1.401 1.79 0.438 0.99-0.384 1.4-1.401" fill-rule="evenodd" clip-rule="evenodd" fill="#595959"/>
  <path id="path193" d="m256.77 2.265v2.802-2.802" fill-rule="evenodd" clip-rule="evenodd" fill="#595959"/>
  <path id="path195" fill-rule="evenodd" clip-rule="evenodd" d="m258.18 2.265c0.285 0.61 0 2.117 0 2.802h1.402c0.66-2.48-1.05-2.045-1.4-2.802"/>
  <path id="path197" d="m259.58 2.265" fill-rule="evenodd" clip-rule="evenodd" fill="#E5E5E5"/>
  <path id="path199" d="m273.61 6.469c0.028 0.127-0.502 1.821 2.806 2.803-0.94-0.934-1.87-1.869-2.81-2.803" fill-rule="evenodd" clip-rule="evenodd" fill="#009919"/>
  <path id="path201" d="m272.21 6.469c1.65 1.341 2.072 2.591 4.211 2.803-1.88-1.465-2.85-1.981-4.21-2.803" fill-rule="evenodd" clip-rule="evenodd" fill="#008506"/>
  <path id="path203" d="m272.21 6.469c0.99 0.858 1.881 1.876 2.808 2.803-0.86-1.879-1.88-1.994-2.81-2.803" fill-rule="evenodd" clip-rule="evenodd" fill="#007200"/>
  <path id="path205" d="m272.21 6.469c1.62 1.597 2.41 0.894 2.808 2.803-0.86-1.89-1.75-2.038-2.81-2.803" fill-rule="evenodd" clip-rule="evenodd" fill="#005F00"/>
  <path id="path207" d="m273.61 7.871c-0.189-1.134 0.207-1.796-1.405-1.401 0.813 0.591 2.808 1.589 2.808 2.102 0 1.558-0.89-0.218-1.4-0.701" fill-rule="evenodd" clip-rule="evenodd" fill="#004C00"/>
  <path id="path209" d="m255.37 0.863c-0.824 1.071-0.774 1.548-1.403 2.803-0.67-2.5 0.73-1.933 1.4-2.803" fill-rule="evenodd" clip-rule="evenodd" fill="#007200"/>
  <path id="path211" d="m263.79 2.265c0.18 1.639 1.569 1.067 0 2.802 1.57-1.735 0.18-1.163 0-2.802" fill-rule="evenodd" clip-rule="evenodd" fill="#007200"/>
  <path id="path213" d="m262.38 5.067c-1.955 1.087-2.406 2.063-5.611 0 3.476 3.118 8.329 0.4 12.627 1.402-2.57-0.105-4.59-0.81-7.02-1.402" fill-rule="evenodd" clip-rule="evenodd" fill="#007200"/>
  <path id="path215" d="m272.21 6.469" fill-rule="evenodd" clip-rule="evenodd" fill="#007200"/>
  <path id="path217" d="m251.16 0.863v2.803-2.803" fill-rule="evenodd" clip-rule="evenodd" fill="#007200"/>
  <path id="path219" d="m246.95 0.863v2.803-2.803" fill-rule="evenodd" clip-rule="evenodd" fill="#007200"/>
  <path id="path221" d="m242.74 2.265c0.285 1.259 0.016 1.97 1.403 2.802-2.29 0.193-1.01-1.101-1.4-2.802" fill-rule="evenodd" clip-rule="evenodd" fill="#007200"/>
  <path id="path223" d="m238.53 3.666c0.336 0.63 2.369 1.401 0.701 1.401-1.47 0-0.22-0.512-0.7-1.401" fill-rule="evenodd" clip-rule="evenodd" fill="#007200"/>
  <path id="path225" d="m190.82 33.098c0.688 1.463 1.344 2.333 2.808 4.204-0.26-3.096-0.96-5.125-2.81-4.204" fill-rule="evenodd" clip-rule="evenodd" fill="#32BF32"/>
  <path id="path227" d="m190.82 30.294c1.13 1.834 2.583 1.951 2.808 4.205h1.402c-0.31-2.645-1.97-3.478-4.21-4.205" fill-rule="evenodd" clip-rule="evenodd" fill="#32BF32"/>
  <path id="path229" d="m193.63 28.893c0.759 1.646 1.895 2.003 1.402 4.205h1.403c-0.44-2.971-0.96-5.457-2.8-4.205" fill-rule="evenodd" clip-rule="evenodd" fill="#32BF32"/>
  <path id="path231" d="m179.6 38.704c0.881-1.457 0.23-2.925 2.806-2.803-1.79 0.371-1.4 1.147-2.81 2.803" fill-rule="evenodd" clip-rule="evenodd" fill="#32BF32"/>
  <path id="path233" d="m148.73 47.113c-0.939-5.596-4.123-9.974-9.82-9.811 5.51-1.534 10.95 4.366 9.82 9.811" fill-rule="evenodd" clip-rule="evenodd" fill="#32BF32"/>
  <path id="path235" d="m148.73 34.499c4.047 2.809 2.809 8.178 2.809 12.614 0-4.603 0.74-9.005-2.81-12.614" fill-rule="evenodd" clip-rule="evenodd" fill="#32BF32"/>
  <path id="path237" d="m151.54 44.31c0.755-1.182 2.181-2.419 1.403-5.606 1.87 3.409 1.08 4.188-1.4 5.606" fill-rule="evenodd" clip-rule="evenodd" fill="#32BF32"/>
  <path id="path239" d="m144.52 37.302c-2.229-5.193-12.375-1.629-16.838 0 3.65-1.336 19.36-5.04 16.84 0" fill-rule="evenodd" clip-rule="evenodd" fill="#32BF32"/>
  <path id="path241" d="m116.46 49.917c0.551-6.01 4.522-10.162 7.015-15.418-1.51 4.772-3.95 12.698-7.02 15.418" fill-rule="evenodd" clip-rule="evenodd" fill="#32BF32"/>
  <path id="path243" d="m113.65 47.113c1.375-1.609 2.388-6.625 4.209-8.409-1.51 3.015-0.38 10.648-4.21 8.409" fill-rule="evenodd" clip-rule="evenodd" fill="#32BF32"/>
  <path id="path245" d="m109.44 47.113c1.363-3.77 1.004-7.87 2.808-11.212-1.09 3.845-0.53 9.491-2.81 11.212" fill-rule="evenodd" clip-rule="evenodd" fill="#32BF32"/>
  <path id="path247" d="m112.25 47.113c-0.053-3.797 0.809-8.157 2.807-9.811-1.84 1.943-1.15 6.13-2.81 9.811" fill-rule="evenodd" clip-rule="evenodd" fill="#32BF32"/>
  <path id="path249" d="m106.64 47.113c-0.596-3.011-0.18-5.863 1.403-7.007-1.48 1.179-1.95 3.986-1.4 7.007" fill-rule="evenodd" clip-rule="evenodd" fill="#32BF32"/>
  <path id="path251" d="m106.64 47.113v-4.204 4.204" fill-rule="evenodd" clip-rule="evenodd" fill="#009919"/>
  <path id="path253" d="m103.83 47.113v-7.007 7.007" fill-rule="evenodd" clip-rule="evenodd" fill="#32BF32"/>
  <path id="path255" d="m101.02 45.712v-5.606 5.606" fill-rule="evenodd" clip-rule="evenodd" fill="#32BF32"/>
  <path id="path257" d="m98.219 44.31v-2.804 2.804" fill-rule="evenodd" clip-rule="evenodd" fill="#32BF32"/>
  <path id="path259" d="m189.42 49.917c2.456-2.527 6.579-6.369 9.823-9.812 7.775-8.254 13.254-20.793 25.256-22.425v1.401c-0.87 0.197-1.96-0.271-2.807 0 3.311 1.629 22.952-0.511 26.659-4.204-0.468-0.467-0.936-0.934-1.403-1.401 1.441 1.155 3.025 1.97 4.209 2.802v-1.401c-1.239-0.546-1.548-0.428-2.806-1.401 1.902 0.78 3.593 0.794 5.613 1.401-1.088-0.902-1.344-1.305-2.808-2.804 2.054 2.373 4.384 3.936 5.614 0-0.874-0.157-1.961 0.26-2.807 0 0.772-0.22 2.211 0.159 1.403-1.401 2.091 1.288 17.652 2.091 21.047 0v1.401c-18.173 0-27.626 7.008-44.199 7.008-11.131 0-14.999 9.431-22.45 11.914-4.24 1.413-5.574 8.37-8.418 11.212-3.96 3.979-7.87 4.875-11.91 7.71" fill-rule="evenodd" clip-rule="evenodd" fill="#57b639"/>
  <path id="path261" d="m117.86 52.72c-1.03 1.029-1.02 1.023 0 0" fill-rule="evenodd" clip-rule="evenodd" fill="#268C26"/>
  <path id="path263" d="m116.46 52.72c-1.03 1.028-1.02 1.024 0 0" fill-rule="evenodd" clip-rule="evenodd" fill="#268C26"/>
  <path id="path265" d="m113.65 52.72c-1.03 1.029-1.02 1.023 0 0" fill-rule="evenodd" clip-rule="evenodd" fill="#268C26"/>
  <path id="path267" d="m110.85 52.72c-0.21-0.801 0-1.97 0-2.802-2.11 2.524-0.13 2.296 0 2.802" fill-rule="evenodd" clip-rule="evenodd" fill="#268C26"/>
  <path id="path269" d="m108.04 51.318c-0.706-0.704 0.657-1.905-1.403-1.401 0.86 1.442 2.84 2.834 1.4 1.401" fill-rule="evenodd" clip-rule="evenodd" fill="#268C26"/>
  <path id="path271" d="m105.23 49.917c-1.03 1.029-1.02 1.023 0 0" fill-rule="evenodd" clip-rule="evenodd" fill="#268C26"/>
  <path id="path273" d="m102.43 49.917c-0.706-0.706 0.658-1.907-1.403-1.403-0.51 2.062 0.69 0.697 1.4 1.403" fill-rule="evenodd" clip-rule="evenodd" fill="#268C26"/>
  <path id="path275" d="m99.622 47.113" fill-rule="evenodd" clip-rule="evenodd" fill="#268C26"/>
  <path id="path277" d="m96.816 47.113c1.54 0 1.54 0 0 0" fill-rule="evenodd" clip-rule="evenodd" fill="#268C26"/>
  <path id="path279" d="m169.78 62.53c-2.373 5.45-17.926 4.205-23.853 4.205" stroke-width="0" stroke-miterlimit="10" fill="none"/>
  <path id="path281" d="m169.78 62.53c-3.729 4.854-17.131 4.205-23.853 4.205" stroke-width="0" stroke-miterlimit="10" fill="none"/>
  <path id="path283" d="m169.78 62.53c-6.579 4.774-15.818 4.205-23.853 4.205" stroke-width="0" stroke-miterlimit="10" fill="none"/>
  <path id="path285" d="m169.78 62.53c-7.428 4.016-15.134 4.205-23.853 4.205" stroke-width="0" stroke-miterlimit="10" fill="none"/>
  <path id="path287" d="m168.38 62.53c-6.354 4.472-14.432 4.205-22.45 4.205" stroke-width="0" stroke-miterlimit="10" fill="none"/>
  <path id="path289" d="m168.38 62.53c-5.319 4.181-15.28 3.183-22.45 4.205" stroke-width="0" stroke-miterlimit="10" fill="none"/>
  <path id="path291" d="m168.38 62.53c-7.41 2.251-14.56 2.805-22.45 2.805" stroke-width="0" stroke-miterlimit="10" fill="none"/>
  <path id="path293" d="m154.34 24.689c-0.176-0.292-1.159 1.225 2.806 1.401-1.55 0.229-1.68-0.57-2.81-1.401" fill-rule="evenodd" clip-rule="evenodd" fill="#75EF75"/>
  <path id="path295" d="m165.57 26.09c0.706 0.706 1.906-0.658 1.402 1.402-2.06 0.504-0.7-0.697-1.4-1.402" fill-rule="evenodd" clip-rule="evenodd" fill="#75EF75"/>
  <path id="path297" d="m176.8 26.09c0.706 0.706 1.906-0.658 1.403 1.402-2.06 0.504-0.7-0.697-1.4-1.402" fill-rule="evenodd" clip-rule="evenodd" fill="#75EF75"/>
  <path id="path299" d="m202.05 20.484c0.336 0.63 2.367 1.401 0.701 1.401-1.48 0.001-0.23-0.512-0.7-1.401" fill-rule="evenodd" clip-rule="evenodd" fill="#75EF75"/>
  <path id="path301" d="m182.41 49.917c0.016-2.749 0.234-4.792 1.403-7.008-0.632 3.367-0.618 2.323-2.806 4.204v-8.409 7.008c-0.705-1.945-0.906-1.559-1.403-4.206 0.331 2.782 0.701 4.275 1.403 5.606h-1.403c-0.12 2.536 1.3 1.978 2.81 2.805" fill-rule="evenodd" clip-rule="evenodd" fill="#7FCC66"/>
  <path id="path303" d="m193.63 44.31c-0.29-1.954 0.382-2.88-1.403-4.205 0.468 0.935 0.936 1.869 1.403 2.804-1.539 0.07-1.521 0.731-2.808 1.401v-1.401c-0.085 1.325-0.158 2.887 0 4.204h1.404c-0.23-1.641 0.71-1.571 1.41-2.803" fill-rule="evenodd" clip-rule="evenodd" fill="#7FCC66"/>
  <path id="path305" d="m190.82 48.514c-2.949 4.256-7.09 5.911-8.419 11.212 1.289-2.063 0.584-0.259 2.807-1.401h-1.403v1.401c1.4-0.752 1.406-0.649 2.807-1.401v1.401h-1.403c1.165-0.828 1.752-0.91 2.806-2.803h-1.402c2.25-2.56 3.02-5.61 4.19-8.409" fill-rule="evenodd" clip-rule="evenodd" fill="#57b639"/>
  <path id="path307" d="m195.04 65.334c4.306 0.294 6.293 0.663 8.418 4.203-2.02-2.878-5.64-3.091-8.42-4.203" fill-rule="evenodd" clip-rule="evenodd" fill="#77D15E"/>
  <path id="path309" d="m159.96 87.756h-4.209c1.33-0.205 2.86 0 4.21 0-1.434 1.518-3.945 2.619-7.015 2.805 1.482-0.575 4.019-0.952 5.611-1.401-0.565 2.615-1.644 3.845-4.209 5.606 2.44-2.152 4.96-4.621 5.62-7.01" fill-rule="evenodd" clip-rule="evenodd" fill="#77D15E"/>
  <path id="path311" d="m147.33 97.568c2.013 0.594 1.365 1.336 4.211 1.401v1.401c-2.86 0.42-2.72-0.775-4.21-2.802" fill-rule="evenodd" clip-rule="evenodd" fill="#77D15E"/>
  <path id="path313" d="m161.36 93.365c-0.609 0.846 0.563 1.882-1.402 1.401v1.4c2.7-0.981 5.432-1.443 8.418-1.4-2.94 0.681-4.83-0.177-7.02-1.401" fill-rule="evenodd" clip-rule="evenodd" fill="#77D15E"/>
  <path id="path315" d="m186.62 93.365c-0.21-1.468 0-1.595 0 0-2.436-1.813-4.456-0.866-5.612 1.401 1.18-2.186 2.8-1.068 5.61-1.401" fill-rule="evenodd" clip-rule="evenodd" fill="#77D15E"/>
  <path id="path317" d="m193.63 100.37c-1.025-1.935-1.214-3.797-2.808-5.604 3.272 1.231 5.138 6.956 5.613 9.811h-1.403c0.51-2.25-0.79-2.53-1.4-4.21" fill-rule="evenodd" clip-rule="evenodd" fill="#77D15E"/>
  <path id="path319" d="m190.82 94.766c1.45 1.646 2.393 3.521 2.808 5.604" stroke-width="0" stroke-miterlimit="10" fill="none"/>
  <path id="path321" d="m126.28 84.954c-1.946-0.292-2.792 0.395-4.209-1.4 2.02 1.265 4.18 1.466 4.21 1.4" fill-rule="evenodd" clip-rule="evenodd" fill="#77D15E"/>
  <path id="path323" d="m126.28 87.756c-3.07 0.827-4.263 1.882-7.015 0 2.23 1.995 4.8 1.995 7.02 0" fill-rule="evenodd" clip-rule="evenodd" fill="#77D15E"/>
  <path id="path325" d="m123.48 90.561h-4.208 4.21" fill-rule="evenodd" clip-rule="evenodd" fill="#77D15E"/>
  <path id="path327" d="m130.49 79.349c-2.609-0.903-4.025-0.839-7.016 0 2.61-2.059 5.57-2.057 7.02 0" fill-rule="evenodd" clip-rule="evenodd" fill="#77D15E"/>
  <path id="path329" d="m117.86 87.756c-2.003 2.115-4.08 5.799-7.016 9.812 2.5-3.418 3.08-8.799 7.02-9.812" fill-rule="evenodd" clip-rule="evenodd" fill="#77D15E"/>
  <path id="path331" d="m109.44 107.38c-0.847 0.606-2.282 2.078-4.209 2.804 1.228-0.348 1.691-0.988 2.807-1.401-1.643 2.365-0.871 1.637-4.21 2.803 1.563 0.974 0.377-0.051 1.403 1.4 2.85-1.27 4.18-2.6 4.21-5.6" fill-rule="evenodd" clip-rule="evenodd" fill="#77D15E"/>
  <path id="path333" d="m101.02 110.18c-0.179 0.842 0 1.938 0 2.802h-1.403c0.473-0.93 0.943-1.86 1.403-2.8" fill-rule="evenodd" clip-rule="evenodd" fill="#77D15E"/>
  <path id="path335" d="m101.02 122.8h-2.807 2.807" fill-rule="evenodd" clip-rule="evenodd" fill="#77D15E"/>
  <path id="path337" d="m98.219 125.6c-0.826 0.192-1.954 0-2.806 0l1.403 1.4c-0.406-1.66 0.3-1.14 1.403-1.4" fill-rule="evenodd" clip-rule="evenodd" fill="#77D15E"/>
  <path id="path339" d="m98.219 138.21c-0.98-2.302-1.015-3.601-2.806-5.606h1.403c1.281 2.63 1.697 3.52 1.403 5.61" fill-rule="evenodd" clip-rule="evenodd" fill="#77D15E"/>
  <path id="path341" d="m119.27 76.544c5.144-3.499 5.397-16.439 8.418-22.424-1.284 6.975-3.401 22.51-9.821 26.63 1.94-1.528 0.81-2.282 1.4-4.206" fill-rule="evenodd" clip-rule="evenodd" fill="#77D15E"/>
  <path id="path343" d="m179.6 77.946c-1.72-0.286-2.992 0.833-2.806-1.401-0.06 2.211 1.09 1.115 2.81 1.401" fill-rule="evenodd" stroke-miterlimit="10" clip-rule="evenodd" stroke-width="0" fill="#BFBFBF"/>
  <path id="path345" d="m181 79.349c-1.975 0.663-2.219 2.653-4.209 0 1.94 1.907 1.85 0.264 4.21 0" fill-rule="evenodd" stroke-miterlimit="10" clip-rule="evenodd" stroke-width="0" fill="#BFBFBF"/>
  <path id="path347" d="m276.42 9.272h-22.45c7.347 0 15.489 2.073 22.45 1.401h-1.403c1.43 0.351 1.44-0.196 1.4-1.401" fill-rule="evenodd" clip-rule="evenodd" fill="#59A53F"/>
  <path id="path349" d="m276.42 9.272c-1.978 2.454-16.178 0-22.45 0" stroke-width="0" stroke-miterlimit="10" fill="none"/>
  <path id="path351" d="m255.37 9.272h1.403" stroke-width="0" stroke-miterlimit="10" fill="none"/>
  <path id="path353" d="m251.16 0.863v1.402" stroke-width="0" stroke-miterlimit="10" fill="none"/>
  <path id="path355" d="m255.37 0.863c-0.468 0.467-0.936 0.935-1.403 1.402" stroke-width="0" stroke-miterlimit="10" fill="none"/>
  <path id="path357" d="m263.79 2.265c1.216 0.868 1.918 1.619 0 1.401" stroke-width="0" stroke-miterlimit="10" fill="none"/>
  <path id="path359" d="m246.95 2.265" stroke-width="0" stroke-miterlimit="10" fill="none"/>
  <path id="path361" d="m242.74 2.265v2.802" stroke-width="0" stroke-miterlimit="10" fill="none"/>
  <path id="path363" d="m238.53 3.666v1.401" stroke-width="0" stroke-miterlimit="10" fill="none"/>
  <path id="path365" d="m193.63 37.302c-1.634-2.198-3.04-4.537-4.211-7.007" stroke-width="0" stroke-miterlimit="10" fill="none"/>
  <path id="path367" d="m193.63 35.901c0.688-3.523-1.067-6.587-4.211-8.409" stroke-width="0" stroke-miterlimit="10" fill="none"/>
  <path id="path369" d="m195.04 34.499c0.14-2.435-0.338-4.789-1.402-7.007" stroke-width="0" stroke-miterlimit="10" fill="none"/>
  <path id="path371" d="m190.82 47.113c2.042-0.279 2.97-1.976 2.808-4.204" stroke-width="0" stroke-miterlimit="10" fill="none"/>
  <path id="path373" d="m190.82 45.712c1.217-0.869 1.919-1.62 0-1.402" stroke-width="0" stroke-miterlimit="10" fill="none"/>
  <path id="path375" d="m181 49.917c1.084-0.652 1.582-1.585 1.402-2.805" stroke-width="0" stroke-miterlimit="10" fill="none"/>
  <path id="path377" d="m181 47.113c-0.934-1.241-1.434-2.688-1.403-4.204" stroke-width="0" stroke-miterlimit="10" fill="none"/>
  <path id="path379" d="m179.6 47.113c0.468 0.467 0.936 0.934 1.403 1.401" stroke-width="0" stroke-miterlimit="10" fill="none"/>
  <path id="path381" d="m186.62 56.923c-0.277 1.33-1.173 2.065-2.807 2.803" stroke-width="0" stroke-miterlimit="10" fill="none"/>
  <path id="path383" d="m186.62 56.923c-1.22-0.18-2.154 0.317-2.807 1.401" stroke-width="0" stroke-miterlimit="10" fill="none"/>
  <path id="path385" d="m186.62 56.923v1.401" stroke-width="0" stroke-miterlimit="10" fill="none"/>
  <path id="path387" d="m150.13 37.302c1.556 1.892 1.983 4.389 1.405 7.008" stroke-width="0" stroke-miterlimit="10" fill="none"/>
  <path id="path389" d="m152.94 40.105c0.185 4.344-0.503 9.72-4.212 11.213" stroke-width="0" stroke-miterlimit="10" fill="none"/>
  <path id="path391" d="m155.75 44.31c-0.142 3.361-2.517 5.704-5.614 7.008" stroke-width="0" stroke-miterlimit="10" fill="none"/>
  <path id="path393" d="m157.15 45.712c-0.231 2.196-1.847 3.652-4.208 4.206" stroke-width="0" stroke-miterlimit="10" fill="none"/>
  <path id="path395" d="m141.72 37.302c5.393 0.813 8.063 6.914 7.015 12.616" stroke-width="0" stroke-miterlimit="10" fill="none"/>
  <path id="path397" d="m144.52 37.302c-4.737-4.481-10.059-1.79-15.436 0" stroke-width="0" stroke-miterlimit="10" fill="none"/>
  <path id="path399" d="m148.73 24.689c-11.335-1.282-25.271 4.922-36.479 7.008-13.301 2.476-26.227 1.684-39.287-1.402-11.886-2.809-23.921-9.819-35.91-11.316-7.209-0.9-32.293-3.324-35.651 2.908 22.541 0 44.043 1.447 63.843 13.314 9.423 5.647 20.27 7.65 28.766 14.016 6.123 4.589 21.387 5.333 25.256 11.913 1.354 2.303-0.669 21.023-2.105 21.023-5.245 0-10.395 21.405-15.045 24.5-6.11 4.068-16.171 35.253 0.313 31.562-5.021-10.775-5.993-10.508 2.806-21.025 5.356-6.403 10.957-14.469 16.838-22.422 2.838-3.838 9.823-12.836 9.823-16.119 0-2.94 9.808-13.316 11.925-12.612 3.168 1.054 12.054 0.794 13.33 3.503 1.955 4.149-6.225 20.23-9.121 23.126-10.577 10.574 8.694 6.306 12.629 6.306 10.928 0 20.72-7.423 28.764-2.803 1.774 1.02 6.107 6.368 5.613 9.811h1.403c0-7.25-0.29-11.377-7.017-14.015-4.623-1.813-26.967 3.859-29.465-1.401-0.733-1.544 7.446-11.858 9.093-14.327 5.031-7.542 6.05-9.194 0.728-13.704 4.241-2.012 8.007-5.005 11.227-8.409-1.505 8.303 2.879 9.678 9.821 11.214 3.794 0.84 12.004 0.34 11.226 5.604-0.436 2.948-2.603 4.471-5.612 4.204v1.401c1.247-0.331 7.015-1.544 7.015-2.103 0-0.473 5.845-7.707 2.104-7.707-3.254 0-17.539-9.454-17.539-10.512 0-9.159 13.106-9.138 16.137-18.22 3.333-9.993 16.933-16.153 25.957-17.519 6.725-1.018 13.324-2.804 20.346-2.804 2.503 0 9.986-4.912 14.733-5.606 3.558-0.521 10.026 1.595 11.226-1.401 1.613-4.031-3.42-4.227-5.613-5.606-4.662-2.932-20.809-7.812-23.854-2.802-10.375-4.417-28.712 10.961-39.2 14.453-9.424 3.138-17.944 7.972-27.682 7.972-10.45 0.007-20.89 0.007-31.34 0.007" stroke-width="0" stroke-miterlimit="10" fill="none"/>
  <path id="path401" d="m96.816 136.81c1.404 0.93 2.928 0.19 2.806 2.802-2.611 0.13-1.875-1.4-2.806-2.8" fill-rule="evenodd" stroke-miterlimit="10" clip-rule="evenodd" stroke-width="0" fill="#BFBFBF"/>
  <path id="path403" d="m101.02 136.81c2.034 0.821 3.681-0.78 2.806 2.802-1.02-1.02-1.89-1.57-2.81-2.8" fill-rule="evenodd" stroke-miterlimit="10" clip-rule="evenodd" stroke-width="0" fill="#BFBFBF"/>
  <path id="path405" d="m196.44 104.58c-1.487 0.952-2.46 2.239-5.613 0 2.68 1.34 2.92 0.29 5.61 0" fill-rule="evenodd" stroke-miterlimit="10" clip-rule="evenodd" stroke-width="0" fill="#BFBFBF"/>
  <path id="path407" d="m192.23 98.969c0.548 2.291 3.065 2.937-1.404 4.203h1.404c0-1.28-0.29-2.96 0-4.201" fill-rule="evenodd" stroke-miterlimit="10" clip-rule="evenodd" stroke-width="0" fill="#BFBFBF"/>
  <path id="path409" d="m196.44 76.544c-1.367-0.661-2.423-0.496-2.806-2.804v1.402c2.44-0.646 1.97 0.518 2.81 1.402" fill-rule="evenodd" stroke-miterlimit="10" clip-rule="evenodd" stroke-width="0" fill="#BFBFBF"/>
  <path id="path411" d="m195.04 103.17c0.18-1.219-0.318-2.151-1.402-2.802" stroke-width="0" stroke-miterlimit="10" fill="none"/>
  <path id="path413" d="m195.04 101.77h1.403" stroke-width="0" stroke-miterlimit="10" fill="none"/>
  <path id="path415" d="m195.04 103.17h1.403" stroke-width="0" stroke-miterlimit="10" fill="none"/>
  <path id="path417" d="m196.44 103.17" stroke-width="0" stroke-miterlimit="10" fill="none"/>
  <path id="path419" d="m192.23 97.568h-1.404" stroke-width="0" stroke-miterlimit="10" fill="none"/>
  <path id="path421" d="m192.23 97.568h-1.404" stroke-width="0" stroke-miterlimit="10" fill="none"/>
  <path id="path423" d="m98.219 138.21c0.443-1.669 0.262-2.851-1.402-2.805" stroke-width="0" stroke-miterlimit="10" fill="none"/>
  <path id="path425" d="m101.02 136.81c0.046-1.666-1.136-1.848-2.807-1.404" stroke-width="0" stroke-miterlimit="10" fill="none"/>
  <path id="path427" d="m96.816 135.41h-1.403" stroke-width="0" stroke-miterlimit="10" fill="none"/>
  <path id="path429" d="m96.816 135.41h-1.403" stroke-width="0" stroke-miterlimit="10" fill="none"/>
  <path id="path431" d="m99.622 135.41h-1.403" stroke-width="0" stroke-miterlimit="10" fill="none"/>
  <path id="path433" d="m101.02 135.41h-2.807" stroke-width="0" stroke-miterlimit="10" fill="none"/>
  <path id="path435" d="m101.02 135.41h-1.403" stroke-width="0" stroke-miterlimit="10" fill="none"/>
  <path id="path437" d="m99.622 135.41" stroke-width="0" stroke-miterlimit="10" fill="none"/>
  <path id="path439" d="m119.27 61.128v-7.008" stroke-width="0" stroke-miterlimit="10" fill="none"/>
  <path id="path441" d="m141.72 65.334c4.22-3.086 3.627-8.675 7.015-12.615" stroke-width="0" stroke-miterlimit="10" fill="none"/>
  <path id="path443" d="m181 54.121v-9.811" stroke-width="0" stroke-miterlimit="10" fill="none"/>
  <path id="path445" d="m189.42 49.917c1.665 0.046 1.847-1.135 1.403-2.805" stroke-width="0" stroke-miterlimit="10" fill="none"/>
  <path id="path447" d="m82.784 122.8c0.629-0.63 0.633-0.64 0 0" fill-rule="evenodd" clip-rule="evenodd" fill="#D8D8D8"/>
  <path id="path449" d="m72.964 125.6c1.54 0 1.54 0 0 0" fill-rule="evenodd" clip-rule="evenodd" fill="#D8D8D8"/>
  <path id="path451" d="m70.157 132.61c1.54 0 1.54 0 0 0" fill-rule="evenodd" clip-rule="evenodd" fill="#D8D8D8"/>
  <metadata>
    <rdf:RDF>
      <cc:Work>
        <dc:format>image/svg+xml</dc:format>
        <dc:type rdf:resource="http://purl.org/dc/dcmitype/StillImage"/>
        <cc:license rdf:resource="http://creativecommons.org/licenses/publicdomain/"/>
        <dc:publisher>
          <cc:Agent rdf:about="http://openclipart.org/">
            <dc:title>Openclipart</dc:title>
          </cc:Agent>
        </dc:publisher>
      </cc:Work>
      <cc:License rdf:about="http://creativecommons.org/licenses/publicdomain/">
        <cc:permits rdf:resource="http://creativecommons.org/ns#Reproduction"/>
        <cc:permits rdf:resource="http://creativecommons.org/ns#Distribution"/>
        <cc:permits rdf:resource="http://creativecommons.org/ns#DerivativeWorks"/>
      </cc:License>
    </rdf:RDF>
  </metadata>
</svg>