<?xml version="1.0" encoding="UTF-8" standalone="no"?>
<svg xmlns:dc="http://purl.org/dc/elements/1.1/" xmlns:cc="http://creativecommons.org/ns#" xmlns:rdf="http://www.w3.org/1999/02/22-rdf-syntax-ns#" xmlns:svg="http://www.w3.org/2000/svg" xmlns="http://www.w3.org/2000/svg" xmlns:sodipodi="http://sodipodi.sourceforge.net/DTD/sodipodi-0.dtd" xmlns:inkscape="http://www.inkscape.org/namespaces/inkscape" id="Layer_1" space="preserve" viewBox="0 0 524.15219 449.50825" version="1.1" inkscape:version="0.48+devel r12701" width="524.15222" height="449.50824" sodipodi:docname="aquatic_dinosaur.svg">
  <title id="title4359">aquatic dinosaur</title>
  <defs id="defs155"/>
  <sodipodi:namedview pagecolor="#ffffff" bordercolor="#666666" borderopacity="1" objecttolerance="10" gridtolerance="10" guidetolerance="10" inkscape:pageopacity="0" inkscape:pageshadow="2" inkscape:window-width="1271" inkscape:window-height="932" id="namedview153" showgrid="false" fit-margin-top="4" fit-margin-left="4" fit-margin-bottom="4" fit-margin-right="4" inkscape:zoom="1.04" inkscape:cx="227.97233" inkscape:cy="262.25483" inkscape:window-x="0" inkscape:window-y="0" inkscape:window-maximized="0" inkscape:current-layer="Layer_1"/>
  <g id="g4209" transform="matrix(1.8523168,0,0,2.0761022,3.9999896,3.9996641)">
    <path d="M 99.113,84.012 C 87.822,81.5 74.487,94.82 67.577,102.59 c -3.221,3.624 -17.437,21.904 -9.01,21.399 3.494,-0.209 9.534,-7.863 12.994,-9.594 4.67,-2.335 9.298,-4.542 14.037,-6.736 C 97.212,102.279 101.55,97 99.113,84.011" id="path3" inkscape:connector-curvature="0" style="fill:#00c9eb;fill-rule:evenodd;clip-rule:evenodd"/>
    <path stroke-miterlimit="10" d="M 99.113,84.012 C 87.822,81.5 74.487,94.82 67.577,102.59 c -3.221,3.624 -17.437,21.904 -9.01,21.399 3.494,-0.209 9.534,-7.863 12.994,-9.594 4.67,-2.335 9.298,-4.542 14.037,-6.736 C 97.212,102.279 101.55,97 99.113,84.011" id="path5" inkscape:connector-curvature="0" style="fill:none;stroke-width:0;stroke-miterlimit:10"/>
    <path d="m 93.481,77.254 c 13.444,5.935 -1.361,8.949 -3.942,10.7 -3.148,2.136 -1.051,1.537 -2.534,4.505 -1.118,2.237 -4.604,0.208 -6.476,1.127 -1.374,0.675 -2.921,2.305 -5.631,3.659 -1.715,0.857 -2.658,4.349 -3.943,5.913 -2.762,3.364 -5.08,5.371 -7.32,9.011 -1.134,1.842 -3.4,6.066 -4.505,7.32 -1.799,2.041 -5.867,8.826 -3.661,0 2.113,-8.45 36.686,-43.431 38.012,-42.236" id="path7" inkscape:connector-curvature="0" style="fill:#346ec4;fill-rule:evenodd;clip-rule:evenodd"/>
    <path stroke-miterlimit="10" d="m 93.481,77.254 c 13.444,5.935 -1.361,8.949 -3.942,10.7 -3.148,2.136 -1.051,1.537 -2.534,4.505 -1.118,2.237 -4.604,0.208 -6.476,1.127 -1.374,0.675 -2.921,2.305 -5.631,3.659 -1.715,0.857 -2.658,4.349 -3.943,5.913 -2.762,3.364 -5.08,5.371 -7.32,9.011 -1.134,1.842 -3.4,6.066 -4.505,7.32 -1.799,2.041 -5.867,8.826 -3.661,0 2.113,-8.45 36.686,-43.431 38.012,-42.236" id="path9" inkscape:connector-curvature="0" style="fill:none;stroke-width:0;stroke-miterlimit:10"/>
    <path stroke-miterlimit="10" d="m 92.355,75.565 c -3.446,10.522 -44.105,35.016 -37.73,47.302 2.481,4.784 17.956,-8.978 21.962,-10.981 9.295,-4.646 21.529,-7.195 24.215,-18.864" id="path11" inkscape:connector-curvature="0" style="fill:none;stroke-width:0;stroke-miterlimit:10"/>
    <path stroke-miterlimit="10" d="M 94.045,80.07 C 90.581,86.477 82.239,87.054 79.403,94.149" id="path13" inkscape:connector-curvature="0" style="fill:none;stroke-width:0;stroke-miterlimit:10"/>
    <path d="m 179.64,145.96 c -5.039,6.204 -6.849,15.011 -8.729,22.525 -2.539,10.155 -0.073,12.657 7.04,7.884 7.317,-4.913 15.78,-11.467 21.116,-18.583 10.28,-13.7 -11.19,-11.17 -19.43,-11.82" id="path15" inkscape:connector-curvature="0" style="fill:#21d9ff;fill-rule:evenodd;clip-rule:evenodd"/>
    <path stroke-miterlimit="10" d="m 179.64,145.96 c -5.039,6.204 -6.849,15.011 -8.729,22.525 -2.539,10.155 -0.073,12.657 7.04,7.884 7.317,-4.913 15.78,-11.467 21.116,-18.583 10.28,-13.7 -11.19,-11.17 -19.43,-11.82" id="path17" inkscape:connector-curvature="0" style="fill:none;stroke-width:0;stroke-miterlimit:10"/>
    <path d="m 179.64,145.96 c -5.188,6.39 -9.37,18.414 -9.01,26.467 0.036,0.833 0.456,12.049 3.097,6.759 0.593,-1.188 -1.392,-5.096 0,-7.885 2.565,-5.14 5.374,-24.255 14.924,-22.525 -3,-0.95 -6,-1.88 -9.01,-2.82" id="path19" inkscape:connector-curvature="0" style="fill:#346ec4;fill-rule:evenodd;clip-rule:evenodd"/>
    <path stroke-miterlimit="10" d="m 179.64,145.96 c -5.188,6.39 -9.37,18.414 -9.01,26.467 0.036,0.833 0.456,12.049 3.097,6.759 0.593,-1.188 -1.392,-5.096 0,-7.885 2.565,-5.14 5.374,-24.255 14.924,-22.525 -3,-0.95 -6,-1.88 -9.01,-2.82" id="path21" inkscape:connector-curvature="0" style="fill:none;stroke-width:0;stroke-miterlimit:10"/>
    <path stroke-miterlimit="10" d="m 179.64,145.96 c -4.538,5.588 -15.296,34.713 -5.068,33.788 2.644,-0.239 14.905,-11.979 17.457,-14.079 5.044,-4.15 11.194,-11.049 9.011,-18.02" id="path23" inkscape:connector-curvature="0" style="fill:none;stroke-width:0;stroke-miterlimit:10"/>
    <path stroke-miterlimit="10" d="m 183.02,147.08 c -3.213,5.354 -6.575,10.577 -9.011,16.331" id="path25" inkscape:connector-curvature="0" style="fill:none;stroke-width:0;stroke-miterlimit:10"/>
    <path d="m 31.536,22.63 c 16.899,7.759 31.879,17.04 45.051,33.507 5.06,6.327 12.741,10.739 16.331,18.302 4.625,9.743 6.899,17.035 13.227,26.399 10.125,14.984 33.516,20.905 50.377,25.822 18.342,5.35 36.146,12.715 54.157,19.119 13.485,4.795 34.329,16.929 38.791,31.432 1.331,4.324 3.069,21.922 6.194,10.981 2.496,-8.73 0.571,-18.322 -3.378,-26.467 -7.165,-14.778 -17.899,-32.948 -28.824,-45.24 C 208.769,99.953 193.181,85.039 173.718,74.334 165.719,69.934 163.156,62.645 153.195,60.047 142.944,57.373 132.138,56.221 121.659,54.854 100.469,52.095 84.386,40.51 67.597,28.165 58.61,21.557 48.769,11.977 37.166,10.526 26.997,9.256 20.976,16.262 31.535,22.635" id="path27" inkscape:connector-curvature="0" style="fill:#00edf2;fill-rule:evenodd;clip-rule:evenodd"/>
    <path stroke-miterlimit="10" d="m 31.536,22.63 c 16.899,7.759 31.879,17.04 45.051,33.507 5.06,6.327 12.741,10.739 16.331,18.302 4.625,9.743 6.899,17.035 13.227,26.399 10.125,14.984 33.516,20.905 50.377,25.822 18.342,5.35 36.146,12.715 54.157,19.119 13.485,4.795 34.329,16.929 38.791,31.432 1.331,4.324 3.069,21.922 6.194,10.981 2.496,-8.73 0.571,-18.322 -3.378,-26.467 -7.165,-14.778 -17.899,-32.948 -28.824,-45.24 C 208.769,99.953 193.181,85.039 173.718,74.334 165.719,69.934 163.156,62.645 153.195,60.047 142.944,57.373 132.138,56.221 121.659,54.854 100.469,52.095 84.386,40.51 67.597,28.165 58.61,21.557 48.769,11.977 37.166,10.526 26.997,9.256 20.976,16.262 31.535,22.635" id="path29" inkscape:connector-curvature="0" style="fill:none;stroke-width:0;stroke-miterlimit:10"/>
    <path d="m 114.32,81.759 c 18.343,5.671 35.974,16.696 52.372,26.466 -6.568,-3.204 -13.767,-4.912 -20.273,-8.165 -3.919,-1.96 -8.8,-0.458 -12.952,-2.534 -7.12,-3.558 -16.18,-7.696 -19.15,-15.767" id="path31" inkscape:connector-curvature="0" style="fill:#00bbe0;fill-rule:evenodd;clip-rule:evenodd"/>
    <path stroke-miterlimit="10" d="m 114.32,81.759 c 18.343,5.671 35.974,16.696 52.372,26.466 -6.568,-3.204 -13.767,-4.912 -20.273,-8.165 -3.919,-1.96 -8.8,-0.458 -12.952,-2.534 -7.12,-3.558 -16.18,-7.696 -19.15,-15.767" id="path33" inkscape:connector-curvature="0" style="fill:none;stroke-width:0;stroke-miterlimit:10"/>
    <path d="m 255.1,191.57 c -0.364,3.116 -1.506,6.01 -3.38,8.447 C 268.165,147.258 172.485,150.368 144.81,140.303 121.977,131.999 100.682,114.602 94.044,90.768 88.634,71.335 76.315,52.22 61.382,38.953 76.324,50.102 94.5,65.676 103.62,81.752 c 12.438,21.928 31.716,27.27 55.646,32.397 22.956,4.92 41.683,13.793 60.924,27.296 7.933,5.565 16.407,11.523 22.526,19.146 7.76,9.66 7.42,20.71 12.38,30.96" id="path35" inkscape:connector-curvature="0" style="fill:#00bbe0;fill-rule:evenodd;clip-rule:evenodd"/>
    <path stroke-miterlimit="10" d="m 255.1,191.57 c -0.364,3.116 -1.506,6.01 -3.38,8.447 C 268.165,147.258 172.485,150.368 144.81,140.303 121.977,131.999 100.682,114.602 94.044,90.768 88.634,71.335 76.315,52.22 61.382,38.953 76.324,50.102 94.5,65.676 103.62,81.752 c 12.438,21.928 31.716,27.27 55.646,32.397 22.956,4.92 41.683,13.793 60.924,27.296 7.933,5.565 16.407,11.523 22.526,19.146 7.76,9.66 7.42,20.71 12.38,30.96" id="path37" inkscape:connector-curvature="0" style="fill:none;stroke-width:0;stroke-miterlimit:10"/>
    <path d="m 33.789,10.803 c 18.487,-9.576 48.583,23.84 61.486,33.059 11.118,7.942 27.259,10.341 40.442,11.993 17.112,2.143 27.062,5.972 40.546,16.331 12.709,9.765 24.416,16.531 35.937,28.053 10.485,10.484 18.401,22.345 26.801,34.474 8.555,12.356 16.515,25.67 18.21,40.903 0.55,4.946 -5.38,41.904 -16.187,36.51 -0.188,-0.094 -0.375,-0.187 -0.563,-0.28 8.641,-9.154 12.199,-19.871 10.137,-32.662 1.695,6.119 3.787,13.048 1.126,19.146 3.571,-3.247 3.914,-16.813 2.816,-20.836 -1.282,-4.694 -8.042,-14.565 -7.04,-18.582 1.268,-5.077 -5.499,-3.535 -7.039,-5.633 -1.728,-2.354 -0.173,-4.855 -1.406,-7.321 -1.22,-2.436 -4.396,-0.635 -5.352,-2.252 -1.729,-2.93 -2.222,-9.278 -5.63,-10.98 -6.132,-3.063 -2.448,-3.2 -6.196,-8.167 -4.008,-5.31 -14.473,-4.11 -7.319,-11.262 3.658,-3.66 -9.454,-0.687 -9.011,-0.564 -8.121,-2.254 1.863,-3.937 -2.816,-8.446 -1.237,-1.193 -12.751,1.286 -10.417,-3.379 2.765,-5.528 4.166,-2.064 -1.972,-3.942 -1.402,-0.429 -4.743,1.67 -6.194,0.563 -2.868,-2.186 0.311,-3.306 -0.564,-5.067 -1.016,-2.046 2.473,-4.113 0,-5.35 -1.994,-0.997 -4.256,-0.157 -6.194,-1.125 -2.143,-1.072 0.001,-2.853 0.001,-4.505 0,-3.476 -6.478,-2.026 -8.446,-3.098 -2.375,-1.291 -7.196,-9.01 -8.729,-9.01 -2.813,0 -5.201,0.514 -7.885,1.408 -4.604,1.534 -3.19,-2.997 -5.349,-4.787 -3.065,-2.54 2.438,-2.427 -4.506,-3.378 -1.808,-0.248 -4.042,3.349 -6.757,2.815 -0.692,-0.136 0.11,-4.662 -2.816,-5.068 -3.222,-0.447 -4.795,2.116 -7.32,3.378 -7.563,3.782 -1.137,-8.721 -9.574,-4.505 -9.504,4.75 -4.071,-2.085 -9.573,-3.942 -3.25,-1.097 -2.609,2.172 -5.631,1.689 -3.482,-0.556 -3.544,-0.315 -2.816,-3.941 -2.727,1.507 -7.179,4.647 -9.854,1.971 -1.834,-1.833 -0.334,-4.941 -1.126,-7.32 -0.955,-2.867 -2.43,-0.579 -3.661,-1.971 -0.774,-0.876 -5.892,-5.504 -7.884,-6.758 -2.112,-1.33 -7.321,3.562 -7.321,-1.971 0,-4.38 -5.64,0.227 -6.475,-4.786 -1.72,-10.321 -4.025,-1.875 -8.166,-5.632 -1.73,-1.569 -0.672,-5.023 -2.253,-6.758 -1.196,-1.312 -3.814,-0.695 -5.068,-1.689 -3.21,-2.546 -6.686,-4.663 -12.397,-7.328" id="path39" inkscape:connector-curvature="0" style="fill:#346ec4;fill-rule:evenodd;clip-rule:evenodd"/>
    <path stroke-miterlimit="10" d="m 33.789,10.803 c 18.487,-9.576 48.583,23.84 61.486,33.059 11.118,7.942 27.259,10.341 40.442,11.993 17.112,2.143 27.062,5.972 40.546,16.331 12.709,9.765 24.416,16.531 35.937,28.053 10.485,10.484 18.401,22.345 26.801,34.474 8.555,12.356 16.515,25.67 18.21,40.903 0.55,4.946 -5.38,41.904 -16.187,36.51 -0.188,-0.094 -0.375,-0.187 -0.563,-0.28 8.641,-9.154 12.199,-19.871 10.137,-32.662 1.695,6.119 3.787,13.048 1.126,19.146 3.571,-3.247 3.914,-16.813 2.816,-20.836 -1.282,-4.694 -8.042,-14.565 -7.04,-18.582 1.268,-5.077 -5.499,-3.535 -7.039,-5.633 -1.728,-2.354 -0.173,-4.855 -1.406,-7.321 -1.22,-2.436 -4.396,-0.635 -5.352,-2.252 -1.729,-2.93 -2.222,-9.278 -5.63,-10.98 -6.132,-3.063 -2.448,-3.2 -6.196,-8.167 -4.008,-5.31 -14.473,-4.11 -7.319,-11.262 3.658,-3.66 -9.454,-0.687 -9.011,-0.564 -8.121,-2.254 1.863,-3.937 -2.816,-8.446 -1.237,-1.193 -12.751,1.286 -10.417,-3.379 2.765,-5.528 4.166,-2.064 -1.972,-3.942 -1.402,-0.429 -4.743,1.67 -6.194,0.563 -2.868,-2.186 0.311,-3.306 -0.564,-5.067 -1.016,-2.046 2.473,-4.113 0,-5.35 -1.994,-0.997 -4.256,-0.157 -6.194,-1.125 -2.143,-1.072 0.001,-2.853 0.001,-4.505 0,-3.476 -6.478,-2.026 -8.446,-3.098 -2.375,-1.291 -7.196,-9.01 -8.729,-9.01 -2.813,0 -5.201,0.514 -7.885,1.408 -4.604,1.534 -3.19,-2.997 -5.349,-4.787 -3.065,-2.54 2.438,-2.427 -4.506,-3.378 -1.808,-0.248 -4.042,3.349 -6.757,2.815 -0.692,-0.136 0.11,-4.662 -2.816,-5.068 -3.222,-0.447 -4.795,2.116 -7.32,3.378 -7.563,3.782 -1.137,-8.721 -9.574,-4.505 -9.504,4.75 -4.071,-2.085 -9.573,-3.942 -3.25,-1.097 -2.609,2.172 -5.631,1.689 -3.482,-0.556 -3.544,-0.315 -2.816,-3.941 -2.727,1.507 -7.179,4.647 -9.854,1.971 -1.834,-1.833 -0.334,-4.941 -1.126,-7.32 -0.955,-2.867 -2.43,-0.579 -3.661,-1.971 -0.774,-0.876 -5.892,-5.504 -7.884,-6.758 -2.112,-1.33 -7.321,3.562 -7.321,-1.971 0,-4.38 -5.64,0.227 -6.475,-4.786 -1.72,-10.321 -4.025,-1.875 -8.166,-5.632 -1.73,-1.569 -0.672,-5.023 -2.253,-6.758 -1.196,-1.312 -3.814,-0.695 -5.068,-1.689 -3.21,-2.546 -6.686,-4.663 -12.397,-7.328" id="path41" inkscape:connector-curvature="0" style="fill:none;stroke-width:0;stroke-miterlimit:10"/>
    <path stroke-miterlimit="10" d="m 31.536,22.63 c 16.873,7.747 34.22,17.325 46.177,34.915 15.059,22.151 17.31,51.781 40.442,68.306 27.538,19.673 56.335,19.112 87.954,25.738 26.519,5.556 66.818,32.421 36.041,60.256 -0.375,0.187 -0.75,0.374 -1.126,0.563" id="path43" inkscape:connector-curvature="0" style="fill:none;stroke-width:0;stroke-miterlimit:10"/>
    <path stroke-miterlimit="10" d="m 250.6,179.18 c 2.063,12.791 -1.496,23.508 -10.137,32.662 12.853,0.302 17.745,-25.611 16.896,-34.915 -1.329,-14.555 -8.422,-27.87 -16.612,-39.701 -8.41,-12.146 -16.141,-24.587 -26.646,-35.093 C 202.372,90.404 191.673,82.456 177.956,73.309 164.887,64.595 154.84,55.851 137.691,55.851 124.088,55.851 108.172,51.164 96.3,44.589 79.485,35.289 57.199,3.781 35.239,10.369 c -0.486,0.146 -0.974,0.292 -1.459,0.438" id="path45" inkscape:connector-curvature="0" style="fill:none;stroke-width:0;stroke-miterlimit:10"/>
    <path stroke-miterlimit="10" d="m 146.98,60.36 c 1.588,-0.578 3.189,-0.138 4.504,1.126" id="path47" inkscape:connector-curvature="0" style="fill:none;stroke-width:0;stroke-miterlimit:10"/>
    <path stroke-miterlimit="10" d="m 166.69,77.254 c 3.394,1.652 6.91,1.161 9.01,-1.689" id="path49" inkscape:connector-curvature="0" style="fill:none;stroke-width:0;stroke-miterlimit:10"/>
    <path stroke-miterlimit="10" d="m 146.42,63.739 c -0.221,3.521 1.66,6.076 5.068,6.757" id="path51" inkscape:connector-curvature="0" style="fill:none;stroke-width:0;stroke-miterlimit:10"/>
    <path d="m 149.8,65.991 c -3.98,-8.005 9.623,-1.95 13.516,-1.689 11.01,0.737 21.624,-0.399 32.68,1.302 20.447,3.146 48.545,9.24 63.617,24.602 -10.33,1.607 -24.146,-4.671 -35.583,-3.854 -11.351,0.811 -24.85,3.924 -35.373,-0.651 -4.039,-1.755 -7.426,-5.347 -11.263,-7.321 -2.271,-1.167 -4.686,-1.559 -7.321,-2.815 -5.91,-2.806 -15.15,-4.881 -20.29,-9.574" id="path53" inkscape:connector-curvature="0" style="fill:#00c9eb;fill-rule:evenodd;clip-rule:evenodd"/>
    <path stroke-miterlimit="10" d="m 149.8,65.991 c -3.98,-8.005 9.623,-1.95 13.516,-1.689 11.01,0.737 21.624,-0.399 32.68,1.302 20.447,3.146 48.545,9.24 63.617,24.602 -10.33,1.607 -24.146,-4.671 -35.583,-3.854 -11.351,0.811 -24.85,3.924 -35.373,-0.651 -4.039,-1.755 -7.426,-5.347 -11.263,-7.321 -2.271,-1.167 -4.686,-1.559 -7.321,-2.815 -5.91,-2.806 -15.15,-4.881 -20.29,-9.574" id="path55" inkscape:connector-curvature="0" style="fill:none;stroke-width:0;stroke-miterlimit:10"/>
    <path d="m 158.81,70.497 c -6.988,-1.931 -15.199,-10.415 -3.942,-7.603 11.872,2.967 24.269,0.117 36.322,1.972 12.725,1.958 25.972,3.9 37.941,8.886 7.688,3.204 28.01,9.055 29.918,17.018 -3.791,-3.729 -14.084,-3.09 -18.021,-4.505 -2.983,-1.073 -6.654,-5.631 -9.291,-5.631 -5.377,0 -4.721,-2.197 -8.729,-2.815 -1.942,-0.3 -6.907,2.331 -7.321,2.252 -3.46,-0.65 -5.695,-3.409 -8.447,-4.787 -0.534,-0.268 -2.87,2.742 -6.194,2.535 -2.666,-0.167 -5.473,-7.929 -6.757,-1.126 -3.132,-1.738 -9.031,-6.01 -8.448,-0.563 -4.88,0.074 -6.912,-3.798 -11.263,-4.505 -2.78,-0.451 -4.029,1.858 -6.194,1.689 -3.17,-0.248 -6.4,-2.276 -9.58,-2.817" id="path57" inkscape:connector-curvature="0" style="fill:#346ec4;fill-rule:evenodd;clip-rule:evenodd"/>
    <path stroke-miterlimit="10" d="m 158.81,70.497 c -6.988,-1.931 -15.199,-10.415 -3.942,-7.603 11.872,2.967 24.269,0.117 36.322,1.972 12.725,1.958 25.972,3.9 37.941,8.886 7.688,3.204 28.01,9.055 29.918,17.018 -3.791,-3.729 -14.084,-3.09 -18.021,-4.505 -2.983,-1.073 -6.654,-5.631 -9.291,-5.631 -5.377,0 -4.721,-2.197 -8.729,-2.815 -1.942,-0.3 -6.907,2.331 -7.321,2.252 -3.46,-0.65 -5.695,-3.409 -8.447,-4.787 -0.534,-0.268 -2.87,2.742 -6.194,2.535 -2.666,-0.167 -5.473,-7.929 -6.757,-1.126 -3.132,-1.738 -9.031,-6.01 -8.448,-0.563 -4.88,0.074 -6.912,-3.798 -11.263,-4.505 -2.78,-0.451 -4.029,1.858 -6.194,1.689 -3.17,-0.248 -6.4,-2.276 -9.58,-2.817" id="path59" inkscape:connector-curvature="0" style="fill:none;stroke-width:0;stroke-miterlimit:10"/>
    <path stroke-miterlimit="10" d="m 149.8,65.991 c -3.98,-8.005 9.623,-1.95 13.516,-1.689 11.01,0.737 21.624,-0.399 32.68,1.302 20.447,3.146 48.545,9.24 63.617,24.602 -6.478,1.008 -16.409,-2.58 -23.652,-3.097 -9.581,-0.684 -18.812,-0.631 -28.345,0.427 -8.658,0.961 -15.768,0.981 -22.901,-4.369 -3.804,-2.852 -8.367,-7.291 -12.953,-7.04" id="path61" inkscape:connector-curvature="0" style="fill:none;stroke-width:0;stroke-miterlimit:10"/>
    <path stroke-miterlimit="10" d="m 165,73.312 c -3.538,-2.926 -8.093,-3.274 -12.39,-5.068" id="path63" inkscape:connector-curvature="0" style="fill:none;stroke-width:0;stroke-miterlimit:10"/>
    <path stroke-miterlimit="10" d="M 238.77,82.322 C 216.854,74.106 195.782,69.37 172.319,69.37" id="path65" inkscape:connector-curvature="0" style="fill:none;stroke-width:0;stroke-miterlimit:10"/>
    <path stroke-miterlimit="10" d="m 165.56,69.933 c 3.735,0.683 7.492,1.265 11.264,1.689" id="path67" inkscape:connector-curvature="0" style="fill:none;stroke-width:0;stroke-miterlimit:10"/>
    <path d="m 223.57,125.12 c 6.412,-15.956 51.891,31.973 54.623,45.051 -5.635,-0.845 -9.015,-7.25 -13.516,-10.699 -5.851,-4.479 -16.033,-12.664 -22.806,-14.923 -4.675,-1.559 -4.69,-9.751 -8.167,-12.672 -3.47,-2.93 -9.52,-0.56 -10.12,-6.76" id="path69" inkscape:connector-curvature="0" style="fill:#21d9ff;fill-rule:evenodd;clip-rule:evenodd"/>
    <path stroke-miterlimit="10" d="m 223.57,125.12 c 6.412,-15.956 51.891,31.973 54.623,45.051 -5.635,-0.845 -9.015,-7.25 -13.516,-10.699 -5.851,-4.479 -16.033,-12.664 -22.806,-14.923 -4.675,-1.559 -4.69,-9.751 -8.167,-12.672 -3.47,-2.93 -9.52,-0.56 -10.12,-6.76" id="path71" inkscape:connector-curvature="0" style="fill:none;stroke-width:0;stroke-miterlimit:10"/>
    <path stroke-miterlimit="10" d="m 224.69,119.49 c -1.363,-3.287 -4.305,-5.058 -7.884,-5.068" id="path73" inkscape:connector-curvature="0" style="fill:none;stroke-width:0;stroke-miterlimit:10"/>
    <path d="m 217.37,117.24 c 3.653,-1.149 13.786,3.374 17.645,5.088 12.86,5.713 23.854,16.039 32.476,27.01 1.674,2.131 16.614,23.734 7.885,20.273 -4.028,-1.597 -1.063,-9.896 -7.885,-11.264 2.235,-5.55 -1.171,-4.245 -4.506,-5.913 -2.791,-1.396 -0.146,-4.478 -2.815,-7.038 -0.417,-0.398 -4.849,0.747 -6.194,0 -1.23,-0.683 -0.622,-3.987 -0.563,-3.941 -3.608,-2.729 -6.021,-2.61 -8.447,-7.321 0.118,-0.373 -0.48,2.589 0,1.689 -4.638,0.509 -4.742,-3.941 -8.448,-6.194 -1.296,-0.788 -1.881,-2.228 -3.378,-2.816 -2.211,-0.869 -1.689,2.286 -3.379,1.689 -4.31,-1.53 -13.89,-5.74 -12.4,-11.27" id="path75" inkscape:connector-curvature="0" style="fill:#346ec4;fill-rule:evenodd;clip-rule:evenodd"/>
    <path stroke-miterlimit="10" d="m 217.37,117.24 c 3.653,-1.149 13.786,3.374 17.645,5.088 12.86,5.713 23.854,16.039 32.476,27.01 1.674,2.131 16.614,23.734 7.885,20.273 -4.028,-1.597 -1.063,-9.896 -7.885,-11.264 2.235,-5.55 -1.171,-4.245 -4.506,-5.913 -2.791,-1.396 -0.146,-4.478 -2.815,-7.038 -0.417,-0.398 -4.849,0.747 -6.194,0 -1.23,-0.683 -0.622,-3.987 -0.563,-3.941 -3.608,-2.729 -6.021,-2.61 -8.447,-7.321 0.118,-0.373 -0.48,2.589 0,1.689 -4.638,0.509 -4.742,-3.941 -8.448,-6.194 -1.296,-0.788 -1.881,-2.228 -3.378,-2.816 -2.211,-0.869 -1.689,2.286 -3.379,1.689 -4.31,-1.53 -13.89,-5.74 -12.4,-11.27" id="path77" inkscape:connector-curvature="0" style="fill:none;stroke-width:0;stroke-miterlimit:10"/>
    <path stroke-miterlimit="10" d="m 257.92,144.27 c -7.797,-10.306 -19.24,-16.813 -31.535,-20.273" id="path79" inkscape:connector-curvature="0" style="fill:none;stroke-width:0;stroke-miterlimit:10"/>
    <path stroke-miterlimit="10" d="m 217.37,117.24 c 3.614,-1.137 6.866,1.527 10.137,2.814 9.685,3.813 17.094,6.871 25.154,14.037 7.112,6.324 12.827,12.766 18.521,20.357 2.352,3.133 12.646,15.925 4.193,15.162" id="path81" inkscape:connector-curvature="0" style="fill:none;stroke-width:0;stroke-miterlimit:10"/>
    <path stroke-miterlimit="10" d="m 222.44,125.12 c -1.347,-1.834 -3.061,-3.342 -5.068,-4.505" id="path83" inkscape:connector-curvature="0" style="fill:none;stroke-width:0;stroke-miterlimit:10"/>
    <path stroke-miterlimit="10" d="m 274.81,169.05 c -9.787,-9.042 -22.608,-15.046 -32.099,-24.216 -3.17,-3.063 -5.162,-5.815 -7.321,-10.137 -2.308,-4.616 -6.556,-4.011 -10.699,-6.194" id="path85" inkscape:connector-curvature="0" style="fill:none;stroke-width:0;stroke-miterlimit:10"/>
    <path stroke-miterlimit="10" d="m 55.188,26.008 c 0.848,1.892 0.596,3.947 -0.563,5.068" id="path87" inkscape:connector-curvature="0" style="fill:none;stroke-width:0;stroke-miterlimit:10"/>
    <path stroke-miterlimit="10" d="m 58.003,29.95 c 0.248,1.51 0.395,1.956 1.126,3.379" id="path89" inkscape:connector-curvature="0" style="fill:none;stroke-width:0;stroke-miterlimit:10"/>
    <path stroke-miterlimit="10" d="m 63.072,23.755 c 2.9,4.134 -2.065,7.744 -1.126,11.263" id="path91" inkscape:connector-curvature="0" style="fill:none;stroke-width:0;stroke-miterlimit:10"/>
    <path stroke-miterlimit="10" d="m 64.198,32.203 c -0.846,1.243 -1.256,2.887 -1.126,4.505" id="path93" inkscape:connector-curvature="0" style="fill:none;stroke-width:0;stroke-miterlimit:10"/>
    <path stroke-miterlimit="10" d="m 65.325,35.019 c -0.575,1.042 -0.756,2.187 -0.563,3.379" id="path95" inkscape:connector-curvature="0" style="fill:none;stroke-width:0;stroke-miterlimit:10"/>
    <path stroke-miterlimit="10" d="m 68.703,37.271 c -0.668,0.745 -0.833,1.756 -0.563,2.815" id="path97" inkscape:connector-curvature="0" style="fill:none;stroke-width:0;stroke-miterlimit:10"/>
    <path stroke-miterlimit="10" d="m 72.646,36.145 c 0.198,1.986 -0.458,4.152 -1.69,6.195" id="path99" inkscape:connector-curvature="0" style="fill:none;stroke-width:0;stroke-miterlimit:10"/>
    <path stroke-miterlimit="10" d="m 74.335,41.776 c -0.292,1.188 -0.327,2.077 0,2.816" id="path101" inkscape:connector-curvature="0" style="fill:none;stroke-width:0;stroke-miterlimit:10"/>
    <path stroke-miterlimit="10" d="m 231.45,154.4 c 0.654,-0.394 1.082,-0.983 1.126,-1.688" id="path103" inkscape:connector-curvature="0" style="fill:none;stroke-width:0;stroke-miterlimit:10"/>
    <path stroke-miterlimit="10" d="m 233.7,155.53 c 1.163,-0.59 2.071,-1.943 2.253,-3.379" id="path105" inkscape:connector-curvature="0" style="fill:none;stroke-width:0;stroke-miterlimit:10"/>
    <path stroke-miterlimit="10" d="m 237.08,158.91 c 1.081,-0.532 1.721,-1.173 2.252,-2.253" id="path107" inkscape:connector-curvature="0" style="fill:none;stroke-width:0;stroke-miterlimit:10"/>
    <path stroke-miterlimit="10" d="m 238.21,159.47 c 1.831,-0.056 2.92,-0.898 2.815,-2.815" id="path109" inkscape:connector-curvature="0" style="fill:none;stroke-width:0;stroke-miterlimit:10"/>
    <path stroke-miterlimit="10" d="m 241.02,161.73 c 0.985,0.216 1.637,-0.116 1.689,-1.128" id="path111" inkscape:connector-curvature="0" style="fill:none;stroke-width:0;stroke-miterlimit:10"/>
    <path stroke-miterlimit="10" d="m 242.15,163.41 c 1.946,-0.664 3.298,-1.987 3.942,-3.942" id="path113" inkscape:connector-curvature="0" style="fill:none;stroke-width:0;stroke-miterlimit:10"/>
    <path stroke-miterlimit="10" d="m 244.4,167.36 c 2.332,-0.726 3.867,-2.189 4.506,-4.505" id="path115" inkscape:connector-curvature="0" style="fill:none;stroke-width:0;stroke-miterlimit:10"/>
    <path stroke-miterlimit="10" d="m 247.78,170.17 c 0.609,-0.203 1.081,-0.359 1.69,-0.563" id="path117" inkscape:connector-curvature="0" style="fill:none;stroke-width:0;stroke-miterlimit:10"/>
    <path stroke-miterlimit="10" d="m 248.91,172.99 c 2.148,-0.463 3.614,-1.765 3.94,-3.941" id="path119" inkscape:connector-curvature="0" style="fill:none;stroke-width:0;stroke-miterlimit:10"/>
    <path stroke-miterlimit="10" d="m 248.91,175.24 c 1.209,0.271 2.146,-0.106 2.814,-1.126" id="path121" inkscape:connector-curvature="0" style="fill:none;stroke-width:0;stroke-miterlimit:10"/>
    <path stroke-miterlimit="10" d="m 251.16,178.06 c 1.399,-0.268 2.861,-1.497 3.379,-3.381" id="path123" inkscape:connector-curvature="0" style="fill:none;stroke-width:0;stroke-miterlimit:10"/>
    <path stroke-miterlimit="10" d="m 252.29,180.87 c 0.092,-0.559 0.446,-0.831 1.127,-1.126" id="path125" inkscape:connector-curvature="0" style="fill:none;stroke-width:0;stroke-miterlimit:10"/>
    <path stroke-miterlimit="10" d="m 252.85,183.12 c 1.595,-0.354 2.549,-1.175 2.816,-2.816" id="path127" inkscape:connector-curvature="0" style="fill:none;stroke-width:0;stroke-miterlimit:10"/>
    <path stroke-miterlimit="10" d="m 253.98,184.81 c 0.681,-0.295 1.034,-0.567 1.127,-1.125" id="path129" inkscape:connector-curvature="0" style="fill:none;stroke-width:0;stroke-miterlimit:10"/>
    <path stroke-miterlimit="10" d="m 253.98,185.94 1.127,0" id="path131" inkscape:connector-curvature="0" style="fill:none;stroke-width:0;stroke-miterlimit:10"/>
    <path stroke-miterlimit="10" d="m 253.98,187.63 0.563,0" id="path133" inkscape:connector-curvature="0" style="fill:none;stroke-width:0;stroke-miterlimit:10"/>
    <path d="m 16.331,13.056 c -0.75,0.375 -1.502,0.75 -2.252,1.126 0.188,-0.563 0.375,-1.126 0.563,-1.689 -3.067,-0.169 -3.519,-0.808 -6.194,-1.127 0.188,-0.375 0.375,-0.75 0.563,-1.126 -0.563,0.188 -1.126,0.375 -1.689,0.563 0.376,-0.375 0.751,-0.751 1.126,-1.126 l -2.253,0 C 6.383,9.302 6.57,8.927 6.758,8.552 5.114,7.847 5.657,8.703 5.069,6.862 4.505,7.049 3.942,7.237 3.379,7.425 3.567,7.05 3.754,6.674 3.942,6.299 3.379,6.486 2.816,6.673 2.252,6.861 L 2.816,5.172 C 2.252,5.36 1.689,5.547 1.126,5.735 1.314,5.172 1.501,4.609 1.689,4.046 1.126,4.233 0.563,4.421 0,4.609 4.086,2.383 12.176,9.877 16.331,13.056" id="path135" inkscape:connector-curvature="0" style="fill:#b5b5b5;fill-rule:evenodd;clip-rule:evenodd"/>
    <path stroke-miterlimit="10" d="m 16.331,13.056 c -0.75,0.375 -1.502,0.75 -2.252,1.126 0.188,-0.563 0.375,-1.126 0.563,-1.689 -3.067,-0.169 -3.519,-0.808 -6.194,-1.127 0.188,-0.375 0.375,-0.75 0.563,-1.126 -0.563,0.188 -1.126,0.375 -1.689,0.563 0.376,-0.375 0.751,-0.751 1.126,-1.126 l -2.253,0 C 6.383,9.302 6.57,8.927 6.758,8.552 5.114,7.847 5.657,8.703 5.069,6.862 4.505,7.049 3.942,7.237 3.379,7.425 3.567,7.05 3.754,6.674 3.942,6.299 3.379,6.486 2.816,6.673 2.252,6.861 L 2.816,5.172 C 2.252,5.36 1.689,5.547 1.126,5.735 1.314,5.172 1.501,4.609 1.689,4.046 1.126,4.233 0.563,4.421 0,4.609 4.086,2.383 12.176,9.877 16.331,13.056" id="path137" inkscape:connector-curvature="0" style="fill:none;stroke-width:0;stroke-miterlimit:10"/>
    <path d="M 17.458,14.745 C 15.586,12.71 -9.021,-1.925 8.165,1.512 c 4.347,0.869 17.217,3.596 19.428,7.602 3.512,6.362 -4.527,5.047 -10.135,5.631" id="path139" inkscape:connector-curvature="0" style="fill:#6e6e6e;fill-rule:evenodd;clip-rule:evenodd"/>
    <path stroke-miterlimit="10" d="M 17.458,14.745 C 15.586,12.71 -9.021,-1.925 8.165,1.512 c 4.347,0.869 17.217,3.596 19.428,7.602 3.512,6.362 -4.527,5.047 -10.135,5.631" id="path141" inkscape:connector-curvature="0" style="fill:none;stroke-width:0;stroke-miterlimit:10"/>
    <path d="m 11.826,1.793 c -1.361,-0.13 -1.872,0.828 -3.378,0 1.182,1.17 2.021,3.086 2.815,3.942 0.152,0.01 -2.398,-0.509 -2.252,-0.563 3.347,2.377 8.539,3.917 10.137,7.884 -1.021,3.25 9.656,4.255 11.263,0 C 32.752,6.853 15.408,2.72 11.826,1.793" id="path143" inkscape:connector-curvature="0" style="fill:#4a4a4a;fill-rule:evenodd;clip-rule:evenodd"/>
    <path stroke-miterlimit="10" d="m 11.826,1.793 c -1.361,-0.13 -1.872,0.828 -3.378,0 1.182,1.17 2.021,3.086 2.815,3.942 0.152,0.01 -2.398,-0.509 -2.252,-0.563 3.347,2.377 8.539,3.917 10.137,7.884 -1.021,3.25 9.656,4.255 11.263,0 C 32.752,6.853 15.408,2.72 11.826,1.793" id="path145" inkscape:connector-curvature="0" style="fill:none;stroke-width:0;stroke-miterlimit:10"/>
    <path d="M 27.593,9.677 C 25.341,8.972 24.844,9.092 23.089,9.114 l 0,-1.689 C 20.243,7.273 21.062,7.533 18.584,5.735 L 17.458,6.861 C 17.27,6.298 17.082,5.735 16.895,5.172 L 15.769,6.298 C 15.581,5.735 15.394,5.172 15.206,4.609 14.83,4.984 14.455,5.36 14.08,5.735 13.892,4.984 13.705,4.234 13.517,3.483 12.954,4.046 12.391,4.609 11.827,5.172 10.789,3.715 11.654,3.914 10.138,2.357 9.761,2.919 9.386,3.483 9.01,4.046 8.823,3.295 8.635,2.544 8.447,1.793 8.072,2.356 7.697,2.919 7.321,3.483 7.133,2.92 6.946,2.357 6.758,1.793 6.383,2.356 6.008,2.919 5.632,3.483 l 0,-1.69 C 5.069,2.356 4.506,2.919 3.943,3.483 l 0,-1.69 C 3.568,2.356 3.193,2.919 2.817,3.483 l 0,-1.69 C 2.628,2.356 2.44,2.919 2.252,3.483 2.064,3.107 1.877,2.732 1.689,2.356 1.501,2.919 1.314,3.483 1.126,4.046 c 3.06,-8.39 23.576,2.853 26.467,5.631" id="path147" inkscape:connector-curvature="0" style="fill:#c7c7c7;fill-rule:evenodd;clip-rule:evenodd"/>
    <path stroke-miterlimit="10" d="M 27.593,9.677 C 25.341,8.972 24.844,9.092 23.089,9.114 l 0,-1.689 C 20.243,7.273 21.062,7.533 18.584,5.735 L 17.458,6.861 C 17.27,6.298 17.082,5.735 16.895,5.172 L 15.769,6.298 C 15.581,5.735 15.394,5.172 15.206,4.609 14.83,4.984 14.455,5.36 14.08,5.735 13.892,4.984 13.705,4.234 13.517,3.483 12.954,4.046 12.391,4.609 11.827,5.172 10.789,3.715 11.654,3.914 10.138,2.357 9.761,2.919 9.386,3.483 9.01,4.046 8.823,3.295 8.635,2.544 8.447,1.793 8.072,2.356 7.697,2.919 7.321,3.483 7.133,2.92 6.946,2.357 6.758,1.793 6.383,2.356 6.008,2.919 5.632,3.483 l 0,-1.69 C 5.069,2.356 4.506,2.919 3.943,3.483 l 0,-1.69 C 3.568,2.356 3.193,2.919 2.817,3.483 l 0,-1.69 C 2.628,2.356 2.44,2.919 2.252,3.483 2.064,3.107 1.877,2.732 1.689,2.356 1.501,2.919 1.314,3.483 1.126,4.046 c 3.06,-8.39 23.576,2.853 26.467,5.631" id="path149" inkscape:connector-curvature="0" style="fill:none;stroke-width:0;stroke-miterlimit:10"/>
    <path stroke-miterlimit="10" d="m 50.683,14.745 c -0.692,-1.23 -1.116,-1.307 -1.689,-2.815 1.588,1.054 1.905,2.11 2.815,3.379" id="path151" inkscape:connector-curvature="0" style="fill:none;stroke-width:0;stroke-miterlimit:10"/>
    <path stroke-miterlimit="10" d="m 51.246,18.687 c 0.515,2.99 -0.408,5.323 -2.815,6.195" id="path153" inkscape:connector-curvature="0" style="fill:none;stroke-width:0;stroke-miterlimit:10"/>
    <path stroke-miterlimit="10" d="m 52.935,22.63 c 0.945,2.566 0.806,5.223 -0.563,7.32" id="path155" inkscape:connector-curvature="0" style="fill:none;stroke-width:0;stroke-miterlimit:10"/>
    <path d="m 27.031,9.677 c 1.372,3.496 -1.27,4.828 -5.068,4.505 6.252,1.421 12.567,-0.037 18.584,1.126 C 36.874,12.713 29.244,8.913 27.031,9.677" id="path157" inkscape:connector-curvature="0" style="fill:#ff0000;fill-rule:evenodd;clip-rule:evenodd"/>
    <path d="M 28.157,9.677 C 27.663,9.796 26.432,8.961 26.468,10.803 27.09,10.041 28.58,9.575 28.157,9.677" id="path159" inkscape:connector-curvature="0"/>
    <path d="m 28.72,10.24 c -0.929,0.03 -1.661,-0.953 -2.252,0.563 0.75,-0.188 1.502,-0.375 2.252,-0.563" id="path161" inkscape:connector-curvature="0"/>
    <path d="m 28.72,11.366 c -0.271,-0.046 -0.204,-1.705 -2.252,-0.563 0.188,0.375 0.375,0.75 0.563,1.126 0.769,-0.679 1.786,-0.546 1.689,-0.563" id="path163" inkscape:connector-curvature="0"/>
    <path d="m 28.72,11.93 c -0.182,-0.052 -0.63,-0.857 -1.689,-0.563 0.151,1.154 0.75,0.294 1.689,0.563" id="path165" inkscape:connector-curvature="0"/>
    <path d="m 28.72,12.493 c -0.532,-0.167 -0.973,-1.199 -1.689,0 0.17,-1.022 0.823,-0.272 1.689,0" id="path167" inkscape:connector-curvature="0"/>
    <path d="m 28.157,13.62 c -0.352,-0.703 0.78,-2.11 -1.689,-1.126 1.534,0.317 1.811,1.369 1.689,1.126" id="path169" inkscape:connector-curvature="0"/>
    <path d="m 28.157,14.182 c -0.593,-1.179 -1.115,-2.242 -1.126,-2.252 0.795,1.369 1.049,2.099 1.126,2.252" id="path171" inkscape:connector-curvature="0"/>
    <path d="m 27.031,14.182 c 0.042,-0.385 1.517,-1.237 -0.563,-1.689 0.661,0.747 0.547,1.833 0.563,1.689" id="path173" inkscape:connector-curvature="0"/>
    <path d="m 26.468,14.182 c -0.004,0.034 0.814,-0.782 0.563,-1.689 -2.289,-0.331 -0.427,0.611 -0.563,1.689" id="path175" inkscape:connector-curvature="0"/>
    <path d="m 25.341,14.745 c 0.253,-1.104 2.192,-1.607 -0.563,-2.252 0.188,0.751 0.376,1.502 0.563,2.252" id="path177" inkscape:connector-curvature="0"/>
    <path d="m 24.778,14.745 c -0.016,-0.336 0.639,-1.481 -0.563,-2.252 0.188,0.751 0.375,1.502 0.563,2.252" id="path179" inkscape:connector-curvature="0"/>
    <path d="m 24.215,14.745 c 0.007,0.206 0.447,-1.372 0,-2.252 -1.033,0.98 -0.045,1.075 0,2.252" id="path181" inkscape:connector-curvature="0"/>
    <path d="m 22.526,13.056 0,2.252 c 0.563,-0.188 1.126,-0.375 1.689,-0.563 -0.188,-0.563 -0.375,-1.126 -0.563,-1.689 0.329,-0.463 -2.709,2.729 -1.689,2.252 l 0,-1.689 c -1.126,0.188 -2.252,0.375 -3.379,0.563 1.126,0.375 2.252,0.751 3.379,1.126 0.187,-0.75 0.375,-1.501 0.563,-2.252" id="path183" inkscape:connector-curvature="0"/>
    <path d="m 23.652,13.62 c -0.197,0.266 -1.741,-0.85 -1.689,1.689 0.563,0.188 1.126,0.375 1.689,0.563 l 0,-2.252" id="path185" inkscape:connector-curvature="0"/>
    <path d="m 25.904,13.62 c -2.377,2.376 -2.376,2.375 0,0" id="path187" inkscape:connector-curvature="0"/>
    <path d="m 29.284,14.182 c -1.126,-0.188 -2.253,-0.375 -3.379,-0.563 1.084,4.081 1.822,1.58 3.379,0.563" id="path189" inkscape:connector-curvature="0"/>
    <path d="m 32.099,14.182 -2.815,0 0,1.689 c 3.143,0.92 1.896,-1.196 2.815,-1.689" id="path191" inkscape:connector-curvature="0"/>
    <path d="m 34.915,14.182 -2.815,0 0,1.689 c 0.938,0.188 1.877,0.375 2.815,0.563 l 0,-2.252" id="path193" inkscape:connector-curvature="0"/>
    <path d="m 36.604,14.182 c -0.69,0.936 -2.472,-0.559 -1.69,2.252 1.916,-1.08 1.423,-1.889 1.69,-2.252" id="path195" inkscape:connector-curvature="0"/>
    <path d="m 38.294,14.182 c -0.757,0.889 -2.307,-0.837 -1.689,1.689 l 1.689,0 c -0.804,-0.133 -0.558,-1.034 0,-1.689" id="path197" inkscape:connector-curvature="0"/>
    <path d="m 39.42,14.182 c 0.329,-0.569 -1.091,0.49 -1.69,1.689 0.668,0.383 1.64,0.271 2.253,0.563 -0.75,0 -0.75,0 0,0 -0.188,-0.75 -0.375,-1.501 -0.563,-2.252" id="path199" inkscape:connector-curvature="0"/>
    <path d="m 39.983,15.872 c -1.012,-0.498 2.577,-2.144 -0.563,-1.689 0.364,0.509 1.71,2.287 1.689,2.252 l 0,-2.252 0,2.252 c 0.75,-0.188 1.501,-0.375 2.253,-0.563 -2.304,-2.981 -2.147,0.121 -3.379,0" id="path201" inkscape:connector-curvature="0"/>
    <path d="m 38.857,15.309 c 0.775,-0.429 1.573,1.091 2.252,-1.126 -1.69,-1.19 -1.046,0.459 -2.252,1.126" id="path203" inkscape:connector-curvature="0"/>
    <path d="m 37.73,14.182 c 0.923,-0.261 1.267,2.232 2.253,-0.563 -1.526,-2.249 -0.988,0.205 -2.253,0.563" id="path205" inkscape:connector-curvature="0"/>
    <path d="m 36.041,13.62 c 1.133,-0.666 1.957,1.433 2.816,-1.126 -0.474,-0.347 -2.049,-0.994 -2.252,-1.127 l -0.564,2.253" id="path207" inkscape:connector-curvature="0"/>
    <path d="m 33.789,12.493 c 0.75,0.375 1.502,0.75 2.252,1.126 0.342,-4.438 -0.741,-1.53 -2.252,-1.126" id="path209" inkscape:connector-curvature="0"/>
    <path d="m 32.099,11.93 c 1.009,-0.667 2.026,1.626 2.253,-1.126 -0.563,-0.375 -1.126,-0.751 -1.69,-1.126 -0.188,0.75 -0.375,1.501 -0.563,2.252" id="path211" inkscape:connector-curvature="0"/>
    <path d="m 30.41,11.366 c 0.959,-0.84 2.316,1.736 2.252,-1.689 l -1.689,0 c 0.152,0.629 -0.448,1.575 -0.563,1.689" id="path213" inkscape:connector-curvature="0"/>
    <path d="m 28.157,10.803 c 1.71,-0.684 2.271,1.59 3.379,-1.126 -3.183,-1.282 -2.475,0.36 -3.379,1.126" id="path215" inkscape:connector-curvature="0"/>
    <path d="m 27.593,10.24 c -0.375,0.61 1.445,-0.637 1.69,-1.689 -0.509,0.133 -0.884,-0.055 -1.126,-0.563 0.751,0.751 0.751,0.751 0,0 -0.187,0.75 -0.376,1.502 -0.564,2.252" id="path217" inkscape:connector-curvature="0"/>
    <path d="M 27.031,10.24 C 27.177,9.919 28.165,9.082 28.157,7.988 27.031,8.37 27.537,9.122 27.031,10.24" id="path219" inkscape:connector-curvature="0"/>
    <path d="m 27.593,8.551 c -0.5,0.876 -1.686,0.726 -0.563,1.689 0.188,-0.75 0.375,-1.502 0.563,-2.252 -0.639,0.056 -1.321,1.155 -1.689,1.126 L 27.03,7.988 C 26.467,7.8 25.904,7.613 25.341,7.425 c 0.194,2.361 0.873,1.004 2.252,1.126" id="path221" inkscape:connector-curvature="0"/>
    <path d="M 27.593,9.114 C 27.529,9.135 26.85,8.26 25.904,10.24 25.757,10.054 26.358,9.501 27.593,9.114" id="path223" inkscape:connector-curvature="0"/>
    <path stroke-miterlimit="10" d="m 28.72,10.803 c -0.231,1.053 -0.111,1.937 0.563,2.253" id="path225" inkscape:connector-curvature="0" style="fill:none;stroke-width:0;stroke-miterlimit:10"/>
    <path d="m 1.689,13.62 c 1.972,-0.684 2.501,-0.585 3.942,-1.126 1.492,0.781 0.059,1.028 2.253,0 0.188,0.563 0.375,1.126 0.563,1.689 1.25,-0.467 1.016,-0.562 2.252,-1.126 0.188,0.563 0.375,1.126 0.563,1.689 0.375,-0.563 0.751,-1.126 1.126,-1.689 2.142,1.683 1.033,1.343 3.378,0.563 0.188,0.563 0.376,1.126 0.563,1.689 2.535,-1.127 2.534,-1.126 5.068,-2.252 0.188,0.563 0.375,1.126 0.563,1.689 1.992,-1.023 0.715,-1.145 2.816,-1.689 l 0,1.689 c 0.375,-0.563 0.75,-1.126 1.126,-1.689 -2.233,5.561 -19.716,2.921 -24.213,0.563" id="path227" inkscape:connector-curvature="0" style="fill:#c7c7c7;fill-rule:evenodd;clip-rule:evenodd"/>
    <path stroke-miterlimit="10" d="m 1.689,13.62 c 1.972,-0.684 2.501,-0.585 3.942,-1.126 1.492,0.781 0.059,1.028 2.253,0 0.188,0.563 0.375,1.126 0.563,1.689 1.25,-0.467 1.016,-0.562 2.252,-1.126 0.188,0.563 0.375,1.126 0.563,1.689 0.375,-0.563 0.751,-1.126 1.126,-1.689 2.142,1.683 1.033,1.343 3.378,0.563 0.188,0.563 0.376,1.126 0.563,1.689 2.535,-1.127 2.534,-1.126 5.068,-2.252 0.188,0.563 0.375,1.126 0.563,1.689 1.992,-1.023 0.715,-1.145 2.816,-1.689 l 0,1.689 c 0.375,-0.563 0.75,-1.126 1.126,-1.689 -2.233,5.561 -19.716,2.921 -24.213,0.563" id="path229" inkscape:connector-curvature="0" style="fill:none;stroke-width:0;stroke-miterlimit:10"/>
    <path d="m 0.563,13.62 c 8.962,-1.555 20.864,1.125 30.41,1.125 1.766,0 23.219,3.597 16.331,7.04 C 40.538,25.166 42.092,28.85 30.41,26.571 24.633,25.444 -0.117,19.329 0.563,13.62" id="path231" inkscape:connector-curvature="0" style="fill:#61c9ff;fill-rule:evenodd;clip-rule:evenodd"/>
    <path stroke-miterlimit="10" d="m 0.563,13.62 c 8.962,-1.555 20.864,1.125 30.41,1.125 1.766,0 23.219,3.597 16.331,7.04 C 40.538,25.166 42.092,28.85 30.41,26.571 24.633,25.444 -0.117,19.329 0.563,13.62" id="path233" inkscape:connector-curvature="0" style="fill:none;stroke-width:0;stroke-miterlimit:10"/>
    <path stroke-miterlimit="10" d="m 8.447,16.435 c 12.622,3.316 24.689,2.929 36.604,4.505" id="path235" inkscape:connector-curvature="0" style="fill:none;stroke-width:0;stroke-miterlimit:10"/>
    <path stroke-miterlimit="10" d="m 31.536,22.63 c 2.952,0.843 6.861,3.826 10.699,5.068" id="path237" inkscape:connector-curvature="0" style="fill:none;stroke-width:0;stroke-miterlimit:10"/>
    <path stroke-miterlimit="10" d="m 45.615,16.998 c -3.218,-0.951 -5.69,-1.852 -9.01,-1.126" id="path239" inkscape:connector-curvature="0" style="fill:none;stroke-width:0;stroke-miterlimit:10"/>
    <path stroke-miterlimit="10" d="m 47.304,18.125 c 1.157,3.252 -0.407,4.68 -3.941,4.505" id="path241" inkscape:connector-curvature="0" style="fill:none;stroke-width:0;stroke-miterlimit:10"/>
    <path stroke-miterlimit="10" d="m 42.235,22.63 c -1.286,0.699 -2.903,0.756 -4.505,0" id="path243" inkscape:connector-curvature="0" style="fill:none;stroke-width:0;stroke-miterlimit:10"/>
    <path stroke-miterlimit="10" d="M 40.546,27.134 C 31.747,27.795 22.796,24.142 14.641,21.503 11.318,20.428 -3.506,16.994 1.688,13.056 c 2.373,-1.799 19.118,1.01 22.526,1.126 5.793,0.198 14.107,-1.553 19.147,1.689" id="path245" inkscape:connector-curvature="0" style="fill:none;stroke-width:0;stroke-miterlimit:10"/>
    <path d="m 3.942,1.23 c 8.524,0.059 16.888,5.869 24.215,9.01 5.732,2.457 20.611,11.593 18.583,3.379 C 44.754,5.578 36.29,6.526 29.846,5.172 22.273,3.582 8.721,-3.172 1.689,1.793 2.38,1.047 2.958,1.168 3.942,1.23" id="path247" inkscape:connector-curvature="0" style="fill:#346ec4;fill-rule:evenodd;clip-rule:evenodd"/>
    <path stroke-miterlimit="10" d="m 3.942,1.23 c 8.524,0.059 16.888,5.869 24.215,9.01 5.732,2.457 20.611,11.593 18.583,3.379 C 44.754,5.578 36.29,6.526 29.846,5.172 22.273,3.582 8.721,-3.172 1.689,1.793 2.38,1.047 2.958,1.168 3.942,1.23" id="path249" inkscape:connector-curvature="0" style="fill:none;stroke-width:0;stroke-miterlimit:10"/>
    <path stroke-miterlimit="10" d="M 2.252,1.793 C 12.54,-1.322 34.778,12.508 43.925,16.998" id="path251" inkscape:connector-curvature="0" style="fill:none;stroke-width:0;stroke-miterlimit:10"/>
    <path stroke-miterlimit="10" d="M 45.051,10.803 C 42.434,4.327 33.16,6.282 27.593,4.89 20.403,3.093 8.426,-2.964 1.689,1.793" id="path253" inkscape:connector-curvature="0" style="fill:none;stroke-width:0;stroke-miterlimit:10"/>
    <path d="m 36.041,7.988 c 12.174,-2.792 0.497,8.565 0,0" id="path255" inkscape:connector-curvature="0" style="fill:#00547f;fill-rule:evenodd;clip-rule:evenodd"/>
    <path stroke-miterlimit="10" d="m 36.041,7.988 c 12.174,-2.792 0.497,8.565 0,0" id="path257" inkscape:connector-curvature="0" style="fill:none;stroke-width:0;stroke-miterlimit:10"/>
    <path d="m 29.846,7.425 c -1.313,0.34 0.255,-0.704 2.253,0 -1.507,1.24 -1.272,-0.254 -2.253,0" id="path259" inkscape:connector-curvature="0" style="fill-rule:evenodd;clip-rule:evenodd"/>
    <path stroke-miterlimit="10" d="m 29.846,7.425 c -1.313,0.34 0.255,-0.704 2.253,0 -1.507,1.24 -1.272,-0.254 -2.253,0" id="path261" inkscape:connector-curvature="0" style="fill:none;stroke-width:0;stroke-miterlimit:10"/>
    <path stroke-miterlimit="10" d="M 29.846,7.425 C 28.095,6.984 26.74,6.301 25.341,5.172" id="path263" inkscape:connector-curvature="0" style="fill:none;stroke-width:0;stroke-miterlimit:10"/>
    <path d="M 38.294,8.551 C 39.549,9.16 40.568,8.347 41.109,9.676 39.001,10.211 38.972,8.88 38.294,8.551" id="path265" inkscape:connector-curvature="0" style="fill:#ffffff;fill-rule:evenodd;clip-rule:evenodd"/>
    <path stroke-miterlimit="10" d="M 38.294,8.551 C 39.549,9.16 40.568,8.347 41.109,9.676 39.001,10.211 38.972,8.88 38.294,8.551" id="path267" inkscape:connector-curvature="0" style="fill:none;stroke-width:0;stroke-miterlimit:10"/>
    <path d="m 39.42,9.677 c 0.979,-1.363 0.516,-0.718 0,0" id="path269" inkscape:connector-curvature="0" style="fill-rule:evenodd;clip-rule:evenodd"/>
    <path stroke-miterlimit="10" d="m 39.42,9.677 c 0.979,-1.363 0.516,-0.718 0,0" id="path271" inkscape:connector-curvature="0" style="fill:none;stroke-width:0;stroke-miterlimit:10"/>
    <path d="m 44.488,11.366 c -0.129,-0.154 1.508,0.26 1.689,2.253 l -1.126,0 c -0.015,-0.754 -0.136,-1.743 -0.563,-2.253" id="path273" inkscape:connector-curvature="0" style="fill-rule:evenodd;clip-rule:evenodd"/>
    <path stroke-miterlimit="10" d="m 44.488,11.366 c -0.129,-0.154 1.508,0.26 1.689,2.253 l -1.126,0 c -0.015,-0.754 -0.136,-1.743 -0.563,-2.253" id="path275" inkscape:connector-curvature="0" style="fill:none;stroke-width:0;stroke-miterlimit:10"/>
    <path stroke-miterlimit="10" d="m 45.615,12.493 c 1.189,1.054 1.417,2.332 0.563,3.941" id="path277" inkscape:connector-curvature="0" style="fill:none;stroke-width:0;stroke-miterlimit:10"/>
    <path stroke-miterlimit="10" d="m 36.041,8.551 c 1.68,-0.87 3.55,-0.642 5.068,0.563" id="path279" inkscape:connector-curvature="0" style="fill:none;stroke-width:0;stroke-miterlimit:10"/>
    <path stroke-miterlimit="10" d="m 42.235,10.24 c -0.333,2.191 -2.147,2.066 -4.505,0.563" id="path281" inkscape:connector-curvature="0" style="fill:none;stroke-width:0;stroke-miterlimit:10"/>
    <path stroke-miterlimit="10" d="m 41.109,9.114 c 0.741,-0.057 0.757,0.465 0.563,1.126" id="path283" inkscape:connector-curvature="0" style="fill:none;stroke-width:0;stroke-miterlimit:10"/>
    <path stroke-miterlimit="10" d="m 42.798,10.803 c 0.509,0.243 0.696,0.619 0.564,1.126" id="path285" inkscape:connector-curvature="0" style="fill:none;stroke-width:0;stroke-miterlimit:10"/>
    <path stroke-miterlimit="10" d="m 45.615,10.803 c 1.062,1.86 2.305,4.14 3.378,6.194" id="path287" inkscape:connector-curvature="0" style="fill:none;stroke-width:0;stroke-miterlimit:10"/>
    <path stroke-miterlimit="10" d="m 48.993,15.309 c 1.591,1.539 1.899,3.745 1.126,6.194" id="path289" inkscape:connector-curvature="0" style="fill:none;stroke-width:0;stroke-miterlimit:10"/>
    <path stroke-miterlimit="10" d="m 45.615,23.192 c 1.364,-0.271 2.379,-0.761 3.378,-1.689" id="path291" inkscape:connector-curvature="0" style="fill:none;stroke-width:0;stroke-miterlimit:10"/>
    <path stroke-miterlimit="10" d="m 48.431,18.125 c 1.167,2.662 0.695,5.108 -1.69,6.757" id="path293" inkscape:connector-curvature="0" style="fill:none;stroke-width:0;stroke-miterlimit:10"/>
    <path stroke-miterlimit="10" d="m 45.051,26.571 c 1.306,1.753 2.232,2.466 5.068,3.379" id="path295" inkscape:connector-curvature="0" style="fill:none;stroke-width:0;stroke-miterlimit:10"/>
    <path stroke-miterlimit="10" d="m 38.294,8.551 c 1.63,0.025 3.119,0.179 2.252,1.125" id="path297" inkscape:connector-curvature="0" style="fill:none;stroke-width:0;stroke-miterlimit:10"/>
  </g>
  <metadata id="metadata151">
    <rdf:RDF>
      <cc:Work>
        <dc:format>image/svg+xml</dc:format>
        <dc:type rdf:resource="http://purl.org/dc/dcmitype/StillImage"/>
        <cc:license rdf:resource="http://creativecommons.org/publicdomain/zero/1.0/"/>
        <dc:publisher>
          <cc:Agent rdf:about="http://openclipart.org/">
            <dc:title>WPClipart</dc:title>
          </cc:Agent>
        </dc:publisher>
        <dc:title>aquatic dinosaur</dc:title>
        <dc:date>12/07/2013</dc:date>
        <dc:creator>
          <cc:Agent>
            <dc:title>edited by Paul Sherman</dc:title>
          </cc:Agent>
        </dc:creator>
        <dc:rights>
          <cc:Agent>
            <dc:title>PD</dc:title>
          </cc:Agent>
        </dc:rights>
        <dc:subject>
          <rdf:Bag>
            <rdf:li>dinosaur</rdf:li>
            <rdf:li>aquatic</rdf:li>
          </rdf:Bag>
        </dc:subject>
      </cc:Work>
      <cc:License rdf:about="http://creativecommons.org/publicdomain/zero/1.0/">
        <cc:permits rdf:resource="http://creativecommons.org/ns#Reproduction"/>
        <cc:permits rdf:resource="http://creativecommons.org/ns#Distribution"/>
        <cc:permits rdf:resource="http://creativecommons.org/ns#DerivativeWorks"/>
      </cc:License>
    </rdf:RDF>
  </metadata>
</svg>