<?xml version="1.0" encoding="UTF-8" standalone="no"?>
<svg viewBox="0 0 185 220" xml:space="preserve" xmlns="http://www.w3.org/2000/svg"><defs></defs><g transform="matrix(1.25,0,0,-1.25,0,220)"><g transform="scale(.24)"><path d="m310.895,47.1016c-6.165-2.836-19-5.336-25.168-5.336-25.5-.164-52,8.336-68,29-6.832,3.168-13.164,7.668-16.664,13.336-7.336,4-14.5,10.6679-18.168,15.6679-27.832,37.6645-24.832,99.0005 25.832,112.8325 46.668,12.668 82.168-28.332 70.5-71.332-6.164-22.168 2.336-44.5005 10.168-64.8364 3.832-9.832 13.335-19.5 21.168-23 4.667-2.168 4.332-4.5.332-6.332" fill="#9eb4c1"></path><path d="m311.23,47.1016c-32.835-3.836-28.167,14.332-38.667,18.164-7.668,2.668-3.836,17.5039-10.668,24.168-6.5,6-2.5,16.6684-6.668,24.1684-3.332,6.332-5.832,13-5,19.5 18.336,8.5 31.168,20.168 27.668,45.332 4.168-11.332 5-24.164 1.5-37.164-6.168-22.168 2.5-44.5005 10.168-64.8364 3.832-10 13.5-19.5 21.332-23 4.668-2.332 4.335-4.5.335-6.332" fill="#b7d1df"></path><path d="m285.895,41.7656c-25.5-.164-52,8.336-68.168,29-6.832,3.168-13.164,7.668-16.664,13.336-7.336,4-14.5,10.6679-18.168,15.6679-27.832,37.6645-24.832,99.0005 25.832,112.8325 32.5,8.832 59.668-8.5 69.168-34.168 3.5-25.164-9.332-36.832-27.668-45.332-16.664-7.832-24.332-24-47.164-28 9-13.0004 19.164-18.0004 33.5-20.1684-6.836-3.5-15.668-3.6641-23.5.668 11.5-10.5 24.164-15.668 40.664-17.336-4.164-1.832-9.832-2.332-15.832-1.832 7-14 20.832-21.5 48-24.668" fill="#8697a3"></path><path d="m310.895,47.1016c-6.165-2.836-19-5.336-25.168-5.336-25.5-.164-52,8.336-68,29-6.832,3.168-13.164,7.668-16.664,13.336-7.336,4-14.5,10.6679-18.168,15.6679-27.832,37.6645-24.832,99.0005 25.832,112.8325 46.668,12.668 82.168-28.332 70.5-71.332-6.164-22.168 2.336-44.5005 10.168-64.8364 3.832-9.832 13.335-19.5 21.168-23 4.667-2.168 4.332-4.5.332-6.332z" fill="none" stroke="#484f57" stroke-width=".66667"></path><path d="m237.727,66.4336c-6,0-13.332,1.5-20,4.332" fill="none" stroke="#484f57" stroke-width=".66667"></path><path d="m208.895,80.9336c-2.5.5-5.168,1.668-7.832,3.168" fill="none" stroke="#484f57" stroke-width=".66667"></path><path d="m270.063,98.4336c3.664,3.3364 6.664,7.5004 8.5,13.0004" fill="none" stroke="#484f57" stroke-width=".66667"></path><path d="m2.0625,6.60156c0,7.16404 5.33203,19.83204 10.5,23.66404 2.1641,13.168 21.832,24.668 18.1641,43.836-4,21.1679-1.1641,45.0004 8.3359,68.6684-1,8.5-.8359,17 1.1641,25.5-4.8321,23.664-3.1641,53.5 1.1679,77.332-2.5,24.332.668,46.832 9.168,64 3.5,28.832 20.1641,62.332 43,80.836 6.6645,5.496 22.3325-1.5 36.5005-43.004 32.164-93.5-20.836-163.832-21.336-192.164-.332-12-10.3325-22-7.832-34.336 3.168-14.664 1.668-29.8324-4.1684-43.3324-4.6641-11.336-1.3321-20.836.6679-33.336 1.168-7 10.5005-8.5 9.1685-15.164 2.664-4.5 5.332-11.168 7-16.836 .664-2.49997-1.168-4.16404-17.5005-2.99997-1.668,0-2.668.5-2.5,1.16797h-1.668c1-3.00001-2.5-3.83204-12.6679-3.66797-8.8321.16796-11,.83593-10.8321,2.33593-3.5-1.16797-6.332-.33593-9.5-1 .5-3.83593-23.5-4.33593-23,.66407-2.5-.83204-6.832-1-9.332-.33204-11-4.16796-24.5-3.5-24.5-1.83203" fill="#9eb4c1"></path><path d="m2.0625,6.60156c0,7.16404 5.33203,20.00004 10.5,23.83204 4.6641,3.5 11.332-2.832 14-22.00001-11-4.16796-24.5-3.5-24.5-1.83203" fill="#bdbba6"></path><path d="m35.8945,8.76563c1.5,11.83597 8.3321,20.16797 11.8321,19.99997 2.3359,0 9-4.164 11.1679-20.49997 .5-4-23.5-4.5-23,.5" fill="#bdbba6"></path><path d="m68.3945,9.10156c1.168,9.66404 5,20.83204 10.168,20.83204 4.832,0 10-8.668 13.332-19.5 1-3.00001-2.5-3.83204-12.6679-3.66797-8.8321.16796-11,1-10.8321,2.33593" fill="#bdbba6"></path><path d="m93.5625,10.6016c1.1641,7.664 3,13 6.5005,18.5 2.164,3.332 4.832,3.164 6.5.164 2.664-4.5 5.332-11.164 7-17 .664-2.49997-1.168-4.16404-17.5005-2.99997-1.668.16796-2.668.5-2.5,1.33597" fill="#bdbba6"></path><path d="m26.5625,8.60156c.832,16.83204 13.1641,22.33204 21.6641,35.16404 .8359-5.332-1-10-.6641-15-3.5,0-10.3359-8-11.668-19.83201-2.6679-.83203-7-1-9.332-.33203" fill="#8697a3"></path><path d="m64.0625,8.60156c4.332,25.83204 9.332,19.16404 13,36.16404 2.1641-5.664 2.5-10.5 2.832-15.164-.5.164-1,.332-1.6679.332-5,0-8.8321-11-10-20.66797-1.5-.5-2.8321-.66407-4.1641-.66407" fill="#8697a3"></path><path d="m91.7266,10.6016c-.8321,2.332-1.6641,4.664-2.5,6.832 4.1679,8.5 3.3359,20.5-1,29 6.3359-3.832 10.8359-10.668 12.5004-16.332-.332-.336-.664-.668-1.0004-1.168-3.5-5.332-5.3321-10.668-6.3321-18.332h-1.6679" fill="#8697a3"></path><path d="m30.7266,74.1016c-4.1641,21.332-1.1641,45.0004 8.1679,68.6684-.832,8.5-.832,17 1.3321,25.5-5,23.664-3.3321,53.5 1.1679,77.164-2.6679,24.336.5,46.836 9.168,64-5.168-17.664-7.8359-37-2.3359-54.164 6-18.168-9.3321-34.5-3.6641-52.168 10.332-31.332-9.5-58.832 13.6641-72.5 14.8359-9 8-22.5-3-15-7.5,5.168-16.3321,3.5-18.8321-5.832-3-11.1684-5-22.5005-5.6679-35.6684" fill="#8697a3"></path><path d="m2.0625,6.60156c0,7.16404 5.33203,19.83204 10.5,23.66404 2.1641,13.168 21.832,24.668 18.1641,43.836-4,21.1679-1.1641,45.0004 8.3359,68.6684-1,8.5-.8359,17 1.1641,25.5-4.8321,23.664-3.1641,53.5 1.1679,77.332-2.5,24.332.668,46.832 9.168,64 3.5,28.832 20.1641,62.332 43,80.836 6.6645,5.496 22.3325-1.5 36.5005-43.004 32.164-93.5-20.836-163.832-21.336-192.164-.332-12-10.3325-22-7.832-34.336 3.168-14.664 1.668-29.8324-4.1684-43.3324-4.6641-11.336-1.3321-20.836.6679-33.336 1.168-7 10.5005-8.5 9.1685-15.164 2.664-4.5 5.332-11.168 7-16.836 .664-2.49997-1.168-4.16404-17.5005-2.99997-1.668,0-2.668.5-2.5,1.16797h-1.668c1-3.00001-2.5-3.83204-12.6679-3.66797-8.8321.16796-11,.83593-10.8321,2.33593-3.5-1.16797-6.332-.33593-9.5-1 .5-3.83593-23.5-4.33593-23,.66407-2.5-.83204-6.832-1-9.332-.33204-11-4.16796-24.5-3.5-24.5-1.83203z" fill="none" stroke="#484f57" stroke-width=".66667"></path><path d="m93.5625,10.4336c1.1641,7.668 3,13 6.5005,18.332 2.164,3.5 4.832,3.336 6.5.336" fill="none" stroke="#484f57" stroke-width=".66667"></path><path d="m68.3945,9.10156c1.168,9.66404 5,20.66404 10.168,20.66404 4.832,0 10-8.5 13.332-19.332" fill="none" stroke="#484f57" stroke-width=".66667"></path><path d="m35.8945,8.76563c1.5,11.83597 8.3321,19.99997 11.8321,19.83597 2.3359,0 9-4.168 11.1679-20.50004" fill="none" stroke="#484f57" stroke-width=".66667"></path><path d="m12.5625,30.2656c4.6641,3.5 11.332-2.832 14-21.83201" fill="none" stroke="#484f57" stroke-width=".66667"></path><path d="m97.8945,126.27c-5.5-1.836-12.332-.668-17.5,2.332" fill="none" stroke="#484f57" stroke-width=".66667"></path><path d="m69.2266,142.27c7.1679-7 17.3359-12.5 27.8359-10.668" fill="none" stroke="#484f57" stroke-width=".66667"></path><path d="m276.563,11.7656c-2.668.336-.5,9.668 5.832,18.5-.668,1.668-.5,3.836.668,5.836 7.832,13.5 7.664,28.1679 6.5,40.1679-1.668,13.6641-6.168,27.3325-3.336,41.3325 1.668,8.332 5.168,17.832.668,25.5-15,40-23.168,119.5-14.832,144.168 12.332,35.832 71.5,45.164 84.832,3.332 13.5-42.832 8.835-98.332 4.168-163.832-1.668-24.336-14.5-46.5005-12.333-71.1684 .333-4.668.165-15.5 5.5-17.668 3.665-1.5 5.333-4.668 5-8.5 3.165-4 5-8.5 5.665-14.332-5.332-.668-11.5-.668-16.665-.5 .165-1.668-1.335-2-3.667-1.5-4.5,1-8.668-1.168-14.168,0-2.165.5-2.832,1-2.665,1.832-1.335-.668-4.167-1.168-6.167-1.168 .332-3.664-20.168-4.83201-20-.332-2.168-.168-4.668,0-6.168.668 .168-.668-.668-1.336-1.832-1.336-6.5,0-10.836-1.832-17-1" fill="#9eb4c1"></path><path d="m276.727,11.7656c-2.664.336-.664,10 5.836,18.836 4,5.832 9,5.5 12.832-16.5 .168-.668-.5-1.336-1.665-1.336-6.667,0-10.835-1.832-17.003-1" fill="#fffde0"></path><path d="m301.563,13.4336c.332,12 4.667,20.5 9.667,20.668 3.833.164 9-4.336 10.5-20.336 .333-3.664-20.335-4.83201-20.167-.332" fill="#fffde0"></path><path d="m327.73,14.9336c1,12 4.333,18 9.665,17.832 2.835,0 6.668-2.164 9.335-11 4.665,14 8.833,13 12.665,8.168 3.168-4.168 4.835-8.832 5.668-14.668-5.333-.664-11.5-.832-16.833-.664 .333-1.668-1.167-2-3.5-1.336-4.667.836-8.667-1.332-14.167,0-2.168.336-2.833,1-2.833,1.668" fill="#fffde0"></path><path d="m315.395,38.4336c.5,5.168 1.335,9.168 3.5,14 1.168-5.832 3-12 3.668-18 .167-2.5-1.668-.5-3,.668-1.668,1.332-2.668,2-4.168,3.332" fill="#b7d1df"></path><path d="m326.063,60.2656c-8.333,4.668 1.167,13.336 3,19.168 .667,2.5 3.332,1.168 2-1-3-5.1641-3.333-11-4.168-16.832-.165-1.836-.165-1.836-.832-1.336" fill="#b7d1df"></path><path d="m340.395,31.6016c4.168,7.832-5.665,9.5-4,18.832 2.668,14 .335,17.168 2.668,29.5 3.5,18.3359 11.167,36.0004 7.167,54.8364-2,10 2.833,19.832 5.333,31.832 5.167,5 9.832,10.5 13.5,15.832-1-17.5-2.333-36.164-3.668-55.5-1.832-24.332-14.665-46.5004-12.5-71.1684 .335-4.664.168-15.5 5.5-17.664 3.668-1.5 5.335-4.836 5-8.5-3.665,4.832-7.832,5.832-12.665-7.836-1.835,5.836-4.167,8.5-6.335,9.836" fill="#b7d1df"></path><path d="m299.395,13.6016c-.832,13.5 7,25 8.668,38 1.832-5.836 1.832-12.168 3.667-17.836h-.667c-5-.164-9.168-8.5-9.5-20.164h-2.168" fill="#8697a3"></path><path d="m325.563,14.4336c-2.333,10.832 5.5,19.168 8.5,28.832 1.5-3.832 3.167-6.832 4-10.832h-.668c-5.332.168-8.665-5.668-9.665-17.332-.5-.336-1.335-.5-2.167-.668" fill="#8697a3"></path><path d="m282.395,30.4336c-.668,1.668-.5,3.668.668,5.832 7.832,13.5 7.664,28.168 6.5,40.168-1.668,13.668-6.168,27.3364-3.336,41.3364 1.668,8.164 5.168,17.832.668,25.332-15,40.168-23.168,119.5-14.832,144.168 12.332,35.832 71.5,45.164 84.832,3.332 9.5-30.168 10-66.5 7.835-108.332-11.335-16.836-31-33.668-53-40.5 2.665-5 15.833-5 22.833-2.836-9.168-3.664-19.833-5-29.168-1.164-7.168,3-9.332,2.664-6.665.832 7.165-5 16-7 24.665-6.168-6-4.664-18-6.5-27.5-3.164-13.332-31.1684 10-65.3364-9.332-95.8364-1.5,0-2.836-1.168-4.168-3" fill="#8697a3"></path><path d="m276.727,11.7656c-2.664.336-.664,10 5.836,18.836 4,5.832 9,5.5 13-16.5 0-.668-.668-1.336-1.833-1.336-6.667,0-10.835-1.832-17.003-1" fill="#bdbba6"></path><path d="m301.563,13.4336c.332,12 4.667,20.5 9.667,20.668 2.165-8 2.833-16.836.665-23.5-5.165-.168-10.332.664-10.332,2.832" fill="#bdbba6"></path><path d="m327.895,14.9336c1,12 4.168,18 9.668,17.832 4-5.332 5.667-11.5 5.667-19.332-4,.332-7.835-1.332-12.667-.168-2.168.336-2.833,1-2.668,1.668" fill="#bdbba6"></path><path d="m348.395,14.6016c-.5,2.832-1.165,5.164-1.665,7.164 1.833,5.5 3.665,8.836 5.5,10.336 4.5-4 6.665-6.668 8.165-17.336-4.165-.164-8.332-.332-12-.164" fill="#bdbba6"></path><path d="m276.563,11.7656c-2.668.336-.5,9.668 5.832,18.5-.668,1.668-.5,3.836.668,5.836 7.832,13.5 7.664,28.1679 6.5,40.1679-1.668,13.6641-6.168,27.3325-3.336,41.3325 1.668,8.332 5.168,17.832.668,25.5-15,40-23.168,119.5-14.832,144.168 12.332,35.832 71.5,45.164 84.832,3.332 13.5-42.832 8.835-98.332 4.168-163.832-1.668-24.336-14.5-46.5005-12.333-71.1684 .333-4.668.165-15.5 5.5-17.668 3.665-1.5 5.333-4.668 5-8.5 3.165-4 5-8.5 5.665-14.332-5.332-.668-11.5-.668-16.665-.5 .165-1.668-1.335-2-3.667-1.5-4.5,1-8.668-1.168-14.168,0-2.165.5-2.832,1-2.665,1.832-1.335-.668-4.167-1.168-6.167-1.168 .332-3.664-20.168-4.83201-20-.332-2.168-.168-4.668,0-6.168.668 .168-.668-.668-1.336-1.832-1.336-6.5,0-10.836-1.832-17-1z" fill="none" stroke="#484f57" stroke-width=".66667"></path><path d="m346.563,21.6016c4.832,13.664 9,12.664 12.667,7.832" fill="none" stroke="#484f57" stroke-width=".66667"></path><path d="m327.73,14.9336c1,11.668 4.333,17.5 9.665,17.332 3.335,0 8.335-3.164 10.835-17.664" fill="none" stroke="#484f57" stroke-width=".66667"></path><path d="m301.563,13.4336c.332,11.668 4.5,20 9.5,20.168 3.832.164 9-4.168 10.5-19.836" fill="none" stroke="#484f57" stroke-width=".66667"></path><path d="m282.395,30.2656c4,5.5 9.168,5.168 13-16.164" fill="none" stroke="#484f57" stroke-width=".66667"></path><path d="m298.73,138.602c7.165-5.168 16-7.168 24.665-6.168" fill="none" stroke="#484f57" stroke-width=".66667"></path><path d="m305.395,137.77c9.335-4 20-2.668 29.168,1.164" fill="none" stroke="#484f57" stroke-width=".66667"></path><path d="m407.895,11.1016c-.165,6.332 1.168,13.164 3.835,18.164-2.5,8.836 4.165,16.168-1.167,26.168-5.668,11-11,23.168-21,30.8359-14.333,11-6.833,36.1645-28.5,40.6645-10.168,2.336-21.833,12.168-26.5,22-4.333.5-8.5,2.336-11.168,5.168-8.832,9.168-10.665,39.168 45,110.832 35.335,45.5 47.168,13.5 73.668-92 3.667-14 0-29 8.167-42.664 12-19.836 15.333-42.8364 21-64.6684 4.5-17 23.5-20.5 29.165-33.5 5.5-4 9.835-10.168 12.335-17.336 .665-2-6.667-3.164-18.167-.832 .667-2.5-1.5-3.5-18.5-3.5-2.668-.168-4,.668-4,2-1.668-.5-3.168-.5-5,0 .5-3.00001-21.668-2-21.668,0-6.332,2-12.5-1.832-18,.5 .168-1.332-10.832-3.83204-19.5-1.832" fill="#9eb4c1"></path><path d="m407.895,11.2656c-.165,6.5 1.168,13.336 3.835,18.168 3,5.5 8,5 10.665,0 2.668-5 4.335-10.668 5-16.332 .168-1.336-10.665-3.83597-19.5-1.836" fill="#fffde0"></path><path d="m445.563,12.6016c-.5,11.332 4,21.164 10,21.164 4.667,0 9.332-5.164 11.832-21.164 .5-3.00004-21.832-2-21.832,0" fill="#fffde0"></path><path d="m472.395,12.6016c.668,13.332 4.668,19.832 9.668,20.164 5,.5 8.667-5.5 11.5-13.832 1.5,11 5,15 7.332,13.332 5.5-4 9.835-10.164 12.335-17.332 .665-2-6.667-3.168-18.167-.832 .667-2.5-1.668-3.5-18.833-3.5-2.5-.168-3.835.664-3.835,2" fill="#fffde0"></path><path d="m461.563,39.7656c-9.333,2.336-9.333,2.336-7,16.5 2.832-5.5 4.832-10.832 7-16.5" fill="#b7d1df"></path><path d="m483.73,32.4336c-.335,7.168-11.5,6.168-13.167,14.332-2.5,11.336-15,16.336-15.668,28.5039-.5,8.6641-3.165,16.8321-6.5,24.5-5.165,11.8325-8.332,5.0005-12.5,23.8325-1.165,5.668-7,10.332-12.665,13.168-22.667,11.5 9.833,26-6.667,54.832 5.667,5.668 12,4.5 17.332,13.332 2.668-9.832 5.335-20.5 8.335-32.164 3.5-14-.167-28.836 8.165-42.5 11.835-20 15.168-42.8364 21-64.8364 4.335-16.832 23.5-20.5 29.168-33.5-2.333,1.668-5.833-2.332-7.333-13.168-2.335,7.168-5.5,12.668-9.5,13.668" fill="#b7d1df"></path><path d="m437.063,12.4336c-1.333,14.5 5.832,21.168 8.167,32.832 5.665-3.664 7.333-8.332 9-12-5.5-1.164-9.335-10.5-8.835-21-2.832.836-5.665.668-8.332.168" fill="#8697a3"></path><path d="m469.895,11.9336c-.832,9.168 2,18.5 3,27.668 4-3.168 7.668-4.668 9-7.168-5-.5-9.165-7-9.665-20.168-.835-.332-1.5-.332-2.335-.332" fill="#8697a3"></path><path d="m334.563,148.77c-4.333.664-8.333,2.332-11.168,5.332-8.832,9.168-10.665,39 45,110.832 31.5,40.5 44.335,19.668 65.5-60-6.832-11.164-15-6.332-21.665-19.332-6.667-13.332-19.335-22-38.667-27 9.167-20.5 28.667-36.168 31.332-60.5004 6.835-26.3321 24-30.8321 10.835-65.336-1.335-.5-2.835-1.664-4-3.664-2.335,8.832 4.165,16.164-1.167,26.332-5.668,10.832-10.833,23-21,30.668-14.333,11.1679-6.833,36.1684-28.5,40.8324-10.168,2.168-21.833,12-26.5,21.836" fill="#8697a3"></path><path d="m407.895,11.1016c-.165,6.5 1.168,13.5 3.835,18.5 3,5.5 8,5 10.665,0 2.668-5.168 4.335-10.836 5-16.5 .168-1.5-10.832-4.00004-19.5-2" fill="#bdbba6"></path><path d="m445.395,12.4336c-.5,10.668 3.335,20.168 8.835,21.332 4.833-9.664 5.165-15.5 2.165-23.164-5.5.164-10.832.832-11,1.832" fill="#bdbba6"></path><path d="m472.23,12.4336c.665,13.5 4.665,20 9.665,20.5 4.5-4.5 7.668-16.668 6.168-22.168-2.668-.332-6.668-.332-11.833-.332-2.667-.168-4,.668-4,2" fill="#bdbba6"></path><path d="m494.73,13.9336c-.335,1.832-.835,3.332-1.335,5 .835,6.168 2.168,10.168 3.668,12.168 5-6.668 6-12 4.332-18.168-2,.168-4.165.668-6.665,1" fill="#bdbba6"></path><path d="m407.895,11.1016c-.165,6.332 1.168,13.164 3.835,18.164-2.5,8.836 4.165,16.168-1.167,26.168-5.668,11-11,23.168-21,30.8359-14.333,11-6.833,36.1645-28.5,40.6645-10.168,2.336-21.833,12.168-26.5,22-4.333.5-8.5,2.336-11.168,5.168-8.832,9.168-10.665,39.168 45,110.832 35.335,45.5 47.168,13.5 73.668-92 3.667-14 0-29 8.167-42.664 12-19.836 15.333-42.8364 21-64.6684 4.5-17 23.5-20.5 29.165-33.5 5.5-4 9.835-10.168 12.335-17.336 .665-2-6.667-3.164-18.167-.832 .667-2.5-1.5-3.5-18.5-3.5-2.668-.168-4,.668-4,2-1.668-.5-3.168-.5-5,0 .5-3.00001-21.668-2-21.668,0-6.332,2-12.5-1.832-18,.5 .168-1.332-10.832-3.83204-19.5-1.832z" fill="none" stroke="#484f57" stroke-width=".66667"></path><path d="m493.23,18.7656c1.5,11 4.833,14.836 7.165,13.336" fill="none" stroke="#484f57" stroke-width=".66667"></path><path d="m472.063,12.4336c.667,13.168 4.667,19.668 9.667,20.168 5.833.5 10-7.836 12.833-18.668" fill="none" stroke="#484f57" stroke-width=".66667"></path><path d="m445.395,12.4336c-.665,11.332 3.835,21 10,21 4.5,0 9.168-5.168 11.668-21" fill="none" stroke="#484f57" stroke-width=".66667"></path><path d="m411.73,29.2656c3,5.336 8,4.836 10.665,0 2.5-5 4.168-10.664 5-16.332" fill="none" stroke="#484f57" stroke-width=".66667"></path><path d="m338.563,148.934c-1.333-.164-2.668-.164-4,0" fill="none" stroke="#484f57" stroke-width=".66667"></path><path d="m114.895,150.934c-71.3325,49.168-76.8325,145.836-21.6684,239.504 39.3364,72.164 132.8364,112.664 221.3364,56.832 96-60.836 110.332-140.5 122.5-234.168 .332-2.5-.333-5-2.333-5.832-11.835-5.5-17.5-12.668-22.167-21.836-3-5.664-9.333-9.664-17.333-11.164-21.5-4.168-27.167-16.336-47.835-7.336-4.832-5.832-12-9-19.332-9.664-1.333-1.168-2.833-2.336-4.5-3.168-5.168-3-11-4.668-17.168-5-5.165-3-11.332-5-17.5-5.168-3-1.332-6.168-2.164-9.668-2.664-9.5-5.336-19.164-8.668-29-8.168-20.664,1-39.5-12-60.664-7.668-29.168,6-49.5,8.168-74.668,25.5" fill="#9eb4c1"></path><path d="m109.563,414.938c34,42.164 88.664,67 146.832,55.832-22.168,1.168-42.168-3.5-58.332-11.332-10.668-5.336-8.336-8.336 5.332-4.668 23.168,6.168 47,6.332 70.168.332-23.168-.664-48.5-7.164-65.836-22.5-29.832,6.836-72.164,4.168-98.164-17.664" fill="#b7d1df"></path><path d="m245.227,438.27c11.836,3.832 24.168,4.168 36.336,1.668-5.168-.336-12.5-1.668-16.836-3.336-5.5,1.168-11.5,1.668-19.5,1.668" fill="#b7d1df"></path><path d="m114.895,150.934c-49.6684,34.168-67.3325,91.168-55.0005,154.336 .168-39.5 15.668-70.668 29.5-83.836 18.5005-17.664 23.8325-8.5 30.1685,6.168 7.664,17.668 23.5,33.168 39,45 4.832,15.168 23.832,9.668 26.164-3.832-13.5,16.332-31.5,9.832-30.332-13.5 8.168,25.332 30.332,19.832 31.832-.668-10.664,18.332-16.832,18.5-31.832.668-11.332-31-10.832-68 .332-90.668 11.168-23.168 36.668-13.332 52.5-18.668 10.5-3.5 27.5.668 31,7.836-2.5,3.164-4.664,6.832-6.164,11.164-3.668,9.668-8,14.5-12.5,26.836 6.164-9.168 12-18.5 16.164-28.836 1.336-3 2.836-5.5 4.5-7.5 2.5.336 4.668,1.836 5,4.336-1.5,1.832-3,3.832-4,6-5.832,11.164-10,24.332-24.832,45.164 14.5-12.832 19.168-35 31.168-49.164 5.164-2 9.5,0 11.164,1.664-8.164,6.836-15.164,15.5-21.664,25.5-12.5,19-26.336,36.836-34.668,58.336 10.668-22 20.832-32.336 32.668-47.668 5.5-7.168 12-15.5 19.832-25.5 3-3.668 6.332-7 9.832-10 6.836-2.168 12.668-.832 17.168,1.332-.5.336-1.168.668-1.668,1-6.164,4.168-11.832,8.836-17,13.836-15.832,15.332-31.5,31.164-44.832,48.664-8.832,11.836-10.832,27.836-21.832,38.5 18.332-12.164 19.832-37.164 37.164-50.832 19.168-15 33.336-35.168 53.168-49.668 12-3.5 25,.168 30.835,4.836-4,2.164-8.5,4.164-13.167,4.664-5,.668-5-2-1.168-2.832 3.335-.832 2-4.832-3-1.168-13.5,9.336-11.168,18-38.332,26.836 22.332-2.168 34.5-14 57-25 6.667-1.668 13.167.332 14.832,4-1.832,1.332-3.832,2.832-5.5,4.5-10,9.5-25.665,9.832-36.332,20.664-3.168,3.336-3.168,6.168.332,3.168 12.335-10.332 30-9 40.835-21.832 1.165-1.5 2.5-2.836 4-3.836 6.665,1.168 10.333,3.836 12,12.336-9.5,14.164-15.167,31.5-37.167,31.664 24.832,3.168 34.832-15 46.832-30.664 11.668-4.5 26.835-4.5 37.5-1.168-8,11.5-11.832,26.5-11.332,40.668-29.668,27.832-56.833,73.332-53.168,114 4.835,54.5 37.835,56.832 55.335,31 32.833-48.168 41.833-104 49.833-165.668 .332-2.5-.333-5-2.333-5.832-11.835-5.5-17.5-12.668-22.167-21.836-3-5.664-9.333-9.664-17.333-11.164-21.5-4.168-27.167-16.336-47.835-7.336-4.832-5.832-12-9-19.332-9.664-1.333-1.168-2.833-2.336-4.5-3.168-5.168-3-11-4.668-17.168-5-5.165-3-11.332-5-17.5-5.168-3-1.332-6.168-2.164-9.668-2.664-9.5-5.336-19.164-8.668-29-8.168-20.664,1-39.5-12-60.664-7.668-29.168,6-49.5,8.168-74.668,25.5" fill="#8697a3"></path><path d="m114.895,150.934c-71.3325,49.168-76.8325,145.836-21.6684,239.504 39.3364,72.164 132.8364,112.664 221.3364,56.832 96-60.836 110.332-140.5 122.5-234.168 .332-2.5-.333-5-2.333-5.832-11.835-5.5-17.5-12.668-22.167-21.836-3-5.664-9.333-9.664-17.333-11.164-21.5-4.168-27.167-16.336-47.835-7.336-4.832-5.832-12-9-19.332-9.664-1.333-1.168-2.833-2.336-4.5-3.168-5.168-3-11-4.668-17.168-5-5.165-3-11.332-5-17.5-5.168-3-1.332-6.168-2.164-9.668-2.664-9.5-5.336-19.164-8.668-29-8.168-20.664,1-39.5-12-60.664-7.668-29.168,6-49.5,8.168-74.668,25.5z" fill="none" stroke="#484f57" stroke-width=".66667"></path><path d="m154.395,255.27c-1.168,23.332 16.832,29.832 30.332,13.5" fill="none" stroke="#484f57" stroke-width=".66667"></path><path d="m158.563,272.602c4.664,20.5 26.664,16.332 30.664-1" fill="none" stroke="#484f57" stroke-width=".66667"></path><path d="m208.395,200.602c3.668-12.668 11.832-23.332 16.168-36 4-11.168-3.668-20-17.336-18.668" fill="none" stroke="#484f57" stroke-width=".66667"></path><path d="m279.227,141.27c-10.164-1.336-21.332,1.164-28.664,5.664" fill="none" stroke="#484f57" stroke-width=".66667"></path><path d="m271.727,149.102c5-3.832 11.168-5.332 17.168-5.168" fill="none" stroke="#484f57" stroke-width=".66667"></path><path d="m254.895,174.102c13.332-16.832 33.832-26 51.5-25" fill="none" stroke="#484f57" stroke-width=".66667"></path><path d="m193.563,239.934c8-29.664 31.164-49.5 42.164-77" fill="none" stroke="#484f57" stroke-width=".66667"></path><path d="m271.563,137.434c-16.5,1.836-32.836,9.336-39.5,27.5" fill="none" stroke="#484f57" stroke-width=".66667"></path><path d="m281.895,141.77c-14.832,4.664-33,9.164-40.668,24-5.832,11.164-10,24.332-24.832,45.164" fill="none" stroke="#484f57" stroke-width=".66667"></path><path d="m202.395,247.27c10.668-22 20.832-32.336 32.668-47.668" fill="none" stroke="#484f57" stroke-width=".66667"></path><path d="m233.727,216.602c19.168-15 33.336-35.168 53.168-49.668" fill="none" stroke="#484f57" stroke-width=".66667"></path><path d="m323.563,154.102c-23.333-2.5-44.336,10.832-60.336,26.168" fill="none" stroke="#484f57" stroke-width=".66667"></path><path d="m218.395,228.934c-8.832,11.836-10.832,27.836-21.832,38.5" fill="none" stroke="#484f57" stroke-width=".66667"></path><path d="m341.563,161.77c-7.833.5-15.668,1.664-23.168,4" fill="none" stroke="#484f57" stroke-width=".66667"></path><path d="m292.395,206.602c12.335-10.332 30-9 40.835-21.832 6.333-7.668 15.333-10.668 24.833-10.668l-3.333-4.668c-7.835-4.332-16.667-3.164-24.5,0-30.167,12.168-42.503,27.336-68.167,29.836" fill="none" stroke="#484f57" stroke-width=".66667"></path><path d="m234.227,131.434c-3,3.5-7.664,3.668-9.664,9.336" fill="none" stroke="#484f57" stroke-width=".66667"></path><path d="m280.727,213.102c-11.664,9.668-18.5,26-17.164,40.832" fill="none" stroke="#484f57" stroke-width=".66667"></path><path d="m322.563,197.102c-11.5,6-22.333,13.668-31.5,23" fill="none" stroke="#484f57" stroke-width=".66667"></path><path d="m285.063,226.77c-6.668,8.164-12.336,17.164-16.168,27.332" fill="none" stroke="#484f57" stroke-width=".66667"></path><path d="m312.063,224.934c24.832,3.168 34.832-15 46.832-30.5 9-12 20.335-17.164 36.335-20.164-9.167-1.668-20.5-.336-31.5,5.164" fill="none" stroke="#484f57" stroke-width=".66667"></path><path d="m338.895,245.27c14.835-9.668 20.335-29.168 38.668-33.836" fill="none" stroke="#484f57" stroke-width=".66667"></path><path d="m97.2266,6.10156c-3.8321,0 2.8364,20.16404 10.8364,23.16404-2,9.336 7.664,14.668 7.664,25-1.832,17.168-7,33.836-5.5,51.6684 .336,5.168 1,10.668-2,15.336-5.832,8.832 3.836,20.664 6.5,29.664 10.836,35.668 14.336,74.836 39.5,104.5 15,17.836 21.168,17.668 31.836-.664 4.164-6.836 22.5-59.336 27-77.336 5.5-22.332-2.5-28.332-12.668-38.164-7.832-7.168-7.668-10-15.5-20-6.332-8.168-2.332-12.336-2-19.5005 1-20.5-7.168-41.8359 6.168-60.8359 4.5-1 8.5-5.168 8-10 6.164-4.668 10.164-11.832 11.164-19.00001 .168-1.5-9.164-2.33203-18.664-.5 .664-2.83203-1.168-3.33203-17.668-3.16796-3.668.16796-5,.66796-5,1.66796-4-.16796-8,.5-11.832-1.33203 0-.83593-6-2.83593-12.836-2.83593-4.664,0-9.164,1-9.164,2-4.668.66796-9.168,2.5-13.668,2.66796 0-1-6.332-2.16796-22.1684-2.33203" fill="#9eb4c1"></path><path d="m97.2266,6.26563c-3.8321,0 2.8364,20.16797 10.8364,23.16797 4,1.668 10.664-4.168 11.332-20.83204 0-1.16797-6.332-2.33593-22.1684-2.33593" fill="#fffde0"></path><path d="m133.063,5.76563c0,14.83597 6.664,22.99997 11.164,23.16797 3.5.168 10.336-5.668 11-22.16797 0-1-6-3-12.832-3-4.832,0-9.332,1-9.332,2" fill="#fffde0"></path><path d="m167.063,7.93359c-.168,12.66801 5.5,21.33201 10,21.33201 2.5,0 6.332-2.832 9.5-9.832 2,9.832 5.832,13.168 10.664,9.668 6-4.668 10-11.836 11.168-19.16801 0-1.33203-9.168-2.33203-18.668-.5 .668-2.66796-1.164-3.33203-17.664-3.16796-3.668.16796-5,.66796-5,1.66796" fill="#fffde0"></path><path d="m127.227,7.26563c-1.5,18.33597 10.836,23.66797 14,40.33597 2-6.168.5-13.168 3.168-18.668-4.5,0-11.168-8.332-11.168-22.83204-2,.16407-4,.66407-6,1.16407" fill="#8697a3"></path><path d="m163.895,8.10156c-3.168,12.16404-1,25.00004-5.5,37.16404 6.332-4.5 13-9.164 16.668-16.5-4-2.332-8-10-8-20.66404h-3.168" fill="#8697a3"></path><path d="m116.063,54.6016c-2,17.1679-7.168,33.832-5.668,51.6684 .5,5.164 1.168,10.5-2,15.332 7.168-11 20-18.668 33-21.5 13.832-2.8325 10.332-13.6684-1.332-10.3325-9.5,3-15.836-.5-18.5-4.8359-3.5-6-5.836-18.5-5.5-30.332" fill="#8697a3"></path><path d="m186.727,19.4336c-1,1.832-1.832,3.5-2.664,4.832-5.836,8.668-14.336,13.168-17,23.336 8.164,2.164 2-6.5 8.332-5.836-2.168,7.5.832,16.668 6.332,21.0039 .336-8.1679 2.336-16.1679 7.5-23.6679 4.668-1 8.5-5.168 8-10.168-4.832,3.668-8.5.168-10.5-9.5" fill="#b7d1df"></path><path d="m97.2266,6.26563c-3.8321,0 2.8364,20.16797 10.8364,23.33597 4,1.5 10.664-4.168 11.332-21.00004 0-1.16797-6.332-2.33593-22.1684-2.33593" fill="#bdbba6"></path><path d="m133.063,5.76563c0,14.83597 6.664,23.16797 11.164,23.16797 3.336-6 4.668-16.332 3.5-24.83204-1.664-.33593-3.5-.33593-5.332-.33593-4.832,0-9.332,1-9.332,2" fill="#bdbba6"></path><path d="m166.895,7.93359c0,10.66801 4,18.50001 8,20.83201 5-6.5 7.832-13.164 8.668-22.49997h-11.5c-3.668.16796-5.168.66796-5.168,1.66796" fill="#bdbba6"></path><path d="m189.727,9.43359c-.832,4.00001-2,7.33201-3.164,10.00001 .832,4 1.832,7 3.164,8.832 7.168-4 10.836-10 12.5-19.83201-3.5,0-8,.16797-12.5,1" fill="#bdbba6"></path><path d="m213.063,177.434c5.5-22.332-2.5-28.332-12.668-38.164-7.832-7.168-7.668-10-15.5-20-6.332-8.168-2.332-12.336-2-19.5005 1-20.5-7.168-41.8359 6.168-60.8359 4.5-1 8.5-5.168 8-10 6.164-4.668 10.164-11.832 11.164-19.00001 .168-1.5-9.164-2.33203-18.664-.5 .664-2.83203-1.168-3.33203-17.668-3.16796-3.668.16796-5,.66796-5,1.66796-4-.16796-8,.5-11.832-1.33203 0-.83593-6-2.83593-12.836-2.83593-4.664,0-9.164,1-9.164,2-4.668.66796-9.168,2.5-13.668,2.66796 0-1-6.332-2.16796-22.1684-2.33203-3.8321,0 2.8364,20.16404 10.8364,23.16404-2,9.336 7.664,14.668 7.664,25-1.832,17.168-7,33.836-5.5,51.6684 .336,5.168 1,10.668-2,15.336-5.832,8.832 3.836,20.664 6.5,29.664 10.836,35.668 14.336,74.836 39.5,104.5 15,17.836 21.168,17.668 31.836-.664" fill="none" stroke="#484f57" stroke-width=".66667"></path><path d="m166.895,7.93359c0,12.50001 5.5,21.16801 10,21.16801 3.668,0 9.668-5.336 12.668-19.66801" fill="none" stroke="#484f57" stroke-width=".66667"></path><path d="m186.563,19.2656c1.832,9.836 5.664,13.168 10.5,9.668" fill="none" stroke="#484f57" stroke-width=".66667"></path><path d="m133.063,5.76563c0,14.66797 6.664,22.83597 11.164,22.99997 3.5.168 10.336-5.5 10.836-22.16404" fill="none" stroke="#484f57" stroke-width=".66667"></path><path d="m108.063,29.2656c4,1.5 10.664-4.164 11.332-20.83201" fill="none" stroke="#484f57" stroke-width=".66667"></path><path d="m173.727,123.934c-11-.332-22.832,4.336-29.832,14" fill="none" stroke="#484f57" stroke-width=".66667"></path><path d="m131.727,138.77c7.836-13.836 23-21 39.668-19" fill="none" stroke="#484f57" stroke-width=".66667"></path><path d="m199.395,214.602c3.668-7 4.832-15.668 8.332-22.668" fill="none" stroke="#484f57" stroke-width=".66667"></path><path d="m318.73,223.77c-5.335,18.832-.167,40.832 28,55.664l62.833-42c13.167-35.5 7.167-61.164 18.332-97.5-27-15.164-62.665,15.336-70,39.5-7.165,23.168-30,12.168-39.165,44.336" fill="#9eb4c1"></path><path d="m427.895,140.102c-29.832-.832-57.165,32-40,63.168l31-8.836c1.835-17.164 2.835-34.164 9-54.332" fill="#8d94ad"></path><path d="m406.063,152.27c-12.668,8.332-19.333,19.832-17.333,35.832 1.5,13.168 26.333,9 24.5-3-1.5-10.5 2.165-17.168 0-22.832-2.167-5.836 2.165-15.836-7.167-10" fill="#d94e42"></path><path d="m318.73,224.27c10.5,3.5 22,10.5 33.5,11-10.667-3.668-18.667-9-21-17.168-2.5-8 6.165-7.668 9-9.5 29-18.832 16.165-18.168 36-44.5 16.665-21.668 35.333-31.332 51.665-24-27-15.5-62.665,15.332-70.165,39.5-7,23.332-29.835,12.332-39,44.668" fill="#8697a3"></path><path d="m318.73,223.77c-5.335,18.832-.167,40.832 28,55.664l62.833-42c13.167-35.5 7.167-61.164 18.332-97.5-27-15.164-62.665,15.336-70,39.5-7.165,23.168-30,12.168-39.165,44.336z" fill="none" stroke="#484f57" stroke-width=".66667"></path><path d="m427.895,139.934c-29.832-.664-57,32.168-40,63" fill="none" stroke="#484f57" stroke-width=".66667"></path><path d="m314.395,272.27c-13.332,2.664-24.668-6-35.5-12-10.168-5.668-14.668-6-18-1.5-53.5,47-70.332,128.664-40,193.5 9,19.332 34.168,37.5 41.332,41.5 5,2.5 8.5.332 12.668,2.168 5,2.332 1.332,5.664 9.668,6.664 15,2 29.832,4.668 45.167,5.336 11.5,1.332 7.833-8.836 18-8.836 15.333,0 4.665,11.5 19,10 15-1.5 30-2.664 45.165-3.664 3.668-.168 2.168-3 4.835-3.668s3,2.332 7.833,0c13.167-6.332 24-16 36.332-23.5 2.335-1.5-.332-2.832 1.168-4.5 2-2.5 3.332,2 5.167-1.5 5.333-9.668 13.665-17.168 19-26.668 3.333-6-.5-5.164 1.665-11.5 1.668-4.164 4,1.168 5.168-5.5 1.332-7.664 5.167-11.332 7-21.5 .5-3.164-1-9.668 0-12.168 1-2.832 1-5.832 1.167-8.832 .665-11.332 3.833-8.5 1.165-22.168-1.832-8.332 3-10.332 1.168-23.664-1.668-10.5-4.168-15.836-5.5-27.5-1.333-9.5-9.833-13.668-9-23.5 1.332-14-16.5.832-30.668-5.668 2.668-3.168 6-5.832 9.668-8.332 6-4 11.167-9.336 12.832-14.5 1-3.336-.5-11.668-3-14.336-4.5-5-11.665-3.332-18-3.164 21.835-51.668 19.5-81.668-9.165-114.336-3-3.5-5.335-2.664-7.667-4.664-.833,12.664-6.333,16.164-16.668,25.164-12.5,11-14.665,19.836-34,27.668-3.165-.332-5.5,1.668-5.665,4.332-4.335-.332-8.835,3.836-7.667,9.168-2-.168-4.333.832-5.168,2.5-9.832,18.668 6.668,27.668-9.665,39.5-15.335,7.168-31.335-4-45.5-8.668-4-1.332-10.167-4.164-13.667-.332-4.833,5.168-9.668,12.168-13.5,19.332-3.168,6 8.667,13.668 14.5,19 3.167,3 6.167,6.5 8.332,10.336" fill="#9eb4c1"></path><path d="m327.563,234.934c-3.333-2.5-8.333-1.332-11.5-4.164-2.833-2.5-5.333-1.5-6,1.832-1.168,5.668-4.668,11-8.833,14.168 6.997,3.5 11.5,15 19.165,22.164 4,3.5 6,7.336 4.835,12.336-1,3.664 2.5,4.832 3.833.5 1-3.168.832-10 7-6.5 7.667,4.5 13-6.5 18.667-10.336 2.165-1.332 2.165-1.332 1.5-4.332-1-3.832 3.5-4.168 7.333-6.168 1.667-1 2.167-2.832-2.668-3.332-5.832-.668-5.832-5 2.168-5.668-14.333-6.664-27.668-4.832-35.5-10.5" fill="#b7d1df"></path><path d="m365.895,265.934c-5-.332-6.332,0-8.832,3.836 3.332-.668 6.167-2 8.832-3.836" fill="#b7d1df"></path><path d="m345.563,282.434c-3.833,1.168-11.833.168-10.668,6.836 3.835-.668 12-.668 10.668-6.836" fill="#b7d1df"></path><path d="m358.23,286.27c1.665.832 3.665-.168 5.333.5 3.167,1.164 3.5-.5-1.168-1.668-1.165-.332-2.665,0-4.165,1.168" fill="#b7d1df"></path><path d="m370.395,291.602c-4,.5-11.832,4.332-5.665,9.168 1.5-2.668 4.665-5.5 5.665-9.168" fill="#b7d1df"></path><path d="m364.063,335.602c-2.333,2.168-3.333,6.168-7.333,6.668-2.835,1-5.667,2-8.667,1.832-1.5,1.668-4-.5-5.168,1.832-6,2.168-8.332-1.832-7.5-4.5-15,2.168 3.5,15.336 4.5,20.336 16.335,24.164 3,64.668 0,91.832-.5,5.836-7.332,10.168-5.832,16.336 1.832,6.164-12.168,6.5-3.333,12 7.665,4.832-2.167,7.164.665,13.332 2.668,6 2.335,8.5-.165,12.832 9.5.168 6.665-9 16.333-9 15.5,0 4.667,11.5 19,10 15.167-1.5 30-2.664 45.332-3.664 3.668-.168 2-3 4.668-3.668s3.167,2.332 7.832,0c13.335-6.332 24.168-16 36.5-23.5 2.335-1.5-.332-2.832 1-4.5 2.168-2.5 3.5,2 5.335-1.5 5.333-9.668 13.665-17.168 19-26.668 3.333-6-.5-5.164 1.665-11.5 1.668-4.164 4,1.168 5.168-5.5 1.332-7.664 5.167-11.332 7-21.5 .5-3.164-1-9.668 0-12.168 1-2.832 1-5.832 1.167-8.832 .665-11.332 3.833-8.5 1.165-22.168-1.832-8.332 3-10.332 1.168-23.664-1.668-10.5-4.168-15.836-5.5-27.5-1.333-9.5-9.833-13.668-9-23.5-2.333-5.836-8.333,4.5-34.168-1 1-1.668 2.168-3.168 3.5-4.668 2.668-3.168 6-5.832 9.668-8.332 6-4 11.167-9.336 12.832-14.5 .668-2.168.335-6.5-.832-10-6.168-4.336-13.333-4-20.5-3.5-.168-1.336-.333-2.5.332-4 21.668-51.668 19.335-81.668-9.165-114.336-3-3.5-5.335-2.664-7.667-4.664 24,31 21.667,74.5 6.167,108.832 1.5,1.668 1.165,4.668-1.167,5.332 1.167,2.336 1.167,4.168-.668,5.668-3.332,12-13.832,25-26,31.5-5.5,4-12-3-18,2-7.832,6.5-19.5,3.5-24,14.832-3.165,7.668-8,1.668-8.5,12.168-.665,4.332.835,8.332.335,12.668 .165,3.332-.167,6.664-1.167,10-1.168,3.5-5,4.5-6,8.332" fill="#b7d1df"></path><path d="m403.563,328.102c-7.5,4-2.333,14.668 12.5,24.168-1,1.664.332,4 3,2h.832c-11.665,5.832-20.332,16.164-26.665,27-12.667,21.332-18.5,47.168-16,71.832 2.165,22 12.5,24.668 43.333,10.836 34.332-15.336 51-52.336 56.332-87.168 3.5-23.336-1-39.336-16.665-39-10.5.5-19.667,9.164-30.167,11 1.5-1.168 2.667-3.836 2.167-8.336 1.665-1.332 2.833-4.332 1.5-8.832 2-1.168 3.665-4.832 2.333-10.668 1-.832 1.667-2.164 1-4.5-.5-3-1.168-5.5-1.668-8.332-1,1-1.832,2.5-2.332,4.168-3.833,3.664-9.333,5.664-15.5,5-2.833,4.332-5.168,3.832-4.833-.668-6.835.332-4.335,9-9.167,11.5" fill="#b7d1df"></path><path d="m425.895,299.27c-.332,3.164 1.835,3 1.835,0 0-3.168-1.5-3.336-1.835,0" fill="#b7d1df"></path><path d="m417.563,310.77c1.832-.668 3.167-2 4.167-3.168 1.333-2 2.665-1.168 1.5,1-.835,2-2.667,3.668-4.667,4.168-1.833.664-2.333-1.5-1-2" fill="#b7d1df"></path><path d="m398.23,352.934c-7.335,5.168-9,4.336-9,14.5 3.165-4.664 6.833-9.332 10.665-12.5 2.5-1.832 1.168-4-1.665-2" fill="#b7d1df"></path><path d="m353.563,354.434c-1.668-2.164-3.668-1.5-2.333,1 1.833,3.5 2.833,7.336 3.5,11.5 1-4 1.333-9.164-1.167-12.5" fill="#b7d1df"></path><path d="m272.395,325.434c-18.5-1.164-28.832,10.5-32.832,37-6.336,39.5 13.5,81.668 49.664,106.004-12.332-10.668-35-41.836-43-67.336-5.832-19.168-4.832-74.168 26.168-75.668" fill="#b7d1df"></path><path d="m279.063,260.434c-10.168-5.664-14.836-6-18.168-1.5-53.5,47-70.332,128.668-40,193.336 9,19.332 34.168,37.668 41.332,41.5-44.332-32-58.332-81.832-52.332-133.168 5.168-45.168 38.668-90.5 53.168-98.668 9.332-5.332 19.5,9.836 24.164,15.668 6.668,8.168 20.503,24.332 30.668,11 .835-5.5-.665-11.168-3.5-16.168-13.165,2.668-24.5-6-35.332-12" fill="#8697a3"></path><path d="m272.727,325.434c-31.164,1.336-32.164,56.5-26.332,75.668 8,25.5 30.668,56.668 43,67.336 20.332,7.164 28.668-6 34.5-21 7-22.668 10.168-49 7.835-70.336-1.167-10.168-2.667-20.5-10.667-28.668-12.668-6.5-23-17.164-36.668-21-4.332-1.164-8.168-1.832-11.668-2" fill="#de9065"></path><path d="m320.73,348.434c8,8 9.5,18.5 10.665,28.668 2.5,21.168-.665,47.668-7.665,70.336-5.835,15-14.335,28.164-34.667,21 20.167,13.5 40.167,6.832 42-14.168 1.167-11.5 9.5-15.668 6.832-28.668-3.332-16.332.835-28.332 3-45.332 .835-15.668-8.332-25.668-20.165-31.836" fill="#c27e57"></path><path d="m460.563,337.602c-10.5.332-19.668,9-30.168,11-.665.5-1.665.832-2.5.832-1.5,2.668-3.332,3.5-4.832,3.336-1,.832-2,1.164-3,1.332-11.668,5.668-20.168,16-26.668,27-12.5,21.336-18.332,47.336-16,71.836 2.168,22.164 12.5,24.832 43.5,11 3.168-1.5 6.168-3.168 9.168-4.836 25.832-25.164 40-60.164 42-95.832 .667-16.336-2.5-26-11.5-25.668" fill="#f8a271"></path><path d="m340.063,320.27c7.832,5.332 16.832-2.336 14.5-12.336-9.333-7.164-18.333,2.668-14.5,12.336" fill="#fff"></path><path d="m343.895,307.102c-3.665,5.332-1.832,12.668 4,15.5 4.335-1.832 7.5-7.332 6-13.832-3.665-2.836-7.332-3-10-1.668" fill="#fab20b"></path><path d="m348.063,314.77c0-2 2-3.336 3.667-2.336s1.665,3.668 0,4.668c-1.667,1.168-3.667-.332-3.667-2.332" fill="#1e1200"></path><path d="m430.23,218.27c3.333-1.668 5.5-4.336 6.665-7.836 1.168-3.832-4.332-4.664-5.5-.332-.332,1.832-1.665,4.332-2.832,5.5-3.333,3-2.333,4.832 1.667,2.668" fill="#545d66"></path><path d="m465.563,214.102c-1.168-2.668-1.168-5.332 0-8 1.167-2.832 4.832-.5 3.167,2.5-.667,1.332-1,3.668-.835,4.832 .5,3.5-1,4.168-2.332.668" fill="#545d66"></path><path d="m314.395,272.27c-13.332,2.664-24.668-6-35.5-12-10.168-5.668-14.668-6-18-1.5-53.5,47-70.332,128.664-40,193.5 9,19.332 34.168,37.5 41.332,41.5 5,2.5 8.5.332 12.668,2.168 5,2.332 1.332,5.664 9.668,6.664 15,2 29.832,4.668 45.167,5.336 11.5,1.332 7.833-8.836 18-8.836 15.333,0 4.665,11.5 19,10 15-1.5 30-2.664 45.165-3.664 3.668-.168 2.168-3 4.835-3.668s3,2.332 7.833,0c13.167-6.332 24-16 36.332-23.5 2.335-1.5-.332-2.832 1.168-4.5 2-2.5 3.332,2 5.167-1.5 5.333-9.668 13.665-17.168 19-26.668 3.333-6-.5-5.164 1.665-11.5 1.668-4.164 4,1.168 5.168-5.5 1.332-7.664 5.167-11.332 7-21.5 .5-3.164-1-9.668 0-12.168 1-2.832 1-5.832 1.167-8.832 .665-11.332 3.833-8.5 1.165-22.168-1.832-8.332 3-10.332 1.168-23.664-1.668-10.5-4.168-15.836-5.5-27.5-1.333-9.5-9.833-13.668-9-23.5 1.332-14-16.5.832-30.668-5.668 2.668-3.168 6-5.832 9.668-8.332 6-4 11.167-9.336 12.832-14.5 1-3.336-.5-11.668-3-14.336-4.5-5-11.665-3.332-18-3.164 21.835-51.668 19.5-81.668-9.165-114.336-3-3.5-5.335-2.664-7.667-4.664-.833,12.664-6.333,16.164-16.668,25.164-12.5,11-14.665,19.836-34,27.668-3.165-.332-5.5,1.668-5.665,4.332-4.335-.332-8.835,3.836-7.667,9.168-2-.168-4.333.832-5.168,2.5" fill="none" stroke="#484f57" stroke-width=".66667"></path><path d="m364.23,232.602c-15.335,7.168-31.335-4-45.5-8.668-4-1.332-10.167-4.164-13.667-.332-4.833,5.168-9.668,12.168-13.5,19.332-3.168,6 8.667,13.668 14.5,19 3.167,3 6.167,6.5 8.332,10.336" fill="none" stroke="#484f57" stroke-width=".66667"></path><path d="m431.063,217.434c3.167-1.664 5.332-4.164 6.332-7.664 1.335-3.836-4.165-4.668-5.165-.336-.5,1.836-1.835,4.336-3,5.336-3.335,3-2.335,4.832 1.833,2.664" fill="none" stroke="#484f57" stroke-width=".66667"></path><path d="m459.895,243.27c-1.665,3.832 1.835,6.332-1.665,12.332" fill="none" stroke="#484f57" stroke-width=".66667"></path><path d="m465.895,213.434c-1.165-2.664-1.165-5.332 0-7.832 1.168-3 4.835-.668 3.168,2.5-.668,1.168-1,3.332-.833,4.5 .5,3.5-1,4.168-2.335.832" fill="none" stroke="#484f57" stroke-width=".66667"></path><path d="m456.395,244.934c-2.332-3-5.165-5-8.165-6.5" fill="none" stroke="#484f57" stroke-width=".66667"></path><path d="m438.23,236.77c-6.5.332-12.835,3.332-17.667,8.332" fill="none" stroke="#484f57" stroke-width=".66667"></path><path d="m413.063,258.602c-1.5,5.332-1,11 1,15.5" fill="none" stroke="#484f57" stroke-width=".66667"></path><path d="m420.395,281.602c2.168,1.168 4.5,2 7.335,2" fill="none" stroke="#484f57" stroke-width=".66667"></path><path d="m450.063,301.934c.667-6.832 3.667-13 8.332-18.332" fill="none" stroke="#484f57" stroke-width=".66667"></path><path d="m416.23,272.27c-.835-2.168-1.167-4.836-.835-8.168" fill="none" stroke="#484f57" stroke-width=".66667"></path><path d="m314.395,272.27c3.835,7 5.335,15 1.168,22.5" fill="none" stroke="#484f57" stroke-width=".66667"></path><path d="m332.73,309.602c-1.5,3.668-1,7.5 0,11.168" fill="none" stroke="#484f57" stroke-width=".66667"></path><path d="m338.063,326.102c1.667,4.168 6,6.832 10.5,6.832" fill="none" stroke="#484f57" stroke-width=".66667"></path><path d="m354.23,329.934c6.665-7.5 8.165-18.664 5.333-28.332" fill="none" stroke="#484f57" stroke-width=".66667"></path><path d="m353.063,302.102c-12.168-3.832-17.5.832-16.833,14.332" fill="none" stroke="#484f57" stroke-width=".66667"></path><path d="m342.395,323.934c7.168,9.836 9.5,1.5 12.668-5.5" fill="none" stroke="#484f57" stroke-width=".66667"></path><path d="m339.73,319.934c7.833,5.336 16.833-2.332 14.5-12.5-9.335-7-18.5,2.836-14.5,12.5" fill="none" stroke="#484f57" stroke-width=".66667"></path><path d="m368.395,315.434c1.835,3.336 6,1.836 5.668-2.664-.333-3.168-1.5-5.836-3-8.168-2,2.832-5,6.668-2.668,10.832-5.665,14 8.668,17.5 5,.5" fill="none" stroke="#484f57" stroke-width=".66667"></path><path d="m367.395,324.27c-11.5,12.332 3.5,18.5 5,2.332" fill="none" stroke="#484f57" stroke-width=".66667"></path><path d="m363.23,332.102c-15,6-2.5,20.332 3.333,4.168" fill="none" stroke="#484f57" stroke-width=".66667"></path><path d="m356.73,337.27c-15,0-8,17.664 2.665,6.5" fill="none" stroke="#484f57" stroke-width=".66667"></path><path d="m349.063,340.102c-9.333-4.832-9,11.832.832,6.5" fill="none" stroke="#484f57" stroke-width=".66667"></path><path d="m343.23,340.434c-10.167-5.832-10.667,9.336-.167,5.5" fill="none" stroke="#484f57" stroke-width=".66667"></path><path d="m435.395,308.102c-1.832,2.168-3.165,6-3.832,9.5-1,4.832 7,5.668 5.667-1.168-.667-3-1.167-5.5-1.835-8.332" fill="none" stroke="#484f57" stroke-width=".66667"></path><path d="m436.23,320.934c3.333,15.5-13,14.836-4.335-1" fill="none" stroke="#484f57" stroke-width=".66667"></path><path d="m429.395,329.434c-9.165,14.836 8.168,15.836 4.5,2.168" fill="none" stroke="#484f57" stroke-width=".66667"></path><path d="m432.23,340.434c1.5,16.168-15.667,8.668-5.5-2.832" fill="none" stroke="#484f57" stroke-width=".66667"></path><path d="m427.73,349.77c-4.667,8.332-12.667-1.168-4.167-5.668" fill="none" stroke="#484f57" stroke-width=".66667"></path><path d="m422.895,352.934c-4.665,4-8.5-1.5-2.665-5.832" fill="none" stroke="#484f57" stroke-width=".66667"></path><path d="m419.063,354.27c-3.333,2.5-4.5-1.668-1.668-3.168" fill="none" stroke="#484f57" stroke-width=".66667"></path><path d="m284.227,327.602c-26-7.332-39.664,3.168-44.5,34.832-1.664,10.168-1.5,20.5.168,30.668" fill="none" stroke="#484f57" stroke-width=".66667"></path><path d="m243.063,406.438c4.164,14.164 11.5,27.664 21.332,39.5" fill="none" stroke="#484f57" stroke-width=".66667"></path><path d="m272.727,454.938c5,5 10.668,9.5 16.5,13.5 20.168,13.5 40.168,6.832 42.003-14.168 1-11.5 9.333-15.668 6.833-28.668-3.333-16.164.832-28.168 2.832-45.168 .835-15.664-8.165-25.664-20-31.832-12.668-6.668-23-17.168-36.668-21" fill="none" stroke="#484f57" stroke-width=".66667"></path><path d="m271.227,325.602v-.168" fill="none" stroke="#484f57" stroke-width=".66667"></path><path d="m466.73,413.438c5.165-12 8.665-24.336 10.833-40.836" fill="none" stroke="#484f57" stroke-width=".66667"></path><path d="m462.063,337.77c-12.333.5-21.333,9.164-31.833,11" fill="none" stroke="#484f57" stroke-width=".66667"></path><path d="m419.895,354.27c-11.665,5.832-20.165,16.164-26.665,27" fill="none" stroke="#484f57" stroke-width=".66667"></path><path d="m388.563,389.934c-7.833,16.504-12,35.168-11.833,53.336" fill="none" stroke="#484f57" stroke-width=".66667"></path><path d="m377.23,453.102c2.165,22 12.5,24.668 43.5,10.836 16.165-7.336 28.665-19.5 37.5-34" fill="none" stroke="#484f57" stroke-width=".66667"></path><path d="m449.395,233.102c1.335,1.668 1,4.668-1.165,5.332 1.165,2.336 1,4.168-.667,5.668" fill="none" stroke="#484f57" stroke-width=".66667"></path><path d="m261.395,259.27c-4.332-4-11.832-7-19.332-7.168-.5,7.832 1.664,14.832 6.5,20.5 3.332,4.332 17.332-9.5 12.832-13.332" fill="#fffde0"></path><path d="m245.563,278.102c-5.836-4.668-14.5-2-20.836-4.668 .168,6.836 1.836,14.5 7.168,19.168 5.668,4.832 17.168-11.668 13.668-14.5" fill="#fffde0"></path><path d="m227.563,298.77c-4,.664-11.668.5-18.168-.5 1,7 5.832,13 11.5,16.5 5,3 12.668-16.836 6.668-16" fill="#fffde0"></path><path d="m218.063,322.102c-6.668,1.668-13-.668-19.5-.5 1.332,6.832 7.332,12.668 15.832,14.668 4.832,1.164 9.832-15.668 3.668-14.168" fill="#fffde0"></path><path d="m211.227,343.77c-8.832.664-15.5,4.164-23.332,2.832 2.832,8.168 11.332,12.5 20.668,13.668 6.5,1 8-16.836 2.664-16.5" fill="#fffde0"></path><path d="m207.063,367.434c-13.668,3.668-29.668,2.5-47.836-4.332 9.836,16.832 27.168,28.832 47.836,31.168 8.664,1 7.832-28.836 0-26.836" fill="#fffde0"></path><path d="m208.563,409.27c-34.168,18.668-68,32-111.5005,40.668-3.5.664-4.5,2 0,3.5 32.1645,11.664 79.6645,13.832 125.3325.5 3.668-1-10.832-46.336-13.832-44.668" fill="#fffde0"></path><path d="m226.727,462.102c-55.332,50.836-114.832,84.336-172.3325,101.836-2,.664-1.832,2.664 1.5,3 75.6685,6.664 145.8325-22.5 206.3325-73.336 4.668-3.832-31.664-35-35.5-31.5" fill="#fffde0"></path><path d="m284.563,502.602c-3.5,81-48,157.5-110.336,207.836-5,4.164-3.832,5 1.836,3.332 86.664-25.332 147.667-118.5 153.667-205.832-15.335-.836-30.167-3.336-45.167-5.336" fill="#fffde0"></path><path d="m366.73,509.102c5.5,81.336 55,181.168 135.5,220.336 9.165,4.5 10.165,3.667 4.833-2.168-56-60.332-88.833-140.832-95.168-222-15.165,1-30,2.332-45.165,3.832" fill="#fffde0"></path><path d="m424.563,501.77c36.5,55 111.667,92 183.167,96.5 9.833.668 10.665-1.168-1.167-6.168-57.668-24.332-112-67.164-145.5-114-12.333,7.5-23.333,17.336-36.5,23.668" fill="#fffde0"></path><path d="m467.395,472.102c33.668,25.336 77.335,38.168 118.5,36.336 3,0 3.5-1 .835-2.168-36.335-14.832-71.335-33.832-100.335-60.668-5.332,9.5-13.665,17-19,26.5" fill="#fffde0"></path><path d="m493.23,428.438c17.833,4 30-.336 38.665-7 1.5-1.336 1.5-2.668-1.332-3.168-11.833-2-22.168-6.168-30.5-11.332-1.668,10.164-5.5,13.832-6.833,21.5" fill="#fffde0"></path><path d="m499.895,399.77c8.168.332 17.335-2.832 21.335-9.668-7.167.836-13.167-2.5-19.835-4.168-.332,3.004-.332,6-1.332,8.836-.333,1.164-.333,3-.168,5" fill="#fffde0"></path><path d="m502.23,379.102c8-1.332 15.333-4.5 20.165-10.332-7.332-.336-13-4.5-20-5 2,9.832.835,11.164-.165,15.332" fill="#fffde0"></path><path d="m503.063,353.934c8.167-1.664 16.5-5 21-10.832-6.833-.5-13.333-2.5-20.5-3 1,6.832.332,10.668-.5,13.832" fill="#fffde0"></path><path d="m501.563,329.602c7.667-3 15-8.5 19.332-15.168-7.665.168-15.332-.664-22.832-1.832 1,7.168 2.332,11.832 3.5,17" fill="#fffde0"></path><path d="m495.395,305.102c7.835-3.668 13-8.832 16-14.832-7.665.664-16.665-.168-22.165-1.168-.5,6.832 3.333,10.832 6.165,16" fill="#fffde0"></path><path d="m481.063,260.602c8.167-6.668 6.667-12.5-3-14.5 2.5,2.832 4,11.168 3,14.5" fill="#fffde0"></path><path d="m302.563,222.27c-5.668-.668-12.168-.668-17.168.832 .168,7.5 2.5,13.832 6.168,19.5 5.5,8.668 22.167-19 11-20.332" fill="#fffde0"></path><path d="m366.73,508.77c5.5,81.332 55,181.332 135.665,220.5-72.832-47-118-127.332-129-221.168-2.165.336-4.5.5-6.665.668" fill="#bdbba6"></path><path d="m424.563,501.438c23.167,34.832 61.832,62.664 105.332,79.332-37.5-21.668-74.665-46.5-100-82-1.832,1-3.5,1.832-5.332,2.668" fill="#bdbba6"></path><path d="m302.563,222.602c-5.668-.668-12.168-.668-17.168.832 7.168,3.836 13.5,6.336 20,8.336 1.668-4.5 1.335-8.668-2.832-9.168" fill="#adab98"></path><path d="m261.563,259.434c-4.336-3.832-12-7-19.5-7 6.5,5.836 12.664,10.5 18.332,14 1.832-2.664 2.668-5.5 1.168-7" fill="#adab98"></path><path d="m243.727,286.602c2.168-3.5 3.336-7 1.836-8.168-5.836-4.832-14.336-2-20.668-4.832 7.168,5.668 14.168,10.332 18.832,13" fill="#adab98"></path><path d="m227.563,299.102c-4,.5-11.5.5-18-.668 6.832,2.836 13.164,4.5 20,5.336 .5-2.836.164-5.168-2-4.668" fill="#adab98"></path><path d="m218.063,322.27c-6.668,1.664-12.836-.668-19.5-.5 8.164,3.664 15.332,4.664 22.332,4.664 .332-2.664-.5-4.664-2.832-4.164" fill="#adab98"></path><path d="m211.227,343.934c-8.664.668-15.5,4.168-23.164,2.836 8.832,3.5 17.832,3 26.5,1.5-.5-2.5-1.5-4.5-3.336-4.336" fill="#adab98"></path><path d="m207.227,367.602c-13.832,3.5-29.832,2.5-47.832-4.332 15,10.5 33.5,14.332 52.5,8.164-1-2.832-2.668-4.5-4.668-3.832" fill="#adab98"></path><path d="m208.727,409.27c-34.332,18.668-68,32-111.5004,40.668 43.0004-.668 81.6684-10 118.6684-26-3-8.5-6-15.336-7.168-14.668" fill="#adab98"></path><path d="m226.895,462.27c-55.332,50.668-114.832,84.168-172.1684,101.5-.8321.332-1.3321.832-1.3321,1.332 69.5005-10.5 133.1685-51 188.1685-95.164-7-5.336-13.168-9.168-14.668-7.668" fill="#adab98"></path><path d="m284.563,502.602c-3.336,80.836-48,157.336-110.168,207.5-2.832,2.336-3.668,3.5-3,4 77.832-37 120.168-127.5 129.332-209.332-5.332-.668-10.832-1.5-16.164-2.168" fill="#adab98"></path><path d="m261.395,259.27c-4.332-4-11.832-7-19.332-7.168-.5,7.832 1.664,14.832 6.5,20.5 3.332,4.332 17.332-9.5 12.832-13.332z" fill="none" stroke="#7b786b" stroke-width=".66667"></path><path d="m245.563,278.102c-5.836-4.668-14.5-2-20.836-4.668 .168,6.836 1.836,14.5 7.168,19.168 5.668,4.832 17.168-11.668 13.668-14.5z" fill="none" stroke="#7b786b" stroke-width=".66667"></path><path d="m227.563,298.77c-4,.664-11.668.5-18.168-.5 1,7 5.832,13 11.5,16.5 5,3 12.668-16.836 6.668-16z" fill="none" stroke="#7b786b" stroke-width=".66667"></path><path d="m218.063,322.102c-6.668,1.668-13-.668-19.5-.5 1.332,6.832 7.332,12.668 15.832,14.668 4.832,1.164 9.832-15.668 3.668-14.168z" fill="none" stroke="#7b786b" stroke-width=".66667"></path><path d="m211.227,343.77c-8.832.664-15.5,4.164-23.332,2.832 2.832,8.168 11.332,12.5 20.668,13.668 6.5,1 8-16.836 2.664-16.5z" fill="none" stroke="#7b786b" stroke-width=".66667"></path><path d="m207.063,367.434c-13.668,3.668-29.668,2.5-47.836-4.332 9.836,16.832 27.168,28.832 47.836,31.168 8.664,1 7.832-28.836 0-26.836z" fill="none" stroke="#7b786b" stroke-width=".66667"></path><path d="m208.563,409.27c-34.168,18.668-68,32-111.5005,40.668-3.5.664-4.5,2 0,3.5 32.1645,11.664 79.6645,13.832 125.3325.5 3.668-1-10.832-46.336-13.832-44.668z" fill="none" stroke="#7b786b" stroke-width=".66667"></path><path d="m226.727,462.102c-55.332,50.836-114.832,84.336-172.3325,101.836-2,.664-1.832,2.664 1.5,3 75.6685,6.664 145.8325-22.5 206.3325-73.336 4.668-3.832-31.664-35-35.5-31.5z" fill="none" stroke="#7b786b" stroke-width=".66667"></path><path d="m284.563,502.602c-3.5,81-48,157.5-110.336,207.836-5,4.164-3.832,5 1.836,3.332 86.664-25.332 147.667-118.5 153.667-205.832-15.335-.836-30.167-3.336-45.167-5.336z" fill="none" stroke="#7b786b" stroke-width=".66667"></path><path d="m366.73,509.102c5.5,81.336 55,181.168 135.5,220.336 9.165,4.5 10.165,3.667 4.833-2.168-56-60.332-88.833-140.832-95.168-222-15.165,1-30,2.332-45.165,3.832z" fill="none" stroke="#7b786b" stroke-width=".66667"></path><path d="m424.563,501.77c36.5,55 111.667,92 183.167,96.5 9.833.668 10.665-1.168-1.167-6.168-57.668-24.332-112-67.164-145.5-114-12.333,7.5-23.333,17.336-36.5,23.668z" fill="none" stroke="#7b786b" stroke-width=".66667"></path><path d="m467.395,472.102c33.668,25.336 77.335,38.168 118.5,36.336 3,0 3.5-1 .835-2.168-36.335-14.832-71.335-33.832-100.335-60.668-5.332,9.5-13.665,17-19,26.5z" fill="none" stroke="#7b786b" stroke-width=".66667"></path><path d="m493.23,428.438c17.833,4 30-.336 38.665-7 1.5-1.336 1.5-2.668-1.332-3.168-11.833-2-22.168-6.168-30.5-11.332-1.668,10.164-5.5,13.832-6.833,21.5z" fill="none" stroke="#7b786b" stroke-width=".66667"></path><path d="m499.895,399.77c8.168.332 17.335-2.832 21.335-9.668-7.167.836-13.167-2.5-19.835-4.168-.332,3.004-.332,6-1.332,8.836-.333,1.164-.333,3-.168,5z" fill="none" stroke="#7b786b" stroke-width=".66667"></path><path d="m502.23,379.102c8-1.332 15.333-4.5 20.165-10.332-7.332-.336-13-4.5-20-5 2,9.832.835,11.164-.165,15.332z" fill="none" stroke="#7b786b" stroke-width=".66667"></path><path d="m503.063,353.934c8.167-1.664 16.5-5 21-10.832-6.833-.5-13.333-2.5-20.5-3 1,6.832.332,10.668-.5,13.832z" fill="none" stroke="#7b786b" stroke-width=".66667"></path><path d="m501.563,329.602c7.667-3 15-8.5 19.332-15.168-7.665.168-15.332-.664-22.832-1.832 1,7.168 2.332,11.832 3.5,17z" fill="none" stroke="#7b786b" stroke-width=".66667"></path><path d="m495.395,305.102c7.835-3.668 13-8.832 16-14.832-7.665.664-16.665-.168-22.165-1.168-.5,6.832 3.333,10.832 6.165,16z" fill="none" stroke="#7b786b" stroke-width=".66667"></path><path d="m481.063,260.602c8.167-6.668 6.667-12.5-3-14.5 2.5,2.832 4,11.168 3,14.5z" fill="none" stroke="#7b786b" stroke-width=".66667"></path><path d="m302.563,222.27c-5.668-.668-12.168-.668-17.168.832 .168,7.5 2.5,13.832 6.168,19.5 5.5,8.668 22.167-19 11-20.332z" fill="none" stroke="#7b786b" stroke-width=".66667"></path><path d="m421.395,275.602c35.668,44.668 58.335,96.668 75,165.336 2,8.832 5,8.332 5.335-1.336 2-65.5-13.5-125.668-45.667-188.168-5.833-10.5-18-9.5-26.833-4-11.167,6.668-14.835,19.336-7.835,28.168" fill="#fffde0"></path><path d="m447.895,244.27c24.835,48.832 44.168,106.164 53.5,166-2.832-54.336-18-105.668-45.165-158.836-2-3.832-5-6-8.335-7.164" fill="#bdbba6"></path><path d="m421.395,275.602c35.668,44.668 58.335,96.668 75,165.336 2,8.832 5,8.332 5.335-1.336 2-65.5-13.5-125.668-45.667-188.168-5.833-10.5-18-9.5-26.833-4-11.167,6.668-14.835,19.336-7.835,28.168z" fill="none" stroke="#7b786b" stroke-width=".66667"></path></g></g></svg>
