<svg viewBox="0 0 600 450" xmlns="http://www.w3.org/2000/svg" xmlns:xlink="http://www.w3.org/1999/xlink">

  <desc>
    Extracted dog from https://openclipart.org/detail/211463/hunter-military-helmet
    which was a remix of https://openclipart.org/detail/172462/hunter
    
    Reworked code to reduce complexity for hand editing
    
    Jay Nick
    steamcoded.org
  </desc>

  <defs>
    <linearGradient id="lg1" y2="704.05" gradientUnits="userSpaceOnUse" x2="717.33" y1="693.44" x1="711.2" gradientTransform="translate(-355 -440)">
      <stop style="stop-color:#ffc892;stop-opacity:.77358" offset="0"/>
      <stop style="stop-color:#ffce9e;stop-opacity:.14151" offset="1"/>
    </linearGradient>
    <radialGradient id="rg1" gradientUnits="userSpaceOnUse" cx="885.49" cy="633.01" gradientTransform="translate(-355 -440) matrix(.16803 -.65211 1.2782 .32936 -73.907 1017.5)" r="13.25">
      <stop style="stop-color:#3f3f3f;stop-opacity:.70755" offset="0"/>
      <stop style="stop-color:#585858;stop-opacity:0" offset="1"/>
    </radialGradient>
    <radialGradient id="rg2" gradientUnits="userSpaceOnUse" cy="677.64" cx="500.48" gradientTransform="translate(-355 -440) matrix(-1.0012 2.4092 -1.6648 -.69182 2152.4 -78.463)" r="44.077">
      <stop style="stop-color:#401f00" offset="0"/>
      <stop style="stop-color:#532800" offset=".25"/>
      <stop style="stop-color:#673200" offset=".5"/>
      <stop style="stop-color:#8e4601" offset="1"/>
    </radialGradient>
  </defs>

  <g style="fill:none;stroke:#000000;stroke-width:.91567px;">
    <path style="fill:url(#rg2)" d="m206.8 244.67-3.5355 2.4749c-2.6389 4.1387-2.3981 14.757-12.021 3.182-2.5927 3.8203-5.1854 0.81162-7.7782-0.70711-4.6688 6.7869-8.1444 12.837-18.385 15.91-6.8987 5.7838-12.368 12.425-23.688 15.556 1.6269 4.5464 2.9332 3.4832 6.364 39.598 3.5355-1.8211 7.0711 0.73244 10.607 3.5355 3.2919-0.53668 6.8634-1.5396 7.4246 2.4749l2.4749 7.4246c0.37177 6.3066-7.6854 2.7795-12.374 3.182-3.0641 2.8914-6.1283 0.97717-9.1924 0.35356-7.4399 0.6107-15.168 1.6253-13.435-10.607-4.0998-1.9463-3.7133-9.5005-4.2426-15.91-6.031-8.1283-6.9558-17.108-7.4246-26.163-2.5716-3.9238-2.2328-8.5753-1.0607-13.435-0.0574-3.7702-1.367-8.3752 6.7175-6.7175 7.24-21.186 11.865-43.78 30.759-58.69z"/>
    <path style="fill:#944900" d="m29.01 35.55c9.6498 60.859 69.555 69.876 74.995 73.813 14.51 3.3379 22.4-3.7065 31-4 29.812-1.4039 55.351-1.54 99.5 14 23.749 8.8381 48.422 12.133 73.5 13 18.333-4.0838 36.667-1.3928 55 1 11.065 4.0347 27.783 3.8293 44 4l9.5-2.5c1.8162-10.39 17.359-9.2262 33.5-10.5 17.514-7.6328 38.023-16.478 68.5 7 4.1807 2.0657 10.276 1.7379 9.5 10 14.181 15.34 36.58 21.796 43.5 24-3.233 1.5393-5.0026 0.61758-4.4393 5.2019-6.1597-1.3455-3.651 3.6962-1.0607 8.7981 2.4235 1.9728 5.1052 2.9124 8 3-1.0591 6.5205-13.29 24.05-15.889 21.707-5.3579 4.8707-20.28 4.059-24.399 7.1317-4.5426 4.8818-5.2873 3.7495-11.541 0.50952-1.496-2.3685-4.7601-6.3628-8.5858-5.4697-4.7413-1.1956-8.2316 4.3535-14.232-4.818l-8.36 1.94-45 6.12c-3.503-0.88001-7.3232 3.7457-11 5.8839-14.39 8.836-27.469 13.74-41 20-13.999 27.591-11.156 59.398-6 70l18.464 50.277c8.5106 7.6942 12.607 18.857 14.536 31.723 5.3206 5.3079 10.257 9.8472 16 16l8.5858 0.87868c4.272-0.57457 9.3038-1.512 13.121 10.182-0.0146 3.4781-0.87473 5.6879-3.7071 4.9393-3.7231 3.3788-7.2785 4.1838-11.47 2.4142-6.9601 2.8008-12.369 1.4527-18.061 1.2929-2.3645 1.0509-12.335-9.8779-10.47-14.707-3.5082-4.0848-7.8284-9.9948-7.8284-9.9948-1.1776-4.9361-3.2534-4.483-5.3536-3.8839-10.324 2.2706-7.6513-5.9792-8.818-11.121-8.9582-8.7502-14.726-23.882-22-36-13.211-20.005-23.807-36.699-30.005-52.47-4.692-4.3538-8.0443-9.4891-7.1161-17.121-6.5253-0.4332-11.165-0.27701-24.823-2.9393l-61.06-11.47c-23.593-2.5632-42.476-19.777-62-35-9.1486-9.249-16.678-10.944-23-7 1.8034 11.237 0.43493 24.06-0.46967 36.652 0.26151 13.554-1.4628 23.355-3.5303 34.581l-0.53033 19.48c7.4732 15.939 8.5432 43.066 12.237 61.945 16.457 6.4121 9.9348 0.23075 17.939 5.8683 1.1243 2.6667 2.1719 7.8082 2.3536 10.475-1.5299 2.1478-6.7447 5.5105-13.768 1.6568-5.8058 2.2738-6.6783-0.55677-10.293-0.18198-5.5342-0.38716-14.356-0.15278-11.707-6.7071l-1.23-16.77c-14.18-16.16-11.1-33.01-11.7-53.05 0.29-9.62-0.47-23.28-1.3-32.95-8.7818-13.876-19.832-24.424-22-48-34.707-49.45-21.691-82.672-20-85 0.84987-4.8063 3.5746-10.854 1-16.945-58.801-24.444-64.229-36.201-77.47-56.47-6.4919-12.815-5.5169-28.527-3.7626-40.586 2.0836-22.663 11.306-6.4116 10.237 0.18718z"/>
    <path style="fill:#944900" d="m301.55 217.8c-8.7874-3.2051-16.866-8.0486-40.305 22.627-7.098 8.3809-5.7099 12.519-3.5355 16.263 10.205 23.586 31.864 40.012 48.79 59.397l9.1924 10.96-1.0607 6.7175-3.8891 0.35355c-3.215-0.93333-7.2132-5.2724-11.314 3.5355l-4.2426 2.4749c-3.831-4.0731-6.6199 1.2323-9.5459 5.3033-3.0783-2.4278-4.8527 1.664-7.0711 3.5355 4.0987 3.8792 3.3336 11.406 14.142 10.253 5.8963 1.2116 8.0778 7.5101 20.86-0.7071 5.3033-3.497 10.607-6.7736 15.91-14.849 5.1406-6.4334 15.462-8.8002 13.435-20.86 0.60324-6.2591-11.547-14.112-17.678-21.213-3.34-10.025-9.996-18.723-18.031-26.87l2.1213-6.0104c9.7167-6.9268 19.926-13.607 38.891-15.91 6.2706-5.323 14.284-3.6736 18.031-19.092"/>
    <path style="fill:#ab6828" d="m467.37 129.05-1.7678 3.182c-19.585 10.46-19.556 23.1-22.981 35.355 0.0699 11.54-2.2259 22.606 2.1213 35.002 1.5491 7.0711 3.99 14.142 7.4246 21.213 16.087 19.665 26.926 18.862 33.588 1.7678-0.7428-7.5306-0.99643-15.224 1.0607-23.688 5.2741-19.096 2.7507-34.851 1.7678-51.265l1.7678-7.7782"/>
    <path style="fill:#592e04" d="m571.31 165.12c10.411 1.9958 11.06 6.808 8.4853 9.1924-0.99044 2.9156-2.561 5.6207-5.6998 7.7567-10.577-1.2817-8.6216-3.8187-9.753-6.6746-2.897-4.9035 0.52936-4.4883 2.7249-4.6176-1.7054-3.7054 2.3377-4.0575 4.2426-5.6569z"/>
    <path d="m527.75 141.24c-0.68863 5.3746-11.7 9.42-13.5 14"/>
    <path d="m517.88 151.99c2.0033 5.3519 4.8865 4.5445 7.875 3 2.4479-3.8165 0.0828-5.7818-1.625-8z"/>

    <path style="fill:#5a0f00" d="m409 136.86c-4.0986 57.223 8.7772 68.205 17.5 90.5-2.5167 4.6762-1.1074 7.109-0.5 10 10.268 7.5113 13.27-0.78413 12.005-6.3839l-4.5-6.03c-1.0779-2.3915-0.80556-5.2331-0.5-8.0858l-4.6161 3.091c-13.51-20.36-11.79-54.41-12.88-84.09-1.8387-0.97854-4.2106 0.17591-6.5 1z"/>
    <path d="m428.3 220.09c2.6324 6.2741 3.8114 5.3531 5.1265 5.4801"/>
    <path style="fill:#000000;stroke:none;" d="m 526.625,152.23718 c 0,1.31168 -1.03534,2.375 -2.3125,2.375 -1.27716,0 -2.3125,-1.06332 -2.3125,-2.375 0,-1.31167 1.03534,-2.375 2.3125,-2.375 1.27716,0 2.3125,1.06333 2.3125,2.375 z"/>
  </g>

  <path style="opacity:0.85;fill:url(#rg1)" d="m518 206.99c12.032-10.648 17.722-1.0962 25.5 1.625-3.2083 0.42025-6.4167 1.3375-9.625 2.375-2.4666 3.4509-5.531 5.5431-11.625 0.75-0.93925-1.3446-2.6812-3.0906-4.25-4.75z"/>
  <path style="fill:url(#lg1)" d="m333.37 269.95c18.56-5.7113 34.361-13.179 42.603-25.456 2.2532-2.1512 3.8898-4.6387 11.137-4.0659-13.643 8.3589-13.828 15.926-20.329 23.865-1.514 10.634-22.196 3.8419-33.411 5.6568z"/>

</svg>