<?xml version="1.0" encoding="UTF-8" standalone="no"?>
<!DOCTYPE svg PUBLIC "-//W3C//DTD SVG 1.0//EN" "http://www.w3.org/TR/2001/REC-SVG-20010904/DTD/svg10.dtd" [
<!ENTITY ns_flows "http://ns.adobe.com/Flows/1.0/">
	<!ENTITY ns_extend "http://ns.adobe.com/Extensibility/1.0/">
	<!ENTITY ns_ai "http://ns.adobe.com/AdobeIllustrator/10.0/">
	<!ENTITY ns_graphs "http://ns.adobe.com/Graphs/1.0/">
	<!ENTITY ns_vars "http://ns.adobe.com/Variables/1.0/">
	<!ENTITY ns_imrep "http://ns.adobe.com/ImageReplacement/1.0/">
	<!ENTITY ns_sfw "http://ns.adobe.com/SaveForWeb/1.0/">
	<!ENTITY ns_custom "http://ns.adobe.com/GenericCustomNamespace/1.0/">
	<!ENTITY ns_adobe_xpath "http://ns.adobe.com/XPath/1.0/">
	<!ENTITY ns_svg "http://www.w3.org/2000/svg">
	<!ENTITY ns_xlink "http://www.w3.org/1999/xlink">
]>
<svg enable-background="new 0 0 357.897 334.297" height="334.3" viewBox="0 0 357.897 334.297" width="357.9" xml:space="preserve" xmlns="http://www.w3.org/2000/svg">
	
		
		
			
						<path d="m17.184,98.12s9.889,5.546 5.186,11.334c-3.981,5.07 16.161-8.68-5.186-11.33z" fill="#bfbfbf" fill-rule="evenodd" stroke="#000" stroke-miterlimit="2.4142" stroke-width=".36"></path>
						<path d="m80.982,24.914c-.121-.363-6.995-16.039-10.253-18.814-3.376-2.774-2.772-1.688-2.653.724 .122,2.291 1.93,14.834 1.568,20.623-.241,5.789 2.17,22.071 2.532,22.071 .484-.001 13.388,10.37 8.806-24.604z" fill="#6b432f" fill-rule="evenodd" stroke="#000" stroke-miterlimit="2.4142" stroke-width=".36"></path>
						<path d="m69.524,20.813s-2.05-16.523-1.567-16.401c4.824.843 9.406,12.543 9.406,12.543" fill="none" stroke="#241610" stroke-linecap="round" stroke-miterlimit="2.4142" stroke-width=".72"></path>
					<g fill="none">
							<path d="m69.524,21.055s-2.05-16.282-1.207-16.282c4.342.724 9.287,12.784 9.287,12.784" stroke="#301e15"></path>
							<path d="m69.524,21.175s-2.05-16.041-.843-16.041c3.858.604 9.165,12.906 9.165,12.906" stroke="#3a251a"></path>
							<path d="m69.645,21.416s-2.17-15.799-.724-15.799c3.618.243 9.045,12.906 9.045,12.906" stroke="#472d1f"></path>
							<path d="m69.645,21.657s-2.051-15.558-.362-15.678c3.135.12 8.924,13.025 8.924,13.025" stroke="#543424"></path>
							<path d="m69.766,21.778s-2.171-15.196-.121-15.316c2.773-.121 8.683,13.145 8.683,13.145" stroke="#5e3b29"></path>
					</g>
						<path d="m69.766,22.018s-2.171-14.954.241-15.195 8.563,13.267 8.563,13.267" fill="none" stroke="#6b432f" stroke-linecap="round" stroke-miterlimit="2.4142" stroke-width=".72"></path>
						<path d="m69.645,23.225s-1.688-14.712-1.688-16.763c0,0-1.086-3.015.844-2.05 0,0 4.462.843 10.613,17.004" fill="none" stroke="#000" stroke-linecap="round" stroke-miterlimit="2.4142" stroke-width=".36"></path>
						<path d="m334.36,157.45s15.558-2.652 20.861-2.895l.243-.965s1.085,1.087.12,2.774l-.363-.965c.01,0-18.93,2.05-20.86,2.05z" fill="#8fa6ab" fill-rule="evenodd" stroke="#000" stroke-miterlimit="2.4142" stroke-width=".36"></path>
						<path d="m70.247,48.671s.482-.482 0-1.084c-.602-.603-2.17-1.207-2.17-1.207l1.93.361s.481,0-.121-.963-1.085-1.567-1.81-1.809c-.723-.363 2.412.602 2.895,1.446 .604.843 1.206.362.724-.24-.361-.604-1.809-1.93-1.809-1.93l1.085.241s-.724-2.535-2.05-2.654c-1.206-.12 1.085-.724 3.015,1.688 1.93,2.291.121-1.206-.361-1.688-.482-.361-2.051-3.257-2.051-3.257s.241-.482.482,0 2.774,2.05 2.774,2.05l-1.327-1.807s.724-.122 1.207.361c.603.483 1.929.602 1.929.602l-.724-.843 1.327.361-.482-1.445 1.084.722-.361-.843s.602.241.965.604c.242.361.603-.604.242-.965s.602-1.209.843-.363c.362.724.603,1.207.724.965 0-.241.121-2.896.845-1.328 .603,1.448 12.783,3.861 12.783,3.861s1.327-1.085 1.689-.122c.482.965.844,3.86.844,3.86s1.086-4.583 1.448-3.86 .362,3.378-.121,4.945c-.604,1.689.603,1.568.964.846 .241-.604 1.327-3.137 1.327-3.137l-.604,3.859s1.086.361 1.327-1.809 .603-3.015.603-3.015 .483,6.513 0,7.96c-.603,1.326.604,2.05 1.086.724 .362-1.207.965-4.826.965-4.826s-.845,11.821 2.049,3.256 1.086-1.93 1.086-1.084c0,1.084-.241,5.426.965.845 1.326-4.462-2.534,15.798 2.17.361 0,0-2.292,13.749 2.291,1.929 0,0-.483,4.945-.844,5.428-.241.361 2.774-3.619 3.016-4.102 .241-.601.482-.24.362.243s-2.654,4.702-2.654,5.546c0,.726-.362,2.173.362.847 .844-1.208 2.171-4.463 2.292-5.308 0-.965.482-.724.482-.242s-1.447,6.995-2.171,8.201c-.603,1.207.603.963 1.327-.362 .603-1.327 2.532-6.391 2.291-5.667-.241.843-1.568,5.788-1.086,4.704 .483-.846 2.051-2.896 2.17-3.378 0-.361.482.482.241,1.448-.119.965-1.205,3.618-.119,2.773 .965-.843 1.808-2.051 1.326-1.086-.482.845-3.377,5.187-1.688,4.223s2.653-2.534 2.653-1.81c-.121.602-.121,1.328.481.482 .604-.965 2.051-2.774 1.568-1.93-.362.965-2.532,5.428-.481,3.498s2.412-2.291 1.809-1.086c-.482,1.208-1.568,2.173-1.93,3.378-.241,1.207 1.086,1.448 1.93.241 .724-1.207 2.292-3.619 2.171-2.772-.121.844-2.895,4.098-2.414,4.341 .363.24 1.931.361 2.534,0 .602-.604 2.17-2.171 1.688-1.328-.362.724-3.618,4.341-2.894,4.221 .603,0 4.583-4.583 4.461-3.859-.241.722-4.1,5.789-2.772,5.426 1.084-.361 4.944-4.704 4.582-3.86-.362.847-2.291,3.86-.604,2.775 1.568-1.084 1.929-2.894 2.292-2.532 .481.482-.483,1.326 0,1.204s.723.363.481.726-2.774,4.702-.723,3.015c2.048-1.569 3.375-3.741 3.014-2.776s-4.1,6.513-3.014,6.393c.964,0 5.064-6.152 5.064-5.428s-4.583,6.995-2.534,5.669 5.307-6.271 5.066-5.428-4.944,6.875-4.221,6.754c.844-.121 4.826-5.91 4.704-5.067 0,.965-4.101,6.876-2.412,6.271 1.568-.722 4.462-3.254 3.859-2.411-.603.846-5.065,3.62-1.93,2.894 3.135-.722 5.668-3.014 4.583-1.566-1.207,1.446-2.292,2.292-1.207,2.17 1.207-.122 3.859-2.17 3.377-1.205s-5.426,6.028-2.652,5.307c2.652-.726 6.029-5.55 5.788-4.706-.241.965-5.306,6.271-4.342,6.271 1.086,0 3.377-2.048 4.101-2.531 .603-.482 1.447-.726.965.12s.362.724 1.206.363 1.448-.482.845.118-6.151,5.188-1.086,2.293 3.377-1.446 2.775-.965c-.604.602-6.635,4.943-.846,2.171 5.669-2.774 2.292-.482 1.568-.122-.723.483-4.463,3.859-.362,1.929 4.222-1.807 1.81.122.965.482-.724.365-2.05,1.691-.844,1.57s5.426-1.809 4.583-.604c0,0-3.377,1.448-2.292,2.052 1.206.361 4.101-1.326 3.979-.604 0,.604-3.979,1.689-2.652,1.811s2.894-.482 3.737-.363c.724.241 3.137.724 3.016,1.206 0,.483 0,.483-1.568.604-1.447.118-3.737.48-1.688.963 2.171.482 3.378.12 3.619.724 .361.483 1.929.122 2.411.724s3.017.361 3.017.724c0,.481-3.258-.241-3.258.603-.119,1.086 1.689,1.086 2.653.844 .965-.12 2.654-.483 2.051,0-.724.482-1.086.965-.241.844 .845,0 1.447,1.69 3.496,1.328 2.052-.241 6.634-.724 5.911.12s-4.342,2.171-4.342,2.413-24.25,11.7-104.69-56.919z" fill="#1a110c" fill-rule="evenodd" stroke="#000" stroke-miterlimit="2.4142" stroke-width=".36"></path>
						<path d="m76.882,48.671s-3.136-3.256-4.222-3.978" fill="none" stroke="#000" stroke-miterlimit="2.4142" stroke-width=".36"></path>
						<path d="m77.243,46.259s-2.412-4.824-3.136-5.307" fill="none" stroke="#000" stroke-miterlimit="2.4142" stroke-width=".36"></path>
						<path d="m78.69,47.346s-2.774-7.237-3.739-7.839" fill="none" stroke="#000" stroke-miterlimit="2.4142" stroke-width=".36"></path>
					<path d="m77.966,41.557-1.93-3.135" fill="none" stroke="#000" stroke-miterlimit="2.4142" stroke-width=".36"></path>
						<path d="m87.855,51.204s4.583-7.115 4.462-10.13" fill="none" stroke="#000" stroke-miterlimit="2.4142" stroke-width=".36"></path>
						<path d="m90.992,50.482s2.412-4.584 2.773-7.356" fill="none" stroke="#000" stroke-miterlimit="2.4142" stroke-width=".36"></path>
						<path d="m96.9,46.501s-2.773,6.994-3.858,8.081" fill="none" stroke="#000" stroke-miterlimit="2.4142" stroke-width=".36"></path>
						<path d="m98.951,50.482s-3.015,5.185-4.101,5.667" fill="none" stroke="#000" stroke-miterlimit="2.4142" stroke-width=".36"></path>
						<path d="m95.695,53.495s2.17-4.46 2.894-6.754" fill="none" stroke="#000" stroke-miterlimit="2.4142" stroke-width=".36"></path>
						<path d="m101.36,51.565s-2.051,5.066-4.222,5.91" fill="none" stroke="#000" stroke-miterlimit="2.4142" stroke-width=".36"></path>
						<path d="m104.86,54.943s-1.688,4.704-3.858,5.548" fill="none" stroke="#000" stroke-miterlimit="2.4142" stroke-width=".36"></path>
						<path d="m104.5,50.36s-2.773,7.237-4.704,8.685" fill="none" stroke="#000" stroke-miterlimit="2.4142" stroke-width=".36"></path>
						<path d="m107.03,55.667s-1.567,4.1-4.342,5.548" fill="none" stroke="#000" stroke-miterlimit="2.4142" stroke-width=".36"></path>
						<path d="m103.78,59.284s2.17-3.496 2.773-5.789" fill="none" stroke="#000" stroke-miterlimit="2.4142" stroke-width=".36"></path>
						<path d="m109.08,56.028s-2.895,6.393-4.824,6.997" fill="none" stroke="#000" stroke-miterlimit="2.4142" stroke-width=".36"></path>
						<path d="m110.65,62.06s-1.809,3.255-3.377,3.859" fill="none" stroke="#000" stroke-miterlimit="2.4142" stroke-width=".36"></path>
						<path d="m114.51,63.747s-2.894,4.102-4.583,4.341" fill="none" stroke="#000" stroke-miterlimit="2.4142" stroke-width=".36"></path>
						<path d="m108.72,67.366s3.86-3.619 4.583-4.945" fill="none" stroke="#000" stroke-miterlimit="2.4142" stroke-width=".36"></path>
						<path d="m118.25,64.953s-4.462,4.943-6.03,5.426" fill="none" stroke="#000" stroke-miterlimit="2.4142" stroke-width=".36"></path>
						<path d="m121.86,71.344s-4.101,3.859-5.064,3.859" fill="none" stroke="#000" stroke-miterlimit="2.4142" stroke-width=".36"></path>
						<path d="m120.78,67.849s-4.342,4.581-6.15,5.063" fill="none" stroke="#000" stroke-miterlimit="2.4142" stroke-width=".36"></path>
						<path d="m117.04,73.395s4.704-3.737 5.307-4.581" fill="none" stroke="#000" stroke-miterlimit="2.4142" stroke-width=".36"></path>
						<path d="m127.29,71.827s-3.255,5.547-7.236,7.117" fill="none" stroke="#000" stroke-miterlimit="2.4142" stroke-width=".36"></path>
						<path d="m129.82,77.616s-4.101,4.1-5.547,4.341" fill="none" stroke="#000" stroke-miterlimit="2.4142" stroke-width=".36"></path>
						<path d="m129.22,74.481s-5.667,5.667-6.873,6.15" fill="none" stroke="#000" stroke-miterlimit="2.4142" stroke-width=".36"></path>
						<path d="m132.12,78.099s-4.582,5.426-6.391,5.547" fill="none" stroke="#000" stroke-miterlimit="2.4142" stroke-width=".36"></path>
						<path d="m136.34,80.873s-6.754,4.704-8.683,4.583" fill="none" stroke="#000" stroke-miterlimit="2.4142" stroke-width=".36"></path>
						<path d="m140.8,81.475s-8.924,5.911-10.732,6.03" fill="none" stroke="#000" stroke-miterlimit="2.4142" stroke-width=".36"></path>
						<path d="m142.85,86.781s-7.356,3.137-9.287,3.376" fill="none" stroke="#000" stroke-miterlimit="2.4142" stroke-width=".36"></path>
						<path d="m140.44,84.851s-4.704,3.017-6.031,3.377" fill="none" stroke="#000" stroke-miterlimit="2.4142" stroke-width=".36"></path>
						<path d="m147.07,88.229s-7.959,4.705-9.526,4.824" fill="none" stroke="#000" stroke-miterlimit="2.4142" stroke-width=".36"></path>
						<path d="m148.64,89.557s-6.633,4.824-8.563,5.185" fill="none" stroke="#000" stroke-miterlimit="2.4142" stroke-width=".36"></path>
						<path d="m150.57,91.004s-6.753,4.824-8.201,4.942" fill="none" stroke="#000" stroke-miterlimit="2.4142" stroke-width=".36"></path>
						<path d="m154.55,93.776s-7.236,4.221-9.045,4.221" fill="none" stroke="#000" stroke-miterlimit="2.4142" stroke-width=".36"></path>
						<path d="m161.54,95.829s-6.873,1.326-8.924,2.53c-2.17,1.207-3.979,1.689-3.979,1.689" fill="none" stroke="#000" stroke-miterlimit="2.4142" stroke-width=".36"></path>
					<path d="m164.32,100.65-8.685,2.048" fill="none" stroke="#000" stroke-miterlimit="2.4142" stroke-width=".36"></path>
					<path d="m345.22,164.69s.241,11.821.241,15.197c0,3.256 3.017,14.352 1.93,12.18s4.221,10.854 2.773,8.321c-1.326-2.532 5.308,10.009 3.378,7.839-1.931-2.291 7.235,14.11 3.256,11.336-3.86-2.773 3.618,7.237-1.087,5.548 0,0 .846,22.794-.239,19.417 0,0-2.291,16.041-2.534,13.869 0,0 0,13.628-.602,11.699 0,0 .602,13.265-.483,9.165 0,0-1.688-7.478-2.288-6.393-.484,1.087-1.087-2.532-2.174-9.769 0,0-1.085,10.856-1.326-6.872 0,0-.604,6.872-2.049-12.784 0,0-2.412-2.291-2.412-16.643 0,0-1.689-3.137.238-13.389 0,0-2.169-2.411-.238-7.476 0,0-1.809,2.05.843-5.789 2.532-7.839-1.206-22.19-.36-23.879-.01-.02-2.18-3.64 3.13-11.6z" fill="#241610" fill-rule="evenodd"></path>
					<path d="m343.05,186.76c-.482-5.065-1.328-9.527-.965-10.372 0,0-2.172-3.619 3.134-11.578 0,0 .241,11.817.241,15.195 0,1.328.483,3.859.966,6.391 0,.01-2.89,4.83-3.37.37z" fill="#593727" fill-rule="evenodd"></path>
						<path d="m343.65,189.29c1.81,3.256 2.896-1.205 2.896-1.205" fill="none" stroke="#241610" stroke-linecap="round" stroke-miterlimit="2.4142" stroke-width=".72"></path>
					<g fill="none">
							<path d="m343.65,189.05c1.568,2.774 2.896-1.206 2.896-1.206" stroke="#2e1d14"></path>
							<path d="m343.53,188.69c1.326,2.534 2.894-1.205 2.894-1.205" stroke="#392419"></path>
							<path d="m343.53,188.33c1.084,2.171 2.894-1.204 2.894-1.204" stroke="#442a1d"></path>
							<path d="m343.53,187.97c.722,1.809 2.772-1.207 2.772-1.207" stroke="#4e3122"></path>
					</g>
						<path d="m343.41,187.72c.604,1.327 2.895-1.205 2.895-1.205" fill="none" stroke="#593727" stroke-linecap="round" stroke-miterlimit="2.4142" stroke-width=".72"></path>
						<path d="m345.22,164.69s.241,11.821.241,15.197c0,3.256 3.017,14.352 1.93,12.18s4.221,10.854 2.773,8.321c-1.326-2.532 5.308,10.009 3.378,7.839-1.931-2.291 7.235,14.11 3.256,11.336-3.86-2.773 3.618,7.237-1.087,5.548 0,0 .846,22.794-.239,19.417 0,0-2.291,16.041-2.534,13.869 0,0 0,13.628-.602,11.699 0,0 .602,13.265-.483,9.165 0,0-1.688-7.478-2.288-6.393-.484,1.087-1.087-2.532-2.174-9.769 0,0-1.085,10.856-1.326-6.872 0,0-.604,6.872-2.049-12.784 0,0-2.412-2.291-2.412-16.643 0,0-1.689-3.137.238-13.389 0,0-2.169-2.411-.238-7.476 0,0-1.809,2.05.843-5.789 2.532-7.96-1.206-22.19-.36-23.879-.01-.02-2.18-3.64 3.13-11.6z" fill="none" stroke="#000" stroke-miterlimit="2.4142" stroke-width=".36"></path>
						<path d="m345.94,153.35s1.326-5.186 2.292-5.427c.963-.361-.604-4.702-2.051-3.619-1.57,1.09-1.45,6.76-.24,9.05z" fill="#593727" fill-rule="evenodd" stroke="#000" stroke-miterlimit="2.4142" stroke-width=".36"></path>
						<path d="m331.71,242.36s.361-4.702 0-6.632-2.653-3.617-1.205-7.476c0,0 2.895,1.565.482-1.811 0,0-.604-1.326-.363-2.651 0,0 1.447,0 .604-2.051 0,0-.482-1.93-.362-2.413 .122-.361 1.569,1.087.362-1.689 0,0 1.086-.361.844-4.1 0,0 0-2.291.847-2.532 .843-.361 1.083-2.292.843-3.376-.12-1.087.362-2.652 1.688-2.896 0,0 1.809-2.17 1.931-8.683 0,0 1.326-6.03.965-7.237-.243-1.086 3.495-12.782 4.1-14.352 .482-1.689 3.98-11.697 3.859-16.16s.724-7.959-1.446-11.096c0,0 .723-1.687-1.326-3.618 0,0 1.204-3.979-8.442-10.734 0,0-3.257-4.1-10.613-7.838 0,0 2.048-.483-11.818-9.648 0,0-5.91-3.017-15.195-6.152 0,0-5.911-2.172-10.133-2.411 0,0 4.945,0-6.632-.844 0,0 .845-.121-12.421.361 0,0 .119,1.687-11.699,2.533 0,0-7.477.241-22.069.241 0,0-11.459.482-24.602-1.326 0,0-10.615-1.448-19.418-2.774 0,0-3.738-3.137-10.012-1.93 0,0 2.776-3.739-8.562-.602 0,0-4.101-.361-8.08,1.326-3.859,1.689-10.009-.361-25.083-9.888-14.955-9.408-34.975-34.371-43.779-38.231-2.292-.965-3.619-2.291-7.959-6.15-4.583-4.102 21.225-9.167-5.187-48.603-3.618-5.306-4.1,27.255-2.653,43.657 .362,4.463-8.201,3.98-10.251,4.1 0,0-13.989,0-28.341,10.613-14.482,10.489-18.1,13.263-23.889,16.278-5.789,3.135 19.417,40.04 22.793,39.798 6.03-.363 14.351-6.394 23.156-5.548 2.653-.482 4.1,1.448 9.768-1.084 1.447.239 1.447,1.084 2.774,1.687 2.17.965 4.101,1.568 5.547,4.102 0,0 3.015,4.342 8.442,20.743 0,0 2.894,5.185 3.256,8.08 .482,2.894 3.257,7.235 3.016,3.498 0,0 1.446,5.547 3.858,8.442 0,0 1.086,6.39 2.413,6.633 0,0 .723,4.341 2.653,7.115 0,0 1.327,6.632 2.773,5.548 0,0 1.327,3.617 2.532,3.496 0,0 .483,1.328.965,1.93 .362.482 47.155,83.214 64.643,18.212l101.67,4.341c.01.01 50.9,59.22 54.76,39.81z" fill="#6b432f" fill-rule="evenodd" stroke="#000" stroke-miterlimit="2.4142" stroke-width=".36"></path>
					<path d="m115.11,187.24c-2.773-4.219-4.342-7.113-4.462-7.235-.482-.602-.965-1.93-.965-1.93-1.206.122-2.532-3.496-2.532-3.496-1.446,1.084-2.773-5.548-2.773-5.548-1.93-2.773-2.653-7.115-2.653-7.115-1.327-.244-2.413-6.633-2.413-6.633-2.412-2.895-3.858-8.442-3.858-8.442 .241,3.737-2.533-.604-3.016-3.498-.362-2.895-3.256-8.08-3.256-8.08-5.427-16.401-8.442-20.743-8.442-20.743-1.447-2.534-3.377-3.136-5.547-4.102-.482-.241-.845-.602-1.206-.843 0,0 5.668,1.929 6.875.602 1.327-1.445 1.568,1.688 2.291,3.017 .724,1.446 14.593,30.39 17.367,31.838 2.773,1.327 3.256,4.944 5.306,6.874 3.859,3.979 7.477-9.165 9.647-14.352 1.689-3.979 3.859-5.306 5.307-5.306 0,0 2.774-1.689-2.291,6.15 0,0-11.337,14.352-8.563,31.235 0,0 .603,1.327.241,4.946-.241,3.617 9.165,19.658 6.753,17.728-2.54-1.92-1.82-5.06-1.82-5.06z" fill="#5b3c2b" fill-rule="evenodd"></path>
						<path d="m109.8,178.8s.724,4.341 1.93,5.546c0,0 .362,6.393 1.206,6.03 0,0-.122,4.704 1.206,4.826 0,0 1.206,4.22 2.171,4.702 0,0 1.084,3.858 2.17,4.341 0,0 .724,2.413 2.291,2.532 0,0 .724,2.895 2.654,3.017 0,0 2.17,2.652 3.98,11.215 0,0-.363,1.567 1.085,1.689 0,0 1.327,6.994 1.327,8.561 0,1.448.964,2.413 1.085,2.052 0,0-.843,9.043.603,7.96 0,0-.482,8.561.602,7.234 0,0-1.084,8.563-.24,7.719 0,0-1.085,5.546-.121,4.702 0,0-1.085,10.854.361,9.287 0,0 .846,14.352-.12,18.571 0,0-1.085,9.167-2.653,10.373 0,0-16.643,20.26 21.588,23.034 0,0 2.895,2.773 2.773-3.617 0,0 1.929-1.931 1.447-3.257 0,0 .844-1.448-.121-3.256 0,0 1.568-6.876.965-10.491 0,0 .845-12.905.604-15.318 0,0-.362-7.837.724-10.37 0,0 .964-3.378.241-5.187 0,0 1.808-1.689 1.446-3.376 0,0-.724-10.735-1.086-11.578 0,0 2.171-.965 1.086-3.619 0,0 .844-.843.603-3.376 0,0 1.447-.361.846-5.065 0,0 1.808-3.739 1.929-5.187 0,0 1.568-3.015 2.532-7.719 0,0 2.051-1.809 2.413-5.546 0,0 2.17-2.413 1.688-4.222 0,0 1.929-1.689 1.327-3.619 0,0 .844-1.327 2.17-.12 0,0 3.258.843 1.689-1.207 0,0 3.618,2.774 3.377,1.207 0,0 4.341,1.567 1.93-.724 0,0 10.01,2.291 7.598,0 0,0 12.061,3.134 10.612.482 0,0 5.309,2.896 3.86,0 0,0 5.427,3.98 5.427,1.567 0,0 6.752,1.811 5.908-.361 0,0 4.583,2.773 5.309.843 0,0 14.23,1.567 17.847.482 0,0 8.563,0 10.735-1.567 0,0 5.425-.122 7.476-1.931 0,0 4.823-.724 5.91-2.049 0,0 6.03-.483 4.823-2.533 0,0 1.447-1.205 2.412,0 1.447,1.567.604,8.926 2.654,7.356 0,0 .846,6.513 2.773,5.306 1.93-1.326-.363,0-.363,0s2.654,5.91 3.982,5.067 2.531,5.546 3.134,3.979c0,0 5.909,4.946 6.996,7.117 1.085,2.291 3.858,3.737 4.461,4.823 .482.844 2.171,2.048 3.257,2.292 .844.24 4.343,8.804 5.309,10.13 0,0 0,7.236 1.325,6.753 0,0 .239,21.828.12,23.275-.12,1.327-1.689,3.378-.12,3.739 0,0-.362,6.271-1.447,7.839s-1.809,2.773-.724,2.532c0,0-2.05,2.894-2.773,3.376-.604.363 0,1.084-2.534,2.533 0,0-5.064,5.549-3.015,6.875 2.172,1.205 13.023,6.149 15.798,5.547 0,0 3.257-4.102 2.774-1.328 0,0 3.377-2.169 3.499-3.858 0,0 2.291-1.931 1.687-4.1 0,0 1.569-.482-.241-5.428 0,0-.724-2.532.363-1.448 0,0-1.809-5.787 0-16.521 0,0 1.931-.482.844-2.413 0,0-.241-6.028.723-6.993 0,0 .847.12.725-3.016s1.326-1.087 1.326-5.306c0-4.102 1.688-2.291 1.327-6.271-.483-3.858.361-5.91 1.568-3.137 1.326,2.776 2.17,8.082 2.292,9.047s.36,19.777.119,23.154c-.241,3.256-.119,5.669-.119,5.669s-3.018,5.306-1.327,4.702-2.413,5.306-.482,5.065c0,0-1.208-.361-2.534,2.05 0,0-2.652,3.498-5.307,4.584 0,0 1.567,1.326.482,1.928 0,0 0,1.448.846,2.052 .844.721 6.995,4.341 16.521,2.169 0,0 3.136.724 3.859-1.326s2.172-4.222 2.411-6.513c.365-2.413 1.087-4.343 0-5.548 0,0-.844-7.719-.48-9.165 .48-1.327 1.206.843 1.206-3.257 0-3.98-.243-10.373.361-11.578 .482-1.206.604-7.116 1.688-10.734 0,0 .241-1.809.482-3.859s-.362.122-.362.122 1.447-1.691.965-5.067 1.206-.722 0-3.498c0,0 1.447,0 .122-2.291 0,0 .722-2.17-4.582-6.15 0,0 4.582,1.687-2.896-4.946 0,0 7.114,1.57-1.81-4.1 0,0-23.276-22.673-26.533-25.447-3.377-2.774-12.542-7.476-14.952-19.658-2.534-12.18-6.151-17.487-15.078-14.472-8.803,3.135-25.686,14.713-76.821,5.306-27.136-4.945-23.154-4.102-26.773.602-4.342,5.67-10.854,19.658-14.473,22.432s-17.244-.482-27.738-11.938c-10.64-11.28-18.23-20.45-20.17-20.69z" fill="#e6e6e6" fill-rule="evenodd" stroke="#000" stroke-miterlimit="2.4142" stroke-width=".36"></path>
						<path d="m25.385,106.32c-.242-.241-2.17.483-1.929,1.448 .481,1.56 3.014.12 1.929-1.45z" fill="#e6e6cf" fill-rule="evenodd" stroke="#000" stroke-linecap="round" stroke-miterlimit="2.4142" stroke-width=".072"></path>
						<path d="m23.335,107.41c-.362-.482-2.292.118-1.93,1.327 .483,1.56 2.895.11 1.93-1.33z" fill="#e6e6cf" fill-rule="evenodd" stroke="#000" stroke-linecap="round" stroke-miterlimit="2.4142" stroke-width=".072"></path>
						<path d="m21.284,108.37c-.361-.482-2.654.241-1.93,1.326 1.086,1.56 3.016.24 1.93-1.33z" fill="#e6e6cf" fill-rule="evenodd" stroke="#000" stroke-linecap="round" stroke-miterlimit="2.4142" stroke-width=".072"></path>
						<path d="m17.425,110.06c-.241-.482-2.895.481-1.93,1.326 1.93,1.56 3.016.23 1.93-1.33z" fill="#e6e6cf" fill-rule="evenodd" stroke="#000" stroke-linecap="round" stroke-miterlimit="2.4142" stroke-width=".072"></path>
						<path d="m19.235,109.33c-.363-.482-2.895.482-1.93,1.326 1.808,1.45 2.894.24 1.93-1.33z" fill="#e6e6cf" fill-rule="evenodd" stroke="#000" stroke-linecap="round" stroke-miterlimit="2.4142" stroke-width=".072"></path>
					<path d="m21.405,98.601s0,1.326-1.929,1.808c-1.81.363-9.288,4.463-9.89,4.824-.482.37.602-10.488 11.819-6.629z" fill="#caa49c" fill-rule="evenodd"></path>
						<path d="m14.168,103.06c.241.482-1.809,1.93-2.17.603-.603-1.68 1.085-3.13 2.17-.6z" fill="#e6e6cf" fill-rule="evenodd" stroke="#000" stroke-linecap="round" stroke-miterlimit="2.4142" stroke-width=".072"></path>
						<path d="m10.552,104.99c.119.603-2.292,2.048-2.292.722-.001-2.41 1.687-2.53 2.292-.72z" fill="#e6e6cf" fill-rule="evenodd" stroke="#000" stroke-linecap="round" stroke-miterlimit="2.4142" stroke-width=".072"></path>
						<path d="m12.239,104.15c.121.483-2.292,1.93-2.292.604 0-2.41 1.328-3.01 2.292-.6z" fill="#e6e6cf" fill-rule="evenodd" stroke="#000" stroke-linecap="round" stroke-miterlimit="2.4142" stroke-width=".072"></path>
						<path d="m16.34,102.1c.12.48-1.931,1.807-2.292.722-.843-2.65 1.688-2.41 2.292-.72z" fill="#e6e6cf" fill-rule="evenodd" stroke="#000" stroke-linecap="round" stroke-miterlimit="2.4142" stroke-width=".072"></path>
						<path d="m18.389,101.01c.241.604-1.929,1.93-2.291.722-.844-2.647 1.689-2.406 2.291-.72z" fill="#e6e6cf" fill-rule="evenodd" stroke="#000" stroke-linecap="round" stroke-miterlimit="2.4142" stroke-width=".072"></path>
						<path d="m20.561,100.05c.362.604-1.93,2.052-2.291.724-.483-2.169.965-2.65 2.291-.72z" fill="#e6e6cf" fill-rule="evenodd" stroke="#000" stroke-linecap="round" stroke-miterlimit="2.4142" stroke-width=".072"></path>
						<path d="m22.731,99.083c.241.482-2.05,1.93-2.292.724-.602-2.17.845-2.653 2.292-.724z" fill="#e6e6cf" fill-rule="evenodd" stroke="#000" stroke-linecap="round" stroke-miterlimit="2.4142" stroke-width=".072"></path>
						<path d="m19.596,74.12s-4.945,2.411-7.718,3.737c-2.773,1.205-3.979,1.93-4.462,2.533-.362.724-4.101,5.789-4.704,6.151-.724.482-2.532,6.029-2.413,7.115s-.119,6.27-.119,7.235 .602,2.654 1.446,3.377c.844.603 3.377,3.254 4.703,2.772 1.206-.6 3.618-3.134 5.789-6.149 2.05-2.894 6.512-2.533 7.477-2.411 .965.12 7.84,4.463 5.187,8.925 0,0-5.066,3.254-8.201,4.341-3.258.843-2.534,3.254-1.569,4.1 .964.843 3.015.361 3.617.963s.604,2.052 1.327,2.534c.844.361 2.05,1.809 5.548,2.411 3.377.724 4.703,2.17 7.478.482s2.17-4.583 2.412-5.428c.361-.844.603-.12 1.326-.722 .723-.482 2.05,0 3.136-.845 2.051-1.54-15.678-39.412-20.26-41.1z" fill="#e6e6e6" fill-rule="evenodd" stroke="#000" stroke-miterlimit="2.4142" stroke-width=".36"></path>
						<path d="m11.154,102.22c-1.929,2.413-3.738,4.223-4.824,4.823-1.326.482-3.859-2.169-4.703-2.772-.844-.724-1.446-2.413-1.446-3.377s.24-6.15.119-7.235 1.688-6.633 2.413-7.115c.121,0 .241-.243.482-.482 0,0-4.221,13.145 1.688,15.437 5.547,2.41 6.271.72 6.271.72z" fill="#4d4d4d" fill-rule="evenodd" stroke="#000" stroke-miterlimit="2.4142" stroke-width=".36"></path>
						<path d="m38.892,114.76c1.568-2.773-5.789-7.719-6.513-9.406s-5.064-5.186-4.341-13.507c.724-7.597-7.598-16.162-8.562-16.523" fill="none" stroke="#e6e6e6" stroke-linecap="round" stroke-miterlimit="2.4142" stroke-width="2.16"></path>
					<g fill="none">
							<path d="m39.615,114.4c1.688-2.774-4.944-7.958-5.909-9.647-.845-1.689-4.944-5.548-4.463-13.629 .483-7.354-7.838-15.919-8.924-16.402" stroke="#d2cbc2"></path>
							<path d="m40.46,114.04c1.688-2.773-4.342-8.08-5.428-9.89-.964-1.809-4.824-6.028-4.583-13.748 .121-7.115-8.201-15.68-9.166-16.163" stroke="#c2b3a6"></path>
							<path d="m41.184,113.68c1.808-2.894-3.499-8.2-4.704-10.13-1.207-1.81-4.824-6.513-4.824-13.869-.121-6.754-8.442-15.556-9.527-16.161" stroke="#b29c8c"></path>
							<path d="m41.907,113.31c1.808-2.894-2.774-8.44-4.1-10.25-1.448-1.929-4.705-7.117-5.065-14.11-.241-6.513-8.563-15.315-9.648-16.041" stroke="#a18773"></path>
							<path d="m42.751,112.95c1.809-2.894-2.05-8.563-3.619-10.491s-4.703-7.598-5.186-14.232c-.483-6.271-8.925-15.195-10.01-15.799" stroke="#92745d"></path>
							<path d="m43.474,112.59c1.93-2.895-1.205-8.684-3.014-10.734-1.689-1.93-4.582-8.08-5.307-14.23-.724-6.152-9.166-15.076-10.251-15.799" stroke="#86624c"></path>
							<path d="m44.198,112.23c2.051-2.895-.483-8.925-2.412-10.855-1.809-2.05-4.462-8.563-5.427-14.471-.964-5.789-9.407-14.834-10.613-15.678" stroke="#78523d"></path>
					</g>
						<path d="m45.042,111.86c2.05-2.894.241-9.043-1.81-11.093-2.17-2.171-4.462-9.045-5.789-14.593-1.205-5.548-9.647-14.713-10.732-15.557" fill="none" stroke="#6b432f" stroke-linecap="round" stroke-miterlimit="2.4142" stroke-width="2.16"></path>
					<path d="m40.219,63.264c1.688-4.462 17.728-15.918 26.773-5.789s9.89,9.045 8.442,11.938c-3.016,6.153-43.416,15.438-35.215-6.149z" fill="#6b432f" fill-rule="evenodd"></path>
					<g fill-rule="evenodd">
						<path d="m74.589,69.296c-2.895,5.907-41.728,14.833-33.768-5.91 1.568-4.222 17.006-15.317 25.688-5.549 8.684,9.649 9.527,8.684 8.08,11.459z" fill="#795540"></path>
						<path d="m73.866,69.175c-2.895,5.667-40.16,14.23-32.44-5.667 1.566-4.102 16.28-14.714 24.602-5.428 8.32,9.406 9.165,8.441 7.838,11.095z" fill="#896b55"></path>
						<path d="m73.022,68.932c-2.653,5.428-38.351,13.75-31.115-5.424 1.567-3.86 15.678-13.99 23.638-5.067 7.959,8.925 8.803,8.08 7.477,10.491z" fill="#9b826f"></path>
						<path d="m72.298,68.813c-2.653,5.186-36.783,13.144-29.788-5.188 1.447-3.737 14.954-13.386 22.552-4.824 7.719,8.444 8.442,7.72 7.236,10.012z" fill="#b09d8d"></path>
						<path d="m71.454,68.692c-2.532,4.945-35.094,12.543-28.462-4.945 1.448-3.498 14.353-12.782 21.709-4.702 7.235,8.2 7.959,7.356 6.753,9.647z" fill="#c4bbb2"></path>
					</g>
					<path d="m43.596,63.747c1.808-4.463 15.074-11.217 20.501-4.341 6.513,8.2 7.598,6.995 6.632,9.165-2.411,4.703-33.525,11.939-27.133-4.824z" fill="#d9d9d9" fill-rule="evenodd"></path>
					<path d="m39.978,114.28s1.809-1.083 2.653-1.326c.843-.362 1.809-2.653 1.809-2.292 0,.604-1.085,3.257 1.327.724 2.292-2.652 3.014-2.171 3.979-2.291 .362,0 22.07-2.413 8.925-10.372-4.945-2.893 11.699,1.326 12.905,1.085 1.085-.241 7.115-.844 9.407-6.271 2.17-5.426 2.412-5.667 3.497-5.789s1.447-2.652 1.809-3.739c.241-.963.482-8.078-.845-10.37-1.447-2.171-1.929-4.341-.361-1.93s4.1,10.974 2.895,17.004c0,0 0,1.568.24,2.171 .121.603-.362-.243-.481.603-.121.845-.362,3.378-.965,5.064-.482,1.689-5.789,13.869-11.216,11.939 0,0-3.377-.12-3.86.363 0,0-3.136,1.206-4.824.965s-6.512-.846-11.336.361c0,0-5.789,1.569-7.838,2.413 0,0-5.186,2.292-7.478,2.411-.001.02-3.499,1.23-.242-.7z" fill="#5b3c2b" fill-rule="evenodd"></path>
					<path d="m72.781,108.61s4.944-1.569 6.151-2.532l-.965,1.809s1.93-1.207 2.533-2.532 2.774-4.463 3.739-4.946c.845-.482 1.809-2.05 2.05-3.254 .362-1.326.845-2.896.845-2.896s.362,2.533-.121,3.98c-.604,1.326-1.569,4.1-1.569,4.824-.121.844-1.326,2.895-1.326,2.895l.121-.965s-1.448,1.326-1.568,2.292c-.24.965-.481,2.169-.844,2.532-.361.241-1.929,2.531-3.618,1.688-1.809-.844-2.171-.965-2.653-1.205s-1.931-1.69-2.775-1.69z" fill="#593727" fill-rule="evenodd"></path>
						<path d="m111.37,180.97c19.899,26.895 33.526,34.733 45.226,33.044 11.578-1.689 16.643-18.09 17.97-24.482 .603-2.411 13.748-2.171 36.541,3.617 22.795,5.911 59.094-3.617 66.934-6.391 7.718-2.773 8.563,4.704 11.939,16.643 3.256,11.939 40.883,38.954 40.883,38.954" fill="none" stroke="#e6e6e6" stroke-linecap="round" stroke-miterlimit="2.4142" stroke-width="2.16"></path>
					<g fill="none">
							<path d="m111.13,180.37c20.14,26.531 33.165,34.129 44.863,32.44s17.124-17.969 18.331-24c.604-2.413 13.508-2.652 36.181,3.137 22.793,5.789 59.095-3.74 66.935-6.393 8.2-2.654 9.647,4.462 12.904,16.401 3.374,11.938 40.52,39.557 40.52,39.557" stroke="#d7d0c8"></path>
							<path d="m110.89,179.89c20.381,26.049 32.803,33.286 44.501,31.597s17.608-17.849 18.814-23.395c.482-2.413 13.025-3.258 35.699,2.652 22.793,5.789 59.094-3.98 66.932-6.393 8.563-2.652 10.735,4.341 13.991,16.162 3.374,11.939 39.917,40.281 39.917,40.281" stroke="#c4b8ac"></path>
							<path d="m110.77,179.4c20.502,25.446 32.321,32.562 44.019,30.875s18.09-17.729 19.176-22.794c.482-2.532 12.662-3.859 35.336,1.93 22.793,5.908 59.094-3.98 66.933-6.393 9.048-2.414 11.821,4.219 15.075,16.04 3.377,11.939 39.437,40.883 39.437,40.883" stroke="#b7a393"></path>
							<path d="m110.53,178.8c20.743,25.084 32.08,31.958 43.658,30.269 11.697-1.688 18.572-17.606 19.537-22.311 .603-2.532 12.301-4.343 35.095,1.446 22.673,5.91 58.975-4.22 66.813-6.39 9.406-2.293 12.784,3.859 16.16,15.798 3.257,11.938 38.833,41.607 38.833,41.607" stroke="#a9917d"></path>
							<path d="m110.29,178.2c20.984,24.723 31.718,31.355 43.295,29.668 11.699-1.689 19.055-17.608 20.019-21.83 .482-2.532 11.821-4.824 34.612.965 22.674,5.789 58.855-4.341 66.814-6.393 9.77-2.29 13.869,3.62 17.245,15.559s38.351,42.211 38.351,42.211" stroke="#997d69"></path>
							<path d="m110.05,177.72c21.105,24.24 31.357,30.512 43.054,28.944 11.578-1.687 19.416-17.488 20.26-21.347 .482-2.531 11.459-5.307 34.254.482s58.851-4.583 66.932-6.391c10.131-2.171 14.834,3.378 18.21,15.317 3.258,11.938 37.868,42.933 37.868,42.933" stroke="#8e6f58"></path>
							<path d="m109.93,177.23c21.226,23.638 30.873,29.788 42.572,28.101 11.577-1.689 19.898-17.367 20.621-20.745 .482-2.532 11.096-5.909 33.891-.12 22.794,5.909 58.852-4.583 66.933-6.271 10.612-2.17 15.921,3.137 19.177,15.076 3.377,11.938 37.505,43.657 37.505,43.657" stroke="#825f48"></path>
							<path d="m109.68,176.63c21.467,23.155 30.513,29.188 42.21,27.499s20.381-17.367 20.984-20.262c.604-2.411 10.854-6.39 33.526-.602 22.795,5.908 58.854-4.824 66.935-6.392 10.976-2.05 17.006,3.015 20.38,14.954 3.259,11.938 36.785,44.259 36.785,44.259" stroke="#75503b"></path>
					</g>
						<path d="m109.56,176.03c21.588,22.791 30.03,28.582 41.729,26.893s20.863-17.245 21.346-19.777c.604-2.413 10.492-6.875 33.166-1.086 22.793,5.91 58.731-4.946 66.934-6.392 11.335-1.93 18.091,2.774 21.347,14.713 3.377,11.939 36.421,44.985 36.421,44.985" fill="none" stroke="#6b432f" stroke-linecap="round" stroke-miterlimit="2.4142" stroke-width="2.16"></path>
					<path d="m80.378,9.597c0-1.567.362-5.667.724-7.115 .362-1.326 3.618,3.98 8.201,13.747s3.135,17.489 3.015,20.021c-.121,2.413-5.668,10.854-7.235,12.061-1.568,1.085-3.499-1.689-3.499-1.689-.844-3.496-1.206-35.578-1.206-37.025z" fill="#6b432f" fill-rule="evenodd"></path>
					<g fill-rule="evenodd">
						<path d="m80.74,10.684c0-1.448 0-6.515.483-7.841 .361-1.326 3.739,4.826 7.959,14.232 4.342,9.285 3.135,16.643 2.894,18.934-.121,2.413-5.547,10.854-6.994,11.94s-3.136-1.69-3.136-1.69c-.964-3.255-1.206-34.129-1.206-35.575z" fill="#86624c"></path>
						<path d="m80.982,11.888c0-1.326 0-7.476.362-8.683s3.859,5.67 7.839,14.594c3.98,8.925 2.894,15.799 2.773,17.969-.121,2.291-5.427,10.854-6.753,11.819-1.448.965-2.896-1.568-2.896-1.568-.843-3.137-1.325-32.803-1.325-34.131z" fill="#a18773"></path>
						<path d="m81.344,12.975c0-1.206-.241-8.202.121-9.406 .361-1.208 4.1,6.389 7.718,15.073 3.497,8.443 2.773,14.956 2.653,17.004-.12,2.173-5.306,10.613-6.632,11.578s-2.654-1.446-2.654-1.446c-.844-3.015-1.206-31.477-1.206-32.803z" fill="#c2b3a6"></path>
					</g>
					<path d="m81.584,14.181c0-1.207-.24-9.167 0-10.251 .363-1.087 4.222,7.236 7.599,15.558 3.256,7.959 2.533,13.989 2.412,16.039-.12,1.93-5.065,10.493-6.271,11.458-1.206.844-2.412-1.448-2.412-1.448-.724-2.774-1.328-30.151-1.328-31.356z" fill="#e6e6e6" fill-rule="evenodd"></path>
					<path d="m86.65,42.039s-1.688,2.532-2.05,2.413-.241-1.57-.241-1.57l-.965,1.57 .121-2.052-.241.122 1.447-5.306-.965-.122s0-5.789-.241-7.237-1.326-4.341-1.207-5.063c.122-.846.724-1.569.724-1.569l-.602.363s-.845-6.152-.241-6.754c.723-.604 1.085-3.618 1.085-4.824-.121-1.207-.604-3.861.241-1.326 .724,2.411 1.448,5.909.844,7.839-.482,1.93.121,7.115.724,7.115 .603-.121 1.567-2.413 1.567-2.413v2.774l-.603.361 .482.122-.724,1.447 .603-.241s-.724,2.413-.482,3.98c.362,1.689.965,4.824.603,6.271-.241,1.568-.482,3.013.604,2.652 1.205-.361 0,.361-.483,1.448z" fill="#999" fill-rule="evenodd"></path>
						<path d="m78.69,27.929s1.085-24.842 2.05-26.171c.724-.843 1.689,1.085 2.17,1.689 .362.722 7.959,12.543 10.373,22.19" fill="none" stroke="#6b432f" stroke-linecap="round" stroke-miterlimit="2.4142" stroke-width=".72"></path>
					<g fill="none">
							<path d="m78.69,26.724s.603-17.61 1.567-23.277c.241-1.087.482-1.689.724-1.809 .241-.241.602-.122.965.241s.723,1.084.843,1.445c.724.844 7.96,12.183 10.373,21.708" stroke="#603c2a"></path>
							<path d="m78.69,25.637s.603-17.728 1.567-22.673c.363-.964.604-1.447.846-1.447 .362-.119.603,0 .844.363 .361.361.723.963.843,1.207 .724,1.204 7.84,12.06 10.131,21.344" stroke="#573726"></path>
							<path d="m78.69,24.551s.482-17.848 1.688-22.069c.362-.965.604-1.207.965-.965 .24-.119.481,0 .723.363 .241.241.603.724.724,1.084 .845,1.326 7.719,11.699 10.01,20.865" stroke="#4d3021"></path>
							<path d="m78.69,23.346s.482-17.85 1.688-21.347c.362-.843.724-.965 1.086-.602 .241,0 .482.119.724.482 .241.241.481.602.602.963 1.086,1.448 7.599,11.338 9.89,20.382" stroke="#41291d"></path>
							<path d="m78.569,22.261s.483-17.971 1.809-20.864c.362-.604.845-.483 1.206-.122 .241.122.482.241.724.482 .121.243.361.603.482.847 1.207,1.809 7.478,11.095 9.769,20.019" stroke="#372218"></path>
							<path d="m78.569,21.175s.362-18.088 1.809-20.26c.483-.604 1.086-.241 1.447.242 .241.119.363.36.482.602 .122.122.362.483.482.724 1.327,1.93 7.237,10.734 9.648,19.536" stroke="#2e1d14"></path>
					</g>
						<path d="m78.569,19.97s.362-18.09 1.809-19.538c.845-.724 1.688.724 2.051,1.326 .481.724 7.236,10.011 9.889,19.538" fill="none" stroke="#241610" stroke-linecap="round" stroke-miterlimit="2.4142" stroke-width=".72"></path>
						<path d="m93.645,27.446s-.603-8.441-5.548-16.763c-4.824-8.202-6.994-11.821-7.718-10.493 0,0-2.412.12-1.809,28.462" fill="none" stroke="#000" stroke-linecap="round" stroke-miterlimit="2.4142" stroke-width=".36"></path>
						<path d="m109.08,79.788s25.326,62.109 62.23,31.355" fill="none" stroke="#6b432f" stroke-linecap="round" stroke-miterlimit="2.4142" stroke-width="10.728"></path>
						<path d="m110.05,80.51s23.758,56.321 59.818,30.392" fill="none" stroke="#67432e" stroke-linecap="round" stroke-miterlimit="2.4142" stroke-width="9.504"></path>
						<path d="m111.13,81.235s22.07,50.411 57.405,29.547" fill="none" stroke="#66422d" stroke-linecap="round" stroke-miterlimit="2.4142" stroke-width="8.28"></path>
						<path d="m112.1,82.079s20.5,44.381 54.994,28.46" fill="none" stroke="#62412d" stroke-linecap="round" stroke-miterlimit="2.4142" stroke-width="7.056"></path>
						<path d="m113.06,82.803s18.935,38.592 52.704,27.616" fill="none" stroke="#5f402c" stroke-linecap="round" stroke-miterlimit="2.4142" stroke-width="5.832"></path>
						<path d="m114.03,83.525s17.366,32.683 50.291,26.653" fill="none" stroke="#5c402c" stroke-linecap="round" stroke-miterlimit="2.4142" stroke-width="4.608"></path>
						<path d="m114.99,84.25s15.798,26.771 47.999,25.686" fill="none" stroke="#5b3f2b" stroke-linecap="round" stroke-miterlimit="2.4142" stroke-width="3.384"></path>
						<path d="m166.12,104.39c-8.925,2.291-13.748-1.809-24.603-7.115-10.733-5.306-39.074-33.527-40.762-35.818-1.689-2.172-11.336-8.321-11.336-8.321" fill="none" stroke="#8e734c" stroke-linecap="round" stroke-miterlimit="2.4142" stroke-width="1.8"></path>
					<g fill="none">
							<path d="m166.12,104.39c-8.925,2.172-14.35-1.689-23.999-6.392-10.733-5.186-36.18-29.667-38.471-32.803-3.015-3.979-14.352-12.06-14.352-12.06" stroke="#866a45"></path>
							<path d="m166.25,104.39c-9.046,2.052-15.075-1.567-23.638-5.667-10.733-5.187-33.045-25.81-36.06-29.79-4.22-5.667-17.246-15.919-17.246-15.919" stroke="#836242"></path>
							<path d="m166.37,104.39c-9.166,1.93-15.798-1.446-23.275-4.944-10.612-5.064-30.03-21.83-33.648-26.773-5.667-7.358-20.26-19.66-20.26-19.66" stroke="#7c593c"></path>
							<path d="m166.37,104.39c-9.166,1.809-16.521-1.206-22.792-4.22-10.494-5.066-27.015-17.971-31.356-23.759-6.753-9.165-23.035-23.516-23.035-23.516" stroke="#755137"></path>
							<path d="m166.49,104.39c-9.287,1.689-17.246-1.085-22.312-3.498-10.372-4.945-23.999-13.989-29.064-20.743-8.081-10.853-25.929-27.375-25.929-27.375" stroke="#714a33"></path>
					</g>
						<path d="m166.61,104.39c-9.408,1.569-18.091-.844-21.95-2.772-10.372-4.945-20.983-10.131-26.652-17.729-9.41-12.547-28.948-31.118-28.948-31.118" fill="none" stroke="#6b432f" stroke-linecap="round" stroke-miterlimit="2.4142" stroke-width="1.8"></path>
					<path d="m65.545,66.762s.482-.482-.482-.844-3.618-3.258-6.271-3.619c-2.773-.361-4.824.844-6.151,1.448s.121.604.965.122c.965-.361.482.843-.362,1.205-.844.241-5.547,2.293-4.704,4.341 0-.001 5.547-7.116 17.005-2.653z" fill="#b3b3b3" fill-rule="evenodd"></path>
					<path d="m64.941,66.401s-3.497-1.689-4.461-2.654c-.965-.844-3.257-.844-4.101-.24-.724.481-3.619,2.29-4.583,2.531s-3.739,2.654-3.498,3.619c.24.965.844,2.169 1.688.482s2.292-3.619 3.376-2.895c1.086.724 5.307,3.134 9.287.965 0,0 1.809-.361 2.653-.361 .725.001 1.086-1.327-.361-1.447z" fill="#1a1a1a" fill-rule="evenodd"></path>
						<path d="m59.997,64.229c2.291,1.568 3.256,3.137-.121,4.102-4.1,1.205.121-4.102.121-4.102z" fill="#e5d0db" fill-rule="evenodd" stroke="#000" stroke-linecap="round" stroke-miterlimit="2.4142" stroke-width=".072"></path>
						<path d="m56.981,63.988s-3.618,1.93-3.256,2.292c.483.482 2.413,1.448 3.256,1.93 .846.361 0-4.222 0-4.222z" fill="#e5d0db" fill-rule="evenodd" stroke="#000" stroke-linecap="round" stroke-miterlimit="2.4142" stroke-width=".072"></path>
						<path d="m55.776,66.521c-.362-1.809 1.447-3.618 4.1-2.533 0,0 .965,1.085.965,2.171-.241,2.533-4.582,3.137-5.065.362z" fill="#473629" fill-rule="evenodd" stroke="#000" stroke-linecap="round" stroke-miterlimit="2.4142" stroke-width=".072"></path>
					<path d="m59.515,65.194c-.724.242-1.448.12-2.533.603-.723.362-.964.965-.361,1.206 .602.12 2.412,0 3.255-.482 .845-.724.121-1.568-.361-1.327z" fill-rule="evenodd"></path>
					<path d="m59.394,64.591c.845,0 1.327,1.207.241,1.328-1.085-.001-.844-1.328-.241-1.328z" fill="#e6e6e6" fill-rule="evenodd"></path>
					<path d="m85.806,49.276s-2.292,1.084-4.703-.724c0,0 2.773,2.17 4.703.724z" fill="#593727" fill-rule="evenodd"></path>
					<path d="m86.529,50.239s-.482,2.291-5.306-.12c0,0 5.548,3.137 5.306.12z" fill="#593727" fill-rule="evenodd"></path>
					<path d="m5.004,87.264c0-2.531 1.084-3.013 1.929-3.739 .844-.722 1.206-1.809 3.014-.844 1.689.965 3.135.724 2.775,2.652-.483,1.93-1.568,5.671-4.463,6.754-2.895,1.087-3.014-.361-3.014-.965 0-.483.12,0 .843,0 .845,0 1.447.604 1.447-1.083s-.723-3.86-1.206-3.619c-.601.361-1.325,1.689-1.325.844z" fill="#ccc" fill-rule="evenodd"></path>
					<path d="m16.822,86.059s-1.327,1.205-1.567,2.652c-.121,1.328-1.93,3.619-3.618,4.1-1.567.363 1.327.241 2.773-.964 1.568-1.208 1.448-3.136 2.412-3.86s1.93-3.617 0-1.928z" fill="#ccc" fill-rule="evenodd"></path>
					<path d="m8.5,83.044c1.447-.724 3.618,1.689 3.618,1.689 .241,2.894-3.135,6.752-3.497,6.872s-1.93,1.087-.845-.12c1.207-1.328-1.085-6.392-1.085-6.392-.241-.482.483-1.325 1.809-2.049z" fill="#ccc" fill-rule="evenodd"></path>
					<g fill-rule="evenodd">
						<path d="m6.933,85.094c-.241-.361.482-1.206 1.809-1.93 1.205-.724 3.376,1.569 3.376,1.569 .241,2.772-2.894,6.39-3.256,6.511-.362.361-1.93,1.207-.845-.122 .966-1.204-1.084-6.028-1.084-6.028z" fill="#bababa"></path>
						<path d="m7.174,85.094c-.241-.361.361-1.086 1.688-1.809 1.206-.724 3.256,1.448 3.256,1.448 .241,2.772-2.653,6.15-3.015,6.271-.482.481-1.81,1.326-.845-.243 .846-1.204-1.084-5.667-1.084-5.667z" fill="#ababab"></path>
						<path d="m7.416,85.094c-.121-.361.482-1.086 1.568-1.809 1.205-.604 3.135,1.566 3.135,1.566 .121,2.413-2.532,5.671-2.773,5.911-.482.604-1.688,1.326-.965-.24 .723-1.209-.965-5.428-.965-5.428z" fill="#999"></path>
						<path d="m7.657,85.094c-.121-.361.482-1.086 1.568-1.689s2.894,1.446 2.894,1.446c.121,2.293-2.291,5.428-2.532,5.549-.603.844-1.568,1.447-.965-.243 .603-1.204-.965-5.063-.965-5.063z" fill="#878787"></path>
						<path d="m8.018,85.094c-.241-.361.241-.965 1.327-1.569 1.084-.603 2.773,1.326 2.773,1.326 .121,2.173-2.05,5.188-2.291,5.306-.724.965-1.568,1.448-.965-.361 .363-1.085-.844-4.702-.844-4.702z" fill="#787878"></path>
					</g>
					<path d="m9.466,83.646c1.086-.482 2.653,1.205 2.653,1.205 .121,2.052-1.808,4.825-1.93,5.067-.843,1.086-1.567,1.567-1.084-.361 .241-1.206-.845-4.463-.845-4.463-.121-.361.362-.965 1.206-1.448z" fill="#666" fill-rule="evenodd"></path>
						<path d="m2.833,87.144s-1.568,2.413-1.809,4.704c-.241,2.411-.604,6.874-.121,10.13 .121,1.085 3.979,6.754 7.477,3.015" fill="none" stroke="#4d4d4d" stroke-linecap="round" stroke-miterlimit="2.4142" stroke-width="1.08"></path>
					<g fill="none">
							<path d="m3.436,86.298s-1.689,2.654-2.05,4.946c-.241,2.413-.603,7.356 0,10.491 .482,1.208 4.221,6.151 7.478,2.775" stroke="#5e5e5e"></path>
							<path d="m4.159,85.455s-2.171,2.896-2.413,5.307c-.241,2.291-.723,7.719.241,10.734 .604,1.326 4.342,5.545 7.237,2.532" stroke="#737373"></path>
							<path d="m4.882,84.611s-2.412,3.257-2.774,5.546c-.241,2.413-.723,8.202.362,10.977 .965,1.566 4.463,5.185 7.237,2.411" stroke="#858585"></path>
							<path d="m5.486,83.768s-2.654,3.496-3.016,5.789c-.241,2.411-.844,8.563.604,11.335 1.207,1.688 4.583,4.584 6.995,2.052" stroke="#999"></path>
							<path d="m6.209,82.922s-3.015,3.859-3.256,6.152c-.362,2.411-1.086,8.923.603,11.578 1.567,1.687 4.824,3.979 6.996,1.809" stroke="#adadad"></path>
							<path d="m6.813,82.079s-3.256,4.1-3.498,6.391c-.241,2.413-1.086,9.406.724,11.819 1.929,1.929 5.065,3.498 6.874,1.689" stroke="#bfbfbf"></path>
							<path d="m7.536,81.235s-3.618,4.341-3.859,6.752c-.241,2.292-1.207,9.769.964,12.061 2.051,2.052 5.066,2.896 6.754,1.326" stroke="#d1d1d1"></path>
					</g>
						<path d="m8.259,80.51s-3.858,4.584-4.221,6.875c-.241,2.411-1.206,10.13 1.207,12.421 2.291,2.171 5.185,2.293 6.632,1.085" fill="none" stroke="#e6e6e6" stroke-linecap="round" stroke-miterlimit="2.4142" stroke-width="1.08"></path>
						<path d="m12.36,100.53c-.241.121-1.206,1.687-1.206,1.687-1.929,2.413-3.738,4.223-4.824,4.823-1.326.482-3.859-2.169-4.703-2.772-.844-.724-1.446-2.413-1.446-3.377s.24-6.15.119-7.235c-.119-.965 1.086-4.826 1.93-6.513 0,0 .965-1.207 1.207-1.328s4.1-5.426 4.1-5.426" fill="none" stroke="#000" stroke-miterlimit="2.4142" stroke-width=".36"></path>
					<path d="m18.149,116.45s2.412-.361 3.256-1.084c1.085-.604 6.15-4.222 6.633-3.98 .603.12.482.963-1.085,1.446 0,0-1.81.482-2.774,1.448-1.084,1.087-3.136,2.05-3.738,2.171-.603.241-.724,1.207-.241,1.448s2.533-.241 1.809.241-2.05.482-2.171.363c-.241-.122-.724-1.087-.724-1.087s-.242-.85-.965-.97z" fill="#ccc" fill-rule="evenodd"></path>
					<path d="m36.962,115.73s1.327-1.688 1.447-2.896c.122-1.083-.12.365-.482.604-.483.241-.723,1.567-1.206.843s-1.326-1.205-1.207-1.809 0-2.652.604-3.256-.121-.603-.362,0-1.568,2.292-.965,3.5-.603,3.859-.723,5.063c-.241,1.086-1.085,3.858-2.171,4.221-1.085.482-.12.602.363.363 .482-.363 2.17-1.086 2.653-2.895 0,0 .12-3.137.603-3.257 .482.03 1.326-.21 1.446-.45z" fill="#ccc" fill-rule="evenodd"></path>
					<path d="m60.962,61.697s-3.016-1.93-6.03-.482c0,0 .482-.724 1.085-.724 .483,0 3.015-.964 4.945,1.206z" fill="#b3b3b3" fill-rule="evenodd"></path>
					<path d="m60.48,69.777s-3.377.724-4.704.119c0,0 2.774,1.087 4.704-.119z" fill="#b3b3b3" fill-rule="evenodd"></path>
					<path d="m49.987,88.351s.603,3.135 2.532,4.702c1.93,1.689-.845,0-3.858.363-3.136.241-4.463,2.774-4.463,1.93s3.619-2.534 3.86-3.378 .603-5.548 1.929-3.617z" fill="#5b3c2b" fill-rule="evenodd"></path>
					<path d="m172.64,185.92s.362-6.391-.845-7.476c-1.084-1.085-3.256-9.406-3.858-8.322-.603,1.087-1.085,4.463.242,5.911 1.446,1.326 1.688,4.702 1.688,4.702l-.845-.36s1.086,2.291 1.086,4.46c-.01,2.29-1.09,11.09 2.53,1.09z" fill="#5b3c2b" fill-rule="evenodd"></path>
					<path d="m285.28,180.01s.479-3.979 0-4.221c-.604-.24-1.327.243-1.327.243l-.121-1.93s-3.378-7.717-4.101-6.995c-.725.604-1.447-2.05-2.173-1.809-.601,0-6.993-5.789-5.787-3.739 1.204,1.93 4.704,4.222 5.547,5.789s3.377,3.739 3.136,5.909c0,2.05 1.086,4.341 1.448,4.223 .48-.12 3.37,8.93 3.37,2.54z" fill="#5b3c2b" fill-rule="evenodd"></path>
					<path d="m130.07,204.97s2.772,8.439 4.582,9.647c0,0 1.568,5.789 1.81,7.598s1.568,8.321 1.205,9.889l.724-1.931s1.448,10.493 1.207,13.025c-.121,2.652.362,4.824.362,4.824l.843-1.328s-.119,8.806 0,11.217c.122,2.532.363,11.938 0,13.025-.482.844-1.205,4.824-1.205,5.307 0,.602.723-.482.723-.482s0,2.654.363,3.619c.241.965.482-.604.482-.604s1.567,4.341 1.205,7.115c-.241,2.774 1.207,3.376.844,5.307-.241,1.93-1.688,11.337-3.255,13.508-1.688,2.291-1.929,3.737-1.688,5.185 .241,1.328.241,2.05-.122,2.413-.482.483-.843.363-1.567,0-.604-.482.843-1.93.603-3.135-.362-1.208.723-4.343.362-6.032-.241-1.929.482-2.774.843-3.979s.724-18.452.363-20.503c-.482-2.05.361-4.945.481-5.667s.362-10.854-.241-13.506c-.723-2.655-.723-23.399-1.086-24.121-.482-.724-3.015-11.217-3.98-13.145v3.254s-.964-3.376-2.412-4.943c-1.568-1.567 0,1.809 0,1.809s-1.446-1.809-1.929-3.015c-.363-1.326-1.447-3.98-2.412-5.185-.965-1.207-1.206-3.498-2.412-3.859 0,0 2.772,1.205 3.255,2.652 .362,1.326 1.327,2.773 1.327,2.773l.241-1.447s1.567,0 2.772,2.292c1.086,2.413 2.775,3.256 2.051,1.689-.724-1.448.121-2.896-.844-3.739-.91-.72-2.84-6.26-3.44-9.52z" fill="#bfbfbf" fill-rule="evenodd"></path>
					<path d="m170.71,216.79 .844-4.583 .603.724s.12-2.413.12-3.617c0-1.328 1.207-7.478.604-8.804-.724-1.208 1.205.722 1.205.722s-1.08-2.89-1.08-4.7 1.326.241 1.93,1.327c.482,1.206.965,11.818 2.051,14.229 1.085,2.291 2.773,5.911 1.446,5.187-1.446-.724-1.085,0-1.085.12 0,.241-.844,0-1.688-.602-.844-.725-1.569-.966-1.327-.482 0,.362.483,1.084-.844.965-1.327-.241-1.086-.482-1.448-.603-.48-.13-1.32.11-1.32.11z" fill="#bfbfbf" fill-rule="evenodd"></path>
					<path d="m278.4,188.45s6.272,2.774 7.115,6.272c.846,3.497 1.689,8.561 1.087,11.095-.604,2.411.722,10.13.966,11.215l.36-1.568s1.687,6.874 3.015,8.683c1.207,1.809 3.137,3.015 3.137,4.102l-.242-2.05s2.654,3.134 2.773,4.341c.122,1.085 8.442,9.043 9.647,10.613 1.328,1.567-.36-1.569-.36-1.569s2.05,2.292 2.773,3.5c.724,1.326 3.86,5.667 5.064,6.874 1.087,1.085 5.79,6.271 6.392,8.441 0,0-1.326-.24-1.446,1.809v5.306s-.603.965-.845,1.93c-.24.603-.482,4.1-.482,4.1s-1.083.965-1.083,2.413c0,1.326-.244,3.135-.244,3.135s-1.084.846-1.084,2.411c0,1.448 0,6.271-.12,6.634-.243.363-.724.241-.724.241s-.724-5.065-.724-6.511c0-1.328-.966.722-.966.722s.122-4.341 1.326-6.511c1.087-2.293.241-2.654-.36-1.93-.482.722-1.326,1.687-1.326,1.687s.119-3.134.963-4.34c.846-1.205 1.328-7.719.363-6.394-.966,1.448-.363-9.165-1.087-6.511s-.482,3.257-.482,3.257-.239-6.15-1.688-7.115c-1.566-.965-3.256-5.067-3.256-5.067v1.328s-3.98-6.634-5.307-7.117c-1.206-.601-2.532-1.929-2.293-.965s-.844-.963-1.688-2.771-4.101-6.15-3.979-5.187c.118,1.087.723,1.809.723,1.809s-2.051-2.411-3.016-4.824c-.963-2.292-3.015-6.513-3.98-7.235-.963-.604-2.047-6.151-2.41-4.826-.241,1.448-.12,2.774-.12,2.774s-.726-3.858-.726-4.824c0-.965-.601-5.427-1.084-4.582-.361.843-.361,2.05-.361,2.05s-.482-3.739-.846-4.461c-.482-.604-.603-3.378-1.567-3.136s-1.327.965-1.327.965-1.206-.965-1.688.12c-.603,1.087-4.461,2.171-4.461,2.171l.966-1.084s-2.654.722-3.619,1.93-3.137.963-3.137.963 2.171-.846 3.982-2.774 7.475-4.461 8.439-4.943c1.086-.604 5.429-3.259 5.308-4.342-.1-1.1 1.7-5.68-6.26-10.26z" fill="#bfbfbf" fill-rule="evenodd"></path>
					<path d="m337.98,265.39s1.928-4.222 1.082-5.307c-.843-1.084-1.687-2.776-1.687-2.776l1.087-.239s-6.031-4.22-6.876-5.067c-.845-.844 3.016,3.378 4.101,5.067 1.206,1.567 1.928,3.015 1.928,3.015l-2.17-.846c.01.01 2.78,2.79 2.54,6.16z" fill="#bfbfbf" fill-rule="evenodd"></path>
					<path d="m319.77,309.17s1.93-1.086 3.378-.845c1.325.363 2.651-.363 2.651-.363l.241.482-.119-1.809-1.087.122s.604-.844.965-2.291c.241-1.328-.965-1.085-1.809-.241s.603-1.57 1.448-1.931c.843-.482 0-2.774-.846-1.93-.844,1.086-1.207,1.691-1.207,1.691s.604-3.137.966-3.258c.482-.12-.12-4.222-.361-5.065 0,0 0,4.222-.843,5.307s-1.569,2.774-1.327,3.256c.361.361.723.483.482,1.086-.242.481-2.051,3.016-.725,4.22 0,0-1.08,1.33-1.81,1.57z" fill="#bfbfbf" fill-rule="evenodd"></path>
					<path d="m313.86,311.1-.122-1.085s-.241,2.05-1.204,2.533c-.965.36-1.93,1.206-1.569.604 .243-.482-.239-1.087-.239-1.087s-.604,1.809-1.208,2.291c-.482.363-1.688.483-1.688.483s-1.569.844-2.052,1.689c-.601.843-1.688,2.651-2.531,2.651 0,0 2.291.724 3.014.363 .604-.241 1.328-2.171 2.535-2.171 0,0 .965.122.843.482 0,0 2.17-2.05 2.413-2.533 .239-.602.963-1.689.963-1.689s.85-.59.85-2.52z" fill="#bfbfbf" fill-rule="evenodd"></path>
					<path d="m337.26,312.55s-1.566,3.737-2.169,4.1c-.724.483-.845-.482-1.569.12-.723.726-2.531,1.691-3.737,1.811s-3.858,2.291-3.858,2.291 3.376-.724 4.582-.604 3.618,0 3.979-.722c.37-.61 3.14-5.92 2.78-7z" fill="#bfbfbf" fill-rule="evenodd"></path>
					<path d="m296.01,305.55s1.688-.724 2.41-.602c.726.12 2.291-.241 2.413.239s-1.809.965-1.809.965 2.773-.361 3.015-.602 1.326-.965 1.928-.482 .244.965.244.965 .723-.363.36-.965-.965-1.207-.604-1.448-.239-1.205-.722-1.205c-.362,0-2.052-.604-1.447-1.086s1.687-.965.241-1.809-.724-1.084-.482-1.445c.241-.483.602-1.931.482-2.535-.241-.482-.724-4.341-.724-4.341s-.482,6.393-.965,7.115c-.483.846-1.567,2.533-1.567,2.776 0,.361.48,0 .48.361 0,.23-2.53,3.61-3.26,4.09z" fill="#bfbfbf" fill-rule="evenodd"></path>
					<path d="m158.29,265.39s-.723,3.378-1.446,4.1c-.604.724-.604,3.015-1.086,2.654-.603-.363-.844-1.568-.844-1.568s-.604,2.05-.965,2.772c-.482.726-1.206,1.931-1.086.604 .121-1.448-.724-.122-.843.24s-1.448,2.775-1.448,2.775 1.207-.724 1.689-1.206c.602-.604 1.205.361 2.048-.604 .846-.965 1.086,1.569 1.568,1.087 .604-.361 1.207-1.087 1.207-1.688 0-.726.241-2.052 0-3.258-.122-1.205 1.084-1.93 1.084-1.93s.61-1.44.13-3.97z" fill="#bfbfbf" fill-rule="evenodd"></path>
					<path d="m141.16,271.42s.36,4.462.964,4.824c.604.482.604-1.207.604-1.207s.12,1.448.723,2.652c.482,1.208 1.327,1.809 1.327,3.257 0,1.569.724-.24.724-.24s0,5.789-1.688,8.561-.966-1.326-.966-2.532c0-1.327 0-4.583-.241-5.546-.361-1.086-1.086-3.377-1.086-3.377l-.602.724v-3.498l-.604.241 .86-3.84z" fill="#d9d9d9" fill-rule="evenodd"></path>
					<path d="m154.91,313.99s.241-.843-.362-1.206c-.723-.483-.844.843-1.085.241-.121-.482-.724-2.896-.845-2.291-.241.482-.36,2.413-1.084,2.773-.604.241-1.086-.724-1.207,0s.121,3.498-.482,3.859c-.724.482-.845,3.739.482,3.98 1.448.361 1.567,1.567 2.05.844 .604-.724.965-2.774.724-3.617 0,0 1.447-1.567 1.568-2.172 .12-.59.24-2.4.24-2.4z" fill="#bfbfbf" fill-rule="evenodd"></path>
						<path d="m137.3,314.6s2.17-3.375.724-3.375c-1.568,0-2.051-.363-2.533-.482-.603-.122.121.843.121.843s-1.207-.482-1.568-.965c-.241-.602-1.689-.482-1.567,0 .119.361 0,.844 0,.844s-.965-.722-1.207-1.204c-.121-.363-1.447-.483-1.688.36-.363.844-1.929.242-1.929.242l-.242-1.085-.845.602s-.361-.482 0-.965c.482-.361-1.085.482-1.085.482s.241-.965.845-1.205-4.583,1.928-5.428,3.859c-1.086,2.411-3.136,7.838-3.136,9.286 0,1.327-1.205,3.257 3.98,4.341 5.065.844 4.704,1.205 5.065.241 3.98-9.045 6.874-8.563 7.477-10.01 .49-1.58-.24-.86 3.02-1.82z" fill="#666" fill-rule="evenodd" stroke="#000" stroke-miterlimit="2.4142" stroke-width=".36"></path>
						<path d="m151.05,322.19s-1.568-3.617-3.137-3.617c-1.446,0-3.376-.242-3.979-.363-.482-.12.122.846.122.846s-1.207-.482-1.448-.965c-.361-.602-1.81-.482-1.688,0 .119.363 0,.843 0,.843s-.965-.724-1.086-1.084c-.241-.482-1.567-.604-1.809.241-.363.843-1.81.241-1.81.241l-.241-1.087-.844.604s-.482-.482 0-.843c.362-.482-1.207.361-1.207.361s.362-.965.845-1.207-3.618.846-4.461,2.773c-.965,2.413-4.342,8.563-4.342,10.011 0,1.326-.845,3.62 4.22,4.702 5.187.965 13.507.122 14.472-.239 .964-.243 3.256-3.739 3.859-5.187 .61-1.55-.72-5.05 2.54-6.02z" fill="#666" fill-rule="evenodd" stroke="#000" stroke-miterlimit="2.4142" stroke-width=".36"></path>
					<path d="m150.81,322.19s-1.568.604-1.81,1.326c-.241.845-.482,1.569-.482,1.569s.121-3.137 0-3.619 .241-1.929.482-1.929 1.57,2.05 1.81,2.65z" fill="#595959" fill-rule="evenodd"></path>
						<path d="m332.31,320.75s-1.448-3.254-3.015-3.254c-1.446,0-3.376-.244-3.98-.363-.482-.12.122.724.122.724s-1.207-.361-1.448-.843c-.241-.604-1.809-.482-1.688,0 .118.361 0,.843 0,.843s-.965-.724-1.086-1.207c-.241-.363-1.568-.482-1.81.363-.361.843-1.809.239-1.809.239l-.242-1.084-.845.602s-.482-.482 0-.963c.362-.363-1.204.48-1.204.48s.361-.963.844-1.205-3.497,1.326-4.343,3.256c-.239.724-2.291,4.583-3.376,8.2-.482,1.326-3.015,5.789 2.05,6.753 8.925,1.689 9.287.844 15.558-.965 .963-.239 3.257-3.737 3.858-5.306 .61-1.44-.23-5.06 2.42-6.26z" fill="#666" fill-rule="evenodd" stroke="#000" stroke-miterlimit="2.4142" stroke-width=".36"></path>
						<path d="m308.56,317.85s-1.448-4.222-2.895-4.222-3.259-.241-3.86-.361c-.482-.12.241.843.241.843s-1.328-.482-1.447-.963c-.363-.482-1.809-.363-1.689,0 .243.48 0,.843 0,.843s-.843-.724-1.085-1.087c0-.36-1.325-.602-1.688.244-.239.843-1.688.239-1.688.239l-.243-1.085-.843.724s-.362-.482 0-.965c.482-.361-1.086.483-1.086.483s.363-.965.846-1.207-3.5,1.567-4.343,3.378c-.966,2.411-4.1,6.994-4.1,8.319 0,1.208-2.171,4.584 2.651,5.428 4.945.965 13.147.121 13.991-.122 .965-.24 4.101-1.565 4.943-5.546 .25-1.44-.48-3.25 2.3-4.94z" fill="#666" fill-rule="evenodd" stroke="#000" stroke-miterlimit="2.4142" stroke-width=".36"></path>
						<path d="m320.61,318.58s-3.738,11.095-4.339,15.073" fill="none" stroke="#666" stroke-linecap="round" stroke-miterlimit="2.4142" stroke-width="1.08"></path>
						<path d="m315.43,318.21s-4.463,10.13-5.067,13.991" fill="none" stroke="#666" stroke-linecap="round" stroke-miterlimit="2.4142" stroke-width="1.08"></path>
					<g fill="none">
							<path d="m319.89,318.7s-3.86,10.856-4.343,14.715" stroke="#737373"></path>
							<path d="m319.17,318.7s-3.858,10.735-4.462,14.593" stroke="#7f7f7f"></path>
							<path d="m318.44,318.82s-3.98,10.491-4.582,14.35" stroke="#8c8c8c"></path>
					</g>
					<g fill="none">
							<path d="m316.03,318.46s-4.46,10.129-4.942,13.988" stroke="#737373"></path>
							<path d="m316.64,318.58s-4.343,10.13-4.825,13.991" stroke="#7f7f7f"></path>
							<path d="m317.12,318.7s-4.102,10.252-4.704,14.11" stroke="#8c8c8c"></path>
					</g>
						<path d="m317.72,318.94s-3.98,10.252-4.582,14.113" fill="none" stroke="#999" stroke-linecap="round" stroke-miterlimit="2.4142" stroke-width="1.08"></path>
						<path d="m296.37,314.72s-4.101,10.008-4.703,13.748" fill="none" stroke="#666" stroke-linecap="round" stroke-miterlimit="2.4142" stroke-width="1.08"></path>
						<path d="m291.79,314.11s-5.064,9.649-5.547,13.387" fill="none" stroke="#666" stroke-linecap="round" stroke-miterlimit="2.4142" stroke-width="1.08"></path>
					<g fill="none">
							<path d="m295.77,314.72s-4.222,9.889-4.824,13.626" stroke="#737373"></path>
							<path d="m295.05,314.72s-4.22,9.889-4.824,13.626" stroke="#7f7f7f"></path>
							<path d="m294.44,314.72s-4.344,9.767-4.943,13.506" stroke="#8c8c8c"></path>
					</g>
					<g fill="none">
							<path d="m292.27,314.24s-4.823,9.768-5.428,13.387" stroke="#737373"></path>
							<path d="m292.88,314.36s-4.822,9.77-5.427,13.507" stroke="#7f7f7f"></path>
							<path d="m293.36,314.6s-4.583,9.649-5.305,13.387" stroke="#8c8c8c"></path>
					</g>
						<path d="m293.84,314.72s-4.462,9.647-5.065,13.386" fill="none" stroke="#999" stroke-linecap="round" stroke-miterlimit="2.4142" stroke-width="1.08"></path>
						<path d="m133.68,333.17c.482-3.737 4.102-13.265 4.102-13.265" fill="none" stroke="#666" stroke-linecap="round" stroke-miterlimit="2.4142" stroke-width="1.08"></path>
						<path d="m133.32,319.06s-4.582,9.406-5.185,13.145" fill="none" stroke="#666" stroke-linecap="round" stroke-miterlimit="2.4142" stroke-width="1.08"></path>
					<g fill="none">
							<path d="m132.84,333.17c.603-3.859 4.343-13.265 4.343-13.265" stroke="#737373"></path>
							<path d="m132.12,333.05c.604-3.741 4.343-13.147 4.343-13.147" stroke="#7f7f7f"></path>
							<path d="m131.39,332.93c.603-3.738 4.462-13.025 4.462-13.025" stroke="#8c8c8c"></path>
					</g>
					<g fill="none">
							<path d="m133.8,319.3s-4.461,9.406-5.064,13.145" stroke="#737373"></path>
							<path d="m134.29,319.54s-4.342,9.285-4.824,13.026" stroke="#7f7f7f"></path>
							<path d="m134.77,319.78s-4.101,9.165-4.703,12.902" stroke="#8c8c8c"></path>
					</g>
						<path d="m135.25,320.02s-3.98,9.045-4.583,12.782" fill="none" stroke="#999" stroke-linecap="round" stroke-miterlimit="2.4142" stroke-width="1.08"></path>
						<path d="m125,325.81c.602-3.741 4.1-13.389 4.1-13.389" fill="none" stroke="#666" stroke-linecap="round" stroke-miterlimit="2.4142" stroke-width="1.08"></path>
						<path d="m124.76,311.7s-4.705,9.406-5.188,13.146" fill="none" stroke="#666" stroke-linecap="round" stroke-miterlimit="2.4142" stroke-width="1.08"></path>
					<g fill="none">
							<path d="m124.28,325.69c.602-3.619 4.22-13.145 4.22-13.145" stroke="#737373"></path>
							<path d="m123.55,325.69c.602-3.739 4.341-13.145 4.341-13.145" stroke="#7f7f7f"></path>
							<path d="m122.83,325.57c.482-3.739 4.461-13.025 4.461-13.025" stroke="#8c8c8c"></path>
					</g>
					<g fill="none">
							<path d="m125.12,311.94s-4.342,9.408-4.945,13.147" stroke="#737373"></path>
							<path d="m125.6,312.19s-4.221,9.285-4.824,13.023" stroke="#7f7f7f"></path>
							<path d="m126.21,312.42s-4.221,9.165-4.825,12.906" stroke="#8c8c8c"></path>
					</g>
						<path d="m126.57,312.67s-3.858,9.043-4.461,12.904" fill="none" stroke="#999" stroke-linecap="round" stroke-miterlimit="2.4142" stroke-width="1.08"></path>
					<path d="m136.82,311.46s-.724,3.258-1.327,3.498l1.689-.48 1.086-2.291s.119-.726-.242-.726h-1.21z" fill="#595959" fill-rule="evenodd"></path>
					<path d="m330.74,318.82s.242,2.291-.121,3.254c0,0 .604-1.446 1.086-1.326 .48.13-.97-1.92-.97-1.92z" fill="#595959" fill-rule="evenodd"></path>
					<path d="m307.11,315.32 1.207,2.411c0,.122-.363-.12-1.689,1.689 0,0-.12-3.02.48-4.1z" fill="#595959" fill-rule="evenodd"></path>
						<path d="m345.34,159.99c-.604,4.945-3.256,12.663-3.738,14.11-.604,1.688-4.344,13.387-3.982,14.474 .243,1.083-1.083,7.234-1.083,7.234-.121,6.511-1.93,8.563-1.93,8.563-1.327.361-1.81,1.809-1.688,3.015 .239,1.085 0,3.014-.847,3.256-.724.361-.724,2.652-.724,2.652 .122,3.739-.965,3.98-.965,3.98 1.207,2.774-.241,1.448-.36,1.809-.122.482.36,2.413.36,2.413 .845,2.05-.602,2.05-.602,2.05-.241,1.326.36,2.654.36,2.654 2.412,3.375-.482,1.809-.482,1.809-.36.963-.48,1.807-.48,2.532" fill="none" stroke="#3a2217" stroke-miterlimit="2.4142" stroke-width="1.8"></path>
					<g fill="none">
							<path d="m345.34,158.78c-.604,4.462-3.017,10.975-3.738,13.266-.122.361-.241.603-.363.722-.482,1.689-3.619,11.458-3.858,13.872-.122.239-.122.482-.122.6 .244,1.208-1.325,6.997-1.566,7.117v.603c-.12,4.102-.965,6.03-1.447,6.995-.361.604-.603.844-.603.965-1.327.361-1.688,1.93-1.569,3.016 .121,1.084 0,3.135-.844,3.378-.723.239-.604,2.169-.723,2.53v.122c.119,1.928 0,2.773-.241,3.256-.241.724-.482.843-.482.843 .482,1.087.482,1.448.36,1.568-.119.363-.602,0-.602.241-.122.241.119.965.119,1.448 .122.482.241.843.241.965 .241.724.122,1.206 0,1.447-.119.603-.602.603-.602.603-.12.363 0,.724 0,.965 .119.965.482,1.687.482,1.687 .36.726.36,1.087.482,1.328 .481,1.326-1.085.482-1.085.602-.243.965-.363,1.93-.363,2.654" stroke="#40261a"></path>
							<path d="m345.34,157.45c-.604,4.583-3.378,11.096-4.102,13.267-.12.361-.12.482-.12.722-.604,1.809-3.86,11.578-4.099,13.869v.482c.119,1.328-1.812,6.874-2.172,7.117v.601c-.121,4.343-1.206,6.152-1.568,6.997-.36.48-.482.843-.604.843-1.205.603-1.568,2.172-1.447,3.256 .12,1.085 0,3.016-.845,3.376-.724.241-.602,2.171-.602,2.533v.121c.119,2.17 0,2.894-.122,3.254-.241.726-.36.846-.36.965 .36,1.087.241,1.328.241,1.569-.122.241-.483,0-.604.241 0,.361.243.963.363,1.446 0,.483.119.846.119.965 .241.846-.119,1.207-.119,1.448-.12.482-.603.602-.603.724 0,.361.119.724.119.965 .241.844.483,1.568.483,1.687 .482.724.241.846.36,1.085 .363,1.208-1.085.604-.963.845-.122,1.085-.122,2.05-.122,2.653" stroke="#45291c"></path>
							<path d="m345.34,156.25c-.604,4.583-3.619,11.095-4.343,13.145-.12.241-.12.482-.241.603-.603,1.93-3.736,11.939-3.858,13.991-.122.241-.122.361-.122.482 0,1.326-2.291,6.633-2.651,6.995-.122.239-.122.482-.122.603-.24,4.704-1.326,6.27-1.688,6.995-.242.483-.482.722-.604.844-1.086.604-1.446,2.291-1.327,3.256 .122,1.085 0,3.137-.843,3.498-.844.12-.483,2.171-.483,2.532v.24c.122,2.293 0,2.896-.121,3.258-.12.602-.239.843-.239.965 .482,1.084.239,1.204.119,1.448 0,.239-.362.119-.362.36 .121.361.243,1.085.243,1.448 .119.361.239.844.239.963 .243.846-.239,1.207-.239,1.448-.122.482-.482.604-.482.724 0,.363.119.724.119.965 .241.843.603,1.567.603,1.689 .363.722-.12.844 0,.963 .243,1.087-.844.843-.722,1.207-.122.965 0,2.05 0,2.654" stroke="#4b2d1f"></path>
							<path d="m345.34,155.04c-.604,4.584-3.979,11.095-4.584,13.025-.12.242-.241.361-.241.602-.722,2.052-3.858,12.061-3.979,13.991v.482c-.121,1.326-2.653,6.271-3.257,6.874l-.242.482c-.118,5.186-1.326,6.511-1.566,7.116-.363.361-.725.604-.846.843-.965.604-1.325,2.413-1.084,3.378 .119,1.084 0,3.137-.844,3.376s-.482,2.291-.482,2.654v.24c.119,2.534.239,3.016.119,3.256-.119.604-.241.846-.119.965 .36,1.206.119,1.206 0,1.447s-.361.12-.361.483c.118.363.361,1.084.48,1.328l.241.963c0,.965-.482,1.326-.482,1.448-.239.482-.482.724-.36.843 0,.482.121.843.121.965 .361.965.722,1.57.722,1.689 .241.844-.36.724-.36.844 .239.965-.604.965-.482,1.448 0,1.084.121,2.169.121,2.773" stroke="#523322"></path>
							<path d="m345.22,153.84c-.603,4.703-4.1,11.215-4.703,12.904-.12.239-.12.361-.241.482-.725,2.169-3.98,12.421-3.98,13.989v.482c-.239,1.327-3.135,6.271-3.857,6.994-.121.121-.242.362-.242.362-.121,5.548-1.568,6.633-1.688,6.996-.363.361-.604.603-.724.844-.966.845-1.207,2.533-1.207,3.498 .122,1.084 0,3.256-.722,3.498-.848.241-.365,2.413-.365,2.652v.241c.122,2.774.244,3.135.122,3.378 0,.482 0,.844.122.965 .36,1.205-.122,1.085-.122,1.327-.122.241-.239.241-.239.602 .117.482.482,1.087.482,1.326 .118.483.118.846.118.965 .121,1.087-.483,1.328-.483,1.448-.238.482-.36.724-.238.965 0,.36.121.724.121.843 .482.965.722,1.567.722,1.811 .241.843-.604.602-.604.722 .122.724-.36.965-.238,1.569 .121,1.205.36,2.29.36,2.772" stroke="#583625"></path>
							<path d="m345.22,152.51c-.603,4.824-4.462,11.336-5.064,12.905 0,.118-.122.361-.122.483-.721,2.289-3.978,12.541-3.978,13.989 .12.241 0,.361 0,.483-.362,1.326-3.499,5.908-4.463,6.872-.12.122-.242.365-.242.365-.12,5.907-1.688,6.752-1.808,6.993-.361.241-.604.482-.844.844-.844.845-1.087,2.654-.965,3.619 .121,1.085 0,3.255-.844,3.498-.726.24-.122,2.413-.122,2.652v.241c.122,2.896.239,3.256.239,3.378 0,.483.122.843.122,1.083 .482,1.208-.122.965-.239,1.208 0,.24-.122.361 0,.722 .117.483.482,1.207.482,1.328 .117.483.239.722.239.965 0,1.084-.722,1.326-.722,1.448-.243.361-.365.722-.243.963 .121.482.36.843.36.843 .482.965.727,1.569.727,1.93 .121.724-.966.361-.844.482 0,.604-.365,1.087-.122,1.809 .239,1.207.483,2.414.483,2.894" stroke="#5f3b29"></path>
							<path d="m345.22,151.3c-.603,4.824-4.823,11.334-5.306,12.902-.119.121-.119.243-.119.483-.846,2.291-4.102,12.664-3.98,13.869v.363c-.482,1.448-3.98,5.789-5.066,6.874-.121.241-.24.363-.24.363-.122,6.15-1.809,6.872-1.931,6.993-.36.122-.604.361-.843.726-.727,1.083-.966,2.894-.844,3.738 .117,1.086 0,3.256-.846,3.617-.846.241-.119,2.533-.119,2.654s0,.122 0,.241c.119,3.256.36,3.376.36,3.376 .122.483.239.846.239,1.085 .482,1.326-.117.965-.239,1.326-.121.122-.121.365 0,.726l.604,1.205c.239.483.239.846.239,1.087 0,1.085-.844,1.326-.844,1.326-.121.482-.241.846-.121,1.084 .121.482.36.846.36.966 .604.965.848,1.448.848,1.808 .117.846-1.208.363-1.208.363-.12.602-.12,1.204.121,2.169 .239,1.206.722,2.413.722,2.896" stroke="#643e2b"></path>
					</g>
						<path d="m345.22,149.98c-.603,4.944-5.064,11.458-5.547,12.904-.604,1.689-4.341,13.147-4.1,14.352 .361,1.086-5.911,7.478-5.911,7.478-.119,6.513-1.928,6.874-1.928,6.874-1.448.362-1.809,3.497-1.689,4.704 .12,1.085 0,3.257-.846,3.496-.843.363 0,2.654 0,2.654 .122,3.739.483,3.739.483,3.739 1.208,2.773.121,2.05 0,2.411-.239.362.843,2.051.843,2.051 .727,2.05-.843,2.411-.843,2.411-.361,1.207.362,2.052.362,2.052 2.411,3.376-.602,2.049-.602,2.049-.363.963 1.204,4.583 1.204,5.305" fill="none" stroke="#6b432f" stroke-miterlimit="2.4142" stroke-width="1.8"></path>
						<path d="m320.37,259.24s-2.412-5.185-5.79-8.319c-3.256-3.258-7.717-11.095-8.562-11.338l.724,1.691s-8.805-8.443-9.648-9.649c-.724-1.206-2.412-4.824-3.256-5.306l.482,1.93s-3.136-3.378-4.342-6.635c-1.206-3.134-1.928-5.548-1.928-6.15l-.363,1.689s-1.688-8.925-1.085-11.699c.722-2.774-.604-10.854-2.291-12.541" fill="none" stroke="#000" stroke-miterlimit="2.4142" stroke-width=".36"></path>
						<path d="m286.48,201.11s-7.599,2.652-11.218,4.583-6.751,4.945-8.923,5.306" fill="none" stroke="#000" stroke-miterlimit="2.4142" stroke-width=".36"></path>
						<path d="m170.83,216.91 .724-4.584 .603.604s1.205-11.819.724-12.665l1.327,1.086s-1.087-2.773-1.087-3.617" fill="none" stroke="#000" stroke-miterlimit="2.4142" stroke-width=".36"></path>
						<path d="m138.51,312.3s0-2.049-.241-2.171c-.122-.241-.483-3.015 1.688-5.548 0,0 2.05-2.773 3.255-13.991 0,0-1.085-3.737-.844-5.545 0,0 0-3.498-1.205-6.15 0,0-.724,3.376-.846-3.015 0,0-1.326,2.05-.361-1.569 0,0 .483-3.135.965-3.737 0,0 0-12.182-.122-13.025 0-.725-.241-10.492 0-10.735l-.843,1.087s-.482-3.86-.362-6.032c0-2.17-1.084-10.37-1.084-11.456 0,0-.604.604-.846,1.689 0,0-.481-8.685-2.653-15.919 0,0-1.207-2.413-1.689-2.776-.361-.48-1.929-4.22-2.05-4.461" fill="none" stroke="#000" stroke-miterlimit="2.4142" stroke-width=".36"></path>
						<path d="m136.82,224.27s-2.654-4.341-3.618-4.946c-.846-.724-2.533-3.135-2.654-3.498s-.604.363-.362.966c.122.602-2.17-2.414-2.531-3.257-.242-.843-.965-1.206-.965-1.206" fill="none" stroke="#000" stroke-miterlimit="2.4142" stroke-width=".36"></path>
						<path d="m347.51,262.62s0-15.074.483-17.124c.36-2.05-.362-11.456-.362-11.456" fill="none" stroke="#000" stroke-miterlimit="2.4142" stroke-width=".36"></path>
						<path d="m351.97,269.01s-1.688-10.491-.846-13.265" fill="none" stroke="#000" stroke-miterlimit="2.4142" stroke-width=".36"></path>
						<path d="m350.04,256.47s4.102-16.641 3.136-21.345" fill="none" stroke="#000" stroke-miterlimit="2.4142" stroke-width=".36"></path>
						<path d="m351.97,237.29s-.363-10.01-1.328-13.507" fill="none" stroke="#000" stroke-miterlimit="2.4142" stroke-width=".36"></path>
						<path d="m354.38,225.35s-1.204-11.336-2.773-13.627" fill="none" stroke="#000" stroke-miterlimit="2.4142" stroke-width=".36"></path>
						<path d="m352.82,209.67s-4.582-9.891-5.307-13.749" fill="none" stroke="#000" stroke-miterlimit="2.4142" stroke-width=".36"></path>
						<path d="m344.86,192.43s.24,4.944-.844,7.477c-.847,2.654-1.569,7.115-1.569,7.115" fill="none" stroke="#000" stroke-miterlimit="2.4142" stroke-width=".36"></path>
						<path d="m345.94,198.82s-1.085,8.926-.725,10.734c.241,1.809 1.086,9.167.966,10.01" fill="none" stroke="#000" stroke-miterlimit="2.4142" stroke-width=".36"></path>
						<path d="m343.17,213.77s-1.565,11.215-.361,15.799" fill="none" stroke="#000" stroke-miterlimit="2.4142" stroke-width=".36"></path>
						<path d="m343.29,225.59s-.121,5.91.726,7.839c.722,1.93 1.326,9.406 1.204,10.493" fill="none" stroke="#000" stroke-miterlimit="2.4142" stroke-width=".36"></path>
						<path d="m348.84,204.61s1.809,5.909 2.413,10.372" fill="none" stroke="#000" stroke-miterlimit="2.4142" stroke-width=".36"></path>
						<path d="m351.73,209.67s2.291,4.342 2.413,6.272c.238,1.928 1.809,7.717 1.809,7.717" fill="none" stroke="#6b432f" stroke-linecap="round" stroke-miterlimit="2.4142" stroke-width=".36"></path>
						<path d="m353.78,211.6s2.172,5.787 2.893,6.511" fill="none" stroke="#6b432f" stroke-linecap="round" stroke-miterlimit="2.4142" stroke-width=".36"></path>
						<path d="m346.54,196.53s1.689,8.683 1.689,9.648 1.328,6.271 1.328,6.271" fill="none" stroke="#6b432f" stroke-linecap="round" stroke-miterlimit="2.4142" stroke-width=".36"></path>
						<path d="m349.2,202.32s1.087,5.066 1.69,5.669" fill="none" stroke="#6b432f" stroke-linecap="round" stroke-miterlimit="2.4142" stroke-width=".36"></path>
						<path d="m346.78,194.24 1.327,5.909" fill="none" stroke="#6b432f" stroke-linecap="round" stroke-miterlimit="2.4142" stroke-width=".36"></path>
						<path d="m351.97,217.39s1.567,11.338 1.567,14.595" fill="none" stroke="#6b432f" stroke-linecap="round" stroke-miterlimit="2.4142" stroke-width=".36"></path>
						<path d="m350.04,215.7s.845,3.859.845,4.944" fill="none" stroke="#6b432f" stroke-linecap="round" stroke-miterlimit="2.4142" stroke-width=".36"></path>
						<path d="m354.63,228.49s.239,9.891.239,11.458" fill="none" stroke="#6b432f" stroke-linecap="round" stroke-miterlimit="2.4142" stroke-width=".36"></path>
						<path d="m354.14,240.43s-.482,8.08-1.209,10.25c-.602,2.052-.602,5.067-.602,5.067" fill="none" stroke="#6b432f" stroke-linecap="round" stroke-miterlimit="2.4142" stroke-width=".36"></path>
						<path d="m100.28,56.632s3.498-5.547 3.739-7.597" fill="none" stroke="#6b432f" stroke-linecap="round" stroke-miterlimit="2.4142" stroke-width=".36"></path>
						<path d="m106.55,58.802s1.447-2.292 2.412-4.702" fill="none" stroke="#6b432f" stroke-linecap="round" stroke-miterlimit="2.4142" stroke-width=".36"></path>
						<path d="m76.519,46.259s-3.497-5.787-4.703-6.632" fill="none" stroke="#6b432f" stroke-linecap="round" stroke-miterlimit="2.4142" stroke-width=".36"></path>
						<path d="m73.142,47.707s-2.049-1.929-2.895-2.17" fill="none" stroke="#6b432f" stroke-linecap="round" stroke-miterlimit="2.4142" stroke-width=".36"></path>
						<path d="m107.88,63.386s2.773-3.98 3.376-5.549" fill="none" stroke="#6b432f" stroke-linecap="round" stroke-miterlimit="2.4142" stroke-width=".36"></path>
						<path d="m110.41,64.953s3.859-4.704 4.462-6.391" fill="none" stroke="#6b432f" stroke-linecap="round" stroke-miterlimit="2.4142" stroke-width=".36"></path>
						<path d="m111.37,66.28 3.859-4.946" fill="none" stroke="#6b432f" stroke-linecap="round" stroke-miterlimit="2.4142" stroke-width=".36"></path>
						<path d="m118.49,63.025s-3.859,4.341-5.306,5.667" fill="none" stroke="#6b432f" stroke-linecap="round" stroke-miterlimit="2.4142" stroke-width=".36"></path>
						<path d="m124.4,69.777s-3.136,3.86-4.825,5.065" fill="none" stroke="#6b432f" stroke-linecap="round" stroke-miterlimit="2.4142" stroke-width=".36"></path>
						<path d="m130.07,70.623s-3.859,5.545-5.669,6.632" fill="none" stroke="#6b432f" stroke-linecap="round" stroke-miterlimit="2.4142" stroke-width=".36"></path>
						<path d="m131.75,76.892s-2.17,2.896-2.894,3.257" fill="none" stroke="#6b432f" stroke-linecap="round" stroke-miterlimit="2.4142" stroke-width=".36"></path>
						<path d="m130.79,73.755s-3.98,5.188-5.065,5.428" fill="none" stroke="#6b432f" stroke-linecap="round" stroke-miterlimit="2.4142" stroke-width=".36"></path>
						<path d="m135.98,77.375s-3.98,4.583-5.307,5.307" fill="none" stroke="#6b432f" stroke-linecap="round" stroke-miterlimit="2.4142" stroke-width=".36"></path>
						<path d="m140.44,80.149s-6.875,4.702-8.563,5.185" fill="none" stroke="#6b432f" stroke-linecap="round" stroke-miterlimit="2.4142" stroke-width=".36"></path>
						<path d="m141.88,82.079s-3.498,3.254-4.462,3.619" fill="none" stroke="#6b432f" stroke-linecap="round" stroke-miterlimit="2.4142" stroke-width=".36"></path>
						<path d="m143.45,84.851s-3.497,2.413-5.184,3.017" fill="none" stroke="#6b432f" stroke-linecap="round" stroke-miterlimit="2.4142" stroke-width=".36"></path>
						<path d="m132.96,87.626 2.653-1.928" fill="none" stroke="#6b432f" stroke-linecap="round" stroke-miterlimit="2.4142" stroke-width=".36"></path>
						<path d="m137.54,91.848 3.979-2.534" fill="none" stroke="#6b432f" stroke-linecap="round" stroke-miterlimit="2.4142" stroke-width=".36"></path>
						<path d="m83.152,67.003 1.81.602" fill="none" stroke="#523727" stroke-linecap="round" stroke-miterlimit="2.4142" stroke-width=".36"></path>
						<path d="m82.066,64.591 1.207.362" fill="none" stroke="#523727" stroke-linecap="round" stroke-miterlimit="2.4142" stroke-width=".36"></path>
						<path d="m92.68,107.52 1.207,2.535" fill="none" stroke="#523727" stroke-linecap="round" stroke-miterlimit="2.4142" stroke-width=".36"></path>
						<path d="m94.971,109.21 .483,1.93" fill="none" stroke="#523727" stroke-linecap="round" stroke-miterlimit="2.4142" stroke-width=".36"></path>
						<path d="m98.228,111.75 .362,2.411" fill="none" stroke="#523727" stroke-linecap="round" stroke-miterlimit="2.4142" stroke-width=".36"></path>
						<path d="m100.76,114.52 .604,2.411" fill="none" stroke="#523727" stroke-linecap="round" stroke-miterlimit="2.4142" stroke-width=".36"></path>
						<path d="m99.917,111.75 .361,1.565" fill="none" stroke="#523727" stroke-linecap="round" stroke-miterlimit="2.4142" stroke-width=".36"></path>
						<path d="m102.21,115 .846,1.93" fill="none" stroke="#523727" stroke-linecap="round" stroke-miterlimit="2.4142" stroke-width=".36"></path>
						<path d="m164.32,193.15 .843,3.137" fill="none" stroke="#523727" stroke-linecap="round" stroke-miterlimit="2.4142" stroke-width=".36"></path>
						<path d="m165.4,191.82 .845,1.687" fill="none" stroke="#523727" stroke-linecap="round" stroke-miterlimit="2.4142" stroke-width=".36"></path>
						<path d="m165.16,187.97 1.086,2.411" fill="none" stroke="#523727" stroke-linecap="round" stroke-miterlimit="2.4142" stroke-width=".36"></path>
						<path d="m167.09,189.05 1.446,1.931" fill="none" stroke="#523727" stroke-linecap="round" stroke-miterlimit="2.4142" stroke-width=".36"></path>
						<path d="m167.33,185.43 .361,1.928" fill="none" stroke="#523727" stroke-linecap="round" stroke-miterlimit="2.4142" stroke-width=".36"></path>
						<path d="m168.78,183.74 .845,2.169" fill="none" stroke="#523727" stroke-linecap="round" stroke-miterlimit="2.4142" stroke-width=".36"></path>
						<path d="m114.39,176.51v2.531" fill="none" stroke="#523727" stroke-linecap="round" stroke-miterlimit="2.4142" stroke-width=".36"></path>
						<path d="m116.08,174.82v2.772" fill="none" stroke="#523727" stroke-linecap="round" stroke-miterlimit="2.4142" stroke-width=".36"></path>
						<path d="m117.16,178.8 .241,2.772" fill="none" stroke="#523727" stroke-linecap="round" stroke-miterlimit="2.4142" stroke-width=".36"></path>
						<path d="m116.08,180.13-.363,3.376" fill="none" stroke="#523727" stroke-linecap="round" stroke-miterlimit="2.4142" stroke-width=".36"></path>
						<path d="m113.54,172.05-.241,3.135" fill="none" stroke="#523727" stroke-linecap="round" stroke-miterlimit="2.4142" stroke-width=".36"></path>
						<path d="m112.7,177.59 .241,2.293" fill="none" stroke="#523727" stroke-linecap="round" stroke-miterlimit="2.4142" stroke-width=".36"></path>
						<path d="m115.23,170.72-.241,2.531" fill="none" stroke="#523727" stroke-linecap="round" stroke-miterlimit="2.4142" stroke-width=".36"></path>
						<path d="m327.73,190.38 .482,3.135" fill="none" stroke="#523727" stroke-linecap="round" stroke-miterlimit="2.4142" stroke-width=".36"></path>
						<path d="m326.52,196.29 .848,4.341" fill="none" stroke="#523727" stroke-linecap="round" stroke-miterlimit="2.4142" stroke-width=".36"></path>
						<path d="m328.57,196.53 1.085,2.772" fill="none" stroke="#523727" stroke-linecap="round" stroke-miterlimit="2.4142" stroke-width=".36"></path>
						<path d="m332.44,180.37 .24,3.617" fill="none" stroke="#523727" stroke-linecap="round" stroke-miterlimit="2.4142" stroke-width=".36"></path>
						<path d="m328.82,183.14 1.085,3.617" fill="none" stroke="#523727" stroke-linecap="round" stroke-miterlimit="2.4142" stroke-width=".36"></path>
						<path d="m330.5,179.28 .24,2.774" fill="none" stroke="#523727" stroke-linecap="round" stroke-miterlimit="2.4142" stroke-width=".36"></path>
						<path d="m287.21,177.35-.603,3.376" fill="none" stroke="#523727" stroke-linecap="round" stroke-miterlimit="2.4142" stroke-width=".36"></path>
						<path d="m287.45,182.9-.604,2.293" fill="none" stroke="#523727" stroke-linecap="round" stroke-miterlimit="2.4142" stroke-width=".36"></path>
						<path d="m285.52,184.59-.238,2.535" fill="none" stroke="#523727" stroke-linecap="round" stroke-miterlimit="2.4142" stroke-width=".36"></path>
						<path d="m288.06,186.76-.604,2.291" fill="none" stroke="#523727" stroke-linecap="round" stroke-miterlimit="2.4142" stroke-width=".36"></path>
						<path d="m319.65,206.18 .604,2.291" fill="none" stroke="#523727" stroke-linecap="round" stroke-miterlimit="2.4142" stroke-width=".36"></path>
						<path d="m319.65,202.32 1.086,2.292" fill="none" stroke="#523727" stroke-linecap="round" stroke-miterlimit="2.4142" stroke-width=".36"></path>
						<path d="m319.89,189.29 .604,1.689" fill="none" stroke="#523727" stroke-linecap="round" stroke-miterlimit="2.4142" stroke-width=".36"></path>
						<path d="m278.04,108.61 3.256.361" fill="none" stroke="#523727" stroke-linecap="round" stroke-miterlimit="2.4142" stroke-width=".36"></path>
						<path d="m280.21,110.54 3.376.362" fill="none" stroke="#523727" stroke-linecap="round" stroke-miterlimit="2.4142" stroke-width=".36"></path>
						<path d="m290.46,110.54 3.377.604" fill="none" stroke="#523727" stroke-linecap="round" stroke-miterlimit="2.4142" stroke-width=".36"></path>
						<path d="m295.77,113.92 2.774,1.448" fill="none" stroke="#523727" stroke-linecap="round" stroke-miterlimit="2.4142" stroke-width=".36"></path>
						<path d="m307.47,114.76 2.171.846" fill="none" stroke="#523727" stroke-linecap="round" stroke-miterlimit="2.4142" stroke-width=".36"></path>
						<path d="m310.24,117.29 2.411,1.086" fill="none" stroke="#523727" stroke-linecap="round" stroke-miterlimit="2.4142" stroke-width=".36"></path>
						<path d="m299.63,112.23 1.928.361" fill="none" stroke="#523727" stroke-linecap="round" stroke-miterlimit="2.4142" stroke-width=".36"></path>
						<path d="m318.2,123.08 3.619,1.931" fill="none" stroke="#523727" stroke-linecap="round" stroke-miterlimit="2.4142" stroke-width=".36"></path>
						<path d="m319.41,126.46 3.014,2.172" fill="none" stroke="#523727" stroke-linecap="round" stroke-miterlimit="2.4142" stroke-width=".36"></path>
						<path d="m337.14,138.04 2.172,2.535" fill="none" stroke="#523727" stroke-linecap="round" stroke-miterlimit="2.4142" stroke-width=".36"></path>
						<path d="m337.38,141.41 1.447,2.171" fill="none" stroke="#523727" stroke-linecap="round" stroke-miterlimit="2.4142" stroke-width=".36"></path>
						<path d="m341,143.95 1.087,1.569" fill="none" stroke="#523727" stroke-linecap="round" stroke-miterlimit="2.4142" stroke-width=".36"></path>
					<path d="m16.219,96.55c-1.085.361 5.187-.239 6.754.724 0,0-3.497-1.81-6.754-.724z" fill="#ccc" fill-rule="evenodd"></path>
					<path d="m18.752,95.103s2.29-.12 2.653.122c.483.239-1.447-.966-2.653-.122z" fill="#ccc" fill-rule="evenodd"></path>
			
		
	
</svg>
