<?xml version="1.0" encoding="UTF-8"?>
<svg width="297mm" height="210mm" version="1.1" viewBox="0 0 297 210" xmlns="http://www.w3.org/2000/svg">
 <g transform="matrix(.39041 0 0 .39041 1.7325 -78.89)">
  <path d="m652.32 534.43-1.2155 3.8006-0.35442 2.559-0.8005 2.5128 0.0461 1.9244-0.7565 1.9706 0.9401 1.7264 2.521 2.1409 0.6261 5.8683-0.46638 0.51989-0.40104 1.2428 0.39126 0.98451 1.0226 1.2266-1.9252 0.59761-0.74183 1.7245 0.64998 1.9669s-0.21678 0.65613 0 1.7486c0.21679 1.0924 1.0264 1.9318 1.0264 1.9318s1.8638 0.93416 1.9316 1.1713l13.011 102.04 0.79053 0.14989 0.79043 0.14987 0.30478-0.59951-12.383-94.863 2.0305 4.3239 4.3592 10.338 3.4537 3.5675 4.1007-1.871 6.211-10.835 1.5901-5.0496 0.44251 0.44039 0.34887 4.3465 0.20391 3.1474 1.1903 7.3956 0.0658 3.5416-1.01 4.726-2.9446 6.7141-5.3006 23.57 3.8598 2.7895 1.9555 0.56991 0.48659 5.181 0.20776 3.4805-0.97375 4.3951 0.31268 3.0033 0.74935 8.8703 1.4384 10.051-0.42192 1.3324-7.8198 3.9341-2.8168 1.022-0.4912 1.1599 1.7721 1.6902 6.6424-0.31245 3.3592-1.9668 4.6355-0.19457 1.1331-2.1108-0.0809-1.8249-1.2852-1.9681s0.42408-7.8494 0.74822-11.391l1.5498-8.2082-0.21847-6.4207-0.13594-2.1021 0.15521-1.8087 2.1562-5.9183 2.5507 0.17208 5.9564-1.2453 3.9734 7.7049 2.455 3.5589 1.213 3.5883-0.74024 5.2695 0.13312 2.9227 2.5356 12.899-0.54713 2.8061-1.1568 2.7375 1.0586 1.8968 1.0361 0.49027 3.088 1.0417 4.2955-0.65331 7.1683 1.5525 2.9837-1.3812-1.3294-1.8236-11.637-4.5547-0.23634-2.7291 1.5375-18.383-0.35461-4.1554-0.56368-4.3502-1.12-4.0171-2.1923-6.5484c2.8e-4 -0.117-9e-3 -0.25037-9e-3 -0.37008 1.2234-0.2505 4.4208-0.77647 4.4208-0.77647l-2.1842-12.543-5.5473-14.459-2.0613-5.5144-0.24048-2.6144 0.66907-7.6116 1.3807-5.3818 0.20034-4.04 0.54723-0.31641 5.3431 10.76 0.31945 4.785 0.39296 1.9965 4.0762 12.018 0.94377 2.287-1.0154 1.4969-1.1879 2.3999 1.1292 5.2624 1.2541-0.0555c-0.0724-0.95673-0.24235-2.7626-0.24235-2.7626l0.61877-1.3156 1.4598 0.5625 0.66832 2.9458-1.7461 2.0862-2.0198 0.37007-0.1836 1.2952 3.4886-0.18504-0.67753 0.93258 1.412 0.5477 2.7542-3.8857 0.8207-5.6833-0.94743-1.9558-2.7091-2.8088c0-1.2834-0.70564-12.629-0.81074-17.53-1.0995-3.1133-1.3818-3.1819-2.2162-4.9404-0.97864-1.6611-1.7609-7.505-1.7609-7.505l-2.3722-6.5429-1.076-4.4353-2.6037-3.1252-2.5875-1.3915-3.2201 0.69388-1.4983-0.16282-1.4964-0.16469 0.14139-1.0103-1.0302-5.0371 0.0404-4.7795-1.5589-5.4345 1.1751 1.3526 1.6506 6.1857-0.94555-6.4503-0.57844-1.9614-3.5951-5.8934-3.2977-1.5913-2.4237-0.69389-4.7848 1.5048-4.2415 4.9608-0.8427 3.5638-0.0602 3.2178 0.66653 3.3214 0.0639-1.719 0.0639-1.719 0.54168-3.3862-0.0884 4.7536 0.73995 7.2626 0.062-6.1506 0.37096-1.3434 0.2809 4.9497 1.4194 5.577-1.7664 0.32196c-1.1266 0.36465-2.1066 0.27186-3.2408 0.11102l-2.3477 0.0824-1.8735 1.4885-2.7634 4.7094-3.0975 8.9388-0.55823 5.1995-0.35254 0.17764-7.4046-10.921-2.491-4.4062-0.48029-2.188 0.39286-2.4813-1.0852-3.1919s-1.4315-1.9182-2.0253-2.549l-1.1495-7.9241 1.5626-1.3785 0.6701-2.3204-0.96943-1.5414 9e-3 -2.0798-1.1458-2.6867-0.78771-3.5841zm45.598 19.31c0.67368 0.601 0.65083 2.3276 0.84092 3.4435l1.7682 6.5026-0.62977-0.037-0.62789-0.0389-1.0027-7.8348zm-2.3485 0.68093 1.0503 2.5738 2.3247 6.5969-0.78592-0.0462-0.78583-0.0481-0.56369-4.9736zm-11.186 1.1273 0.84646 3.7525 0.84459 3.7544-0.75828 0.0407-0.75838 0.0425-0.39842-5.1014zm10.354 1.6844 0.88294 1.9481 1.2965 4.2889c-0.40029-0.0241-0.33411-0.0999-0.7344-0.12396l-1.0788-2.8225zm-8.1873 1.8128 0.19461 0.2054 0.1946 0.20539-0.0113 1.1768 0.5086 2.4314-0.44251-4e-3 -0.44429-4e-3 -0.2589-3.103zm1.3807 1.1491 0.48659 0.22576 0.22036 2.4406-0.6592 0.20724-0.24423-2e-3 -9e-3 -1.8022z" fill="#341c18" fill-rule="evenodd"/>
 </g>
 <g transform="matrix(.39041 0 0 .39041 1.7325 -78.89)">
  <g transform="matrix(1.0107 0 0 1.0769 3029.9 853.71)">
   <path d="m-2635.8-406.47-0.4629-9.2565 3.2398 5.0911-1.3885-7.8681-3.2398-3.7026 5.0911 2.3141-8.7937-8.7937-8.7937-1.8513 1.3885-1.3885-9.2565 3.7026-5.0911 6.0168 4.1654-1.8513-7.4052 5.5539-1.3885 5.5539 1.3885 2.3141v-5.0911l5.0911-5.5539 8.7937-3.2398-5.0911 3.2398 8.3309-1.8513 4.1654 3.7026-3.2398 0.46282 6.9424 1.8513 1.3885 4.6283-0.4628 4.6283 3.2398 3.7026-1.3885-4.6283z" fill="none" stroke="#000" stroke-width="1px"/>
   <path d="m-2637.1-393.45 2.8597 5.311-1.6341 3.2683 2.4512 1.2256-1.6342 8.9878-1.6341-5.7195-1.2256 5.7195 0.8171 6.9451-4.494-7.3537-4.4939 6.5366-0.817-5.7195-5.311 7.3537-2.0427-4.0854-1.6342 9.8049-2.4512-7.7622-2.0427 13.482 4.9025 6.9451-24.512-15.116-14.707-62.506 11.848-2.8598 14.707-13.482 18.793 0.81707 8.5793 4.0854-6.5366-0.40854 5.311 2.4512-8.9878 1.2256 2.0427-2.0427-7.3537 2.4512-5.7195 3.2683-5.311 6.5366 3.6768-1.2256-4.4939 5.7195-0.4085 9.8049 2.0427 5.7195 0.4085-4.0854 1.6342 5.7195 5.7195 3.6768" fill="#3e1f15" fill-rule="evenodd" stroke="#000" stroke-width="1px"/>
   <path d="m-2925.3-242.77 5.7105 9.5174 0.3807-6.8525 2.2841 6.8525 1.9035-4.1877 4.9491 9.5174 1.5228-6.0912 0.7614 4.1877 2.2841-1.9035 3.4263 1.1421 2.6649-6.4718 0.3807 6.8525 4.949-6.4718 3.0456-5.3298-0.3807 6.0912" fill="none" stroke="#000" stroke-width="1px"/>
   <path d="m-2463.3-346.68 32.255-16.006 14.716-15.161 12.743-15.558 1.7111 0.28057-9.3323 21.14-22.831 26.319-25.317 13.577-19.45 5.9862-9.1116 2.4514-36.268 4.6418-31.438-5.4312s-13.618-0.85956-17.671-2.0244c-4.0533-1.1648-3.9534-9.8943-3.9534-9.8943l3.3909-3.755 8.398-2.2383 44.181 6.2926 34.62-3.0834z" fill="#d8d3c4" fill-rule="evenodd"/>
   <path d="m-2507.4-328.59 15.198-5.8593 2.5634 2.5634 0.1831 2.7465 0.9155-1.2817 2.3803-3.662 2.7465 1.4648 2.7466-2.3803 2.7465 2.1972 3.4789-2.9296 0.1831-3.8451 3.1128-0.36621 3.662 2.5634 1.6479-1.0986 1.6479 0.5493 3.8452-5.31 2.5634 1.0986 4.2113-0.91551 1.2818-4.2113 3.8451 0.5493 1.831 2.0141 2.5634-2.0141 3.2959-3.8451h2.3803l1.831-4.5776 3.662-0.1831 2.1973-2.5634 1.831-0.5493 4.0282-7.3241 1.6479-0.1831 5.1269-5.1268 2.1972-0.73241 2.0141-4.3944 3.2959-4.3944 8.5711-12.485-7.6556 16.88-7.8734 10.62-16.845 19.592-28.014 14.831-27.465 7.6903-16.113 1.2817z" fill="#aca58f" fill-rule="evenodd"/>
   <path d="m-2402-392.99-8.522 20.506-23.291 27.084-25.957 14.263-27.89 8.648-35.168 4.4291-52.699-8.342-2.2229-6.4827 0.5899-2.9976 2.3161-2.6298 0.068 1.5422-1.1092 1.563 1.5763 5.598 1.8348-1.4762 4.11-0.71988-0.2557 1.0998-1.9816 0.73206 1.2449 1.5213 5.9148-1.1501 1.4814-0.87256 3.4521 0.73554-2.5118 1.6376 0.2935 1.4884 3.4031 0.48749-0.1167-1.7903 2.5306-0.34346-0.1389 2.8901 3.5309-0.0624 1.9627-2.0262 3.2075-0.50478 0.1468 0.74419-1.4815 0.87257 0.7446 1.3809 4.4034 0.76849 0.9024-0.2151 2.0116-1.7781 2.1962 1.5543 3.3242 1.2855 0.1656 2.0383 6.8362-0.0711 3.4632-1.6046 1.4404 2.5136 4.2866-1.0217 4.5422-2.1216 1.9217 1.36 5.787-0.60018 4.67-2.6714 3.1775 0.54124 0.2445 1.2403 5.238-0.98875 0.4623-2.4477 0.3424 1.7365 4.61-0.57936 3.4442-2.8987 5.4336 4e-3 1.8238 0.8639 6.7984-2.6593-0.1168-1.7902 6.7573 0.72688 7.6819-4.1685 1.5225-4.2588 0.7146 2.4269 3.6399-1.9064 1.0413-3.1052 0.7936 1.6289 8.9077-3.9412 1.0902-2.8571 2.7862-1.4433 2.354-0.0416 5.1133-6.4132 1.6204-3.7626 1.7749 0.61584 2.974-4.0853 1.5414-2.9646 2.9629-1.7451 2.2294-5.4661 0.519 1.4346 1.5116-1.9186 1.5713-4.0107 1.786-1.7243z" fill="#5b3e2e" fill-rule="evenodd"/>
   <path d="m-2497.8-322.7 10.244-0.90385 4.3686-1.9584 17.625-4.8205 5.875-1.5064 12.202-7.3814 12.955-6.0257 1.2051-2.4103 2.2596-1.9583 12.654-13.708-15.667 18.981-25.458 13.708-27.869 8.4359-10.093 1.3558z" fill="#341c18" fill-rule="evenodd"/>
   <path d="m-2854.9-362.89-10.319 141.67 4.9478 58.978-39.808-0.24108-17.051-63.136-6.159-82.706-16.717-74.787 61.59-48.392z" fill="#4d3520" fill-rule="evenodd"/>
   <path d="m-2730.8-304.77 9.6784 37.834 8.7985 12.318 0.2247 86.993 36.45 3.7969-8.2266-8.9977 14.232-16.841 0.9593-58.783-5.5757-47.162-53.901-54.03z" fill="#3e1f15" fill-rule="evenodd"/>
   <path d="m-2650.2-445.93-56.391 0.42182-21.921 4.5517-21.921 11.581-72.96-7.0861-50.114 1.701-39.678 9.368-27.49 12.415-11.51 11.717-9.9867 17.811-14.358 30.086-0.1778 94.744 8.1895-33.283 1.6437-44.633 4.5804-26.509 11.92-18.617-4.7949 28.457 1.124 19.086 14.178 27.561 0.8489 50.577 7.0943 30.794 5.6311 9.4914-0.5502 24.945-2.1935 11.482-0.648 7.6186 2.9615 3.7189-1.6744 5.2642 44.751-0.2152-5.5705-27.77-0.2958-13.071-1.4099-11.174 12.493-35.376 4.2726-31.476 51.018 25.572 50.144-2.3053 39.852-10.024 2.3808 12.296 8.7988 10.917-1.5945 30.008 5.7513 32.016-4.1071 12.114 1.7537 7.4282 41.707 0.13091 7.3753-10.284-10.012-14.736 2.7402-50.837-1.7079-53.163 12.136-2.1875 14.432-10.586 6.2193-18.353 7.7292 7.8647 14.988 4.46 10.837-0.43356 9.9054-4.9383 12.236-0.43355 10.371 4.0712 1.4302-4.218-3.3291-4.9254-8.2231-6.1717 22.127-10.161 38.388 43.693 9.398 34.734-12.378 47.272 0.6243 25.907 4.6659 16.256 7.5671 2.8422 5.1752-3.0141 3.0956-2.3918-0.6121-6.8752-7.3834-11.241-0.9436-17.314 11.206-22.1 9.8057-11.455 8.2911-25.988 3.7207-27.511-6.8787-30.266-20.512-34.921-41.212-41.878-40.538-32.196-20.33-6.3398z" fill="#896e4d" fill-rule="evenodd"/>
   <path d="m-2513.3-180.35 0.4726 6.9122-3.6924 3.2071-8.9897-0.20955-1.9397-8.43-2.5585-14.051-0.5124-18.553 2.7073-2.6107 4.2395-8.2286 1.1752 3.0071 3.7287-4.1429 6.6575-13.599 5.1693-10.584 1.9983-8.9052 2.3714-1.4441-1.4053-15.342 4.7397-5.5408-2.2676-15.021 3.631-4.573-9.3991-11.412 2.6314-8.3663-7.2192-12.857-9.5176-8.8307 0.2066-5.7549-5.2983-3.7493-9.5885-6.9202 4.9608 0.1678-5.4849-3.3762-6.3947-7.4684 3.1886 0.0279-5.5781-2.77-1.4745-3.8892-7.7632-6.7899-1.4214-4.7381-12.419-6.4395-6.5893-8.1296 11.649 6.2898-12.569-13.189 6.4395-0.91992-10.114-13.081 13.388 10.423 9.1456 8.6371 19.779 17.939 14.719 18.399 21.618 29.898 6.4396 11.039 0.9199 7.8194 6.3527 21.805-1.4669-0.53418 1.0938 10.467-1.6534-3.754 0.2735 7.8936-1.3799-3.6797-0.46 12.419-0.8203-3.2071-0.5596 10.567-0.9199-2.7598-2.1134 12.904-0.6338-3.8536-1.2929 9.8204-0.8203-2.3125-0.6592 8.2794-1.3799-1.8399-1.8399 5.5196-0.9199-1.3799-0.9253 4.9616-3.3306 5.9164-5.6642 7.3469-0.6592-2.7471-6.1534 15.353-0.1368-2.1197-0.068-1.0598-0.068-1.0598-1.3925 13.886 2.2998 10.119z" fill="#4d3520" fill-rule="evenodd"/>
   <path d="m-2575.2-375.92-0.2314 3.0084-0.2314 3.0084 0.3951 1.4844 0.3951 1.4844-1.0893 0.82973-1.0894 0.82973-2.3818-6.0704-4.4233-5.6621 0.3537 8.3977-4.9538 3.9068 12.794 6.3705-6.4796-2.777 11.571 6.9424-6.9424-0.92565 7.868 4.6283 6.9424 7.4052-6.4796-1.8513 11.053 3.7854-7.9406 2.2314 15.041 21.986 20.724 22.909 6.0168 21.753 1.3268 24.756-11.514 34.497v19.89l5.0911 17.587 1.3885 6.4796 6.9378 1.0447 4.4885-2.1125 2.9213-2.6349-6.0168 1.8513-5.0911-1.8513-1.8513-16.199-0.9256 5.5539-1.8513-20.364 7.3558-17.416 14.075-29.704 1.2753-27.174-4.793 4.9779 5.1942-17.423-3.0033-9.8841-3.5794-9.2565-1.3885 9.2565-8.1936-23.713-3.7572-15.653 0.4629 7.4052-3.7027-9.7194 0.4629 7.8681-6.9424-10.645-1.3885-7.4052-1.3885 5.0911 0.9257 6.0168-3.7027-10.645-2.7769-7.4052 0.9256 7.4052-6.9424-11.571 0.9257 7.4052-8.4665-16.933 3.8382 14.619-8.4118-15.762-7.8135-8.1127 3.648 9.6366z" fill="#4d3520" fill-rule="evenodd"/>
   <path d="m-2560.9-336.96-10.259-8.4078 3.664-1.4013-4.1526-5.8387 8.0609 5.1381-4.1526-5.3716 6.1068 3.5032 2.1983 3.2697-1.2213-4.9045-3.1755-2.569 5.3739 2.1019 4.6412 7.4736-0.2443-3.9704 2.687 4.9045 0.4885 4.4374 1.2214-4.4374 2.9312 7.4736-0.7329 2.1019 2.1985-1.6348-0.4886-4.4374 2.9312 6.773 0.4886 7.0065-8.3052-1.4013z" fill="#301c0a" fill-rule="evenodd"/>
   <path d="m-2589-365.63 8.6273 2.0706-3.1058 0.69018 18.555 9.779-11.288-1.8338 9.0808 4.2454 6.7734 8.515-7.584-2.532 12.086 8.519-6.4523-1.9622 6.4564 7.1346-16.584-8.0535 6.5567 1.0353-4.4862-3.1058 6.2117 1.3804-10.008-7.247 7.2469 0.69018-6.2116-4.4862 3.4509 1.0353-13.459-8.6273 6.2116 1.0353-7.2469-3.796-1.7255-2.0706z" fill="#754316" fill-rule="evenodd"/>
   <path d="m-2494.1-323.24-1.4464-3.637-1.6358 4.7096-2.4132-1.8977-0.4468 3.025-3.3011-2.8191 0.6745 2.065-3.688-2.0073 1.1752 3.7982-3.5912-2.2102 1.7559 2.5806-4.1521-1.7304 1.4087 1.9169-2.8969-0.88292 2.1229 2.5065-1.699-1.3081 2.0065 3.4473 0.8134-3.0991 2.3363 1.3629-0.3271-1.4013 2.3362 1.3628 1.181-3.173 2.4331 1.16-0.1338-1.8073 2.4901 2.4325 0.8707-1.8265 2.2196 2.3035-0.4609-3.2086 2.3932 2.6354z" fill="#301c0a" fill-rule="evenodd"/>
   <path d="m-2548.3-319.26 19.698 12.06 4.824 14.874v-6.834l4.02 15.678-2.01 20.502 3.216-3.618-2.01 10.854-4.824 21.306-5.628 16.482-0.804 21.306 0.804-1.608 1.206 14.07 2.9829 11.794 2.499 1.7848 5.3721 1.6977-2.1943 1.053-2.7168 0.0954-4.1096-1.2976-5.3286-17.23-1.7307-9.1531v-19.296l10.452-33.366 0.402-22.11-6.8268-24.597-20.911-23.241z" fill="#301c0a" fill-rule="evenodd"/>
   <path d="m-2454.9-319.53 38.051-8.1288 19.026-11.389 16.99-12.237 1.7793 0.6728-14.507 18.486-30.109 20.403-30.081 7.3711-22.168 1.3196-10.31 0.27333-39.956-3.9119-32.632-12.631s-14.451-4.0122-18.56-6.0948-2.152-10.591-2.152-10.591l4.4393-2.8798 9.4984-0.23128 46.143 16.441 37.854 5.051z" fill="#d8d3c4" fill-rule="evenodd"/>
   <path d="m-2565.6-338.79 13.905 4.7479h-10.513l-5.4262 3.0523 3.7305 1.0174 4.748-2.374 4.7479 1.6957-4.0696 1.6957 4.0696 1.6957 5.4263-1.6957 4.0696 2.0348-1.0174 1.0174-3.0522-0.33914 0.3391 3.3914 4.4088 1.0174 5.7654-2.7131 5.7653 2.374 19.331 7.8002 7.122-3.0522 3.3914 1.3566 0.6782 4.0697 6.7828-0.33914 3.3914-0.67828 2.7131 2.7131 6.1045-4.0697h5.7654l3.7305 3.0522 7.4611-0.33914 3.0522-5.0871h3.3914l0.3392 4.748 7.1219-1.3566 7.461-6.1045h3.0523l2.7131 4.4088 3.7305-1.6957-0.3391-4.4088 6.1045 0.33914-1.3566 2.7131 4.4088-1.0174 1.6957-3.7305 1.0174 2.374 3.3914-3.0523 2.374 1.3566 6.7828-5.7654 1.0174 2.0348 7.1219-5.7654 5.4263-5.0871 4.0696-1e-5 2.374-3.7305 4.4088-2.374 6.7828-6.7828-14.244 16.279-9.4958 7.8002-10.174 7.1219-10.513 5.7654-32.896 8.8176-27.131 0.33914-33.914-3.3914-18.992-3.0523-48.158-21.366 9.8351-7.8002z" fill="#aca58f" fill-rule="evenodd"/>
   <path d="m-2873.1-436.61 27.474 1.2335-8.6742 0.43586 8.2754 2.5402-15.353 2.3593 11.432 0.5444-10.344 3.2664 8.7104 0.5444-16.332 3.8108 13.066 4.3552-16.876 2.722 5.444 0.5444-8.7104 1.6332 8.166 5.444-11.977 5.9884 15.243 1.0888-11.432 3.2664 8.7104 2.1776-2.722 3.2664 5.9884 1.6332-4.8996 2.722 10.344 2.1776-7.0772 4.3552 16.332-0.5444-4.8996-7.0772 10.344-1.0888-8.166-2.722h13.066l-0.5444-4.3552-10.344-1.0888 9.7991-1.0888-7.6215-3.2664 11.432-1.6332-8.1659-6.5328h6.5327l-7.0771-7.0772 7.6215-1.6332-0.5444-5.9884 4.8996 0.5444-4.3552-4.8996 9.2548-1.0888-7.0772-2.722 10.344-0.5444-11.541-4.7178 16.985 0.36266 12.232 2.5041-7.3313-3.8108 16.114 5.2622-8.7104 2.1776 4.3552 2.1776-13.393-0.68913 7.6216 1.0888-14.154 2.722 9.2548 1.6332-6.5328 1.6332 7.6216 2.1776-11.432 2.722 5.9884 1.6332-10.888 2.1776 9.7992 2.1776-5.9884 1.0888 6.5328 1.0888-7.0772 5.444 5.444 1.0888-11.432 3.2664 9.7992 0.5444-9.2548 3.8108 10.344 2.722-8.7104 5.444h9.7992l-2.722 3.8108-0.5444 7.6216 3.8108-7.6216 4.3552 2.1776v-7.0772l3.8108 3.2664-0.5444-9.7992 3.2664 2.1776-2.1776-9.7992 7.6216 0.5444-7.0772-4.8996 7.6216-1.0888-4.8996-1.0888 7.0772-1.6332-6.5328-3.2664 9.2548-2.1776-7.0772-3.2664 6.5328-1.0888-4.3552-3.2664 12.521-1.0888-10.561 0.14474 9.4719-3.9555 0.7977-4.2458 9.5089 0.94324-6.6775-2.8305 15.969 1.7779 6.4941 1.6694 21.27 1.597-2.7268 6.5949-2.7268 6.5949-2.7267 6.5949-2.7268 6.5949-9.3071 13.175 3.3474 6.0887-5.7639 2.0393 0.8165 5.0764 5.4822 9.8467-5.9884 2.722 5.444 3.2664-7.0772 4.3552v6.5328l-6.5328 5.444 1.6332 7.0772-1.6332 5.9884-5.444 7.0772-1.6332 6.5328v-7.6216l-5.4439 3.8108 4.8995-7.6216-5.9883 3.8108 3.2664-8.7104-7.0772 2.1776-2.1776 3.8108 0.5444-7.0772 5.9884-3.8108h-7.0772l6.5328-7.0772-5.444-0.5444 4.8996-4.8996-3.2664-5.444 7.0772-5.444-10.888 0.5444 4.3552-5.444-9.2548 4.3552-9.2548 7.6216 4.8996-7.0772-11.432 5.444-7.6216 10.344 1.0888-8.166-6.5328 2.1776 4.3552-5.444-12.521 1.6332 8.166-3.2664-15.788 2.722-7.0772 5.444 3.8108-8.7104-14.699 7.6216-10.888 28.309 5.444 28.309-7.6216-1.0888-5.9884 45.73-15.788 11.977-15.243 4.8996-13.61-13.066-10.344 11.977-4.3552-19.598 1.6332-25.587 2.722-29.398-16.876-40.83 1.0887-21.232 6.5328-8.166-3.2664 2.1776 5.9884-8.166-5.9884 1.6332 8.166-5.9884-3.8108 0.5444 14.699-10.344 7.0772 1.0888-10.888 5.444h7.6216l-7.0772 3.2664h4.3552l-8.166 8.7104 13.066-1.6332-3.2664-2.1776 5.9884-1.6332-4.3552-0.5444 8.7104-7.0772-5.9884 1.0888 7.6216-7.0772-5.444-3.2664h8.7104l-7.6216-3.2664 10.344-2.722-12.521-2.722 12.521-3.8108-6.5328-3.2664 9.7992 1.6332-4.3552-6.5328 9.5451-0.14473-10.96-2.8314 13.827-0.97942-7.5845-1.4885 21.376-2.2138-10.089-0.14557z" fill="#4d3520" fill-rule="evenodd"/>
   <path d="m-2860.3-266.16-0.6849 32.878-2.7398-9.5893 1.0887 28.214-3.1436-9.0359 4.7947 24.658 7.5344 18.494 3.4247 5.4796-7.5344-2.7398 8.9323 6.1085-4.0537-0.9506 0.601 7.8561-15.754 2.0548-4.1097-14.384-0.6849 8.2194-4.1097-9.5893-0.685 5.4796-2.7398-27.398-2.0548 5.4796 1.3699-25.343-2.7398 9.5893-2.0549-34.247 6.3605-21.918z" fill="#3e1f15" fill-rule="evenodd"/>
   <path d="m-2861.8-166.38 1.5984-3.3728 2.597-2.7132 4.957-0.19728 1.2938 4.3694-0.5015 5.1529-2.0994 0.041-7.4179-0.15586z" fill="#fff3d3" fill-rule="evenodd"/>
   <path d="m-2972.9-276.46 5.3247-19.428 0.5025-40.611 6.6882-34.202 5.3347-5.1904 8.7986-23.15 11.788-9.2325-12.685 4.4254 6.1806-7.2107 25.409-13.391-25.752 10.644-10.644 10.301-24.036 49.445 0.3434 32.963-1.0301 13.391z" fill="#4d3520" fill-rule="evenodd"/>
   <path d="m-2937.1-250.17 4.3744 31.217 1.3856-7.5807 1.3857 22.13 2.0784-8.3138-3.1345 24.248 3.2813-9.0066-2.4418 15.935 2.3051-4.3835-2.8381 9.913-1.3289 12.484 2.907-4.4918 0.2112 5.0691 45.305 0.50174-1.7955-10.217 1.4785 2.5345-3.1681-11.405 1.9009 3.3794-3.5378-14.125 0.2641-9.3459-2.2178-13.491 1.6897 4.4354 0.6336-12.039 0.6336 3.3794 2.7458-11.405 0.2112 3.3794 5.0691-18.587 0.2112 5.0691 4.1521-23.697-0.984-13.899 1.6897 6.5476-1.4784-21.332-1.4785 9.5045-1.2673-1.6897-4.2242 25.979-1.9009-12.461-3.8018 18.798-1.2673-14.996-3.8018 18.798-2.957-17.953-3.4897 28.114-1.9317-13.136-2.3181 10.431-3.8634-13.136-0.7726 14.681-8.1132-22.021 0.7727 10.818-1.5454-5.0224-1.5453 6.1814-5.0224-11.977 0.3863 3.8634-3.8634-8.1132-3.0907 19.317-1.5454-6.5678-1.159 10.045z" fill="#3e1f15" fill-rule="evenodd"/>
   <path d="m-2655.2-351.86-6.4214 9.2672 0.5855 9.8129-5.7481-13.137-0.8203 14.777-9.0312-10.674 4.9258 15.602-12.316-14.779-2.4628 4.9258-4.9258-4.1055 3.2832 5.748-9.8535-5.748 4.9277 13.959-13.959-13.959 5.7481 12.316-9.8536-13.137 0.8223 9.8516-17.242-10.674-22.99 4.9277 14.779 2.4629-20.447 2.5869 7.2546 3.9814-19.953 1.5746 9.9195 2.2168 13.373-0.50618-17.242 4.9258 15.6-0.82031-15.6 5.7461-1.6426 17.242 2.4629 17.242 20.527 4.1055 10.408-17.197 10.939-3.3286-7.3887 7.3887-2.219 12.006 6.3245-8.7204 6.5684-0.82227-7.3907 10.674 9.8535 4.1055-5.748 1.6426 7.3906 2.4629-7.5513 3.8994-7.228 7.5967 8.0219-4.4802 11.683 2.0154-6.5684 1.6426 10.674 6.5684-9.0313-2.4629-3.2851 6.5684 1.6425-1.6426 8.211 4.1055-10.674 5.748 13.158-0.26555-11.217 5.7362-5.125-2.2881 4.8239 5.0284 16.422-4.1055-14.779 9.8535 8.2109 0.82031-7.3887 3.2852 10.674 4.9258-9.0332 4.1055 6.5684 1.6426-6.5684 4.1055 8.211-0.82226-9.0313 9.8535 4.1055 0.82032-5.748 4.9258 10.674-4.9258-4.1055 11.496 9.0313-5.748-5.7461 7.3887 5.7461-1.6406-6.5684 6.5684-0.8203-5.748-4.9984 7.7457-0.7497-6.9253-4.9257 4.1055-2.4629-11.977-3.2852 20.188 2.4629 6.5684 45.707-0.49219 1.1504-11.824-8.2656-14.287 4.2148-53.26-2.9023-49.482 17.57-15.162 15.467-12.373 1.8359 2.9121 7.8672 2.7774 10.646 3.7012 13.893-0.46289 8.3223-5.5527-12.494 2.7754-8.7949-6.4785-0.4629 2.7773-4.6289-4.6289 0.4629 4.6289-11.107-15.273 0.9258 5.0918-7.4063-7.4062-4.6269-1.3887z" fill="#4d3520" fill-rule="evenodd"/>
   <path d="m-2750.1-316.53-13.843 9.2285-1.538 7.6904v7.6904l-3.8453-8.4595-1.538-11.536 6.1523-9.9975-9.2285 3.0762-6.9214 9.2285v14.612l2.3071 5.3833-5.3833-7.6904-2.4765-10.297 1.7075-8.1597-6.9214 14.612 1.5381-14.612-11.536 9.2285-0.7691 13.843-3.8452-15.381 3.8452-7.6904-2.3071-10.767-5.3833-3.8452 0.769 5.3833 3.0762 11.536-10.767 9.2285-2.3071 9.9976-0.769-13.074 5.3832-7.6904-13.843 3.0762-2.3072 5.3833-2.3071 5.3833 1.1536 3.4607 1.1536 3.4607-2.6916-3.4607-2.6917-3.4607 1.1535-5.7678 1.1536-5.7678-3.0762 4.9988-3.0761 4.9988 0.769 3.8452 0.769 3.8452-3.0762-7.6904 2.3802-7.8275-4.5225 4.3417 0.5164-5.736-4.8375 2.1372 0.8313-3.5315 4.8997-3.4185-8.6423-2.1588 10.429-7.7235-7.2068-0.79503 3.4607-4.1271 3.4607-1.9226-6.5369 1.9226-6.5368 1.9226 13.843-11.536-10.767 5.3833 6.9213-8.4595-13.843 6.1523 4.6142-6.9214-5.3833 0.76904 8.4595-6.1523h-11.536l8.4594-3.0762-21.533-3.0762 6.9213 5.3833-11.536 3.0762 9.9976 2.3071-10.767 3.8452 9.9975 39.221 1.5381 35.376 46.912 14.612 62.292-7.6904 23.84-13.843 2.3071-26.147-7.6904 8.4595 1.5381-10.767-8.4595 6.1523-3.8452 11.536v-16.15l6.9214-6.9214-13.843 4.6142z" fill="#572a1c" fill-rule="evenodd"/>
   <path d="m-2876.1-281.92v-22.603l-8.2194-20.548 8.2194 11.644 4.1097 9.5893-8.9043-30.823 6.8495 4.1097v-10.959l6.1645 22.603 2.0548 21.233 6.8495 5.4796-0.6849-8.2194 3.4247 7.5344 10.274 8.2194 1.3699 7.5344 1.3699-8.9043 8.2194 8.9043 1.3699 8.9043 6.1645-12.329v9.5893l8.2194-4.1097 4.1097 15.754 2.0548-6.8495 2.7398 8.2194 6.1646-6.8495 1.3699 4.7946 2.0548-6.1645 5.4796 6.1645 5.4796-11.644v12.329l4.1097-6.8495 2.0548 4.7946 2.7398-6.8495 6.1645 7.5344 1.3699-10.959 2.0549 8.2194 3.4247-8.2194 2.7398 7.5344 2.7398-12.329 3.4247 13.014 6.8495-19.179v13.014l4.7947-10.274 0.6849 4.7946 5.4796-17.809 1.3699 14.384 8.5138-14.61-0.8292 30.965-2.9668-6.2379-1.978 6.3219-0.685-2.7398-10.274 2.7398-2.0548 4.7946-2.0549-2.0548-4.7946 4.7946v-4.1097l-2.0549 6.1645-4.7946-3.4247-2.0548 4.7946-12.179-0.38092-2.89 5.1756-4.1097-5.4796-2.0548 6.1645-2.7398-4.1097-2.7398 4.1097-3.4248-4.7946-5.4795 6.8495-2.7398-5.4796-2.7398 4.7946-4.1097-4.1097-4.7946 2.7398 2.0548 4.1097-7.5344-4.1097 0.6849-3.4248-6.8495 3.4248 1.3699 4.1097-3.4247 3.4247 0.6849-4.7946-2.7398-6.8495-5.4795 4.7946-5.4796 7.5344 3.4247-10.959-6.8495 1.3699-1.3699 5.4796-2.7398-8.2194-6.1645 8.2194-3.4247-7.5344-4.7947-14.384 2.0549 15.754-5.4796-10.274v8.9043l-6.1645-13.014v8.9043l-2.7398-16.439z" fill="#31170f" fill-rule="evenodd"/>
   <path d="m-2638.7-393.82 2.8597 5.311-1.6341 3.2683 2.4512 1.2256-1.6342 8.9878-1.6341-5.7195-1.2256 5.7195 0.8171 6.9451-4.494-7.3537-4.4939 6.5366-0.817-5.7195-5.311 7.3537-2.0427-4.0854-1.6342 9.8049-2.4512-7.7622-2.0427 13.482 4.9025 6.9451-24.512-15.116-14.707-62.506 11.848-2.8598 14.707-13.482 19.809 0.47825 8.3675 4.8477-7.426-0.57795 6.1157 2.07-9.7078 1.3527 2.0427-2.0427-7.3537 2.4512-1.6341 2.8598-5.311 6.5366 3.6768-1.2256-4.4939 5.7195-0.4085 9.8049 2.0427 5.7195 0.4085-4.0854 0.7798 7.4282 2.897 1.151 7.333 3.2268-0.1576 1.9681 1.3833-1.5596-0.3837 3.9288 1.3 1.2504-0.483-3.2187 2.0179-1.9606 0.3899 3.8158 2.0613-2.9988 0.8171 4.9024 1.6341-3.6768 0.8544 2.5902 1.1883-1.7732 0.8171 3.2683z" fill="#3e1f15" fill-rule="evenodd"/>
   <path d="m-2712.3-319.69-10.959 8.9043 5.4796-10.274-12.329 6.1645 6.8495-12.329-10.365 4.6159 2.8303-5.3008-11.05 0.50618-7.5345 5.4796 7.5345-8.9043 11.05-0.50618-6.255-3.6035 4.8851-1.8761-17.809-4.7946 13.699-2.0548-18.494-6.1645 17.124-2.0548-6.8495-4.1097h7.5344l-19.178-6.1645 17.809 0.68495-8.9043-4.1097 8.9043-3.4247-16.439-4.7946 15.754-4.1097-9.5893-2.0548 6.8495-0.68495-17.124-3.4247 15.754-3.4247-12.942-0.74369 0.336-5.8514-17.89 17.59 5.1534-13.735-10.783 9.5208 3.9693-11.762-10.584 5.248 0.1009-6.5136-17.27 15.721 11.106-17.776-6.9014 1.5558 8.2975-4.1912-8.2649-1.184 13.206-1.5786-2.2276-5.5611 8.3921 2.1364 18.494-4.7946-13.699-1.3699 21.233-3.4247-14.384-4.1097 17.124-5.4796-11.644-1.3699 13.699-8.9043 8.1025-0.66975-5.794-0.969 14.815-3.1559 5.0587-1.1923 15.49-3.6024 26.028 2.7398-7.5344 4.1097 22.872 3.8104-5.7789 13.577-8.9043 3.9776 9.543 1.545-7.4577 3.1176 8.9043 2.0548-6.8495 10.959 8.9043 3.4247-9.5892 13.699 10.274 12.329-4.1097 4.1097 2.7398 15.754 5.4796 5.4796-10.959-7.5344-2.0548-7.5344-1.3699 15.069-4.7947-19.179-4.7946 6.1645v9.5893l-4.1097-11.644 6.1645-9.5893-6.8494-5.4796-2.7398-13.699-5.4796 8.9043 1.3699 13.699-1.3699-2.7398-2.0549 11.644 0.685 11.644-5.4796 2.0548 2.7398 9.5893 2.0548 21.918-4.1097 9.5893 0.685-10.959-4.1097 6.1645z" fill="#5a2f21" fill-rule="evenodd"/>
   <path d="m-2966-374.23-11.107 21.695-0.3878 27.298-1.0577 18.639 1.0577 27.937-5.2095 17.809 4.1097 28.768-1.5278-26.028 1.9427-8.9043-0.5551 11.934 1.5456 13.444 1.1387 7.1393-1.6681 21.435 1.9404-15.402 1.6904-4.4785-0.7461-16.772 4.8735 14.893-3.2336 6.6913 0.6849 14.384 1.3699-12.329 3.9186-9.6221-4.1097-20.357 4.7947 9.3983 2.0548 19.863 0.018-23.719-7.6134-16.915 2.2917-10.59 2.5641-17.765-1.0427-23.362-0.7405 22.856-3.0114 16.26-3.8081-23.48 1.0683-23.781-0.677-23.146z" fill="#3e1f15" fill-rule="evenodd"/>
   <path d="m-2926.3-164.5 2.4304-2.0354 4.0428-1.2404 4.7596-2.6652 1.7647 3.6093-0.6841 4.2565-2.8635 0.0338-10.118-0.12875z" fill="#fff3d3" fill-rule="evenodd"/>
   <path d="m-2915.1-168.1-0.1418 3.1973-4.9627 2.5578-3.403-2.1315 4.5373-2.9841z" fill="#dcb483" fill-rule="evenodd"/>
   <path d="m-2914.6-169.02 1.1874 2.467-0.2668 3.7767-2.2783 0.57288-9.4962-0.41425-1.9894-0.77172 2.2543 0.23762 1.5392-0.11986-0.089-0.19083-0.089-0.19083 2.0713 0.41425 2.0712 0.41425v-1.2428l2.0712 0.8285 1.2428-2.2784 0.8285 1.2428z" fill="#624343" fill-rule="evenodd"/>
   <path d="m-2912.4-165.39 2.8711-3.1214 4.6648-2.5109 8.9041-0.18257 1.9161 4.8593-1.7166 3.6811-2.5474 0.3098-13.324-0.14424z" fill="#fff3d3" fill-rule="evenodd"/>
   <path d="m-2896.1-168.48-0.2502 3.7534-8.7578 3.0027-6.0053-2.5022 8.0071-3.5031z" fill="#dcb483" fill-rule="evenodd"/>
   <path d="m-2895.1-169.68 1.3589 2.6811-0.1811 2.9492-2.0838 1.4299-10.419 0.80432-4.7113-0.89369-0.09-0.44685 1.4496 0.35748h1.6309l0.906 0.44685 0.09-1.0724 0.8155 0.71495h2.6274l0.5436-0.53621 0.8154 0.2681 0.6342-1.698 1.0872 1.5193 0.1811-0.89369 0.906 0.71496 1.9027-0.0894-0.09-2.1449 0.7248 1.6086 0.8154-0.35747 0.3624-2.5023 0.2718 1.698 0.5436-0.44685-0.1812-2.0555 0.3624 0.62559z" fill="#624343" fill-rule="evenodd"/>
   <path d="m-2891.5-164.99 1.2348-2.5347 2.0061-2.039 3.8293-0.14825 0.9995 3.2836-0.3875 3.8724-1.6217 0.0308-5.7303-0.11713z" fill="#fff3d3" fill-rule="evenodd"/>
   <path d="m-2884.3-167.85-0.1418 3.1973-3.2111 2.5578-3.403-2.1315 2.7857-2.9841z" fill="#dcb483" fill-rule="evenodd"/>
   <path d="m-2883.3-167.43 0.4469 2.2342-0.8044 2.5917-5.6302 0.44685-1.5193-0.71496 1.4299 0.26811v-1.1618l0.2681 0.98306 0.9831-0.53621 0.9831 0.62558 1.7873-0.98306 0.1788 0.53622 0.7149-1.2512 0.1788 0.53621 0.7149-1.8767 0.1787 0.80432z" fill="#624343" fill-rule="evenodd"/>
   <path d="m-2870-163.86 1.6349-2.0318 2.6559-1.6344 5.0699-0.11884 1.3232 2.6321-0.5129 3.1041-2.1472 0.0247-7.5865-0.0939z" fill="#fff3d3" fill-rule="evenodd"/>
   <path d="m-2860.4-163.99 1.4617-4.0575 5.92-2.3876 0.976 4.7071-3.6112 2.337z" fill="#dcb483" fill-rule="evenodd"/>
   <path d="m-2851.9-171.4 0.702 4.2167-0.1257 2.783-1.4462 1.3494-7.2307 0.75901-3.2697-0.84334-0.063-0.42168 1.006 0.33734h1.1318l0.6288 0.42168 0.063-1.012 0.5659 0.67467h1.8234l0.3773-0.506 0.5659 0.25299 0.4401-1.6023 0.7545 1.4337 0.1258-0.84334 0.6287 0.67468 1.3205-0.0844-0.063-2.024 0.5031 1.518 0.5659-0.33733 0.2515-2.3614 0.1886 1.6024 0.3773-0.42168-0.1258-1.9397 0.2515 0.59034z" fill="#624343" fill-rule="evenodd"/>
   <path d="m-2868.7-162.77 1.2867-2.1838 5.211-1.285 0.8591 2.5334-3.1787 1.2578z" fill="#dcb483" fill-rule="evenodd"/>
   <path d="m-2860.4-167.09 0.5373 2.2342-0.9671 2.5917-6.7689 0.44685-1.8265-0.71496 1.719 0.26811v-1.1618l0.3224 0.98306 1.1819-0.53621 1.1819 0.62558 2.1488-0.98306 0.215 0.53622 0.8594-1.2512 0.215 0.53621 0.8595-1.8767 0.2148 0.80432z" fill="#624343" fill-rule="evenodd"/>
   <path d="m-2379.1-350.61-13.707 17.768-30.403 21.454-31.278 7.4821-31.801 1.9551-38.728-3.8635-30.772-9.4186-19.633-7.8272-5.759-5.3363-3.5311-4.3815 5.0883-3.1104 3.0459-2.0306-0.2538 1.523-1.523 1.2691 0.5077 5.838 2.2845-1.0153 4.5689 0.25383-0.5077 1.0153-2.2845 0.25383 1.0154 1.7768 6.5995 0.25383 1.7768-0.50766 3.5536 1.523-3.046 1.0153v1.523l3.5536 1.2692 0.2539-1.7768 2.7921 0.25383-0.7615 2.7921 3.8074 0.76148 2.5383-1.523 3.5536 0.25383v0.76148l-1.7768 0.50766 0.5076 1.523 4.569 1.7768h1.0153l2.5382-1.2691 2.0307 2.0306 3.2997 2.0306-0.2538 2.0306 7.361 1.523 4.0613-0.76149 1.0153 2.7921h4.8227l5.3304-1.0153 1.7768 1.7768 6.3457 0.76148 5.5842-1.523 3.2998 1.2691v1.2691l5.838 0.25383 1.0154-2.2844v1.7768l5.0765 0.50765 4.3151-2.0306 5.838 1.2691 1.7768 1.2691 7.8687-1.0153 0.2538-1.7768 7.1072 2.2844 9.1378-2.2844 2.5383-3.8074 0.2538 2.5383 4.3151-1.0153 1.7768-2.7921 0.5077 1.7768 10.407-1.7768 1.7768-2.5383 3.2998-0.76149 2.5383 0.50766 6.8533-5.0766 2.5383-3.2998 1.7768 1.0153 4.0613-3.2998 2.2844-2.5383 3.5536-1.0153 3.5536-4.8227 0.2538 1.523 2.0307-1.523 2.5382-3.5536 2.2845-1.2692z" fill="#5b3e2e" fill-rule="evenodd"/>
   <path d="m-2973.5-312.47 0.6956-31.303 4.5216-18.086-1.3912 13.217 7.6519-22.26 12.521-11.826-5.9129 10.782-6.2607 10.782-9.0432 23.651z" fill="#31170f" fill-rule="evenodd"/>
   <path d="m-2597.8-398.9-4.8497 7.6786-1.2124-3.6372-3.2331 2.829 1.6166 6.0621v-5.2538l1.6165 4.8496 0.4041 7.6786 0.8083-4.4455-0.4041 11.316 2.8289-8.0828-0.4041-6.4662-0.8083 3.6372 0.4042-6.4662 2.8289 5.6579v4.8496l1.6166-6.0621-1.6166-3.2331 4.8497 2.829 4.4455-1.2124 3.6372-3.6372-5.2538 2.829-3.6372-0.40414-3.2331-2.4248 4.8497 0.80828 3.6372-2.4248-4.417 1.0999-6.1444-2.3583 4.4993-4.3995h5.658l2.8289 1.6166-5.2538-4.4455z" fill="#502d21" fill-rule="evenodd"/>
   <path d="m-2600-392.96 3.5785-4.2996 3.7412-0.23887 3.5785 3.1052-2.9278 1.672-1.9521 1.9109-2.6024 0.23887z" fill-rule="evenodd"/>
   <path d="m-2594.1-395.55 0.427-0.65807 0.4464-0.0366 0.4271 0.47528-0.3494 0.25591-0.233 0.29248-0.3105 0.0366z" fill="#fff" fill-rule="evenodd"/>
   <path d="m-2929.3-379.75-9.8346 14.752 4.9173-12.566-8.7418 13.113-0.5464-7.1028-6.5564 13.113-1.1721-14.691-6.4771 27.804v10.381l2.7319-4.3709 0.5463 15.845 1.6391-12.02 0.5464 18.576 5.4637 10.927-2.1855-11.474 1.8355-3.4077 1.9891 3.9541-0.5464 25.679 2.7319-14.752 0.9339-6.5425 1.0134 9.2651-3.5864 21.318 1.0927 7.6491 2.1855-9.8346 2.1015-7.5605-0.4624 14.117-0.5464 12.566 5.4637-14.206 2.1854 12.02 4.371-9.8346 2.7318-18.576 1.0928 12.02 2.1854-19.123-7.1028-18.03-3.2782 8.7419 2.1855-11.474v-9.2882l7.1028-10.381-1.6391 11.474 2.7318-2.7318-1.6391 18.576 3.8246-10.381 1.6391 14.752 2.1855-8.1955 3.2782 14.206-0.5464 10.381 3.2782-12.566 3.8246 4.4105-0.5464 9.2487 8.829-14.372-6.0972-17.864-1.6391 6.5564 0.5464-16.391-2.7318 6.5564 0.5463-11.474 3.8246-4.3709-5.4637 2.7318 1.0928-6.5564 7.6491-7.1028-9.8346 3.8246-5.4637-4.9173 2.1855-4.3709 8.7419-3.8246-13.113 2.1855 2.1854-8.1955 9.2883-2.1855-13.659 0.54637-8.7419 6.01 1.6391-5.4637 8.7419-4.3709z" fill="#3e1f15" fill-rule="evenodd"/>
   <path d="m-2643.6-424.25h-4.7097l4.7097-3.7026h-8.7466l-5.3826 5.5539h4.037l-6.3918 6.0168-2.0184 6.4796 1.0092-10.645-1.6821 3.2398 1.6821-8.3309 4.7097-5.0911-3.0277-0.46282 7.7373-2.3141 5.3827-1.3885-2.3549 1.8513 7.0645 0.46283-1.0092 2.3141 3.7005 0.46283 3.0277 3.7026 0.6728 3.2398 0.6728 4.1654-3.3641-4.1654 0.6728 5.0911-0.6728 6.9424v-3.7026l-1.0092-5.0911-1.3456 8.3309-0.6729-9.7194z" fill="#4d3520" fill-rule="evenodd"/>
   <path d="m-2646.4-326.86-1.3885 12.496-1.3884-4.6283 0.4628 11.571-1.3885 4.1654v-6.4796l-1.8513-0.92566-0.4628 7.8681-1.3885 5.0911-0.9257-5.5539-1.8513 4.1654 1.3885 6.0168-6.0167-5.5539-2.777 6.0168-0.4628-5.0911-1.8513 7.8681 0.9256 3.7026-3.7026-4.1654v-5.0911l-0.9256 7.8681-1.8514-8.3309-0.4628 9.2565-1.3885 4.1654-1.3884-11.108-1.3885 9.2566-1.3885-6.0168-0.9257 7.4052-2.3141-9.7194-4.6283-5.0911 1.8513 7.8681-5.5539-6.0168-0.4628 7.4052-0.9257-5.0911-0.4628 6.9424-1.8513-6.9424 1.3885-4.6283 3.7026 2.777-0.9257-4.1654 4.6283 1.3885-2.777-9.2565 12.959 7.4052-4.6283-6.9424 4.6283 2.3141-5.5539-10.182 6.0167 6.0168 0.4629-5.0911 3.2398 5.0911 4.1654 2.3141-1.3885-4.6283 3.2398 2.777-6.4796-12.959 0.4629-6.4796 0.9256 5.0911 2.3141-9.2565 0.9257 8.3309 1.3885-4.1654 2.3141 8.7937 0.4628-2.777 4.1655 6.0168-0.4628-4.1654 2.7769 0.46283-2.3141-8.7937 3.2398 4.6283v-2.777l3.7026 3.2398-0.9257-6.4796z" fill="#301c0a" fill-rule="evenodd"/>
   <path d="m-2676.1-427.55 1.5628 6.6974-4.9115-4.2417 1.5628 5.358-4.6883-2.679-0.6697-6.0277-4.2417 8.2602 0.893 3.7952-4.2418-4.9115-0.6697-6.251-3.572 5.1347 5.8045 7.5904 4.6882 3.1255-6.251-1.5627-5.5812-5.8045-4.2417-4.6882-1.5627-2.679 4.2417 10.269-5.5812-5.5812-2.2325-4.9115 0.6697 8.7067 2.679 3.572-7.8137-6.4742-2.9022-3.7952 1.1162 5.1347-4.6882-6.4742-5.5812-2.679-6.0874 4.4362-1.0257-2.6657-13.872 4.2572 6.9207-5.1347 1.1162-3.572 5.8045-0.66974-1.786-3.3487 5.8044-3.3487 15.404 0.89299 33.041 1.786 6.9207 3.572z" fill="#301c0a" fill-rule="evenodd"/>
   <path d="m-2651-438.36 14.003 4.3586 4.7573 7.7306 5.352 5.0546 3.5679 6.5413 0.2974-7.4333 1.4866 7.4333 0.2974-5.9466 1.4866-1.1893-0.5946 6.244 2.676 5.0546-1.1894-4.46 1.1894-3.2706 0.2973 5.6493 2.676-5.6493v4.1626l2.676-4.1626-0.892 3.568 6.8386-5.352 2.3787-4.1626 1.4866-6.244-25.868-10.704h-11.299l-6.5413 1.1893 3.1716 1.828z" fill="#301c0a" fill-rule="evenodd"/>
   <path d="m-2733-434.24-7.868-3.2398 6.9424 0.92565-4.1655-4.1654 6.4796 0.46282-1.3885-3.7026 4.1655 2.777-0.9257-4.1654 7.4053 1.3885-2.3142-2.3141 7.4053 2.777-2.777-3.2398 7.8681 1.8513 0.9256-6.0168 1.3885 4.6283 1.8513-3.7026 2.3141 4.6283 4.1655-6.4796-0.4628 5.0911 4.1654-3.7026-0.4628 3.7026 2.7769-3.7026 0.4629 4.1654 4.1654-5.0911-0.9256 4.6283 3.7026-6.4796-0.9257 6.4796 4.1655-5.0911-0.9257 5.0911 3.7026-4.6283 0.4628 4.6283 6.0168-7.8681-3.2398 6.9424 4.6283-4.6283-0.9257 5.5539 8.7937-6.9424-3.2397 6.4796 7.4052-5.5539-1.8513 5.0911 3.2398-2.777-1.8513 3.7026 4.1654-4.1654 1.8513 4.1654 0.9257-5.5539 4.1654 5.5539 0.4628-6.0168 1.3885 5.0911 2.3141-5.5539 0.9257 5.0911 4.6283-6.0168-2.3142 8.3309 3.7027-4.1654-0.4629 5.0911 4.6283-7.4052-1.3885 7.4052 3.2398-4.1654v3.7026l6.9424-5.5539-1.3885 5.0911 5.0911-4.1654-2.3141 6.4796 7.4053-5.5539-3.2399 4.1654 9.7194-2.777-2.3141 5.0911 7.8681-3.7026-1.3885 4.1654 6.9424-1.8513-3.7026 4.6283 6.0167-2.3141-3.7026 4.1654 9.7194-2.777-4.6283 4.1654 9.2565 0.46283-5.091 1.3885 5.091 3.7026-6.4796 0.46283 4.1655 4.1654-6.4796-3.2398 1.3885 6.0168-3.7026-4.1654v5.0911l-1.8513-7.8681-1.8514 8.3309-0.4628-5.5539-3.7026 6.0168v-5.0911l-3.2398 7.8681 0.9257-6.0168-3.7026 5.5539-0.9257-5.0911-2.3141 2.777-0.4629-6.0168-0.9256 7.8681-4.1655-8.7937-0.9256 5.5539-2.2569-5.4547-0.4628 6.0168-6.2592-6.3683-0.2777-2.9874 4.1082 1.4193 3.9978-1.4082 2.7705-3.8294-4.1214-1.8789-2.7082-0.29889-3.584 0.44217 3.4679 1.3301-2.7737 0.28981 2.4277 1.4601-1.7335 0.15978-5.4966-1.6375-4.1963-5.6686-4.5709 1.5549-7.9518-0.26561 1.8513-2.3141-9.2566 5.0911 1.5912-4.4255-3.5747 2.5301-7.9959 0.70965 6.2768 2.1114-3.2398 3.2398 4.1655 0.92565-8.7938 4.1654-2.3141 5.0911v7.4052l-2.3141-12.496 2.7769-5.5539-5.0911 4.1654 3.2398-4.6283-6.0167 1.3885 1.3885-2.3141-9.7194 3.2398 3.7026-3.7026-10.645 3.2398 0.9256-2.3141-8.3309 2.777 1.8514-2.777-7.8681 1.8513 1.8513-2.3141-7.4052 0.46283-4.6283-1.3885 1.3885 2.3141-6.9424-3.2398 1.3885 2.777-5.0911-2.3141 0.9256 3.7026z" fill="#754316" fill-rule="evenodd"/>
   <path d="m-2609.7-376.7 4.494 7.3537 1.2256 8.5793 1.2256-6.5366 2.4512 14.299 1.2256-4.4939 1.9973 14.707 1.271-2.8598 1.9065-2.5874 0.1816 5.9919 1.7703 1.498 1.1349-6.0827 2.2242 8.8062 1.1348-6.5366 1.5888 6.809 2.2697-3.3137-0.2189 7.3408-5.5051 7.1375 4.9259 2.7198 4.5194 5.8711-0.055 3.1264-1.8849 2.4148-2.3491-1.3277-2.3491-1.3278-2.3491-1.3277-2.3491-1.3278-6.6383 0.71351-12.352 1.5133 8.3963-3.9591 1.0961-1.231-2.7237-2.4425-1.3617-4.9112 3.2683-0.40854-5.311-4.0854-6.9451 0.81707 6.9451-3.2683-5.311-0.40853-3.6768 4.9024 2.0427-7.7622-4.9025 6.128-0.4085-6.128-2.0427 6.5366-2.0427-6.5366-0.8171 4.4939-2.8597-9.8049-0.4086 5.311-1.6341-7.7622 0.8171-5.311 2.4512 2.8598v-5.311l2.4512 3.6768-0.4085-7.7622 4.0854 4.0854 0.817 6.128 0.8171-6.9451-2.0427-6.5366 3.6768 2.8598 1.6342 4.4939 0.4085-8.1708-1.2256-4.0854 3.6769 3.2683 2.4512 4.4939-2.0427-9.8049-2.8598-6.5366 4.4939 3.2683z" fill="#4d3520" fill-rule="evenodd"/>
   <path d="m-2549.3-394.04-2.4789-1.8032 1.7352 3.1556-2.479-0.6762 0.7438 2.9302-3.4706-1.127 1.2395 1.5778-3.4705-0.22539 2.231 2.9302-3.4706-0.45079 2.2311 1.5778-3.7184 0.2254 1.7352 1.127-2.4789 0.45081 2.4789 1.3524-1.7352-0.4508 2.7269 2.254-0.4958-3.1556 2.231 0.2254-0.7437-1.127 2.231 0.22541-0.2478-3.381h2.231l-0.7436-1.5778 2.7268 1.127v-2.0286l2.4789 1.127-1.4873-2.7048 2.7268 1.3524z" fill="#301c0a" fill-rule="evenodd"/>
   <path d="m-2533-379.05-2.6565-1.5021 1.8596 2.6286-2.6566-0.56327 0.797 2.4409-3.7193-0.93879 1.3283 1.3143-2.3954 0.19258 1.0671 2.0605-2.0061-0.14732 0.678 1.0861-2.5055 0.26382-0.4764 1.3952-1.8-0.15694-2.5837 1.6953 2.2603-0.90231 1.1314 0.50841 2.3799-1.3014 1.9236 0.0356-0.3296-0.78666 1.8457-0.42077 0.2795-2.2078h2.3909l-0.797-1.3143 2.9223 0.9388v-1.6898l2.6564 0.93879-1.5939-2.2531 2.9222 1.1266z" fill="#301c0a" fill-rule="evenodd"/>
   <path d="m-2525.7-370-2.6565-1.6628 1.8596 2.9098-2.6566-0.62353 0.797 2.702-3.7193-1.0392 1.3283 1.4549-2.3954 0.21318 1.0671 2.281-2.0061-0.16308 0.678 1.2023-2.5055 0.29205-0.4764 1.5444-1.8-0.17374-2.5837 1.8767 2.2603-0.99884 1.1314 0.5628 2.3799-1.4407 1.9236 0.0395-0.3296-0.87082 1.8457-0.46577 0.2795-2.444h2.3909l-0.797-1.4549 2.9223 1.0392v-1.8706l2.6564 1.0392-1.5939-2.4941 2.9222 1.2471z" fill="#301c0a" fill-rule="evenodd"/>
   <path d="m-2505.9-338.32 18.286-0.94992 25.173-8.0743 31.585-15.674 13.299-14.011 6.6564-7.4364-11.881 15.273-7.3619 7.1244-8.7868 4.0372-7.5993 5.2246-2.1374-0.23748-15.199 8.3118-5.6995 0.71244-17.336 6.412-18.286 1.4249z" fill="#aca58f" fill-rule="evenodd"/>
   <path d="m-2501.8-336.13-2.6273-2.3026 1.5033 3.4703-2.8273-1.1964 0.3643 3.036-3.9262-1.852 1.1937 1.815-4.086-0.967 2.1325 3.3556-4.046-1.1882 2.3726 2.0281-4.4609-0.57783 1.8631 1.4791-3.0271-0.0902 2.7072 1.8602-1.9831-0.81539 2.8422 2.7984-0.03-3.204 2.6124 0.70066-0.684-1.266 2.6123 0.70064 0.3052-3.3719 2.6525 0.47942-0.6043-1.7085 3.042 1.6922 0.3599-1.9912 2.7471 1.6389-1.2883-2.9745 3.0019 1.9134z" fill="#301c0a" fill-rule="evenodd"/>
   <path d="m-2509-349.36-2.5972-1.5556 1.8182 2.7224-2.5973-0.58337 0.7791 2.5279-3.6361-0.97227 1.2986 1.3612-2.3419 0.19945 1.0433 2.134-1.9613-0.15257 0.6628 1.1248-2.4496 0.27322-0.4657 1.4449-1.7597-0.16254-2.526 1.7558 2.2097-0.93448 1.1062 0.52653 2.3267-1.3478 1.8807 0.0369-0.3223-0.81471 1.8045-0.43577 0.2732-2.2866h2.3375l-0.7791-1.3612 2.8569 0.97228v-1.7501l2.5971 0.97227-1.5583-2.3334 2.8569 1.1667z" fill="#301c0a" fill-rule="evenodd"/>
   <path d="m-2517.4-358.96-3.2201-1.5884 2.2541 2.7797-3.2202-0.59565 0.9661 2.5812-4.5083-0.99275 1.6101 1.3898-4.5081-0.19854 2.898 2.5811-4.5082-0.3971 2.8982 1.3898-4.8303 0.19854 2.2541 0.99275-3.2201 0.3971 3.2201 1.1913-2.2541-0.39711 3.5423 1.9855-0.6441-2.7797 2.8981 0.19856-0.966-0.99275 2.898 0.19855-0.3219-2.9782h2.8981l-0.966-1.3899 3.5422 0.99275v-1.7869l3.22 0.99275-1.932-2.3826 3.5421 1.1913z" fill="#301c0a" fill-rule="evenodd"/>
   <path d="m-2540.1-387.07-3.0122-1.9346 2.1087 3.3856-3.0124-0.7255 0.9037 3.1438-4.2172-1.2092 1.5061 1.6928-4.217-0.24183 2.7109 3.1438-4.2171-0.48367 2.7111 1.6928-4.5186 0.24183 2.1087 1.2092-3.0122 0.48367 3.0122 1.451-2.1087-0.48368 3.3137 2.4183-0.6026-3.3856 2.711 0.24183-0.9035-1.2092 2.7109 0.24183-0.3011-3.6275h2.711l-0.9037-1.6928 3.3135 1.2092v-2.1765l3.0122 1.2092-1.8074-2.902 3.3135 1.451z" fill="#301c0a" fill-rule="evenodd"/>
   <path d="m-2572.7-415.35 14.506 8.219 9.7393 5.1015-6.0291-0.92755 6.0291 3.7102 5.1015 3.7102-5.1015-0.46377 6.029 6.0291 5.4416 2.5584 4.6763 0.60287-5.0164 1.0127 6.4929 4.174-4.174-0.46378 11.594 9.2755-5.1016-1.3913 8.348 7.8842-1.8551-1.3913 7.8841 6.4928 4.174 6.0291-4.174-2.3189 4.514 6.5933 7.0804 5.9286-3.2464-0.92754 7.4203 6.9566 4.6378 8.8117-6.0291-6.9566 3.2464 5.5653-3.7102-2.3189 5.1016 6.9566-4.6378-2.7826 0.9276 2.7826-7.4204-8.8117 1.3913 4.6377-5.1015-6.9566 3.2464 0.92755-6.4928-6.9566 5.5653 3.2464-6.4929-8.8117-2.8831-3.3315 2.4194 1.4764-9.2755-10.203 7.4204 4.174-9.2755-6.9566 3.7102 1.3913-13.913-9.7392 7.4203 4.174-10.203-11.594 4.6378 2.7826-11.594-9.7392 5.1015 2.3189-7.8841-5.5653-3.7102-0.46377 6.029 5.5653-14.377-8.8117 5.1016 1.3913-10.667-5.1015 5.5652 1.8551-10.203-8.8117 10.667 4.174-7.4204-5.1015 4.6378 1.8551-14.377-11.594 12.058 6.4928z" fill="#754316" fill-rule="evenodd"/>
   <path d="m-2492.6-271.54 0.9822-3.3272-2.249 2.6263-0.8577-1.9598-1.513 1.6179-1.0836-2.8118-0.3759 1.448-1.6688-2.4712-0.7352 2.6404-1.5225-2.5564 0.1428 2.1298-2.0912-2.4716 0.1761 1.6187-1.5892-1.5341 0.4187 2.2151-0.6149-1.3633-0.037 2.7261 1.7887-1.5327 1.0206 1.619 0.3427-0.93678 1.0204 1.619 2.065-1.4472 1.1669 1.534 0.6352-1.1072 0.6947 2.3004 1.3168-0.76605 0.5649 2.1299 0.9778-2.044 0.5483 2.3855z" fill="#301c0a" fill-rule="evenodd"/>
   <path d="m-2489.8-285.54-0.346-3.0461-0.8764 3.2608-1.2213-1.9776-1.1349 2.01-1.6107-2.8623-0.072 1.6328-1.5641-1.3464-0.7216 1.9383-1.106-1.32-0.3111 1.0924-1.6772-1.3694-1.2078 0.57846-0.976-1.1998-2.6701-0.52448 1.9521 0.82097 0.3427 1.0097 2.2877 0.64533 1.1303 1.1999 0.322-0.69239 1.3853 0.86755 1.6265-1.2058 1.4343 1.4637 0.3905-1.3075 1.1326 2.3744 1.1165-1.0538 0.9732 2.2117 0.5328-2.3808-0.2664 2.733z" fill="#301c0a" fill-rule="evenodd"/>
   <path d="m-2488.5-296.07-1.153-3.6974-1.3361 3.3268-1.5117-2.3751-0.9985 2.1592-2.0204-3.4208 0.096 1.8451-2.5002-2.9424 0.1242 3.3689-2.3803-3.0621 0.8445 2.6517-2.9275-2.9051 0.7101 2.0092-2.1117-1.7772 1.1516 2.7337-1.0701-1.6506 0.8588 3.4137 1.3057-2.0771 1.5645 1.9343 0.039-1.2027 1.5644 1.9342 1.613-1.9949 1.6845 1.8147 0.2786-1.4418 1.4588 2.8158 1.08-1.076 1.2716 2.6141 0.3172-2.6445 1.3387 2.9353z" fill="#301c0a" fill-rule="evenodd"/>
   <path d="m-2498.7-249.44 0.056-2.2705-1.7396 2.27-0.5706-1.6353-1.0068 1.35-0.721-2.3462-0.2502 1.2082-1.1104-2.062-0.4892 2.2032-1.013-2.133 0.095 1.7771-1.3915-2.0623 0.1172 1.3506-1.0574-1.2801 0.2785 1.8483-0.4091-1.1376-0.024 2.2747 1.1902-1.2789 0.6791 1.351 0.228-0.78166 0.679 1.3509 1.3741-1.2075 0.7764 1.28 0.4227-0.92384 0.4622 1.9195 0.8762-0.6392 0.3758 1.7772 0.6507-1.7055 0.3649 1.9905z" fill="#301c0a" fill-rule="evenodd"/>
   <path d="m-2495.4-260.54 0.4354-2.4188-1.4354 2.598-0.9992-1.6502-0.9285 1.6772-1.3176-2.3884-0.059 1.3624-1.2795-1.1234-0.5904 1.6173-0.9048-1.1014-0.2545 0.91147-1.3721-1.1426-0.988 0.48268-0.7984-1.0011-2.1844-0.43763 1.5969 0.68503 0.2805 0.84253 1.8714 0.53847 0.9247 1.0012 0.2634-0.57774 1.1334 0.72389 1.3306-1.0061 1.1733 1.2213 0.3194-1.091 0.9266 1.9812 0.9134-0.87931 0.7961 1.8455 0.4359-1.9866 0.2069 2.0789z" fill="#301c0a" fill-rule="evenodd"/>
   <path d="m-2715.5-166.42 2.1802-3.5703 3.5423-2.8721 6.7614-0.20882 1.7647 4.6252-0.6841 5.4546-2.8635 0.0433-10.118-0.16499z" fill="#fff3d3" fill-rule="evenodd"/>
   <path d="m-2713-166.58 2.9781-3.1194 6.3799 0.21118-1.0115 4.6996-4.2479 0.67645z" fill="#dcb483" fill-rule="evenodd"/>
   <path d="m-2702.6-171.25 1.1874 3.1614-0.2668 4.8398-2.2783 0.73412-9.4962-0.53085-1.9894-0.98892 2.2543 0.3045 1.5392-0.1536-0.089-0.24454-0.089-0.24454 2.0713 0.53084 2.0712 0.53085v-1.5925l2.0712 1.0617 1.2428-2.9196 0.8285 1.5925z" fill="#957a7a" fill-rule="evenodd"/>
   <path d="m-2700.4-167.51 2.8711-4.0808 4.6648-3.2828 8.9041-0.23869 1.9161 6.353-1.7166 4.8127-2.5474 0.40503-13.324-0.18858z" fill="#fff3d3" fill-rule="evenodd"/>
   <path d="m-2683.2-168-4.3523-3.1194-5.7086 0.49814-3.8768 2.9842 2.1979 2.4097 5.75-0.30491z" fill="#dcb483" fill-rule="evenodd"/>
   <path d="m-2683-175.59 1.3589 4.4371-0.1811 4.8808-2.2865 2.9745-10.216 0.72308-4.7113-1.479-0.09-0.73953 1.4496 0.59162h1.6309l0.906 0.73952 0.09-1.7748 0.8155 1.1832h2.6274l0.5436-0.88741 0.8154 0.44369 0.6342-2.8101 1.0872 2.5143 0.1811-1.479 0.906 1.1832 1.9027-0.14795-0.09-3.5497 0.7248 2.6622 0.8154-0.5916 0.3624-4.1413 0.2718 2.8101 0.5436-0.73952-0.1812-3.4018 0.3624 1.0353z" fill="#937171" fill-rule="evenodd"/>
   <path d="m-2679.5-167.9 1.2348-4.1948 2.0061-3.3744 3.8293-0.24535 0.9995 5.4342-0.3875 6.4086-1.6217 0.051-5.7303-0.19385z" fill="#fff3d3" fill-rule="evenodd"/>
   <path d="m-2673-172.96-3.9312 0.83505-1.0704 3.1858 1.6286 3.3687 2.7281-0.0417 1.2535-3.1192z" fill="#dcb483" fill-rule="evenodd"/>
   <path d="m-2671.3-171.93 0.4469 3.6975-0.8044 4.2892-5.6302 0.73952-1.5193-1.1832 1.4299 0.44371v-1.9227l0.2681 1.6269 0.9831-0.88741 0.9831 1.0353 1.7873-1.6269 0.1788 0.88742 0.7149-2.0706 0.1788 0.88741 0.7149-3.1059 0.1787 1.3311z" fill="#937171" fill-rule="evenodd"/>
   <path d="m-2926.4-229.82 0.7385-11.421 1.1079 4.1877 1.4771-3.0456 2.5849 4.5684 1.1079-7.2332 1.8463 12.182 1.4771-5.3298 1.8464 6.0912 1.4771-4.1877 3.3235 5.3298 1.1079-5.3298 1.1077 5.3298 4.8006-4.5684 0.3693 5.3298 2.9542-8.3753 1.4771 6.8525 1.4772-11.421 1.477 11.421 4.8006-11.04-4.8006 17.893 1.8464-3.0456-2.585 11.802 1.4771 17.131-4.0619-6.0912 4.0619 18.273-2.9541-4.9491 1.8463 7.9946-3.3234-6.4718-0.3693 5.3298-5.1699-12.563-0.3693 6.8525-3.3234-20.558v7.6139l-2.5849-9.8981-1.4772 5.7104-1.1078-4.1877-2.2157 14.466-1.4771-6.4718-0.7385 17.893-1.4772-6.0912-0.7384 10.66-2.2157-4.5684-1.1078 4.5684-0.7386-6.8525-2.5849 3.4263 2.5849-13.705-2.2157 3.0456 1.4772-14.086-2.2157 4.5684 3.6928-16.37-2.2157 4.5684-0.3693-9.8981-1.4771 3.807z" fill="#4d3520" fill-rule="evenodd"/>
   <path d="m-2876.4-267.98-11.159 49.264-1.0887-6.2601-0.2722 14.425-1.9052-4.3549 2.7218 13.881-0.5444 9.5262 3.8105 13.609-2.9939-3.5383 6.8044 14.153-5.4435-4.627 2.1774 4.8992-3.5383-2.994 0.8165 2.1774-2.994-1.6331-1.0887 7.0766-4.627 0.27218 1.9052-1.6331-2.1774-7.8932 0.5444 4.0827-4.0827-4.0827-0.2722 5.4436-1.6331-5.9879-1.633 4.3549-2.4496-4.0827-0.8166 4.627-1.3609-2.4496-2.4496 4.3548 0.8166-4.627-2.7218 5.1714 0.5443 2.1774-1.633-0.27218 0.2721-2.994-2.7218-4.8992-0.2721 3.2661-1.3609-2.4496-1.9053 4.0827v-2.4496l-3.8105 1.6331-0.8165 2.4496-0.8165-1.9052-1.3609 2.1774-0.5444 1.3609h-1.9052l-0.5444-5.1714-3.2661 3.8105 1.633-12.792 2.1775-8.7097-1.6331 3.8105 2.4496-15.242-0.2722 9.5262 1.6331-2.4496-2.1774 18.508 2.7217-4.0827-1.3609 8.1654 5.1714-6.5323-0.5443 3.8105 4.8992-4.8992 1.0887 2.1774 2.4496-3.8105 1.3609 7.3488 3.8105-9.5262 0.5444 6.2601 2.4496-4.0827 1.633 1.9052 2.994-3.2661 2.7218 4.0827-0.2722-4.8992 5.9879 6.8045-1.9052-7.8932 2.994 3.8105-2.7218-16.603 2.4496 3.8105-1.0887-24.224 2.4496 4.8992-1.9053-13.337 2.1775 2.1774 0.5443-11.432 1.0887 1.6331 1.0887-11.432 0.8166 2.4496z" fill="#301c0a" fill-rule="evenodd"/>
   <path d="m-2863.9-239.13 1.3609 25.04-2.994-8.9819 1.9053 10.343 2.7217 15.514 10.615 22.319-6.5323-4.0827 7.8932 7.621-5.9879-2.1774 4.627 5.1714-8.4375-5.1714 2.1774 3.8105-4.627-2.1774 2.4496 2.994-1.9053-0.27218 1.0888 3.2662-5.1715-1.3609 1.0888 2.1774-2.7218-2.1774-4.3549 4.627-11.159 0.27218-1.9053-0.54436 4.0827-0.81654 2.994 0.54436 1.9052-2.7218 2.4496 1.6331 4.6271-4.8992 3.5383 0.81654v-6.8045l3.5383 1.6331-2.7218-5.1714 3.5384 2.4496-6.5323-14.698 3.8105 3.8105-5.4436-16.331 3.2661 3.8105-4.3548-26.129 2.1774 2.7218 0.2722-8.7097 1.0887 2.1774z" fill="#301c0a" fill-rule="evenodd"/>
   <path d="m-2673-283.97 4.1233 35.985-0.7497 59.226-7.1221 6.3724-2.624-4.873 5.6228-5.2479 1.1245-24.74-1.8742 7.1221 1.8742-21.741v-31.862l-1.4994 5.2479z" fill="#301c0a" fill-rule="evenodd"/>
   <path d="m-2723.7-227.07-0.3035 12.448 1.4994 10.871 0.6887-3.0685 2.3101 13.189 0.3748-20.992-2.9988 3.3736-0.5573-17.726z" fill="#301c0a" fill-rule="evenodd"/>
   <path d="m-2679.2-280.46 4.4352 37.901-2.0031 25.538-1.6213-4.2563-2.0269 31.415 7.7018 12.769 2.8376 5.675 1.6214 2.4322-4.459-2.6348-3.2428-4.459 1.4187 5.4723-3.0402-2.8375-2.0268 5.2697 0.6081 4.6616-5.2697 0.20268 2.6348-5.675-3.0402-6.4857 0.4054 4.6616-3.2429-4.0536-1.216 3.0402 0.2026-3.2429-2.2294 2.0268 0.8107 4.2563-2.4322-4.6616 0.6081-1.4188-2.2295 0.81072-1.6214 5.4724v-4.2563l-2.4322 1.8241-1.0134 4.0536-0.4054-2.2295-0.608 1.8241 1.0134 4.0536-2.6348 0.20268v-4.8643l-2.4322-5.067-1.2161 4.459-0.4053-4.2563-2.6349 0.20268-1.216 3.0402-0.2027-3.2429-3.8509 3.2429 1.4187 2.4322-2.4321-1.2161-0.8107 2.4322 0.4053 2.4322h-5.2696l-1.4188-7.2965 2.4322 3.4456 0.608-4.0536 0.8107 2.8375 3.4456-8.7152 0.2026 4.459 2.8376-2.2295 0.2026 1.6214 5.6751-1.6214 2.2294-1.8241v2.2295l2.8375 1.6214 1.6215-4.6616 0.2027 3.2429 2.0268-2.6348 0.8107 2.2295 3.8509-8.5125 0.4053 5.2697 1.0134-3.2429 0.8108 2.8375 2.2294-11.755 2.2295 7.7018 0.608-3.6482 1.0134 2.0268-0.4053-20.876 1.4187 2.2295 2.4322-29.389 1.2161 2.0268-1.4188-46.616 2.3637 6.4382z" fill="#301c0a" fill-rule="evenodd"/>
   <path d="m-2610-345.94-3.8691 2.1875 1.0097 2.0195 7.7403 1.5137 10.448 8.6768 4.3581 4.694 4.8809 2.8783 5.2207 6.7529-0.4629 2.0156-1.541 0.73437-9.5157-5.4375-8.7919 0.86545-10.372 5.4375-13.737 0.49393-4.3496-2.9902 0.8145 2.9902-13.051-9.5156 1.0879 4.0781-5.166-8.9727-5.9824-1.9043 3.2636 10.332 1.4147-1.3594 1.8471 3.5352 18.762 5.9824 13.794-0.128 7.9497-4.935 12.787-1.1695 9.5156 5.4161 2.9514-1.6132 0.1177-3.9082-2.0788-6.1232-12.045-10.096-7.4043-8.918-5.2168-3.1973z" fill="#301c0a" fill-rule="evenodd"/>
   <path d="m-2567-339.87 46.542 16.851 38.156 5.2713 27.942-2.0137 38.41-8.3511 23.781-14.918-22.908 15.511-39.784 8.7387-7.0195 0.73404-7.6597 1.2276-1.5684-0.82636-10.35 0.87217-40.553-5.7394-24.927-8.7571-1.9364-0.13944-2.0758-1.6404-15.246-4.0122-9.2199-1.4684 3.6028-1.7413 6.0183 1.2037z" fill="#aca58f" fill-rule="evenodd"/>
   <path d="m-2587.3-326.95 6.2894-5.59 6.2894-5.59 11.75-0.6106-2.4942-2.2278-11.165 0.29232-14.322 10.821z" fill="#301c0a" fill-rule="evenodd"/>
   <path d="m-2583.3-331.43 9.2897 7.8034 43.104 15.978 47.011 5.1419 29.182-1.7097 31.568-7.8912 28.218-19.338 14.886-18.564-13.006 18.579-29.356 19.694-31.568 8.6344-31.04 1.7097-45.896-4.3987-45.705-16.721-10.033-7.4318z" fill="#341c18" fill-rule="evenodd"/>
   <path d="m-2465.9-310.3 16.279-2.7131 11.87-4.4088-13.905 0.33914-6.7827 3.0522-13.566-0.33914-12.887 2.0348z" fill="#dbdbbd" fill-rule="evenodd"/>
   <path d="m-2505.6-314.69-6.7207 1-15.21-0.80002-9.1969-4.8001-1.7686-2.2 20.162 3.2001z" fill="#dbdbbd" fill-rule="evenodd"/>
   <path d="m-2576.3-333.04-0.6187 3.4237 4.3298-0.0794-1.1934-2.2254 2.238-2.6576-2.3778-1.3987z" fill="#5b3e2e" fill-rule="evenodd"/>
   <path d="m-2570.5-337.22-0.5582 3.8395 1.9582 0.13988 2.4963-2.2304z" fill="#5b3e2e" fill-rule="evenodd"/>
   <path d="m-2569.9-330.13 0.5595 1.8183 2.2379-0.69936-0.4196-2.3778z" fill="#5b3e2e" fill-rule="evenodd"/>
   <path d="m-2564.1-329.45-0.2798 2.6576 2.1687 0.48262 0.349-3.1402z" fill="#5b3e2e" fill-rule="evenodd"/>
   <path d="m-2434.2-356.49-5.7604 1.7456-6.4586 6.6332-2.6184 1.0474 4.7131-0.52368 2.7929-4.364 10.648-4.7131 2.4438-2.6184z" fill="#dbdbbd" fill-rule="evenodd"/>
   <path d="m-2465.8-339.74-5.7604 3.8403-5.5858 0.69823-5.0622 2.2693-4.1894-0.52368 12.568-4.8876 2.7929 0.69823z" fill="#dbdbbd" fill-rule="evenodd"/>
   <path d="m-2520.3-211.64-1.2248 14.698 3.2662 9.3902 6.9406 8.5737-2.0414 7.7571-8.1654 3.6744-4.8992-3.2662 9.7985-3.2662 2.4496-5.3075-6.1241-5.3075-2.8579-13.881z" fill="#301c0a" fill-rule="evenodd"/>
   <path d="m-2950.4-382.19-7.0592 37.138 0.3069 9.5146 2.7623-5.2177v16.574l2.1485-9.8215 0.3069 18.108 5.8315 10.128-3.0692-11.663 2.1485-3.0692 2.1484 4.9108-0.6138 23.94 3.0692-14.118 0.6138-7.0592 0.9208 12.277-4.6038 20.871 1.2277 8.9008 4.9107-20.257-2.4554 34.068 9.5147 37.445-5.8315-39.9 3.3761-34.989-4.297-11.356 1.5347-8.2869-2.7623-2.7623-6.1385-31.613 1.2277 20.257-8.5939-19.95 4.297-7.98z" fill="#301c0a" fill-rule="evenodd"/>
   <path d="m-2871.3-297.67-4.7077 25.349 1.4485 21.004 1.8107-11.226 3.9834 13.399 0.7243-9.7776 5.432 11.588-1.0864-14.485 7.2426 21.004 6.8805-9.4154 2.1728 7.9669 1.8107-5.7941 7.2426-0.36213-4.7077 13.037 5.432-7.9669 5.7941-5.7941 2.5349 4.3456-2.1728-10.14 4.7078-9.4154-6.1563 9.7776-1.4485 5.0698-8.3291-1.0864-3.6213-5.7941 3.6213-10.502-0.3621-6.5184-1.0864 9.0533-6.5184 7.6048 1.4486 3.6213-6.8806 4.7077-3.6213-14.485 4.7077-8.329-1.0864-9.0533-1.8106 9.4154-5.432 6.8805-3.2592 2.1728-3.6213-12.675-1.0864 8.329-1.4485-7.6048 2.897-9.0533z" fill="#301c0a" fill-rule="evenodd"/>
   <path d="m-2704.5-301.16-3.5433 8.0988-5.0617 1.5185-5.0618 1.5185h9.1112l5.5679-2.5309 1.0124 5.0618-2.5309 4.0494-6.0741 2.0247-4.5556 5.568 7.0865-4.0494h6.5803l4.5556-4.0494-1.5186 8.605-5.0617 5.0618-3.5433 4.0494 7.0865-4.5556 1.5185 6.0741-3.5432 6.0741h5.0618l-2.0248 6.0741h4.0495l-7.0865 5.0618 8.0988 0.50618-6.5803 5.568 8.605-3.0371 0.5062 10.63-4.0494 6.5803 6.5803-6.0741 1.5185-8.0988 1.0124 6.0741 2.5309-8.0988-2.5309-6.5803 3.5432 3.0371-6.5803-15.692 5.0618 5.568-7.5927-18.729 5.0618 5.0618-4.0494-11.136v-6.5803l5.5679 6.5803-3.037-13.667-6.0742-8.0988 0.5062 5.0618-3.037-3.0371 1.5185 8.605-5.0618-8.605 2.0247-8.0988z" fill="#301c0a" fill-rule="evenodd"/>
   <path d="m-2711.3-404.3-3.9624 9.7406 1.9811 11.46-3.4671-6.8757 2.9719 22.346-1.9812 9.1676-0.9907-10.314 0.4953 25.211 4.4578 13.178-1.9812 7.4487-0.4953-8.5947-6.9343 6.3028 3.9625-9.1676-6.4391 3.4379 3.4672-11.46-4.9531 6.8758-7.4295 0.57297 7.4295-2.2919 2.4766-6.8758-11.392-1.146 8.4202-1.7189-3.9625-3.4379 6.439-3.4379-1.9813-7.4487-4.953 1.7189 4.4578-4.0108-1.4859-6.3028-5.9437-2.2919 8.9155-0.57299 2.4765-4.0108-4.4577 0.57298 2.9718-3.4379-6.9343 0.57297 5.9437-4.0108-2.9718-4.5838-5.4484-1.7189 6.439-2.8649-0.4954-4.5838-4.4577-4.0108-9.4108 4.0108 6.439-5.1568 7.9249-1.7189-3.4671-2.8649-5.4484-2.8649-8.4202-2.2919 14.364 1.146 7.4296 2.2919 2.4765 5.1568 5.4484-1.7189 0.4952-7.4487 8.9155-2.2919-6.4389 5.1568z" fill="#3e1f15" fill-rule="evenodd"/>
   <path d="m-2662.6-424.42-3.1936 3.9645-0.4405 10.572 2.3126 5.3962 0.2203-4.6253 0.7709 7.2683 10.682 4.6253-0.4405 2.2025 1.3215-1.5418-0.4405 4.0746 1.8722 1.1013-1.1013-3.3038 2.0924-1.762 0.2203 3.6341 2.3126-3.4139 0.7709 5.286 1.5417-3.8544 1.1013 2.8633 1.4316-1.9823 0.5506 3.6341 2.0924-3.524 3.3038 5.6164-1.6519 2.7531 2.8633 1.762-1.762 4.6253-2.7532-6.7176-2.9734 8.1493-5.0657-8.4797-0.4405 9.4708-1.5418-6.7176-3.9645 6.8278-1.9823-7.1582-3.4139 0.11012-0.5506 6.2772-1.4316-6.2772-4.405 1.3215 4.6252-6.2772-2.3126-1.3215 5.1759-1.9822-3.524-0.88101 4.2949-1.762-9.1404-3.524 2.8632-0.33038-1.762-2.8633-2.3126-0.22025-1.1013-5.6164 0.5507-0.99112-1.4317-7.8189 1.2114-2.2025 0.6608-3.1936z" fill="#301c0a" fill-rule="evenodd"/>
   <path d="m-2797.3-301.11-3.7291 12.978 3.4184 1.545-2.4861 9.5787 4.9721 11.124-1.243-12.051 3.1075-11.124-2.7968-5.2529 1.5538-13.596z" fill="#301c0a" fill-rule="evenodd"/>
   <path d="m-2776-305.44 0.5085 13.077 2.5426 2.5148-3.0511 6.0354 1.7798 11.568 1.7797-12.071 2.7969-4.0236-3.3053-7.5442z" fill="#301c0a" fill-rule="evenodd"/>
   <path d="m-2757.6-294.84-3.8845 13.066 3.8845 10.241-1.4125-10.241z" fill="#301c0a" fill-rule="evenodd"/>
   <path d="m-2813.4-298.46-3.5596 8.9426 5.3818-1.4073-4.4919 9.0724 4.7461 7.6651-1.1865-8.3038c1.0791-2.7808 4.617-12.238 4.0257-10.843l-3.7291-0.44142 1.4832-9.3684z" fill="#301c0a" fill-rule="evenodd"/>
   <path d="m-2787.3-289.54 2.8251 7.0627-2.1188 9.5346 3.5313-8.4752 1.4125 3.5313-0.3531-6.7095z" fill="#301c0a" fill-rule="evenodd"/>
  </g>
 </g>
</svg>
