<?xml version="1.0" encoding="UTF-8" standalone="no"?>
<!-- Created with Inkscape (http://www.inkscape.org/) -->

<svg
   xmlns:dc="http://purl.org/dc/elements/1.1/"
   xmlns:cc="http://creativecommons.org/ns#"
   xmlns:rdf="http://www.w3.org/1999/02/22-rdf-syntax-ns#"
   xmlns:svg="http://www.w3.org/2000/svg"
   xmlns="http://www.w3.org/2000/svg"
   xmlns:sodipodi="http://sodipodi.sourceforge.net/DTD/sodipodi-0.dtd"
   xmlns:inkscape="http://www.inkscape.org/namespaces/inkscape"
   id="svg4483"
   version="1.1"
   inkscape:version="0.48.1 "
   width="271.25"
   height="113.75"
   xml:space="preserve"
   sodipodi:docname="Ferret_5.pdf"><metadata
     id="metadata4489"><rdf:RDF><cc:Work
         rdf:about=""><dc:format>image/svg+xml</dc:format><dc:type
           rdf:resource="http://purl.org/dc/dcmitype/StillImage" /><dc:title></dc:title></cc:Work></rdf:RDF></metadata><defs
     id="defs4487" /><sodipodi:namedview
     pagecolor="#ffffff"
     bordercolor="#666666"
     borderopacity="1"
     objecttolerance="10"
     gridtolerance="10"
     guidetolerance="10"
     inkscape:pageopacity="0"
     inkscape:pageshadow="2"
     inkscape:window-width="640"
     inkscape:window-height="480"
     id="namedview4485"
     showgrid="false"
     inkscape:zoom="1.7695853"
     inkscape:cx="135.625"
     inkscape:cy="56.875"
     inkscape:window-x="570"
     inkscape:window-y="95"
     inkscape:window-maximized="0"
     inkscape:current-layer="g4491" /><g
     id="g4491"
     inkscape:groupmode="layer"
     inkscape:label="Ferret_5"
     transform="matrix(1.25,0,0,-1.25,0,113.75)"><g
       id="g4493"
       transform="scale(0.24,0.24)"><path
         d="m 455.168,228.395 0.836,0.421 3.484,-0.421 19.516,-6.27 1.812,1.254 22.856,-7.941 0.976,1.671 0,0.418 2.79,-0.136 7.523,-4.321 3.348,-0.836 2.648,1.532 10.871,-5.016 1.949,-0.141 1.813,1.672 0.836,-0.136 1.535,-2.372 8.363,-3.902 3.485,-0.836 1.949,1.254 1.676,-0.137 3.902,-4.461 9.336,-3.621 3.625,1.114 6.551,-5.157 7.527,-2.925 2.789,0.699 0.836,0.277 2.508,-1.531 -0.141,-1.254 13.383,-7.109 1.809,-0.137 16.449,-11.008 6.551,-5.156 11.707,-5.574 4.183,-2.09 5.156,-1.395 6.133,-0.136 16.586,1.253 6.41,2.09 24.672,1.672 15.891,1.395 11.289,-1.118 5.297,1.395 20.207,-0.977 15.473,-1.531 5.992,-1.812 12.129,-1.532 5.992,-2.371 9.476,-0.836 20.352,-6.828 10.871,-6.824 3.207,-3.066 14.078,-9.336 4.879,-2.231 7.941,-0.695 5.997,-0.977 5.851,-2.23 7.25,-6.965 -1.394,-6.269 -4.739,-4.879 -2.929,-1.532 5.855,-4.1793 -0.141,-1.2539 5.161,-1.8125 1.531,-1.1133 -6.274,-1.2539 0.7,-2.2305 0,-0.5586 -2.789,-1.1132 3.207,-2.5079 -0.977,-1.2539 -1.672,0.1368 -0.418,-4.0391 -1.672,-0.6953 3.203,-2.0899 -0.972,-1.2539 -8.922,-1.5351 0.695,-1.3907 0,-0.8359 -9.894,-2.2305 -1.672,-0.6992 -0.836,0.4219 -16.309,-5.2969 -2.925,-2.7851 -9.063,-4.1836 -8.918,-1.3907 -10.453,0 -13.66,4.875 -10.176,3.2071 -3.207,2.0898 -2.785,0.2774 -4.879,2.2304 -7.805,1.9493 -5.297,-0.2774 -5.855,1.8125 -7.945,-0.1406 -7.805,0.6953 -3.484,-0.5547 -3.485,1.6719 -6.828,0.5547 -0.836,2.3672 -5.855,0.5586 -11.989,-5.293 -5.433,-3.0664 -5.715,-3.9024 -3.762,-22.1523 2.09,-5.5742 2.367,-3.0664 9.34,-3.4844 13.797,-2.2266 5.855,-2.2304 3.903,-4.875 5.996,-2.7891 2.367,-1.6719 -0.977,-2.0898 -1.812,0.1406 0.141,1.3906 -3.344,1.1172 -5.438,-1.2539 -0.277,-3.207 -1.813,-0.6953 -3.343,1.2539 -4.324,0.4179 -1.672,0.9766 -1.672,0.1367 -3.067,-2.7851 -1.672,0.5547 0.137,0.4218 -7.801,1.6719 -13.66,2.0898 -4.461,0.836 -2.511,0.2773 -14.356,6.8282 0.141,0.8359 -5.02,2.6484 -34.426,25.6367 -6.41,6.4102 -14.218,8.082 0.14,0.5547 -4.32,0.836 -3.207,1.9531 -9.477,1.8125 -4.32,0.8359 -12.965,1.2539 -1.949,-0.8398 0.137,1.3945 0.976,0 0.836,0.2774 -0.836,0.5586 -7.109,-1.1133 -3.762,-2.3672 -4.879,-6.2735 0.281,-5.5703 6.551,-6.4101 -0.14,-0.836 10.175,-3.625 14.774,-10.8671 -0.141,-1.6719 -2.785,-0.6953 -0.699,1.3906 -0.836,0.5586 -2.649,0.1406 -0.836,-0.2812 -6.273,-0.836 -1.949,-2.5078 -1.672,0.1406 -0.699,1.5313 -0.836,0.418 -0.977,0.1406 -1.808,-0.836 -6.973,1.6719 -3.344,0.2774 -1.812,-1.2539 -0.137,-0.418 0.836,-0.5547 -0.836,-0.2813 -1.676,0.1407 0,1.2539 -1.531,1.1133 -2.789,-0.2774 -16.305,4.3203 -5.855,1.3907 -11.707,7.3867 -15.473,22.1562 -7.109,7.3828 -8.364,4.3203 2.094,2.9258 -2.512,1.6719 -0.976,0 2.094,2.5078 -12.129,2.5078 -13.657,1.2539 -7.667,2.9258 -8.782,-0.9726 -5.297,0.4179 0.141,1.8089 -9.617,0.836 -5.992,0.14 3.066,-4.738 -0.977,-1.2539 -1.812,-0.6953 -4.18,2.0898 -1.675,1.1133 -3.485,0.2813 -1.254,-4.3204 -5.851,2.3672 -3.625,-0.6953 -1.672,1.1133 -0.836,0.1406 -1.953,-2.6484 -4.461,-0.418 -2.508,2.5078 -5.855,1.8125 -11.29,1.5313 -16.168,4.1792 -0.976,-0.417 -4.18,2.23 -3.344,0.695 -9.339,3.625 -5.715,4.039 -0.696,2.371 -5.855,4.04 -7.109,-1.532 -1.672,1.114 -8.922,-1.95 -23.832,-2.789 -1.813,0.699 -2.507,0.278 0,0.418 -14.774,1.812 -10.316,0.836 -7.805,1.531 0,0.418 -2.508,0.7 -2.512,0.136 -2.089,-3.203 -3.762,-1.949 -1.117,-2.512 -2.649,-2.09 -1.812,0.282 -1.391,3.621 -6.832,1.113 -1.812,-0.695 -3.762,-1.949 -1.953,-1.672 0,-0.418 -1.672,0.136 -2.367,4.321 -0.84,0.558 -2.645,-0.695 -6.968,1.113 -1.536,0.973 -7.527,-4.18 -3.066,3.762 -2.508,1.254 -1.672,-0.836 -3.625,0.281 0,0.555 -6.828,2.23 -3.067,3.903 0.137,1.394 -5.015,3.621 4.32,6.688 4.18,8.223 0.699,8.5 0.972,0.417 0,0.836 -2.367,1.532 -10.453,1.535 -5.855,2.226 -6.969,0.7 0,0.836 -3.344,1.253 -12.965,1.114 -4.875,3.621 -12.965,1.676 -0.835,2.785 -6.692,1.531 -6.133,0.559 -5.015,2.648 -18.2581,2.09 -1.5352,1.113 3.7617,2.371 -12.9609,2.926 -1.6719,1.113 0.9766,1.254 -2.3711,1.531 -11.1484,1.954 -1.8125,1.113 0.1367,1.254 0.8359,0 2.7891,0.976 0.1406,0.418 -10.3164,2.785 -0.9766,0.559 0.1407,1.395 2.789,0.554 0,0.418 -15.4726,2.371 -0.836,0.137 -1.6718,0.977 0,0.976 7.246,1.531 -10.3125,2.79 -8.7812,0.835 -0.6953,1.391 -0.8399,0.418 8.086,1.117 -1.6719,1.114 -7.8047,1.113 -5.1562,1.812 0.1367,1.395 0.9765,-0.141 0.836,0.418 -1.6719,0.977 -8.78124,0.836 -0.69532,1.394 6.26954,0.278 0.83592,0 0.836,0.418 0.1406,0.417 -11.148462,2.368 0.136718,1.254 0.835934,0 2.78907,2.925 12.26564,-1.113 1.8125,0.699 8.6406,-0.836 11.4297,0.836 -0.6992,1.809 0.9765,0.418 9.3399,-3.203 9.4765,-0.836 0.836,0.418 12.1289,-3.344 13.6562,-2.648 2.7891,-0.141 11.5703,-6.547 3.3442,-0.836 5.019,-3.484 4.875,-3.203 3.484,-0.282 3.903,-4.457 6.832,-2.371 8.363,-4.457 0.977,0.418 2.508,-0.277 7.527,-4.738 1.672,-0.141 1.812,-1.113 0.836,0.418 3.485,-0.282 4.179,-2.644 5.02,-1.254 5.297,-0.559 3.066,-4.32 13.656,-3.621 1.676,-0.977 0.836,-0.136 8.641,7.8 10.035,5.016 -6.969,0.559 2.789,2.507 22.719,7.383 -2.649,0.7 0.137,2.226 17.981,5.574 1.117,-0.136 1.672,0.695 -8.504,2.09 0.976,1.394 8.086,1.949 22.02,2.926 0.836,-0.554 4.601,1.39 -4.32,1.254 -0.836,0.141 0.141,1.254 20.347,2.648 6.969,0.277 1.953,2.508 10.731,1.813 3.484,-0.418 1.254,3.066 12.965,0.137 12.402,-0.695 0.836,0.418 -2.648,1.671 2.929,0.977 19.93,-0.836 1.953,2.09 6.27,0.277 4.183,-0.418 14.914,-0.418 2.649,1.114 32.195,-3.481 0.836,-0.418 1.672,-0.14 1.953,1.671 18.121,-2.23 13.797,-3.484 0,0 z M 426.316,105.5 l 0,0 -2.507,0.277 -3.485,0.836 -1.812,-0.418 4.179,-2.507 3.625,1.812"
         style="fill:#d3d2d2;fill-opacity:1;fill-rule:nonzero;stroke:none"
         id="path4495" /><path
         d="m 455.168,228.395 0.836,0.421 3.484,-0.421 19.516,-6.27 1.812,1.254 22.856,-7.941 0.976,1.671 0,0.418 2.79,-0.136 7.523,-4.321 3.348,-0.836 2.648,1.532 10.871,-5.016 1.949,-0.141 1.813,1.672 0.836,-0.136 1.535,-2.372 8.363,-3.902 3.485,-0.836 1.949,1.254 1.676,-0.137 3.902,-4.461 9.336,-3.621 3.625,1.114 6.551,-5.157 7.527,-2.925 2.789,0.699 0.836,0.277 2.508,-1.531 -0.141,-1.254 13.383,-7.109 1.809,-0.137 16.449,-11.008 6.551,-5.156 11.707,-5.574 4.183,-2.09 5.156,-1.395 6.133,-0.136 16.586,1.253 6.41,2.09 24.672,1.672 15.891,1.395 11.289,-1.118 5.297,1.395 20.207,-0.977 15.473,-1.531 5.992,-1.812 12.129,-1.532 5.992,-2.371 9.476,-0.836 20.352,-6.828 10.871,-6.824 3.207,-3.066 14.078,-9.336 4.879,-2.231 7.941,-0.695 5.997,-0.977 5.851,-2.23 7.25,-6.965 -1.394,-6.269 -4.739,-4.879 -2.929,-1.532 5.855,-4.1793 -0.141,-1.2539 5.161,-1.8125 1.531,-1.1133 -6.274,-1.2539 0.7,-2.2305 0,-0.5586 -2.789,-1.1132 3.207,-2.5079 -0.977,-1.2539 -1.672,0.1368 -0.418,-4.0391 -1.672,-0.6953 3.203,-2.0899 -0.972,-1.2539 -8.922,-1.5351 0.695,-1.3907 0,-0.8359 -9.894,-2.2305 -1.672,-0.6992 -0.836,0.4219 -16.309,-5.2969 -2.925,-2.7851 -9.063,-4.1836 -8.918,-1.3907 -10.453,0 -13.66,4.875 -10.176,3.2071 -3.207,2.0898 -2.785,0.2774 -4.879,2.2304 -7.805,1.9493 -5.297,-0.2774 -5.855,1.8125 -7.945,-0.1406 -7.805,0.6953 -3.484,-0.5547 -3.485,1.6719 -6.828,0.5547 -0.836,2.3672 -5.855,0.5586 -11.989,-5.293 -5.433,-3.0664 -5.715,-3.9024 -3.762,-22.1523 2.09,-5.5742 2.367,-3.0664 9.34,-3.4844 13.797,-2.2266 5.855,-2.2304 3.903,-4.875 5.996,-2.7891 2.367,-1.6719 -0.977,-2.0898 -1.812,0.1406 0.141,1.3906 -3.344,1.1172 -5.438,-1.2539 -0.277,-3.207 -1.813,-0.6953 -3.343,1.2539 -4.324,0.4179 -1.672,0.9766 -1.672,0.1367 -3.067,-2.7851 -1.672,0.5547 0.137,0.4218 -7.801,1.6719 -13.66,2.0898 -4.461,0.836 -2.511,0.2773 -14.356,6.8282 0.141,0.8359 -5.02,2.6484 -34.426,25.6367 -6.41,6.4102 -14.218,8.082 0.14,0.5547 -4.32,0.836 -3.207,1.9531 -9.477,1.8125 -4.32,0.8359 -12.965,1.2539 -1.949,-0.8398 0.137,1.3945 0.976,0 0.836,0.2774 -0.836,0.5586 -7.109,-1.1133 -3.762,-2.3672 -4.879,-6.2735 0.281,-5.5703 6.551,-6.4101 -0.14,-0.836 10.175,-3.625 14.774,-10.8671 -0.141,-1.6719 -2.785,-0.6953 -0.699,1.3906 -0.836,0.5586 -2.649,0.1406 -0.836,-0.2812 -6.273,-0.836 -1.949,-2.5078 -1.672,0.1406 -0.699,1.5313 -0.836,0.418 -0.977,0.1406 -1.808,-0.836 -6.973,1.6719 -3.344,0.2774 -1.812,-1.2539 -0.137,-0.418 0.836,-0.5547 -0.836,-0.2813 -1.676,0.1407 0,1.2539 -1.531,1.1133 -2.789,-0.2774 -16.305,4.3203 -5.855,1.3907 -11.707,7.3867 -15.473,22.1562 -7.109,7.3828 -8.364,4.3203 2.094,2.9258 -2.512,1.6719 -0.976,0 2.094,2.5078 -12.129,2.5078 -13.657,1.2539 -7.667,2.9258 -8.782,-0.9726 -5.297,0.4179 0.141,1.8089 -9.617,0.836 -5.992,0.14 3.066,-4.738 -0.977,-1.2539 -1.812,-0.6953 -4.18,2.0898 -1.675,1.1133 -3.485,0.2813 -1.254,-4.3204 -5.851,2.3672 -3.625,-0.6953 -1.672,1.1133 -0.836,0.1406 -1.953,-2.6484 -4.461,-0.418 -2.508,2.5078 -5.855,1.8125 -11.29,1.5313 -16.168,4.1792 -0.976,-0.417 -4.18,2.23 -3.344,0.695 -9.339,3.625 -5.715,4.039 -0.696,2.371 -5.855,4.04 -7.109,-1.532 -1.672,1.114 -8.922,-1.95 -23.832,-2.789 -1.813,0.699 -2.507,0.278 0,0.418 -14.774,1.812 -10.316,0.836 -7.805,1.531 0,0.418 -2.508,0.7 -2.512,0.136 -2.089,-3.203 -3.762,-1.949 -1.117,-2.512 -2.649,-2.09 -1.812,0.282 -1.391,3.621 -6.832,1.113 -1.812,-0.695 -3.762,-1.949 -1.953,-1.672 0,-0.418 -1.672,0.136 -2.367,4.321 -0.84,0.558 -2.645,-0.695 -6.968,1.113 -1.536,0.973 -7.527,-4.18 -3.066,3.762 -2.508,1.254 -1.672,-0.836 -3.625,0.281 0,0.555 -6.828,2.23 -3.067,3.903 0.137,1.394 -5.015,3.621 4.32,6.688 4.18,8.223 0.699,8.5 0.972,0.417 0,0.836 -2.367,1.532 -10.453,1.535 -5.855,2.226 -6.969,0.7 0,0.836 -3.344,1.253 -12.965,1.114 -4.875,3.621 -12.965,1.676 -0.835,2.785 -6.692,1.531 -6.133,0.559 -5.015,2.648 -18.2581,2.09 -1.5352,1.113 3.7617,2.371 -12.9609,2.926 -1.6719,1.113 0.9766,1.254 -2.3711,1.531 -11.1484,1.954 -1.8125,1.113 0.1367,1.254 0.8359,0 2.7891,0.976 0.1406,0.418 -10.3164,2.785 -0.9766,0.559 0.1407,1.395 2.789,0.554 0,0.418 -15.4726,2.371 -0.836,0.137 -1.6718,0.977 0,0.976 7.246,1.531 -10.3125,2.79 -8.7812,0.835 -0.6953,1.391 -0.8399,0.418 8.086,1.117 -1.6719,1.114 -7.8047,1.113 -5.1562,1.812 0.1367,1.395 0.9765,-0.141 0.836,0.418 -1.6719,0.977 -8.78124,0.836 -0.69532,1.394 6.26954,0.278 0.83592,0 0.836,0.418 0.1406,0.417 -11.148462,2.368 0.136718,1.254 0.835934,0 2.78907,2.925 12.26564,-1.113 1.8125,0.699 8.6406,-0.836 11.4297,0.836 -0.6992,1.809 0.9765,0.418 9.3399,-3.203 9.4765,-0.836 0.836,0.418 12.1289,-3.344 13.6562,-2.648 2.7891,-0.141 11.5703,-6.547 3.3442,-0.836 5.019,-3.484 4.875,-3.203 3.484,-0.282 3.903,-4.457 6.832,-2.371 8.363,-4.457 0.977,0.418 2.508,-0.277 7.527,-4.738 1.672,-0.141 1.812,-1.113 0.836,0.418 3.485,-0.282 4.179,-2.644 5.02,-1.254 5.297,-0.559 3.066,-4.32 13.656,-3.621 1.676,-0.977 0.836,-0.136 8.641,7.8 10.035,5.016 -6.969,0.559 2.789,2.507 22.719,7.383 -2.649,0.7 0.137,2.226 17.981,5.574 1.117,-0.136 1.672,0.695 -8.504,2.09 0.976,1.394 8.086,1.949 22.02,2.926 0.836,-0.554 4.601,1.39 -4.32,1.254 -0.836,0.141 0.141,1.254 20.347,2.648 6.969,0.277 1.953,2.508 10.731,1.813 3.484,-0.418 1.254,3.066 12.965,0.137 12.402,-0.695 0.836,0.418 -2.648,1.671 2.929,0.977 19.93,-0.836 1.953,2.09 6.27,0.277 4.183,-0.418 14.914,-0.418 2.649,1.114 32.195,-3.481 0.836,-0.418 1.672,-0.14 1.953,1.671 18.121,-2.23 13.797,-3.484 0,0 z M 426.316,105.5 l 0,0 -2.507,0.277 -3.485,0.836 -1.812,-0.418 4.179,-2.507 3.625,1.812 z"
         style="fill:none;stroke:#d3d2d2;stroke-opacity:1;stroke-width:0.9;stroke-linecap:butt;stroke-linejoin:miter;stroke-miterlimit:4;stroke-dasharray:none"
         id="path4497" /><path
         d="m 456.422,373.863 0.836,0.84 3.484,0 20.074,-8.64 1.672,2.507 23.414,-11.285 0.836,3.621 0,0.836 2.789,0 7.805,-6.965 3.484,-0.836 2.508,3.344 11.293,-7.805 1.949,0 1.672,3.485 0.836,0 1.813,-4.32 8.64,-5.993 3.489,-1.113 1.808,2.785 1.676,0 4.32,-7.941 9.618,-5.293 3.621,2.785 6.972,-8.777 7.664,-4.321 2.789,1.672 0.836,0.836 2.508,-2.508 0,-2.648 14.078,-11.285 1.672,0 17.422,-18.254 7.109,-8.777 12.125,-8.641 4.321,-3.621 5.297,-1.672 6.132,0.836 16.45,5.293 6.132,5.156 24.391,7.805 15.609,5.293 11.43,0 5.156,3.484 20.211,1.672 15.614,0 6.132,-2.508 12.125,-0.976 6.133,-3.344 9.617,0 20.907,-9.613 11.429,-11.426 3.344,-5.156 14.914,-15.747 5.156,-3.48 7.809,0 6.27,-0.836 5.996,-3.484 7.804,-12.262 -0.836,-12.262 -4.32,-10.453 -2.648,-3.344 6.132,-7.105 0,-2.508 5.297,-2.508 1.672,-1.949 -6.133,-3.344 0.836,-4.32 0,-0.977 -2.508,-2.648 3.344,-4.316 -0.836,-2.649 -1.672,0 0,-7.941 -1.812,-1.672 3.484,-3.485 -0.836,-2.507 -8.781,-4.461 0.836,-2.508 0,-1.813 -9.48,-6.128 -1.809,-1.672 -0.836,0.836 -15.754,-13.098 -2.508,-5.852 -8.781,-9.613 -8.641,-4.461 -10.453,-1.672 -14.078,6.965 -10.453,4.32 -3.344,3.485 -2.789,0 -5.156,3.344 -7.805,2.648 -5.297,-1.813 -5.996,2.649 -7.941,-1.813 -7.809,0 -3.484,-1.671 -3.484,2.648 -6.969,0 -0.973,4.32 -5.996,0 -11.43,-12.125 -5.156,-6.824 -5.297,-8.7812 -1.672,-43.6133 2.508,-10.4492 2.789,-5.1562 9.617,-5.1563 13.797,-1.9492 6.133,-3.3438 4.324,-8.7773 6.133,-4.3203 2.649,-2.6484 -0.977,-4.32036 -1.672,0 0,2.50786 -3.347,1.8125 -5.297,-3.4844 0,-6.12893 -1.813,-1.67188 -3.344,1.67188 -4.461,0 -1.671,1.67187 -1.813,0 -2.648,-5.992184 -1.813,0.835938 0,0.976566 -7.805,1.67187 -13.937,1.67188 -4.32,0.83593 -2.649,0 -14.914,10.58986 0,1.8125 -5.015,4.1797 -36.661,43.6133 -6.968,11.2851 -14.914,13.2383 0,0.8359 -4.321,0.836 -3.484,3.4804 -9.477,1.8125 -4.461,0.836 -12.961,0 -1.953,-1.8086 0,2.6445 0.977,0 0.976,0.8362 -0.976,0.976 -6.969,-3.4841 -3.625,-5.2929 -4.18,-12.961 0.836,-10.5859 6.969,-11.2891 0,-1.8125 10.453,-5.2929 15.75,-18.2539 0,-3.4844 -2.789,-1.6719 -0.836,2.6484 -0.836,0.836 -2.507,0 -0.977,-0.836 -6.133,-2.6484 -1.672,-5.293 -1.672,0 -0.836,2.7852 -0.976,0.8359 -0.977,0 -1.672,-1.9492 -6.968,1.9492 -3.485,0 -1.672,-2.7851 0,-0.836 0.836,-0.8359 -0.836,-0.8359 -1.812,0 0,2.5078 -1.676,1.9492 -2.644,-1.1133 -16.59,5.293 -6.133,1.8125 -12.266,12.2617 -17.422,39.9922 -7.664,13.0937 -8.781,6.9686 1.672,6.129 -2.508,2.649 -0.976,0 1.812,5.156 -12.265,2.648 -13.938,0 -7.668,4.18 -8.781,-3.484 -5.297,0 0,3.484 -9.477,0 -6.132,-0.836 3.484,-8.641 -0.836,-2.507 -1.672,-1.813 -4.461,3.484 -1.672,1.672 -3.484,0 -0.836,-8.5 -6.133,3.344 -3.484,-1.668 -1.813,1.668 -0.836,0 -1.812,-5.293 -4.32,-1.672 -2.649,4.457 -5.996,2.508 -11.426,0.84 -16.449,5.293 -0.977,-0.977 -4.32,3.625 -3.484,0.836 -9.617,5.156 -6.133,6.825 -0.836,4.461 -6.133,6.964 -6.969,-4.457 -1.812,1.813 -8.641,-5.156 -23.418,-9.614 -1.949,0.836 -2.508,0 0,0.836 -14.914,0.973 -10.453,0 -7.809,1.672 0,0.836 -2.644,0.836 -2.512,0 -1.812,-6.825 -3.485,-4.46 -0.836,-5.157 -2.648,-4.316 -1.672,0 -1.672,7.105 -7.109,0.836 -1.672,-1.812 -3.625,-4.321 -1.672,-3.484 0,-0.832 -1.672,0 -2.789,7.801 -0.836,0.836 -2.508,-1.813 -7.109,0.977 -1.672,1.812 -6.969,-9.613 -3.484,6.824 -2.508,1.813 -1.812,-1.813 -3.485,0 0,0.977 -7.109,3.484 -3.344,6.828 0,2.645 -5.297,6.133 3.485,13.793 3.484,16.582 0,16.582 0.836,0.976 0,1.672 -2.508,2.508 -10.457,1.113 -6.133,3.344 -6.968,0 0,1.672 -3.485,1.812 -12.961,0 -5.297,6.129 -13.101,0.836 -0.977,5.297 -6.828,1.672 -6.133,0 -5.297,4.32 -18.398,0.836 -1.6719,1.949 3.6211,5.157 -13.2383,3.484 -1.6758,1.672 0.8399,2.644 -2.5117,2.512 -11.2891,1.949 -1.9492,1.672 0,2.649 0.8359,0 2.7852,2.508 0,0.835 -10.4532,3.622 -0.9765,0.836 0,2.507 2.6484,1.813 0,0.836 -15.75,1.812 -0.8359,0 -1.6719,1.809 0,1.676 6.9688,4.457 -10.5938,3.343 -8.6406,0 -0.836,2.649 -0.9765,0.836 7.9453,3.621 -1.6719,1.672 -7.9453,0.836 -5.2969,2.648 0,2.649 0.9766,0 0.9766,0.836 -1.9532,1.671 -8.6406,0 -0.97656,2.649 6.27346,1.672 0.8359,0 0.836,0.836 0,1.113 -11.28911,2.508 0,2.648 0.83594,0 2.50781,6.129 12.40626,0 1.6719,1.672 8.7812,0 11.2891,3.484 -0.9766,3.485 0.9766,0.836 9.4804,-4.321 9.6133,0 0.8399,0.836 12.4023,-4.32 13.8008,-2.645 2.7852,0 12.1287,-10.312 3.344,-1.113 5.297,-5.993 5.156,-5.296 3.625,0 4.32,-7.801 6.969,-3.485 8.781,-6.964 0.836,0.836 2.508,0 7.945,-7.805 1.672,0 1.813,-1.813 0.84,0.977 3.48,0 4.461,-4.32 5.156,-1.809 5.297,0 3.348,-7.805 14.074,-4.461 1.676,-1.672 0.836,0 7.945,16.583 9.617,11.289 -7.109,0 2.648,5.293 21.883,18.253 -2.789,0.836 0,4.321 17.422,14.07 1.117,0 1.672,1.672 -8.781,2.648 0.836,2.649 7.945,5.156 21.746,9.613 0.832,-0.836 4.461,3.485 -4.461,1.808 -0.832,0 0,2.512 20.07,8.777 6.969,1.672 1.672,5.293 10.453,5.156 3.625,0 0.836,6.133 12.961,2.508 12.266,0.973 0.976,0.836 -2.789,2.648 2.789,2.649 19.93,1.671 1.812,4.457 6.133,1.672 4.184,0 14.914,1.676 2.644,2.645 32.2,-0.836 0.976,-0.836 1.672,0 1.672,3.484 18.398,-0.976 13.938,-4.321 0,0 z M 439,130.719 l -2.648,0 -3.485,0.836 -1.672,-0.836 4.321,-4.317 3.484,4.317"
         style="fill:#231f20;fill-opacity:1;fill-rule:nonzero;stroke:none"
         id="path4499" /><path
         d="m 428.547,370.52 2.648,1.675 0,1.668 -1.812,1.813 17.422,-0.973 10.453,-3.348 5.297,-2.785 7.668,-0.836 13.101,-5.992 0,-0.836 7.805,0 19.234,-7.941 0.836,0.976 8.781,-3.625 2.508,0.977 3.625,0 10.453,-6.133 0.836,0.836 0.836,0 2.649,-2.508 0.836,0.836 6.132,-4.457 6.133,-0.836 7.668,-6.968 23.696,-13.098 5.296,-3.344 2.508,0 28.711,-26.195 7.11,-9.613 7.804,-6.969 2.508,0.836 9.617,-10.45 17.426,0 16.586,6.969 7.945,5.153 23.414,7.945 15.75,4.457 8.782,0 6.968,3.344 14.637,0.836 17.563,0 8.64,-2.508 9.617,-0.836 6.969,-4.457 4.461,1.672 4.32,0 7.805,-5.157 1.813,-1.671 3.343,0 4.461,-3.625 3.485,0 19.093,-23.407 3.625,-1.812 7.805,-7.801 -8.641,-4.32 -0.976,-2.649 4.324,0 7.942,4.321 13.8,0 6.133,-3.485 2.649,-6.129 4.46,-5.156 -3.488,-17.418 -6.969,2.508 -0.835,0.976 2.511,0.836 1.672,0 0.836,0.836 0,1.672 -13.801,6.129 -1.672,1.813 -2.785,-1.813 -0.84,-0.836 2.512,-2.508 2.785,0 0,-0.836 4.321,-1.949 0,-5.156 8.644,-5.297 -0.836,-3.344 1.672,-5.293 0.977,-0.836 0.836,-5.992 5.296,-1.949 -3.484,-4.32 0,-5.297 -0.84,0 -0.972,-0.836 0,-2.508 3.484,-2.644 -2.512,-1.813 -0.972,-0.836 1.812,-5.992 -3.625,-1.949 -0.836,-0.836 0,-2.512 5.297,-2.644 0.836,0.835 -11.289,-6.968 0,-4.321 -10.594,-5.293 -9.48,-8.64 -0.836,-0.836 -4.321,6.133 -1.812,5.156 -6.969,4.457 0,15.469 6.133,-2.508 4.32,2.508 8.782,0 7.808,6.269 0,4.321 0.836,0 4.32,13.097 -2.511,3.344 -2.645,0 -5.297,-3.344 -8.644,-2.648 -12.266,-14.77 0,-2.648 -1.672,1.672 -3.621,-6.965 0,-14.774 1.949,-2.644 0,-2.649 -13.242,1.813 -11.289,-3.484 -0.836,0.836 1.672,4.32 -1.672,1.808 1.672,9.618 -1.672,3.48 0,4.461 -1.672,1.672 -0.976,0 -0.977,-0.836 -5.015,13.793 -12.407,7.945 -8.504,0 -8.781,-4.32 -0.973,0 -0.835,0.836 -1.813,-1.672 0,-3.625 8.781,-7.801 6.133,-5.156 2.649,0 1.671,-1.949 18.258,0 1.813,-7.664 -0.977,-7.805 -2.508,1.672 -14.914,-11.285 -1.672,-12.262 -11.289,3.484 -32.336,0 0.973,0.836 0,1.809 -1.812,1.672 -8.778,-0.836 2.785,2.508 0,1.953 -6.132,0.836 -2.649,0 0.836,0 1.813,1.672 -0.836,2.648 -6.274,0.836 -2.508,0 8.782,3.48 -0.977,4.321 -7.805,0.836 -2.648,0 2.648,0.976 0,3.485 -4.461,2.644 -6.828,0.836 5.992,2.512 0,2.785 -0.835,0.836 -4.321,1.672 -8.781,1.812 0,1.672 5.156,0.836 2.789,0 2.508,2.649 -4.18,4.316 3.344,1.812 0,3.485 -0.836,0.836 -2.508,0 4.18,1.812 0.836,0 0.977,0.836 0,2.508 -5.157,2.785 8.641,3.344 -1.813,3.625 5.297,2.644 0,3.344 5.297,2.649 0,3.484 7.668,4.32 15.75,2.785 2.649,3.344 1.808,0 0.836,5.297 4.324,0.836 3.621,3.48 -1.949,1.672 -5.16,-2.507 -7.805,-0.836 -2.648,-1.809 -0.836,-1.812 0,-2.508 -2.648,0 -0.836,-0.977 0,-2.508 -6.133,-0.836 -2.649,2.508 -5.992,1.813 -2.789,11.285 0.977,5.297 6.968,6.965 6.969,1.671 6.133,5.297 10.453,-1.812 5.996,0 3.621,-3.485 5.161,-1.671 9.617,-8.778 1.812,0 0.836,0.836 0,1.813 -14.078,12.121 -9.48,4.461 -9.618,0 -2.507,1.672 -7.946,-3.485 -10.453,-6.969 -3.484,-0.835 -4.321,-8.778 0.836,-12.121 1.672,-5.297 5.297,-3.344 -2.648,-2.785 0.976,-0.836 -3.625,-1.672 -1.672,-3.484 -3.484,0 -4.461,-4.461 0.977,-0.836 0,-1.672 -3.485,0 -3.625,-3.48 0,-1.813 1.117,-0.836 -2.789,-0.976 -0.836,-1.672 0,-2.508 2.508,-2.785 -2.508,-1.672 -1.671,-1.672 1.671,-3.484 -3.484,-1.813 -0.836,-2.648 3.484,-2.508 -5.296,-1.808 -0.836,-0.836 0,-2.649 6.968,-5.156 3.625,-0.836 -4.461,-1.949 0,-2.512 3.344,-2.644 -9.476,-12.262 -1.813,5.293 -2.508,0 -7.945,-6.965 -2.508,6.965 -1.672,0 -7.945,-10.449 -4.461,10.449 -3.348,0 -9.617,-11.285 -2.648,-2.508 -2.649,5.015 -1.671,0 -0.836,0.977 -8.782,-12.262 -5.293,10.45 -1.675,0 -3.485,-4.18 -1.672,-7.106 -0.836,-0.836 -2.789,7.942 0,0.836 -1.672,1.672 -3.484,-2.508 -0.836,-1.117 0,-2.508 -2.648,2.508 -2.649,-0.836 -3.484,-5.153 -5.156,-0.836 -5.297,-7.664 -0.977,-0.976 -1.672,0 0,0.976 -3.484,-0.976 -5.297,-6.969 -2.508,2.648 -5.297,-5.992 -1.671,-3.621 -1.813,-1.672 -1.672,3.344 -0.836,0 -0.836,0.836 -8.781,-7.6641 -3.484,0 0,1.6719 -1.813,1.8122 -1.672,0 -1.676,-4.4567 -3.621,-2.6485 -5.16,-0.8359 -0.836,5.293 -0.972,0.8359 -8.645,-7.8008 -3.484,0.836 1.672,4.3203 -1.672,1.8086 -13.938,-6.1289 2.508,4.3203 0,1.8086 -1.672,1.6721 -10.453,-0.8362 1.813,3.4842 1.671,3.621 -1.671,1.676 -10.454,-3.625 -5.296,0 2.507,6.133 -3.343,3.48 1.671,2.649 0,2.648 -1.671,1.531 -6.274,-0.835 -4.18,3.484 -0.976,-0.836 -0.836,0.836 1.812,5.293 -2.789,2.508 -3.343,-1.672 -2.649,0 0,6.133 7.805,6.964 0.976,0 1.672,1.813 0,0.836 -1.672,1.672 -16.585,-2.508 9.476,6.969 5.297,1.672 2.648,2.644 0,0.836 -0.836,0.84 2.508,2.508 0,3.621 -0.836,0.836 -2.648,0 6.133,6.133 0,0.836 -1.813,1.808 -4.32,-0.836 6.969,4.18 0,3.625 -6.969,0.836 8.781,3.484 7.664,0.836 1.953,1.672 -1.953,2.785 -1.672,0 -0.836,-0.836 0,1.672 6.969,4.32 11.289,-1.812 10.453,1.812 7.946,7.801 3.484,0 0.836,0.836 -3.484,2.789 -5.157,-2.789 -6.968,-6.824 -10.454,0.836 -10.453,0 -8.781,-5.297 -0.836,-2.508 0,-2.785 -13.937,-4.18 -1.813,-1.812 0,-1.672 4.32,-2.789 2.649,0 -5.156,-3.344 -1.813,0 -0.836,-1.808 0,-2.649 5.992,-0.836 -7.664,-5.992 0,-2.785 1.672,-1.672 0.836,0.836 2.649,0 -7.946,-5.992 0.836,-0.836 -9.476,-5.297 0.836,-4.457 12.265,-0.836 -4.461,-5.992 0.836,-9.614 7.11,0 -7.946,-2.648 -7.804,1.812 -2.649,2.508 -11.152,-3.484 -2.508,2.648 -14.914,0 2.648,1.809 1.672,1.672 -1.672,3.625 -20.07,0 1.672,2.508 0,1.672 -5.156,1.812 -12.266,-0.977 0.836,0.977 0,1.672 -19.934,0.836 -7.941,-3.485 -10.453,-1.671 3.621,6.128 -1.813,2.649 -8.781,-0.836 -1.672,-0.977 -2.648,0 6.133,1.813 1.812,1.672 -4.461,3.484 -19.234,-4.32 -4.18,-1.672 8.641,7.805 0.836,0.836 0,2.644 -2.508,2.512 2.508,6.129 0,6.133 3.484,9.613 -2.648,2.648 -4.321,-3.484 1.813,15.605 -2.789,1.813 -4.18,-5.297 0.836,10.449 0.836,1.672 0,2.789 -2.508,1.672 -2.789,-3.621 4.461,9.613 0,1.949 -1.672,1.672 -3.625,-2.648 -1.672,-13.098 0,-0.836 -0.976,-0.836 1.812,-1.808 2.649,-10.313 4.32,-1.113 0,-10.453 4.461,-2.508 -5.297,-16.578 -1.672,-2.649 0,-2.507 2.508,-0.836 1.672,1.672 -7.805,-5.297 -0.836,0.836 -2.648,-3.344 -1.672,-3.621 -4.461,-1.672 -5.156,-0.836 -14.774,-9.617 0,3.625 -5.16,0 -8.777,-3.625 -2.649,0 1.809,2.508 0,2.789 -5.297,0 -0.832,-0.836 -6.137,-2.789 -1.812,3.625 -6.129,-1.672 -2.512,2.508 -14.914,-1.672 1.813,0 1.812,1.672 0,1.672 -2.789,1.812 -15.609,-0.977 -0.836,0 2.648,2.649 3.344,0 0.836,0.836 0,2.785 -2.508,1.672 -6.133,1.672 1.813,4.461 0,0.836 -8.641,0 -0.976,-0.836 -2.649,0 0,2.507 2.649,2.649 -0.977,2.508 -12.125,1.113 -1.672,0 6.133,5.156 0,2.508 -8.781,1.813 3.484,7.941 -3.484,2.508 -6.133,0 3.484,4.32 0.836,0.836 0,0.836 -4.32,2.785 0,9.613 -3.348,4.18 -2.785,0 4.461,9.617 0,5.293 -0.836,0.836 -5.297,-1.672 8.641,12.957 0,1.813 -1.672,0.976 -3.484,0 5.156,12.122 9.617,10.453 5.297,4.457 0,2.507 -5.297,0 -0.836,-0.835 -1.672,0 14.633,12.957 7.945,5.296 6.133,2.649 0,2.508 -6.133,0 -0.836,-0.836 -2.648,0 5.297,6.129 13.937,9.613 5.157,2.508 0.976,0.976 -3.625,2.649 -6.828,-0.836 -2.789,0 15.75,9.613 22.719,8.641 2.652,0 0.832,0.836 0,2.648 -9.613,0.836 9.613,5.293 15.754,4.32 2.508,-0.836 2.648,2.508 0,0.836 -1.812,1.949 -2.508,0 12.961,6.828 4.461,0 0.836,-0.835 2.648,3.484 0,0.836 -0.836,0.976 -1.812,0 8.781,2.508 17.422,0.836 0.836,0.836 0,1.809 -1.672,1.812 -1.953,0 14.078,3.485 13.937,-1.813 2.649,1.813 -4.457,3.343 -3.348,0 3.348,1.95 22.719,0 3.484,-2.786 1.672,1.813 0,2.648 -2.508,1.668 12.125,1.813 16.586,-2.649 5.297,-2.507 0,0"
         style="fill:#8b7768;fill-opacity:1;fill-rule:nonzero;stroke:none"
         id="path4501" /><path
         d="m 69.3594,299.875 17.4258,-5.293 4.457,-3.484 4.1836,0 9.6172,-11.285 1.812,0 0.836,0.835 10.594,-12.261 2.508,0 6.969,-10.449 2.648,0 1.672,1.671 9.617,-7.664 1.672,0 1.953,1.672 12.125,-11.285 3.348,1.809 11.426,-7.106 6.132,-5.293 9.481,-2.512 6.133,-3.48 2.648,0.836 0.836,0.973 -5.996,-8.778 -0.836,-4.457 2.512,-1.672 2.648,0.836 2.508,0 -8.641,-8.777 -3.484,-11.289 0,-0.836 0.836,-0.836 -8.645,0 -6.132,3.484 -4.321,-0.836 -7.941,3.485 -11.293,0 -6.133,5.988 -12.961,0.84 0.836,1.949 0,2.508 -6.969,2.648 -8.781,0.836 -0.836,1.672 -1.812,1.949 -17.4222,1.672 1.8125,2.508 0,2.649 -1.8125,1.812 -13.9375,1.672 0,4.316 -5.1562,3.625 -8.7813,1.672 1.8086,3.485 1.6758,1.671 -5.1601,4.458 -5.293,0.835 3.6211,5.297 0,0.836 -8.7813,1.809 -11.4296,0.84 5.2968,2.508 0.836,0.835 0,2.786 -6.1328,4.32 -11.2891,0.836 5.2969,5.293 -1.8125,2.508 -11.4297,2.648 2.789,4.32 -2.789,2.649 -4.1797,0 2.5078,1.672 1.6719,1.949 -2.5078,2.508 -6.1328,0.836 -0.836,0.836 -2.6484,0 2.6484,0.976 0.836,0.836 0,1.672 13.1015,0 2.6485,2.648 -0.836,0.973 19.0938,0.836 0.8359,3.344 14.9141,-5.153 4.3203,1.809 0,0"
         style="fill:#9a8372;fill-opacity:1;fill-rule:nonzero;stroke:none"
         id="path4503" /><path
         d="m 766.684,237.035 0.836,-0.836 -0.836,-0.836 -9.618,4.321 -4.457,-0.836 -3.488,-1.813 -1.672,-4.32 3.485,-4.32 -4.321,0.835 -1.672,2.512 0.836,6.27 5.157,3.343 2.648,0.977 9.617,-2.648 3.485,-2.649 0,0"
         style="fill:#231f20;fill-opacity:1;fill-rule:nonzero;stroke:none"
         id="path4505" /><path
         d="m 886.832,225.75 0,-3.484 -8.641,7.804 -8.781,-0.84 -4.183,-2.644 -0.977,0 0,2.644 8.781,3.485 7.809,-0.973 5.992,-5.992 0,0"
         style="fill:#231f20;fill-opacity:1;fill-rule:nonzero;stroke:none"
         id="path4507" /><path
         d="m 816.305,212.652 -4.321,-13.933 1.672,-6.969 -1.672,-6.129 -4.32,1.672 -5.297,8.777 0,8.641 3.485,7.105 5.296,4.457 3.344,-1.949 1.813,-1.672 0,0"
         style="fill:#231f20;fill-opacity:1;fill-rule:nonzero;stroke:none"
         id="path4509" /><path
         d="m 858.953,206.66 0,-14.074 -4.18,-5.293 -6.269,0 0,4.457 1.809,1.672 -0.836,14.91 -0.973,5.156 4.457,0 5.992,-6.828 0,0"
         style="fill:#231f20;fill-opacity:1;fill-rule:nonzero;stroke:none"
         id="path4511" /><path
         d="m 811.984,207.496 -0.836,0 -2.648,-6.969 1.813,-6.129 0,-3.484 -4.461,4.32 -1.813,5.293 5.297,11.289 2.648,0 0,-4.32"
         style="fill:#ffffff;fill-opacity:1;fill-rule:nonzero;stroke:none"
         id="path4513" /><path
         d="m 857.281,198.719 -0.836,-3.485 -1.672,-3.484 -3.625,-0.836 2.649,6.133 -1.813,12.957 2.789,-0.836 2.508,-10.449 0,0"
         style="fill:#ffffff;fill-opacity:1;fill-rule:nonzero;stroke:none"
         id="path4515" /><path
         d="m 201.078,195.234 -4.461,-9.613 1.672,-1.672 -0.836,-2.648 0,-1.672 1.813,-1.813 7.804,0 -2.648,-8.777 3.484,-3.484 0.977,0 0.836,0.976 0.836,-0.976 -5.297,-5.293 2.648,-2.508 11.43,-0.84 -1.672,-4.316 2.508,-4.461 5.992,0.836 4.461,-2.508 0,-0.836 0.836,-0.836 2.648,0 0,-2.785 -0.836,0 -0.976,-0.836 0,-2.649 3.625,-2.507 9.617,-1.672 -0.836,-0.836 1.672,-1.953 5.156,0 1.672,-1.672 -1.672,-4.317 -3.484,1.672 -7.805,-0.836 -0.836,-0.836 0,-2.648 0.836,-0.977 -0.836,0 -0.976,-0.836 -6.969,13.239 -8.641,7.664 -9.617,0 -5.297,-2.508 -8.64,0.836 -3.485,0 -2.648,-2.648 0,-2.508 5.156,0 2.789,0.836 7.805,-2.508 3.484,-4.461 -0.836,-8.777 -0.976,-0.696 -6.133,5.992 -6.969,-3.625 0,-3.203 -3.484,1.532 0,1.671 -3.348,1.813 -1.949,6.129 -3.344,3.625 0,2.508 -0.84,0.836 6.133,25.359 0,17.418 2.512,21.734 4.32,-1.672 3.625,-4.457 0,0"
         style="fill:#716863;fill-opacity:1;fill-rule:nonzero;stroke:none"
         id="path4517" /><path
         d="m 799.578,173.496 -2.508,0.141 -2.925,-2.09 0,1.672 1.253,2.508 2.368,0.418 1.675,-0.418 0.137,-2.231"
         style="fill:#adb3ac;fill-opacity:1;fill-rule:nonzero;stroke:none"
         id="path4519" /><path
         d="m 863.414,170.852 -2.785,1.671 -3.348,-0.835 3.067,2.507 2.23,-0.418 0.836,-2.089 0,-0.836"
         style="fill:#adb3ac;fill-opacity:1;fill-rule:nonzero;stroke:none"
         id="path4521" /><path
         d="m 723.895,151.762 -4.321,-0.977 1.672,1.813 1.813,0 0.836,-0.836 0,0"
         style="fill:#5e5652;fill-opacity:1;fill-rule:nonzero;stroke:none"
         id="path4523" /><path
         d="m 720.41,146.465 1.672,-1.672 7.945,0 -8.781,-3.621 1.813,-3.484 7.804,-0.836 -1.672,-2.508 5.157,-2.789 -0.836,0 -0.977,-4.317 -15.469,-18.117 -5.296,-9.6132 -0.977,-24.3828 0.977,-28.7031 3.343,-7.9414 6.969,-5.2969 11.43,-3.3438 8.64,-0.9765 4.461,-4.1797 2.508,-5.293 1.813,-1.8125 -0.836,-0.8359 -11.289,10.4492 -5.297,0 -0.977,-0.8359 0,-1.6719 8.781,-4.457 3.625,-3.4844 0,-1.8125 -2.789,0 -2.507,-3.4844 3.347,-2.5078 -0.84,-0.83594 -5.156,3.34374 -2.648,5.2969 -8.782,7.9414 -7.664,0 -0.836,-1.1133 0,-2.5078 1.672,-1.6719 7.805,0 5.992,-7.1093 -6.969,-2.50786 0,-2.50781 -12.961,1.67187 -10.453,2.5078 -7.945,5.2969 -28.711,33.0234 -16.59,19.2305 -4.32,7.8008 -23.555,22.7109 -3.484,0 -6.969,0.8362 -6.133,2.648 -9.617,0 -0.836,0.836 8.781,6.969 2.508,-0.84 4.461,5.156 1.672,1.813 5.156,1.812 3.625,5.992 2.508,2.508 1.813,-4.32 0.836,-0.977 1.812,0 2.649,5.297 3.347,-6.133 2.785,-1.531 6.832,12.817 1.809,-7.661 1.812,-1.812 3.344,0.836 7.946,10.59 0.839,-4.461 1.672,-1.672 5.297,3.344 9.617,10.453 2.508,-2.508 1.813,-5.992 0.976,-1.117 2.508,0 7.109,7.945 0,-3.484 5.993,0 6.132,5.156 2.508,-5.156 1.813,0 10.593,13.097 1.672,-3.484 1.672,0 0,0"
         style="fill:#716863;fill-opacity:1;fill-rule:nonzero;stroke:none"
         id="path4525" /><path
         d="m 351.746,144.793 -0.836,-1.813 0,-2.644 7.805,0 7.109,2.644 2.512,0 -3.488,-6.128 0,-3.344 4.324,-1.117 2.785,0 0.836,1.117 12.129,4.18 2.644,-2.508 5.297,2.508 5.02,0.835 -2.508,-2.507 2.508,-2.508 18.398,2.508 1.813,0 -3.485,-1.672 0,-3.625 5.157,-5.153 1.812,-8.64 0,-1.813 -6.969,0.977 -0.976,0 -1.672,5.015 -10.453,8.778 -11.293,0 0,-3.481 0.84,-0.836 0.836,0.836 5.992,0 7.945,-4.461 2.649,-5.015 0,-3.485 -3.485,-1.671 -3.484,1.671 -16.586,1.672 -8.645,3.625 -4.32,0 -18.398,10.309 -3.485,5.297 -1.812,5.156 -2.508,2.508 -0.836,0 0,2.785 9.617,2.508 2.508,0 -5.297,-2.508 0,0"
         style="fill:#716863;fill-opacity:1;fill-rule:nonzero;stroke:none"
         id="path4527" /><path
         d="m 819.789,127.238 0,-0.836 7.945,-0.836 1.672,0 1.672,-4.461 0,-2.367 -6.133,-3.625 -16.445,0 -7.805,7.805 2.508,11.426 7.11,5.156 4.179,1.672 0.836,-12.125 4.461,-1.809 0,0"
         style="fill:#a38b79;fill-opacity:1;fill-rule:nonzero;stroke:none"
         id="path4529" /><path
         d="m 854.773,121.941 -0.976,0 -2.649,-5.015 -3.484,-1.813 -8.641,0 -3.484,3.625 5.156,6.828 6.133,2.645 1.676,3.344 0,7.945 6.269,-8.781 0,-8.778"
         style="fill:#a38b79;fill-opacity:1;fill-rule:nonzero;stroke:none"
         id="path4531" /><path
         d="m 232.297,125.566 1.812,-5.992 -0.836,-0.836 -5.156,4.18 -6.273,0 -0.836,-4.18 -2.508,0 -1.953,2.367 0,9.614 -4.18,5.297 2.508,1.672 6.969,0 10.453,-12.122 0,0"
         style="fill:#716863;fill-opacity:1;fill-rule:nonzero;stroke:none"
         id="path4533" /><path
         d="m 841.531,134.344 0.84,-0.836 0,-1.953 -6.832,-2.508 -1.812,-2.645 -3.485,4.317 -3.344,0.836 -3.625,-1.672 -0.835,0.836 0,1.672 8.64,3.625 9.617,-1.672 0.836,0 0,0"
         style="fill:#4f4c4c;fill-opacity:1;fill-rule:nonzero;stroke:none"
         id="path4535" /><path
         d="m 432.867,122.918 0,-3.344 -4.32,-0.836 -1.672,0 -4.461,8.5 -2.648,2.645 4.32,0.836 4.461,0 4.32,-7.801 0,0"
         style="fill:#716863;fill-opacity:1;fill-rule:nonzero;stroke:none"
         id="path4537" /><path
         d="m 248.047,120.27 -2.508,3.484 2.508,-2.649 0,-0.835"
         style="fill:#d3d2d2;fill-opacity:1;fill-rule:nonzero;stroke:none"
         id="path4539" /><path
         d="m 207.07,115.113 -3.484,5.157 3.484,-3.344 0,-1.813"
         style="fill:#d3d2d2;fill-opacity:1;fill-rule:nonzero;stroke:none"
         id="path4541" /><path
         d="m 229.789,114.277 -0.836,-0.836 -1.812,5.297 -0.977,0.836 2.789,0 0.836,-5.297 0,0"
         style="fill:#d3d2d2;fill-opacity:1;fill-rule:nonzero;stroke:none"
         id="path4543" /><path
         d="m 837.211,110.797 3.484,0 -6.132,-3.348 -7.665,0.84 -5.296,2.508 6.968,1.808 1.672,1.672 3.485,0 3.484,-3.48 0,0"
         style="fill:#a38b79;fill-opacity:1;fill-rule:nonzero;stroke:none"
         id="path4545" /><path
         d="m 512.035,99.5078 0.836,-3.4844 12.266,0 -5.157,-5.1523 0,-0.8359 1.672,-1.8125 14.078,3.4843 5.993,-3.4843 7.804,1.8125 1.676,1.6718 4.457,-1.6718 10.457,3.3437 6.133,0.8359 5.156,2.6485 -5.996,-17.2813 0.84,-8.7773 6.828,-15.7461 2.789,-4.457 7.805,-1.6719 8.641,-11.2852 0.976,-3.4843 -2.648,0 -0.977,-0.9766 -3.344,1.9492 -1.672,5.9922 -9.617,7.8047 -12.265,0 -15.75,-0.8359 -2.649,-2.6485 1.809,-1.6719 6.133,1.6719 6.972,-0.8359 5.157,-2.6485 4.46,-8.7773 -4.46,-1.6719 0,-2.6484 -3.485,-1.6719 -9.48,4.3203 -10.453,2.6485 -11.29,12.2617 -8.781,20.7617 -9.617,21.0391 -9.758,13.0973 3.625,0.836 2.649,0 -1.813,-2.6482 0,0"
         style="fill:#5e5652;fill-opacity:1;fill-rule:nonzero;stroke:none"
         id="path4547" /><path
         d="m 587.859,38.4805 0,-2.5078 0.836,-0.8399 -3.343,-1.9492 0.836,0 0,-2.5078 -0.836,0 -1.813,-2.6485 -4.461,0 -1.672,9.6172 -3.347,6.1289 -1.809,1.6719 10.453,-1.6719 5.156,-5.2929 0,0"
         style="fill:#716863;fill-opacity:1;fill-rule:nonzero;stroke:none"
         id="path4549" /><path
         d="m 248.605,265.043 c -8.781,-6.551 -17.562,-19.785 -26.343,-24.105 0,-13.239 -4.321,-28.567 -6.551,-39.575 l 11.012,13.239 c -2.231,-4.457 -11.012,-30.793 0,-19.786 0,-8.777 -2.231,-21.875 -2.231,-30.656 4.461,2.09 8.781,6.551 8.781,8.781 0,-4.461 2.231,-8.781 2.231,-13.238 2.23,6.547 6.551,13.238 11.012,17.555 0,-4.317 2.089,-13.098 2.089,-17.555 l 8.782,8.777 c 0,-2.23 2.23,-6.546 2.23,-8.777 4.461,2.231 6.551,-2.23 6.551,-6.551 2.23,4.321 11.012,13.098 15.473,15.328 0,-2.23 2.089,-4.32 2.089,-6.546 0,2.226 4.461,6.546 8.782,8.777 0,-2.231 4.457,-8.777 4.457,-13.238 0,2.23 4.324,8.777 4.324,11.007 2.23,-2.23 4.457,-6.546 4.457,-8.777 2.23,8.777 4.324,15.328 8.781,22.016 0,-2.231 4.324,-8.778 4.324,-11.008 0,17.418 8.778,30.652 15.329,43.75 l 0.14,0.836 3.625,2.648 1.114,-1.254 c 2.648,1.954 4.878,4.461 6.132,4.461 -2.09,-4.32 -2.09,-15.328 0,-19.789 4.461,0 6.692,4.461 8.782,4.461 0,-2.23 2.23,-6.551 2.23,-8.777 2.231,2.226 6.551,6.547 8.781,6.547 2.231,-2.231 8.782,-24.106 8.782,-28.563 0,2.227 4.46,6.688 6.55,8.778 l 2.231,-4.321 c 4.461,0 13.242,4.321 19.793,6.551 0,-2.23 4.32,-6.551 4.32,-8.781 0,0 13.242,8.781 17.563,8.781 0,-2.23 2.23,-6.551 2.23,-8.781 0,2.23 8.781,13.238 11.012,17.558 l 4.32,-2.23 8.781,17.559 c 2.227,0 6.688,4.457 8.778,6.687 2.23,-2.23 6.691,-4.461 6.691,-6.687 2.09,0 8.641,6.687 10.871,6.687 0,0 13.102,6.547 17.563,6.547 0,-2.227 4.32,-6.547 4.32,-6.547 2.23,0 8.781,4.32 11.012,6.547 2.23,-2.227 4.32,-4.457 4.32,-6.547 2.23,2.09 13.242,19.645 19.793,19.645 0,-2.09 4.461,-4.317 4.461,-8.778 10.871,2.231 19.652,2.231 30.664,-2.09 -8.781,-4.457 -15.332,-17.554 -26.344,-17.554 -0.418,-0.7 -0.976,-1.395 -1.672,-2.231 l 1.532,0.836 3.484,-2.789 -0.836,-0.836 -3.484,0 -7.946,-7.801 -6.129,-0.976 c -6.132,-4.598 -12.406,-8.219 -15.613,-8.219 l 0,-4.32 c 13.102,0 0,-22.016 -2.23,-28.567 l 6.55,0 0,-11.007 c 4.461,0 13.243,4.46 17.563,4.46 0,-11.007 2.23,-22.015 2.23,-32.882 l 24.114,17.418 c 0,-2.094 2.23,-6.551 2.23,-8.782 19.793,11.008 24.113,26.336 32.895,8.782 8.781,2.226 15.332,11.004 22.019,13.234 l 2.094,-4.457 19.789,19.785 c 0,-2.23 2.231,-4.32 2.231,-6.551 0,0 4.32,4.321 6.55,4.321 0,-2.09 2.231,-4.321 2.231,-6.547 l 4.32,4.457 c 4.461,-2.231 4.461,-6.688 4.461,-11.008 8.781,13.098 13.102,21.875 17.563,35.113 2.23,0 6.55,-4.457 8.781,-6.547 2.23,10.868 6.551,19.645 15.332,28.422 l 4.461,0 4.32,4.461 c 2.231,0 4.461,-2.23 6.551,-2.23 0,2.23 2.23,2.23 4.461,2.23 l 2.23,4.321 c 2.09,0 8.782,2.226 8.782,4.457 l 3.761,0 1.672,1.671 -5.297,3.344 -1.672,5.297 -0.836,12.121 4.321,8.778 3.484,0.835 10.453,6.969 7.946,3.485 2.507,-1.672 9.618,0 9.48,-4.461 12.82,-11.008 3.207,3.207 c 0,4.316 -4.461,10.867 -4.461,15.324 -6.55,0 -17.562,2.231 -24.113,2.231 4.461,0 2.231,2.09 2.231,4.32 l 2.23,0 0,4.457 -2.23,2.09 -13.239,2.23 0,-2.23 -13.101,-2.09 c 0,-13.234 -90.043,-13.234 -101.055,-13.234 0,2.226 -6.551,6.547 -8.781,8.777 l -4.32,0 c -17.563,28.562 -54.915,46.121 -76.938,67.996 13.242,0 -57.008,28.563 -37.215,8.777 -19.793,4.461 -45.996,15.469 -61.465,26.336 l 11.008,-10.867 c -6.551,0 -39.582,11.981 -55.332,18.25 l -5.715,-0.832 c 2.926,-4.461 6.828,-10.453 8.364,-15.328 -4.321,0 -13.102,0 -17.563,-2.09 l -44.742,1.531 0,-0.695 -0.836,-0.836 -13.938,-0.699 c 5.297,-2.508 12.825,-3.762 17.84,-3.762 l -27.875,-1.113 -2.23,-3.066 -0.836,0.835 -4.461,0 -12.961,-6.828 2.508,0 1.812,-1.949 0,-0.836 -2.648,-2.508 -2.508,0.836 -15.754,-4.32 -9.613,-5.293 9.613,-0.836 0,-2.648 -0.832,-0.836 -2.652,0 -7.942,-3.067 c 6.27,-1.113 11.848,-4.039 14.914,-10.031 -14.914,-4.32 -38.05,-14.633 -49.48,-25.359 l 1.531,0 0,-2.508 -2.508,-1.117 0,-1.809 c 17.563,8.777 -17.562,-6.551 -17.562,-21.879 6.551,0 15.332,4.321 21.883,4.321 -4.321,0 0,4.457 6.55,2.23 l 0,0 z m 487.555,-55.457 6.832,3.902 15.75,2.785 2.649,3.344 1.808,0 0.836,5.297 4.324,0.836 2.926,2.926 c 5.156,0.695 10.313,1.254 15.192,1.254 0,-2.231 -2.231,-4.321 -2.231,-6.551 6.551,6.551 15.332,13.098 24.113,8.781 0,-8.781 0,0 6.551,6.547 2.231,0 6.692,-2.23 8.781,-4.32 l 0,-4.457 c 4.461,0 11.012,2.23 17.563,2.23 0,-2.23 -4.32,-6.551 -6.551,-6.551 l 15.332,0 c 2.231,-2.23 11.012,-8.777 11.012,-13.238 2.23,0 6.551,0 6.551,-2.226 l 9.754,0 0,-0.977 8.644,-5.297 -0.836,-3.344 1.672,-5.293 0.977,-0.836 0.836,-5.992 5.296,-1.949 -3.484,-4.32 0,-5.297 -0.84,0 -0.972,-0.836 0,-2.508 3.484,-2.644 -2.512,-1.813 -0.972,-0.836 1.812,-5.992 -3.625,-1.949 -0.836,-0.836 0,-2.512 5.297,-2.644 0.836,0.835 -11.289,-6.968 0,-4.321 -10.594,-5.293 -9.48,-8.64 -0.836,-0.836 -4.321,6.133 -1.812,5.156 -6.969,4.457 0,15.469 6.133,-2.508 4.32,2.508 8.782,0 7.808,6.269 0,4.321 0.836,0 4.32,13.097 -2.511,3.344 -2.645,0 -5.297,-3.344 -8.644,-2.648 -12.266,-14.77 0,-2.648 -1.672,1.672 -3.621,-6.965 0,-14.774 1.949,-2.644 0,-2.649 -13.242,1.813 -11.289,-3.484 -0.836,0.836 1.672,4.32 -1.672,1.808 1.672,9.618 -1.672,3.48 0,4.461 -1.672,1.672 -0.976,0 -0.977,-0.836 -5.015,13.793 -12.407,7.945 -8.504,0 -8.781,-4.32 -0.973,0 -0.835,0.836 -1.813,-1.672 0,-3.625 8.781,-7.801 6.133,-5.156 2.649,0 1.671,-1.949 18.258,0 1.813,-7.664 -0.977,-7.805 -2.508,1.672 -14.914,-11.285 -1.672,-12.262 -11.289,3.484 -32.336,0 0.973,0.836 0,1.809 -1.812,1.672 -6.969,-0.696 c -0.278,0.278 -0.555,0.418 -0.973,0.696 l 1.949,1.672 0,1.953 -6.132,0.836 -0.278,0 c -0.418,0.14 -0.699,0.418 -0.976,0.558 l 1.254,1.114 -0.836,2.648 -4.879,0.555 c -0.418,0.558 -0.696,0.976 -0.977,1.535 l 5.856,2.226 -0.977,4.321 -7.527,0.836 c -0.137,0.281 -0.278,0.699 -0.278,0.976 l 0,3.485 -0.558,0.418 c 0.699,2.226 4.183,5.851 4.183,5.851 l -6.55,6.547 c 0,2.23 4.461,6.691 4.461,8.781 l 4.32,2.227 c -2.231,0 -4.32,2.23 -8.781,2.23 0,6.551 11.011,13.098 11.011,17.559 l -11.011,0 c 0.277,0.418 0.558,0.973 0.976,1.672 l 1.949,0.972 0,1.954 c 0.559,0.695 0.977,1.39 1.536,2.226 l 3.761,1.813 0,2.925 c 0.278,0.418 0.559,0.7 0.836,0.977 l 0,0 z m 154.852,5.156 -1.395,-7.246 -6.969,2.508 -0.136,0.141 0.554,0 1.536,1.671 1.394,0 0.836,0.836 0,1.391 0.559,0.559 c 0,4.32 -2.231,11.007 -2.231,13.097 l -19.652,0 c 0,-4.32 -2.231,0 -2.231,-4.32 l -4.461,-2.227 c 3.344,0 6.27,-0.418 9.2,-1.117 l 0.558,0.418 2.785,1.813 1.672,-1.813 11.571,-5.015 c 2.089,-0.418 4.179,-0.696 6.41,-0.696 l 0,0 z m -135.758,11.563 -0.836,-0.555 -0.836,-1.812 0,-2.508 -2.648,0 -0.836,-0.977 0,-2.508 -6.133,-0.836 -2.649,2.508 -5.992,1.813 -2.789,11.285 0.977,5.297 6.968,6.965 6.969,1.671 6.133,5.297 10.453,-1.812 5.996,0 3.621,-3.485 5.161,-1.671 6.828,-6.27 c -12.825,0.277 -28.575,2.09 -38.746,0 0,-4.32 -2.231,-8.777 -2.231,-13.098 3.344,0 6.969,0.278 10.59,0.696"
         style="fill:#9a8372;fill-opacity:1;fill-rule:nonzero;stroke:none"
         id="path4551" /><path
         d="m 246.516,251.945 13.101,2.09 c -11.012,-10.867 -24.113,-28.426 -24.113,-43.89 6.551,0 8.781,24.242 11.012,30.793 -8.782,-13.239 -11.012,-35.114 -11.012,-50.442 2.23,0 6.551,6.551 6.551,8.777 0,-6.687 -2.231,-13.234 -2.231,-19.785 2.231,6.551 6.692,15.328 8.781,19.785 0,-6.687 -2.089,-15.464 -2.089,-22.015 0,4.461 6.55,13.238 6.55,17.558 0,-4.32 2.231,-13.097 2.231,-17.558 l 8.781,17.558 c 0,-8.777 2.09,-13.097 2.09,-19.785 l 6.691,19.785 c 0,-4.32 2.09,-11.007 4.321,-15.328 0,4.321 2.23,11.008 4.461,15.328 0,-2.23 4.32,-6.55 4.32,-6.55 l 0,6.55 c 4.461,0 4.461,-4.32 6.551,-6.55 0,4.32 4.457,13.097 6.687,17.558 0,-2.23 4.324,-6.551 4.324,-8.777 0,4.316 2.227,13.098 2.227,17.555 0,-2.231 2.23,-4.457 2.23,-6.547 0,13.097 2.094,28.422 10.875,37.203 l 0,6.687 c -6.554,-13.238 -15.332,-22.015 -28.433,-33.023 0,4.457 4.32,13.238 4.32,17.555 l -8.781,-8.778 0,4.461 c -6.551,0 -39.445,-15.328 -32.895,-22.015 l 2.231,19.785 -2.231,-4.321 17.563,17.559 c -4.461,0 -11.012,-2.23 -15.332,-4.461 4.32,22.016 4.32,15.328 17.562,32.883 -2.23,0 -6.691,-2.09 -8.781,-2.09 4.32,2.09 8.781,6.551 13.102,8.777 -4.321,-11.007 -13.102,-6.687 13.242,-2.226 4.32,6.547 32.891,17.554 32.891,19.785 l -4.458,2.09 c 2.227,0 11.008,4.457 13.239,4.457 -2.231,2.23 -6.551,2.23 -6.551,6.551 2.09,0 6.551,2.23 8.781,2.23 0,2.227 -8.781,6.547 -11.011,8.777 l 65.789,0 c -4.321,0 -13.102,6.551 -17.563,6.551 13.242,2.227 39.586,-2.23 46.137,-2.23 -2.231,4.457 -6.551,8.777 -6.551,13.238 -8.781,2.227 -17.562,4.316 -24.113,8.777 2.09,0 26.343,-6.55 32.894,-6.55 -4.461,10.867 -74.711,37.203 -28.574,17.558 l -15.332,0 c -17.562,0 -35.125,-2.23 -52.687,-4.461 l 46.136,-8.777 c -11.011,4.457 -26.344,4.457 -39.586,4.457 8.782,-2.227 22.024,-8.777 30.805,-11.004 l -52.688,-2.23 c 83.352,0 -26.339,-11.008 2.094,-11.008 -4.324,0 -10.875,-4.321 -15.332,-6.551 11.008,-6.547 -6.551,-11.008 -13.101,-13.098 2.089,0 4.32,-2.23 8.781,-2.23 -8.781,0 -24.254,0 -11.012,-6.547 -6.551,0 -15.332,-4.457 -19.793,-4.457 l 19.793,-6.551 c -22.023,-4.457 -28.574,-2.23 -41.676,-15.328 l 15.332,0 c -6.55,-2.23 -24.113,-13.234 -24.113,-24.242 l 4.32,0 c 0,2.226 4.461,4.457 4.461,6.687 l 8.782,0"
         style="fill:#8b7768;fill-opacity:1;fill-rule:nonzero;stroke:none"
         id="path4553" /><path
         d="m 358.438,304.613 c -17.563,0 -41.676,-4.457 -59.239,-4.457 4.324,0 10.875,-2.23 15.332,-2.23 -8.781,-2.09 -22.019,-8.778 -28.57,-10.867 2.23,-2.231 8.781,-4.461 13.238,-4.461 -11.008,-11.008 -24.25,-19.785 -24.25,-30.653 l 22.02,0 c -2.227,-2.23 -6.547,-6.687 -6.547,-8.777 8.777,0 15.328,2.09 19.652,0 2.227,0 4.457,2.09 6.688,2.09 -2.231,-2.09 -6.688,-6.551 -6.688,-8.781 8.781,0 17.559,6.691 13.239,-2.09 2.23,0 6.55,4.32 6.55,4.32 0,-13.098 22.024,-2.23 26.344,-2.23 0,-2.09 -2.23,-6.547 -2.23,-8.778 l 26.343,17.559 c 0,-2.09 -4.32,-8.781 -4.32,-10.871 l 4.32,2.09 c 0,0 0,-13.098 -2.09,-17.555 4.321,0 4.321,0 8.782,4.457 0,-2.227 -2.231,-8.777 -2.231,-11.008 l 6.551,6.551 0,-8.777 c 6.551,2.226 26.344,17.554 26.344,17.554 -2.231,-4.32 -4.321,-8.777 -8.781,-10.867 l 8.781,8.777 c -2.231,0 -6.551,-2.23 -8.781,-2.23 0,2.23 4.46,6.551 4.46,8.781 -2.23,0 -6.691,-4.461 -8.781,-4.461 0,2.231 4.321,6.688 4.321,11.008 -6.551,-2.23 -15.332,-4.32 -21.883,-4.32 0,4.32 4.32,10.871 4.32,15.328 -4.32,0 -19.793,-4.457 -19.793,-4.457 0,6.687 4.461,11.008 4.461,17.555 l -24.113,-6.547 c 4.32,11.004 -8.782,2.226 -22.024,2.226 4.461,0 11.012,2.231 15.332,4.321 -6.55,0 -13.101,-2.09 -19.652,-2.09 2.09,2.09 6.551,4.32 6.551,6.547 -4.461,0 -6.551,-2.227 -8.781,-2.227 4.32,2.227 13.101,6.547 17.562,6.547 l -24.113,2.23 c 2.093,0 6.551,4.457 6.551,4.457 l -2.231,4.321 c 4.461,4.461 11.012,8.781 17.563,8.781 -2.231,0 -2.231,4.457 -6.551,4.457 6.551,0 17.562,6.547 26.344,8.777"
         style="fill:#8b7768;fill-opacity:1;fill-rule:nonzero;stroke:none"
         id="path4555" /><path
         d="m 562.492,208.055 c -6.551,-2.231 -28.574,-17.559 -24.113,-26.336 2.09,0 4.32,4.32 6.551,4.32 -6.551,-6.551 -11.012,-17.559 -15.332,-24.105 4.32,0 8.781,4.316 10.871,6.546 0,-6.546 -4.321,-15.328 -4.321,-21.875 2.231,2.09 8.782,8.778 11.012,8.778 l -2.23,-22.016 c 0,2.231 4.32,6.551 6.55,8.778 l 0,-6.547 c 6.551,6.547 19.793,30.652 26.344,19.785 l 0,-4.457 c 0,-2.231 19.793,11.008 26.344,15.324 0,-6.547 -2.23,-15.324 -2.23,-21.875 28.57,41.664 13.238,15.328 28.57,30.656 0,-4.32 -2.231,-15.328 -2.231,-15.328 0,2.231 6.692,11.008 8.782,15.328 4.461,-2.09 8.781,0 17.562,2.227 0,-2.227 -2.09,-4.317 -2.09,-6.547 4.321,8.777 10.871,24.105 21.883,24.105 l -2.23,-4.32 c 0,8.777 13.242,17.559 17.562,19.649 -2.09,0 -10.871,-6.551 -13.101,-6.551 6.55,6.551 -22.024,-13.098 -30.805,-19.785 0,33.023 -4.32,-39.434 -13.102,-8.778 -6.55,-6.551 -17.562,-15.328 -26.34,-19.648 2.227,6.551 6.551,13.097 6.551,19.648 l -21.883,-19.648 c 2.09,10.867 6.551,17.558 6.551,24.105 -22.023,-11.008 2.227,13.098 8.781,15.328 -4.46,-8.777 -13.242,-19.785 -22.023,-28.566 0,4.461 4.461,13.238 4.461,17.559 L 551.48,166.25 c 0,4.461 2.231,11.008 4.461,15.469 l 4.321,4.32 c -2.231,0 -4.321,-2.23 -6.551,-2.23 0,4.457 11.012,19.785 8.781,24.246"
         style="fill:#8b7768;fill-opacity:1;fill-rule:nonzero;stroke:none"
         id="path4557" /><path
         d="m 389.102,302.383 15.472,8.781 c -15.472,-2.23 -37.355,-8.781 -50.597,-15.328 0,-4.457 -2.09,-6.688 -2.09,-8.777 8.781,0 28.433,6.546 39.445,6.546 -2.23,-13.234 -4.32,-17.554 -13.102,-22.015 0,-15.324 32.895,15.469 21.883,-8.777 2.231,0 13.242,2.23 17.563,2.23 -2.231,-2.23 -6.551,-8.777 -6.551,-13.098 2.23,2.09 8.781,6.547 11.012,6.547 -4.461,-4.457 -4.461,-4.457 -4.461,-8.777 4.461,2.23 11.012,6.551 15.332,6.551 0,-4.321 -2.094,-11.008 -4.32,-15.328 4.32,4.32 11.007,6.546 15.332,6.546 0,-2.226 -2.231,-4.316 -2.231,-6.546 2.231,2.23 32.891,19.785 35.121,19.785 l -8.781,-22.016 c 15.332,13.238 17.562,15.328 26.344,19.785 0,0 10.871,2.231 15.332,4.321 0,-2.09 -2.231,-4.321 -2.231,-8.778 2.231,0 8.781,6.688 11.012,6.688 0,-24.246 11.012,-15.465 11.012,-17.555 6.55,2.09 6.55,4.316 10.871,4.316 0,-2.226 -2.09,-4.316 -2.09,-6.546 4.32,4.32 10.871,8.777 17.562,8.777 -4.461,2.23 -8.781,2.23 -13.242,2.23 l 8.781,8.778 -17.562,0 c 0,4.32 2.23,8.777 2.23,13.097 l -30.804,-8.777 c 0,4.457 4.461,11.008 6.691,15.328 -11.012,-2.094 -22.023,-8.781 -33.031,-8.781 11.008,4.461 -12.965,-4.32 -15.195,-4.32 4.32,6.55 13.101,15.328 17.425,21.878 -6.554,-6.55 -19.656,-10.871 -28.437,-10.871 l 2.23,4.321 c -6.55,0 -26.339,-4.321 -28.57,-4.321 l 4.457,4.321 -4.457,0 c 0,0 4.457,4.461 4.457,6.55 -6.687,0 -15.469,-2.089 -22.019,-2.089 0,6.546 4.46,10.867 4.46,17.554 -2.23,-2.23 10.872,8.778 13.102,8.778 -11.012,0 -26.344,-8.778 -35.125,-8.778 l -2.23,-2.23"
         style="fill:#8b7768;fill-opacity:1;fill-rule:nonzero;stroke:none"
         id="path4559" /><path
         d="m 498.793,335.27 c -19.789,19.785 -89.898,24.105 -57.004,24.105 l 2.231,-4.32 c -4.325,0 -15.332,2.23 -4.325,2.23 0,-2.23 4.325,-6.691 6.551,-6.691 l -17.558,-2.09 c 2.226,-2.227 8.781,-6.688 11.007,-6.688 -6.687,-2.089 -15.468,-4.316 -19.789,-4.316 8.782,-4.461 21.883,-6.551 30.664,-8.781 l -30.664,-6.547 c 6.551,0 17.563,-4.461 24.114,-4.461 l -15.332,-15.328 43.765,2.23 c -4.324,-4.457 50.453,-2.23 50.453,-2.23 -24.113,-6.547 -17.562,-6.547 -19.652,-6.547 l 19.652,0 -2.09,-4.457 c 2.09,-2.231 6.551,-2.231 6.551,-6.551 l 59.238,-6.551 c -4.32,-2.226 -13.101,-6.687 -17.562,-6.687 8.781,-2.09 22.023,-6.547 30.801,-6.547 -2.227,0 -4.457,-2.23 -6.688,-2.23 2.231,0 4.461,-2.09 4.461,-4.321 l -4.461,-2.226 c 4.461,0 26.344,-8.782 17.563,-4.321 4.457,4.321 2.23,6.547 -2.094,13.098 2.094,0 13.105,2.227 15.332,2.227 -4.457,8.781 -15.332,13.101 -24.113,17.558 l 4.324,-4.457 c -11.012,0 -21.883,15.465 -30.664,19.785 l 4.32,0 4.461,-4.32 c -2.23,-2.231 -26.344,26.336 -24.254,28.426 0,-4.321 4.461,-15.328 4.461,-19.649 -6.551,2.09 -15.332,8.778 -22.023,10.867 4.461,0 4.461,-4.316 4.461,-6.546 -24.114,19.785 -30.805,30.793 -30.805,19.785 -2.09,0 -15.332,6.551 -15.332,6.551"
         style="fill:#a38b79;fill-opacity:1;fill-rule:nonzero;stroke:none"
         id="path4561" /><path
         d="m 367.219,287.059 c -2.231,-4.461 -8.781,-11.008 -13.242,-13.239 l 19.793,0 c -2.231,-2.23 -8.782,-8.777 -11.012,-8.777 6.691,0 19.793,2.227 24.254,2.227 0,-2.227 -4.461,-6.547 -6.692,-6.547 l 4.461,0 0,-6.688 c 8.782,0 2.231,-13.097 0,-17.558 l 30.664,0 c -2.09,-2.09 -6.55,-4.317 -6.55,-6.547 6.55,0 15.332,2.23 22.019,2.23 0,-2.23 -4.457,-6.551 -6.687,-6.551 6.687,0 30.8,10.868 26.343,0 l 45.996,6.551 c 0,-4.461 -4.324,-6.551 -4.324,-8.781 l 24.113,21.879 c -2.23,-2.09 -8.781,-6.551 -8.781,0 -2.23,0 -6.551,-2.09 -8.781,-2.09 -2.227,2.09 -59.098,-17.559 -45.996,2.09 -11.008,-2.09 -26.34,-4.32 -35.121,-8.781 0,2.23 6.551,6.691 6.551,8.781 -2.09,-2.09 -6.551,-4.32 -8.782,-4.32 11.012,24.105 2.231,11.007 2.231,13.097 -2.231,0 -4.321,-2.09 -6.551,-2.09 0,8.778 8.781,4.321 -26.344,0 0,4.321 2.231,10.868 2.231,15.325 -4.461,-4.457 2.09,4.32 2.09,4.32 l -15.332,-4.32 c 0,2.23 2.23,4.32 2.23,6.55 -4.461,0 -11.012,-2.23 -15.332,-2.23 l 0,13.238 6.551,2.231"
         style="fill:#a38b79;fill-opacity:1;fill-rule:nonzero;stroke:none"
         id="path4563" /><path
         d="m 343.105,225.609 15.333,-4.457 c -6.551,-4.32 -13.243,-8.781 -15.333,-13.097 4.321,-2.231 8.782,2.09 13.102,4.316 0,-2.226 -2.23,-4.316 -2.23,-6.547 4.461,0 17.562,4.321 19.793,4.321 0,-2.09 -2.231,-6.551 -2.231,-8.782 6.691,0 17.563,2.231 22.024,2.231 l -2.231,-4.321 c 2.231,2.09 6.551,4.321 8.781,4.321 0,-2.231 -2.23,-4.321 -2.23,-6.547 2.23,2.226 13.242,6.547 17.562,6.547 l 0,-6.547 c 4.461,8.777 8.782,13.098 15.469,13.098 l 0,-6.551 c 2.094,6.551 8.781,35.113 8.781,17.558 0,6.547 -4.457,2.227 -6.687,0 -2.094,4.457 -4.32,2.227 -10.871,-4.32 l 0,15.328 c -2.231,-4.461 -6.692,-8.781 -8.782,-11.008 l 0,6.547 c 0,-6.547 -15.472,-10.867 -19.792,-13.097 0,2.23 -2.231,4.32 -2.231,6.55 l -4.32,-4.32 c 0,2.09 -11.012,-2.23 -15.473,-4.461 0,2.231 -2.09,4.461 -2.09,6.551 -8.781,-2.09 -19.793,-6.551 -28.574,-4.32 0,4.32 4.32,11.007 2.23,11.007"
         style="fill:#a38b79;fill-opacity:1;fill-rule:nonzero;stroke:none"
         id="path4565" /><path
         d="m 651.277,249.715 c -0.976,-1.113 -13.101,-7.664 -13.101,-8.777 1.113,2.089 2.23,6.546 3.344,8.777 -6.688,-3.344 -13.243,-9.895 -18.676,-14.352 1.113,2.231 3.207,6.688 4.32,9.895 -3.207,-3.207 -13.101,-5.438 -18.676,-6.551 0,1.113 2.231,4.32 2.231,5.434 -9.899,-2.09 -25.231,-3.203 -35.125,1.117 3.344,0 16.445,-2.231 17.562,-3.207 -1.117,0 -5.437,-4.457 -6.551,-5.574 1.114,0 2.231,-1.114 3.344,-1.114 l -22.023,-14.211 2.23,1.114 c 0,-1.114 -2.23,-4.461 -2.23,-5.575 5.437,2.231 7.668,4.461 14.219,6.688 -2.09,-6.688 -7.668,-13.234 -9.758,-18.668 2.09,2.227 7.668,4.316 10.871,5.434 l -5.434,-22.993 c 3.344,8.778 8.781,15.328 15.332,21.875 -1.117,-2.089 -2.23,-6.547 -2.23,-9.89 l 13.242,17.554 -3.348,-11.98 c 2.231,1.113 6.692,4.316 8.782,5.434 0,-2.231 -2.09,-6.551 -2.09,-8.782 10.871,4.461 17.422,9.895 24.113,13.239 -3.348,-20.903 -12.125,-30.793 7.664,-7.664 0,-3.344 -3.344,-7.801 -3.344,-11.008 l 51.571,38.32 c 0,-3.207 -2.09,-7.664 -2.09,-10.871 9.758,19.648 3.207,3.207 2.09,-6.688 8.781,9.895 15.472,17.559 24.254,24.247 0,-6.688 10.871,9.89 13.101,11.984 0,-25.223 -7.668,-19.649 9.895,0 -4.461,0 -11.012,-8.781 -13.239,-10.871 0,3.207 1.114,8.777 1.114,11.984 -2.09,-2.23 -6.551,-5.433 -9.899,-6.551 l 0,4.321 -6.547,-5.434 c 0,6.551 -11.988,-4.32 -16.449,-5.433 l 0,8.777 c -6.551,-3.344 -13.101,-9.895 -18.676,-14.352 l 0,4.457 c -2.23,-1.113 -4.32,-2.226 -6.55,-2.226 l 0,3.344 -9.899,0 -3.344,8.777"
         style="fill:#8b7768;fill-opacity:1;fill-rule:nonzero;stroke:none"
         id="path4567" /><path
         d="m 516.914,197.883 c -0.976,0.555 -1.672,1.254 -1.672,2.367 -11.012,2.23 -32.894,-8.777 -45.019,-11.984 l 2.23,0 2.227,2.089 3.207,0 c -4.321,-8.777 -17.422,-7.66 -23.973,-14.21 2.231,0 4.461,1.113 6.551,1.113 -0.977,-1.113 -3.207,-3.344 -4.32,-3.344 1.113,0 3.343,-1.113 4.32,-1.113 -0.977,-5.434 -7.668,-6.551 -11.988,-8.778 l 7.668,0 c -5.438,-2.089 -23,-7.664 -29.688,-7.664 14.356,6.688 -16.449,-10.871 -17.562,-10.871 19.793,22.992 -4.321,6.551 -14.219,3.207 2.23,4.457 5.437,8.778 8.781,11.008 -5.434,-2.23 -12.125,-6.551 -17.562,-7.664 1.117,2.231 3.347,5.434 3.347,7.664 l -16.586,-4.457 c 1.114,2.227 4.457,6.688 4.457,7.801 -4.457,0 -11.011,-1.113 -15.332,-1.113 l 3.207,3.203 c -2.09,0 -6.55,-2.09 -9.894,-2.09 0,0.976 1.113,2.09 0,2.09 l 0,-1.114 c -10.871,-4.32 4.461,18.672 4.461,22.016 l -2.231,-2.23 -2.23,0 0,4.457 c -2.512,2.511 -5.578,5.019 -9.481,5.992 l -1.39,-11.563 3.761,0 0.278,0.418 2.648,-2.648 -3.484,-9.613 0,-6.133 -2.508,-6.129 1.113,-1.117 c 0.141,0 0.282,0 0.282,0 0,0 0,-0.141 -0.141,-0.141 l 1.254,-1.254 0,-2.644 -0.836,-0.836 -8.641,-7.805 4.18,1.672 19.234,4.32 4.461,-3.484 -1.812,-1.672 -6.133,-1.813 2.648,0 1.672,0.977 8.781,0.836 1.813,-2.649 -3.621,-6.128 10.453,1.671 7.941,3.485 19.934,-0.836 0,-1.672 -0.836,-0.977 12.266,0.977 5.156,-1.812 0,-1.672 -1.672,-2.508 20.07,0 1.672,-3.625 -1.672,-1.672 -2.648,-1.809 14.914,0 2.508,-2.648 11.152,3.484 2.649,-2.508 7.804,-1.812 7.946,2.648 -7.11,0 -0.836,9.614 4.461,5.992 -12.265,0.836 -0.836,4.457 9.476,5.297 -0.836,0.836 7.664,5.851 c -0.277,0.141 -0.554,0.141 -0.836,0.141 0,0 0,0 -0.136,0 l -1.395,0 -0.836,-0.836 -1.672,1.672 0,2.785 7.524,5.852 c -1.113,0.277 -1.949,0.417 -2.508,0.417 l 0.141,0 -3.485,0.559 0,2.649 0.836,1.808 1.813,0 4.597,3.067 c -0.136,0.14 -0.136,0.14 -0.277,0.277 l -1.813,0 -4.32,2.789 0,1.672 1.813,1.812 13.937,4.18 0,2.785 0.836,2.508 8.781,5.297 7.387,0 0,0 z m -178.129,-41.387 -0.14,-0.137 0,0 0.14,0.137 0,0 z m 152.067,-31.211 0.136,0.559 c 0.418,-0.141 0.836,-0.141 1.254,-0.141 -0.554,0 -0.972,-0.137 -1.39,-0.418 l 0,0 z m -5.997,4.598 -1.531,0 0,6.133 1.254,1.113 c 0,-2.227 0,-5.016 0.277,-7.246 l 0,0 z m -8.082,15.051 -1.253,-0.141 4.597,3.344 c -1.394,-1.532 -2.648,-2.649 -3.344,-2.649 l 0,-0.554 z m 29.411,45.144 -0.282,0 -0.836,-0.836 0,1.672 2.789,1.672 c -0.558,-0.277 -0.976,-0.695 -1.394,-1.113 0,-0.418 -0.141,-0.977 -0.277,-1.395 l 0,0 z m 5.433,4.879 0.418,0.277 0.836,-0.14 -1.254,-0.137"
         style="fill:#7e6d61;fill-opacity:1;fill-rule:nonzero;stroke:none"
         id="path4569" /><path
         d="m 749.543,186.594 c -5.02,0 -14.359,0.976 -19.656,-0.696 -0.137,-0.277 -0.278,-0.558 -0.555,-0.695 4.039,-1.953 10.59,-2.09 13.66,-4.043 -2.512,-1.113 -7.668,-1.672 -11.57,-2.508 1.812,-0.554 3.207,-1.394 4.461,-1.394 l -4.32,-2.227 c 0,-0.836 -0.7,-1.953 -1.395,-3.066 0.695,-0.418 1.395,-0.699 1.812,-0.699 -1.394,-0.973 -3.066,-2.645 -4.601,-3.762 -0.137,-0.418 -0.277,-0.832 -0.277,-1.113 0.558,-0.418 1.253,-0.836 1.671,-1.254 l -0.277,-0.141 5.156,-5.293 c 0,0 -0.14,-0.277 -0.558,-0.558 0.418,-0.137 0.836,-0.418 1.117,-0.555 -0.559,-0.559 -1.676,-2.231 -1.676,-2.789 2.231,-0.977 7.668,-2.649 8.227,-3.762 l -0.559,0 c 2.231,-1.672 6.692,-1.113 7.664,-3.344 -0.972,0 -4.875,-1.672 -4.875,-1.672 2.227,-1.535 6.551,-1.535 3.344,-3.761 l 7.109,-5.574 c -1.117,0 -3.347,-0.977 -5.019,-0.977 2.789,-0.555 5.574,-1.672 8.781,-1.672 l -8.223,-2.23 15.887,-1.668 15.473,-0.559 c -18.121,3.344 -4.461,0.559 6.551,1.672 -2.786,0 -6.551,1.113 -9.34,1.113 0.558,0 1.117,0.559 1.675,0.559 -2.23,0.558 -7.109,1.672 -9.898,1.672 1.117,0 3.348,0.558 4.32,0.558 -0.972,0.555 -7.105,1.532 -9.336,1.532 1.114,0 3.344,1.113 4.461,1.113 -2.789,0 -5.996,1.117 -8.781,1.672 0,0.558 1.113,1.672 2.227,2.23 l -8.778,2.231 c 20.766,2.648 7.664,3.203 -2.23,3.203 2.23,0.558 5.433,1.672 8.223,1.672 -2.231,1.117 -5.438,2.789 -8.223,3.343 7.109,3.207 0,3.207 13.656,3.207 -2.09,2.231 -4.875,2.786 -8.223,2.786 3.903,0.558 8.223,2.23 12.129,2.23 -4.879,3.203 -9.898,5.992 -15.332,7.664 1.114,0 3.203,0.555 4.321,0.555 -2.649,2.23 -4.321,3.765 -7.668,4.879 1.117,0 3.347,1.113 4.461,1.113 -1.672,0.559 -3.903,2.789 -5.016,3.902 4.457,0 9.336,1.114 13.797,1.114 0,0.976 -0.559,4.32 -2.231,4.32 2.789,0.558 6.551,2.23 9.895,2.23 l -6.133,5.434 19.238,0.559 c -1.675,4.457 -1.117,4.457 -5.437,5.015 4.879,0 15.891,-1.672 18.676,-0.558 -0.555,0.558 -1.672,1.535 -1.672,2.089 1.672,0 4.32,-1.531 5.437,-1.531 0,0.977 -0.558,2.649 -0.558,3.762 2.789,-0.559 8.222,-2.785 9.34,-5.434 0,0 0.554,2.649 0.554,3.762 3.903,-2.09 8.227,-6.551 12.129,-8.777 0,1.672 0.555,3.898 0.555,5.574 2.648,-2.231 5.996,-5.574 7.668,-8.781 l -0.559,8.781 c 0.559,-2.231 1.672,-5.02 2.789,-6.692 0,2.79 -0.558,4.461 0.973,6.133 l 0,-7.105 c 1.117,3.203 1.676,4.875 4.461,8.219 0,-2.786 -1.113,-7.247 -1.113,-9.891 l 9.339,8.219 c 0,-2.231 -1.117,-5.016 -1.117,-7.106 3.344,2.649 6.551,4.875 9.899,6.547 0,-2.785 -1.118,-5.433 -1.676,-7.66 2.23,1.113 5.019,3.203 7.109,4.316 0,-1.672 -0.558,-3.203 -0.558,-4.875 1.675,0.559 4.461,1.114 6.132,1.114 l 0,-1.114 c 3.208,0 11.012,2.231 13.661,0 l 0.558,-0.558 c 0,-1.672 -2.23,-8.778 0,-8.778 0,-0.558 -0.558,-1.671 -0.558,-2.23 2.507,0 5.714,-0.973 8.504,-1.391 l 0,1.809 0.972,0.836 0.84,0 0,5.297 3.066,3.902 -7.25,0 c 0.418,0.555 1.536,1.672 2.09,1.672 l -1.672,0 c 0,0 0,2.644 0.559,3.762 l -9.34,-0.559 c 0,1.672 0.559,3.344 0.559,5.016 -3.207,0 -7.11,-1.672 -9.758,-2.231 0,2.231 0.418,4.879 0.418,6.551 -1.531,-1.672 -4.879,-3.762 -6.551,-5.434 l 0,8.778 c -1.113,0 -2.648,-1.114 -3.762,-1.672 l -2.23,15.328 c -4.461,-3.207 -5.992,-7.105 -8.223,-11.426 0,2.09 -1.117,5.434 -1.117,7.664 l -2.23,-11.008 c 0,3.344 -1.114,7.665 -1.114,11.008 0,-3.902 -1.117,-8.777 -1.531,-11.566 l -2.23,5.992 c 0,-0.976 -1.118,-3.203 -1.118,-4.879 -4.46,18.117 3.348,-10.449 -5.992,11.008 l -0.558,-8.777 c -0.559,2.089 -1.672,5.433 -1.672,7.664 0,-1.672 -0.559,-3.903 -0.559,-5.575 l -8.222,11.008 c 0,-3.761 1.113,-8.218 1.113,-11.984 -1.113,3.207 -2.785,7.109 -4.457,9.754 l 0,-9.195 c -2.094,0.976 -7.11,5.433 -9.34,4.878 0.559,0 1.113,-0.558 1.113,-1.117 -0.554,0 -1.113,0.559 -1.672,0.559 0,-2.231 0.559,-4.32 0.559,-6.547 l -11.43,5.434 c 0,-2.79 1.117,-5.993 1.535,-8.782 -2.648,1.117 -5.996,3.348 -8.781,4.461 1.113,-3.902 -0.976,1.531 -2.094,2.649 l 0,-5.438 c -3.902,1.676 -9.336,3.344 -12.125,3.344 0,-0.555 0.559,-1.113 0.559,-1.668 -2.789,0 -6.551,0.555 -7.668,0 0.559,-0.559 1.672,-1.676 1.672,-2.231 -2.785,0 -5.574,0.555 -8.223,0 0.559,-1.117 1.117,-3.343 1.535,-4.32 -0.418,0 -2.648,-1.672 -3.207,-2.23 0,-0.559 1.114,-1.672 1.114,-2.231 L 754,195.93 c 0,-0.559 0,-1.114 0.559,-1.114 -1.672,-1.117 -0.559,-5.433 1.531,-5.433 -5.992,0 -12.543,4.875 -18.535,4.875 1.531,-2.231 7.664,-7.664 10.871,-7.664 l 0,-0.555 1.117,0.555 0,0 z m 140.074,-13.793 0.281,-0.278 c -1.253,-1.394 -2.371,-2.789 -3.625,-4.043 0.836,-0.277 1.672,-0.417 2.372,-0.558 l 1.531,-4.734 c -3.067,-1.954 -6.133,-4.043 -8.918,-5.715 l 4.738,0 0,-0.278 c -0.418,-1.254 -0.836,-3.207 -0.836,-4.597 0.555,-0.141 1.254,-0.418 1.949,-0.559 l -6.269,-3.902 0,-0.418 c -3.625,0.418 -7.668,0.976 -11.152,0.976 1.671,2.231 4.46,4.457 3.902,7.664 0,0 2.789,3.344 4.879,4.457 -0.559,0 -1.531,0.559 -2.09,0.559 l 8.781,5.992 c -0.558,0 -1.117,0.555 -1.676,0.555 l 6.133,4.879 0,0 z m -8.777,-27.031 0,-1.954 -1.254,-0.554 c -1.395,0 -2.93,0 -4.324,0 1.676,0.277 3.765,1.39 5.578,2.508"
         style="fill:#a38b79;fill-opacity:1;fill-rule:nonzero;stroke:none"
         id="path4571" /><path
         d="m 795.676,184.922 c -12.125,0 -24.113,-6.547 -34.008,-6.547 4.32,0 11.984,-7.664 15.887,-7.664 0,-2.789 0,-5.016 2.789,-6.688 l 0.558,-0.976 c 3.207,0 8.223,-6.688 10.871,-6.688 -1.113,0 -2.089,-0.558 -2.648,-1.113 1.535,-1.535 4.32,-6.551 7.109,-6.551 0,-1.672 -7.668,-22.992 -1.113,-22.992 0,0.559 0.555,0.559 1.113,0.559 0.141,0.14 0.418,0.418 0.559,0.558 l 1.113,8.36 14.914,11.285 2.508,-1.672 0.977,7.805 -1.395,6.269 c -0.277,0.559 -0.558,0.973 -0.836,1.395 l -17.84,0 -1.671,1.949 -2.649,0 -6.133,5.156 -8.781,7.801 0,3.625 1.813,1.672 0.835,-0.836 0.973,0 8.781,4.32 5.856,0 0.418,0.973 0,0 z m 63.836,-55.457 c 6.273,10.035 -2.926,11.984 -2.926,23.133 l 10.453,7.664 c 1.672,0 3.207,1.113 4.32,1.113 0,0.559 3.903,4.32 4.461,4.32 l 0.559,0.555 c 0,3.902 2.09,9.336 2.09,13.797 -0.141,0 -0.418,0 -0.696,0.137 l -3.066,-9.332 -0.836,0 0,-4.321 -7.808,-6.269 -8.782,0 -4.32,-2.508 -3.625,1.531 c -1.113,-1.394 -2.09,-2.648 -2.508,-3.484 l 0,-9.613 c 0.141,-0.559 0.141,-1.114 0.141,-1.536 l 6.828,-4.316 1.812,-5.156 3.903,-5.715"
         style="fill:#8b7768;fill-opacity:1;fill-rule:nonzero;stroke:none"
         id="path4573" /><path
         d="m 821.461,170.152 c -2.231,6.551 -2.785,3.762 -4.461,7.664 4.461,0 6.691,-1.113 8.223,-3.902 l 0,7.664 c 1.117,-0.976 2.234,-3.762 2.789,-5.433 0,2.23 1.672,4.457 1.672,6.55 0.558,-3.207 1.675,-5.437 1.675,-9.336 1.114,2.227 3.204,5.016 4.875,7.243 0.559,-2.786 0,-6.129 0,-8.778 2.789,0 6.137,2.649 7.668,2.09 -6.55,-6.547 -7.109,-21.875 -4.32,-33.996 l -3.902,1.113 c -3.207,0 -7.11,-1.672 -9.899,-1.672 l -0.558,0.559 c 0,8.777 -2.09,19.227 -2.09,27.449 -0.555,0 -3.344,3.899 -1.672,2.785"
         style="fill:#a38b79;fill-opacity:1;fill-rule:nonzero;stroke:none"
         id="path4575" /><path
         d="m 708.98,93.5156 c 0,5.4375 1.118,11.4254 1.118,16.4414 -0.559,0 -2.231,-1.668 -2.789,-1.668 -0.559,1.668 -1.672,4.316 -1.672,6.547 l -9.899,-8.777 c 0,13.793 1.117,3.898 -2.648,2.23 0,2.227 -0.555,4.316 -0.555,6.547 -1.672,-1.672 -4.461,-3.762 -6.133,-4.879 -1.535,0.559 -2.093,1.676 -3.765,1.676 -0.555,-1.117 -2.227,-3.344 -2.785,-5.02 -0.559,1.117 -2.649,3.344 -3.766,5.02 -1.113,-3.344 -2.227,-6.692 -2.785,-9.895 l -0.559,1.532 c -1.113,-0.973 -4.32,-1.532 -4.32,-3.7622 -1.117,0.5582 -1.672,1.6722 -3.348,1.6722 l -1.113,-1.114 -0.559,-1.1129 -1.672,-3.3437 c 0.559,-0.5586 1.672,-1.1172 1.672,-1.5352 -0.554,-1.1133 -3.761,-5.0156 -3.761,-6.1289 0.976,0 3.207,-1.1172 4.32,-1.6719 -0.559,-0.5586 -1.672,-0.9765 -2.231,-2.0898 l 1.672,-1.6758 c 0,-1.1133 -0.554,-1.6719 -0.554,-3.3437 2.785,-3.7618 7.664,-8.2188 11.011,-11.4258 -1.675,-1.6719 -1.117,-7.2461 0.555,-8.7774 -1.113,-0.5586 -1.113,-2.7851 -1.113,-4.457 1.672,-1.6719 5.433,-4.3203 7.664,-5.4336 0,-4.4609 2.789,-8.2226 1.672,-11.5664 5.437,-8.2226 17.562,-11.0078 26.343,-11.0078 3.208,4.875 7.668,6.6875 12.825,6.9687 l 0.277,-0.2812 9.063,-2.6484 c 0,-0.1368 -0.141,-0.1368 -0.282,-0.1368 0,-1.1171 0,-2.2304 0.559,-2.789 -3.207,0 -9.34,0.5586 -11.988,-1.1133 0,-0.5586 -0.555,-1.1133 -1.114,-1.6719 l 0,-0.1406 -0.418,0 -0.836,-1.1133 0,-2.5078 0.973,-1.1172 -13.519,0.5586 c -0.555,-1.6719 -1.532,-3.3437 -1.532,-5.9922 0.418,-0.5547 1.532,-1.6719 1.532,-2.2304 l 0.558,-0.5547 c 3.625,0 6.274,-1.3946 8.922,-2.92582 l -1.395,0.13672 -10.453,2.5078 -7.945,5.2969 -28.711,33.0234 -16.59,19.2305 -4.32,7.8008 -23.555,22.7109 -3.484,0 -6.969,0.8362 -6.133,2.648 -9.617,0 -0.836,0.836 8.781,6.969 2.508,-0.84 4.461,5.156 1.672,1.813 5.156,1.812 3.625,5.992 2.508,2.508 1.813,-4.32 0.836,-0.977 1.812,0 2.649,5.297 3.347,-6.133 2.785,-1.531 6.832,12.817 1.809,-7.661 1.812,-1.812 3.344,0.836 7.946,10.59 0.839,-4.461 1.672,-1.672 5.297,3.344 9.617,10.453 2.508,-2.508 1.813,-5.992 0.976,-1.117 2.508,0 7.109,7.945 0,-3.484 5.993,0 6.132,5.156 2.508,-5.156 1.813,0 10.593,13.097 1.672,-3.484 1.672,0 0,0 1.672,-1.672 7.945,0 -8.781,-3.621 1.813,-3.484 7.804,-0.836 -1.672,-2.508 5.157,-2.789 -0.836,0 -0.977,-4.317 -15.469,-18.117 -5.296,-9.6132 -0.282,-6.5469 c -0.695,0.9727 -2.508,2.2266 -2.508,2.6485 l 0,-2.0938"
         style="fill:#5e5652;fill-opacity:1;fill-rule:nonzero;stroke:none"
         id="path4577" /><path
         d="m 533.918,74.2891 c 0,2.2304 1.117,7.664 2.23,8.7773 0,0.5586 1.118,1.6719 1.672,2.2305 l 0.977,0 c 0,-0.5586 0.558,-1.1133 0.558,-1.6719 1.114,0 10.454,3.2031 10.454,1.1133 0.558,0 1.671,0.9765 2.23,1.5351 l 0,-1.5351 c 1.113,0 3.207,0.9765 4.32,0.9765 0,-0.4179 0.559,-0.9765 0.559,-1.5312 1.672,0.5547 3.902,2.0898 5.016,2.6445 0.558,-2.0898 2.089,-5.9922 3.765,-7.664 l 1.114,0.5586 c 0,-1.1133 1.671,-3.7618 1.671,-4.3204 0,0.5586 1.118,1.5352 1.118,1.5352 0,-0.418 2.226,-3.7617 2.226,-4.3203 0,0 0.141,-0.1406 0.281,-0.1406 l 0.141,-1.6719 5.434,-12.5391 c -5.993,-2.0898 -13.102,0 -17.422,-4.3203 -0.559,0 -1.117,0 -1.117,-0.5586 -2.227,0 -4.321,-0.5547 -5.993,-2.2265 0,-0.9766 -0.554,-2.0899 -0.554,-3.2071 0,0 0,-0.1406 0.136,-0.1406 l -2.367,-2.3672 1.809,-1.6719 6.133,1.6719 6.972,-0.8359 5.157,-2.6485 4.46,-8.7773 -4.46,-1.6719 0,-2.6484 -3.485,-1.6719 -9.48,4.3203 -10.453,2.6485 -11.29,12.2617 -7.25,17.2773 c -0.277,2.6485 -0.832,5.2969 -1.671,7.8047 l -3.903,11.0039 c 2.789,-1.1133 6.551,-7.6601 11.012,-8.2187 l 0,0 z m 46.691,-25.3594 c 0.84,0.5586 1.536,1.1133 2.231,1.5312 l 6.832,-1.5312 8.641,-11.2852 0.976,-3.4843 -2.648,0 -0.977,-0.9766 -3.344,1.9492 -1.672,5.9922 -9.617,7.8047 -0.422,0"
         style="fill:#716863;fill-opacity:1;fill-rule:nonzero;stroke:none"
         id="path4579" /><path
         d="m 197.453,199.555 c -1.953,-4.321 -1.254,-8.5 -0.281,-12.68 l 3.906,8.359 0,0 -3.625,4.321 0,0 z m 0.277,-15.051 c 0.141,-0.418 0.141,-0.973 0.282,-1.391 l 0.277,0.836 -0.559,0.555 0,0 z m 1.118,-6.27 c 0,-0.695 0.136,-1.394 0.136,-2.23 -0.695,-0.695 -2.925,-3.481 -2.925,-4.316 1.394,-2.79 2.23,-7.805 5.019,-9.2 0,-0.836 -0.699,-3.621 0,-3.621 -0.699,-1.394 -2.094,-3.621 -2.789,-4.32 1.395,0 1.395,-0.695 3.484,-1.395 l 0,-3.621 c -4.043,-1.949 -9.894,-5.297 -5.296,-9.195 l 2.789,0 3.203,-0.281 c 2.511,0.281 5.437,0.558 8.226,0.836 l 2.508,1.117 9.617,0 3.625,-3.207 c 1.532,1.672 3.903,2.508 6.41,2.789 l 0.418,0.418 0.836,0 0,2.785 -2.648,0 -0.836,0.836 0,0.836 -4.461,2.508 -5.992,-0.836 -2.508,4.461 1.672,4.316 -11.43,0.84 -2.648,2.508 5.297,5.293 -0.836,0.976 -0.836,-0.976 -0.977,0 -3.484,3.484 2.648,8.777 -7.804,0 -0.418,0.418"
         style="fill:#5e5652;fill-opacity:1;fill-rule:nonzero;stroke:none"
         id="path4581" /><path
         d="m 56.957,300.992 c -2.0898,-0.14 -4.7382,-0.281 -7.5273,-0.418 L 49.2891,299.875 33.957,299.18 c 2.9297,-1.114 6.1328,-3.067 8.2266,-3.621 l -18.6797,-0.7 26.4844,-3.621 -22.1641,-3.484 c 9.3399,-1.531 9.3399,-0.695 5.0196,-2.926 l 16.4453,-3.484 c -6.4102,-2.926 4.3203,-6.547 7.8086,-7.942 -8.5039,-4.32 10.7304,-7.105 12.2617,-7.105 -5.0156,0 -11.4258,-1.535 -15.75,-1.535 l 23.5586,-3.481 -24.2539,-0.699 c 12.8242,-2.227 22.1601,-5.016 32.8945,-8.637 -4.3203,0 -9.3398,-2.23 -13.6602,-2.23 l 21.4649,-4.18 c -2.7852,0 -7.1094,-0.836 -9.8945,-0.836 6.4101,0 14.2148,-1.394 19.9292,-2.09 l -14.2144,-0.699 19.2344,-5.711 c -3.484,-7.246 45.855,2.785 3.621,-6.41 20.77,-2.926 42.234,3.484 12.824,-3.621 -1.394,0 3.625,-0.699 5.02,-0.699 17.98,-0.696 24.39,3.484 8.64,-7.242 21.465,0 15.75,4.316 8.641,-5.715 20.07,0 20.77,2.926 20.77,-2.785 l 16.445,0 c -29.965,0 -10.313,-3.348 5.715,-4.18 l 7.945,7.941 -2.508,0 -2.648,-0.836 -2.512,1.672 0.836,4.457 5.996,8.778 -0.836,-0.973 -2.648,-0.836 -6.133,3.48 -9.481,2.512 -6.132,5.293 -11.426,7.106 -3.348,-1.809 -12.125,11.285 -1.953,-1.672 -1.672,0 -9.617,7.664 -1.672,-1.671 -2.648,0 -6.969,10.449 -2.508,0 -10.594,12.261 -0.836,-0.835 -1.812,0 -9.6172,11.285 -4.1836,0 -4.457,3.484 -17.4258,5.293 0,0 -4.3203,-1.809 -8.0821,2.926 0,0 z m -4.7382,1.531 c 0.5546,-0.976 1.5312,-1.113 2.5078,-0.835 l -2.5078,0.835"
         style="fill:#8b7768;fill-opacity:1;fill-rule:nonzero;stroke:none"
         id="path4583" /><path
         d="m 102.254,278.418 c -24.3907,3.625 -29.4063,12.82 -19.3712,-2.09 l -10.0351,0 c 6.5507,-3.621 10.0351,-10.031 20.0703,-15.047 l -2.7891,0 c 8.5039,-8.64 15.0551,-7.246 27.1801,-9.336 l -5.02,0 c -15.7499,-0.699 41.539,5.016 -7.941,-4.32 6.55,0 25.785,2.09 18.675,-1.395 0.696,0 8.641,-2.925 11.43,-2.925 -0.699,0 -2.094,-1.395 -2.789,-1.395 l 22.164,-2.09 c -2.93,-0.836 -11.43,-2.925 -5.019,-2.925 -0.696,0 -2.09,-1.391 -2.09,-1.391 2.785,-1.535 6.41,-2.926 9.199,-3.625 -1.395,0 -4.184,-2.09 -5.715,-2.09 7.945,0 34.426,-2.23 26.481,-4.32 4.183,-1.809 10.593,-3.485 16.031,-4.875 l -0.699,-0.836 -5.993,0 -17.144,7.105 5.715,0.696 5.715,0.699 -26.481,12.262 c 3.621,-0.7 7.106,-1.536 10.731,-1.536 -0.278,0.836 -0.696,2.09 -1.118,3.485 l -2.644,1.672 -3.348,-1.809 -12.125,11.285 -1.953,-1.672 -1.672,0 -9.617,7.664 -1.672,-1.671 -2.648,0 -5.016,7.664 c 0,-0.84 0.137,-1.813 0.277,-2.93 -1.671,1.672 -3.207,3.625 -4.738,5.715 l 0,0 -3.902,4.457 0,-8.082 c -0.699,7.664 -1.395,7.246 -1.953,10.453 l -0.418,0.418 c -1.953,0.418 -12.4065,4.18 -9.758,2.785"
         style="fill:#7e6d61;fill-opacity:1;fill-rule:nonzero;stroke:none"
         id="path4585" /><path
         d="m 830.242,131.695 -0.836,1.672 3.762,0.559 5.16,-1.254 -2.23,-2.371 -2.789,-0.696 -3.067,2.09"
         style="fill:#4f4c4c;fill-opacity:1;fill-rule:nonzero;stroke:none"
         id="path4587" /><path
         d="m 830.801,131.695 c -0.141,0.418 -0.418,0.977 -0.699,1.395 1.117,0.137 2.093,0.418 3.207,0.558 1.394,-0.421 2.925,-0.699 4.32,-1.117 -0.695,-0.695 -1.254,-1.39 -1.949,-2.09 -0.7,-0.14 -1.535,-0.277 -2.231,-0.418 -0.836,0.559 -1.812,1.118 -2.648,1.672"
         style="fill:#545051;fill-opacity:1;fill-rule:nonzero;stroke:none"
         id="path4589" /><path
         d="m 831.359,131.695 c -0.14,0.418 -0.418,0.836 -0.558,1.114 0.836,0.14 1.672,0.281 2.648,0.558 1.114,-0.418 2.367,-0.695 3.485,-0.976 -0.418,-0.555 -0.977,-1.114 -1.536,-1.672 -0.695,-0.137 -1.253,-0.278 -1.812,-0.418 -0.836,0.418 -1.531,0.976 -2.227,1.394"
         style="fill:#585556;fill-opacity:1;fill-rule:nonzero;stroke:none"
         id="path4591" /><path
         d="m 831.914,131.695 c -0.137,0.278 -0.277,0.696 -0.418,0.977 0.699,0.137 1.254,0.137 1.953,0.277 0.977,-0.14 1.949,-0.418 2.926,-0.695 -0.418,-0.418 -0.836,-0.836 -1.254,-1.254 -0.558,-0.141 -0.976,-0.281 -1.535,-0.418 -0.555,0.418 -1.113,0.836 -1.672,1.113"
         style="fill:#5e5b5c;fill-opacity:1;fill-rule:nonzero;stroke:none"
         id="path4593" /><path
         d="m 832.473,131.695 c -0.141,0.278 -0.278,0.559 -0.418,0.696 0.558,0.14 1.113,0.14 1.531,0.281 0.699,-0.141 1.394,-0.281 2.094,-0.559 -0.282,-0.277 -0.7,-0.558 -0.977,-0.972 -0.277,0 -0.699,-0.141 -0.976,-0.141 -0.418,0.141 -0.836,0.418 -1.254,0.695"
         style="fill:#636060;fill-opacity:1;fill-rule:nonzero;stroke:none"
         id="path4595" /><path
         d="m 833.031,131.836 -0.281,0.277 0.977,0.278 1.253,-0.418 -0.554,-0.555 -0.699,-0.141 -0.696,0.559"
         style="fill:#676565;fill-opacity:1;fill-rule:nonzero;stroke:none"
         id="path4597" /></g></g></svg>