<?xml version="1.0" encoding="UTF-8" standalone="no"?>
<svg id="svg2" xmlns:rdf="http://www.w3.org/1999/02/22-rdf-syntax-ns#" xmlns="http://www.w3.org/2000/svg" height="967.01pt" width="1930.1pt" version="1.1" xmlns:cc="http://creativecommons.org/ns#" xmlns:dc="http://purl.org/dc/elements/1.1/" viewBox="0 0 1930.1074 967.01154">
<g id="g4388" transform="translate(-3209.2 -3.9005)">
<g>
<path id="rect4385" d="m4298.6 3.9047c-23.983-0.41476-36.228 30.481-60.914 28.786-42.18 9.09-68.32 45.47-98.18 73.15-10.25 1.8-23.06 1.3094-29.27 11.959-13.42-0.82-28.029-1.6006-39.559 6.6594-19.86-1.97-41.43 1.9209-56.12 16.261-28.5 5.28-56.75 13.03-82.68 26.28-37.28 6.86-69.55 28.149-99.17 50.759-22.28 12.77-45.13 26.421-59.67 48.331-9.62 4.95-19.809 10.68-22.859 22.08-6.49 14.96-28.7 18.96-28.55 36.88-11.62 6.85-21.281 21.18-18.041 34.88-17.75 4.99-14.229 25.35-11.859 39.03 10.58-3.31 21.58-2.2991 32.33-2.5891 15.7-9.7 34.409-11.99 52.259-14.62 1.22 0.33 2.4309 0.73938 3.6609 1.1094-50.61 53.94-118.72 87.68-189.09 107.75-3.49-0.1-6.7091 1.38-9.8891 2.6-68.83-9.74-137.23-26.069-207-27.189-2.7168-1.1506-7.0224-1.5239-11.539-1.4812-5.8072 0.0549-11.965 0.79719-15.542 1.4609-46.44 2.82-106.06 3.7506-131.09 50.891-18.25 34.58 3.9494 72.92 28.109 98.13 36.97 44.51 94.21 63.29 148.75 75.13 3.91 3.87 7.9109 10.649 4.7109 16.209-16.14 37.32-29.84 77.64-24.7 118.92 5.09 47.23 32.22 88.39 62.05 123.92 14.22 15.9 36.78 27.47 57.98 18.68 35.5-14.94 54.509-50.95 74.209-81.88 32.26-43.95 57.511-92.99 74.041-144.98 10.62-29.3 40.85-43.91 68.38-53.62 18.1-5.41 35.45-14.149 54.32-16.509-15.02 13.28-35.271 22.609-53.461 32.239-11.26 8.61-3.8588 23.98 2.3312 33.3 10.97 22.1 3.3194 48.35-9.2406 68.12-3.72 20.32 19.841 31.239 36.791 31.359 49.72 2.18 99.389-18.99 136.67-51.28 42.65-5.68 69.341-45.089 91.841-77.439 60.56 5.4 121.86 5.8891 182.34-1.3109-25.27 24.9-50.43 52.5-60.97 87.22-2.94 22.95 3.3494 46.079 9.9594 67.909 2.69 10.06 10.79 18.16 20.65 21.32 28.32 8.04 57.89-1.43 85.18-9.4 64.91-35.32 128.52-78.84 168.44-142.58 11.23-10.76 29.911-6.2203 42.441-1.0203 12.73 39.9 56.839 60.04 96.289 59.68 2.15 1.83 12.811 1.83 15.061 0 40.99-3.47 84.639-10.75 117.16-38.13 70.9-9.88 143.9-4.1897 213.74-22.93 38.91-11.23 80.05-5.1794 119.53-12.409 21.46-9.47 44.539-14.531 67.93-16.291 13.54-3.33 13.01 17.05 21.72 22.55 1.7304-0.75-0.072-4.5297-0.2496-6.3797-0.3104-1.07-0.6304-2.12-0.9408-3.15-0.09-4.42-0.5408-8.7606-0.7792-13.141 33.18-12.53 58.58-42.839 71.49-75.559 4.96-12.92-3.1208-25.62-1.8208-38.72-1.54-12.48-16.79-12.39-25.61-8.5203-0.2704-0.3-0.8096-0.87969-1.08-1.1797-4.2696-31.45-32.35-51.489-58.65-64.859 0.82-30.13-23.65-57.641-54.58-54.841-53.98-46.7-116.77-82.99-183.84-107.5-7.82-2.31-11.629-10.5-17.909-15.1-96.68-90.79-233.71-118.57-361.93-126.08-21.77 1.44-38.19-17.891-45.85-36.241-8.23-62.03-39.34-118.62-79.88-165.42-2.759-0.78375-5.366-1.1618-7.8468-1.2047zm818.7 574.62c0.4624-0.005 0.9216 0.004 1.3776 0.0234-0.456-0.0191-0.9152-0.027-1.3776-0.0218-0.2528 0.003-0.5064 0.0152-0.76 0.025 0.2536-0.01 0.508-0.0237 0.76-0.0266zm-1348.4 115.63c0.017-0.00036 0.036 0.003 0.053 0.003-0.1422 0.002-0.2786 0.0141-0.4187 0.0203 0.1229-0.005 0.2409-0.0193 0.3656-0.0219z" fill="#b6673c"/>
<path id="path4" d="m4298.6 3.9047c-23.983-0.41476-36.228 30.481-60.914 28.786-42.18 9.09-68.32 45.47-98.18 73.15-10.25 1.8-23.06 1.3094-29.27 11.959-13.42-0.82-28.029-1.6006-39.559 6.6594-19.86-1.97-41.43 1.9209-56.12 16.261-28.5 5.28-56.75 13.03-82.68 26.28-37.28 6.86-69.55 28.149-99.17 50.759-22.28 12.77-45.13 26.421-59.67 48.331-9.62 4.95-19.809 10.68-22.859 22.08-6.49 14.96-28.7 18.96-28.55 36.88-11.62 6.85-21.281 21.18-18.041 34.88-17.75 4.99-14.229 25.35-11.859 39.03 10.58-3.31 21.58-2.2991 32.33-2.5891 15.7-9.7 34.409-11.99 52.259-14.62-26.37-3.97-52.01 9.8503-77.5 8.5203-8.7-10.27-0.4197-24.31 10.82-28.42-0.45-8.39-1.1694-30.231 14.141-30.341 8.14 1.47 2.7291-9.38 5.3891-14.05 12.96-6.56 25.27-18.12 29.77-32.38 4.12-10.56 18.471-9.7297 22.211-20.93 17.29-26.42 47.709-37.58 71.759-55.93 13.82-9.75 28.351-18.66 43.941-25.28 0.52-0.23 1.5488-0.67 2.0688-0.9 15.56-7.8 34.481-7.6212 48.091-19.081 21.64-11.82 46.569-15.54 70.859-17.23 10.8-18.32 34.491-16.54 52.561-15.1 11.59-12.36 29.23-10 44.48-9.8703 7.24-8.91 19.299-9.3588 29.909-9.3188 20.24-23.72 39.08-51.1 69.05-63.52 17.4-10.41 43.261-3.9306 53.441-24.541 7.42-10.83 23.049-14.86 34.809-9.6797 33.44 44.36 74.831 89.92 76.581 148.6-1.78 16.85 7.76 32.42 19.65 43.43-11.03 0.99-22.171 0.15093-33.211 0.11093 1.35-53.53-16.93-105.46-44.2-150.85 18.04 47.12 41.69 94.71 39.53 146.45 1.88 8.35-7.8388 3.4-11.719 4.15-10.99-34.4-22.501-68.701-33.281-103.18-4.85-21.4-5.8-44.869-10.7-65.359 1.87 21.62 3.0603 43.299 5.0203 64.909 10.61 34.9 23.4 69.131 33.98 104.03-3.91 0.7-7.27-0.85124-7.45-5.2812-12.7-35.3-25.279-70.669-38.109-105.92-8.03-11.18-15.79-22.751-25.25-32.831 8.62 15.57 22.1 28.451 27.1 45.931 10.74 32.89 22.67 65.409 33.7 98.189-6.07 2.43-14.691 0.75031-21.591 1.8703-13.8-32.2-25.029-65.51-38.069-98.05-3.19-6.5-1.82-14.689-4.15-20.759-0.21 10.82-1.0306 22.24 3.6594 32.33 9.91 28.19 19.55 56.5 29.05 84.82 1.36 2.43-2.8806 2.0188-2.9406 0.0688-12.44-30.76-23.99-61.92-36.45-92.65-15.7-19.861-31.6-39.63-48.2-58.81 6.64 27.25 12.9 54.63 20.17 81.72 9.43 24.2 20.641 47.72 30.441 71.73 1.66 4.35-6.5306 3.4994-6.9906 0.009-10.07-23.05-19.65-46.31-29.77-69.33-13.56-22.64-29.36-43.92-44.67-65.4 0.67 21.34 3.2009 42.61 4.1609 63.95-2.15 29.76 22.57 50.78 33.2 76.5-1.92 0.4-3.99 1.0703-5.9 0.37031-19.09-29.12-32.6-62.639-58.97-86.309 21.58 26.57 36.51 57.45 53.22 87.1-7.63 0.52-20.13 5.6497-24.15-4.2203-9.91-13.64-20.2-27.01-30.22-40.58-9.36-10.7-4.2697-28.27-8.7297-39.3 0.35 10.57 1.35 21.119 1.2 31.719 10.43 19.37 25.449 35.871 36.939 54.631-1.1 0-3.3094-0.0109-4.4094-0.0109-22.39-29.72-42.391-61.629-65.941-90.339 1.68 18.89 2.8509 37.93 5.1609 56.7 11.29 12.48 23.25 24.529 35 36.639-0.58 3.19-5.6203 0.63-7.5703 0.95-26.41-28.28-51.09-58.189-76.27-87.489 3.76 17.16 7.0297 34.489 11.38 51.489 11.25 13.41 23.88 25.73 34.85 39.37 1.97 4.13-5.3997 1.5194-6.9797 1.5594-23.38-21.12-43.469-45.769-66.489-67.189 18.27 24.52 40.219 46.019 62.419 66.959 2.08 4.69-15.009 3.59-20.489 4.55-17.06-16.02-35.291-32.199-42.741-54.939 1.54 24.66 22.35 39.14 37.95 55.6-1.31 2.77-6.0903 1.7894-8.1203 0.15938-16.99-17.95-33.799-36.251-47.839-56.591 8.28 23.46 28.43 40.231 42.72 59.141-17.34 10.29-27.131-14.77-40.181-22.45-11.16-6.98-6.1791-22.89-11.639-32.73 1.14 9.53 1.1303 19.379 3.4203 28.659 9.34 10.06 18.849 20.01 28.439 29.85-0.43 4.37-9.2994 6.2397-11.109 0.97969-20.7-26.92-46.73-48.969-73.48-69.489 2.04 12.24 4.3991 24.44 6.2391 36.73 0.97 12.13 15.06 16.55 22.48 24.58-5.13-7.16-12.759-12.279-17.439-19.709-2.71-9.92-3.6103-20.28-5.6703-30.37 25.56 17.58 49.52 37.929 67.03 63.759-9.78 2.9-18.8 9.2109-29.13 9.7609-21.01-18.35-38.04-42.09-63.57-54.73 21.84 16.59 40.1 37.42 58.07 58.18-3.86 2.84-8.4603 4.4391-12.97 5.8891-15.81-15.83-34.49-29.899-45.25-49.889 0.71 3.42 1.9306 6.68 2.9906 10-10.62-4.06-19.681-11.281-29.911-16.161 23.45 17.77 48.9 34.18 68.12 57.07-9.22 5.91-20.11 9.0306-30 13.791-14.47-19.54-30.14-38.491-42.12-59.741 1.46 7.53 5.6406 14.191 7.1906 21.711-11.63-3.99-22.421-10.18-34.141-13.9 9.8 8.07 24.691 8.85 32.591 19.55 9.58 11.66 20.339 22.599 29.409 34.569-4.96 4.5-12.349 6.66-18.789 8.8-13.89-16.54-34.69-28.499-42.92-48.839-0.14 3.69-2.2794 7.6-0.6594 11.15 12.85 12.96 25.11 26.489 38.05 39.359 0.75 2.85-2.96 2.9606-4.4 1.3906-19.12-18.1-35.631-39.901-60.281-50.941 21.97 13.67 36.88 35.041 53.47 54.561 0.95 2.7-3.4303 3.5188-5.3703 4.2688-14.26-13.3-30.39-27.069-41.45-42.189 2.34 19.77 25.38 28.97 34.1 45.47-22.12-16.21-40.219-39.6-67.709-48.2 23.09 13.19 44.78 30.84 60.65 51.98-11.87 10.26-20.73-8.6906-31.67-11.841 5.08 7.06 14.901 10.611 18.741 17.811-13.89 5.02-27.691 22.65-42.661 12.13-16.76-8.23-34.169-15.091-52.159-20.061 18.96 8 38.7 16.01 55.15 29.07-8.8 3.1-17.01 14.86-26.87 8.9297-19.08-8.96-39.22-15.979-60.73-13.359 22.25 1.35 43.08 7.9497 62.62 18.58-4.63 4.09-9.5309 7.9303-14.511 11.57-26.56-3.92-52.59-15.92-79.85-10.95 24.76 1.14 48.271 9.38 72.131 15.4 6.43 1.04-0.54 6.9803-3.15 8.5203-24.31-2.04-50.73-9.39-73.62-4.65 24.05 0.79 47.75 5.51 71.77 6.8-1.61 3.22-4.2903 5.7491-6.9203 8.1391-50.61 53.94-118.72 87.68-189.09 107.75 64.46-12.25 125.64-42.34 175.07-85.6 21.76-17.86 38.79-41.129 63.1-55.909 67.61-44.53 143.21-75.41 219.58-101.43 13.92-3.6 28.311-5.0297 42.461-7.5297 169.18-24.51 344.95-46.25 512.29 0.45 68.42 18.52 134.48 49.809 187.48 97.489 6.17 5.18 11.27 12.18 19.17 14.82 88.62 34.45 172.86 86.25 232.21 161.75 5.8 10.83 19.73 9.5594 28.7 16.359 18.57 8.74 29.009 26.911 38.139 44.141-4.27-31.45-32.35-51.489-58.65-64.859 0.82-30.13-23.65-57.641-54.58-54.841-53.98-46.7-116.77-82.99-183.84-107.5-7.82-2.31-11.629-10.5-17.909-15.1-96.68-90.79-233.71-118.57-361.93-126.08-21.77 1.44-38.19-17.891-45.85-36.241-8.23-62.03-39.34-118.62-79.88-165.42-2.759-0.78375-5.3658-1.1618-7.8468-1.2047zm-76.874 66.386c15.25 19.93 35.269 38.229 43.059 62.889 8.88 23.69 17.94 47.301 27.05 70.891 4.66 10.04-13.32 2.6003-18.6 5.9703-11.68-24.16-22.73-48.731-34.45-72.891-5.9-22.22-11.699-44.509-17.059-66.859zm-31.8 19.959c11.85 13.86 23.289 31.07 34.259 46.6 10.42 24.63 21.399 49.13 30.809 74.15-9.12 0.98-18.359 2.0694-27.509 1.9094-11.85-18.19-22.731-37.13-34.041-55.7-1.96-22.27-1.9688-44.669-3.5188-66.959zm-73.811 45.6c22.35 25.65 39.54 55.231 59 83.041-5.1 1.15-10.41 1.3997-15.57 1.9297-12.44-12-24.459-24.62-35.789-37.6-3.83-15.45-4.5306-31.69-7.6406-47.37zm-41.159 7.0797c21.44 27.49 46.079 53.161 68.889 79.161-5.22 2.76-14.709 2.1597-21.259 2.7797-11.89-13.61-24.44-26.671-36.18-40.391-4.95-13.51-7.74-27.68-11.45-41.55zm-263.78 139.03c9.38 16.16 19.799 33.661 38.789 40.161-12.93-9.78-24.92-20.881-32.15-35.911 20.43 2.44 36.051 15.271 52.141 26.881-15.67-17.2-34.74-30.131-58.78-31.131zm933.11 123.85c-14.69 15.2-28.38 31.31-42.48 47.02-10.25 13.78-20.95 27.281-29.48 42.241-7.34 14.08-14.051 29.049-14.091 45.259-0.7 40.15 1.8394 80.871 13.709 119.49 10.28 31.89 29.991 60.38 56.131 81.25-24.97 3.27-50.36 0.38938-75.32 3.9094 3.98-3.93 9.3003-6.0894 13.37-9.9094-9.45 3.63-17.061 10.559-26.111 14.959-24.72 20.48-57.719 23.8-87.489 32.42-28.03 3.75-60.26 2.2403-85.32-9.6797 14.03-0.4 32.37 0.90031 46.17-7.6297-14.6 1.37-32.251 3.9888-45.111-1.3812 14.97-2.2 35.651-1.9097 50.841-7.8297-15.34 1.82-30.83 3.5603-46.28 2.3703-8.14 4.15-34.521-8.82-11.211-6.7 22.36-0.9 44.64-3.69 66.6-8.1 2.05-1 7.8403-2.5397-1.3297-1.0297-18.58 2.2-37.28 3.0194-55.97 2.6094-10.91-2.58-26.54 2.6609-34-7.4391 13.59 2.32 27.35 2.85 41.12 2.05 22.23 1.08 44.3-2.3212 66.32-4.8812-23.69-0.12-49.22 2.9103-73.53 0.17031-13.35-3.7-34.831 1.7903-42.741-10.13 20.89 3.51 42.08 5.4894 63.28 5.3094 19.68-0.13 41.04-0.27969 59.67-3.1297-24.12-0.33-48.31 0.88031-72.33-1.9297-16.45-1.17-32.76-3.8103-49-6.5703-5.77 0.85-7.4106-4.57-8.3906-8.8 23 5.05 46.31 8.6809 69.8 10.561 28.34 1.45 57.081 5.0494 85.341 1.0594-28.77-0.53-57.871-2.9906-86.611-6.4406-23.37-2.91-46.75-6.5588-69.63-12.219-0.25-1.11-0.4-2.2206-0.45-3.3406 32.52 5.68 65.411 9.2106 98.311 11.841 23.47 1.75 48.219 5.1797 70.989 4.0797-35.5-3.16-70.89-7.19-106.33-10.9-21.72-3.02-43.47-5.9803-65.22-8.7703-0.49-1.42-0.44-2.9303-0.2-4.3703 27.34 2.08 54.56 5.7206 81.88 7.9906 23.8 1.58 48.85 7.0597 71.75 6.0297-17.02-2.17-34.089-3.9494-51.119-5.9594-33.25-5.26-68.231-7.9012-100.61-13.131 15.91-14.69 42.63-10.459 63.2-12.389 37.75-1.3 75.371 3.9491 112.71 8.9891 17.17 2.95 34.419 5.5103 51.559 8.6703 0.57-0.3 1.7097-0.91031 2.2797-1.2203-67.76-14.17-137.32-30.829-206.77-18.059-12.5 1.43-28.419 6.58-30.119 21.05-0.59 9.41 1.8494 18.509 2.9594 27.759-13.55-1.45-27.85-4.1291-40.92 1.1109-22.12 35.99-52.37 66.74-85.95 92.07 21.02-21.28 40.08-44.401 58.22-68.191-19.34 17.77-36.52 42.729-57.37 61.009-11.44 12.27-22.729 25.16-37.609 33.4-31.22 19.65-64.92 40.671-103.25 39.741-20.25 0.91-42.13-11.07-47.83-31.4-6.05-19.7-9.78-42.06-2.45-61.85 11.89-33.88 37.09-61.83 66.18-82.1 20.72-1.64 43.68 0.44 63.55 3-7.24 6.49-20.071 8.8103-30.361 10.37-5.13 0.59-10.47 0.26-15.43 1.65 5.58 1.09 11.311 1.2091 16.991 1.1391 7.87 0.2 15.709-0.64 23.459-1.95-6.45 4.92-14.589 6.7412-22.139 9.2812-18.09 4.73-36.901 5.3791-55.441 6.8891 16.69 2.71 34.9-0.67969 52.13-1.5297 19.3-1.5 38.391-6.5994 55.611-15.409 4.25-1.25 2.0797 4.8691-0.1703 6.0391-19.08 12.93-39.99 23.7-62.27 29.85-1.7 0.8-3.3897 1.5897-5.0797 2.3797 34.24-8.27 67.069-23.04 98.789-38.45 3.17-2.14 10.551 0.37031 5.4406 4.0203-22.97 15.47-47.74 29.38-74.13 37.98-28.68 11.58-58.75 19.97-88 29.05 24.57-4.94 48.609-12.199 72.959-18.089 34.78-11.97 69.49-25.351 100.22-45.941 2.05-1.98 10.501-5.3491 8.4906 0.36093-28.34 18.74-58.641 34.579-89.691 48.339-19.75 10.03-41.31 16.491-60.97 26.391 28.83-8.96 56.99-20.24 85.08-31.33 23.44-10.63 46.361-22.44 68.861-34.92-16.5 14.02-34.951 26.05-53.561 37.2-34.82 22.48-72.509 40.239-108.21 61.059 30.77-13.27 61.51-26.93 91.82-41.27 28.16-15.28 55.829-31.949 79.759-53.469 7.16-2.15 2.5303 7.84-1.1297 9.2-22.43 19.05-45.83 37.06-70.35 53.35-34.12 25.4-71.76 45.759-107.23 69.089 38.41-18.58 75.34-40.14 111.88-62.17 20.36-14.19 40.58-28.659 60.25-43.759-12.16 16.14-26.111 31.059-40.991 44.759-11.66 13.78-26.279 24.69-38.009 38.32 21.42-16.86 41.76-35.1 60.9-54.52 17.87-20.61 43.45-40.829 46.18-69.309-10.94-16.96-35.92-7.3394-52.6-14.409l-0.8797 0.009c-16.44 1.01-32.71-1.2994-48.88-3.8094-28.53-2.84-57.471-7.07-86.041-2.25-60.88 9.67-122.74 6.3688-183.87 1.0188-2.65-0.22-4.49 1.3903-6.1 3.2703-5.26 9.8-12.789 18.06-19.689 26.7-16.83 19.96-36.691 40.91-62.991 47.22 16.88-15.24 32.681-31.851 47.141-49.541-18.67 12.9-32.21 34.451-51.17 48.111-41.18 30.43-91.45 58.689-144.5 51.709-13.61-0.76-27.84-11.93-25.08-26.67 7.22-16.52 17.389-33.639 13.439-52.469-2.61-14.66-21.449-35.541-5.2891-47.661 30.51-11.01 54.46-42.56 89.33-36.12-12.95 11.01-27.72 20.181-43.85 25.731-9.18 3.01-6.7606 5.4588 2.7094 1.7188 16.63-6.2 33.701-11.639 48.741-21.359 3.43-1.7 2.4606 3.4006 0.7406 4.6906-10.89 9.84-23.83 17.25-37.37 22.8-7.24 3.37-15.05 5.3788-22.15 9.0188 10.94-1.71 21.43-5.2894 32.13-8.0094 14.92-6.18 30.119-12.17 43.159-22 3.66-3.14 12.751-1.9594 10.391 4.2906-14.24 11.74-30.72 21.359-48.48 26.739-8.73 5.16-19.42 6.2209-28.07 11.061 8.73-1.24 17.239-3.71 25.909-5.3 21.25-5.8 42.28-13.241 61-25.061 3.38-2.08 10.441-3.2891 11.191 1.9609-12.32 7.62-24.689 15.269-38.009 21.069-19.84 8.7-40.391 15.81-61.341 21.27 38.65-5.43 77.729-17.279 111.41-38.009 4-2.13 13.431-5.3706 13.891 1.5594-11.45 8.22-23.51 15.571-35.92 22.241-28.38 16.73-59.58 28.24-89.15 42.23 8.62-1.75 16.451-6.0797 25.011-8.1297 37.51-15.22 75.719-29.791 109.62-52.391 3.69-3.13 12.521-3.86 11.161 3-11.71 10.19-24.98 18.801-38.48 26.491-29 19.08-60.901 33.08-92.511 47.2 49.09-15.95 96.31-40.63 139.97-68.62 2.56-1.65 5.6303 0.62938 3.0703 3.1094-12.76 12.07-27.68 21.64-41.77 32.07-31.06 20.55-64.29 37.68-96.95 55.27 11.1-3.32 20.99-9.7806 31.65-14.241 27.71-12.8 54.29-27.91 80.23-43.93-9.13 9.18-20.53 15.89-30.82 23.7-24.82 17.23-51.28 31.89-77.15 47.35 27.67-12.78 54.55-27.59 80.17-44.17 27.82-17.94 54.381-38.37 76.791-62.85-36.24-7.4-72.33-19.28-102.43-41.58-56.94-12.67-117.63-0.85031-167.63 28.53-33.62 29.42-94.9 15.781-114.9-23.939-9.72-25.54-33.04-43.24-41.45-69.48-10.68-26.99-2.97-61.711 21.2-78.741 14.87-9.72 23.591-28.661 43.281-29.541-68.83-9.74-137.23-26.069-207-27.189-9.03 0.06-18.061 0.0597-27.081-0.0203-46.44 2.82-106.06 3.7506-131.09 50.891-18.25 34.58 3.9494 72.92 28.109 98.13 36.97 44.51 94.21 63.29 148.75 75.13 3.91 3.87 7.9109 10.649 4.7109 16.209-16.14 37.32-29.84 77.64-24.7 118.92 5.09 47.23 32.22 88.39 62.05 123.92 14.22 15.9 36.78 27.47 57.98 18.68 35.5-14.94 54.509-50.95 74.209-81.88 32.26-43.95 57.511-92.99 74.041-144.98 10.62-29.3 40.85-43.91 68.38-53.62 18.1-5.41 35.45-14.149 54.32-16.509-15.02 13.28-35.271 22.609-53.461 32.239-11.26 8.61-3.8588 23.98 2.3312 33.3 10.97 22.1 3.3194 48.35-9.2406 68.12-3.72 20.32 19.841 31.239 36.791 31.359 49.72 2.18 99.389-18.99 136.67-51.28 42.65-5.68 69.341-45.089 91.841-77.439 60.56 5.4 121.86 5.8891 182.34-1.3109-25.27 24.9-50.43 52.5-60.97 87.22-2.94 22.95 3.3494 46.079 9.9594 67.909 2.69 10.06 10.79 18.16 20.65 21.32 28.32 8.04 57.89-1.43 85.18-9.4 64.91-35.32 128.52-78.84 168.44-142.58 11.23-10.76 29.911-6.2203 42.441-1.0203 12.73 39.9 56.839 60.04 96.289 59.68 5.02-0.11 9.9909-0.09 15.061 0 40.99-3.47 84.639-10.75 117.16-38.13 70.9-9.88 143.9-4.1897 213.74-22.93 38.91-11.23 80.05-5.1794 119.53-12.409 21.46-9.47 44.54-14.531 67.93-16.291 13.54-3.33 13.01 17.05 21.72 22.55 1.73-0.75-0.07-4.5297-0.25-6.3797-7.31-8.53-12.67-18.531-18.25-28.211-0.6-1.25-1.0706-2.5491-1.4906-3.8391-14.59 6.63-16.85-17.891-12.07-27.261 9.86-16.18 23.881-30.019 39.031-41.289 11.47-11.85 26.49-19.53 41.08-26.83-29.51 5.86-51.191 29.259-71.211 49.989-11.31 12.42-17.429 29.62-9.3688 45.43-6.14 2.88-21.631-3.4588-17.091-13.719 4.84-18.7 19.729-32.48 32.859-45.75 14.01-15.88 30.481-30.181 49.011-40.581 10.62-6.29 30.04-8.77 33.37 7.2-0.94 11.35 6.9991 22.52 1.4391 33.52-16.93 26.58-36.809 53.711-66.609 66.541-5.62 0.54-1.3003-9.3406-2.3703-12.441 20.65-18.72 46.189-33.82 60.309-58.63 2.66-5.41 6.6309-14.489-0.039-18.459-21.67-0.28-40.81 18.509-51.4 32.969-8.98 9.57-19.02 19.571-22.2 32.741 13.18-21.04 30.949-39.21 50.709-54.12 6.44-3.93 13.991-8.0203 21.761-6.1203 2.47 8.95-4.3703 16.841-9.1703 23.631-15.61 17.3-33.95 31.839-52.68 45.589-1.78 8.91 0.7788 18.181 0.4188 27.241 0.61 3.2 1.7903 6.24 3.0203 9.25-0.09-4.42-0.5397-8.7606-0.7797-13.141 33.18-12.53 58.581-42.839 71.491-75.559 4.96-12.92-3.1203-25.62-1.8203-38.72-1.54-12.48-16.791-12.39-25.611-8.5203-8.13 2.43-15.6 6.4903-23.13 10.27-7.25-8.17-17.99-10.97-26.9-16.67-11.67 0.25 8.6903 4.6909 10.77 10.011 8.15 3.08 1.7006 12.409-2.1094 17.039-3.08-1.78-3.5912-6.1597-6.5312-8.3297-1.91-1.32-4.2691-1.4194-6.2891-2.4094 4.46 5.17 10.17 12.139 6.8203 19.359-15.21 13.19-28.15 28.799-40.82 44.409-24.68 23.51-59.17 35.081-93.05 33.961-22.39-1.2-48.141 9.5091-67.911-6.0609-22.66-18.29-23.529-50.45-39.919-73.03-5.49-13.15-2.6306-27.82-2.2906-41.6-11.66 34.76 6.0503 69.841 24.07 98.791 9.67 16.21 26.129 29.099 45.339 30.859 41.39-1.05 84.621-4.4303 121.48-25.17 2.73-2.05 6.1894-1.7191 4.9594 3.4109 2.42 17.35 27.54 15.32 35.95 22.48-21.87 4.42-43.99 7.7594-65.62 13.359-41.29 11.17-85.28 2.97-126.42 14.6-33.01 10.99-68.1 11.02-102.08 17-9.31 1.76-20.559 2.8303-27.989-4.2297-23.36-18.45-40.061-44.89-48.741-73.2-8.8-24.32-12.73-50.27-14.07-76.03-1.26-18.12-1.0497-36.361-0.2797-54.491 4.78-27.98 22.151-51.52 38.591-73.85 11.91-17.93 29.459-33.27 40.209-51zm253.74 51.111c22.12 2.36 38.039 21.21 43.039 41.97-14.44-13.83-29.089-27.73-43.039-41.97zm-1628.8 13.039c52.571-0.21122 104.75 11.814 156.29 21.45 3.7 1.66 9.4806 3.3503 11.141 6.6703 4.76 2.3 9.48 5.5506 12.5 9.9406-6.13 7.74-14.68-7.0597-22.13-7.5297-14.53-6.22-30.39-10.311-46.17-12.561 13.27 5.66 28.46 8.09 40.47 16.35 4.5 1.33 24.87 11.501 12.85 14.561-9.13-4.31-18.35-8.6509-27.33-13.261-25.3-9.46-50.92-19.4-77.57-24.75 23.07 8.92 50.06 15.141 72.57 27.141 9.4 4.7 19.24 9.3194 27.45 15.959-12.16 9.81-24.241-5.1691-36.261-8.5391-45.44-17.98-93.65-31.92-142.08-38.77 55.74 14.22 112 28.94 163.69 54.75 0.55 2.88-2.5303 5.7491-3.5703 8.4391-13.19-4.05-26.77-6.5994-40.08-10.159-72.73-14.01-147.08-15.01-220.79-17.67 68.19 6.14 141.1 8.6606 209.9 21.941 16.43 2.47 32.73 6.1594 48.85 10.159-1.5 3.95-0.7806 12.431-7.6906 9.6906-28.35-3.9-56.909-5.5-85.459-7.1-53.23-2.08-106.53 0.92938-159.72 2.2594 0.46 2 3.5709 0.84969 5.1609 1.4297 80.6-1.6 161.35-0.14969 241.54 8.7203 0.76 10.05-13.929 5.2609-20.459 5.6609-72.67-1.97-144.39 11.299-215.3 25.509 1.09 0.34 2.1597 0.72 3.2297 1.15 74.88-11.32 150.69-19.48 226.49-15.4 1.18 2.25 3.52 7.0994-0.15 7.8594-13.82 0.39-27.701-0.36969-41.441 1.0203-55.38 3.93-112.6 15.8-163.94 33.13 37.69-8.27 75.511-17.109 113.94-20.869 30.17-5.63 60.97-7.3506 91.53-8.4906 4.71-2.58 4.2809 6.1394 2.6609 8.6594-11.99 1.71-24.291 2.5709-36.191 5.2609-40.81 5.05-80.84 14.97-121.05 23.38-2.6 0.65 0.5897 1.7303 1.7297 1.4703 52.33-12.27 105.63-19.92 159.06-25.4 1.43 1.97 1.7797 4.4591 1.9297 6.8391-25.48 5.51-50.66 12.21-75.75 19.22-24.49 8.55-51.12 15.58-73.82 27.08 27.73-8.13 55.549-17.249 83.609-23.669 22.43-6.9 45.56-11.56 68.32-17.37-0.09 12.14-24.279 9.5594-34.889 14.959-29.03 8.7-58.101 17.471-86.061 29.241 17.08-1.17 36.481-11.821 54.861-13.161 22.71-6.85 46.17-11.289 69.5-15.669 5.14-2.72 7.8191 2.5291 10.489 5.6391-12.55 7.69-25.83 14.651-38.05 23.061-19.41 11.88-39.909 23.559-59.459 34.309 3.64 0.99 10.969-5.0303 16.259-6.0703 28.63-13.62 56.28-29.38 85.2-42.48 3.75-2.02 2.1203 4.1106 1.9203 6.3906-11.11 10.12-23.68 18.57-36.23 26.75-18.96 14.39-40.881 27.24-61.711 39.85-1.04 0.79-8.5191 3.1691-4.5391 4.2391 35.83-18.95 71.139-38.939 105.66-60.189 3.21-2.8 6.9297 1.4697 6.7297 4.7297-11.8 12.07-23.989 23.84-37.109 34.47-31.28 27.34-67.29 49.929-101.67 72.869 16.47-6.87 31.26-17.309 46.98-25.559 34.21-21.04 66.941-44.66 96.181-72.27 1.19 0.98 3.5788 2.9403 4.7688 3.9203-7.91 11.82-17.319 22.85-27.289 33-33.18 37.48-75.97 66.06-116.6 94.95 7.51-2.22 12.769-8.7797 19.939-11.58 46.56-29.89 92.591-62.72 127.23-106.47 1.98 0.08 3.3394 1.7303 4.6094 3.0703-9.95 16.67-20.59 33.04-33.08 47.93-28.49 36.72-63.84 67.571-98.65 98.041 9.88-5.09 18.1-14.931 26.62-20.581 40.5-33.31 79.17-69.89 108.48-113.68 2.4 3.26 4.9997 7.5203 1.8297 11.22-8.19 14.56-17.3 28.749-27.22 42.159-33.53 46.94-76.119 86.41-115.71 127.95 16.73-12.56 30.73-28.899 47.6-41.159 39.18-38.21 77.909-78.15 103.94-126.85 1.6 0.55 9.9806-1.0697 7.6906 3.2203-9.25 20.83-20.171 43.18-33.391 60.37-26.63 43.57-64.889 79.66-100.07 116.13 13.97-10.12 25.459-23.66 38.859-34.62 40.18-39.8 78.481-83.02 103.24-134.38 1.1-2.93 8.4697-3.3397 6.6297 0.62031-7.07 16.06-13.551 32.539-22.741 47.539-25.83 48.99-63.14 90.58-97 133.87 5.58-3.53 9.19-9.3 13.95-13.55 46.6-47.86 88.451-102.4 117.26-162.13-5.02 15.56-11.78 31.199-19.47 45.439-24.02 52.36-59.88 99.351-86.93 149.43 42.36-65.63 92.239-128.57 116.79-203.8 9.91-2.24 2.5903 10.239 1.1703 14.519-14.25 56.51-46.48 107.01-69.9 159.37 31.31-58.01 64.24-115.42 88.67-176.78 0.61 11.16-7.2906 25.98-10.591 38.43 9.22-14.52 12.85-34.29 22.72-48.47 13.68-5.09-3.5394 9.26-4.7094 14.5-26.21 70.83-64.531 137.08-108.38 198.33-13.85 23.45-45.24 39.74-70.58 22.95-35.76-20.84-62.389-56.731-74.839-95.861 29.86-24.49 59.329-50.24 85.839-78.42-29.11 23.56-55.74 51.811-87.82 71.031-15.06-46.6 1.6509-97.85 21.561-141.35 3.9-6.75-4.2409-12.601-4.2609-19.231 27.37-10.07 54.16-21.859 81.67-31.419 0.29-0.26 0.8709-0.79093 1.1609-1.0609-31.98 8.24-63.381 21.34-95.181 31-25.31-4.93-50.159-12.779-72.959-24.959 23.12-14.69 53.51-20.201 78.85-29.041-29.63 5.16-58.579 13.921-86.809 24.041-20.77-11.02-38.301-27.511-54.061-44.791-3.23-3.28-6.3194-6.6997-9.1594-10.33-6.87-9.1-14.85-18.259-19.85-28.809-5.29-7.04-6.8-17.321-8.95-26.011 40.48-6.86 82.32-8.7197 123.33-5.5797 16.69-1.27 35.241 2.6697 50.491 0.77969-57.81-3.98-116.16-9.2391-173.77-0.18907-0.15-12.65 6.3894-25.75 15.609-33.7 8.07-6.43 16.63-15.59 28.1-13.12 40.38 2.56 80.46 8.7694 120.08 16.809 9.34 0.95 21.521 5.2209 28.691 4.5109-47.38-11.48-95.499-20.89-143.86-26.45 18.01-6.24 37.59-9.6509 56.6-12.611 3.7-0.63 7.5688-1.7591 11.369-1.1391 12.171-1.5319 24.324-2.2325 36.456-2.2812zm173.28 25.02c6.66 0.6 14.73-0.24 20.65 2.85-4.82 6.41-17.25-0.58-20.65-2.85zm1106.2 1.51c-5.4328 0.0581-10.84 0.98938-16.18 1.8969-91.38 13.46-183.12 24.899-275.27 31.439-83.15-14.57-167.38-22.039-251.49-28.559-75.64-1.24-151.38 0.31-226.79 6.5-65.01 21.05-130.26 41.549-194.14 65.959-45.49 15.72-85.83 42.67-128.67 64.12-3.42 1.97-7.5897 3.0006-10.13 6.1906 47.22-21.13 94.381-42.54 140.86-65.25 60.62-27.19 124.28-46.83 188.08-65 77.5-12.65 156.64-12.04 234.7-5.3 83.08 3.62 166.46 9.82 247.97 27 99.6-5.13 198.35-21.441 296.5-38.731-1.815-0.20751-3.6296-0.285-5.4406-0.26563zm44.509 10.636c-9.28 7.92-20.529 16.95-20.619 30.35-1.04 34.79 5.52 69.351 15.55 102.54 7.88 21.81 17.56 43.089 29.8 62.809 12.12 20.41 36.119 27.971 58.389 30.311-16.07-7.54-34.36-12.831-46-27.381-39.38-43.8-47.73-105.36-50.37-161.93-2.47-14.14 6.42-25.49 13.25-36.7zm32.761 3.6c24.24 7.03 57.62 6.6809 70.67 32.111 4.24 20.29-1.2106 41.079 0.9594 61.519 2.13 15.08 8.89 28.83 15.35 42.42 5.6 11.83 9.4394 24.421 15.109 36.241 3.56 4.71 7.51 9.1391 11.85 13.189 20.13 8.91 43.73 4.07 64.57 4.05-16.01-3.91-32.449-4.5791-48.789-3.6391-21.28-6.89-25.441-32.041-36.531-48.711-15.66-24.72-19.55-54.53-14.23-83.05 0.08-5.56-0.16-11.109-0.6-16.639-0.99-4.09-2.1291-8.1106-2.9891-12.191-19.9-19.09-48.73-24.68-75.37-25.3zm202.25 12.02c4.24 3.93 12.34 3.88 15.9 9.3-12.73-5.13-26.981-5.6503-39.961-0.82031 0.84-1.55 2.0003-2.91 2.7703-4.5-16.42 8.61-31.07 27.2-25.35 46.65 2.87 18.73 23.17 31.971 41.45 28.611 21.41-0.56 41.721-18.211 43.111-39.941 0.58-20.89-17.01-39.1-37.92-39.3zm113.69 4.5688c-0.3625-0.074-1.1828 0.4-2.6672 1.7406-5.72 4.92-11.09 10.241-17.07 14.831-6.81 4.5-14.091 8.7-22.111 10.5-12.65 4.31-21.029-8.2606-26.069-16.941-0.04 4.75-1.4906 1.4706-5.4406 1.7906 1.84 3.71 3.4003 7.6391 3.8703 11.789 1.7 5.5-1.2909 13.25 1.2391 17.92 1.67-8.97 13.53-8.1606 18.4-2.1906 7.86 6.5 6.8203-14.89 15.57-5.3 13.51-4.14 22.33-19.109 32.22-29.039 1.4369-2.1175 2.8554-4.9388 2.0578-5.1016zm-119.51 2.4578c14.061-0.16207 29.346 5.5641 34.805 19.064-12.73-13.45-34.429-18.75-51.159-9.85-14.57 6.42-22.961 24.15-16.881 39.33-10.46-18.56 4.3803-45.721 25.62-47.861 2.45-0.42188 5.0117-0.6528 7.6156-0.68282zm2.6797 9.7875c17.461-0.0314 36.039 13.919 31.734 32.916-7.57 27.51-51.769 29.111-62.789 3.4109-7.03-16.25 7.6394-33.511 23.709-35.431 2.3787-0.60125 4.8509-0.89083 7.3453-0.89532zm1.3797 4.3484c-1.5885 0.022-3.1867 0.21172-4.775 0.5875-13.91 1.25-28.739 13.5-24.239 28.8 6.56 20.45 36.28 24.65 50.08 9.1703 15.11-15.746-2.3221-38.817-21.066-38.558zm-0.8297 3.0688c12.934-0.14802 27.104 10.428 24.775 24.248-5.3 23.18-44.46 23.621-50.33 0.66093-3.34-13.11 9.51-23.771 21.6-24.511 1.2919-0.25313 2.6167-0.38313 3.9547-0.39844zm0 7.1609c-0.9801-0.008-1.9713 0.0913-2.9594 0.30782-8.79 1.21-15.431 11.6-10.961 19.78 4.38 11.57 23.691 11.55 27.541-0.5 4.341-9.4884-4.1459-19.511-13.62-19.588zm-4.4266 3.8203c7.7463-0.39001 7.6547 14.92-1.8328 11.967-6.81-0.64-6.1303-10.65 0.1797-11.67 0.5856-0.17563 1.1367-0.27088 1.6531-0.29688zm-29.483 28.367c8.07 5.62 17.08 10.23 26.25 12.97-8.38 1.2-20.96-4.4103-26.25-12.97zm-87.041 66.561c-0.29 1.11-0.55 2.22-0.8 3.35 1.6 12.17 3.93 24.579 9.65 35.569 0.81 1.65 1.52 3.3503 2.2 5.0703 16.43 29.69 58.061 23.33 83.191 11.97-21.45 5.7-46.93 11.321-66.02-3.8594-3.65-2.81-6.91-6.13-9.75-9.75-9.68-12.15-14.42-27.57-18.47-42.35zm-274.72 27.93c40.91 5.54 81.821 14.17 119.41 31.62 6.45 0.01 14.37-2.2303 16.03-9.3203-6.12 7.42-17.239 9.0194-23.709 1.2094-16.94-8.27-36.231-10.839-54.461-15.339-18.97-3.16-38.01-8.1903-57.27-8.1703z" fill="#1f1a16"/>
<path id="path6" d="m4291.6 11.461c-9.3303-0.13657-18.904 4.1347-24.238 11.919-10.18 20.61-36.041 14.131-53.441 24.541-29.97 12.42-48.81 39.8-69.05 63.52-10.61-0.04-22.669 0.40876-29.909 9.3188-15.25-0.13-32.89-2.4897-44.48 9.8703-18.07-1.44-41.761-3.22-52.561 15.1-24.29 1.69-49.219 5.4097-70.859 17.23-13.61 11.46-32.531 11.281-48.091 19.081 6.6 16.61 23.62 24.45 38.07 32.8-1.81-10.86-6.7794-20.911-9.1594-31.641 12.6 5.34 22.86 16.171 36.1 19.741-1.17-13.27-1.9706-26.571-2.8406-39.861 17.84 11.22 33.07 27.241 50.9 38.791 1.83-11.1 1.1097-23.421 2.7797-33.661 4.24 4.02 5.1503 13.381 9.3203 18.741-1.11-7.68-4.22-14.93-5.2-22.63 5.54-2.84 11.09-5.73 16.88-8.05 10.09 13.29 18.681 27.76 29.241 40.68 13.55 9.71 26.589 21.74 41.159 29.18-22.2-20.94-44.149-42.439-62.419-66.959 23.02 21.42 43.109 46.069 66.489 67.189 1.58-0.04 8.9497 2.5706 6.9797-1.5594-10.97-13.64-23.6-25.96-34.85-39.37-4.35-17-7.6197-34.329-11.38-51.489 25.18 29.3 49.86 59.209 76.27 87.489 1.95-0.32 6.9903 2.24 7.5703-0.95-11.75-12.11-23.71-24.159-35-36.639-2.31-18.77-3.4809-37.81-5.1609-56.7 23.55 28.71 43.551 60.619 65.941 90.339 1.1 0 3.3094 0.0109 4.4094 0.0109-11.49-18.76-26.509-35.261-36.939-54.631 0.15-10.6-0.85-21.149-1.2-31.719 4.46 11.03-0.6303 28.6 8.7297 39.3 10.02 13.57 20.31 26.94 30.22 40.58 4.02 9.87 16.52 4.7403 24.15 4.2203-16.71-29.65-31.64-60.53-53.22-87.1 26.37 23.67 39.88 57.189 58.97 86.309 1.91 0.7 3.98 0.0297 5.9-0.37031-10.63-25.72-35.35-46.74-33.2-76.5-0.96-21.34-3.4909-42.61-4.1609-63.95 15.31 21.48 31.11 42.76 44.67 65.4 10.12 23.02 19.7 46.28 29.77 69.33 0.46 3.49 8.6506 4.3406 6.9906-0.009-9.8-24.01-21.011-47.53-30.441-71.73-7.27-27.09-13.53-54.47-20.17-81.72 16.53 19.18 32.47 38.949 48.18 58.809 12.46 30.73 24.01 61.89 36.45 92.65 0.06 1.95 4.3006 2.3612 2.9406-0.0688-9.5-28.32-19.14-56.63-29.05-84.82-4.69-10.09-3.8694-21.51-3.6594-32.33 2.33 6.07 0.96 14.259 4.15 20.759 13.04 32.54 24.269 65.85 38.069 98.05 6.9-1.12 15.521 0.55969 21.591-1.8703-11.03-32.78-22.96-65.299-33.7-98.189-5-17.48-18.48-30.361-27.1-45.931 9.46 10.08 17.22 21.651 25.25 32.831 12.83 35.25 25.409 70.619 38.109 105.92 0.18 4.43 3.54 5.9812 7.45 5.2812-10.58-34.9-23.37-69.131-33.98-104.03-1.96-21.61-3.1503-43.289-5.0203-64.909 4.9 20.49 5.85 43.959 10.7 65.359 10.78 34.48 22.291 68.781 33.281 103.18 3.88-0.75 13.599 4.2 11.719-4.15 2.16-51.74-21.49-99.33-39.53-146.45 27.27 45.39 45.55 97.32 44.2 150.85 11.04 0.04 22.181 0.87907 33.211-0.11093-11.89-11.01-21.43-26.58-19.65-43.43-1.75-58.68-43.141-104.24-76.581-148.6-3.3076-1.4569-6.9209-2.1856-10.572-2.2391zm-69.817 58.83c5.36 22.35 11.159 44.639 17.059 66.859 11.72 24.16 22.77 48.731 34.45 72.891 5.28-3.37 23.26 4.0697 18.6-5.9703-9.11-23.59-18.17-47.201-27.05-70.891-7.79-24.66-27.809-42.959-43.059-62.889zm-31.9 19.959c1.55 22.29 1.5588 44.689 3.5188 66.959 11.31 18.57 22.191 37.51 34.041 55.7 9.15 0.16 18.389-0.92938 27.509-1.9094-9.41-25.02-20.389-49.52-30.809-74.15-10.97-15.53-22.409-32.74-34.259-46.6zm-73.811 45.6c3.11 15.68 3.8106 31.92 7.6406 47.37 11.33 12.98 23.349 25.6 35.789 37.6 5.16-0.53 10.47-0.77969 15.57-1.9297-19.46-27.81-36.65-57.391-59-83.041zm-41.159 7.0797c3.71 13.87 6.5 28.04 11.45 41.55 11.74 13.72 24.29 26.781 36.18 40.391 6.55-0.62 16.039-0.0197 21.259-2.7797-22.81-26-47.449-51.671-68.889-79.161zm-178.03 40.011c-15.59 6.62-30.121 15.53-43.941 25.28 18.02 10.76 40.311 15.8 60.091 23.65-4.6-16.54-10.79-32.64-16.15-48.93zm483.32 30.156c-96.661 0.34614-193.91 13.257-289.07 27.044-14.15 2.5-28.541 3.9297-42.461 7.5297-76.37 26.02-151.97 56.9-219.58 101.43-24.31 14.78-41.34 38.049-63.1 55.909-49.43 43.26-110.61 73.35-175.07 85.6-3.49-0.1-6.7091 1.38-9.8891 2.6-19.69 0.88-28.411 19.821-43.281 29.541-24.17 17.03-31.88 51.751-21.2 78.741 8.41 26.24 31.73 43.94 41.45 69.48 20 39.72 81.28 53.359 114.9 23.939 50-29.38 110.69-41.2 167.63-28.53 30.1 22.3 66.19 34.18 102.43 41.58 7.18 1.91 14.539-2.4197 21.889-1.7797 1.61-1.88 3.45-3.4903 6.1-3.2703 1.72-6.64 4.6106-13.769 2.0906-20.519-10-8.05-24.169-6.7009-35.859-3.9109-23.89-11.18-45.861-28.529-72.511-33.059-15.99 1.88-37.509 0.0297-46.439-14.42 67.06 5.22 135.17 7.3297 201.23-7.4703 72.07-14.35 136.31 28.18 204.71 41.5 63.89-3.58 126.91 10.59 187.86 28.17 1.7-14.47 17.619-19.62 30.119-21.05 69.45-12.77 139.01 3.8894 206.77 18.059-0.57 0.31-1.7097 0.92031-2.2797 1.2203 6.12 1.36 12.341 2.2797 18.641 2.3797-3.32-2.03-15.13-2.0291-7.2-4.7391 13.01-3.16 7.7988-20.21 13.819-29.25-11.87-38.62-14.409-79.341-13.709-119.49 0.04-16.21 6.7506-31.179 14.091-45.259-6.08-1.8-12.16 1.4491-18.25 1.6891-98.15 17.29-196.9 33.601-296.5 38.731-81.51-17.18-164.89-23.38-247.97-27-78.06-6.74-157.2-7.35-234.7 5.3-63.8 18.17-127.46 37.81-188.08 65-46.48 22.71-93.641 44.12-140.86 65.25 2.54-3.19 6.7097-4.2206 10.13-6.1906-25.8-32.72-37.78-87.271-4.4-118.44 42.2-5.44 82.59-18.759 122.87-31.859 29.45-17.88 59.01-35.6 88.37-53.63 23.43-18.49 45.989-38.11 69.359-56.67 29.54-18.18 58.8-36.94 88.97-54.03 44.32-18.13 88.77-36.01 133.22-53.82 45.25-9.31 90.52-18.759 136-26.959 41.64-4.83 83.3-9.6809 125-14.061 38.82-1.25 77.62 2.0603 116.43 2.6703 68.72 6.69 136.32 21.61 204.25 33.67 5.54 2 9.7503 6.5091 14.97 9.1891 39.71 19.11 79.479 38.161 118.66 58.311 23.99 17.91 47.211 36.87 71.131 54.9 44 27.98 88.28 55.559 132.03 83.939 22.5 18.83 43.68 39.2 66.22 58 4.75-4.29 2.6994 0.28093 0.6094 3.3609-9.89 9.93-18.71 24.899-32.22 29.039-8.75-9.59-7.7103 11.8-15.57 5.3 8.96 12.35 56.58 15.62 48.1-12.55 7.59 3.48 13.22 10.81 20.12 15.72 8.91 5.7 19.65 8.5003 26.9 16.67 7.53-3.78 15-7.8403 23.13-10.27-0.27-0.3-0.8097-0.87969-1.0797-1.1797-9.13-17.23-19.569-35.401-38.139-44.141-8.97-6.8-22.9-5.5294-28.7-16.359-59.35-75.5-143.59-127.3-232.21-161.75-7.9-2.64-13-9.6403-19.17-14.82-53-47.68-119.06-78.969-187.48-97.489-73.211-20.431-148.04-27.763-223.22-27.494zm-49.064 28.944c-64.25 7.63-128.56 15.08-192.71 23.4-44.79 11.97-89.72 23.679-134.2 36.689-65.22 43.49-129.43 88.681-194.23 132.86-10.41 8.53-23.37 12.469-35.65 17.369-44.39 18.08-88.949 35.821-133.44 53.641-28.63 5.65-57.54 9.9694-86.18 15.559-18.91 27.16-15.18 70.72 12.18 91.02 91.38-33.2 182.29-67.759 273.66-101.01 40.67-18.22 86.55-13.96 129.92-17.1 114.01-3.29 227.87 7.5397 341.11 19.93 68.45 9.36 137.02-3.9697 204.97-11.78 47.19-9.8 94.52-19.01 141.6-29.23 14.51-6.87 28.741-14.401 43.591-20.561 14.1-15.71 27.79-31.82 42.48-47.02 3.97-5.22 8.8206-9.7097 12.741-14.98-13.35-30.29-37.971-53.77-61.181-76.67-23.15-9.28-43.57-24.999-67.98-30.969-35.21-10.39-70.23-21.541-105.52-31.611-63.62-4.02-127.44-6.9391-191.16-9.5391zm120.3 47.66c26.8 1.34 53.55 4.73 80.28 7.45 21.75 7.03 43.19 15.079 64.92 22.209 23.99 6.82 41.42 25.95 62.25 38.77 5.54 6.16 16.19 8.82 19.9 15.8-81.03 13.17-160.8-12.26-240.3-24.42-31.34-3.13-60.46-19.539-92.45-16.519-31.37-0.2-64.9-1.8309-94.9-4.9109 21.04-10.12 44.79-19.309 67.4-27.809 44.22-3.99 88.61-7.1603 132.9-10.57zm328.83 131.51c-25.48 24.05-50.42 49.67-78.23 70.65 0.09-11.72 2.9509-23.33 2.0109-35.05-16.44 22.33-33.811 45.87-38.591 73.85-0.77 18.13-0.9803 36.371 0.2797 54.491 1.08-9.2-0.21-20.119 1.15-27.959 6 25.94 2.6809 60.39 21.161 82.83-10.03-33.19-16.59-67.751-15.55-102.54 0.09-13.4 11.339-22.43 20.619-30.35-6.83 11.21-15.72 22.56-13.25 36.7 2.64 56.57 10.99 118.13 50.37 161.93 11.64 14.55 29.93 19.841 46 27.381-22.27-2.34-46.269-9.9009-58.389-30.311-1.27 5.97 5.8988 10.031 4.8188 15.941-7.39 1.23-11.939-5.5897-15.569-10.88-12.13-13.64-16.961-31.881-27.291-46.711 8.68 28.31 25.381 54.75 48.741 73.2 7.43 7.06 18.679 5.9897 27.989 4.2297 33.98-5.98 69.07-6.01 102.08-17 41.14-11.63 85.13-3.43 126.42-14.6 21.63-5.6 43.75-8.9394 65.62-13.359-8.41-7.16-33.53-5.1297-35.95-22.48 1.23-5.13-2.2294-5.4609-4.9594-3.4109-36.86 20.74-80.091 24.12-121.48 25.17-19.21-1.76-35.669-14.649-45.339-30.859-18.02-28.95-35.73-64.031-24.07-98.791-0.34 13.78-3.1994 28.45 2.2906 41.6 16.39 22.58 17.259 54.74 39.919 73.03 19.77 15.57 45.521 4.8609 67.911 6.0609 33.88 1.12 68.37-10.451 93.05-33.961 12.67-15.61 25.61-31.219 40.82-44.409 3.35-7.22-2.3603-14.189-6.8203-19.359-8.06-3.43-7.5597 11.02-15.03 12.8-9.84 9.55-20.761-0.92124-31.091-4.1812-24.34-3.98-44.169 13.3-65.259 22.07-19.58 2.83-40.05 3.54-59.47-0.95-31.82-19.24-36.491-60.09-33.091-93.8-20.47 7.29-25.25 35.25-47.25 42.68-5.32 28.52-1.4303 58.33 14.23 83.05 11.09 16.67 15.251 41.821 36.531 48.711 16.34-0.94 32.779-0.27093 48.789 3.6391-20.84 0.02-44.44 4.86-64.57-4.05 0.77 4.39 6.2909 5.9706 6.3109 10.541-4.44-0.85-8.7703-2.5394-13.32-1.7594 19.09 15.18 44.57 9.5594 66.02 3.8594-25.13 11.36-66.761 17.72-83.191-11.97 0.24 5.61 5.1806 9.6003 6.4906 14.97-15.26-3.73-34 0.97031-46.28-10.78-13.83-9.98-28.271-19.141-41.631-29.711-4.66-19.38 0.2603-39.14 1.6203-58.6 1.69-11.12-6.3597-20.57-6.5297-31.35 6.13-14.36 14.979-27.439 21.709-41.539 14.07-2.18 32.141 7.8303 45.531 2.9703-13.05-25.43-46.43-25.081-70.67-32.111-5.64-1.1-12.53 0.68969-17.3-2.4203-1.88-9.16 8.3797-15.239 14.78-19.919 24.49 1.54 48.679 9.5294 70.109 21.209 3.41 8.51 10.121 16.82 7.7812 26.43 0.86 4.08 1.9991 8.1006 2.9891 12.191 18.31-17.56 36.46-37.611 63.58-40.341-4.03 7.94-10.389 14.971-8.9391 24.691 6.38-0.79 11.399-13.59 18.959-6.3203-3.18 12.38-16.509 22.75-9.9891 36.88-0.3 45.37 64.1 64.431 93 32.741 13.81-11.02 10.62-29.561 11.48-44.841-0.47-4.15-2.0303-8.0791-3.8703-11.789-4.26-7.44-10.769-13.371-14.759-20.941 20.12 5.4 31.459 24.781 46.269 36.091 8.02-1.8 15.301-6 22.111-10.5-12.64-16.64-31.051-27.35-48.161-38.77-23.66-18.83-57.05-16.02-81.53-33.53-34.78-22.16-73.82-35.951-112.12-50.381zm217.73 35.711c13.95 14.24 28.599 28.14 43.039 41.97-5-20.76-20.919-39.61-43.039-41.97zm-1668.1 15.15c-2.865 0.0858-5.7344 0.83843-8.5094 1.3109 57.9 14.41 115.04 32.47 170.85 53.87-4.16 4.93-15.06 0.21-21.25 2.4 13.31 3.56 26.89 6.1094 40.08 10.159 1.04-2.69 4.1203-5.5591 3.5703-8.4391-51.69-25.81-107.95-40.53-163.69-54.75-6.18-0.9-12.231-2.5397-18.191-4.3797-0.95-0.155-1.9044-0.20046-2.8594-0.17187zm-74.189 18.642c-9.4327 0.18648-16.87 7.9034-23.931 13.53 49.78 1.26 99.731-0.99093 149.11 6.8891 4.16 0.74 0.7488-2.17-0.9312-3.2-39.62-8.04-79.7-14.249-120.08-16.809-1.4338-0.30875-2.8212-0.43601-4.1688-0.40937zm286.78 4.2688c3.4 2.27 15.83 9.26 20.65 2.85-5.92-3.09-13.99-2.25-20.65-2.85zm-5.8406 3.1c-3.24 0.5-7.2197-0.24907-9.6297 2.4109 7.45 0.47 16 15.27 22.13 7.5297-3.02-4.39-7.74-7.6406-12.5-9.9406zm-15.33 6.2c-1.92 5.77-9.7297-0.3-14.48 1.3 8.98 4.61 18.2 8.9509 27.33 13.261 12.02-3.06-8.35-13.231-12.85-14.561zm-19.48 3.6906c-3.22 1.11 4.5388 7.2494 5.1688 10.959-4.64-1.26-9.1097-3.5191-13.98-3.5391 12.02 3.37 24.101 18.349 36.261 8.5391-8.21-6.64-18.05-11.259-27.45-15.959zm1426.3 14.78c20.91 0.2 38.5 18.41 37.92 39.3-1.39 21.73-21.701 39.381-43.111 39.941-18.28 3.36-38.58-9.8809-41.45-28.611-5.72-19.45 8.93-38.04 25.35-46.65-0.77 1.59-1.9303 2.95-2.7703 4.5 12.98-4.83 27.231-4.3097 39.961 0.82031-3.56-5.42-11.66-5.37-15.9-9.3zm-1468.1 11.17c4.51 3.45 10.209 4.64 15.009 7.6-19.46 2.68-39.759 1.89-59.309 5.15 28.55 1.6 57.109 3.2 85.459 7.1 6.91 2.74 6.1906-5.7406 7.6906-9.6906-16.12-4-32.42-7.6894-48.85-10.159zm-159.27 1.9516c-28.404-0.0103-56.876 2.3416-84.706 7.0578 2.15 8.69 3.66 18.971 8.95 26.011 76.27-15.03 154.94-8.0612 232.23-9.9312 2.4 11.03 17.36 2.0312 25.02 5.7312 6.53-0.4 21.219 4.3891 20.459-5.6609-80.19-8.87-160.94-10.32-241.54-8.7203-6.94 1.59-44.991 0.34093-20.091-0.33907 5.99-1.17-5.8697 0.26031-6.0297-1.9297 34.6-5.2 69.58-7.1906 104.33-10.741-12.816-0.98125-25.712-1.4734-38.623-1.4781zm1382 19.308c14.86 26.48 15.33 63.23 37.23 86.75 11.23 10.97 10.01 27.82 15.12 41.68 10.6 6.76 21.78 12.65 32.85 18.65 0.74 13.16-14.19 7.3703-22.35 6.6203-18.54-7.09-24.67-26.179-33.57-41.909-18.56-34.61-24.1-73.421-29.28-111.79zm-1228.7 19.756c-61.564 0.155-123.02 7.2666-183.86 16.464-8.13 2.7-18.25 1.36-25.33 6.35 2.84 3.63 5.9294 7.0497 9.1594 10.33 32.34-16.41 69.461-16.89 104.44-23.63 30.38-2.06 60.889-2.6906 91.339-3.5406 5.8-3.31 4.7806 1.4303 5.2906 3.9703 13.74-1.39 27.621-0.63031 41.441-1.0203 3.67-0.76 1.33-5.6094 0.15-7.8594-14.212-0.765-28.426-1.0998-42.633-1.0641zm1611.2 3.7406c-5.65-0.16033-7.0907 4.1922-2.9344 9.9734 2.94 2.17 3.4512 6.5497 6.5312 8.3297 3.81-4.63 10.259-13.959 2.1094-17.039-2.2116-0.82031-4.1242-1.2192-5.7062-1.2641zm-173.62 7.6531c5.29 8.56 17.87 14.17 26.25 12.97-9.17-2.74-18.18-7.3503-26.25-12.97zm-1393.5 1.8484c-0.4358 0.004-0.9441 0.14937-1.5328 0.47187-30.56 1.14-61.36 2.8606-91.53 8.4906-10.99 3.26-24.16 3.2791-34.02 7.0391 29.28-2.12 58.61-3.8894 87.82-6.7594 3.12-0.53 1.61 4.21 4.2 5.15 11.9-2.69 24.201-3.5509 36.191-5.2609 1.4175-2.205 1.9228-9.1561-1.1281-9.1312zm1309.7 4.9312c12.4 31.48 24.2 68.921 51.75 92.241 7.32 10.3-16.72 4.4594-19.35-1.6906-13.59-29.12-32.92-57.32-32.4-90.55zm15.209 4.3406c9.97 5.12 13.46 19.941 20.35 29.141 10.56 18.07 27.11 42.879 51.6 34.369 11.28-4.46 17.03 10.761 27.9 8.9609 17.29-1.05 34.511-3.2009 51.811-4.0109-24.24 19.55-60.03 4.2309-88.75 12.911-28.91-3.41-38.75-34.181-49.88-56.961-2-9.45-13.941-14.049-13.031-24.409zm-1320.2 4.5703c-53.43 5.48-106.73 13.13-159.06 25.4 39.37 5.5 77.391-4.7903 115.29-13.47-9.01 6.5-20.82 7.9097-30.05 14.13 25.09-7.01 50.27-13.71 75.75-19.22-0.15-2.38-0.4997-4.8691-1.9297-6.8391zm1600.7 10.659c-19.76 14.91-37.529 33.08-50.709 54.12 3.18-13.17 13.22-23.171 22.2-32.741-5.3 2.89-8.6006 8.3409-13.941 11.061 4.49-9.73 13.9-15.911 19.82-24.611 1.06-3.78-2.5094-5.9891-5.8594-5.6891-15.15 11.27-29.171 25.109-39.031 41.289-4.78 9.37-2.5197 33.891 12.07 27.261 0.78-4.87-7.0691-17.061-7.2391-5.8609-8.36-8.25 0.2297-24.35 10.08-29.53-10.56 13.78 1.3697 26.95 4.0797 42.1-1.54-1.45-3.0197-4.3903-5.4297-2.8703 5.58 9.68 10.94 19.681 18.25 28.211-0.31-1.07-0.6306-2.12-0.9406-3.15-1.23-3.01-2.4103-6.05-3.0203-9.25-8.0018-11.579-8.4777-26.308 2.0156-34.731-2.2607 1.3653-4.5702 2.6268-7.0953 3.4516 1.96-11.94 13.44-20.94 19.03-30.27-0.59 8.07 6.4409 3.7297 11.211 2.5797-2.33 4.79-6.4406 8.4106-8.9406 13.091 10.4-7.63 20.861-15.521 29.291-25.361 3.85-6.48 3.1294-17.63-5.8406-19.1zm-37.655 55.609c1.7412-1.0516 3.4556-2.1608 5.2047-3.2094-1.9676 0.92107-3.699 2.0007-5.2047 3.2094zm-1558.7-54.17c-22.76 5.81-45.89 10.47-68.32 17.37 11.18 1.26 22.541-6.7309 33.431-2.4109 10.61-5.4 34.799-2.8194 34.889-14.959zm1544.2 9.8203c-13.13 13.27-28.019 27.05-32.859 45.75-4.54 10.26 10.951 16.599 17.091 13.719-8.06-15.81-1.9412-33.01 9.3688-45.43 1.95-4.69 6.67-8.6991 6.4-14.039zm-1538.2 4.7938c-0.8069 0.0162-1.6831 0.24624-2.6469 0.75624-23.33 4.38-46.79 8.8188-69.5 15.669-6.18 3.37-13.28 4.8503-19.12 8.8203 23.27-4.55 46.419-10.87 69.689-14.78 6.45 6.73 0.5512 12.2-7.4188 12.63-0.29 0.27-0.8709 0.80093-1.1609 1.0609-0.06 1.65-3.1 5.63-0.05 5.3 12.22-8.41 25.5-15.371 38.05-23.061-2.1694-2.5269-4.3455-6.4658-7.8422-6.3953zm1285.8 12.12c0.34 17.04 2.1494 40.239 14.509 50.959-5.72-10.99-8.05-23.399-9.65-35.569-1.89-4.69 0.081-12.821-4.8594-15.391zm-1272.8 2.7016c-0.3139 0.0213-0.6985 0.14594-1.1672 0.39844-28.92 13.1-56.57 28.86-85.2 42.48 17.32-4.61 33.73-13.09 51.08-18-0.31 2.85-0.4391 5.7909-0.1891 8.6609 12.55-8.18 25.12-16.63 36.23-26.75 0.175-1.995 1.4444-6.9378-0.7531-6.7891zm1286.7 3.2281c-0.57 3.34-0.06 6.6503 0.6 9.9703 2.33 13.72-11.58-18.689-8.8703-3.8594 4.05 14.78 8.7903 30.2 18.47 42.35-2.47-8.19-7.1906-15.77-9.0406-24.22 5.89 2.21 8.19 9.25 13.95 12-5.67-11.82-9.5094-24.411-15.109-36.241zm-1280.3 13.309c-0.7971-0.0575-1.6319 0.20156-2.4344 0.90156-34.52 21.25-69.829 41.239-105.66 60.189 28.39-6.69 52.439-25.75 79.439-36.13-0.8 5.2-3.2094 9.9606-4.1594 15.141 13.12-10.63 25.309-22.4 37.109-34.47 0.15-2.445-1.9042-5.4588-4.2953-5.6312zm1492.7 1.78c5.6 2.12 1.6897 12.759 4.6797 18.139-9.64 0.16-8.6497-12.379-4.6797-18.139zm-542.82 11.9c-20.57 1.93-47.29-2.3009-63.2 12.389 32.38 5.23 67.361 7.8712 100.61 13.131 7.8-4.82-25.931 0.56876-18.781-12.081 7.88-6.23 19.65-3.8891 28.85-6.3891-15.8-2.1-32.1-2.71-47.48-7.05zm-941.19 1.4594c-29.24 27.61-61.971 51.23-96.181 72.27 28.92-9.32 50.251-31.951 74.831-48.641-0.85 4.38-1.2903 8.8106-1.1703 13.291 9.97-10.15 19.379-21.18 27.289-33-1.19-0.98-3.5788-2.9403-4.7688-3.9203zm8.05 13.82c-34.64 43.75-80.671 76.58-127.23 106.47 38.39-14.24 72.221-38.261 100.78-67.441-0.56 4.01-1.3403 7.9603-2.0203 11.97 12.49-14.89 23.13-31.26 33.08-47.93-1.27-1.34-2.6294-2.9903-4.6094-3.0703zm209.74 0.47656c-9.3092 0.2301-16.951 6.8175-24.494 11.744-12.93 13.68 1.7988 37.34-12.481 49.97 3.95 18.83-6.2191 35.949-13.439 52.469-2.76 14.74 11.47 25.91 25.08 26.67 53.05 6.98 103.32-21.279 144.5-51.709-8.98 1.01-16.529 7.64-25.909 7.45 2.58-6.47 11.419-8.4909 13.939-15.311-25.62 16.58-52.5 31.39-80.17 44.17 25.87-15.46 52.33-30.12 77.15-47.35-15.79 5.43-29.99 16.3-45.58 22.93-2.01 1.11-2.6897-1.61-3.8297-2.7-10.66 4.46-20.55 10.921-31.65 14.241 32.66-17.59 65.89-34.72 96.95-55.27-0.88-3.2-3.66-5.0294-7.15-3.0594-38.83 17.99-76.369 39.539-118.96 47.359 7.69-4.66 16.549-7.3494 24.839-10.859 31.61-14.12 63.511-28.12 92.511-47.2 3.42-10.34-7.5403-3.3909-12.02-1.7609-23.54 7.8-45.61 21.271-70.28 24.661-8.56 2.05-16.391 6.3797-25.011 8.1297 29.57-13.99 60.77-25.5 89.15-42.23-5.97-5.22-14.029-0.83969-20.389 0.87031-23.84 7.86-48.811 15.759-73.981 14.719 1.66-0.47 3.2906-1.0497 4.9906-1.3797 20.95-5.46 41.501-12.57 61.341-21.27-9.1-3.48-23.311 3.1912-34.181 2.0312-8.67 1.59-17.179 4.06-25.909 5.3 8.65-4.84 19.34-5.9009 28.07-11.061 4.49-5.09 13.999-5.3394 16.839-11.059-7.33-2.1-14.589 1.6197-21.909 2.0297-10.7 2.72-21.19 6.2994-32.13 8.0094 7.1-3.64 14.91-5.6488 22.15-9.0188 3.78-6.39-7.9609-8.0912-12.111-6.1312-9.47 3.74-11.889 1.2912-2.7094-1.7188 0.18-1.06 2.5297-2.7 0.8797-3.35-1.4025-0.25-2.7654-0.34693-4.0953-0.31406zm658.3 1.7031c-0.24 1.44-0.29 2.9503 0.2 4.3703 21.75 2.79 43.5 5.7503 65.22 8.7703 2.57-4.59 10.019-3.53 16.459-5.15-27.32-2.27-54.54-5.9106-81.88-7.9906zm2.45 8.1203c0.05 1.12 0.2 2.2306 0.45 3.3406 22.88 5.66 46.26 9.3088 69.63 12.219 8.06-4.06 19.241-0.53876 28.231-3.7188-32.9-2.63-65.791-6.1606-98.311-11.841zm-862.51 4.4797c-29.31 43.79-67.98 80.37-108.48 113.68 1.1 2.15 3.8794 0.63 5.4594-0.15 25.26-21.42 49.469-44.079 72.859-67.509 1.32 2.62 3.1403 4.9194 4.7703 7.3594 9.92-13.41 19.03-27.599 27.22-42.159 3.17-3.7 0.5703-7.9603-1.8297-11.22zm708.43 0.11093c-8.265-0.0187-16.644 0.665-24.784 0.2 16.17 2.51 32.44 4.8194 48.88 3.8094-7.68-3.27-15.83-3.9906-24.095-4.0094zm69.467 3.5344c-14.972-0.005-30.867 2.5006-44.492 0.46562 16.68 7.07 41.66-2.5506 52.6 14.409 16.07-6.12 11.53 18.03 3.1203 23.6-18.14 23.79-37.2 46.911-58.22 68.191 33.58-25.33 63.83-56.08 85.95-92.07-9.935-12.075-23.985-14.59-38.958-14.595zm86.158 2.2547c0.98 4.23 2.6206 9.65 8.3906 8.8 16.24 2.76 32.55 5.4003 49 6.5703 2.03-4.61 8.1094-3.8894 12.409-4.8094-23.49-1.88-46.8-5.5109-69.8-10.561zm-231.95 0.91093c-0.8543 0.0372-1.7991 0.33656-2.8547 0.97969-19.66 2.38-36.299 13.249-51.109 25.759-12.86 16.13-22.15 35.54-37.53 49.47-7.33 19.79-3.6 42.15 2.45 61.85 5.7 20.33 27.58 32.31 47.83 31.4 38.33 0.93 72.03-20.091 103.25-39.741 14.88-8.24 26.169-21.13 37.609-33.4 2.11-5.16 8.5303-9.39 8.0703-15.3-19.14 19.42-39.48 37.66-60.9 54.52 11.73-13.63 26.349-24.54 38.009-38.32-1.68-9.71-12.979-1.91-19.259-1-36.54 22.03-73.47 43.59-111.88 62.17 35.47-23.33 73.11-43.689 107.23-69.089 1.37-6.01-3.5597-8.2612-8.2797-9.0812-30.31 14.34-61.05 28-91.82 41.27 35.7-20.82 73.389-38.579 108.21-61.059-4.5-3.08-10.2-2.0397-15.3-2.2797-28.09 11.09-56.25 22.37-85.08 31.33 19.66-9.9 41.22-16.361 60.97-26.391 0.33-10.65-13.4-2.1794-19.02-2.7594-24.35 5.89-48.389 13.149-72.959 18.089 29.25-9.08 59.32-17.47 88-29.05 3.21-1.6 10.759-4.7494 4.5094-7.8094-19.43 1.12-38.29 8.1506-57.42 11.941 7.34-3.31 15.051-5.5912 22.811-7.6812 1.69-0.79 3.3797-1.5797 5.0797-2.3797 5.59-4.12 11.95-6.95 17.98-10.35 0.36-6.25-5.65-9.5497-11.15-10.13-17.23 0.85-35.44 4.2397-52.13 1.5297 18.54-1.51 37.351-2.1591 55.441-6.8891 4.46-1.73 2.1297-6.0012-1.3203-7.3312-5.68 0.07-11.411-0.0491-16.991-1.1391 4.96-1.39 10.3-1.06 15.43-1.65-2.1532-2.8925-4.173-7.6408-7.875-7.4797zm-540.46 0.64844c-0.8078-0.045-2.1906 0.275-4.3281 1.0703-9.87 14.18-13.5 33.95-22.72 48.47 3.3-12.45 11.201-27.27 10.591-38.43-24.43 61.36-57.36 118.77-88.67 176.78-3.15 9.07-10.611 16.471-12.291 26.011 43.85-61.25 82.171-127.5 108.38-198.33 0.9872-4.4212 13.4-15.327 9.0375-15.57zm-81.219 5.8609c-26.03 48.7-64.759 88.64-103.94 126.85 0.09 0.62-1.3106 3.5994 0.059 2.5094 26.68-23.9 52.49-48.909 75.75-76.239 3.65 1.26 1.2597 7.2803 2.4297 10.47 13.22-17.19 24.141-39.54 33.391-60.37 2.29-4.29-6.0906-2.6703-7.6906-3.2203zm860.39 7.7c7.91 11.92 29.391 6.4297 42.741 10.13 3.68-6.4 14.549-0.98031 20.539-4.8203-21.2 0.18-42.39-1.7994-63.28-5.3094zm-813.22 0.17969c-0.6452-0.0299-1.4224 0.0509-2.3515 0.26093-24.55 75.23-74.429 138.17-116.79 203.8-1.32 2.25-2.6506 4.4994-3.6906 6.9094 25.24-30.42 49.079-62.23 70.509-95.48 15.46-32.78 31.34-65.39 46.7-98.22 0.69-1.93 2.6906-2.1906 4.4406-2.4906 1.2869-3.8788 7.4187-14.491 1.1812-14.78zm-26.423 0.56718c-1.75-0.0263-3.8672 0.80844-4.4172 2.2734-24.76 51.36-63.061 94.58-103.24 134.38 34.81-22.97 59.95-57.359 83.22-91.359 1.47 1.57 2.6994 3.3491 3.9094 5.1391 9.19-15 15.671-31.479 22.741-47.539 0.92-1.98-0.4625-2.8675-2.2125-2.8938zm352.86 2.4672c-5.5063-0.22809-13.591 16.375-18.762 19.477-0.84-3.07 11.841-14.921 6.8109-16.981-14.46 17.69-30.261 34.301-47.141 49.541 26.3-6.31 46.161-27.26 62.991-47.22-1.0172-3.3688-2.3567-4.7518-3.8984-4.8156zm-339.18 6.1562c-28.81 59.73-70.661 114.27-117.26 162.13 7.25-1.21 11.391-7.5297 16.061-12.48 16.94-19.17 36.419-36.34 49.159-58.82 11.61-14.51 18.78-33.061 32.57-45.391 7.69-14.24 14.45-29.879 19.47-45.439zm834.79 3.4203c7.46 10.1 23.09 4.8591 34 7.4391-0.66-6.32 11.16 0.79093 7.1203-5.3891-13.77 0.8-27.53 0.27-41.12-2.05zm20.895 13.731c-16.279-0.33709 7.3844 10.819 15.016 6.9281 18.09-0.67-0.4112-0.29938-6.1312-4.4094 6.75-2.37-1.5397-1.8306-5.0797-2.2906-1.4569-0.1325-2.7195-0.20565-3.8047-0.22813z" fill="#f6c491"/>
<path id="path26" d="m4651.1 273.91c14.06 14.33 34.539 22.33 44.709 40.25 23.21 22.9 47.831 46.38 61.181 76.67-3.92 5.27-8.7706 9.7597-12.741 14.98-10.75 17.73-28.299 33.07-40.209 51 0.94 11.72-1.9209 23.33-2.0109 35.05 27.81-20.98 52.75-46.6 78.23-70.65 38.3 14.43 77.34 28.221 112.12 50.381 24.48 17.51 57.87 14.7 81.53 33.53 17.11 11.42 35.521 22.13 48.161 38.77 5.98-4.59 11.35-9.9112 17.07-14.831-22.54-18.8-43.72-39.17-66.22-58-43.75-28.38-88.03-55.959-132.03-83.939-23.92-18.03-47.141-36.99-71.131-54.9-39.18-20.15-78.949-39.201-118.66-58.311zm-1288.6 190.63c-5.8072 0.0549-11.965 0.79719-15.542 1.4609 9.02 0.08 18.051 0.0803 27.081 0.0203-2.7168-1.1506-7.0223-1.5239-11.539-1.4812zm1360.9 23.85c-6.4 4.68-16.66 10.759-14.78 19.919 4.77 3.11 11.66 1.3203 17.3 2.4203 26.64 0.62 55.47 6.21 75.37 25.3 2.34-9.61-4.3712-17.92-7.7812-26.43-21.43-11.68-45.619-19.669-70.109-21.209zm144.46 19.489c-27.12 2.73-45.27 22.781-63.58 40.341 0.44 5.53 0.68 11.079 0.6 16.639 22-7.43 26.78-35.39 47.25-42.68-3.4 33.71 1.2706 74.56 33.091 93.8 19.42 4.49 39.89 3.78 59.47 0.95 21.09-8.77 40.919-26.05 65.259-22.07 10.33 3.26 21.251 13.731 31.091 4.1812 7.47-1.78 6.9697-16.23 15.03-12.8 2.02 0.99 4.3791 1.0894 6.2891 2.4094-5.32-7.4-1.4694-12.459 8.6406-8.7094-2.08-5.32-22.44-9.7609-10.77-10.011-6.9-4.91-12.53-12.24-20.12-15.72 8.48 28.17-39.14 24.9-48.1 12.55-4.87-5.97-16.73-6.7794-18.4 2.1906-2.53-4.67 0.4609-12.42-1.2391-17.92-0.86 15.28 2.3303 33.821-11.48 44.841-28.9 31.69-93.3 12.629-93-32.741-6.52-14.13 6.8091-24.5 9.9891-36.88-7.56-7.27-12.579 5.5303-18.959 6.3203-1.45-9.72 4.9091-16.751 8.9391-24.691zm85.8 10.42c3.99 7.57 10.499 13.501 14.759 20.941 3.95-0.32 5.4006 2.9594 5.4406-1.7906 5.04 8.68 13.419 21.251 26.069 16.941-14.81-11.31-26.149-30.691-46.269-36.091zm-31.395 11.477c-2.6039 0.03-5.1656 0.26094-7.6156 0.68282-21.24 2.14-36.08 29.301-25.62 47.861-6.08-15.18 2.3112-32.91 16.881-39.33 16.73-8.9 38.429-3.6 51.159 9.85-5.459-13.5-20.743-19.226-34.805-19.064zm-167.23 9.7797c-1.3822 0.0124-2.7372 0.10969-4.0562 0.31406-6.73 14.1-15.579 27.179-21.709 41.539 0.17 10.78 8.2197 20.23 6.5297 31.35-1.36 19.46-6.2803 39.22-1.6203 58.6 13.36 10.57 27.801 19.731 41.631 29.711 12.28 11.75 31.02 7.0497 46.28 10.78-1.31-5.37-6.2506-9.3603-6.4906-14.97-0.68-1.72-1.39-3.4203-2.2-5.0703-12.36-10.72-14.169-33.919-14.509-50.959 4.94 2.57 2.9694 10.701 4.8594 15.391 0.25-1.13 0.51-2.24 0.8-3.35-2.71-14.83 11.2 17.579 8.8703 3.8594-0.66-3.32-1.17-6.6303-0.6-9.9703-6.46-13.59-13.22-27.34-15.35-42.42-2.17-20.44 3.2806-41.229-0.9594-61.519-12.135 4.4044-28.114-3.4042-41.475-3.2844zm362.21 38.962c-5.9308 0.0674-12.262 2.0888-16.908 4.8406-18.53 10.4-35.001 24.701-49.011 40.581 0.27 5.34-4.45 9.3491-6.4 14.039 20.02-20.73 41.701-44.129 71.211-49.989-14.59 7.3-29.61 14.98-41.08 26.83 3.35-0.3 6.9194 1.9091 5.8594 5.6891-5.92 8.7-15.33 14.881-19.82 24.611 5.34-2.72 8.6406-8.1709 13.941-11.061 10.59-14.46 29.73-33.249 51.4-32.969 6.67 3.97 2.6991 13.049 0.039 18.459-14.12 24.81-39.659 39.91-60.309 58.63 1.07 3.1-3.2497 12.981 2.3703 12.441 29.8-12.83 49.679-39.961 66.609-66.541 5.56-11-2.3791-22.17-1.4391-33.52-1.8731-8.9831-8.8373-12.127-16.462-12.041zm3.7202 27.564c-6.2206 0.10565-12.186 3.4037-17.419 6.5969 8.97 1.47 9.6906 12.62 5.8406 19.1-8.43 9.84-18.891 17.731-29.291 25.361-2.97 2.7-5.94 5.3791-9 7.9391-15.68 7.34-16.37 24.701-7.2203 37.941 0.36-9.06-2.1988-18.331-0.4188-27.241 18.73-13.75 37.07-28.289 52.68-45.589 4.8-6.79 11.64-14.681 9.1703-23.631-1.4568-0.35625-2.9066-0.50095-4.3422-0.47656zm-600.51 182.85c-2.5037-0.003-5.0009 0.02-7.5109 0.075 2.15 1.83 12.811 1.83 15.061 0-2.535-0.045-5.0462-0.0725-7.55-0.075z" fill="#8f5446"/>
</g>
<path id="path30" d="m4451.4 289.7c-44.29 3.41-88.68 6.5803-132.9 10.57-22.61 8.5-46.36 17.689-67.4 27.809 30 3.08 63.53 4.7109 94.9 4.9109 31.99-3.02 61.11 13.389 92.45 16.519 79.5 12.16 159.27 37.59 240.3 24.42-3.71-6.98-14.36-9.64-19.9-15.8-20.83-12.82-38.26-31.95-62.25-38.77-21.73-7.13-43.17-15.179-64.92-22.209-26.73-2.72-53.48-6.11-80.28-7.45zm231.36 265.48c5.18 38.37 10.72 77.181 29.28 111.79 8.9 15.73 15.03 34.819 33.57 41.909 8.16 0.75 23.09 6.5397 22.35-6.6203-11.07-6-22.25-11.89-32.85-18.65-5.11-13.86-3.8903-30.71-15.12-41.68-21.9-23.52-22.37-60.27-37.23-86.75zm-15.911 2.0109c-1.36 7.84-0.07 18.759-1.15 27.959 1.34 25.76 5.2703 51.71 14.07 76.03 10.33 14.83 15.161 33.071 27.291 46.711 3.63 5.29 8.1788 12.11 15.569 10.88 1.08-5.91-6.0888-9.9706-4.8188-15.941-12.24-19.72-21.92-40.999-29.8-62.809-18.48-22.44-15.161-56.89-21.161-82.83zm254.22 0.77188c-0.5164 0.026-1.0675 0.12125-1.6531 0.29688-6.31 1.02-6.9897 11.03-0.1797 11.67 9.4875 2.9531 9.5791-12.357 1.8328-11.967zm-113.3 35.15c-0.52 33.23 18.81 61.43 32.4 90.55 2.63 6.15 26.67 11.991 19.35 1.6906-27.55-23.32-39.35-60.761-51.75-92.241zm15.209 4.3406c-0.91 10.36 11.031 14.959 13.031 24.409 11.13 22.78 20.97 53.551 49.88 56.961 28.72-8.68 64.51 6.6391 88.75-12.911-17.3 0.81-34.521 2.9609-51.811 4.0109-10.87 1.8-16.62-13.421-27.9-8.9609-24.49 8.51-41.04-16.299-51.6-34.369-6.89-9.2-10.38-24.021-20.35-29.141zm-773.62 23.161c-9.8585 0.008-19.839 0.90078-29.974 2.9188-66.06 14.8-134.17 12.69-201.23 7.4703 8.93 14.45 30.449 16.3 46.439 14.42 26.65 4.53 48.621 21.879 72.511 33.059 11.69-2.79 25.859-4.1391 35.859 3.9109 2.52 6.75-0.3706 13.879-2.0906 20.519 61.13 5.35 122.99 8.6512 183.87-1.0188 28.57-4.82 57.511-0.59 86.041 2.25 16.28 0.93 33.52-2.7306 48.88 3.8094l0.8797-0.009c27.25 4.07 63.58-10.02 83.45 14.13 13.07-5.24 27.37-2.5609 40.92-1.1109-1.11-9.25-3.5494-18.349-2.9594-27.759-60.95-17.58-123.97-31.75-187.86-28.17-58.781-11.447-114.49-44.466-174.74-44.419zm1028.4 20.859c-5.59 9.33-17.07 18.33-19.03 30.27 4.47-1.46 8.28-4.2509 12.3-6.6609 3.06-2.56 6.03-5.2391 9-7.9391 2.5-4.68 6.6106-8.3006 8.9406-13.091-4.77 1.15-11.801 5.4903-11.211-2.5797zm-26.889 6.5094c-9.85 5.18-18.44 21.28-10.08 29.53 0.17-11.2 8.0191 0.99093 7.2391 5.8609 0.42 1.29 0.8906 2.5891 1.4906 3.8391 2.41-1.52 3.8897 1.4203 5.4297 2.8703-2.71-15.15-14.64-28.32-4.0797-42.1zm-379.06 11.841c-6.02 9.04-0.8088 26.09-13.819 29.25-7.93 2.71 3.88 2.7091 7.2 4.7391-6.3-0.1-12.521-1.0197-18.641-2.3797-17.14-3.16-34.389-5.7203-51.559-8.6703-4.96-0.72-11.801 0.17124-7.9609 6.2312 18.23 4.5 37.521 7.0691 54.461 15.339 6.47 7.81 17.589 6.2106 23.709-1.2094-1.66 7.09-9.5797 9.3303-16.03 9.3203-14.73 5.77-37.16 2.6297-44.98 19.03 0.23 16.82 21.539 24.739 35.689 18.559 9.05-4.4 16.661-11.329 26.111-14.959-4.07 3.82-9.3903 5.9794-13.37 9.9094 24.96-3.52 50.35-0.63938 75.32-3.9094-26.14-20.87-45.851-49.36-56.131-81.25zm353.29 2.05c-3.97 5.76-4.9603 18.299 4.6797 18.139-2.99-5.38 0.9203-16.019-4.6797-18.139zm-211.19 9.15c1.85 8.45 6.5706 16.03 9.0406 24.22 2.84 3.62 6.1 6.94 9.75 9.75 4.55-0.78 8.8803 0.90938 13.32 1.7594-0.02-4.57-5.5409-6.1506-6.3109-10.541-4.34-4.05-8.29-8.4791-11.85-13.189-5.76-2.75-8.06-9.79-13.95-12z" fill="#fff"/>
<path id="path84" d="m4921.6 547.38c13.78-2.7 31.3 8.6 28.73 23.85-5.3 23.18-44.46 23.62-50.33 0.66-3.34-13.11 9.51-23.77 21.6-24.51m1 7.07c-8.79 1.21-15.43 11.6-10.96 19.78 4.38 11.57 23.69 11.55 27.54-0.5 4.79-10.47-6.04-21.59-16.58-19.28z" fill="#ffc819"/>
</g>
</svg>