<?xml version="1.0" encoding="UTF-8" standalone="no"?>
<!-- Generator: Adobe Illustrator 12.0.0, SVG Export Plug-In . SVG Version: 6.00 Build 51448)  -->
<svg xmlns:inkscape="http://www.inkscape.org/namespaces/inkscape" xmlns:rdf="http://www.w3.org/1999/02/22-rdf-syntax-ns#" xmlns="http://www.w3.org/2000/svg" xmlns:cc="http://web.resource.org/cc/" xmlns:dc="http://purl.org/dc/elements/1.1/" xmlns:sodipodi="http://inkscape.sourceforge.net/DTD/sodipodi-0.dtd" xmlns:svg="http://www.w3.org/2000/svg" xmlns:ns1="http://sozi.baierouge.fr" xmlns:xlink="http://www.w3.org/1999/xlink" id="Layer_1" style="enable-background:new 0 0 404.321 374.313" space="preserve" sodipodi:docname="pescetto.svg" viewBox="0 0 404.321 374.313" sodipodi:version="0.32" version="1.1" inkscape:version="0.42" sodipodi:docbase="F:\openclip\svg da inviare">
  <sodipodi:namedview id="base" bordercolor="#666666" inkscape:pageshadow="2" inkscape:window-width="787" pagecolor="#ffffff" inkscape:zoom="0.96176198" inkscape:window-x="22" borderopacity="1.0" inkscape:current-layer="Layer_1" inkscape:cx="202.16051" inkscape:cy="187.15649" inkscape:window-y="29" inkscape:window-height="510" inkscape:pageopacity="0.0"/>
  <path id="path3" style="fill:#FFA600;clip-rule:evenodd;fill-rule:evenodd" d="m154.66 223.33c9.831 5.641 16.893 16.565 27.439 20.785 11.066 4.427 23.263 3.514 34.943 4.915 27.542 3.306 50.493 16.884 69.877 36.263-8.107 1.039-16.099 1.068-24.22 0.094-6.547-0.785-15.98-4.001-17.7 4.312-1.393 6.728 8.692 14.171 11.484 19.756 3.578 7.157 4.233 14.28 6.277 21.616 1.745 6.263 10.469 10.084 14.857 14.856 2.495 2.713 5.271 5.955 6.926 9.261 2.865 5.724-2.154 2.481-5.235 1.007-15.234-7.294-30.917-13.688-45.854-21.612-12.499-6.633-26.016-13.39-35.984-23.66-10.085-10.391-17.81-22.178-24.792-34.813-5.89-10.66-8.406-23.624-15.966-33.211-2.009-2.548-4.303-4.665-6.582-6.945-1.646-1.646-5.27-3.298-6.343-5.374-2.62-5.05 6.28-8.72 10.85-7.28"/>
  <path id="path5" style="fill:#A02623;clip-rule:evenodd;fill-rule:evenodd" d="m283.42 358.25c-29.466-16.174-65.336-25.008-88.898-50.368-11.123-11.973-20.061-26.608-26.596-41.55-3.072-7.024-5.236-14.628-9.416-21.089-1.841-2.846-4.351-5.777-6.927-7.959-2.009-1.702-6.579-4.357-7.792-6.704-2.62-5.068 7.218-9.472 11.592-6.81 6.067 3.693 10.978 8.474 16.309 13.09 10.767 9.323 21.918 10.545 35.7 11.202 31.253 1.491 57.677 15.384 79.53 37.232-17.547-17.01-39.558-25.422-63.512-29.015-2.912-0.437-12.224-3.21-14.758-1.061-2.933 2.488 2.808 5.327 5.195 7.127 9.515 7.17 20.176 13.153 29.229 20.896-9.156-4.833-17.942-10.127-26.648-15.725-4.048-2.603-7.979-5.422-12.083-7.932-2.708-1.655-11.342-5.953-5.547 0.184 14.338 15.184 30.604 29.065 47.298 41.59-10.534-6.582-20.394-14.09-30.207-21.688-4.682-3.624-9.332-7.324-14.121-10.804-5.3-3.851-9.907-5.889-4.631 2.182 14.918 22.825 36.645 40.263 59.588 54.467-15.322-8.57-29.463-18.318-43.08-29.387-5.718-4.646-11.082-11.828-17.676-15.123-3.663-1.831-0.355 3.851 0.242 4.893 1.964 3.426 4.401 6.626 6.813 9.747 20.209 26.148 50.36 45.809 78.947 61.795 0.49 0.27 0.97 0.54 1.46 0.81"/>
  <path id="path7" style="fill:#602623;clip-rule:evenodd;fill-rule:evenodd" d="m283.42 358.25c-29.466-16.174-65.336-25.008-88.898-50.368-11.123-11.973-20.061-26.608-26.596-41.55-3.072-7.024-5.236-14.628-9.416-21.089-1.841-2.846-4.351-5.777-6.927-7.959-2.009-1.702-6.579-4.357-7.792-6.704-2.62-5.068 7.218-9.472 11.592-6.81 6.067 3.693 10.978 8.474 16.309 13.09 10.767 9.323 21.918 10.545 35.7 11.202 31.253 1.491 57.677 15.384 79.53 37.232-11.794-10.868-24.437-20.526-39.618-26.21-13.759-5.151-27.898-6.16-42.396-6.16-6.774 0-12.956 0.098-19.527-1.727-10.676-2.964-1.611 8.723 1.289 12.477 8.979 11.62 19.344 22.361 29.713 32.732-5.592-4.598-10.908-9.51-16.468-14.146-1.753-1.462-14.658-12.399-15.058-10.011-0.934 5.581 6.168 15.27 9.372 19.498 4.311 5.688 9.033 10.789 13.895 15.998 20.57 22.02 48.72 37.21 75.32 50.51"/>
  <path id="path9" style="fill:#210000;clip-rule:evenodd;fill-rule:evenodd" d="m283.42 358.25c-29.466-16.174-65.336-25.008-88.898-50.368-11.123-11.973-20.061-26.608-26.596-41.55-3.072-7.024-5.236-14.628-9.416-21.089-1.841-2.846-4.351-5.777-6.927-7.959-2.009-1.702-6.579-4.357-7.792-6.704-2.62-5.068 7.218-9.472 11.592-6.81 6.067 3.693 10.978 8.474 16.309 13.09 10.767 9.323 21.918 10.545 35.7 11.202 31.253 1.491 57.677 15.384 79.53 37.232-11.567-10.819-23.828-20.114-38.383-26.588-14.444-6.424-28.113-6.444-43.328-8.138-15.641-1.741-26.919-2.178-39.262-13.287-4.546-4.092-5.352-1.701-3.677 3.322 1.344 4.035 3.003 7.95 5.028 11.69 3.801 7.021 11.887 12.587 19.009 15.849-5.427-2.285-13.813-5.356-10.268 3.865 2.271 5.906 5.397 11.595 8.818 16.91 6.903 10.725 15.507 21.157 25.968 28.565 22.45 15.9 47.5 29.54 72.6 40.77"/>
  <path id="path11" style="stroke-width:0;stroke-miterlimit:10;fill:none" d="m154.66 223.33c9.831 5.641 16.893 16.565 27.439 20.785 11.066 4.427 23.263 3.514 34.943 4.915 27.542 3.306 50.493 16.884 69.877 36.263-8.107 1.039-16.099 1.068-24.22 0.094-6.547-0.785-15.98-4.001-17.7 4.312-1.393 6.728 8.692 14.171 11.484 19.756 3.578 7.157 4.233 14.28 6.277 21.616 1.745 6.263 10.469 10.084 14.857 14.856 2.495 2.713 5.271 5.955 6.926 9.261 2.865 5.724-2.154 2.481-5.235 1.007-15.234-7.294-30.917-13.688-45.854-21.612-12.499-6.633-26.016-13.39-35.984-23.66-10.085-10.391-17.81-22.178-24.792-34.813-5.89-10.66-8.406-23.624-15.966-33.211-2.009-2.548-4.303-4.665-6.582-6.945-1.646-1.646-5.27-3.298-6.343-5.374-2.62-5.05 6.28-8.72 10.85-7.28"/>
  <path id="path13" style="fill:#FFA600;clip-rule:evenodd;fill-rule:evenodd" d="m85.69 220.31c2.171 22.242-15.357 32.57-29.601 46.06-7.485 7.088-14.476 13.655-10.982 24.601 3.527 11.053 7.433 19.667 6.401 31.524-1.552-10.668-9.099-19.131-12.396-29.41-3.723-11.607-3.231-23.691-0.376-35.369 2.793-11.427 9.452-22.029 18.525-29.481 6.105-5.01 20.531-12.13 28.429-7.92"/>
  <path id="path15" style="fill:#A02623;clip-rule:evenodd;fill-rule:evenodd" d="m43.899 305.47c-13.313-28.374-8.306-75.873 28.08-84.617 2.995-0.719 8.397-2.421 11.416-1.262 3.689 1.416 2.833 4.963 2.544 8.809-0.594 7.919-5.333 14.775-10.376 20.596-9.31 10.742-29.196 19.316-31.724 34.491-1.033 6.198 3.813 13.92 5.737 19.688 2.184 6.547 2.527 12.489 1.932 19.325 0-7.555-1.47-14.325-4.167-21.379-2.189-5.726-7.233-13.998-5.46-20.373 3.438-12.362 19.833-21.352 28.402-30.308 3.95-4.128 12.099-11.614 10.818-18.046-0.426-2.138-5.033 4.026-5.695 4.854-2.54 3.178-5.399 5.994-8.557 8.553-10.998 8.91-23.377 18.475-26.935 32.976 1.954-9.581 7.223-17.883 14.01-24.762 3.409-3.455 7.139-6.452 10.871-9.542 2.339-1.937 10.117-6.76 10.509-10.025 0.523-4.355-6.063 0.573-8.093 1.812-3.764 2.297-7.524 4.688-10.831 7.628-7.45 6.624-13.176 14.427-15.501 24.26 3.039-13.349 10.124-25.018 21.508-32.809 2.588-1.771 16.706-7.87 15.512-11.459-1.616-4.856-14.979 3.6-16.979 4.968-25.159 17.22-27.4 50.03-17.021 76.63"/>
  <path id="path17" style="fill:#602623;clip-rule:evenodd;fill-rule:evenodd" d="m44.986 242.54c7.718-12.218 21.093-24.082 36.718-23.069 7.078 0.459 4.803 10.53 2.711 15.55-3.043 7.305-7.673 13.046-13.34 18.511 2.874-3.219 17.611-22.813 9.784-25.002-3.552-0.993-11.042 4.29-13.891 6.039-4.839 2.971-9.604 6.385-13.527 10.509 5.136-5.565 10.801-9.7 17.211-13.649 1.786-1.101 15.956-8.48 7.429-9.904-12.533-2.1-26.842 11.84-33.095 21.01"/>
  <path id="path19" style="stroke-width:0;stroke-miterlimit:10;fill:none" d="m85.69 220.31c2.171 22.242-15.357 32.57-29.601 46.06-7.485 7.088-14.476 13.655-10.982 24.601 3.527 11.053 7.433 19.667 6.401 31.524-1.552-10.668-9.099-19.131-12.396-29.41-3.723-11.607-3.231-23.691-0.376-35.369 2.793-11.427 9.452-22.029 18.525-29.481 6.105-5.01 20.531-12.13 28.429-7.92"/>
  <path id="path21" style="fill:#FFA600;clip-rule:evenodd;fill-rule:evenodd" d="m336.92 264.64c-7.115-24.924-22.948-50.621-51.573-51.333 11.826 16.265 21.594 33.746 30.134 51.938 8.201 17.468 17.213 37.146 17.213 56.769 10.16-17.88 8.58-37.98 4.23-57.38"/>
  <path id="path23" style="fill:#FFA600;clip-rule:evenodd;fill-rule:evenodd" d="m336.92 264.64c4.346 19.401 5.93 39.498-4.227 57.373 0-19.06-8.549-38.315-16.525-55.305-8.775-18.692-18.665-36.684-30.821-53.401 25.056 27.144 36.994 61.974 50.487 95.54 2.032-6.585-2.153-17.729-4.009-24.147-2.799-9.68-6.314-18.615-10.728-27.668 6.646 11.89 13.182 24.069 16.668 37.322 0.66-10.01 0.55-19.73-0.84-29.7"/>
  <path id="path25" style="fill:#210000;clip-rule:evenodd;fill-rule:evenodd" d="m336.92 264.64c4.346 19.401 5.93 39.498-4.227 57.373 0-19.06-8.549-38.315-16.525-55.305-8.775-18.692-18.665-36.684-30.821-53.401 22.141 28.185 42.122 64.785 49.399 100.13 7.07-14.11 5.92-33.7 2.18-48.79"/>
  <path id="path27" style="fill:#FFA600;clip-rule:evenodd;fill-rule:evenodd" d="m136.06 230.94c0.878 11.426 0.11 22.65 0.483 34.063 0.367 11.241 2.91 22.347 6.022 33.101 5.23 18.073 19.868 42.502 39.151 48.308-0.91-4.132-5.032-8.093-6.39-12.426-2.146-6.847-3.854-13.623-4.871-20.738-1.922-13.448-3.063-27.553-0.153-40.938 2.556-11.757-8.146-21.763-17.839-27.099-5.229-2.879-7.589-7.317-9.036-12.941-0.74-2.877-0.876-6.253-4.228-7.368-3.65-1.2-3.73 3.71-3.13 6.05"/>
  <path id="path29" style="stroke-width:0;stroke-miterlimit:10;fill:none" d="m136.06 230.94c0.878 11.426 0.11 22.65 0.483 34.063 0.367 11.241 2.91 22.347 6.022 33.101 5.23 18.073 19.868 42.502 39.151 48.308-0.91-4.132-5.032-8.093-6.39-12.426-2.146-6.847-3.854-13.623-4.871-20.738-1.922-13.448-3.063-27.553-0.153-40.938 2.556-11.757-8.146-21.763-17.839-27.099-5.229-2.879-7.589-7.317-9.036-12.941-0.74-2.877-0.876-6.253-4.228-7.368-3.65-1.2-3.73 3.71-3.13 6.05"/>
  <path id="path31" style="fill:#A02623;clip-rule:evenodd;fill-rule:evenodd" d="m178.33 340.61c1.179 1.867 2.93 3.749 3.381 5.798-14.456-4.353-27.411-21.284-33.601-34.289-6.832-14.354-11.889-32.092-11.552-48.119 0.193-9.19 0.624-18.396-0.082-27.566-0.188-2.451-2.102-10.051 0.664-11.535 4.178-2.242 5.687 5.057 6.281 7.368 3.866 15.026 22.084 17.925 27.54 32.914 0.358 0.984 0.403 1.926 0.242 2.959 0.414-7.028-9.645-10.85-14.495-14.011 2.698 9.435 5.901 18.489 10.509 27.176-5.821-7.591-9.576-15.709-12.562-24.76 2.184 15.281 5.424 29.171 11.595 43.361-3.729-7.612-7.289-15.321-10.146-23.312-1.3-3.636-2.549-7.38-3.508-11.12-0.949-3.702-1.095-9.254-3.377-12.313-5.076 7.277 0.595 21.94 3.02 29.352 3.511 10.732 7.676 21.251 13.529 30.921-12.283-15.573-20.116-38.322-22.225-57.856 0.465 17.492 1.179 34.238 6.983 50.923 2.735 7.861 7.809 15.232 13.006 21.669 2.621 3.245 5.297 6.49 8.273 9.421 1.23 1.19 6.54 6.89 6.55 3.02"/>
  <path id="path33" style="fill:#602623;clip-rule:evenodd;fill-rule:evenodd" d="m179.78 345.69c-30.281-18.639-43.836-52.353-43.103-87.203 0.192-9.153 0.105-18.106-0.597-27.236-0.236-3.079-0.705-7.787 3.841-6.105 3.503 1.296 3.321 7.062 4.295 9.985 2.627 7.887 9.054 9.623 14.911 14.535 4.354 3.651 12.834 11.617 12.139 17.937-0.02 0.181-0.04 0.361-0.06 0.543-0.744-6.876-7.712-11.763-13.045-15.219-6.782-4.395-12.323-4.99-12.079 4.711-1.212-3.091-2.979-8.411-4.953-3.624-1.495 3.624-0.429 10.578-0.483 14.494-0.15 10.896 1.721 21.81 5.663 31.989 7.03 18.16 16.71 34.49 33.47 45.2"/>
  <path id="path35" style="fill:#210000;clip-rule:evenodd;fill-rule:evenodd" d="m137.51 275.75c-1.332-14.839-0.281-29.644-1.424-44.504-0.776-10.095 5.58-5.832 7.344 1.021 1.472 5.721 4.042 10.699 9.662 13.286-4.325-0.407-8.964-4.394-10.991-8.092 0.935 5.132 1.614 10.204 3.502 15.098-2.145-3.676-5.004-7.403-6.039-11.596-0.99 11.59-1.83 23.15-2.05 34.78"/>
  <path id="path37" style="fill:#FFA600;clip-rule:evenodd;fill-rule:evenodd" d="m11.77 156.05c9.645-13.655 18.5-20.834 35.088-24.579 16.342-3.689 24.429-16.931 38.009-25.076 6.193-3.715 12.549-6.896 19.666-8.321 3.375-0.676 4.476 0.479 5.953-3.012 1.542-3.644 3.223-7.242 5.039-10.757 7.663-14.833 17.194-28.254 28.616-40.417 26.82-28.549 63.41-42.102 101.95-43.883-2.808 3.673-8.005 8.802-8.215 13.77-0.195 4.627 3.188 7.236 0.945 12.041-4.561 9.771-9.53 16.697-0.702 25.523-3.461 1.607-7.367 2.491-11.112 3.019 4.886 1.692 14.758 4.498 18.479 8.214 2.345 2.342 0.207 3.811 1.69 7.247 1.486 3.444 6.439 5.746 8.938 8.455 5.215 5.652 8.933 15.124 5.418 22.47-4.325 9.04-3.699 14.453-1.311 24.153-13.887-7.406-32.506-13.243-48.314-9.059 13.403 9.829 27.098 16.521 43.485 19.623 16.185 3.063 31.994 6.472 47.587 11.901 30.325 10.56 60.916 27.838 78.812 55.422 13.862 21.368 22.527 48.105 22.527 73.74 0 13.305-1.403 26.5-6.201 39.029-4.904 12.807-11.031 24.21-5.032 37.627-9.167-7.856-7.79-20.915-6.46-32.077 0.693-5.823 1.433-11.651 2.617-17.399 0.798-3.876 4.601-12.449 1.427-15.627-3.557-3.56-8.704-4.944-12.199-8.696-3.688-3.959-3.711-8.945-6.342-13.166-2.037-3.27-10.496-3.639-13.891-4.771-4.554-1.521-9.446-3.204-13.466-5.858 1.596 6.699-1.569 6.757-6.765 4.107-5.682-2.896-11.085-6.679-16.427-10.147-10.279-6.675-18.772-14.406-26.693-23.673v1.449c-4.712-1.142-9.613-9.094-12.079-13.045 2.535 6.269 6.05 13.059 6.344 19.952 0.323 7.561-2.006 14.325 0.014 21.786 1.729 6.384 6.813 11.836 7.729 18.477 1.057 7.651-2.411 12.108-4.49 19.042-1.9 6.337 0.571 12.298 4.942 17.081 5.562 6.084 9.737 12.115 13.459 19.451 6.481 12.775 5.667 30.396 5.218 44.251-3.311-16.938-7.137-33.502-18.963-46.743-5.659-6.337-12.391-11.563-19.33-16.418-6.688-4.68-11.331-12.454-15.214-19.455-8.506-15.335-14.491-31.953-20.784-48.267-3.056-7.921-5.625-16.117-8.205-24.205-1.323-4.147-2.601-8.307-3.852-12.477-1.512-5.042-2.88-6.004-6.791-9.13-7.281-5.82-13.547-14.21-21.968-18.373-3.438 37.101-48.542 61.719-82.498 53.146 15.039 11.078 17.278 29.917 12.388 47.052-5.82 20.392 11.886 29.313 27.835 37.015-5.368-1.718-10.776-3.576-16.374-4.376-6.857-0.979 3.396 5.347 5.02 6.108 10.609 4.974 21.687 8.372 32.974 11.433-14.4-1.409-30.878 2.813-42.878-7.609-2.959-2.57-5.653-5.905-7.61-9.3-2.097-3.638-2.448-7.883-5.375-10.811-5.942-5.942-10.472-12.743-14.29-20.2-7.555-14.754-11.773-33.363-9.565-49.916 0.428-3.211-6.562-3.718-9.439-4.677-4.085-1.36-8.177-2.782-12.064-4.641-5.371-2.567-10.982-7.74-16.776-8.652-7.773-1.224-17.581-4.167-23.684-9.327-7.083-5.99-16.896-8.417-24.157-14.978-2.99-2.702-4.616-5.324-6.28-8.817-1.886-3.958-5.393-6.618-7.368-10.267-3.865-7.08 7.645-9.05 10.978-14.34"/>
  <path id="path39" style="fill:#FF2600;clip-rule:evenodd;fill-rule:evenodd" d="m260.22 124.89c-2.336-9.486-2.868-14.532 0.966-23.433 3.075-7.139 1.323-16.258-4.077-22.111-2.959-3.208-6.626-5.607-9.434-8.939-2.237-2.657 0.884-6.308-1.828-7.661-6.07-3.026-12.438-6.177-18.843-8.395 3.745-0.528 7.651-1.412 11.112-3.019-8.828-8.827-3.858-15.753 0.702-25.523 2.243-4.805-1.141-7.414-0.945-12.041 0.21-4.968 5.407-10.097 8.215-13.77-11.313 0.18-19.16 8.229-27.177 15.098 8.379-2.302 7.842 4.083 4.228 9.301-3.319 4.792-7.882 9.04-13.286 11.353 6.255 1.216 16.681 3.359 14.132 12.079-2.016 6.894-9.976 11.657-15.943 14.615 12.678-1 31.54-1.032 39.073 11.535 8.785 14.654-11.768 23.167-23.13 24.701 2.51 0.527 12.741 1.786 11.475 5.918-1.13 3.687-13.27 3.566-16.065 3.624 7.615 1.958 15.172 4.013 22.587 6.643 5.62 2 14.82 4.74 18.23 10.03"/>
  <path id="path41" style="fill:#FFA600;clip-rule:evenodd;fill-rule:evenodd" d="m237.03 6.522c-7.071 3.426-5.1 11.521-7.972 17.634-1.491 3.175-3.841 5.738-4.105 9.422-0.094 1.302 0.732 9.7 2.415 10.146 0.959 0.254 4.545-15.032 5.748-17.08 1.722-2.928 3.384-5.524 3.431-9.01 0.04-3.914-1.93-7.396 0.47-11.112"/>
  <path id="path43" style="fill:#FFA600;clip-rule:evenodd;fill-rule:evenodd" d="m254.19 81.047c5.166 6.292 6.84 12.034 4.084 19.907-2.295 6.555-2.619 13.094-0.581 19.831-7.351-5.247-21.039-7.028-19.084-18.601 1.94-11.491 17.25-8.095 15.58-21.133"/>
  <path id="path45" style="fill:#602623;clip-rule:evenodd;fill-rule:evenodd" d="m215.41 114.26c-9.593 0.308-14.096-11.356-20.127-16.956-7.199-6.684-15.691-10.91-25.289-12.999-20.504-4.463-43.351 2.241-60.633 13.406 10.987-26.526 28.139-50.921 51.075-68.427 25.09-19.149 54.39-27.84 85.65-29.284-16.108 1.308-32.389 3.906-47.59 9.542-14.595 5.412-27.088 14.195-39.095 23.951-12.516 10.169-24.138 23.443-32.591 37.174-2.555 4.15-11.237 20.085 0.611 15.01 7.339-3.144 11.736-11.465 16.576-17.473 17.913-22.238 40.267-42.793 68.39-50.328-16.374 4.584-30.074 13.637-42.724 24.849-6.301 5.585-12.315 11.49-17.911 17.788-3.478 3.915-15.638 15.138-13.285 21.017 2.127 5.314 13.727-9.622 15.46-11.354 5.942-5.94 12.103-11.699 18.602-17.03 13.388-10.982 27.79-20.416 44.447-25.485-26.781 9.801-48.553 29.623-67.968 49.952-7.125 7.46 5.063 3.525 8.373 0.502 5.313-4.854 10.376-9.896 15.985-14.426 11.234-9.074 23.253-17.539 36.967-22.379-10.302 4.642-19.648 10.939-28.732 17.6-2.26 1.657-26.058 21.255-22.118 23.225 5.303 2.651 23.013-13.635 27.532-16.588 9.129-5.967 20.005-12.464 30.928-14.211-9.921 2.759-19.284 8.254-27.901 13.769-4.083 2.613-8.111 5.384-11.958 8.335-1.58 1.212-12.188 8.942-7.126 9.663 8.837 1.258 17.86-9.8 24.86-13.998 9.414-5.646 19.507-9.042 30.218-11.246-9.236 2.503-18.125 5.901-26.545 10.463-2.837 1.538-22.472 13.29-17.299 17.8 4.412 3.847 17.993-7.896 21.794-9.886 9.218-4.825 19.003-8.848 29.538-9.318-9.641 1.159-19.016 4.864-27.422 9.618-2.533 1.433-21.055 11.989-14.006 15.143 3.014 1.348 9.037-3.33 11.715-4.468 4.326-1.838 8.85-3.391 13.407-4.53 9.105-2.276 18.06-3.529 27.418-2.114-8.724-0.755-17.496 0.044-25.908 2.537-2.194 0.65-26.247 9.779-21.259 13.347 5.692 4.071 18.998-3.065 25.063-4.288 9.225-1.86 18.174-1.975 27.056 1.45-8.069-1.897-15.86-2.009-24.039-0.939-4.331 0.566-21.552 3.675-23.067 8.186-0.895 2.667 15.602-0.793 17.272-0.966 9.194-0.951 19.012-0.968 27.901 1.812-8.46-1.367-17.078-1.736-25.605-0.846-3.944 0.412-8.23 0.845-11.958 2.295-3.505 1.364-5.385 2.197-1.569 3.382 5.511 1.712 13.112 1.243 18.903 2.169 8.13 1.3 16.897 1.817 24.698 4.594-9.212-1.91-18.604-3.326-27.989-4.048-4.348-0.335-8.653-0.783-13.017-0.783-4.525 0-1.588 2.336 1.026 3.502 6.638 2.961 17.131 1.549 24.354 2.582 8.492 1.214 17.05 5.007 23.72 10.343-12.66-8.51-29.71-11.82-44.81-10.63"/>
  <path id="path47" style="fill:#602623;clip-rule:evenodd;fill-rule:evenodd" d="m398.16 238.43c4.714 19.727 8.079 39.104 4.651 59.365-3.092 18.278-17.904 37.086-9.724 55.381-13.896-11.908-6.135-41.22-2.309-56.846 4.73-19.32 9.49-37.87 7.38-57.9"/>
  <path id="path49" style="fill:#FF2600;clip-rule:evenodd;fill-rule:evenodd" d="m344.77 255.58c4.221 2.787 9.532 4.724 14.372 6.16 3.285 0.975 12.431 1.534 13.418 5.48 1.399 5.589 3.698 10.635 8.324 14.267 3.427 2.692 10.219 4.589 11.232 9.361 4.234-16.222 8.101-32.861 6.324-49.71-1.708-16.206-12.306-33.366-22.207-45.834-20.327-25.595-50.248-40.599-80.789-50.413-1.995-0.641-3.989-1.278-5.995-1.884 24.291 8.287 47.684 18.216 67.345 35.068 19.572 16.776 31.272 36.454 37.256 61.439-9.667-17.394-22.57-36.873-39.256-48.314 13.013 11.436 25.88 29.419 32.732 45.294-16.756-25.343-40.598-50.076-68.484-62.808 28.831 15.727 57.215 45.351 68.002 76.819-6.87-14.167-18.469-25.801-29.834-36.477-11.328-10.641-23.742-20.745-37.082-28.747 15.153 10.273 29.628 22.898 41.792 36.597-11.442-11.952-26.655-20.212-40.342-29.229 22.645 17.152 47.227 40.626 56.89 68.001-19.445-30.136-47.604-52.375-77.545-71.504 27.038 20.15 53.039 41.07 70.54 70.417-12.559-19.086-32.583-33.381-50.368-47.227 7.342 7.487 15.075 14.593 22.491 22.009 7.049 7.049 16.106 14.148 21.354 22.683-11.599-10.426-24.823-18.977-36.234-29.593 9.906 11.228 20.31 21.429 31.646 31.162-24.342-14.474-45.207-33.697-65.949-52.783 14.601 16.6 28.29 33.966 45.777 47.71-18.217-14.421-35.456-29.762-51.322-46.758-7.771-8.324-15.193-16.963-22.478-25.712-6.46-7.759-13.703-18.842-23.311-22.95 17.519 16.018 28.222 38.087 44.316 55.468 8.706 9.4 17.461 18.351 27.358 26.501 8.11 6.66 18.6 16.79 30.02 15.49"/>
  <path id="path51" style="fill:#A02623;clip-rule:evenodd;fill-rule:evenodd" d="m354.32 220.92c12.828 14.496 22.979 28.689 27.66 47.709-6.507-11.33-14.197-22.128-23.675-31.161 6.716 7.978 12.476 17.383 17.153 26.693-6.552-9.332-15.589-17.221-24.158-24.641 5.869 6.419 11.97 12.858 15.099 21.137-9.899-1.474-20.427-9.35-28.596-14.795-10.246-6.829-19.732-14.646-28.295-23.493 13.961 15.947 26.489 32.104 47.469 38.771 4.32 1.373 9.633 1.488 13.588 3.685 3.418 1.897 3.304 5.979 4.469 9.239 1.782 4.983 5.761 7.805 10.306 10.075 2.703 1.351 6.428 3.388 6.786 6.714 5.89-15.717-5.537-26.083-11.717-39.496-5.78-12.54-15.92-21.42-26.09-30.43"/>
  <path id="path53" style="fill:#FF2600;clip-rule:evenodd;fill-rule:evenodd" d="m293.44 265.61c4.751 9.767 3.956 15.891-0.129 25.597-4.302 10.221 1.919 15.961 7.816 23.578 13.719 17.719 15.608 37.675 14.899 59.531-3.311-16.938-7.137-33.502-18.963-46.743-5.659-6.337-12.391-11.563-19.33-16.418-6.688-4.68-11.331-12.454-15.214-19.455-8.506-15.335-14.491-31.953-20.784-48.267-3.056-7.921-5.625-16.117-8.205-24.205-1.323-4.147-2.601-8.307-3.852-12.477-1.512-5.042-2.88-6.004-6.791-9.13-4.664-3.728-8.947-7.921-13.333-11.971-1.854-1.712-7.594-4.417-8.635-6.401-1.102-2.099-0.298-9.562-0.751-12.332-2.62-16.028-16.382-24.603-21.372-39.266-2.464-7.244-5.831-19.125 5.856-14.904 6.482 2.341 12.855 5.402 18.868 8.763 13.737 7.679 26.625 16.54 39.553 25.488-10.739-6.302-21.613-12.86-33.103-17.721-1.207-0.51-12.694-4.809-10.743-2.208 3.406 4.538 8.485 8.241 12.442 12.334 17.73 18.344 34.081 37.796 48.555 58.808-10.02-12.884-20.348-26.416-33.216-36.599 14.519 17.871 25.521 37.923 36.234 58.218-7.59-14.235-17.054-30.377-28.142-42.153 8.082 17.595 11.323 36.469 18.117 54.475 6.662 17.657 17.65 32.47 28.625 47.588-6.898-14.033-14.754-27.777-20.653-42.273 4.519 8.39 9.287 16.769 14.192 24.941 4.733 7.885 8.569 16.982 14.433 24.097 1.576-4.048-2.338-12.01-3.985-15.943-2.29-5.471-5.196-10.71-8.092-15.883-5.638-10.076-11.338-20.017-17.514-29.774 6.701 8.237 12.11 17.581 17.396 26.763 2.598 4.514 5.145 9.057 7.728 13.58 2.105 3.686 4.249 10.256 7.608 12.683-0.624-9.155-6.251-18.568-10.479-26.492-4.929-9.236-9.023-19.655-15.247-28.104 9.27 13.69 17.87 27.93 26.17 42.27"/>
  <path id="path55" style="fill:#FF2600;clip-rule:evenodd;fill-rule:evenodd" d="m263.24 201.71c9.185 11.793 18.415 23.018 24.642 36.719-7.39-12.74-16.63-24.37-24.64-36.72"/>
  <path id="path57" style="fill:#602623;clip-rule:evenodd;fill-rule:evenodd" d="m200.92 179.24c6.478 3.202 11.266 9.146 16.654 13.814 2.347 2.033 4.592 4.212 7.158 5.976 4.269 2.935 4.693 6.866 6.155 11.739 4.988 16.629 10.98 32.885 17.146 49.103 5.926 15.584 12.86 32.954 23.848 45.709 5.375 6.24 12.893 10.084 18.903 15.679 6.359 5.92 12.08 12.581 15.941 20.436 5.03 10.232 7.133 21.521 9.301 32.612 0.692-21.34-0.933-41.492-14.367-58.843-5.426-7.008-12.908-13.433-8.814-23.161 4.262-10.125 5.598-16.417 0.595-26.702 2.64 7.255 5.711 16.26-0.603 22.708-4.091 4.178-15.396 3.516-7.247 11.293 9.961 9.507 22.256 20.476 25.485 34.484-4.647-14.858-19.351-23.84-31.405-32.009-11.96-8.104-18.63-22.029-23.4-35.211-11.822-32.668-11.203-69.901-28.133-100.77-4.632-8.448-9.78-15.615-16.876-22.199-4.773-4.429-14.771-13.641-21.937-12.245-9.854 1.919 3.429 14.534 5.529 18.122 5.38 9.2 7.61 18.8 6.06 29.46"/>
  <path id="path59" style="fill:#210000;clip-rule:evenodd;fill-rule:evenodd" d="m316.03 374.31c-3.311-16.938-7.137-33.502-18.963-46.743-5.659-6.337-12.391-11.563-19.33-16.418-6.688-4.68-11.331-12.454-15.214-19.455-8.506-15.335-14.491-31.953-20.784-48.267-3.056-7.921-5.625-16.117-8.205-24.205-1.323-4.147-2.601-8.307-3.852-12.477-1.512-5.042-2.88-6.004-6.791-9.13-4.954-3.959-9.332-8.546-14.118-12.696-2.819-2.445-7.989-4.429-7.582-8.092 0.458-4.131 0.153-8.27-0.417-12.366-1.089-7.829-5.533-14.869-10.542-20.79-5.924-7.001 1.507-9.064 7.549-6.825 14.612 5.415 24.875 23.054 31.439 36.186 7.539 15.081 11.502 31.485 14.941 47.88-4.501-16.345-9.319-33.403-18.54-47.819-2.982-4.663-12.422-15.932-7.348-3.253 3.285 8.209 7.081 16.196 10.429 24.379 12.081 29.535 18.09 61.541 32.913 90.045 4.126 7.935 9.573 14.475 16.462 20.178 6.897 5.711 15.773 10.111 21.577 16.971 12.14 14.37 15.28 34.66 16.37 52.9"/>
  <path id="path61" style="fill:#FFA600;clip-rule:evenodd;fill-rule:evenodd" d="m200.92 175.86c-2.91 31.403-37.865 55.414-67.761 55.078-14.754-0.166-31.549-3.393-45.414-8.333-7.181-2.559-13.507-5.976-20.05-9.784-5.136-2.989-11.344-3.339-16.991-5.533-4.71-1.831-11.393-3.889-14.051-8.538-1.089-1.905-7.118-3.206-9.24-4.228-3.189-1.536-6.355-3.316-9.24-5.375-4.637-3.311-7.665-6.799-10.024-11.836-0.875-1.868-10.236-13.559-7.006-14.374 2.705-0.683 7.03 8.589 9.301 9.724 4.354 2.176 11.988-0.316 16.064-2.355 1.617-0.809 3.271-1.623 4.952-2.294 2.718-1.087 5.261 1.175 7.247 0.482 3.078-1.073 2.883-6.855 1.798-9.116-1.872-3.9-4.479-5.466-8.2-7.431 8.5 0.13 19.065 9.607 27.176 6.281-2.407 9.287-3.142 18.354-0.482 27.66 1.53-9.524 3.584-29.658 17.152-28.626-2.556-10.191-10.715-25.647-21.138-29.713 7.05 1.295 13.285 9.419 17.925 14.333 4.187 4.434 6.957 12.68 13.479 10.186 6.708-2.565 12.541-7.592 19.084-10.629 7.008-3.253 14.95-5.202 22.688-5.454 18.088-0.587 31.914 8.134 41.927 22.892 9.624 14.183 12.411 27.595 5.197 43.559 13.007-10.206 26.631-32.833 20.896-50.005 3.94 7.01 5.4 15.42 4.7 23.42"/>
  <path id="path63" style="fill:#FFA600;clip-rule:evenodd;fill-rule:evenodd" d="m200.92 179.24c-2.93 31.62-37.843 55.114-67.761 55.078-7.538-0.009-14.689-2.22-22.125-2.962-8.104-0.81-15.594-2.63-23.289-5.372-7.163-2.553-13.564-5.897-20.05-9.783-5.118-3.065-11.298-3.319-16.991-5.535-4.71-1.832-11.393-3.887-14.051-8.537-1.088-1.904-7.119-3.207-9.24-4.228-3.188-1.535-6.359-3.313-9.24-5.375-4.619-3.305-7.656-6.867-10.024-11.836-0.875-1.835-10.292-13.653-7.006-14.494 2.542-0.651 6.986 8.529 8.576 9.783 4.535 3.577 12.416 2.789 17.271 0.362 2.883-1.44 5.708-2.645 8.827-3.467 3.468-0.914 5.755 2.117 7.712-2.04 3.614-7.676-5.84-12.934-11.224-15.509 7.949 1.176 16.008 12.627 24.157 9.783-3.834 9.833-2.516 21.876 4.107 30.075 1.507-9.547 4.322-33.727 18.117-33.095-2.585-10.728-12.811-27.125-23.673-31.162 6.652 1.432 12.316 9.175 16.506 14.064 1.971 2.3 9.878 15.462 12.724 15.105 6.883-0.864 13.685-6.799 19.809-9.844 7.354-3.655 15.024-4.59 23.146-4.59 16.524 0 29.952 7.773 38.334 21.923 8.189 13.824 11.254 30.504 3.744 45.234 20.847-11.152 33.821-33.075 26.935-57.01 3.94 7.05 5.4 15.45 4.7 23.45"/>
  <path id="path65" style="fill:#FF2600;clip-rule:evenodd;fill-rule:evenodd" d="m118.42 232.39c-7.264-1.766-14.685-1.605-21.962-3.606-7.468-2.053-15.498-4.698-22.195-8.643-6.61-3.894-11.604-6.37-12.369-14.808-0.811-8.939 1.439-18.3 3.852-26.823 4.458-15.749 27.662-20.356 41.823-22.932 14.602-2.656 33.102-3.767 44.465 8.138 11.587 12.141 12.815 32.276 7.487 47.777-6.47 18.8-23.17 21.62-41.11 20.89"/>
  <path id="path67" style="fill:#FFA600;clip-rule:evenodd;fill-rule:evenodd" d="m146.69 194.7c-0.963 18.228-6.218 32.696-26.536 34.488-15.189 1.34-32.045-2.709-45.574-9.606-6.238-3.181-10.273-5.423-11.627-12.58-1.417-7.487 1.182-17.744 3.889-24.703 5.028-12.928 28.56-17 41.013-18.493 21.07-2.52 38.25 8.82 38.84 30.89"/>
  <path id="path69" style="fill:#FFA600;clip-rule:evenodd;fill-rule:evenodd" d="m101.75 225.99c-10.895-3.121-27.633-2.397-35.751-12.2-4.692-5.666-1.649-18.07 0.603-24.277 2.725-7.511 9.265-9.647 16.427-11.958 13.488-4.35 32.014-8.462 42.758 3.865 8.479 9.729 7.787 33.388-3.673 40.808-6.08 3.93-13.35 4.08-20.37 3.76"/>
  <path id="path71" style="fill:#210000;clip-rule:evenodd;fill-rule:evenodd" d="m200.92 179.24c-2.26 24.394-24.269 43.589-46.095 51.387-10.404 3.717-22.508 5.001-33.345 2.473-11.354-2.649-23.631-2.683-34.219-7.962 21.88 3.128 46.67 9.898 68.122 1.692 18.47-7.06 44.27-25.71 45.54-47.59"/>
  <path id="path73" style="fill:#FF2600;clip-rule:evenodd;fill-rule:evenodd" d="m39.913 158.59c6.717 5.039 10.837 10.399 12.646 18.726 1.538 7.08 2.789 12.513 6.075 19.08 2.997 5.99 2.595 14.23-5.375 8.032-4.795-3.729-8.393-8.208-14.193-10.569-6.845-2.787-13.734-3.957-19.205-9.421-4.389-4.384 1.398-5.699 5.193-7.126 5.909-2.222 9.347-1.443 15.099-0.483 3.603 0.601 5.85-5.412 5.341-8.258-0.765-4.29-2.708-6.79-5.581-9.98"/>
  <path id="path75" style="fill:#210000;clip-rule:evenodd;fill-rule:evenodd" d="m0.779 170.43c4.543 4.546 6.269 9.239 9.421 14.494 3.813 6.355 12.33 10.813 18.842 13.769 12.598 5.719 22.641 15.246 37.807 15.582 3.237 0.072 7.345-0.09 10.387-1.329 2.449-0.997 4.247-2.174 0.182-2.174-7.513 0-15.148 0.656-22.285-2.174-7.318-2.901-12.467-8.819-18.975-12.984-3.258-2.085-6.589-1.635-10.135-2.477-3.82-0.907-7.235-3.286-10.085-5.918-3.157-2.916-3.855-7.179-6.87-10.19-2.52-2.52-5.089-4.97-8.289-6.6"/>
  <path id="path77" style="fill:#FFA600;clip-rule:evenodd;fill-rule:evenodd" d="m144.51 326.6c-8.648-4.741-13.564-11.182-17.514-20.05-3.34-7.499-10.924-13.204-14.879-20.928-8.666-16.925-14.253-36.506-11.332-55.65 9.71 1.402 20.515 0.689 26.063 10.401 5.865 10.268 7.057 20.707 5.704 32.356 0-10.562-2.989-24.692-12.683-30.8 8.434 14.65 6.643 27.907 6.643 44.011 0.01 16.23 5.95 30.03 18 40.66"/>
  <path id="path79" style="stroke-width:0;stroke-miterlimit:10;fill:none" d="m144.51 326.6c-8.648-4.741-13.564-11.182-17.514-20.05-3.34-7.499-10.924-13.204-14.879-20.928-8.666-16.925-14.253-36.506-11.332-55.65 9.71 1.402 20.515 0.689 26.063 10.401 5.865 10.268 7.057 20.707 5.704 32.356 0-10.562-2.989-24.692-12.683-30.8 8.434 14.65 6.643 27.907 6.643 44.011 0.01 16.23 5.95 30.03 18 40.66"/>
  <path id="path81" style="fill:#A02623;clip-rule:evenodd;fill-rule:evenodd" d="m118.42 232.39c13.283 9.785 15.955 24.647 14.133 40.342 2.944-12.854-3.054-31.319-16.669-35.752 5.753 9.042 4.403 17.537 3.961 27.755-0.447 10.307 0.449 19.563 5.582 28.651-5.75-9.794-7.477-19.802-6.981-31.137 0.446-10.22 1.58-18.841-6.788-26.236-1.776 15.992 0.732 33.411 6.763 48.314-6.163-14.179-10.154-31.303-9.058-46.864-4.524 15.381-1.63 32.185 5.555 46.26-8.419-14.246-10.693-30.297-7.609-46.502-5.31 15.056-2.573 29.789 3.021 44.328-7.376-16.675-10.227-33.368-9.542-51.575 5.9 0.8 11.77 1.6 17.65 2.41"/>
  <path id="path83" style="fill:#210000;clip-rule:evenodd;fill-rule:evenodd" d="m102.84 224.18c-0.623 3.197-1.263 6.351-1.418 9.608-0.21 4.409 3.583 2.292 6.007 1.503 6.494-2.113 8.296 0.304 14.434 2.537 6.377 2.32-6.065-8.58-7.496-9.795-3.4-2.9-7.04-7.13-11.52-3.86"/>
  <path id="path85" style="fill:#A02623;clip-rule:evenodd;fill-rule:evenodd" d="m124.46 256.55c6.291 21.49-5.149 51.98 16.548 68.002-21.06-18.05-14.11-43.82-16.55-68"/>
  <path id="path87" style="fill:#602623;clip-rule:evenodd;fill-rule:evenodd" d="m129.42 295.08c4.71 9.682 15.296 16.404 25.244 19.688-8.94-2.52-24.32-8.71-25.24-19.69"/>
  <path id="path89" style="fill:#602623;clip-rule:evenodd;fill-rule:evenodd" d="m134.25 312.71c7.972 10.532 22.341 14.937 35.027 15.581-11.53 0.21-29.79-3.58-35.03-15.58"/>
  <path id="path91" style="fill:#210000;clip-rule:evenodd;fill-rule:evenodd" d="m392.12 290.85c-0.755-7.002-13.727-9.022-16.789-15.943-1.38-3.118-1.027-7.045-3.805-9.421-3.421-2.928-9.823-2.963-14.04-4.198-21.237-6.219-34.021-22.973-47.983-38.922 14.25 14.25 27.821 29.764 47.553 36.148 4.375 1.416 9.019 1.71 13.364 3.16 6.009 2.006 4.337 7.436 7.447 11.301 3.089 3.839 10.222 2.496 13.648 6.039 3.05 3.14 2.04 7.98 0.61 11.83"/>
  <path id="path93" style="fill:#FFFFFF;clip-rule:evenodd;fill-rule:evenodd" d="m30.371 176.23c10.432 0.064 10.431-16.185 0-16.186-10.432 0-10.433 16.25 0 16.19"/>
  <path id="path95" style="stroke-width:0;stroke-miterlimit:10;fill:none" d="m30.371 176.23c10.432 0.064 10.431-16.185 0-16.186-10.432 0-10.433 16.25 0 16.19"/>
  <path id="path97" style="fill:#602623;clip-rule:evenodd;fill-rule:evenodd" d="m38.463 168.13c0.067 10.432-16.256 10.432-16.185 0 1.72 6.386 7.375 7.908 8.333 0.242 2.041 1.83 7.202 3.95 7.852-0.24"/>
  <path id="path99" style="stroke-width:0;stroke-miterlimit:10;fill:none" d="m38.463 168.13c0.067 10.432-16.256 10.432-16.185 0 1.72 6.386 7.375 7.908 8.333 0.242 2.041 1.83 7.202 3.95 7.852-0.24"/>
  <path id="path101" style="stroke-width:0;stroke-miterlimit:10;fill:none" d="m22.278 168.13c-0.071 10.432 16.252 10.432 16.185 0"/>
  <path id="path103" style="fill:#210000;clip-rule:evenodd;fill-rule:evenodd" d="m30.492 172.36c5.044-0.35 5.137-8.137 0-8.213-5.283-0.08-5.201 7.9 0 8.21"/>
  <path id="path105" style="fill:#602623;clip-rule:evenodd;fill-rule:evenodd" d="m3.314 163.3c3.042 6.075 14.266 21.237 22.104 17.151-10.679-0.6-13.121-15.95-22.104-17.15"/>
  <path id="path107" style="fill:#FFFFFF;clip-rule:evenodd;fill-rule:evenodd" d="m26.747 164.75c1.34 0.779 2.365 1.945 2.899 3.382 0.852-2.21-0.531-4.11-2.899-3.38"/>
  <path id="path109" style="fill:#FFFFFF;clip-rule:evenodd;fill-rule:evenodd" d="m45.469 164.63c2.538 6.022 1.508 11.506-3.753 15.384-4.819 3.552-3.499 9.025 1.078 12.172 6.05 4.16 8.438-7.123 8.473-10.889 0.056-6.22-2.513-11.58-5.798-16.66"/>
  <path id="path111" style="fill:#FFFFFF;clip-rule:evenodd;fill-rule:evenodd" d="m69.142 125.86c7.385-7.12 27.294-28.123 39.014-20.593 5.465 3.511-13.196 9.242-15.822 10.146-8.068 2.76-16.147 5.52-23.196 10.44"/>
  <path id="path113" style="fill:#FFFFFF;clip-rule:evenodd;fill-rule:evenodd" d="m8.992 162.58c5.528-3.123 8.88-7.681 12.199-12.924 2.129-3.363 7.779-12.157 12.803-11.354 4.039 0.646-7.359 10.833-9.451 12.75-4.558 4.17-9.708 9.23-15.551 11.52"/>
  <path id="path115" style="fill:#FFFFFF;clip-rule:evenodd;fill-rule:evenodd" d="m126.39 95.662c14.843-5.821 43.326-14.619 56.89-1.811-9.011 0.072-18.006-3.506-27.171-3.109-10.35 0.447-19.67 2.446-29.72 4.92"/>
  <path id="path117" style="fill:#FFFFFF;clip-rule:evenodd;fill-rule:evenodd" d="m136.06 117.77c12.182 2.228 22.834 9.127 32.547 16.495 4.279 3.246 8.536 7.056 12.143 11.044 1.005 1.111 9.556 13.445 6.161 13.105-4.329-0.434-8.869-8.911-11.108-12.09-3.068-4.354-6.232-8.379-10.271-11.886-8.72-7.55-19.02-12.09-29.47-16.65"/>
  <path id="path119" style="fill:#FFFFFF;clip-rule:evenodd;fill-rule:evenodd" d="m256.24 139.99c18.479 4.958 37.319 6.895 55.109 14.306 16.832 7.012 34.098 16.239 46.953 29.418-30.6-23.28-64.68-35.85-102.06-43.73"/>
  <path id="path121" style="fill:#210000;clip-rule:evenodd;fill-rule:evenodd" d="m67.572 141.2c6.305 7.567 12.071 15.209 16.803 23.88 4.089 7.493 11.616 21.332 9.77 30.111-3.344-2.246-4.32-8.554-5.436-12.199-1.6-5.23-3.117-10.554-5.385-15.545-4.209-9.26-9.243-18.37-15.752-26.24"/>
  <path id="path123" style="fill:#FFFFFF;clip-rule:evenodd;fill-rule:evenodd" d="m126.15 156.54c-0.478 6.219 4.496 0.82 3.201-3.502-1.37-4.59-3.32 1.6-3.2 3.5"/>
  <path id="path125" style="fill:#FFFFFF;clip-rule:evenodd;fill-rule:evenodd" d="m117.94 156.3c0.052 5.271 3.819 2.445 3.26-1.57-0.82-5.92-4.2-3.25-3.26 1.57"/>
  <path id="path127" style="fill:#FFFFFF;clip-rule:evenodd;fill-rule:evenodd" d="m110.81 156.54c0.088 5.288 3.869 2.447 3.381-1.57-0.71-5.85-4.49-3.16-3.38 1.57"/>
  <path id="path129" style="fill:#FFFFFF;clip-rule:evenodd;fill-rule:evenodd" d="m103.69 157.14c0.661 5.168 4.026 2.098 3.02-1.933-1.47-5.86-4.41-2.79-3.02 1.93"/>
  <path id="path131" style="fill:#FFFFFF;clip-rule:evenodd;fill-rule:evenodd" d="m133.52 157.5c-0.479 6.219 4.498 0.819 3.202-3.503-1.39-4.64-3.33 1.54-3.2 3.5"/>
  <path id="path133" style="fill:#FFFFFF;clip-rule:evenodd;fill-rule:evenodd" d="m140.53 158.71c-0.504 6.11 4.532 1.065 3.201-3.382-1.37-4.58-3.35 1.37-3.2 3.38"/>
  <path id="path135" style="fill:#FFFFFF;clip-rule:evenodd;fill-rule:evenodd" d="m147.65 160.76c-0.481 6.217 4.497 0.821 3.2-3.502-1.39-4.63-3.33 1.54-3.2 3.5"/>
  <path id="path137" style="fill:#FFFFFF;clip-rule:evenodd;fill-rule:evenodd" d="m154.9 162.22c-0.473 6.16 4.508 0.978 3.202-3.383-1.37-4.58-3.35 1.37-3.2 3.38"/>
  <path id="path139" style="fill:#FF2600;clip-rule:evenodd;fill-rule:evenodd" d="m162.03 164.75c-0.474 6.166 4.374 0.932 3.081-3.381-1.37-4.56-3.22 1.45-3.08 3.38"/>
  <path id="path141" style="fill:#FFFFFF;clip-rule:evenodd;fill-rule:evenodd" d="m150.67 172.84c-0.483 6.216 4.497 0.821 3.2-3.503-1.39-4.64-3.33 1.54-3.2 3.5"/>
  <path id="path143" style="fill:#FFFFFF;clip-rule:evenodd;fill-rule:evenodd" d="m157.44 173.57c-0.482 6.216 4.495 0.82 3.201-3.503-1.36-4.52-3.33 1.59-3.2 3.5"/>
  <path id="path145" style="fill:#FF2600;clip-rule:evenodd;fill-rule:evenodd" d="m165.17 173.93c-0.506 6.176 4.527 0.901 3.201-3.503-1.36-4.52-3.33 1.6-3.2 3.5"/>
  <path id="path147" style="fill:#FFFFFF;clip-rule:evenodd;fill-rule:evenodd" d="m160.46 184.92c-0.414 6.026 4.48 0.766 3.2-3.502-1.39-4.64-3.33 1.53-3.2 3.5"/>
  <path id="path149" style="fill:#FF2600;clip-rule:evenodd;fill-rule:evenodd" d="m169.03 183.23c-0.409 6.028 4.482 0.763 3.202-3.502-1.36-4.55-3.32 1.62-3.2 3.5"/>
  <path id="path151" style="fill:#FFFFFF;clip-rule:evenodd;fill-rule:evenodd" d="m160.46 197.36c-0.482 6.217 4.497 0.822 3.2-3.502-1.37-4.56-3.33 1.59-3.2 3.5"/>
  <path id="path153" style="fill:#FF2600;clip-rule:evenodd;fill-rule:evenodd" d="m168.79 195.31c-0.474 6.158 4.507 0.979 3.2-3.382-1.37-4.58-3.35 1.37-3.2 3.38"/>
  <path id="path155" style="fill:#FFFFFF;clip-rule:evenodd;fill-rule:evenodd" d="m177.12 193.26c-0.474 6.166 4.375 0.93 3.081-3.382-1.34-4.48-3.19 1.52-3.08 3.38"/>
  <path id="path157" style="fill:#FF2600;clip-rule:evenodd;fill-rule:evenodd" d="m121.93 146.39c-0.481 6.218 4.496 0.821 3.201-3.503-1.36-4.52-3.33 1.6-3.2 3.5"/>
  <path id="path159" style="fill:#FF2600;clip-rule:evenodd;fill-rule:evenodd" d="m130.5 147.12c-0.473 6.16 4.515 0.977 3.201-3.382-1.38-4.58-3.34 1.37-3.2 3.38"/>
  <path id="path161" style="fill:#FF2600;clip-rule:evenodd;fill-rule:evenodd" d="m138.59 148.08c-0.473 6.159 4.506 0.98 3.2-3.382-1.37-4.58-3.34 1.38-3.2 3.38"/>
  <path id="path163" style="fill:#FF2600;clip-rule:evenodd;fill-rule:evenodd" d="m146.56 149.65c-0.501 6.112 4.531 1.063 3.2-3.382-1.36-4.58-3.34 1.38-3.2 3.38"/>
  <path id="path165" style="fill:#FF2600;clip-rule:evenodd;fill-rule:evenodd" d="m153.69 152.19c-0.478 6.219 4.494 0.817 3.201-3.503-1.36-4.56-3.33 1.59-3.2 3.5"/>
  <path id="path167" style="fill:#FF2600;clip-rule:evenodd;fill-rule:evenodd" d="m114.2 146.39c0.684 5.77 4.057 0.096 2.537-3.322-1.75-3.92-2.84 1.58-2.54 3.32"/>
  <path id="path169" style="fill:#FFFFFF;clip-rule:evenodd;fill-rule:evenodd" d="m117.94 136.85c-0.481 6.218 4.496 0.821 3.2-3.503-1.36-4.56-3.33 1.58-3.2 3.5"/>
  <path id="path171" style="fill:#FFFFFF;clip-rule:evenodd;fill-rule:evenodd" d="m127.48 137.09c-0.478 6.219 4.495 0.819 3.2-3.503-1.36-4.56-3.33 1.59-3.2 3.5"/>
  <path id="path173" style="fill:#FFFFFF;clip-rule:evenodd;fill-rule:evenodd" d="m136.06 138.06c-0.478 6.155 4.51 0.982 3.2-3.382-1.38-4.58-3.35 1.37-3.2 3.38"/>
  <path id="path175" style="fill:#FFFFFF;clip-rule:evenodd;fill-rule:evenodd" d="m143.55 139.14c-0.506 6.175 4.521 0.902 3.2-3.503-1.39-4.63-3.33 1.54-3.2 3.5"/>
  <path id="path177" style="fill:#FFFFFF;clip-rule:evenodd;fill-rule:evenodd" d="m151.64 141.08c-0.477 6.157 4.508 0.981 3.201-3.382-1.37-4.58-3.35 1.37-3.2 3.38"/>
  <path id="path179" style="fill:#FFFFFF;clip-rule:evenodd;fill-rule:evenodd" d="m161.18 153.16c-0.5 6.113 4.539 1.06 3.201-3.382-1.38-4.58-3.34 1.37-3.2 3.38"/>
  <path id="path181" style="fill:#FFFFFF;clip-rule:evenodd;fill-rule:evenodd" d="m169.27 164.75c-0.473 6.16 4.507 0.979 3.2-3.381-1.37-4.58-3.34 1.37-3.2 3.38"/>
  <path id="path183" style="fill:#FFFFFF;clip-rule:evenodd;fill-rule:evenodd" d="m174.83 173.33c-0.479 6.218 4.499 0.819 3.202-3.503-1.37-4.57-3.33 1.58-3.2 3.5"/>
  <path id="path185" style="fill:#FFFFFF;clip-rule:evenodd;fill-rule:evenodd" d="m177.37 182.87c-0.482 6.216 4.496 0.821 3.2-3.503-1.37-4.55-3.33 1.62-3.2 3.5"/>
  <path id="path187" style="fill:#FFFFFF;clip-rule:evenodd;fill-rule:evenodd" d="m183.89 189.27c-0.473 6.159 4.507 0.978 3.201-3.382-1.35-4.5-3.32 1.45-3.2 3.38"/>
  <path id="path189" style="fill:#FFFFFF;clip-rule:evenodd;fill-rule:evenodd" d="m109.36 139.99c0.089 5.256 3.825 2.48 3.262-1.57-0.82-5.92-4.2-3.25-3.26 1.57"/>
  <path id="path191" style="fill:#FFFFFF;clip-rule:evenodd;fill-rule:evenodd" d="m102.84 143.49c-0.061 5.248 3.772 2.46 3.26-1.57-0.75-5.91-4.2-3.26-3.26 1.57"/>
  <path id="path193" style="fill:#FFFFFF;clip-rule:evenodd;fill-rule:evenodd" d="m97.286 147.48c0.087 5.254 3.834 2.483 3.262-1.57-0.831-5.87-4.363-3.09-3.264 1.57"/>
  <path id="path195" style="stroke-width:0;stroke-miterlimit:10;fill:none" d="m11.77 156.05c9.645-13.655 18.5-20.834 35.088-24.579 16.342-3.689 24.429-16.931 38.009-25.076 6.193-3.715 12.549-6.896 19.666-8.321 3.375-0.676 4.476 0.479 5.953-3.012 1.542-3.644 3.223-7.242 5.039-10.757 7.663-14.833 17.194-28.254 28.616-40.417 26.82-28.549 63.41-42.102 101.95-43.883-2.808 3.673-8.005 8.802-8.215 13.77-0.195 4.627 3.188 7.236 0.945 12.041-4.561 9.771-9.53 16.697-0.702 25.523-3.461 1.607-7.367 2.491-11.112 3.019 4.886 1.692 14.758 4.498 18.479 8.214 2.345 2.342 0.207 3.811 1.69 7.247 1.486 3.444 6.439 5.746 8.938 8.455 5.215 5.652 8.933 15.124 5.418 22.47-4.325 9.04-3.699 14.453-1.311 24.153-13.887-7.406-32.506-13.243-48.314-9.059 13.403 9.829 27.098 16.521 43.485 19.623 16.185 3.063 31.994 6.472 47.587 11.901 30.325 10.56 60.916 27.838 78.812 55.422 13.862 21.368 22.527 48.105 22.527 73.74 0 13.305-1.403 26.5-6.201 39.029-4.904 12.807-11.031 24.21-5.032 37.627-9.167-7.856-7.79-20.915-6.46-32.077 0.693-5.823 1.433-11.651 2.617-17.399 0.798-3.876 4.601-12.449 1.427-15.627-3.557-3.56-8.704-4.944-12.199-8.696-3.688-3.959-3.711-8.945-6.342-13.166-2.037-3.27-10.496-3.639-13.891-4.771-4.554-1.521-9.446-3.204-13.466-5.858 1.596 6.699-1.569 6.757-6.765 4.107-5.682-2.896-11.085-6.679-16.427-10.147-10.279-6.675-18.772-14.406-26.693-23.673v1.449c-4.712-1.142-9.613-9.094-12.079-13.045 2.535 6.269 6.05 13.059 6.344 19.952 0.323 7.561-2.006 14.325 0.014 21.786 1.729 6.384 6.813 11.836 7.729 18.477 1.057 7.651-2.411 12.108-4.49 19.042-1.9 6.337 0.571 12.298 4.942 17.081 5.562 6.084 9.737 12.115 13.459 19.451 6.481 12.775 5.667 30.396 5.218 44.251-3.311-16.938-7.137-33.502-18.963-46.743-5.659-6.337-12.391-11.563-19.33-16.418-6.688-4.68-11.331-12.454-15.214-19.455-8.506-15.335-14.491-31.953-20.784-48.267-3.056-7.921-5.625-16.117-8.205-24.205-1.323-4.147-2.601-8.307-3.852-12.477-1.512-5.042-2.88-6.004-6.791-9.13-7.281-5.82-13.547-14.21-21.968-18.373-3.438 37.101-48.542 61.719-82.498 53.146 15.039 11.078 17.278 29.917 12.388 47.052-5.82 20.392 11.886 29.313 27.835 37.015-5.368-1.718-10.776-3.576-16.374-4.376-6.857-0.979 3.396 5.347 5.02 6.108 10.609 4.974 21.687 8.372 32.974 11.433-14.4-1.409-30.878 2.813-42.878-7.609-2.959-2.57-5.653-5.905-7.61-9.3-2.097-3.638-2.448-7.883-5.375-10.811-5.942-5.942-10.472-12.743-14.29-20.2-7.555-14.754-11.773-33.363-9.565-49.916 0.428-3.211-6.562-3.718-9.439-4.677-4.085-1.36-8.177-2.782-12.064-4.641-5.371-2.567-10.982-7.74-16.776-8.652-7.773-1.224-17.581-4.167-23.684-9.327-7.083-5.99-16.896-8.417-24.157-14.978-2.99-2.702-4.616-5.324-6.28-8.817-1.886-3.958-5.393-6.618-7.368-10.267-3.865-7.08 7.645-9.05 10.978-14.34"/>
  <metadata>
    <rdf:RDF>
      <cc:Work>
        <dc:format>image/svg+xml</dc:format>
        <dc:type rdf:resource="http://purl.org/dc/dcmitype/StillImage"/>
        <cc:license rdf:resource="http://creativecommons.org/licenses/publicdomain/"/>
        <dc:publisher>
          <cc:Agent rdf:about="http://openclipart.org/">
            <dc:title>Openclipart</dc:title>
          </cc:Agent>
        </dc:publisher>
        <dc:title>Architetto -- pescetto</dc:title>
        <dc:date>2010-03-22T13:20:46</dc:date>
        <dc:description>Drawing by Francesco 'Architetto' Rollandin. From OCAL 0.18 release.</dc:description>
        <dc:source>https://openclipart.org/detail/33079/architetto----pescetto-by-anonymous</dc:source>
        <dc:creator>
          <cc:Agent>
            <dc:title>Anonymous</dc:title>
          </cc:Agent>
        </dc:creator>
        <dc:subject>
          <rdf:Bag>
            <rdf:li>animal</rdf:li>
            <rdf:li>fish</rdf:li>
            <rdf:li>goldfish</rdf:li>
            <rdf:li>pet</rdf:li>
          </rdf:Bag>
        </dc:subject>
      </cc:Work>
      <cc:License rdf:about="http://creativecommons.org/licenses/publicdomain/">
        <cc:permits rdf:resource="http://creativecommons.org/ns#Reproduction"/>
        <cc:permits rdf:resource="http://creativecommons.org/ns#Distribution"/>
        <cc:permits rdf:resource="http://creativecommons.org/ns#DerivativeWorks"/>
      </cc:License>
    </rdf:RDF>
  </metadata>
</svg>