<?xml version="1.0" encoding="UTF-8" standalone="no"?>
<!-- Created with Inkscape (http://www.inkscape.org/) -->
<svg xmlns:dc="http://purl.org/dc/elements/1.1/" xmlns:cc="http://creativecommons.org/ns#" xmlns:rdf="http://www.w3.org/1999/02/22-rdf-syntax-ns#" xmlns:svg="http://www.w3.org/2000/svg" xmlns="http://www.w3.org/2000/svg" xmlns:sodipodi="http://sodipodi.sourceforge.net/DTD/sodipodi-0.dtd" xmlns:inkscape="http://www.inkscape.org/namespaces/inkscape" width="225.77777mm" height="230.87521mm" viewBox="0 0 799.99998 818.06178" id="svg2" version="1.1" inkscape:version="0.91 r13725" sodipodi:docname="Kangaroo4.svg">
  <defs id="defs4"/>
  <sodipodi:namedview id="base" pagecolor="#ffffff" bordercolor="#666666" borderopacity="1.0" inkscape:pageopacity="0.0" inkscape:pageshadow="2" inkscape:zoom="0.81900905" inkscape:cx="399.99999" inkscape:cy="409.03089" inkscape:document-units="px" inkscape:current-layer="layer1" showgrid="false" fit-margin-top="0" fit-margin-left="0" fit-margin-right="0" fit-margin-bottom="0" inkscape:window-width="1600" inkscape:window-height="837" inkscape:window-x="-8" inkscape:window-y="-8" inkscape:window-maximized="1"/>
  <metadata id="metadata7">
    <rdf:RDF>
      <cc:Work rdf:about="">
        <dc:format>image/svg+xml</dc:format>
        <dc:type rdf:resource="http://purl.org/dc/dcmitype/StillImage"/>
        <dc:title/>
      </cc:Work>
    </rdf:RDF>
  </metadata>
  <g inkscape:label="Layer 1" inkscape:groupmode="layer" id="layer1" transform="translate(-174.76341,301.80166)">
    <g transform="matrix(2.0638985,0,0,2.0638985,-6695.6435,-186.40375)" style="display:inline" id="g15857">
      <path style="fill:#f6f1e7;fill-opacity:1;stroke:none" d="m 3715.5064,63.59825 c 0.9516,-1.32455 0.2826,-4.89182 -1.0629,-5.51699 0,0 -5.2857,-3.83001 -8.2187,-5.21875 -1.8893,-0.89451 -2.7977,-1.06456 -5.9552,-1.96467 -2.7249,-0.77681 -6.052,-0.59796 -8.25,-0.6875 -3.3353,-0.13587 -6.9432,0.81361 -9.6456,1.77044 -4.9882,1.76618 -10.1175,4.6167 -12.5139,7.52681 l 9.597,0.0152 1.4844,0.64065 c 7.203,5.18571 13.9957,0.4274 23.3903,4.04723 2.25,0.81798 2.4384,2.73547 2.8404,3.78562 0,0 0.5084,-1.2095 0.6646,-2.25469 0.1713,-1.14695 -0.1499,-2.9304 -0.8835,-3.82849 -0.7965,-0.97489 -1.9634,-2.15965 -1.9634,-2.15965 0,0 4.5753,-0.0988 6.6753,0.98166 1.5089,0.77627 2.4542,4.22116 2.4542,4.22116 z" id="path6456" inkscape:connector-curvature="0" sodipodi:nodetypes="ccsssscccccsscscc"/>
      <path style="fill:#e9d6be;fill-opacity:1;stroke:none" d="m 3675.152,55.37887 c -2.6823,1.45211 -3.8961,2.43368 -5.2919,4.12872 l 9.597,0.0152 1.4844,0.64065 c 7.203,5.18571 13.9957,0.4274 23.3903,4.04723 2.25,0.81798 2.4384,2.73547 2.8404,3.78562 0,0 0.5084,-1.2095 0.6646,-2.25469 0.1713,-1.14695 -0.1499,-2.9304 -0.8835,-3.82849 -0.7964,-0.97489 -1.9634,-2.15965 -1.9634,-2.15965 0,0 4.5753,-0.0988 6.6753,0.98166 1.5089,0.77627 2.4542,4.22116 2.4542,4.22116 l 1.387,-1.35803 c 0.9516,-1.32455 0.2826,-4.89182 -1.0629,-5.51699 0,0 -5.2857,-3.83001 -8.2187,-5.21875 l -1.8692,-0.65277 c 0,0 4.0411,2.5231 2.8236,2.97772 -1.058,0.39504 -4.6784,-0.77414 -7.2243,-0.82949 -4.2088,-0.0915 -7.3629,0.86426 -8.8388,1.67654 -0.8222,0.45249 0.094,0.99014 1.9773,1.60896 1.4888,0.48929 3.8264,1.02934 4.6826,1.61817 0.9884,0.67972 -1.712,0.14807 -4.7247,-0.19745 -2.2305,-0.25581 -4.6322,-0.18865 -5.8349,-0.6062 -1.6693,-0.57952 -4.5685,-1.8813 -6.2406,-2.4529 -0.8451,-0.28893 -1.4727,-0.17335 -2.4395,-0.2605 2.823,-2.44983 9.4573,-3.94681 15.0067,-5.71504 l -9.9169,1.51508 z" id="path6454" inkscape:connector-curvature="0" sodipodi:nodetypes="ccccccsscscccccsssssssscccc"/>
      <path inkscape:connector-curvature="0" id="path15846" transform="translate(1802.7034,-114.59376)" d="m 1894.7266,170.37305 c -1.2692,0.0111 -2.7397,0.43411 -2.8106,1.13086 -0.213,2.08452 6.2163,1.37665 7.7578,2.66406 1.0286,0.85898 1.1016,1.83203 1.1016,1.83203 0,0 -5.0927,-0.55151 -7.4824,-0.8457 -3.4776,-0.42807 -7.34,0.40112 -10.7285,-0.49024 -1.8651,-0.49061 -3.176,-1.64734 -5.0372,-2.15234 -2.5439,-0.69025 -8.4609,0.0156 -8.4609,0.0156 -1.2806,0.90949 -1.1203,0.61509 -1.9102,1.57422 l 0.2579,0 -0.5411,0.5 -1.5878,1.01563 -4.4141,2.29492 -1.0586,0.61719 -0.9707,1.16992 1.9414,-0.28711 1.5234,-0.9707 1.5879,-0.92774 3.1993,-1.74219 1.6113,-0.94921 0.8594,-0.7168 7.1894,0.0117 1.4844,0.64062 c 7.203,5.18571 13.996,0.42705 23.3906,4.04688 2.25,0.81798 2.4378,2.735 2.8399,3.78515 0,0 0.5078,-1.20871 0.664,-2.2539 0.1713,-1.14695 -0.1492,-2.93004 -0.8828,-3.82813 -0.7964,-0.97489 -1.9629,-2.16015 -1.9629,-2.16015 0,0 4.5738,-0.1 6.6738,0.98046 1.5089,0.77627 2.4551,4.22266 2.4551,4.22266 l 0.3008,-4.09766 c 0,0 -1.3037,-1.59115 -2.1816,-2.08007 -3.2946,-1.83483 -4.15,-0.8791 -7.8907,-1.35743 -1.0892,-0.13927 -3.6401,-1.36576 -6.3906,-1.62109 -0.1685,-0.0156 -0.346,-0.0231 -0.5273,-0.0215 z" style="fill:#dfbb90;fill-opacity:1;fill-rule:evenodd;stroke:none;stroke-width:1px;stroke-linecap:butt;stroke-linejoin:miter;stroke-opacity:1"/>
      <path id="path6278" d="m 3663.2535,63.082217 c -1.2466,0.464124 -2.7961,0.920656 -4.0665,1.424656 -2.8517,1.131239 -6.3906,3.261277 -9.1263,4.649646 -0.7681,0.389817 -1.5223,0.797103 -2.2632,1.226608 -0.1301,0.07539 -0.2648,0.142358 -0.3941,0.21874 -0.013,0.007 -0.021,0.02115 -0.034,0.02857 -0.8519,0.504385 -1.6937,1.046359 -2.5117,1.582616 -0.019,0.01249 -0.046,0.01353 -0.065,0.02603 -0.81,0.532014 -1.5794,1.082566 -2.3585,1.626445 -0.3019,0.210719 -0.5992,0.406197 -0.8968,0.616752 -0.4895,0.34646 -0.9861,0.698829 -1.4643,1.04084 -0.047,0.03387 -0.088,0.08066 -0.1347,0.114442 -0.7174,0.513232 -1.4344,1.000282 -2.1278,1.488465 -0.054,0.03786 -0.1123,0.07424 -0.1659,0.111906 -0.683,0.479447 -1.365,0.965081 -2.0268,1.402632 -0.061,0.04001 -0.1365,0.06975 -0.197,0.10937 -0.6487,0.425256 -1.2853,0.824361 -1.9156,1.192213 -0.075,0.04377 -0.156,0.09519 -0.2307,0.137981 -0.266,0.15229 -0.5251,0.297785 -0.7881,0.43748 -0.08,0.04228 -0.1513,0.09692 -0.2307,0.13798 -0.26,0.134485 -0.5259,0.25457 -0.783,0.375186 -0.087,0.0407 -0.1756,0.09642 -0.2619,0.135445 0,0 -0.2613,-0.123624 -0.4234,-0.191243 l -8.0772,-0.532308 -2.0962,19.581971 6.3266,6.62909 c 0.1065,-0.003 0.2083,-0.002 0.314,-0.006 l 17.4695,-11.620498 c 0.4225,-0.756224 0.8737,-1.560547 1.3865,-2.395374 0.3243,-0.527905 0.6608,-1.075809 1.0428,-1.639528 0.2158,-0.318634 0.4682,-0.646204 0.7066,-0.977123 0.5837,-0.8084 1.2461,-1.677232 1.996,-2.565213 0.01,-0.01071 0.025,-0.01796 0.034,-0.02857 0.3162,-0.373658 0.6509,-0.752318 1.0021,-1.141177 0.2296,-0.254114 0.4769,-0.526864 0.7226,-0.787705 0.034,-0.03587 0.07,-0.08103 0.1035,-0.116982 0.4906,-0.517658 1.0105,-1.020153 1.5698,-1.565265 0.1922,-0.10532 0.3756,-0.240713 0.5624,-0.361793 0.03,-0.01956 0.069,-0.0347 0.099,-0.05469 0.1736,-0.115374 0.3305,-0.239084 0.5002,-0.366865 2.613,-2.010518 4.6243,-5.50798 7.858,-8.327208 l 0.946,-11.617796 z" style="fill:#f6f1e7;fill-opacity:1;stroke:none" inkscape:connector-curvature="0"/>
      <path id="path6280" d="m 3662.8579,67.941134 c -0.049,0.03623 -7.2084,5.328112 -10.3118,7.657102 -3.2375,2.429639 -5.4147,5.188124 -7.9826,8.317063 -2.4,2.924322 -4.312,6.532314 -6.7556,9.420287 -1.869,2.208907 -4.0629,4.494706 -6.8308,5.338218 -2.2865,0.696852 -9.7848,-1.894141 -9.7848,-1.894141 l -0.4532,3.255207 4.0124,4.24591 13.711,-2.42647 3.7132,-7.097041 10.2916,-12.800703 7.79,-8.646286 2.248,-1.039726 0.3526,-4.32942 z" style="fill:#e9d6be;fill-opacity:1;stroke:none" inkscape:connector-curvature="0"/>
      <path id="path6282" d="m 3663.2535,63.082217 c -1.2466,0.464124 -2.7961,0.920656 -4.0665,1.424656 -2.8517,1.131239 -6.3906,3.261277 -9.1263,4.649646 -0.4582,0.232566 -0.9256,0.455706 -1.3741,0.703296 -1.3274,0.733346 -2.6125,1.532048 -3.8597,2.350743 -0.012,0.008 -0.022,0.02062 -0.034,0.02857 -0.8233,0.541066 -1.6319,1.099507 -2.4233,1.652519 -0.024,0.01644 -0.044,0.04077 -0.067,0.05722 -0.778,0.544333 -1.5467,1.095303 -2.2962,1.631518 -0.024,0.01694 -0.044,0.04038 -0.067,0.05722 -0.7478,0.535004 -1.5045,1.035748 -2.2263,1.543149 -0.024,0.01664 -0.044,0.04068 -0.067,0.05722 -0.7198,0.505316 -1.429,0.998968 -2.1253,1.457317 -0.03,0.0199 -0.068,0.03487 -0.098,0.05469 -0.7283,0.477401 -1.441,0.926413 -2.1463,1.330194 -0.3077,0.176167 -0.6166,0.361577 -0.9203,0.520775 -0.033,0.01745 -0.065,0.03743 -0.098,0.05469 -0.3086,0.159941 -0.608,0.28705 -0.9127,0.427335 -0.046,0.02107 -0.087,0.06277 -0.1322,0.08325 0,0 -1.3899,-0.627283 -2.1296,-0.800478 -0.2375,-0.05566 -0.4917,-0.09412 -0.7736,-0.125701 -1.4419,0.385125 -2.7386,0.181106 -3.9212,0.02558 -0.931,0.07435 -1.6762,0.177046 -1.6762,0.177046 l -0.3447,3.076023 c 0.073,0.238464 0.1857,0.437448 0.393,0.565005 1.4058,0.864985 4.913,-0.06539 7.032,-0.493405 2.2684,-0.678338 4.443,-1.940761 6.6735,-3.40711 4.461,-2.932698 9.1437,-6.771992 14.375,-9.42691 2.8303,-1.43638 6.4097,-3.526266 9.0252,-4.563815 1.0997,-0.436229 2.1651,-0.86787 3.239,-1.272571 l 0.1496,-1.837667 z m -0.5859,7.194935 c -0.4012,0.257945 -0.8077,0.52506 -1.1948,0.811955 -4.9012,3.632033 -8.5192,8.28882 -11.3353,9.831199 -0.1353,0.07617 -0.2877,0.17287 -0.3991,0.281034 -5.1447,5.014945 -7.3509,9.227209 -9.0961,12.365048 -1.7452,3.137838 -4.2901,4.621384 -7.4846,6.821302 -1.3812,0.9512 -2.6656,0.21511 -4.8205,0.67348 -1.1416,0.24283 -6.5144,-1.177326 -7.7049,-1.254473 l -0.015,0.186881 6.2929,6.657702 c 0.4171,-0.01 0.8227,-0.0275 1.2274,-0.0568 0.02,-0.001 0.042,0.006 0.062,0.005 1.4722,-0.20848 4.0577,-0.66013 6.4229,-1.48361 2.9535,-1.23131 5.4299,-3.18191 7.5254,-5.783304 1.3789,-1.960948 2.3801,-4.124484 3.9632,-6.700453 0.1749,-0.284433 0.3838,-0.599231 0.5744,-0.893826 0.2212,-0.341468 0.4371,-0.717213 0.6831,-1.0731 0.032,-0.04682 0.073,-0.101019 0.1061,-0.148129 0.4216,-0.603927 0.8961,-1.212372 1.4056,-1.860805 0.3318,-0.422157 0.6702,-0.85196 1.046,-1.294375 0.1255,-0.147774 0.281,-0.286649 0.4118,-0.436768 0.3779,-0.43358 0.7813,-0.890219 1.2069,-1.343988 0.5435,-0.579625 1.1129,-1.156229 1.7432,-1.770612 0.1922,-0.10532 0.3756,-0.240713 0.5624,-0.361793 0.03,-0.01956 0.069,-0.0347 0.099,-0.05469 0.1736,-0.115374 0.3305,-0.239084 0.5002,-0.366865 2.613,-2.010518 4.6243,-5.50798 7.858,-8.327208 l 0.3601,-4.422861 z" style="fill:#dfbb90;fill-opacity:1;stroke:none" inkscape:connector-curvature="0"/>
      <path inkscape:connector-curvature="0" id="path15855" d="m 3662.5061,70.41276 1.1194,-0.73875 4.2982,-3.1565 3.3132,-2.05955 2.0371,-1.38797 0.9851,-0.44773 4.8354,-2.08194 1.2985,-0.42534 -1.2761,1.38796 -3.7609,2.99979 -6.1787,4.70116 -5.8652,4.76833 -0.985,0.71636 -0.2463,-2.61922 z" style="fill:#dfbb90;fill-opacity:1;fill-rule:evenodd;stroke:none;stroke-width:1px;stroke-linecap:butt;stroke-linejoin:miter;stroke-opacity:1"/>
      <path sodipodi:nodetypes="ccccsscscccssssccsscsccccccc" inkscape:connector-curvature="0" id="path4390-8" d="m 3669.9258,68.701058 11.0157,-8.537618 c 7.203,5.18571 13.9957,0.4274 23.3903,4.04723 2.25,0.81798 2.4384,2.73547 2.8404,3.78562 0,0 0.5084,-1.2095 0.6646,-2.25469 0.1713,-1.14695 -0.1499,-2.9304 -0.8835,-3.82849 -0.7965,-0.97489 -1.9634,-2.15965 -1.9634,-2.15965 0,0 4.5753,-0.0988 6.6753,0.98166 1.5089,0.77627 2.4542,4.22116 2.4542,4.22116 l 1.387,-1.35803 c 0.9516,-1.32455 0.2826,-4.89182 -1.0629,-5.51699 0,0 -5.2857,-3.83001 -8.2187,-5.21875 -1.8893,-0.89451 -2.7977,-1.06456 -5.9552,-1.96467 -2.7249,-0.77681 -6.052,-0.59796 -8.25,-0.6875 -3.3353,-0.13587 -6.9432,0.81361 -9.6456,1.77044 -4.9882,1.76618 -10.1175,4.6167 -12.5139,7.52681 l -6.6117,3.572741 c -1.2466,0.464121 -2.7783,0.928904 -4.0488,1.432904 -2.8516,1.131239 -6.408,3.250733 -9.1437,4.639101 -7.332,3.720989 -13.389,9.535338 -18.8405,11.998656 0,0 -1.3848,-0.602666 -2.1245,-0.775864 -2.1272,-0.498141 -6.3882,0.05913 -6.3882,0.05913 l -2.1107,19.676192 6.1949,6.56241 c 9.2696,-0.16784 15.5051,-5.17992 19.3253,-14.048615 1.5372,-2.499847 3.629,-5.38205 7.1627,-8.826583 3.2229,-1.765174 5.3304,-5.860859 9.0261,-9.082837 z" style="fill:none;stroke:#6b3814;stroke-width:1px;stroke-linecap:butt;stroke-linejoin:miter;stroke-opacity:1"/>
      <path sodipodi:nodetypes="csccccsscc" inkscape:connector-curvature="0" id="path6440-7" d="m 3705.8821,59.67191 c -0.5597,-0.5025 -0.7748,-0.85737 -1.5787,-1.25474 -1.5612,-0.77176 -3.4836,-1.2917 -5.1562,-1.59375 -0.5503,-0.0994 -1.1247,-0.10329 -1.6875,-0.0937 l 0,-5e-5 c -1.6886,0.0286 -3.2188,0.40625 -3.2188,0.40625 0,0 2.7262,0.32769 4.7188,0.6875 1.6073,0.29026 3.4482,0.79473 4.875,1.5 0.6757,0.33402 0.8413,0.66913 1.4283,1.18562 z" style="color:#000000;font-style:normal;font-variant:normal;font-weight:normal;font-stretch:normal;font-size:medium;line-height:normal;font-family:Sans;-inkscape-font-specification:Sans;text-indent:0;text-align:start;text-decoration:none;text-decoration-line:none;letter-spacing:normal;word-spacing:normal;text-transform:none;direction:ltr;block-progression:tb;writing-mode:lr-tb;baseline-shift:baseline;text-anchor:start;display:inline;overflow:visible;visibility:visible;fill:#6b3814;fill-opacity:1;stroke:none;stroke-width:1px;marker:none;enable-background:accumulate"/>
      <g transform="translate(3277.724,-120.89004)" id="g7541">
        <path style="fill:#834515;fill-opacity:1;stroke:#6b3814;stroke-width:1px;stroke-linecap:butt;stroke-linejoin:miter;stroke-opacity:1" d="m 282.64204,399.85819 c 0.86253,8.29264 15.43534,7.47355 15.79401,-4.58914 l -1.31008,-10.03739 z" id="path7436" inkscape:connector-curvature="0" sodipodi:nodetypes="cccc"/>
        <path sodipodi:type="inkscape:offset" inkscape:radius="-1.9509698" inkscape:original="M 297.125 384.75 L 282.65625 399.375 C 283.51878 407.66764 298.07883 406.84394 298.4375 394.78125 L 297.125 384.75 z " style="fill:#8b4b16;fill-opacity:1;stroke:none" id="path7440" d="M 295.70898,388.95703 284.8457,399.9375 c 0.28687,1.0013 0.78694,1.75482 1.59766,2.24414 1.02329,0.61762 2.47095,0.87332 3.94922,0.60938 2.93873,-0.52472 5.89319,-2.80454 6.08203,-7.98633 l -0.76563,-5.84766 z" transform="translate(0.80922436,-0.53948291)"/>
        <g id="g5787">
          <path sodipodi:nodetypes="ccscc" inkscape:connector-curvature="0" id="path4392" d="m 358.02309,101.10276 c -2.63366,-14.733012 6.68243,-20.293507 9.72579,-34.477956 1.15888,2.721986 1.59032,6.925989 1.86297,9.919258 1.20477,13.226617 -3.65844,20.615998 -4.86323,25.842688 -2.51711,2.32468 -6.47659,2.06103 -6.72553,-1.28399 z" style="fill:#cc8b3e;fill-opacity:1;stroke:#6b3814;stroke-width:1px;stroke-linecap:butt;stroke-linejoin:miter;stroke-opacity:1"/>
          <path style="fill:#dfbb90;fill-opacity:1;stroke:none" d="m 364.22595,101.23157 c 1.48869,-5.684248 5.75466,-12.34795 4.625,-24.749997 -0.10965,-1.203758 -0.29847,-2.61069 -0.5,-4 -1.64826,4.498578 -2.85023,7.659665 -4.52153,11.174801 -2.32514,4.890323 -3.61631,9.670006 -2.16792,16.983316 z" id="path5785" inkscape:connector-curvature="0" sodipodi:nodetypes="cscscc"/>
          <path style="fill:#e9d6be;fill-opacity:1;stroke:none" d="m 368.30648,76.315508 c -0.9697,2.554598 -1.90017,5.152315 -3.03125,7.53125 -2.286,4.808004 -3.59608,9.986431 -1.74409,16.716042 2.26942,-5.901524 5.85823,-12.358748 4.77534,-24.247292 z" id="path5800" inkscape:connector-curvature="0" sodipodi:nodetypes="cscc"/>
        </g>
        <path sodipodi:nodetypes="scsccccssscsccssccsscccsscccssscsscssscccssscscsssscsss" inkscape:connector-curvature="0" id="path5687" d="m 364.24,227.6538 c 3.6683,-9.49953 5.19559,-19.00692 5.91818,-28.49859 2.06997,-27.19028 -4.54626,-53.28081 -0.76959,-57.25357 0.63915,-0.67234 1.76327,-1.12229 3.70979,-1.10799 6.20952,0.0456 17.99258,2.97635 19.54876,-0.95874 0.77197,-0.0512 1.84945,-0.35752 2.45836,-2.37912 1.95341,1.55894 2.21604,-0.70696 2.3733,-1.50894 0.41291,-2.70186 0.94767,-7.63866 -0.14048,-10.21342 -0.83813,-1.98318 -2.67064,-2.90466 -4.46565,-4.09352 -5.1578,-3.41607 -15.55204,-9.07576 -15.55204,-9.07576 0.88739,-0.7213 1.70922,-1.58415 1.39061,-2.98665 -0.43276,-2.10446 -13.7704,-8.48306 -22.5744,-8.50586 -2.61978,-0.007 -4.83263,0.58692 -6.18319,2.38324 -5.19643,-10.880121 -14.19888,-23.997431 -21.56045,-29.198072 4.93156,14.06838 -1.49671,29.177592 12.55463,42.251462 -4.62012,10.63934 -6.55366,21.27867 -7.18521,31.91801 -7.90326,9.87949 -12.64757,18.0359 -16.39885,25.65067 -3.75128,7.61477 -5.11862,13.86383 -10.1432,20.91338 -5.22352,7.32867 -13.96016,14.28198 -19.80074,21.0423 -5.84058,6.76032 -9.52046,14.72311 -14.28925,22.43597 -5.4563,8.82481 -10.43362,15.0237 -15.82886,22.19276 -8.30837,11.03996 -16.48994,21.60631 -21.40668,30.88765 -5.74341,10.84186 -9.10446,20.44843 -9.92346,28.73689 -0.99651,10.0849 -1.50792,17.20836 0.6665,33.79623 1.94288,14.82155 12.72441,38.6916 9.78376,50.35263 -2.48196,9.84207 -13.35887,15.83953 -29.2181,19.35359 -39.92243,8.84594 -111.003289,9.06869 -153.737317,9.88585 -3.178369,0.6306 -2.162391,4.10768 2.360122,4.97416 32.956745,4.61893 106.092985,8.0576 154.576745,5.59391 21.87898,-1.11177 39.2368,-4.94614 53.20365,-16.83401 6.64069,-5.65222 12.51398,-13.14068 17.74019,-23.06071 10.20716,-7.3446 11.8387,-9.18422 14.85989,-14.37303 -0.29898,30.78151 -13.63165,37.86589 -11.19833,46.47174 1.28673,4.55075 5.01428,6.46936 12.26538,7.42378 3.05459,0.40206 12.26538,-1.43117 12.26538,-1.43117 16.40709,0.34537 35.00659,1.65763 52.50988,0.47724 5.86802,-0.39573 14.64641,-2.40904 17.60404,-1.77133 3.20649,0.69138 9.52149,3.20475 14.54597,4.43407 5.99804,1.46751 12.10583,2.17886 18.23403,2.60504 4.50362,0.83364 6.69904,6.96155 10.9303,8.23391 0.31489,1.54545 0.954,4.59676 2.67955,4.42029 0,0 0.25637,-6.23876 -1.44039,-9.935 -0.95745,-2.0857 -3.53392,-3.41614 -5.01041,-5.28085 -2.16427,-2.73333 -3.26185,-4.92074 -6.34815,-6.25912 -2.33859,-1.01414 -6.06688,-0.85353 -6.06688,-0.85353 0,0 -2.45633,-1.92126 -3.63836,-1.95608 -10.36121,-0.30526 -8.45772,-3.34782 -19.12856,-5.61981 -4.68235,-0.64437 -4.42717,0.36539 -7.97316,0.4234 -23.77838,0.38912 -55.25876,-0.68029 -61.32594,-9.72379 -2.77973,-4.14335 -1.52425,-12.19969 1.06524,-22.00003 4.64162,-17.567 14.39144,-40.14129 15.83436,-58.86025 0.70069,-9.08996 0.12833,-17.24568 -2.91991,-23.78129 0,0 6.40099,-11.43325 9.41064,-21.0961 3.83603,-12.31609 6.62774,-26.95735 11.03124,-39.08213 3.90939,-10.76426 11.21203,-20.10888 14.70706,-29.15971 z" style="fill:#cc8b3e;fill-opacity:1;stroke:none"/>
        <path style="fill:#d4a061;fill-opacity:1;stroke:none" d="m 358.82863,116.97749 11.83208,1.21115 c 0,0 0.67104,-5.4787 -4.79805,-5.91604 -4.73526,-0.37866 -7.16717,4.6583 -7.16717,4.6583 z" id="path5779" inkscape:connector-curvature="0" sodipodi:nodetypes="ccscc"/>
        <path style="fill:#bf8035;fill-opacity:1;stroke:none" d="m 366.10967,113.07725 c -2.86944,-0.28963 -5.41062,1.84338 -6.79483,3.17158 -0.22802,0.23761 -0.96021,0.74774 -0.84627,1.05166 0.12314,0.32848 1.48806,0.25617 1.84393,0.26201 0.41983,1.3e-4 0.61537,0.087 0.6875,0.125 0.0721,0.038 0.10338,0.061 0.21875,0.25 0.0101,0.0107 0.0205,0.0211 0.0312,0.0312 1.0282,1.50228 2.36915,2.37512 3.8125,2.5625 1.35371,0.17574 2.71383,-0.27114 3.90625,-1.09375 0.36893,-0.014 1.4651,0.47911 1.88624,0.0749 0.58363,-0.61982 -0.27049,-1.19041 -0.29249,-1.54366 -0.0154,-0.24727 -0.12218,-0.44562 -0.21875,-0.65625 0,0 -0.0864,-0.24692 -0.0937,-0.28125 -0.0458,-0.21465 -0.18261,-0.84492 -0.6875,-1.71875 -0.58565,-1.0136 -1.72441,-2.0225 -3.45283,-2.23525 z" id="path5776" inkscape:connector-curvature="0" sodipodi:nodetypes="ccsccccsccsccscc"/>
        <path sodipodi:nodetypes="cssssssssccssccscccsscccssscssssssssssccccccssccscc" inkscape:connector-curvature="0" id="path5699" d="m 377.43697,112.86507 c 0,0 -10.60248,-3.5329 -14.71011,-1.87714 -5.50828,2.22036 -7.27751,5.09459 -7.15572,7.60814 0.0717,1.4796 2.9888,-0.33552 4.43981,0.19304 1.97396,0.71905 2.98727,2.16778 5.01893,2.7025 2.72163,0.71632 5.50976,-0.74949 8.30052,-0.38608 5.50845,0.71731 9.86448,5.16798 15.05675,7.14231 1.5036,0.57173 3.3697,0.35519 4.63285,1.35125 1.22206,0.96366 1.95287,2.5405 2.31643,4.05374 0.31601,1.31535 -0.19304,4.05374 -0.19304,4.05374 l -2.40504,2.47765 -0.96555,0.96556 -4.58637,0.72416 -15.69022,-1.20694 c -13.584,3.15433 -22.86147,3.0625 -25.22545,-4.09555 -0.94811,-2.27856 -4.75015,10.35644 -5.25523,14.52436 -0.84111,6.94084 -5.25377,12.96327 -7.60226,19.54866 -2.55722,7.17068 -5.57474,14.25384 -7.05924,21.72073 -1.80558,9.08192 -0.81415,16.34803 -4.77704,24.71683 -5.2597,11.10738 -11.89458,15.27355 -17.73354,26.08766 -3.76134,6.96623 -6.77679,18.86594 -9.64902,26.24336 -4.33665,11.13884 -11.57812,17.1195 -12.78561,29.01161 -0.83891,8.26213 3.68086,17.26828 7.29087,24.74721 4.87138,10.09213 9.66156,10.50683 11.58946,28.29771 0.8949,8.25824 -1.51035,17.54708 -2.09232,25.83325 -0.32911,4.68583 -1.98981,12.67169 -1.98981,12.67169 -3.02119,5.18881 -4.65273,7.02843 -14.85989,14.37303 -5.22621,9.92003 -11.0995,17.40849 -17.74019,23.06071 -13.96685,11.88787 -31.32467,15.72224 -53.20365,16.83401 -48.48376,2.46369 -121.62,-0.97498 -154.576745,-5.59391 -4.522513,-0.86648 -5.538491,-4.34356 -2.360122,-4.97416 42.734028,-0.81716 113.814887,-1.03991 153.737317,-9.88585 15.85923,-3.51406 26.73614,-9.51152 29.2181,-19.35359 2.94065,-11.66103 -7.84088,-35.53108 -9.78376,-50.35263 -2.17442,-16.58787 -1.66301,-23.71133 -0.6665,-33.79623 0.819,-8.28846 4.18005,-17.89503 9.92346,-28.73689 4.91674,-9.28134 13.09831,-19.84769 21.40668,-30.88765 5.39524,-7.16906 10.37256,-13.36795 15.82886,-22.19276 4.76879,-7.71286 8.44867,-15.67565 14.28925,-22.43597 5.84058,-6.76032 14.57722,-13.71363 19.80074,-21.0423 5.02458,-7.04955 6.39192,-13.29861 10.1432,-20.91338 3.75128,-7.61477 8.49559,-15.77118 16.39885,-25.65067 0.63155,-10.63934 2.56509,-21.27867 7.18521,-31.91801 4.42229,0.25885 2.71353,-3.65543 1.89552,-4.56966 -2.62602,-2.84698 -5.75907,-7.39086 -6.71317,-9.88242 -1.79456,-4.686331 -1.69516,-9.733215 -2.95591,-14.590445 -1.10764,-4.267363 -4.89499,-13.379814 -4.89499,-13.379814 7.14151,9.186852 14.28303,16.814561 21.42454,31.841299 0,0 3.38699,-0.76751 5.09518,-0.6506 9.36506,0.64097 17.43867,7.06656 23.83003,5.21656 z" style="fill:#bf8035;fill-opacity:1;stroke:none"/>
        <path style="fill:#a4621b;fill-opacity:1;stroke:none" d="m 348.50386,106.29869 c -4.3139,-9.041766 -11.05655,-18.377991 -15.88014,-25.589052 0,0 2.81836,10.427985 5.76932,15.245402 1.37116,2.238396 6.1622,15.45605 9.32071,14.94503 1.49381,-0.24169 0.79011,-4.60138 0.79011,-4.60138 z" id="path5781" inkscape:connector-curvature="0" sodipodi:nodetypes="ccssc"/>
        <path style="fill:#b2742b;fill-opacity:1;stroke:none" d="m 336.93976,150.97071 c -5.24027,7.17466 -12.01277,19.43151 -14.93976,25.37304 -3.4759,7.05578 -4.95601,13.79027 -10.5625,21.65625 -5.91175,8.29427 -14.80965,15.25387 -20.125,21.40625 -5.22785,6.0511 -8.79943,13.72385 -13.78125,21.78125 -5.62451,9.09687 -10.75387,15.49825 -16.09375,22.59375 -8.33417,11.07425 -16.40156,21.56601 -20.96875,30.1875 -5.54526,10.46781 -8.62311,19.51943 -9.34375,26.8125 -0.99039,10.02295 -1.5107,16.33249 0.625,32.625 0.85771,6.54317 3.97753,16.21395 6.59375,25.65625 2.61622,9.4423 5.10378,18.53038 3.0625,26.625 -1.61701,6.41215 -6.03939,11.50332 -11.8125,15.15625 -5.77311,3.65293 -12.95774,6.16262 -21.25,8 -26.79862,5.93799 -65.9206,7.89991 -101.9375,8.875 33.79927,1.94749 73.46012,2.91417 103.75,1.375 21.4138,-1.08813 37.31707,-4.75015 50.09375,-15.625 6.07135,-5.16762 11.5507,-12.07751 16.53125,-21.53125 0.36547,-0.70023 0.8938,-1.31482 1.53125,-1.78125 9.47013,-6.81427 10.50315,-7.85509 12.96875,-12.03125 0.18963,-0.96729 6.23805,-5.78084 6.49323,-9.41408 -22.14334,11.41218 -35.78212,4.59312 -37.09111,-9.80912 -12.86363,-24.93962 -14.23051,-46.28357 2.52868,-71.49555 4.21767,-6.34492 7.78958,-7.47563 11.63479,-12.01167 3.84521,-4.53604 8.88826,-13.2366 10.5823,-17.5878 1.00952,-2.59298 1.2371,-6.14128 1.5,-10.28125 0.2629,-4.13997 5.02781,-8.96757 7.55941,-13.65625 3.71581,-6.8819 7.64639,-16.87346 12.28168,-21.23853 10.07851,-9.49097 12.35234,-20.3828 14.51102,-31.25575 1.62207,-8.17014 6.99662,-17.41103 9.48283,-24.3826 1.62497,-4.55658 4.62633,-12.52512 6.17568,-16.02169 z" id="path5703" inkscape:connector-curvature="0" sodipodi:nodetypes="csssssssssssscsscccccssssssssc"/>
        <path sodipodi:nodetypes="csssssssssscccsssccssssssssssssscc" inkscape:connector-curvature="0" id="path5689" d="m 340.94783,116.50827 c -4.62012,10.63934 -6.55366,21.27867 -7.18521,31.91801 -7.90326,9.87949 -12.64757,18.0359 -16.39885,25.65067 -3.75128,7.61477 -5.11862,13.86383 -10.1432,20.91338 -5.22352,7.32867 -13.96016,14.28198 -19.80074,21.0423 -5.84058,6.76032 -9.52046,14.72311 -14.28925,22.43597 -5.4563,8.82481 -10.43362,15.0237 -15.82886,22.19276 -8.30837,11.03996 -16.48994,21.60631 -21.40668,30.88765 -5.74341,10.84186 -9.10446,20.44843 -9.92346,28.73689 -0.99651,10.0849 -1.50792,17.20836 0.6665,33.79623 1.94288,14.82155 12.72441,38.6916 9.78376,50.35263 -2.48196,9.84207 -13.35887,15.83953 -29.2181,19.35359 -39.92243,8.84594 -111.003289,9.06869 -153.737317,9.88585 -3.178369,0.6306 -2.162391,4.10768 2.360122,4.97416 32.956745,4.61893 106.092985,8.0576 154.576745,5.59391 21.87898,-1.11177 39.2368,-4.94614 53.20365,-16.83401 6.64069,-5.65222 12.51398,-13.14068 17.74019,-23.06071 10.20716,-7.3446 11.8387,-9.18422 14.85989,-14.37303 l 0.91895,-10.12369 c 0,0 -8.78118,9.56621 -14.67288,11.61604 -3.27205,1.13841 -6.0798,0.61665 -9.45156,1.41261 -2.66099,0.62817 -5.57578,1.84028 -8.27818,2.25561 -5.09968,0.78377 -6.93356,-2.07177 -10.60215,-5.69979 -5.1455,-5.08858 -5.47156,-13.04791 -6.72507,-20.17522 -2.18802,-12.44076 -7.27064,-24.67368 -6.72508,-37.29359 0.53806,-12.44627 2.94502,-22.7239 8.15667,-34.03928 9.08023,-19.71473 26.01808,-34.89564 36.68222,-53.80059 3.85319,-6.83077 5.21888,-15.01947 9.78192,-21.39796 6.03896,-8.44161 13.73407,-13.78982 19.24322,-22.58636 4.31048,-6.88259 4.05284,-15.80454 7.33645,-23.23207 4.09851,-9.27084 12.77734,-20.5997 15.22706,-26.92688 1.91449,-4.94478 1.44352,-8.9617 1.99012,-14.23591 0.60632,-5.8504 3.18018,-18.4505 3.18018,-18.4505 z" style="fill:#a4621b;fill-opacity:1;stroke:none"/>
        <path style="fill:#9f5d1a;fill-opacity:1;stroke:none" d="m 235.61796,389.4629 c 1.23784,5.82418 1.7857,11.07854 0.80388,14.9719 -2.48195,9.84207 -13.35887,15.83953 -29.2181,19.35359 -39.92243,8.84594 -111.003289,9.06869 -153.737317,9.88585 -3.178369,0.6306 -2.162391,4.10768 2.360122,4.97416 32.956745,4.61893 106.092985,8.0576 154.576745,5.59391 21.87898,-1.11177 39.2368,-4.94614 53.20365,-16.83401 5.24484,-4.46414 10.01099,-10.07372 14.35772,-17.12202 l 2.90239,-14.54647 c 0,0 -1.86513,-0.0317 -3.68112,0.7744 -3.85077,1.70927 -9.5354,5.13069 -11.18437,6.17194 -4.8245,3.04644 -6.8211,1.58149 -10.05861,1.02424 -1.94186,-0.33424 -7.40453,-5.23666 -7.92044,-7.89605 -2.12736,-10.966 -6.57705,-17.23695 -7.06388,-16.01988 z" id="path5942" inkscape:connector-curvature="0" sodipodi:nodetypes="cscccssccsssscc"/>
        <path sodipodi:nodetypes="sssssssssssssssssccccsccsscccsscccssscsssss" inkscape:connector-curvature="0" id="path5673" d="m 256.20199,421.14889 c -12.50457,10.64325 -28.06756,14.26102 -49.375,15.34375 -17.19557,0.87379 -74.36847,2.13807 -107.876377,1.23909 -8.49458,-0.2279 -25.173352,-0.18403 -21.945084,-1.45536 1.357409,-0.53456 13.531081,-0.0149 21.953894,-0.23549 34.624257,-0.9067 92.341917,-2.79415 108.127797,-6.29196 8.37517,-1.85576 18.59077,-4.39209 24.53967,-8.15625 5.9489,-3.76416 10.89185,-9.84393 12.59483,-16.59699 2.17182,-8.61225 -0.18312,-16.27949 -2.8099,-25.7599 -2.62678,-9.48041 -5.69954,-19.12393 -6.53125,-25.46875 -2.12685,-16.22498 -1.64524,-22.36621 -0.65625,-32.375 0.69816,-7.0655 3.75004,-15.9927 9.25,-26.375 4.48727,-8.47063 12.98946,-19.95197 21.32953,-31.03406 5.32722,-7.07868 8.06438,-13.0114 13.72735,-22.17047 5.03052,-8.13617 7.32384,-16.13477 12.4116,-22.02372 5.19527,-6.01339 12.92224,-12.98497 18.99134,-21.5 5.73953,-8.05264 6.44587,-15.2035 9.85881,-22.13148 3.60981,-7.3276 8.04439,-14.95352 15.65625,-24.46875 0.81218,-1.01896 1.14011,-2.45237 1.21551,-3.75323 0.60091,-10.12315 1.0087,-21.10738 5.26947,-30.9192 l -0.90464,-1.07981 c -4.62012,10.63934 -6.63537,21.85063 -7.26692,32.48997 -7.90326,9.87949 -12.64757,18.0359 -16.39885,25.65067 -3.75128,7.61477 -5.11862,13.86383 -10.1432,20.91338 -5.22352,7.32867 -13.96016,14.28198 -19.80074,21.0423 -5.84058,6.76032 -9.52046,14.72311 -14.28925,22.43597 -5.4563,8.82481 -10.43362,15.0237 -15.82886,22.19276 -8.30837,11.03996 -16.48994,21.60631 -21.40668,30.88765 -5.74341,10.84186 -9.10446,20.44843 -9.92346,28.73689 -0.99651,10.0849 -1.50792,17.20836 0.6665,33.79623 1.94288,14.82155 12.72441,38.6916 9.78376,50.35263 -2.48196,9.84207 -13.35887,15.83953 -29.2181,19.35359 -39.92243,8.84594 -111.003289,9.06869 -153.737317,9.88585 -3.178369,0.6306 -2.162391,4.10768 2.360122,4.97416 32.956745,4.61893 106.092985,8.0576 154.576745,5.59391 21.87898,-1.11177 39.2368,-4.94614 53.20365,-16.83401 6.64069,-5.65222 12.51398,-13.14068 17.74019,-23.06071 10.20716,-7.3446 11.8387,-9.18422 15.01368,-14.71859 0,0 3.11658,-10.05386 1.67192,-10.95904 -0.61569,-0.38577 -1.48343,1.77174 -2.15733,2.70894 -1.25216,1.7414 -3.49538,5.40239 -3.49538,5.40239 -5.98142,8.25978 -10.97466,6.54517 -16.84109,13.40411 -8.07364,9.43958 -13.39576,15.9067 -19.33694,20.96353 z" style="fill:#955318;fill-opacity:1;stroke:none"/>
        <path style="fill:#dfbb90;fill-opacity:1;stroke:none" d="m 390.40625,432.71875 c -1.48003,-0.60605 -3.34774,-1.21654 -6,-1.78125 -4.68235,-0.64437 -4.42276,0.34824 -7.96875,0.40625 -23.77838,0.38912 -55.24532,-0.67525 -61.3125,-9.71875 -2.77973,-4.14335 -1.52699,-12.19966 1.0625,-22 4.64162,-17.567 14.36958,-40.12479 15.8125,-58.84375 0.70069,-9.08996 0.14199,-17.24564 -2.90625,-23.78125 0,0 6.3966,-11.4309 9.40625,-21.09375 3.83603,-12.31609 6.62775,-26.96897 11.03125,-39.09375 3.90939,-10.76426 11.22372,-20.10542 14.71875,-29.15625 3.6683,-9.49953 5.18366,-19.00833 5.90625,-28.5 1.80699,-23.73584 -2.97917,-46.64088 -1.71875,-54.71875 -1.83472,-0.041 -3.67101,0.77122 -4.875,2.15625 0,0 -2.12631,2.44592 -4.46875,5.625 -2.34244,3.17908 -6.61586,6.81283 -7.95382,11.3125 -1.58262,5.32248 -2.91216,9.28774 -3.70904,11.96838 -1.45471,4.89354 -6.89814,9.5598 -8.66523,18.00037 -1.83184,8.74984 -0.51587,16.03765 -1.0625,22.46875 -0.40119,4.72002 -0.89647,11.05002 -3.26493,15.875 -3.08552,6.28579 -4.66738,10.34171 -8,15.5 -3.65737,5.66094 -8.69841,11.5506 -12.21875,19.21875 -2.75095,5.99221 -3.50923,11.39711 -5.15625,13.96875 -2.28896,3.57396 -6.82514,6.99157 -9.875,13.75 -3.13121,6.93867 -0.56736,16.84879 1.06214,22.53052 1.29666,4.52121 3.70301,7.70426 5.5,10.03125 1.79699,2.32699 2.97394,3.85062 3.71875,6.03125 2.00246,5.86271 2.4186,12.77477 1.875,19.59375 -1.21058,15.18552 -6.73958,27.54992 -9.14454,46.52331 -0.95646,7.54576 -3.10863,17.06688 0.5,26.6875 1.55428,4.14372 1.75413,6.63141 5.66727,8.47336 3.31652,1.56113 12.53964,0.84606 15.69287,0.99595 9.69533,1.69442 2.7691,1.2074 11.01499,4.91117 2.87931,0.0804 4.27529,0.45216 7.17529,0.48369 2.19729,-0.4324 4.29279,0.49079 5.29004,0.43359 5.08221,-0.29152 10.75087,-0.32217 17.70996,-0.80176 1.87099,-0.23247 3.81581,-0.50188 5.71875,-0.78125 3.60612,-0.75613 3.37286,-2.13703 6.56882,-1.95284 4.19246,0.24163 7.32959,2.11755 9.46619,2.35086 1.78109,0.19447 2.62064,0.92927 4.2952,1.5664 1.62174,0.61704 4.70727,0.85148 6.38271,1.30281 1.5518,0.41803 3.25062,-0.47833 4.81959,-0.13026 1.70613,0.3785 2.99475,1.91743 4.68934,2.34467 1.39001,0.35045 2.87035,0.007 4.29855,0.13026 1.52944,0.132 3.12084,0.11457 4.55908,0.6513 2.17777,0.81271 3.99797,2.38834 5.86167,3.77752 0.96287,0.71771 2.73544,2.34466 2.73544,2.34466 l -0.65129,-2.2144 -5.08012,-4.42882 -3.64726,-4.94985 -3.38674,-1.43286 -4.68933,0 -3.25649,-2.2144 -5.86166,-0.26052 z" id="path5693" inkscape:connector-curvature="0" sodipodi:nodetypes="ccsssscssssccssssssssssssssssscccsccsssssssssccccccccc"/>
        <path style="fill:#e9d6be;fill-opacity:1;stroke:none" d="m 387.5625,431.7188 c -0.91853,-0.27052 -1.95402,-0.52528 -3.15625,-0.78125 -4.68235,-0.64437 -4.42276,0.34824 -7.96875,0.40625 -23.77838,0.38912 -55.24532,-0.67525 -61.3125,-9.71875 -2.77973,-4.14335 -1.52699,-12.19966 1.0625,-22 4.64162,-17.567 14.36958,-40.12479 15.8125,-58.84375 0.70069,-9.08996 0.14199,-17.24564 -2.90625,-23.78125 0,0 6.3966,-11.4309 9.40625,-21.09375 3.83603,-12.31609 6.62775,-26.96897 11.03125,-39.09375 3.90939,-10.76426 11.22372,-20.10542 14.71875,-29.15625 3.6683,-9.49953 5.18366,-19.00833 5.90625,-28.5 1.62149,-21.29919 -2.34986,-40.34546 -2.21763,-50.19223 -0.0729,-0.002 -0.14586,-0.002 -0.21875,0 l 0,-5e-5 c -0.84758,0.0691 -1.66211,0.4821 -2.21875,1.125 0,0 -2.0492,2.33458 -4.3125,5.40625 -2.2633,3.07167 -4.81159,6.72482 -5.90625,10.40625 -1.39569,4.6938 -0.98614,7.66429 -1.96987,10.97348 -1.67678,5.64057 -5.69755,9.65417 -7.28125,17.21875 -1.68839,8.06463 -0.4125,15.21302 -1,22.125 -0.45128,5.30929 -2.66096,11.85414 -5.15625,16.9375 -3.03113,6.17498 -4.66826,10.41372 -8.15625,15.8125 -3.79915,5.88039 -8.77028,11.67251 -12.0625,18.84375 -2.45987,5.35818 -3.16453,10.9099 -5.34375,14.3125 -2.62855,4.10418 -7.60596,7.44917 -10.2942,13.40625 -2.65053,5.8735 -1.68683,12.38193 -0.15625,17.71875 1.13549,3.95923 3.22015,6.72646 5,9.03125 1.77985,2.30479 3.23139,4.16721 4.15625,6.875 2.18831,6.40685 3.23409,13.72647 2.6692,20.8125 -1.28771,16.15302 -8.76495,31.2985 -11.05909,49.39758 -0.9738,7.68253 -2.89848,16.68951 0.3125,25.25 1.27839,3.40819 0.88595,5.23378 4.00611,7.00389 3.33137,1.88994 7.57358,1.36344 10.64673,1.50952 3.07315,0.14608 5.35185,-0.0778 7.39946,0.64131 0.63306,0.22232 1.55445,0.86436 2.75,1.71875 1.19555,0.85439 3.17572,2.39145 5.35054,2.81929 5.03588,0.99069 9.04423,-1.02871 11.8125,-1.1875 6.42517,-0.36855 13.61794,1.11238 21.3125,-0.0312 4.08719,-0.60745 5.46513,-0.78609 9.18556,-1.4865 4.4477,-0.83733 7.76625,0.41053 9.46584,0.80444 1.52802,0.35414 2.38574,0.27221 3.90777,0.65129 2.10368,0.52395 4.04211,2.64556 6.1222,3.25648 2.16632,0.63625 3.96123,-0.39376 6.12218,0.26052 1.64819,0.49903 2.64516,2.38424 4.29856,2.86571 1.95979,0.57069 4.09475,0.10636 6.12218,-0.13026 1.23497,-0.14413 3.64726,-0.78156 3.64726,-0.78156 l -2.08414,-2.47492 -3.38675,-1.43286 -4.29855,0 -3.25649,-2.2144 -5.86167,-0.26052 z" id="path5710" inkscape:connector-curvature="0" sodipodi:nodetypes="ccsssscssssccccssssssssssssssssssssssssssssssccccccc"/>
        <path style="fill:#b2742b;fill-opacity:1;stroke:none" d="m 311.64697,441.04103 c 0,0 -11.44197,-0.68234 -15.19692,-1.54172 -4.83312,-1.10613 -6.12771,-2.13777 -7.04785,-4.62514 -1.1311,-3.05765 2.68599,-8.30212 3.52393,-11.45276 3.94816,-14.84512 3.52392,-19.38158 3.52392,-19.38158 l -10.35153,27.31041 0,6.38711 5.72638,3.74417 8.36932,1.10122 z" id="path5752" inkscape:connector-curvature="0" sodipodi:nodetypes="cssscccccc"/>
        <path sodipodi:nodetypes="csscssscccccccscscsssscscssssscc" inkscape:connector-curvature="0" id="path5653-1" d="m 296.20702,389.97452 c -0.29898,30.78151 -13.63165,37.86589 -11.19833,46.47174 1.28673,4.55075 5.01428,6.46936 12.26538,7.42378 3.05459,0.40206 12.26538,-1.43117 12.26538,-1.43117 16.40709,0.34537 35.00659,1.65763 52.50988,0.47724 5.86802,-0.39573 14.64641,-2.40904 17.60404,-1.77133 3.20649,0.69138 9.52149,3.20476 14.54597,4.43407 4.76762,1.16647 9.60458,1.85519 14.42105,2.18444 l 5.08197,0.72103 7.96654,7.32922 1.83231,0.87631 1.11531,3.50528 1.83231,1.11532 -0.95599,-7.40888 c 0,0 -1.08281,-0.74091 -1.8323,-0.79665 -0.66417,-0.0494 -1.91197,0.39832 -1.91197,0.39832 0,0 -3.79609,-4.10916 -6.29357,-5.17825 -0.96033,-0.41109 -3.11115,-0.37657 -3.11115,-0.37657 -6.12311,-1.55939 -12.8683,-2.88111 -18.60658,-4.28506 -4.64557,-1.13661 -9.46833,-2.82209 -13.39352,-3.66844 -2.78463,-0.60041 -4.53936,-0.35547 -7.88323,0.11913 -3.34387,0.47465 -8.41277,1.09797 -11.09431,1.27881 -17.19395,1.15953 -35.24709,-0.38575 -52.11621,-1.06188 0,0 -2.59017,0.11859 -5.1875,0.51549 -2.59733,0.3969 -5.88394,0.41445 -6.375,0.34983 -3.4195,-0.45009 -5.75885,-1.15167 -7.15625,-1.96875 -1.3974,-0.81708 -2.3004,-1.48324 -2.75528,-3.09199 -0.36897,-1.30492 -0.99315,-2.5177 -0.19827,-4.56504 0.79488,-2.04734 1.89751,-5.44851 3.48424,-8.90653 3.17347,-6.91603 6.77037,-16.99331 6.90625,-32.84375 0.0119,-1.38359 1.0621,-11.4399 -0.27247,-11.06946 z" style="fill:#955318;fill-opacity:1;stroke:none"/>
        <path sodipodi:nodetypes="scsssscsssccscccsssccssssssssssssssscscsc" inkscape:connector-curvature="0" id="path5680" d="m 341.76882,238.3742 c 0.43066,-0.91104 12.68087,3.29264 13.66267,0.76453 -12.06449,-7.76786 -5.19703,-22.03831 -4.69059,-27.99662 0.63252,-7.44161 -2.41957,-9.6898 -0.88918,-16.99976 1.38171,-6.59978 4.99597,-7.46908 6.91733,-13.93241 1.18952,-4.00147 1.11678,-8.52221 2.30658,-12.5236 1.65339,-5.56047 7.53429,-11.12023 7.53429,-11.12023 0.49945,10.72272 3.02964,23.46371 1.57365,42.5891 -0.5912,7.76577 -3.4464,20.10828 -6.82297,22.26749 -1.4835,0.94865 2.81559,3.95565 2.14857,5.68297 -2.23715,5.79338 -6.75555,11.29382 -10.74344,17.3257 l -6.67697,-2.59074 z m 9.54978,8.31652 c -1.67378,2.71013 -3.17856,5.5422 -4.27671,8.56588 -4.40351,12.12478 -7.1952,27.70019 -11.03124,40.01628 -1.89257,6.07633 -5.35783,13.82105 -9.75692,17.04597 l 2.83733,4.67289 c 3.04824,6.53561 3.6206,14.69133 2.91991,23.78129 -1.44292,18.71896 -11.19274,41.29325 -15.83436,58.86025 -2.58949,9.80034 -3.84497,17.85668 -1.06524,22.00003 6.06718,9.0435 37.54756,10.11291 61.32594,9.72379 3.54599,-0.058 3.29081,-1.06777 7.97316,-0.4234 0,0 0.0299,1.21366 -3.74642,1.88878 -3.29566,0.58919 -10.23956,0.61835 -12.91531,1.01603 -6.93371,1.0305 -14.03125,-0.40143 -21.02962,0 -3.67987,0.21108 -7.36864,1.97587 -10.98524,1.26439 -2.69249,-0.52968 -4.62324,-2.1712 -7.21232,-3.08045 -5.49364,-1.9293 -12.88494,0.17305 -17.94929,-2.70004 -2.41349,-1.36921 -2.29894,-2.0892 -3.27346,-4.68728 -2.77302,-7.39288 -0.40891,-17.03862 0.58398,-24.87179 2.17208,-17.13613 9.72796,-32.33586 11.10062,-49.55447 0.58834,-7.38015 0.18296,-15.09431 -2.21005,-22.10047 -2.24635,-6.5768 -7.21213,-9.0777 -9.12808,-15.75823 -1.42163,-4.95694 -2.12112,-10.76998 0,-15.47032 2.28995,-5.07448 6.4456,-8.28423 9.44816,-12.97239 2.76537,-4.31782 3.4341,-8.4789 5.57338,-13.13876 3.04097,-6.62396 8.1506,-12.93292 12.1059,-19.05501 2.54275,-3.93572 4.15339,-7.28934 5.89655,-11.00051 0,0 1.6349,1.69089 2.40756,2.20904 2.63307,1.76575 8.24177,3.7685 8.24177,3.7685 z" style="fill:#f6f1e7;fill-opacity:1;stroke:none"/>
        <path style="fill:#b2742b;fill-opacity:1;stroke:none" d="m 304.03712,429.6984 c 0,0 1.84543,2.89827 3.2657,3.75556 1.62758,0.98243 3.66327,1.08711 5.5517,1.30628 3.29799,0.38277 6.65451,-0.30725 9.9604,0 1.76446,0.16399 5.22513,0.97971 5.22513,0.97971 l 2.44928,1.79614 c 0,0 -4.20191,-0.78187 -6.53141,-0.97971 -3.90818,-0.33192 -7.86253,0.95964 -11.75654,0.48985 -2.13769,-0.2579 -4.50998,-0.4681 -6.20484,-1.79613 -3.38641,-2.65346 -1.95942,-5.5517 -1.95942,-5.5517 z" id="path5756" inkscape:connector-curvature="0" sodipodi:nodetypes="csssccsssc"/>
        <path sodipodi:nodetypes="csccssssssssssssssssscccsccsscccsscccssscc" inkscape:connector-curvature="0" id="path5653" d="m 297.05463,383.13159 c -1.33456,-0.36525 -2.88703,4.04922 -3.58588,5.24341 -2.9437,5.03017 -3.86613,6.08313 -14,13.375 -0.39,0.28722 -0.71331,0.66441 -0.9375,1.09375 -5.07448,9.63203 -12.02111,16.28502 -18.31015,21.63794 -13.23176,11.2622 -27.61109,14.49442 -49.20276,15.59159 -36.28953,1.84404 -93.37613,1.00045 -132.079646,-1.83506 -8.002612,-0.58629 -24.015398,-0.87447 -22.599693,-2.46233 0.802935,-0.90058 14.121688,-0.48786 22.159054,-0.77696 40.295335,-1.44943 97.939935,-1.56627 128.603985,-8.36075 8.1536,-1.80666 15.14588,-4.25184 20.625,-7.71875 5.47912,-3.46691 10.29973,-7.85868 11.77296,-13.70068 1.82297,-7.22891 -0.46394,-16.24643 -3.0625,-25.625 -2.59856,-9.37857 -5.75505,-19.03134 -6.65625,-25.90625 -2.15051,-16.40544 -1.61773,-23.04711 -0.625,-33.09375 0.75825,-7.67367 3.94147,-16.92042 9.5625,-27.53125 4.70084,-8.87379 12.83194,-19.43886 21.15625,-30.5 5.36105,-7.12363 10.40856,-13.41341 15.96875,-22.40625 4.90036,-7.92566 7.88386,-16.64311 13.34599,-22.96539 5.51618,-6.38484 13.54335,-12.89899 19.19195,-20.82405 5.38399,-7.55381 6.8563,-14.10548 10.4375,-21.375 3.68016,-7.47041 8.24323,-15.33488 16,-25.03125 0.40808,-0.51428 0.6519,-1.15695 0.6875,-1.8125 0.11624,-8.54684 1.1659,-21.38655 5.52374,-31.508 -5.3683,10.24132 -6.63626,21.14688 -7.26781,31.78622 -7.90326,9.87949 -12.64757,18.0359 -16.39885,25.65067 -3.75128,7.61477 -5.11862,13.86383 -10.1432,20.91338 -5.22352,7.32867 -13.96016,14.28198 -19.80074,21.0423 -5.84058,6.76032 -9.52046,14.72311 -14.28925,22.43597 -5.4563,8.82481 -10.43362,15.0237 -15.82886,22.19276 -8.30837,11.03996 -16.48994,21.60631 -21.40668,30.88765 -5.74341,10.84186 -9.10446,20.44843 -9.92346,28.73689 -0.99651,10.0849 -1.50792,17.20836 0.6665,33.79623 1.94288,14.82155 12.72441,38.6916 9.78376,50.35263 -2.48196,9.84207 -13.35887,15.83953 -29.2181,19.35359 -39.92243,8.84594 -111.003289,9.06869 -153.737317,9.88585 -3.178369,0.6306 -2.162391,4.10768 2.360122,4.97416 32.956745,4.61893 106.092985,8.0576 154.576745,5.59391 21.87898,-1.11177 39.2368,-4.94614 53.20365,-16.83401 6.64069,-5.65222 12.51398,-13.14068 17.74019,-23.06071 10.20716,-7.3446 12.01338,-8.60196 15.06036,-13.70764 0.50411,0.60179 1.34062,-6.70342 0.64714,-7.50832 z" style="fill:#854715;fill-opacity:1;stroke:none"/>
        <path style="fill:#d4a061;fill-opacity:1;stroke:none" d="m 349.75698,104.33726 c 7.32055,-2.39269 20.94164,1.96336 28.59282,5.05786 -3.53692,-2.8827 -10.80424,-5.80439 -15.58943,-7.23148 -4.95546,-1.47786 -11.2685,-1.22164 -13.00339,2.17362 z" id="path5764" inkscape:connector-curvature="0" sodipodi:nodetypes="ccsc"/>
        <path style="fill:#a4621b;fill-opacity:1;stroke:none" d="m 387.36828,137.05809 c 0,0 -0.32329,0.28778 -1.14274,0.44264 -1.21603,0.22982 -3.64436,1.70752 -4.86947,1.88256 -3.92394,0.56062 -8.74178,-1.9127 -11.88081,0.1861 -0.88913,0.59448 -1.46776,1.70561 -1.63235,2.76243 -0.11562,0.7424 0.50226,2.19739 0.50226,2.19739 0,0 0.36951,-1.8244 0.94174,-2.5113 0.54673,-0.6563 1.34322,-1.3126 2.19739,-1.31844 5.1986,-0.0355 15.94677,1.38122 15.94677,1.38122 l 3.70417,-0.69061 1.37,-1.58871 1.3584,-0.21449 1.42989,-2.14484 1.42989,0.57196 0.64345,-1.2869 0.42897,-9.79476 -1.50138,2.14484 c 0,0 -0.7537,1.15628 -1.3584,1.21541 -0.7444,0.0728 -1.93036,-1.14392 -1.93036,-1.14392 l -2.28782,-0.50046 -1.42989,0.28598 -0.92944,-0.92943 c 0,0 -0.87269,0.58304 -0.35747,1.42989 1.29338,2.12588 3.03714,0.33702 4.64715,2.07335 1.45728,1.57161 1.74124,4.5281 0.64345,6.22002 -0.68652,1.05806 -2.64531,0.78644 -2.64531,0.78644 z" id="path5768" inkscape:connector-curvature="0" sodipodi:nodetypes="csssscsscccccccccsccccssscc"/>
        <path style="fill:#7d4114;fill-opacity:1;stroke:none" d="m 392.55183,140.09344 -1.55373,-2.01986 -2.25292,-1.16531 -2.09755,0.38844 c 0,0 -1.26573,0.79669 -1.27368,1.66212 -0.005,0.59048 0.54996,1.15416 1.08761,1.39836 0.82656,0.37542 1.4799,0.41984 2.3613,0.20237 0.60758,-0.14988 2.02213,-0.73215 2.02213,-0.73215 l 0.92997,1.12058 z" id="path5770" inkscape:connector-curvature="0" sodipodi:nodetypes="ccccsssccc"/>
        <path style="fill:none;stroke:#6b3814;stroke-width:1px;stroke-linecap:butt;stroke-linejoin:miter;stroke-opacity:1" d="m 364.24,227.6538 c 3.6683,-9.49953 5.19559,-19.00692 5.91818,-28.49859 2.06997,-27.19028 -4.54626,-53.28081 -0.76959,-57.25357 0.63915,-0.67234 1.76327,-1.12229 3.70979,-1.10799 6.20952,0.0456 17.99258,2.97635 19.54876,-0.95874 0.77197,-0.0512 1.84945,-0.35752 2.45836,-2.37912 1.95341,1.55894 2.21604,-0.70696 2.3733,-1.50894 0.41291,-2.70186 0.94767,-7.63866 -0.14048,-10.21342 -0.83813,-1.98318 -2.67064,-2.90466 -4.46565,-4.09352 -5.1578,-3.41607 -15.55204,-9.07576 -15.55204,-9.07576 0.88739,-0.7213 1.70922,-1.58415 1.39061,-2.98665 -0.43276,-2.10446 -13.7704,-8.48306 -22.5744,-8.50586 -2.61978,-0.007 -4.83263,0.58692 -6.18319,2.38324 -5.19643,-10.880121 -14.19888,-23.997431 -21.56045,-29.198072 4.93156,14.06838 -1.49671,29.177592 12.55463,42.251462 -4.62012,10.63934 -6.55366,21.27867 -7.18521,31.91801 -7.90326,9.87949 -12.64757,18.0359 -16.39885,25.65067 -3.75128,7.61477 -5.11862,13.86383 -10.1432,20.91338 -5.22352,7.32867 -13.96016,14.28198 -19.80074,21.0423 -5.84058,6.76032 -9.52046,14.72311 -14.28925,22.43597 -5.4563,8.82481 -10.43362,15.0237 -15.82886,22.19276 -8.30837,11.03996 -16.48994,21.60631 -21.40668,30.88765 -5.74341,10.84186 -9.10446,20.44843 -9.92346,28.73689 -0.99651,10.0849 -1.50792,17.20836 0.6665,33.79623 1.94288,14.82155 12.72441,38.6916 9.78376,50.35263 -2.48196,9.84207 -13.35887,15.83953 -29.2181,19.35359 -39.92243,8.84594 -111.003289,9.06869 -153.737317,9.88585 -3.178369,0.6306 -2.162391,4.10768 2.360122,4.97416 32.956745,4.61893 106.092985,8.0576 154.576745,5.59391 21.87898,-1.11177 39.2368,-4.94614 53.20365,-16.83401 6.64069,-5.65222 12.51398,-13.14068 17.74019,-23.06071 9.72194,-6.99546 11.41481,-8.56045 14.188,-13.21838 0.1384,-0.23247 0.59062,-1.09503 0.67189,-1.15465 -0.29898,30.78151 -13.63165,37.86589 -11.19833,46.47174 1.28673,4.55075 5.01428,6.46936 12.26538,7.42378 3.05459,0.40206 12.26538,-1.43117 12.26538,-1.43117 16.40709,0.34537 35.00659,1.65763 52.50988,0.47724 5.86802,-0.39573 14.64641,-2.40904 17.60404,-1.77133 3.20649,0.69138 9.52149,3.20475 14.54597,4.43407 5.99804,1.46751 12.10583,2.17886 18.23403,2.60504 4.50362,0.83364 6.69904,6.96155 10.9303,8.23391 0.31489,1.54545 0.954,4.59676 2.67955,4.42029 0,0 0.25637,-6.23876 -1.44039,-9.935 -0.95745,-2.0857 -3.53392,-3.41614 -5.01041,-5.28085 -2.16427,-2.73333 -3.26185,-4.92074 -6.34815,-6.25912 -2.33859,-1.01414 -6.06688,-0.85353 -6.06688,-0.85353 0,0 -2.45633,-1.92126 -3.63836,-1.95608 -10.36121,-0.30526 -8.45772,-3.34782 -19.12856,-5.61981 -4.68235,-0.64437 -4.42717,0.36539 -7.97316,0.4234 -23.77838,0.38912 -55.25876,-0.68029 -61.32594,-9.72379 -2.77973,-4.14335 -1.52425,-12.19969 1.06524,-22.00003 4.64162,-17.567 14.39144,-40.14129 15.83436,-58.86025 0.70069,-9.08996 0.12833,-17.24568 -2.91991,-23.78129 0,0 6.40099,-11.43325 9.41064,-21.0961 3.83603,-12.31609 6.62774,-26.95735 11.03124,-39.08213 3.90939,-10.76426 11.21203,-20.10888 14.70706,-29.15971 z" id="path3563-1" inkscape:connector-curvature="0" sodipodi:nodetypes="scsccccssscsccssccsscccsscccsscscsscssscccssscscsssscsss"/>
        <path style="fill:#854715;fill-opacity:1;stroke:none" d="m 334.54619,87.675778 c 0,0 2.15995,5.97581 3.65724,8.503087 2.50858,4.234225 6.77383,6.745375 8.96025,11.154585 0.4466,0.90063 0.67673,1.922 0.73145,2.9258 0.21115,3.87321 -2.9258,3.74867 -2.9258,3.74867 0,0 -0.19583,-1.97332 -2.19434,-3.84011 -6.39367,-5.97227 -7.75894,-14.943109 -8.2288,-22.492032 z" id="path5610" inkscape:connector-curvature="0" sodipodi:nodetypes="cssscsc"/>
        <path sodipodi:nodetypes="cccccc" inkscape:connector-curvature="0" id="path5572" d="m 368.69231,118.58072 c -2.20403,1.65084 -4.90362,1.5699 -6.73834,-1.11076 -0.30965,-0.50733 -0.65469,-0.77684 -1.65578,-0.77716 1.3646,-1.30938 3.37205,-3.11643 5.75001,-2.87641 2.78551,0.34286 3.40688,3.64195 3.40688,3.64195 0.52497,0.92417 -0.0236,1.09053 -0.76277,1.12238 z" style="fill:#743c1e;fill-opacity:1;stroke:none"/>
        <path inkscape:connector-curvature="0" style="fill:#4e250e;fill-opacity:1;stroke:none" d="m 365.70204,113.58234 c -1.67848,0 -3.03556,1.35484 -3.03556,3.03994 0,1.68509 1.35708,3.03993 3.03556,3.03993 1.67849,0 3.03557,-1.35484 3.03557,-3.03993 0,-1.6851 -1.35708,-3.03994 -3.03557,-3.03994 z" id="path5730"/>
        <path inkscape:connector-curvature="0" style="fill:#381805;fill-opacity:1;stroke:none" d="m 365.70204,114.24047 c -1.31934,0 -2.38508,1.06857 -2.38508,2.38181 0,1.31324 1.06574,2.3818 2.38508,2.3818 1.31935,0 2.38509,-1.06856 2.38509,-2.3818 0,-1.31324 -1.06574,-2.38181 -2.38509,-2.38181 z" id="path5550"/>
        <path style="fill:#472209;fill-opacity:1;stroke:none" d="m 390.79131,138.45291 -2.23453,0.75534 -1.73098,-0.15737 -0.40914,-0.75533 1.10153,-0.94417 1.91981,0.0315 z" id="path5772" inkscape:connector-curvature="0"/>
        <path sodipodi:nodetypes="csscsscccscccscsscccccscccccccsccccccccccccccsccsccccccsscscsccscccsccccccccccccccccccc" inkscape:connector-curvature="0" id="path5540" d="m 330.53125,77.5625 c 3.01706,5.751562 4.08975,13.329791 6.84375,18.125 2.3276,4.052767 6.05873,7.28696 8.65625,10.9375 2.26834,3.18792 1.53125,5.78125 1.53125,5.78125 0,0 1.84207,-2.77604 -0.71875,-6.375 -2.69158,-3.78274 -6.45956,-6.939684 -8.59375,-10.84375 -3.34701,-6.122673 -4.43023,-14.955804 -7.71875,-17.625 z m 34.625,35.84375 c -2.16042,0.21443 -3.92332,1.84695 -5.125,3 0,0 -0.43242,0.35054 -0.3675,0.59969 0.084,0.32256 0.64875,0.0878 0.64875,0.0878 0.46466,1.5e-4 0.70545,0.0675 0.875,0.15625 0.16955,0.0887 0.30069,0.21334 0.4375,0.4375 0.96795,1.41424 2.19946,2.17953 3.5,2.34375 1.30054,0.16422 2.64526,-0.25072 3.8125,-1.125 0.31622,-0.0208 1.06851,0.21955 1.13844,-0.1349 0.21058,-1.06727 -0.47084,-2.4284 -0.9196,-3.20885 -0.5371,-0.93408 -1.51893,-1.96626 -3.0625,-2.15625 -0.32499,-0.0328 -0.62887,-0.0306 -0.9375,0 z m 0.15625,0.8125 c 0.22556,-0.0186 0.4537,-0.0236 0.6875,0 1.24194,0.15287 1.97128,0.94666 2.4375,1.75 0.46622,0.80334 0.625,1.5625 0.625,1.5625 l 0,0.0625 0.0312,0.0625 c 0.11392,0.20055 0.1522,0.35165 0.15625,0.40625 -0.0283,0.0137 -0.23592,0.11093 -0.5625,0.125 l -0.125,0 -0.125,0.0625 c -1.03679,0.77656 -2.12856,1.13371 -3.1875,1 -1.05894,-0.13371 -2.10198,-0.73358 -2.96875,-2 -0.17284,-0.28317 -0.3881,-0.54578 -0.71875,-0.71875 -0.0906,-0.0474 -0.24076,-0.0298 -0.34375,-0.0625 1.13849,-1.03412 2.51482,-2.11973 4.09375,-2.25 z M 397.40625,126.25 c -0.48007,0.33898 -0.88195,0.80588 -1.15625,1.28125 -0.93318,1.61715 -0.53125,3.5625 -0.53125,3.5625 0,0 0.15635,-1.51373 1.96875,-2.28125 0.098,-0.0415 0.20416,-0.1366 0.3125,-0.1875 z m -7.9375,0.78125 c -0.11958,0.0106 -0.22817,0.0296 -0.34375,0.0625 -0.52223,0.14888 -1.07038,0.67621 -1.09375,1.21875 -0.0204,0.47468 0.41994,0.94149 0.84375,1.15625 0.59239,0.30019 1.62966,-0.0659 2.28125,0.0625 2.82367,0.55654 3.1875,2.34375 3.1875,2.34375 0,0 -0.17106,-2.93802 -2.375,-4.09375 -0.74507,-0.39071 -1.66296,-0.824 -2.5,-0.75 z m 5.4375,5.4375 c 0.0472,1.56197 0.12732,3.84625 -0.40625,5.375 l 0.9375,0.34375 c 0.55266,-1.38808 0.25451,-4.70808 -0.53125,-5.71875 z M 388.375,136.625 c -0.71323,-0.0171 -1.40404,0.18031 -1.96875,0.625 -0.24187,0.19046 -0.39409,0.42569 -0.5,0.71875 -0.10591,0.29306 -0.16425,0.65687 0.0312,1 0.23381,0.41029 0.63796,0.66789 1.0625,0.78125 0.42454,0.11336 0.88563,0.10943 1.375,0.0625 0.58509,-0.0561 1.22678,-0.26038 1.75,-0.46875 0.39785,-0.15844 0.55368,-0.24867 0.6875,-0.3125 0.0916,0.11994 0.11383,0.15008 0.21875,0.28125 0.22538,0.28176 0.49635,0.54998 0.875,0.75 0.37865,0.20002 0.87379,0.3066 1.40625,0.21875 l -0.1875,-1 c -0.34683,0.0572 -0.55221,0.0106 -0.75,-0.0937 -0.19779,-0.10448 -0.37885,-0.27041 -0.5625,-0.5 -0.35134,-0.43923 -0.67301,-1.08533 -1.34375,-1.40625 l 0,-0.0312 c -0.009,-0.005 -0.0224,0.005 -0.0312,0 -0.0115,-0.007 -0.0197,-0.0246 -0.0312,-0.0312 -0.63087,-0.36874 -1.34049,-0.57715 -2.03125,-0.59375 z m 0,1 c 0.51779,0.0146 1.09093,0.19552 1.59375,0.5 l 0.0312,0 0.0312,0.0312 c 0.0163,0.007 0.0451,0.083 0.0625,0.0937 -0.14177,0.0633 -0.14556,0.0773 -0.34375,0.15625 -0.48465,0.19301 -1.09202,0.40139 -1.46875,0.4375 -0.42636,0.0409 -0.7935,0.0322 -1.03125,-0.0312 -0.23775,-0.0635 -0.34147,-0.17524 -0.4375,-0.34375 0.005,0.009 -0.01,-0.0429 0.0312,-0.15625 0.0409,-0.1133 0.12747,-0.23398 0.1875,-0.28125 0.35299,-0.27797 0.82596,-0.42081 1.34375,-0.40625 z" style="color:#000000;font-style:normal;font-variant:normal;font-weight:normal;font-stretch:normal;font-size:medium;line-height:normal;font-family:Sans;-inkscape-font-specification:Sans;text-indent:0;text-align:start;text-decoration:none;text-decoration-line:none;letter-spacing:normal;word-spacing:normal;text-transform:none;direction:ltr;block-progression:tb;writing-mode:lr-tb;baseline-shift:baseline;text-anchor:start;display:inline;overflow:visible;visibility:visible;fill:#6b3814;fill-opacity:1;stroke:none;stroke-width:0.80000001;marker:none;enable-background:accumulate"/>
        <path style="color:#000000;font-style:normal;font-variant:normal;font-weight:normal;font-stretch:normal;font-size:medium;line-height:normal;font-family:Sans;-inkscape-font-specification:Sans;text-indent:0;text-align:start;text-decoration:none;text-decoration-line:none;letter-spacing:normal;word-spacing:normal;text-transform:none;direction:ltr;block-progression:tb;writing-mode:lr-tb;baseline-shift:baseline;text-anchor:start;display:inline;overflow:visible;visibility:visible;fill:#472209;fill-opacity:1;stroke:none;stroke-width:0.80000001;marker:none;enable-background:accumulate" d="m 397.21875,126.875 c -0.26498,0.25506 -0.51673,0.51655 -0.6875,0.8125 -0.40216,0.69692 -0.53461,1.46535 -0.5625,2.09375 0.32216,-0.46201 0.79154,-0.94153 1.59375,-1.28125 0.002,-7.2e-4 0.0522,-0.0237 0.0625,-0.0312 0.40072,-0.36428 0.46858,-1.68873 -0.40625,-1.59375 z M 389.5,127.5 c -0.0946,0.008 -0.16399,0.038 -0.25,0.0625 -0.15921,0.0454 -0.35312,0.1563 -0.5,0.3125 -0.14688,0.1562 -0.24502,0.35321 -0.25,0.46875 -0.003,0.0814 0.045,0.20315 0.15625,0.34375 0.11124,0.1406 0.2914,0.26971 0.4375,0.34375 0.12392,0.0628 0.4449,0.099 0.84375,0.0625 0.39885,-0.0365 0.85337,-0.12173 1.3125,-0.0312 0.81246,0.16013 1.44101,0.41733 1.9375,0.71875 -0.31601,-0.60488 -0.73642,-1.19486 -1.4375,-1.5625 -0.73062,-0.38314 -1.60886,-0.77543 -2.25,-0.71875 z" id="path6848" inkscape:connector-curvature="0" sodipodi:nodetypes="ccccccccscsssccsccc"/>
        <path inkscape:connector-curvature="0" style="fill:#1a1a1a;fill-opacity:1;stroke:none" d="m 365.70204,115.33736 c -0.75103,0 -1.30095,0.56012 -1.30095,1.28492 0,0.7248 0.54992,1.28492 1.30095,1.28492 0.75104,0 1.30096,-0.56012 1.30096,-1.28492 0,-0.7248 -0.54992,-1.28492 -1.30096,-1.28492 z" id="path5546"/>
        <circle r="0.72350073" cy="117.57413" cx="367.10425" style="fill:#ffffff;fill-opacity:1;stroke:none" id="path5557" transform="matrix(1.1057349,0,0,1.1057349,-39.046166,-13.019268)"/>
        <path sodipodi:nodetypes="ccsccccccccsssscc" inkscape:connector-curvature="0" id="path5727" d="m 352.50917,244.06319 c 3.2912,1.08363 7.23391,2.5066 12.65358,6.26827 2.61651,3.15411 7.85274,4.73807 11.97405,8.51346 4.32703,3.96384 6.7468,10.09346 6.7468,10.09346 -2.10638,7.42374 2.07893,13.1093 0.8203,23.09817 0.19206,3.21438 1.02008,3.06482 1.9913,5.52976 0.3096,1.41748 -0.78795,7.44118 -1.1495,9.06149 1.42894,-0.41563 2.85787,-0.78627 4.28681,-3.34864 1.51428,0.60587 2.92348,-1.15432 3.20736,-2.61056 1.49533,0.28696 2.59203,-1.37789 2.60747,-2.5066 l 0,-8.65086 c 0,0 1.22358,-2.76619 1.33938,-6.04742 0.0999,-2.83173 -0.86358,-6.04704 -1.31998,-8.19898 -1.8137,-8.55173 -5.73386,-15.42174 -10.44457,-22.78591 -1.65314,-2.58432 -4.41056,-5.67243 -6.29407,-8.09399 -4.97001,-6.38977 -11.69698,-11.18023 -15.20151,-15.98706 -7.24115,2.88713 -12.04654,9.98029 -11.21742,15.66541 z" style="fill:#f6f1e7;fill-opacity:1;stroke:none"/>
        <path style="fill:#e9d6be;fill-opacity:1;stroke:none" d="m 384.76458,266.28785 -7.9744,-11.1072 -9.96799,-5.98079 -14.52479,-7.6896 -7.6896,-2.2784 -3.1328,-7.68959 3.9872,-7.4048 c 0,0 -0.26474,5.00781 0.8544,7.12 1.35472,2.55679 4.02624,4.28139 6.5504,5.69599 3.30015,1.84948 7.21006,3.04185 10.53759,4.8416 3.56036,1.92568 6.68197,3.54953 9.6832,6.2656 2.88679,2.61251 9.48953,8.70347 9.48953,8.70347 0,0 4.8535,6.13822 5.59347,9.22753 0.60837,2.53988 -0.95887,5.18408 -0.82023,7.79212 0.1039,1.95454 0.46895,3.93842 1.23034,5.74156 0.67108,1.58925 1.75865,2.98738 2.87078,4.30618 2.33908,2.77376 4.51123,-2.25561 4.51123,-2.25561 l -1.43539,16.60952 -6.76685,5.94662 0,-6.9719 -1.8455,-3.07584 -0.41011,-10.25279 -1.02528,-8.20224 0.82022,-7.38201 z" id="path5810" inkscape:connector-curvature="0" sodipodi:nodetypes="cccccccsssscssssccccccccc"/>
        <path sodipodi:nodetypes="ccccccccccccccccssssccccssssccccccccscsccsssccsccsccccccssc" inkscape:connector-curvature="0" id="path5808" d="m 388.37495,296.90625 c 0.0283,0.0919 0.0492,0.18603 0.0625,0.28125 0.18196,0.83309 0.13346,1.45905 0.0625,2.3125 -0.071,0.85345 -0.19876,1.8136 -0.34375,2.78125 -0.0228,0.15231 -0.0389,0.22355 -0.0625,0.375 0.0724,-0.12081 0.11017,-0.11132 0.1875,-0.25 0.4161,-0.75117 1.41595,-1.11732 2.21875,-0.8125 0.0164,0.007 -0.0964,0.0866 0.15625,-0.15625 0.25261,-0.24283 0.53123,-0.80431 0.59375,-1.125 0.17514,-0.93504 1.19194,-1.62287 2.125,-1.4375 0.0346,0.007 0.0145,0.0362 0.1875,-0.15625 0.16559,-0.18415 0.27152,-0.54372 0.28125,-0.5625 l 0,-0.0312 0,-8.625 c -0.002,-0.25734 0.0515,-0.51501 0.1563,-0.75005 0,0 1.0863,-2.47627 1.1875,-5.34375 0.0834,-2.36481 -0.79144,-5.47176 -1.28125,-7.78125 -1.74509,-8.22824 -5.53793,-14.87005 -10.21875,-22.1875 -1.51623,-2.37028 -4.23886,-5.46345 -6.1875,-7.96875 -3.60176,-4.63065 -8.27211,-8.491 -12,-12.3125 -1.86394,-1.91075 -3.4962,-3.80829 -4.59375,-5.90625 -1.37317,-3.33353 -1.50734,-7.39642 1.98247,-7.64964 0.503,1.75285 -0.11982,4.00207 1.4033,6.27717 l -0.64812,2.40599 c 3.48051,4.84527 10.27481,9.66092 15.2842,16.10132 1.88351,2.42156 4.64093,5.50967 6.29407,8.09399 4.71071,7.36417 8.63087,14.23418 10.44457,22.78591 0.4564,2.15194 1.41988,5.36725 1.31998,8.19898 -0.1158,3.28123 -1.33938,6.04742 -1.33938,6.04742 l 0,8.65086 c -0.0154,1.12871 -1.11214,2.79356 -2.60747,2.5066 -0.28388,1.45624 -1.69308,3.21643 -3.20736,2.61056 -1.42894,2.56237 -2.85787,2.93301 -4.28681,3.34864 0.36155,-1.62031 1.4591,-7.64401 1.1495,-9.06149 -0.97122,-2.46494 -1.79924,-2.31538 -1.9913,-5.52976 1.25863,-9.98887 -2.92668,-15.67443 -0.8203,-23.09817 0,0 -2.41977,-6.12962 -6.7468,-10.09346 -4.12131,-3.77539 -9.35754,-5.35935 -11.97405,-8.51346 -11.46304,-7.95623 -16.31878,-5.45015 -22.37767,-11.39958 -3.09465,-3.03873 -5.16437,-10.02876 -5.16437,-10.02876 l 5.58594,-7.79928 c 0.22792,0.67627 -0.21334,6.90659 0.26861,8.0433 0.86001,2.02839 0.36151,3.4078 1.55813,4.58279 2.76751,2.71751 4.71442,4.95285 8.12699,6.06917 3.41257,1.11632 7.97933,2.48395 13.88152,6.58052 0.12739,0.0888 0.24325,0.19412 0.34375,0.3125 2.05001,2.47122 7.31428,5.1493 11.8125,9.26996 4.76279,4.36303 7.21875,10.78125 7.21875,10.78125 0.14599,0.3648 0.16832,0.77784 0.0625,1.15625 -0.93408,3.29207 -1.35818,7.73818 -0.7294,11.31917 0.61505,3.50283 1.33986,7.59695 0.75,12.71875 l 0.0312,0 c 0.087,1.45566 0.21622,1.82248 0.46875,2.3125 l 1.6163,-1.65058 0.22627,-5.65671 -0.67881,-5.09104 c 0,0 1.86557,1.85133 2.26269,3.05462 0.72095,2.1845 0.4373,4.64274 0,6.90119 -0.34826,1.79859 -2.05145,5.09877 -2.05145,5.09877 z" style="fill:#dfbb90;fill-opacity:1;stroke:none"/>
        <path style="fill:none;stroke:#6b3814;stroke-width:1px;stroke-linecap:butt;stroke-linejoin:miter;stroke-opacity:1" d="m 355.13461,244.97904 c 2.74665,1.03346 5.9742,2.53868 10.02814,5.35242 2.61651,3.15411 7.85274,4.73807 11.97405,8.51346 4.32703,3.96384 6.7468,10.09346 6.7468,10.09346 -2.10638,7.42374 2.07893,13.1093 0.8203,23.09817 0.19206,3.21438 1.02008,3.06482 1.9913,5.52976 0.3096,1.41748 -0.78795,7.44118 -1.1495,9.06149 1.42894,-0.41563 2.85787,-0.78627 4.28681,-3.34864 1.51428,0.60587 2.92348,-1.15432 3.20736,-2.61056 1.49533,0.28696 2.59203,-1.37789 2.60747,-2.5066 l 0,-8.65086 c 0,0 1.22358,-2.76619 1.33938,-6.04742 0.0999,-2.83173 -0.86358,-6.04704 -1.31998,-8.19898 -1.8137,-8.55173 -5.73386,-15.42174 -10.44457,-22.78591 -1.65314,-2.58432 -4.41056,-5.67243 -6.29407,-8.09399 -5.04803,-6.49008 -11.90861,-11.33024 -15.36415,-16.21345" id="path4390" inkscape:connector-curvature="0" sodipodi:nodetypes="ccsccccccccssssc"/>
        <path style="fill:#b2742b;fill-opacity:1;stroke:none" d="m 298.48542,415.65587 c 0,0 -0.13843,4.72778 -0.65314,7.02126 -0.55801,2.48643 -2.75886,4.64048 -2.61257,7.18455 0.0838,1.45806 1.03225,2.79044 1.95943,3.91885 1.35468,1.64868 5.87827,3.42899 5.87827,3.42899 0,0 -5.16412,0.77276 -7.02127,-0.16329 -1.58242,-0.79758 -2.94987,-2.26732 -3.59228,-3.91884 -0.71034,-1.82613 -0.51972,-2.84603 0,-4.73527 0.70563,-2.56503 2.89008,-6.11254 4.08214,-8.49084 0.76543,-1.52713 1.95942,-4.24541 1.95942,-4.24541 z" id="path5754" inkscape:connector-curvature="0" sodipodi:nodetypes="cssscssssc"/>
        <path inkscape:connector-curvature="0" id="path3563" d="m 361.53125,220.71875 c -1.08908,2.68061 -0.11903,5.28541 1.625,7.75 0.37494,0.52985 0.77618,1.06654 1.21875,1.59375 l 0.84375,-0.59375 c -0.45813,-0.5383 -0.87259,-1.06042 -1.25,-1.59375 -1.65524,-2.33911 -2.48593,-4.58859 -2.4375,-7.15625 z M 337.625,228.875 c 0,0 0.0528,1.93888 0.96875,4.09375 0.91596,2.15487 2.19944,4.69789 3.84375,6.3125 4.01011,3.93766 7.56426,4.28736 12.53125,6.15625 0.45542,0.17136 0.92364,0.36053 1.40625,0.5625 l 0.3125,-0.96875 c -0.4678,-0.19394 -0.93321,-0.36502 -1.375,-0.53125 -5.07275,-1.90868 -8.36531,-2.18436 -12.1875,-5.9375 -1.45033,-1.42413 -2.73244,-3.86893 -3.625,-5.96875 -0.89256,-2.09982 -1.875,-3.71875 -1.875,-3.71875 z M 388.03125,282 c 0,0 0.33969,2.72934 0.46875,4.75 0.1041,1.63002 0.0609,3.53945 -0.28125,5.09375 -0.31255,1.41992 -1.32964,2.50406 -1.75,4.21875 -0.14154,0.5773 -0.19622,1.30849 -0.21875,1.9375 l 1,0.0312 c 0.0215,-0.59939 0.0829,-1.32336 0.1875,-1.75 0.34768,-1.41825 1.36911,-2.48837 1.75,-4.21875 0.37439,-1.70084 0.42084,-3.67874 0.3125,-5.375 C 389.35742,284.45519 388.03125,282 388.03125,282 Z m 3.6875,7.75 c -0.11755,3.99438 -0.92847,5.15164 -1.625,7.71875 -0.18537,0.68323 -0.27915,1.5951 -0.375,2.53125 -0.0958,0.93615 -0.2057,1.89205 -0.34375,2.5625 -0.0695,0.33777 -0.24115,0.94756 -0.375,1.125 l 0.8125,0.59375 c 0.38739,-0.51354 0.49061,-1.15087 0.5625,-1.5 0.15724,-0.76363 0.24842,-1.75646 0.34375,-2.6875 0.0953,-0.93104 0.19718,-1.8348 0.34375,-2.375 0.66413,-2.44769 1.5541,-3.90912 0.65625,-7.96875 z m 2.125,1.78125 c 0,0 -0.4171,1.99729 -0.5,2.875 -0.12299,1.30297 -0.59044,2.64643 -0.78125,4.09375 -0.12259,0.92956 -0.1875,2.65625 -0.1875,2.65625 l 1,0.0625 c 0,0 0.0799,-1.77751 0.1875,-2.59375 0.17265,-1.30964 0.39292,-2.90945 0.53125,-4.375 0.10053,-1.06487 -0.25,-2.71875 -0.25,-2.71875 z m -74.0625,15.09375 c -0.10725,0.0125 -0.17505,0.043 -0.1875,0.0937 -0.0337,0.13731 0.26671,0.46482 1.125,1.0625 2.3317,1.62472 4.23588,3.51875 5.75,5.65625 1.51412,2.13749 2.63817,4.51846 3.46875,7.125 l 0.46875,-0.15625 0.5,-0.125 c -0.85745,-2.69088 -2.04691,-5.19653 -3.625,-7.4375 -1.5781,-2.24097 -3.63624,-4.58815 -5.78125,-5.71875 -0.70702,-0.37266 -1.397,-0.53734 -1.71875,-0.5 z m -21.21875,108 c 0,0 -0.50017,3.65738 -1.1875,5.5625 -0.60336,1.67237 -1.50558,3.00266 -2.3125,4.40625 -0.80692,1.40359 -1.54072,2.87975 -1.75,4.8125 -0.1936,1.78786 0.21955,3.48566 1.0625,4.8125 0.84298,1.32684 3.38795,2.56941 5.4375,2.3125 -1.68869,-0.71423 -3.90933,-1.76649 -4.59375,-2.84375 -0.68442,-1.07726 -1.08238,-2.5297 -0.90625,-4.15625 0.18858,-1.74149 0.83995,-3.07195 1.625,-4.4375 0.78505,-1.36555 1.72414,-2.75848 2.375,-4.5625 0.77141,-2.13818 0.25,-5.90625 0.25,-5.90625 z m 5.40625,14.21875 c 0,0 -0.4969,0.93994 0.0937,2.0625 0.59078,1.12256 1.63809,2.44641 3.90625,3.34375 5.00351,1.97973 11.21247,0.57449 16.1875,1.21875 1.86594,0.24164 3.63941,0.68374 5.6875,1.4375 -1.163,-1.64717 -3.82988,-2.18508 -5.5625,-2.40625 -5.24697,-0.66979 -11.38902,0.62455 -15.96875,-1.1875 -2.06729,-0.81788 -2.88591,-1.94567 -3.375,-2.875 -0.48909,-0.92933 -0.96875,-1.59375 -0.96875,-1.59375 z" style="color:#000000;font-style:normal;font-variant:normal;font-weight:normal;font-stretch:normal;font-size:medium;line-height:normal;font-family:Sans;-inkscape-font-specification:Sans;text-indent:0;text-align:start;text-decoration:none;text-decoration-line:none;letter-spacing:normal;word-spacing:normal;text-transform:none;direction:ltr;block-progression:tb;writing-mode:lr-tb;baseline-shift:baseline;text-anchor:start;display:inline;overflow:visible;visibility:visible;fill:#6b3814;fill-opacity:1;stroke:none;stroke-width:1px;marker:none;enable-background:accumulate"/>
        <path style="fill:#e9d6be;fill-opacity:1;stroke:none" d="m 341.40012,115.36055 c 0,0 0.92347,0.28479 1.20826,0 0.47465,-0.47465 0,-2.01377 0,-2.01377 0,0 -4.93303,-6.0197 -6.63344,-9.84767 -1.31467,-2.95959 -2.16589,-7.310577 -2.54297,-10.527 -0.67095,-5.723191 -2.3455,-10.645377 -2.3455,-10.645377 0.6578,7.717949 0.60397,13.752747 2.36384,19.993897 1.37721,4.88412 3.72972,9.35286 7.94981,13.03992 z" id="path5759" inkscape:connector-curvature="0" sodipodi:nodetypes="cscsscsc"/>
        <path style="fill:#d4a061;fill-opacity:1;stroke:none" d="m 393.844,126.51188 c -1.74042,-0.46601 -2.96851,-1.37117 -5.86631,-0.84514 l -11.68875,-6.27865 c -2.36427,-1.57424 -4.53452,-3.17619 -4.43045,-5.10304 -0.2334,-0.65786 1.07449,-2.0638 3.41276,-0.49422 l 14.24759,7.88705 c 3.18556,1.72032 3.97702,3.29102 4.32516,4.834 z" id="path5761" inkscape:connector-curvature="0" sodipodi:nodetypes="ccccccc"/>
        <path style="fill:#cc8b3e;fill-opacity:1;stroke:none" d="m 373.52601,124.17749 c 2.28088,2.80291 -1.14117,7.6736 -3.75343,10.17056 -3.46003,3.30732 -8.24087,4.21713 -12.95535,3.39019 -3.91194,-0.68617 -7.37948,-2.34406 -9.08087,-5.93284 -1.74699,-3.68495 -1.98385,-8.71271 -0.72646,-12.59212 0.75242,-2.32143 2.51077,-4.35021 4.60096,-4.47988 2.9003,-0.17994 -2.53907,5.08884 -0.48431,7.1436 1.36984,1.36984 3.93208,-0.46881 5.81175,0 2.08469,0.51995 3.60599,2.50701 5.69068,3.02696 1.95799,0.48835 4.04152,0.15009 6.0539,0 1.62792,-0.12141 3.81277,-1.99265 4.84313,-0.72647 z" id="path5766" inkscape:connector-curvature="0" sodipodi:nodetypes="sssssssssss"/>
        <path style="color:#000000;font-style:normal;font-variant:normal;font-weight:normal;font-stretch:normal;font-size:medium;line-height:normal;font-family:Sans;-inkscape-font-specification:Sans;text-indent:0;text-align:start;text-decoration:none;text-decoration-line:none;letter-spacing:normal;word-spacing:normal;text-transform:none;direction:ltr;block-progression:tb;writing-mode:lr-tb;baseline-shift:baseline;text-anchor:start;display:inline;overflow:visible;visibility:visible;fill:#a4621b;fill-opacity:1;stroke:none;stroke-width:1px;marker:none;enable-background:accumulate" d="m 365.4375,75.778006 c -2.03153,4.8765 -5.26157,9.487181 -6.43537,14.85337 -0.34228,1.5648 -0.69946,3.631414 -0.71744,5.595099 -0.018,1.963685 0.33734,4.243085 0.33734,4.243085 l 1.67656,0.10864 c 0,0 -0.49854,-2.148868 -0.48084,-4.086071 0.0177,-1.937203 0.21133,-3.870591 0.51603,-5.263597 1.11702,-5.106641 4.06283,-9.998393 6.00997,-15.075526 1.21234,-3.161173 1.48519,-6.33545 1.48519,-6.33545 0,0 -1.75647,4.436221 -2.39144,5.9604 z" id="path5792" inkscape:connector-curvature="0" sodipodi:nodetypes="cscccssscsc"/>
      </g>
      <path sodipodi:nodetypes="csssssccsscc" inkscape:connector-curvature="0" id="path15843" d="m 3662.4059,65.30339 c 0,0 2.0542,-1.18561 3.0888,-1.76506 1.2004,-0.672273 2.4244,-1.302224 3.6184,-1.98568 0.8472,-0.484953 1.7317,-0.91799 2.5152,-1.50029 0.9275,-0.68932 1.5952,-1.701461 2.5593,-2.3387 0.917,-0.606134 2.0036,-0.905024 3.0006,-1.36791 0.8116,-0.376815 2.427,-1.14728 2.427,-1.14728 l 4.2361,1.36791 c 0,0 -7.4949,2.735596 -10.9875,4.63326 -2.14,1.162778 -4.0327,2.732137 -6.0453,4.10375 -2.2385,1.525604 -6.7072,4.58913 -6.7072,4.58913 z" style="fill:#f6f1e7;fill-opacity:1;fill-rule:evenodd;stroke:none;stroke-width:1px;stroke-linecap:butt;stroke-linejoin:miter;stroke-opacity:1"/>
      <path sodipodi:nodetypes="ccccccccccccccccc" inkscape:connector-curvature="0" id="path15853" d="m 3662.6486,68.21572 1.6547,-1.27966 2.7138,-1.78712 2.2063,-1.58854 2.1181,-1.47823 2.6696,-1.5003 1.9857,-0.97078 3.5301,-1.36791 1.8974,-0.81634 1.3238,-0.19857 0.4413,0.8384 -3.2212,2.18977 -6.6631,2.95095 -5.5599,3.50804 -4.9201,3.5301 -1.6327,0.61777 z" style="fill:#e9d6be;fill-opacity:1;fill-rule:evenodd;stroke:none;stroke-width:1px;stroke-linecap:butt;stroke-linejoin:miter;stroke-opacity:1"/>
    </g>
  </g>
</svg>