<?xml version="1.0" encoding="UTF-8" standalone="no"?>
<!-- Created with Inkscape (http://www.inkscape.org/) -->
<svg xmlns:inkscape="http://www.inkscape.org/namespaces/inkscape" xmlns:rdf="http://www.w3.org/1999/02/22-rdf-syntax-ns#" xmlns="http://www.w3.org/2000/svg" xmlns:sodipodi="http://sodipodi.sourceforge.net/DTD/sodipodi-0.dtd" xmlns:cc="http://web.resource.org/cc/" xmlns:xlink="http://www.w3.org/1999/xlink" xmlns:dc="http://purl.org/dc/elements/1.1/" xmlns:svg="http://www.w3.org/2000/svg" xmlns:ns1="http://sozi.baierouge.fr" id="svg2" sodipodi:docname="lamatin_chameleon.svg" sodipodi:modified="true" viewBox="0 0 685.02 711.65" sodipodi:version="0.32" version="1.0" inkscape:output_extension="org.inkscape.output.svg.inkscape" inkscape:version="0.44+devel" sodipodi:docbase="C:\Documents and Settings\Molumen\Desktop">
  <defs id="defs5">
    <linearGradient id="linearGradient4027" inkscape:collect="always">
      <stop id="stop4029" style="stop-color:#5e5b18" offset="0"/>
      <stop id="stop4031" style="stop-color:#5e5b18;stop-opacity:0" offset="1"/>
    </linearGradient>
    <linearGradient id="linearGradient3939" inkscape:collect="always">
      <stop id="stop3941" style="stop-color:#dcc2c2" offset="0"/>
      <stop id="stop3943" style="stop-color:#dcc2c2;stop-opacity:0" offset="1"/>
    </linearGradient>
    <linearGradient id="linearGradient4472" y2="297.21" xlink:href="#linearGradient3939" gradientUnits="userSpaceOnUse" x2="391.05" y1="297.21" x1="349.83" inkscape:collect="always"/>
    <linearGradient id="linearGradient6564" y2="456.22" gradientUnits="userSpaceOnUse" x2="824.22" gradientTransform="matrix(.67842 0 0 .83588 -28.973 7.8005)" y1="456.22" x1="500.15" inkscape:collect="always">
      <stop id="stop4657" style="stop-color:#5f6d53" offset="0"/>
      <stop id="stop4659" style="stop-color:#5f6d53;stop-opacity:0" offset="1"/>
    </linearGradient>
    <linearGradient id="linearGradient6566" y2="293.53" gradientUnits="userSpaceOnUse" x2="677.75" gradientTransform="matrix(.81371 .28954 -.18823 .80306 -54.919 -151.11)" y1="293.53" x1="561.95" inkscape:collect="always">
      <stop id="stop4583" style="stop-color:#f1fad2" offset="0"/>
      <stop id="stop4585" style="stop-color:#f1fad2;stop-opacity:0" offset="1"/>
    </linearGradient>
    <linearGradient id="linearGradient6568" y2="155.48" xlink:href="#linearGradient4027" gradientUnits="userSpaceOnUse" x2="354.39" gradientTransform="matrix(.67842 0 0 .83588 131.61 122.58)" y1="155.62" x1="37.924" inkscape:collect="always"/>
    <linearGradient id="linearGradient6570" y2="97.08" gradientUnits="userSpaceOnUse" x2="148.66" y1="86.544" x1="141.68" inkscape:collect="always">
      <stop id="stop3897" style="stop-color:black" offset="0"/>
      <stop id="stop3899" style="stop-color:black;stop-opacity:0" offset="1"/>
    </linearGradient>
    <linearGradient id="linearGradient6586" y2="130.97" xlink:href="#linearGradient4027" gradientUnits="userSpaceOnUse" x2="164.22" gradientTransform="matrix(.70056 0 0 .90317 127.97 117.59)" y1="130.97" x1="44.04" inkscape:collect="always"/>
    <linearGradient id="linearGradient6588" y2="67.691" gradientUnits="userSpaceOnUse" x2="405.43" gradientTransform="matrix(.67842 0 0 .83588 131.61 122.58)" y1="57.883" x1="223.59" inkscape:collect="always">
      <stop id="stop4186" style="stop-color:#2d551d" offset="0"/>
      <stop id="stop4188" style="stop-color:#8bd66c;stop-opacity:0" offset="1"/>
    </linearGradient>
    <linearGradient id="linearGradient6590" y2="334.97" gradientUnits="userSpaceOnUse" x2="-12.742" gradientTransform="matrix(.67842 0 0 .83588 131.61 122.58)" y1="368.97" x1="404.65" inkscape:collect="always">
      <stop id="stop4340" style="stop-color:#2d341f" offset="0"/>
      <stop id="stop4342" style="stop-color:#2d341f;stop-opacity:0" offset="1"/>
    </linearGradient>
    <linearGradient id="linearGradient6592" y2="443.03" gradientUnits="userSpaceOnUse" x2="735.39" gradientTransform="matrix(.80281 0 0 .68945 -106.26 55.183)" y1="443.03" x1="635.55" inkscape:collect="always">
      <stop id="stop4591" style="stop-color:#959b7f" offset="0"/>
      <stop id="stop4593" style="stop-color:#959b7f;stop-opacity:0" offset="1"/>
    </linearGradient>
    <radialGradient id="radialGradient6594" gradientUnits="userSpaceOnUse" cy="503.06" cx="614.62" gradientTransform="matrix(1 0 0 1.1449 0 -72.899)" r="122.4" inkscape:collect="always">
      <stop id="stop6264" style="stop-color:#eaf5e3" offset="0"/>
      <stop id="stop6266" style="stop-color:#eaf5e3;stop-opacity:0" offset="1"/>
    </radialGradient>
    <linearGradient id="linearGradient6596" y2="403.36" gradientUnits="userSpaceOnUse" x2="532.93" y1="403.36" x1="376.44" inkscape:collect="always">
      <stop id="stop6317" style="stop-color:#487234" offset="0"/>
      <stop id="stop6319" style="stop-color:#487234;stop-opacity:0" offset="1"/>
    </linearGradient>
    <radialGradient id="radialGradient6598" gradientUnits="userSpaceOnUse" cy="499.34" cx="310.86" gradientTransform="matrix(1 0 0 2.2463 0 -622.35)" r="59.985" inkscape:collect="always">
      <stop id="stop6327" style="stop-color:#537b41" offset="0"/>
      <stop id="stop6329" style="stop-color:#537b41;stop-opacity:0" offset="1"/>
    </radialGradient>
    <radialGradient id="radialGradient6600" gradientUnits="userSpaceOnUse" cy="521.68" cx="376.36" gradientTransform="matrix(1 0 0 2.2491 0 -651.6)" r="27.9" inkscape:collect="always">
      <stop id="stop6341" style="stop-color:#5f844e" offset="0"/>
      <stop id="stop6343" style="stop-color:#5f844e;stop-opacity:0" offset="1"/>
    </radialGradient>
    <radialGradient id="radialGradient6602" gradientUnits="userSpaceOnUse" cy="482.42" cx="592.13" gradientTransform="matrix(1 0 0 .72476 0 132.78)" r="73.183" inkscape:collect="always">
      <stop id="stop6351" style="stop-color:#4f6943" offset="0"/>
      <stop id="stop6353" style="stop-color:#4f6943;stop-opacity:0" offset="1"/>
    </radialGradient>
    <radialGradient id="radialGradient6604" gradientUnits="userSpaceOnUse" cy="606.28" cx="171.19" gradientTransform="matrix(1 0 0 .88467 0 69.923)" r="131.83" inkscape:collect="always">
      <stop id="stop6365" style="stop-color:#161616" offset="0"/>
      <stop id="stop6367" style="stop-color:#161616;stop-opacity:0" offset="1"/>
    </radialGradient>
  </defs>
  <sodipodi:namedview id="base" bordercolor="#666666" inkscape:pageshadow="2" inkscape:window-y="203" pagecolor="#ffffff" inkscape:zoom="0.54071596" inkscape:window-x="154" borderopacity="1.0" inkscape:current-layer="layer2" inkscape:cx="498.22057" inkscape:cy="411.05094" inkscape:guide-bbox="true" inkscape:window-height="839" inkscape:pageopacity="0.0" inkscape:window-width="1207" showguides="true"/>
  <g id="layer2" inkscape:label="HLAVA" inkscape:groupmode="layer" transform="translate(-191.18 -15.172)">
    <g id="g6375" inkscape:export-ydpi="90" inkscape:export-xdpi="90" inkscape:export-filename="/home/lamatin/Projekt_Kliparty/hotove/martinL/chameleon.png" transform="matrix(.89844 0 0 1.0987 185.79 -96.217)">
      <path id="path6373" style="fill-rule:evenodd;fill:#100606" d="m212.48 632.08c8.34 3.24 21.9 12.15 32.07 18.92 7.77 5.17 9.49 4.57 11.55 10.95 1.52 4.73 4.64 10.45 6.41 15.93 1.48 4.58 4.52 6.03 7.7 10.96 2.6 4.04 8.38 6.5 11.54 8.96 4.25 3.3 7.03 5.45 10.27 7.96 4.16 3.23 4.85 5.76 8.98 8.96 5.26 4.09 3.85 5.81 3.85 7.97 0 0.99-16.85-1.77-17.96-1.99-7.39-1.44-15.99-2.85-21.81-3.98-6.75-1.31-12.78 1.23-16.68 1.99-5.41 1.05-11.07 1.99-17.96 1.99-5.08 0-11.31-1-17.96-1-5.08 0-11.31-0.99-17.96-0.99-4.98 0-12.12-1-17.97-1h-19.24c-6.42 0-12.39-1.08-17.96 0-6.42 1.25-7.88-4.55-8.98-7.96-1.51-4.68 1.28-8.75 1.28-13.94v-14.94c0-4.93-4.18-9.31-7.7-12.94-4.01-4.15-6.28-5.58-7.69-9.96-1.5-4.66-6.14-9.08-7.7-13.94-1.81-5.63-3.08-11.75-6.42-16.93-2.893-4.49-7.105-8.04-8.976-10.95-2.375-3.69-4.151-6.44-6.415-9.96-2.922-4.53-5.507-9.35-8.98-12.94-3.345-3.46-7.195-7.58-10.264-9.96-4.913-3.81-7.934-5.16-11.546-7.96-4.036-3.14-5.037-5.9-8.981-8.96-2.215-1.72-4.366-8.58-5.131-10.96-1.546-4.8 0.901-7.77 2.565-12.94 1.433-4.45 3.718-7.56 5.132-11.95 1.488-4.62 1.139-9.51 2.566-13.94 1.491-4.63 0-11.1 0-15.93 0-5.11 1.86-8.41 5.132-10.95 1.41-1.1 21.142 16.41 23.093 17.92 4.62 3.59 8.693 13.05 10.263 17.92 1.67 5.19 9.006 7.99 11.542 9.96 4.04 3.13 11.91 5.94 15.4 7.96 2.08 1.22 5.23 8.12 6.41 9.96 0.98 1.52 1.73 2.01 2.57 2.99"/>
      <path id="path5768" style="fill-rule:evenodd;stroke:#000000;stroke-width:3.115;fill:#18110b" d="m387.35 461.68c53.51 1.61 108.03-22.23 140.81-65.01 23.27-21.31 61.76-5.42 83.43-29.39 7.91-14.38 17.77-27.51 27.79-40.53 9.91-12.28 11.22-29.09 4.86-43.3-4.82-16-16.06-31.56-12.79-48.86 8.5-10.22 18.29 14.61 21.61 23.2 6.49 12.83 0.14 29.96 10.38 40.42 8.39 5.29 34.43 20.07 11.5 22.34-19.57-3.09-30.77 17.07-37.64 32.08-9.61 18.32-15.05 41.05-34.7 51.6-15.02 10.38-33.45 5.34-49.19 1.95-34.35 4.18-53.43 36.57-80.21 54.43-24.39 17.07-55.85 12.89-83.94 15.46-18.48 3.77-49.86-2.28-58.41 15.81-8.08 12.53-29.85 12.41-39.38 1.89 1.78-17.33 26.91-12.69 38.82-20.69 18.14-5.92 37.56-16.56 57.06-11.4z"/>
      <path id="path5139" sodipodi:nodetypes="ccccccccccc" style="fill-rule:evenodd;stroke:#000000;stroke-width:.59267px;fill:#b1b2b4" d="m354.64 223.49c-0.17-1.61-0.28-3.27-0.49-4.86-0.49-1.27-0.97-2.54-1.46-3.81 0.19-2.44 0.43-4.88 0.6-7.31 0.14-1.97 0.93-2.96 0.8-5.03 0.63-1.81-0.23-4.61 0.69-6.61 0.78 1.93 2.23 3.05 2.27 6.27 0.36 6.02 1.55 6.11 2.68 8.78 0.45 2.87 0.89 5.75 1.34 8.62-0.74 1.07-1.41 2.81-2.34 2.88-1.36 0.36-2.72 0.72-4.09 1.07z"/>
      <path id="path5141" sodipodi:nodetypes="ccccccccccc" style="fill-rule:evenodd;stroke:#000000;stroke-width:.59267px;fill:#b1b2b4" d="m380.77 202.67c0.49-1.91 1.02-3.78 1.49-5.72 0.23-2.06 0.47-4.11 0.7-6.17 0.94-2.18 1.9-4.3 2.84-6.51 0.75-1.78 1.45-1.55 2.12-3.87 0.91-0.84 1.52-5.04 2.63-5.63-0.33 3.17-0.09 6.58-1.21 9.93-1.96 6.7-1.46 8.65-1.9 13.14-0.82 3.62-1.64 7.24-2.45 10.86-0.7-0.05-1.61 0.66-2.05-0.72-0.72-1.77-1.45-3.54-2.17-5.31z"/>
      <path id="path5143" sodipodi:nodetypes="ccccccccccc" style="fill-rule:evenodd;stroke:#000000;stroke-width:.59267px;fill:#b1b2b4" d="m374.6 210.17c0.25-1.73 0.46-3.47 0.74-5.2 0.56-1.55 1.12-3.1 1.68-4.66-0.07-2.36-0.19-4.71-0.23-7.08-0.04-1.92-0.8-2.49-0.56-4.67-0.55-1.48 0.47-4.79-0.37-6.31-0.88 2.36-2.41 4.29-2.61 7.58-0.68 6.3-1.89 7.03-3.17 10.34-0.6 3.16-1.19 6.31-1.79 9.46 0.69 0.7 1.28 2.09 2.22 1.66 1.37-0.37 2.73-0.75 4.09-1.12z"/>
      <path id="path5145" sodipodi:nodetypes="ccccsczcccccc" style="fill-rule:evenodd;stroke:#000000;stroke-width:.61984px;fill:#b1b2b4" d="m375.49 207.66l0.82-5.36 1.23-6.87 0.81-5.36s0.61-0.96 0.99-3.12c0.67-3.85 1.87-4.56 1.87-4.56s0.94 2.19 1.24 5.14c0.3 2.96-0.04 6.69-0.04 6.69l0.46 5.45-0.67 6.4-0.4 3.84-2.04 1.15-4.27-3.4z"/>
      <path id="path5147" sodipodi:nodetypes="cccczcccccccc" style="fill-rule:evenodd;stroke:#000000;stroke-width:.59267px;fill:#b1b2b4" d="m365.33 213.59l-0.67-4.63-1.03-5.84-0.67-4.63s-0.85-2.76-1.03-5.84c-0.19-2.97-1.33 1.37-1.33 1.37l-1.03 4.79-0.66 6-0.58 5.45 0.5 5.71 0.3 3.43 1.96-0.09 4.24-5.72z"/>
      <path id="path5149" sodipodi:nodetypes="cccczcccccccc" style="fill-rule:evenodd;stroke:#000000;stroke-width:.59267px;fill:#b1b2b4" d="m365.44 213.37l-0.46-4.79-0.41-6.31-0.46-4.8s0.1-3.48-0.42-6.31c-0.5-2.73 1.4-0.74 1.4-0.74l1.9 2.52 1.87 4.05 1.67 3.73 0.83 5.45 0.51 3.27-1.66 2.69-4.77 1.24z"/>
      <path id="path5151" sodipodi:nodetypes="ccccccccccc" style="fill-rule:evenodd;stroke:#000000;stroke-width:.59267px;fill:#b1b2b4" d="m386.01 204.39c0.2-1.74 0.44-3.48 0.6-5.22-0.15-1.64-0.29-3.28-0.44-4.92 0.67-2.27 1.37-4.52 2.02-6.8 0.53-1.85 1.41-2.22 1.72-4.39 0.91-1.3 0.77-4.75 1.96-6.02 0.26 2.51 1.25 4.75 0.61 7.99-0.94 6.26 0.04 7.27 0.45 10.8-0.23 3.2-0.45 6.4-0.67 9.6-0.85 0.5-1.77 1.7-2.57 1.05-1.23-0.7-2.45-1.39-3.68-2.09z"/>
      <path id="path5153" sodipodi:nodetypes="ccccccccccc" style="fill-rule:evenodd;stroke:#000000;stroke-width:.55853px;fill:#b1b2b4" d="m413.84 212.83c0.29-2.02 0.62-3.99 0.89-6.04 0.07-2.21 0.13-4.41 0.2-6.61 0.65-2.26 1.32-4.46 1.95-6.76 0.52-1.85 1.11-1.53 1.52-3.98 0.71-0.82 0.96-5.3 1.84-5.83-0.08 3.4 0.32 7.1-0.4 10.62-1.21 7.05-0.68 9.2-0.77 14.01-0.46 3.84-0.92 7.67-1.37 11.51-0.58-0.13-1.29 0.56-1.74-0.98-0.7-1.98-1.41-3.96-2.12-5.94z"/>
      <path id="path5155" sodipodi:nodetypes="ccccccccccc" style="fill-rule:evenodd;stroke:#000000;stroke-width:.59267px;fill:#b1b2b4" d="m405.63 206.59c0.57-1.52 1.11-3.1 1.71-4.59 0.79-1.11 1.59-2.22 2.38-3.33 0.43-2.41 0.82-4.83 1.28-7.22 0.36-1.94-0.16-3.1 0.5-5.07-0.16-1.91 1.39-4.4 1-6.57-1.24 1.67-2.92 2.41-3.79 5.51-1.87 5.74-3.05 5.53-4.82 7.83-1.16 2.68-2.32 5.35-3.47 8.03 0.43 1.22 0.64 3.06 1.53 3.36 1.23 0.68 2.45 1.37 3.68 2.05z"/>
      <path id="path5157" sodipodi:nodetypes="ccccsczcccccc" style="fill-rule:evenodd;stroke:#000000;stroke-width:.61984px;fill:#b1b2b4" d="m406.91 204.79l1.8-4.7 2.46-5.88 1.8-4.7s0.72-0.48 1.49-2.34c1.36-3.3 2.53-3.07 2.53-3.07s0.34 2.9-0.03 6.07c-0.36 3.17-1.42 6.61-1.42 6.61l-0.75 5.77-1.89 5.85-1.14 3.51-1.96-0.44-2.89-6.68z"/>
      <path id="path5159" sodipodi:nodetypes="cccczcccccccc" style="fill-rule:evenodd;stroke:#000000;stroke-width:.59267px;fill:#b1b2b4" d="m397.09 202.82l0.4-5.12 0.34-6.61 0.4-5.12s-0.14-3.39 0.34-6.6c0.47-3.1-1.4 0.33-1.4 0.33l-1.87 3.96-1.8 5.45-1.62 4.98-0.77 6.06-0.46 3.64 1.68 1.43 4.76-2.4z"/>
      <path id="path5161" sodipodi:nodetypes="cccczcccccccc" style="fill-rule:evenodd;stroke:#000000;stroke-width:.59267px;fill:#b1b2b4" d="m397.24 202.69l0.6-5.12 0.96-6.6 0.61-5.12s0.81-3.39 0.96-6.6c0.15-3.1 1.34 0.35 1.34 0.35l1.08 3.98 0.73 5.47 0.64 4.99-0.43 6.07-0.25 3.64-1.96 1.4-4.28-2.46z"/>
      <path id="path5163" style="fill-rule:evenodd;stroke:#000000;stroke-width:.59267px;fill:#b1b2b4" d="m421.83 204.72c0.62-1.46 1.27-2.88 1.87-4.38 0.33-1.72 0.66-3.44 0.99-5.15 1.13-1.5 2.27-2.93 3.38-4.47 0.9-1.23 1.67-0.7 2.49-2.46 1.05-0.32 1.87-3.76 3.13-3.77-0.49 2.65-0.34 5.79-1.7 8.24-2.41 5.04-1.93 6.99-2.58 10.77-1.04 2.84-2.07 5.67-3.11 8.51-0.78-0.37-1.81-0.15-2.24-1.59-0.74-1.9-1.49-3.8-2.23-5.7z" sodipodi:nodetypes="ccccccccccc" inkscape:transform-center-y="8.7846492" inkscape:transform-center-x="-11.413069"/>
      <path id="path5165" sodipodi:nodetypes="cccczcccccccc" style="fill-rule:evenodd;stroke:#000000;stroke-width:.59267px;fill:#b1b2b4" d="m418.89 201.34l0.85-5.08 1.26-6.51 0.85-5.08s0.96-3.28 1.26-6.51c0.3-3.11 1.29 0.6 1.29 0.6l0.87 4.24 0.44 5.67 0.38 5.18-0.72 6.06-0.43 3.64-1.98 1.07-4.07-3.28z"/>
      <path id="path5167" sodipodi:nodetypes="cccczcccccccc" style="fill-rule:evenodd;stroke:#000000;stroke-width:.59267px;fill:#b1b2b4" d="m431.88 211.66l1.67-4.51 2.02-6 1.67-4.52s0.79-3.39 2.02-5.99c1.18-2.51-1.17-1.08-1.17-1.08l-2.49 1.96-2.83 3.44-2.57 3.17-2.2 5.05-1.32 3.04 0.91 3.03 4.29 2.41z"/>
      <path id="path5169" sodipodi:nodetypes="cccczcccccccc" style="fill-rule:evenodd;stroke:#000000;stroke-width:.59267px;fill:#b1b2b4" d="m436.69 206.04l2.45-2.84 3.23-3.38 2.44-2.84s1.8-1.24 3.23-3.38c1.39-2.07 0.44 2.38 0.44 2.38l-1.23 4.68-2.01 5.22-1.85 4.72-2.77 3.83-1.66 2.3-1.45-2.06-0.82-8.63z"/>
      <path id="path5171" sodipodi:nodetypes="cccczcccccccc" style="fill-rule:evenodd;stroke:#000000;stroke-width:.59267px;fill:#b1b2b4" d="m436.49 214.6l1.67-4.51 2.02-6 1.67-4.52s0.8-3.39 2.02-5.99c1.18-2.51-1.16-1.08-1.16-1.08l-2.49 1.96-2.84 3.44-2.57 3.17-2.2 5.05-1.32 3.03 0.91 3.03 4.29 2.42z"/>
      <path id="path5189" sodipodi:nodetypes="ccccccccccc" style="fill-rule:evenodd;stroke:#000000;stroke-width:.55853px;fill:#b1b2b4" d="m438.27 227.28c1.41-1.48 2.81-2.89 4.22-4.4 1.33-1.76 2.67-3.52 4-5.27 1.84-1.47 3.65-2.87 5.5-4.38 1.5-1.21 1.8-0.6 3.55-2.36 1.05-0.26 3.85-3.77 4.88-3.69-2.04 2.72-3.86 5.98-6.48 8.43-5.08 5.04-5.9 7.1-8.76 10.96-2.59 2.86-5.19 5.73-7.78 8.59-0.4-0.44-1.38-0.29-0.85-1.81 0.58-2.02 1.15-4.05 1.72-6.07z"/>
      <path id="path5191" sodipodi:nodetypes="ccccccccccc" style="fill-rule:evenodd;stroke:#000000;stroke-width:.59267px;fill:#b1b2b4" d="m435.19 217.44c1.35-0.91 2.7-1.88 4.05-2.75 1.3-0.44 2.59-0.89 3.88-1.33 1.74-1.71 3.47-3.46 5.22-5.15 1.42-1.36 1.67-2.61 3.35-3.84 0.98-1.64 3.68-2.78 4.62-4.77-1.98 0.65-3.77 0.27-6.28 2.3-4.85 3.59-5.69 2.74-8.47 3.58-2.49 1.51-4.98 3.02-7.48 4.53-0.35 1.24-1.25 2.87-0.7 3.63 0.6 1.26 1.21 2.53 1.81 3.8z"/>
      <path id="path5193" sodipodi:nodetypes="ccccsczcccccc" style="fill-rule:evenodd;stroke:#000000;stroke-width:.61984px;fill:#b1b2b4" d="m437.27 216.71l4.19-2.78 5.43-3.37 4.19-2.78s0.86 0.02 2.56-1.04c3.02-1.9 3.85-1.04 3.85-1.04s-1.41 2.56-3.54 4.93c-2.14 2.38-5 4.56-5 4.56l-3.95 4.27-4.94 3.67-2.95 2.2-1.35-1.5 1.51-7.12z"/>
      <path id="path5199" style="fill-rule:evenodd;stroke:#000000;stroke-width:.59267px;fill:#b1b2b4" d="m449.48 225.31c1.35-0.84 2.7-1.61 4.06-2.49 1.26-1.21 2.53-2.42 3.79-3.62 1.79-0.57 3.55-1.08 5.35-1.68 1.44-0.48 1.76 0.39 3.45-0.56 1.04 0.34 3.71-1.99 4.74-1.27-1.94 1.89-3.64 4.52-6.17 5.74-4.88 2.71-5.63 4.57-8.34 7.28-2.49 1.71-4.98 3.42-7.46 5.13-0.42-0.76-1.39-1.18-0.91-2.59 0.49-1.98 0.99-3.96 1.49-5.94z" inkscape:transform-center-x="-11.413069" inkscape:transform-center-y="8.7846492" sodipodi:nodetypes="ccccccccccc"/>
      <path id="path5201" sodipodi:nodetypes="cccczcccccccc" style="fill-rule:evenodd;stroke:#000000;stroke-width:.59267px;fill:#b1b2b4" d="m449.04 220.85l3.64-3.65 4.8-4.57 3.63-3.65s2.69-2.12 4.81-4.57c2.04-2.36 0.7 1.23 0.7 1.23l-1.75 3.96-2.93 4.88-2.69 4.44-4.1 4.52-2.46 2.72-2.23-0.28-1.42-5.03z"/>
      <path id="path5203" sodipodi:nodetypes="cccczcccccccc" style="fill-rule:evenodd;stroke:#000000;stroke-width:.59267px;fill:#b1b2b4" d="m453.64 236.79l3.98-2.71 5.12-3.72 3.98-2.71s2.62-2.31 5.12-3.72c2.42-1.36-0.33-1.55-0.33-1.55l-3.16 0.15-4.3 1.16-3.93 1.1-4.73 2.84-2.83 1.71-1.02 2.99 2.1 4.46z"/>
      <path id="path5205" sodipodi:nodetypes="cccczcccccccc" style="fill-rule:evenodd;stroke:#000000;stroke-width:.59267px;fill:#b1b2b4" d="m460.82 235l3.64-0.9 4.59-0.88 3.64-0.9s2.18 0.04 4.59-0.88c2.33-0.88-1.02 2.19-1.02 2.19l-3.71 3.1-4.67 3.09-4.24 2.78-4.48 1.51-2.69 0.91 0.02-2.52 4.33-7.5z"/>
      <path id="path5207" sodipodi:nodetypes="cccczcccccccc" style="fill-rule:evenodd;stroke:#000000;stroke-width:.59267px;fill:#b1b2b4" d="m455.7 241.86l3.98-2.71 5.12-3.72 3.97-2.71s2.62-2.31 5.13-3.72c2.41-1.36-0.33-1.55-0.33-1.55l-3.16 0.15-4.3 1.16-3.93 1.1-4.73 2.84-2.83 1.7-1.02 3 2.1 4.46z"/>
      <path id="path5238" sodipodi:nodetypes="ccccccccccc" style="fill-rule:evenodd;stroke:#000000;stroke-width:.59267px;fill:#b1b2b4" d="m465.59 300.13c1.68-0.22 3.36-0.5 5.03-0.68 1.54 0.14 3.07 0.28 4.61 0.42 2.25-0.73 4.48-1.5 6.75-2.21 1.82-0.57 2.31-1.5 4.41-1.85 1.37-0.98 4.62-0.86 6-2.14-2.35-0.24-4.32-1.26-7.49-0.56-6.08 1.06-6.89 0.03-10.18-0.36-3.07 0.26-6.14 0.53-9.2 0.8-0.6 0.89-1.88 1.88-1.38 2.72 0.48 1.29 0.97 2.57 1.45 3.86z"/>
      <path id="path5240" sodipodi:nodetypes="ccccccccccc" style="fill-rule:evenodd;stroke:#000000;stroke-width:.59267px;fill:#b1b2b4" d="m470.39 267.97c1.56-0.88 3.05-1.77 4.65-2.63 1.86-0.68 3.72-1.36 5.59-2.04 1.54-1.33 3.01-2.66 4.59-3.99 1.28-1.08 0.62-1.64 2.48-2.77 0.26-1 3.98-2.5 3.87-3.61-2.88 1.02-6.35 1.59-8.93 3.34-5.32 3.27-7.52 3.28-11.62 4.7-3.03 1.55-6.05 3.1-9.08 4.65 0.48 0.61 0.34 1.57 1.95 1.64 2.17 0.24 4.33 0.47 6.5 0.71z"/>
      <path id="path5242" sodipodi:nodetypes="ccccccccccc" style="fill-rule:evenodd;stroke:#000000;stroke-width:.59267px;fill:#b1b2b4" d="m466.37 279.44c1.53-0.62 3.1-1.2 4.61-1.85l3.51-2.55c2.34-0.47 4.69-0.91 7.04-1.41 1.88-0.4 2.91 0.13 4.88-0.58 1.78 0.15 4.38-1.51 6.37-1.12-1.76 1.32-2.71 3.11-5.78 4.05-5.72 2.04-5.69 3.27-8.14 5.17-2.7 1.25-5.41 2.49-8.11 3.74-1.1-0.45-2.82-0.65-2.97-1.58l-1.41-3.87z"/>
      <path id="path5244" sodipodi:nodetypes="ccccsczcccccc" style="fill-rule:evenodd;stroke:#000000;stroke-width:.61984px;fill:#b1b2b4" d="m468.27 278.08l4.72-1.95 5.94-2.66 4.72-1.95s0.56-0.76 2.43-1.58c3.34-1.48 3.3-2.71 3.3-2.71s-2.71-0.33-5.77 0.09c-3.06 0.41-6.48 1.57-6.48 1.57l-5.59 0.84-5.82 2.06-3.5 1.23 0.14 2.07 5.91 2.99z"/>
      <path id="path5246" sodipodi:nodetypes="cccczcccccccc" style="fill-rule:evenodd;stroke:#000000;stroke-width:.59267px;fill:#b1b2b4" d="m468.7 288.42l4.92-0.47 6.31-0.43 4.92-0.47s3.2 0.11 6.31-0.42c3.01-0.52-0.51 1.48-0.51 1.48l-4.04 2.01-5.43 1.96-4.97 1.76-5.86 0.87-3.52 0.52-1.1-1.76 2.97-5.05z"/>
      <path id="path5248" sodipodi:nodetypes="cccczcccccccc" style="fill-rule:evenodd;stroke:#000000;stroke-width:.59267px;fill:#b1b2b4" d="m468.85 288.27l4.94-0.7 6.4-1.07 4.95-0.7s3.33-0.88 6.4-1.07c2.96-0.19-0.13-1.41-0.13-1.41l-3.63-1.11-5.08-0.71-4.64-0.63-5.82 0.51-3.49 0.31-1.61 2.08 1.71 4.5z"/>
      <path id="path5250" sodipodi:nodetypes="ccccccccccc" style="fill-rule:evenodd;stroke:#000000;stroke-width:.59267px;fill:#b1b2b4" d="m469.85 271.99c1.58-0.57 3.12-1.18 4.72-1.72 1.68-0.25 3.37-0.5 5.06-0.74 1.8-1.11 3.55-2.25 5.38-3.35 1.48-0.89 1.3-1.75 3.22-2.52 0.71-1.11 4.15-1.77 4.66-3.12-2.6 0.35-5.38 0-8.14 1.3-5.52 2.27-7.11 1.63-10.78 2.08l-8.94 2.79c0.03 0.86-0.58 1.95 0.54 2.51 1.43 0.93 2.86 1.85 4.28 2.77z"/>
      <path id="path5252" sodipodi:nodetypes="ccccccccccc" style="fill-rule:evenodd;stroke:#000000;stroke-width:.55853px;fill:#b1b2b4" d="m455.75 254.51c1.79-0.72 3.5-1.46 5.33-2.17 2.11-0.56 4.21-1.13 6.31-1.69 1.81-1.09 3.54-2.19 5.39-3.28 1.49-0.87 0.81-1.33 2.94-2.25 0.37-0.81 4.58-2.06 4.56-2.96-3.26 0.85-7.11 1.34-10.1 2.78-6.12 2.69-8.53 2.72-13.16 3.9-3.45 1.28-6.91 2.57-10.36 3.85 0.47 0.48 0.24 1.27 2.01 1.31l7.08 0.51z"/>
      <path id="path5254" sodipodi:nodetypes="ccccccccccc" style="fill-rule:evenodd;stroke:#000000;stroke-width:.59267px;fill:#b1b2b4" d="m450.9 251.21c1.14-0.86 2.34-1.69 3.43-2.57 0.59-0.95 1.19-1.91 1.78-2.87 2.08-0.93 4.2-1.83 6.26-2.78 1.66-0.76 3.11-0.57 4.62-1.6 1.95-0.3 3.44-2.24 5.78-2.39-0.87 1.48-0.55 3.13-3.05 4.61-4.44 2.97-3.52 3.96-4.68 6.05-1.89 1.64-3.79 3.27-5.68 4.91-1.46-0.11-3.38 0.13-4.21-0.58-1.42-0.93-2.83-1.86-4.25-2.78z"/>
      <path id="path5256" sodipodi:nodetypes="ccccsczcccccc" style="fill-rule:evenodd;stroke:#000000;stroke-width:.61984px;fill:#b1b2b4" d="m469.59 262.57l3.47-2.67 4.23-3.53 3.47-2.66s0.03-0.75 1.37-1.85c2.38-1.96 1.45-2.94 1.45-2.94s-3.04 0.36-5.9 1.41c-2.87 1.05-5.56 2.78-5.56 2.78l-5.17 1.98-4.53 3.01-2.73 1.81 1.64 1.63 8.26 1.03z"/>
      <path id="path5258" sodipodi:nodetypes="cccczcccccccc" style="fill-rule:evenodd;stroke:#000000;stroke-width:.59267px;fill:#b1b2b4" d="m457.94 253.83l4.74-1.53 6.22-1.81 4.74-1.53s3.39-0.66 6.22-1.81c2.73-1.12 0.54 1.31 0.54 1.31l-2.73 2.56-4.2 2.84-3.86 2.57-5.43 2.07-3.26 1.24-2.41-1.16-0.57-4.75z"/>
      <path id="path5260" sodipodi:nodetypes="cccczcccccccc" style="fill-rule:evenodd;stroke:#000000;stroke-width:.59267px;fill:#b1b2b4" d="m453.77 250.99l3.32-3.63 4.12-4.76 3.31-3.64s1.82-2.6 4.12-4.76c2.21-2.09-1.53-0.46-1.53-0.46l-4.06 2.04-4.85 3.18-4.41 2.92-4.21 4.15-2.52 2.49 0.79 1.9 5.92 0.57z"/>
      <path id="path5262" style="fill-rule:evenodd;stroke:#000000;stroke-width:.59267px;fill:#b1b2b4" d="m451.93 245.09c0.41-1.31 0.74-2.59 1.2-3.92l2.61-4.11c-0.08-1.54-0.21-3.04-0.25-4.6-0.03-1.26-1.16-1.2-0.75-2.8-0.82-0.67 0.77-3.48-0.47-4.01-1.37 2.11-3.69 4.29-4.06 6.62-1.12 4.62-2.95 5.82-4.94 8.8-0.95 2.47-1.89 4.93-2.84 7.4 1.02 0.05 1.89 0.64 3.32-0.21 2.06-1.05 4.12-2.11 6.18-3.17z" inkscape:transform-center-x="-12.842181" inkscape:transform-center-y="2.319923" sodipodi:nodetypes="ccccccccccc"/>
      <path id="path5264" sodipodi:nodetypes="cccczcccccccc" style="fill-rule:evenodd;stroke:#000000;stroke-width:.59267px;fill:#b1b2b4" d="m451.67 247.72l2.89-3.85 3.55-5.03 2.89-3.85s1.48-2.68 3.55-5.02c1.99-2.26-1.69-0.2-1.69-0.2l-3.93 2.49-4.59 3.66-4.15 3.35-3.75 4.46-2.25 2.68 1.14 1.65 6.34-0.34z"/>
      <path id="path5266" sodipodi:nodetypes="cccczcccccccc" d="m463.06 298.76l3.75 1.9 4.88 2.72 3.75 1.9s2.59 1.87 4.88 2.72c2.22 0.82 0.09 1.92 0.09 1.92l-2.54 0.84-3.67 0.02-3.36-0.03-4.37-1.82-2.63-1.09-1.46-3.18 0.68-5.9z" inkscape:transform-center-x="4.3736806" inkscape:transform-center-y="18.07788" style="fill-rule:evenodd;stroke:#000000;stroke-width:.59267px;fill:#b1b2b4"/>
      <path id="path5270" sodipodi:nodetypes="cccczcccccccc" style="fill-rule:evenodd;stroke:#000000;stroke-width:.59267px;fill:#b1b2b4" d="m466.25 294.18l3.85 1.7 5.01 2.46 3.85 1.7s2.68 1.72 5.02 2.45c2.25 0.7 0.18 1.92 0.18 1.92l-2.49 0.96-3.66 0.22-3.36 0.15-4.46-1.58-2.68-0.95-1.63-3.1 0.37-5.93z"/>
      <path id="path4604" sodipodi:nodetypes="cccccccccccccccccccccccccccc" style="fill-rule:evenodd;stroke:#000000;stroke-width:3.2049;fill:#18110b" d="m233.69 533.79c11.44-6.22 22.96-12.28 31.99-23.31 13.02-13.79 29.44-22.62 39.3-40.63 9.08-14.21 19.21-69.88 23.72-87.15 11.68-13.3 18.49 11.24 28.3-4.19 5.43-2.32 16.49 0.86 16.48-9.02-2.58-31.64 0.49-63.69 7.35-94.13 9.73-14.52 20.91-28.89 36.26-33.37 6.28-4.47 11.74-7.93 12.52 4.09 18.95-6.39 35.12-31.39 54.42-35.23 24.53 3.9 7.58-45.01 32.15-46.81 10.79 0.23 9.2 21.08 17.76 28.5 6.37 15.92 7.87 25.94-11.64 14.14-30.19-6.97-6.89 30.98-37.41 29.34-16.61-1.15-29.12 32.79-44.93 38.22 0.99 13.88 6.75 28.03-12.36 17.3-9.01-2.57-20.16-3.96-27.29 6.65 0.08 14.94-13.29 41.01 0.25 50.96 7.2 6.42 1.57 11.89 5.83 21.7-17.46 19.21-34.02 19.82-56.53 29.46-27.24 26.1-22.62 82.67-48.37 110.7-3.88-34.61-32.85 26.79-51.94 32.56-19.31 4.95-40.51 12.95-48.58 37.8-4.86 12.93-5.24 14.92-14.84 24.16-4.34 6.45-23.04 6-28.04 14.35-17.94-9.03 15.98-32.4 25.18-40.35 17-14.65 24.73-42.97 48.68-43.88-0.61 0.26 4.31-1.61 1.74-1.86z"/>
      <path id="path4687" sodipodi:nodetypes="ccccscccsc" style="fill-rule:evenodd;stroke:#000000;stroke-width:.75304px;fill:#060d02" d="m379.97 516.2c6.93 28.93-21.02 32.58-29.5 50.82-4.14 39.11 39.6-45.7 29.27 2.57-4.47 43.27 31.43-22.81 16.09-39.06-4.35-14.62-5.79-21.84-4.13-27.24 1.67-5.4 5.49-9.37 13.54-16.71-5.02-10.52-8.36-20.17-11.67-27.27-3.23 2.41-10.81 10.93-13.32 15.01s-3.96 10.43-4.09 17.82 1.06 15.82 3.81 24.06z"/>
      <path id="path4488" sodipodi:nodetypes="ccccccccccccc" style="fill-rule:evenodd;stroke:#000000;stroke-width:.75304px;fill:#3c5627" d="m344.53 220.96c24.82-31.78 71.09-44.62 99.23-12.17 16.48 13.44 26.13 35.21 33.73 57.08 5.95 21.22 19.6 35.51 32.3 49.99 11.54 24.51 1.01 55.51 13.06 80.04 8.37 29.62 26.76 56.25 24.31 89.37 2.12 44.7 19.32 86.13 45.95 115.82 11.09 16.21-108.59 21.85-123.27-29.51-15.05-20.61-23.97-34.72-43.24-53.41-33.66-32.68-41.33-87.25-55.38-134.04-14.69-23.38-46.32-16.83-57.91-44.31-8.84-25.9 3.66-52.26 16.26-72.41 7.8-13.71 15.28-29.11 14.96-46.45z"/>
      <path id="path5494" sodipodi:nodetypes="cccccccccccccccccc" style="stroke:#100606;fill:#3c5627" d="m492.22 596.07c26.65-6.33 56.11-4.85 80.23-19.39 6.63 1.92 13.97 21.06 20.53 25.21 12.17 12.58 28.72 9.06 44.26 4.62 18.93-5.45 35.24-17.94 46.15-34.23 27.49-35.09 31.83-78.41 15.05-128.4-10.69-29.75-45.74-67.55-78.86-64.4-13.18-0.7-43.64 16.32-36.64 44.34-0.11 13.35 26.22 20.44 38.06 10.96 19.78-14.71 25.02-16.96 15.7-2.96-9.22 8.97-23.2 25.13-37.05 18.09-11.56-4-30.54-2.86-33.09-18.31-2.82-24.24 9.13-49.67 31.05-61.18 27.48-15.95 61.85-4.33 84.41 14.91 11.52 10.46 22.42 22.36 31.51 34.91 25.74 37.29 30.53 88.57 13.35 130.85-18.75 49.26-65.59 88.75-119.19 91.8-43.1 3.1-84.86-17.73-115.47-46.82z"/>
      <path id="path4653" sodipodi:nodetypes="ccccccccccccccc" style="fill-rule:evenodd;fill:url(#linearGradient6564)" d="m336.31 243.71c18.85-17.03 61.97-56.71 83.35-39.31 24.05 22.5 36.7 33.08 35.37 54.63 4.52 11.38-2.85 27.78 6.79 35.54 8.77 13.14 0.77 29.75 9.92 42.9 6.36 15.88 20.33 30.15 18.47 47.9 1.6 23.95 16.12 46.25 36.34 62.16 8.43 8.69 37.72 190.4-10.44 158.94-14.06 4.49-14.06-15.28-21.38-47.53-15.17-20.36-47.88-28.26-52.07-45.28-47.74-43.19-32.05-96.28-44.9-116.13-25.58-17.51-30.51-41.29-41.18-66.37-11.16-12.53-35.19-9.02-43.98-23.75-6.72-13.88 2.77-28.01 12.34-38.81 5.93-7.34 11.61-15.6 11.37-24.89z"/>
      <path id="path4546" style="fill-rule:evenodd;fill:url(#linearGradient6566)" d="m348.65 251.91c2.89 4.06 5.78 8.12 8.67 12.18 5.68 0.97 10.89-1.07 15.94-2.66 5.59-0.44 11.34 1.06 16.96 2.01 4.95 1.82 10.12 2.84 15.01 4.79 4.6 3.31 7.75 8.25 11.95 12.05 5.47 5.63 11.01 11.19 16.59 16.71 1.82-3.86 7.97-6.64 5.02-12.06-0.93-3.3-3.98-10.59-7.54-6.24-2.22 4.73-7.87 2.82-10.66-1.21-5.84-6.83-10.93-14.26-16.64-21.2-2.78-3.49-5.56-6.98-8.32-10.48-4.53-2.07-6.11 3.52-8.62 5.74-3.19 3.31-7.77 6.27-12.91 4.58-5.75-1.15-11.72-2.09-17.15-4.76-4.16-3.59-4.51-9.36-7.48-13.68-1.67 4.15-0.15 9.17-0.81 13.64l-0.01 0.59z"/>
      <path id="path2001" sodipodi:nodetypes="cssssssc" style="fill-rule:evenodd;stroke:#000000;stroke-width:.75304px;fill:#5e5b18" d="m209.97 178.46c0.67 1.44 0.89 2.64 1.8 2.88 1.58 0.43-1.4 2.98-1.8 3.01-0.34 0.03-2.12 1.42-2.31 1.73-0.89 1.47-1.81-0.34-1.97-1.02-0.3-1.27-0.38-1.91-0.45-3.29-0.06-1.08 1.55-1.36 2.11-1.56 0.6-0.21 1.82-1.22 2.62-1.75z"/>
      <path id="path2007" sodipodi:nodetypes="csssssc" style="fill-rule:evenodd;stroke:#000000;stroke-width:.75304px;fill:#5e5b18" d="m196.78 191.18c0.73-0.89 1.6 4.36 0.94 4.72-0.51 0.29-1.59 2.19-1.93 2.4-1.32 0.81-0.83-0.19-2.02-0.55-0.57-0.18-0.69-2.35-0.69-3.43 0-0.19 1.96-1.56 2.08-1.71 0.47-0.58 1.11-0.92 1.62-1.43z"/>
      <path id="path2009" sodipodi:nodetypes="csssssc" style="fill-rule:evenodd;stroke:#000000;stroke-width:.75304px;fill:#5e5b18" d="m192.62 195.18c0.78-0.97-1.51 0.85-2.32 1.78-1.07 1.23-2.06 2.17-1.79 3.5 0.21 1.04 1.43 0.65 2.02 1.28 1.34 1.43 1.72 1.2 2.64-0.05 1.28-1.71 1.11-1.7 2.04-2.81 0.27-0.33-1.29-1.02-1.67-1.29"/>
      <path id="path2011" sodipodi:nodetypes="csssssc" style="fill-rule:evenodd;stroke:#000000;stroke-width:.75304px;fill:#5e5b18" d="m187.98 200.6c0.27-1.33-1.35 2.2-1.85 3.42-0.62 1.53 0.38 1.89 0.93 2.57 0.83 1.02 1.04 1.85 1.5 0.74 0.37-0.93 2.17-2.7 2.67-3.31 0.95-1.17 0.89-1.03-0.47-1.99-0.9-0.65-1.49-0.8-2.78-1.43z"/>
      <path id="path2013" sodipodi:nodetypes="csssssc" style="fill-rule:evenodd;stroke:#000000;stroke-width:.75304px;fill:#5e5b18" d="m186 205.24c-0.98-0.61 1.16 0.67 0.63 2.49-0.24 0.81-1.25 2.39-1.39 2.57-0.71 0.87-0.85 1.77-1.44 2.5-0.52 0.64-1.57-0.82-1.57-2.22 0-1.75 0.66-2.13 0.92-3.42 0.04-0.16 2.45-2.52 2.85-1.92z"/>
      <path id="path2015" sodipodi:nodetypes="cssssc" style="fill-rule:evenodd;stroke:#000000;stroke-width:.75304px;fill:#5e5b18" d="m183.63 212.87c-0.48 1.84-1.11 2.49-1.87 3.42-0.98 1.21-0.34 1.54-1.62 1.14-0.55-0.17-0.65-1.61-0.46-2.57 0.16-0.78 1.22-2.28 1.39-2.85 0.49-1.62 1.59-0.34 2.56 0.86z"/>
      <path id="path2017" sodipodi:nodetypes="cssssc" style="fill-rule:evenodd;stroke:#000000;stroke-width:.75304px;fill:#5e5b18" d="m180.61 218.29c0.71-0.88-0.45 2.55-1.16 3.42-0.88 1.09 0.32 2.53-1.39 2-1.32-0.41-1.23-0.64-0.93-2.14 0.22-1.09 0.8-2.1 1.16-3 0.86-2.12 0.6-1.55 2.32-0.28z"/>
      <path id="path2019" style="fill-rule:evenodd;stroke:#000000;stroke-width:.75304px;fill:#5e5b18" d="m177.83 224.56c0.42-1.02-0.5 2.33-1.16 3.14-0.85 1.05-0.86 1.8-1.85 0.57-1.17-1.44-0.49-1.76 0.69-2.85 0.68-0.62 0.88-1.94 1.39-2.57 0.4-0.48 0.68 1.1 0.93 1.71z"/>
      <path id="path2021" style="fill-rule:evenodd;stroke:#000000;stroke-width:.75304px;fill:#5e5b18" d="m176.21 229.78c0.8-0.98-0.92 2.6-0.92 3.99 0 2.08-1.65 0.22-1.86-0.29-0.49-1.22-1.61-0.35-1.16-2.56 0.25-1.2 1.23-1.59 1.63-2.57 0.38-0.95 1.77 0.59 2.31 1.43z"/>
      <path id="path2077" sodipodi:nodetypes="csssssc" style="fill-rule:evenodd;stroke:#000000;stroke-width:.75304px;fill:#5e5b18" d="m171.34 238.18c-1.03-0.44 1.23 0.49 0.88 2.38-0.15 0.83-0.98 2.56-1.11 2.76-0.61 0.98-0.65 1.89-1.17 2.71-0.45 0.71-1.64-0.57-1.78-1.95-0.19-1.74 0.43-2.22 0.56-3.54 0.02-0.17 2.16-2.89 2.62-2.36z"/>
      <path id="path2079" sodipodi:nodetypes="cssssc" style="fill-rule:evenodd;stroke:#000000;stroke-width:.75304px;fill:#5e5b18" d="m169.78 246.12c-0.28 1.91-0.84 2.65-1.49 3.69-0.85 1.36-0.18 1.58-1.49 1.39-0.57-0.08-0.82-1.5-0.73-2.47 0.08-0.8 0.97-2.46 1.09-3.05 0.32-1.69 1.54-0.59 2.62 0.44z"/>
      <path id="path2081" sodipodi:nodetypes="cssssc" style="fill-rule:evenodd;stroke:#000000;stroke-width:.75304px;fill:#5e5b18" d="m167.35 251.98c0.61-0.98-0.18 2.59-0.8 3.57-0.76 1.22 0.58 2.46-1.17 2.2-1.35-0.19-1.29-0.44-1.14-1.97 0.11-1.11 0.57-2.21 0.84-3.16 0.63-2.23 0.43-1.63 2.27-0.64z"/>
      <path id="path2083" style="fill-rule:evenodd;stroke:#000000;stroke-width:.75304px;fill:#5e5b18" d="m165.24 258.64c0.31-1.09-0.25 2.38-0.82 3.29-0.73 1.17-0.67 1.92-1.78 0.86-1.31-1.25-0.66-1.67 0.39-2.94 0.61-0.72 0.68-2.06 1.11-2.76 0.34-0.55 0.79 0.98 1.1 1.55z"/>
      <path id="path2085" style="fill-rule:evenodd;stroke:#000000;stroke-width:.75304px;fill:#5e5b18" d="m164.18 264.06c0.68-1.1-0.65 2.73-0.51 4.11 0.22 2.06-1.61 0.48-1.87 0.01-0.61-1.14-1.63-0.1-1.41-2.37 0.12-1.23 1.05-1.77 1.34-2.8 0.29-1 1.83 0.31 2.45 1.05z"/>
      <path id="path2023" style="fill-rule:evenodd;stroke:#000000;stroke-width:.75304px;fill:#5e5b18" d="m175.38 235.77c0.49-1.21-1.31 2.18-2.09 3.14-0.94 1.16-1.19-0.22-2.31-0.57-1.55-0.48-0.46-1.46-0.24-2.57 0.15-0.69 1.4-1.72 1.86-2.28 0.9-1.11 1.29 0.16 1.85 0.85 0.35 0.44 0.62 0.96 0.93 1.43z"/>
      <path id="path2005" sodipodi:nodetypes="cssssssc" style="fill-rule:evenodd;stroke:#000000;stroke-width:.75304px;fill:#5e5b18" d="m200.5 185.77c0.92-0.57 0.69 2.44 0.69 3.71 0 1.58-0.15 1.51-0.69 2.85-0.14 0.34-2.07 2.44-2.4 2.64-0.83 0.51-0.18-0.08-0.82-2.25-0.57-1.94-0.43-2.61 0.34-3.36 0.44-0.42 1.59-1.44 1.95-1.88 0.55-0.67 0.18-0.17 0.93-1.71z"/>
      <path id="path2003" sodipodi:nodetypes="cssssssc" style="fill-rule:evenodd;stroke:#000000;stroke-width:.75304px;fill:#5e5b18" d="m204.67 181.49c0.83-0.51 0.49 2.33 1.15 3.14 0.84 1.03 0.31 2.19-0.23 2.85-0.75 0.93-1.08 1.43-2.08 2-1.1 0.62-0.75 1.14-2 1.68-0.31 0.14-0.31-4.06-0.38-4.46-0.21-1.38 1.07-1.49 1.39-2.57 0.46-1.5 0.53-1.28 2.15-2.64z"/>
      <path id="path4194" sodipodi:nodetypes="cccczcccccccc" style="fill-rule:evenodd;stroke:#000000;stroke-width:.75304px;fill:#b1b2b4" d="m186.7 323.66l-3.81 2.14-5.04 2.44-3.81 2.14s-2.82 0.7-5.04 2.44c-2.14 1.68-0.74-2.57-0.74-2.57l1.83-4.41 3.07-4.71 2.82-4.25 4.3-3.05 2.58-1.82 2.34 2.56 1.5 9.09z"/>
      <path id="path4196" sodipodi:nodetypes="ccccsczcccccc" style="fill-rule:evenodd;stroke:#000000;stroke-width:.78756px;fill:#b1b2b4" d="m186.38 320.99l-2.56 4.42-3.53 5.49-2.55 4.42s-1.11 0.34-2.21 2.08c-1.95 3.08-3.83 2.61-3.83 2.61s-0.74-3.04-0.37-6.2c0.36-3.16 1.82-6.45 1.82-6.45l0.8-5.73 2.62-5.58 1.57-3.34 3.17 0.86 5.07 7.42z"/>
      <path id="path4198" sodipodi:nodetypes="ccccccccccc" style="fill-rule:evenodd;stroke:#000000;stroke-width:.75304px;fill:#b1b2b4" d="m188.92 324.41c-0.53 1.62-1.15 3.2-1.63 4.85l-0.03 5.28c-1.32 1.82-2.7 3.6-3.99 5.46-1.05 1.5-2.42 1.27-3.2 3.24-1.55 0.68-1.82 4.26-3.79 4.72-0.04-2.71-1.2-5.65 0.2-8.48 2.3-5.67 0.96-7.37 0.85-11.21 0.78-3.08 1.57-6.15 2.35-9.23 1.34 0.08 2.9-0.5 4.01 0.71 1.75 1.55 3.49 3.1 5.23 4.66z"/>
      <path id="path4219" sodipodi:nodetypes="ccccccccccc" style="fill-rule:evenodd;stroke:#000000;stroke-width:.75304px;fill:#b1b2b4" d="m189.6 323.89c-0.61 1.58-1.14 3.21-1.8 4.76-1.04 1.2-2.09 2.4-3.13 3.6-0.2 2.44-0.33 4.89-0.57 7.32-0.18 1.97 0.88 3.06 0.23 5.09 0.65 1.88-1.32 4.54-0.25 6.64 1.64-1.81 4.19-2.74 4.93-5.93 1.83-5.92 3.75-5.85 6.12-8.35 1.31-2.79 2.62-5.58 3.93-8.38-0.95-1.16-1.67-2.97-3.15-3.16-2.1-0.53-4.2-1.06-6.31-1.59z"/>
      <path id="path4221" sodipodi:nodetypes="ccccccccccc" style="fill-rule:evenodd;stroke:#000000;stroke-width:.75304px;fill:#b1b2b4" d="m227.09 347.91c0.39 1.96 0.85 3.88 1.2 5.86-0.06 2.08-0.11 4.15-0.17 6.22 1.06 2.28 2.16 4.5 3.19 6.81 0.83 1.87 2 1.73 2.59 4.12 1.29 0.95 1.39 5.19 3.04 5.92 0.13-3.19 1.22-6.54 0.14-10.01-1.75-6.89-0.55-8.76-0.32-13.27-0.55-3.69-1.11-7.39-1.66-11.09-1.13-0.03-2.44-0.86-3.42 0.46-1.53 1.66-3.06 3.32-4.59 4.98z"/>
      <path id="path4223" sodipodi:nodetypes="ccccccccccc" style="fill-rule:evenodd;stroke:#000000;stroke-width:.75304px;fill:#b1b2b4" d="m218.77 339.68c0.05 1.75 0.01 3.5 0.11 5.25 0.58 1.61 1.15 3.22 1.72 4.83-0.61 2.34-1.28 4.65-1.85 7-0.47 1.89-1.8 2.37-1.86 4.56-1.19 1.4-0.25 4.81-1.91 6.21-0.92-2.46-2.96-4.56-2.61-7.86 0.23-6.33-1.55-7.21-2.91-10.66-0.3-3.21-0.6-6.41-0.9-9.61 1.25-0.6 2.49-1.91 3.91-1.36 2.1 0.55 4.2 1.09 6.3 1.64z"/>
      <path id="path4225" sodipodi:nodetypes="ccccsczcccccc" style="fill-rule:evenodd;stroke:#000000;stroke-width:.78756px;fill:#b1b2b4" d="m219.68 342.28l0.19 5.42 0.54 6.98 0.18 5.42s0.78 1.03 0.93 3.22c0.28 3.9 2.06 4.76 2.06 4.76s1.96-2.05 3.05-4.94c1.1-2.9 1.32-6.64 1.32-6.64l1.87-5.34 0.27-6.44 0.16-3.86-3.03-1.4-7.54 2.82z"/>
      <path id="path4227" sodipodi:nodetypes="cccczcccccccc" style="fill-rule:evenodd;stroke:#000000;stroke-width:.75304px;fill:#b1b2b4" d="m204.64 335.09l-2.03 4.51-2.87 5.65-2.03 4.51s-1.93 2.63-2.87 5.66c-0.91 2.92-1.84-1.53-1.84-1.53l-0.65-4.88 0.19-6.03 0.21-5.49 1.99-5.6 1.19-3.36 3.12 0.35 5.59 6.21z"/>
      <path id="path4229" sodipodi:nodetypes="cccczcccccccc" style="fill-rule:evenodd;stroke:#000000;stroke-width:.75304px;fill:#b1b2b4" d="m204.78 335.32l-1.73 4.7-1.98 6.2-1.74 4.7s-0.56 3.47-1.98 6.2c-1.36 2.65 2.09 0.92 2.09 0.92l3.57-2.26 3.83-3.78 3.45-3.47 2.47-5.3 1.49-3.18-2.09-2.88-7.38-1.85z"/>
      <path id="path4231" sodipodi:nodetypes="ccccccccccc" style="fill-rule:evenodd;stroke:#000000;stroke-width:.75304px;fill:#b1b2b4" d="m235.85 346.88c-0.06 1.75-0.03 3.51-0.14 5.25-0.57 1.61-1.15 3.22-1.73 4.83 0.6 2.34 1.26 4.65 1.83 7 0.45 1.9 1.79 2.38 1.84 4.57 1.19 1.41 0.24 4.81 1.88 6.23 0.94-2.46 2.98-4.55 2.64-7.85-0.21-6.33 1.58-7.2 2.96-10.64 0.31-3.21 0.62-6.41 0.93-9.61-1.25-0.61-2.48-1.92-3.9-1.38-2.11 0.54-4.21 1.07-6.31 1.6z"/>
      <path id="path4233" sodipodi:nodetypes="ccccccccccc" style="fill-rule:evenodd;stroke:#000000;stroke-width:.70967px;fill:#b1b2b4" d="m282.15 342.1c0.05 2.04 0.16 4.04 0.17 6.11-0.35 2.19-0.7 4.38-1.05 6.58 0.56 2.32 1.17 4.58 1.71 6.95 0.44 1.9 1.46 1.66 1.61 4.14 0.96 0.91 0.42 5.38 1.72 6.02 0.58-3.38 2-7 1.58-10.58-0.48-7.15 0.82-9.22 1.67-14l0.21-11.58c-0.96 0.05-1.95-0.72-2.98 0.75-1.55 1.87-3.09 3.74-4.64 5.61z"/>
      <path id="path4235" sodipodi:nodetypes="ccccccccccc" style="fill-rule:evenodd;stroke:#000000;stroke-width:.75304px;fill:#b1b2b4" d="m267.71 347.23c0.6 1.58 1.13 3.21 1.78 4.77 1.04 1.2 2.08 2.41 3.12 3.61 0.19 2.44 0.31 4.89 0.54 7.33 0.18 1.97-0.9 3.05-0.25 5.09-0.65 1.87 1.3 4.54 0.23 6.64-1.63-1.82-4.18-2.76-4.91-5.96-1.81-5.93-3.73-5.87-6.09-8.38-1.3-2.8-2.6-5.6-3.9-8.4 0.96-1.16 1.68-2.96 3.16-3.14 2.1-0.52 4.21-1.04 6.32-1.56z"/>
      <path id="path4237" sodipodi:nodetypes="ccccsczcccccc" style="fill-rule:evenodd;stroke:#000000;stroke-width:.78756px;fill:#b1b2b4" d="m269.37 349.18l1.91 4.89 2.72 6.15 1.91 4.89s1.04 0.57 1.89 2.51c1.49 3.45 3.41 3.38 3.41 3.38s1.15-2.84 1.23-6.03c0.07-3.19-0.91-6.74-0.91-6.74l0.01-5.82-1.82-6.04-1.09-3.63-3.23 0.19-6.03 6.25z"/>
      <path id="path4239" sodipodi:nodetypes="cccczcccccccc" style="fill-rule:evenodd;stroke:#000000;stroke-width:.75304px;fill:#b1b2b4" d="m253.25 349.87l-0.42 5.13-0.83 6.59-0.43 5.13s-0.93 3.35-0.83 6.59c0.1 3.13-2.18-0.5-2.18-0.5l-2.16-4.18-1.75-5.63-1.56-5.15 0.04-6.11 0.02-3.67 2.98-1.19 7.12 2.99z"/>
      <path id="path4241" sodipodi:nodetypes="cccczcccccccc" style="fill-rule:evenodd;stroke:#000000;stroke-width:.75304px;fill:#b1b2b4" d="m253.46 350.02l-0.1 5.15 0.17 6.67-0.09 5.16s0.58 3.46 0.16 6.66c-0.41 3.09 2.21-0.17 2.21-0.17l2.56-3.81 2.31-5.33 2.06-4.87 0.58-6.07 0.35-3.64-2.84-1.64-7.37 1.89z"/>
      <path id="path4243" style="fill-rule:evenodd;stroke:#000000;stroke-width:.75304px;fill:#b1b2b4" d="m293.26 351.17c0.68 1.53 1.43 3.02 2.07 4.59 0.17 1.74 0.35 3.49 0.52 5.24 1.49 1.62 3.02 3.19 4.48 4.86 1.18 1.34 2.53 0.91 3.48 2.76 1.61 0.45 2.21 3.97 4.21 4.15-0.22-2.7 0.67-5.79-0.99-8.4-2.82-5.31-1.65-7.18-1.9-11.01-1.07-2.95-2.13-5.89-3.2-8.84-1.32 0.27-2.93-0.08-3.92 1.28-1.59 1.79-3.17 3.58-4.75 5.37z" inkscape:transform-center-x="-11.413069" inkscape:transform-center-y="8.7846492" sodipodi:nodetypes="ccccccccccc"/>
      <path id="path4245" sodipodi:nodetypes="cccczcccccccc" style="fill-rule:evenodd;stroke:#000000;stroke-width:.75304px;fill:#b1b2b4" d="m287.85 354.15l0.3 5.14 0.67 6.62 0.29 5.14s0.85 3.39 0.67 6.62c-0.17 3.13 2.19-0.42 2.19-0.42l2.26-4.09 1.9-5.57 1.68-5.08 0.12-6.11 0.07-3.67-2.95-1.31-7.2 2.73z"/>
      <path id="path4247" sodipodi:nodetypes="cccczcccccccc" style="fill-rule:evenodd;stroke:#000000;stroke-width:.75304px;fill:#b1b2b4" d="m310.79 345.58l1.73 4.7 1.98 6.2 1.74 4.7s0.57 3.47 1.98 6.21c1.37 2.64-2.09 0.91-2.09 0.91l-3.57-2.26-3.82-3.78-3.46-3.47-2.47-5.3-1.48-3.18 2.08-2.88 7.38-1.85z"/>
      <path id="path4249" sodipodi:nodetypes="cccczcccccccc" style="fill-rule:evenodd;stroke:#000000;stroke-width:.75304px;fill:#b1b2b4" d="m317.32 351.78l3.32 3.13 4.47 3.77 3.33 3.13s2.61 1.46 4.46 3.77c1.79 2.23 1.2-2.3 1.2-2.3l-0.99-4.8-2.14-5.44-1.97-4.92-3.64-4.15-2.18-2.5-2.75 1.86-3.11 8.45z"/>
      <path id="path4251" sodipodi:nodetypes="cccczcccccccc" style="fill-rule:evenodd;stroke:#000000;stroke-width:.75304px;fill:#b1b2b4" d="m318.79 343.26l1.73 4.7 1.98 6.2 1.74 4.7s0.56 3.47 1.98 6.21c1.36 2.64-2.09 0.91-2.09 0.91l-3.57-2.26-3.83-3.77-3.45-3.48-2.47-5.3-1.49-3.17 2.09-2.89 7.38-1.85z"/>
      <path id="path1311" style="fill-rule:evenodd;stroke:#000000;stroke-width:.75304px;fill:#74d248" d="m153.34 299.89c5.68 13.37 14.42 24.91 25.83 30.89 14.52 9.19 30.51 14.14 46.46 17.81 8.65 2.43 17.47 3.49 26.31 4.42 11.54 1.99 23.1 3.77 34.72 4.62 13.45 1.02 26.56-4.25 40.03-2.91 8.95-0.33 18.17 0.3 26.58-4.29 5.06-4.24 19.02 0.83 16.99-10.27-6.82-8.07-15.64-15.18-25.55-13.14-6.02 1.15-13.92 2.67-18.9 0.72 6.73-4.98 15.22-8.32 18.69-17.81 3.18-7.44 5.77-18 3.27-25.64-5.79 8.21-11.78 18.26-21.67 18.28-8.1-1.93-15.91-5.88-23.95-8.27-7.36-5.28-16.03-2.83-24.11-2.73-12.6 1.89-25.31 0.28-37.91 1.65-9.04 0.51-18.22 0.41-27.27 1.87-14.8 1.89-29.77 0.24-44.45 3.68-4.93 0.98-10.44 0.04-15.07 1.12z"/>
      <path id="path2089" sodipodi:nodetypes="cssssc" style="fill-rule:evenodd;stroke:#000000;stroke-width:.75304px;fill:#5e5b18" d="m161.81 274.44c-0.57 1.8-1.24 2.39-2.05 3.26-1.04 1.13-0.42 1.5-1.67 1-0.55-0.22-0.57-1.67-0.33-2.6 0.2-0.77 1.34-2.18 1.55-2.73 0.58-1.57 1.6-0.21 2.5 1.07z"/>
      <path id="path2087" style="fill-rule:evenodd;stroke:#000000;stroke-width:.75304px;fill:#5e5b18" d="m163.97 270.14c0.36-1.28-1.07 2.37-1.74 3.44-0.81 1.29-1.21-0.04-2.36-0.2-1.58-0.23-0.6-1.38-0.49-2.51 0.06-0.71 1.2-1.93 1.6-2.56 0.78-1.24 1.29-0.04 1.92 0.56 0.39 0.37 0.71 0.85 1.07 1.27z"/>
      <path id="path2091" sodipodi:nodetypes="cssssc" style="fill-rule:evenodd;stroke:#000000;stroke-width:.75304px;fill:#5e5b18" d="m158.94 279.92c0.75-0.82-0.59 2.5-1.35 3.32-0.94 1.01 0.19 2.54-1.49 1.87-1.29-0.51-1.19-0.74-0.81-2.21 0.28-1.06 0.91-2.03 1.32-2.89 0.98-2.05 0.68-1.5 2.33-0.09z"/>
      <path id="path2093" style="fill-rule:evenodd;stroke:#000000;stroke-width:.75304px;fill:#5e5b18" d="m155.57 286.62c0.6-0.89-0.9 2.13-1.7 2.74-1.01 0.78-1.16 1.51-1.9 0.04-0.88-1.73-0.16-1.85 1.19-2.59 0.77-0.42 1.22-1.64 1.82-2.11 0.48-0.37 0.46 1.25 0.59 1.92z"/>
      <path id="path2095" style="fill-rule:evenodd;stroke:#000000;stroke-width:.75304px;fill:#5e5b18" d="m154.21 291.21c0.79-0.98-0.93 2.61-0.93 3.99 0 2.08-1.64 0.23-1.85-0.29-0.5-1.22-1.61-0.35-1.16-2.56 0.24-1.2 1.22-1.59 1.62-2.57 0.39-0.95 1.78 0.6 2.32 1.43z"/>
      <path id="path2099" style="fill-rule:evenodd;stroke:#000000;stroke-width:.75304px;fill:#5e5b18" d="m221.25 179.2c1.03-0.02-1.31 4.5-1.98 4.2-0.54-0.24-2.39 0.21-2.75 0.07-1.4-0.54-0.49-0.85-1.13-2.12-0.32-0.62 0.82-2.29 1.43-3.06 0.1-0.14 2.29 0.56 2.46 0.55 0.66-0.01 1.31 0.29 1.97 0.36z" inkscape:transform-center-x="7.5593126" inkscape:transform-center-y="-5.7089681" sodipodi:nodetypes="csssssc"/>
      <path id="path2103" style="fill-rule:evenodd;stroke:#000000;stroke-width:.75304px;fill:#5e5b18" d="m226.97 178.49c0.99 0.38-0.87 2.35-1.59 3.26-0.89 1.14-0.96 0.96-2.11 1.46-0.29 0.12-2.85-0.02-3.21-0.16-0.89-0.34-0.08-0.21 0.68-2.31 0.69-1.89 1.16-2.26 2.14-2.13 0.55 0.07 1.96 0.33 2.46 0.32 0.78-0.02 0.22 0.02 1.63-0.44z" inkscape:transform-center-x="0.12742445" inkscape:transform-center-y="-5.7263699" sodipodi:nodetypes="cssssssc"/>
      <path id="path2105" style="fill-rule:evenodd;stroke:#000000;stroke-width:.75304px;fill:#5e5b18" d="m232.38 178.97c0.89 0.35-0.95 2.1-0.93 3.25 0.02 1.46-1.01 1.84-1.78 1.86-1.05 0.02-1.58 0.1-2.62-0.35-1.14-0.49-1.19 0.18-2.39-0.5-0.3-0.17 2.07-3.19 2.25-3.53 0.62-1.18 1.6-0.16 2.45-0.66 1.17-0.69 1.1-0.48 3.02-0.07z" inkscape:transform-center-x="-7.4895789" inkscape:transform-center-y="-5.1603639" sodipodi:nodetypes="cssssssc"/>
      <path id="path2101" style="fill-rule:evenodd;stroke:#000000;stroke-width:.75304px;fill:#5e5b18" d="m216 178.51c1.11-0.03-1.57-0.68-2.67-0.7-1.46-0.03-2.71-0.2-3.26 0.98-0.44 0.93 0.66 1.7 0.73 2.66 0.16 2.16 0.56 2.32 1.93 2.22 1.89-0.14 1.76-0.27 3.05-0.28 0.38 0-0.35-1.83-0.48-2.36" inkscape:transform-center-x="15.380698" inkscape:transform-center-y="-5.8836669" sodipodi:nodetypes="csssssc"/>
      <path id="path2115" sodipodi:nodetypes="cssssssc" style="fill-rule:evenodd;stroke:#000000;stroke-width:.75304px;fill:#5e5b18" d="m259.24 172.3c0.67 1.44 0.89 2.63 1.8 2.88 1.58 0.43-1.4 2.98-1.8 3.01-0.34 0.03-2.12 1.42-2.31 1.73-0.89 1.46-1.81-0.34-1.97-1.02-0.3-1.27-0.38-1.91-0.45-3.29-0.06-1.08 1.55-1.36 2.11-1.56 0.6-0.22 1.82-1.22 2.62-1.75z"/>
      <path id="path2107" sodipodi:nodetypes="csssssc" style="fill-rule:evenodd;stroke:#000000;stroke-width:.75304px;fill:#5e5b18" d="m254.01 177.39c0.84-0.74 0.88 4.98 0.18 5.2-0.55 0.18-1.86 1.84-2.23 1.98-1.41 0.53-0.79-0.36-1.91-0.96-0.54-0.29-0.87-0.92-0.22-3.52 0.04-0.18 1.81-1.73 1.96-1.85 0.54-0.48 1.35-1.23 2.22-0.85z"/>
      <path id="path2109" sodipodi:nodetypes="csssssc" style="fill-rule:evenodd;stroke:#000000;stroke-width:.75304px;fill:#5e5b18" d="m249.58 180.2c1.11-0.04-0.94-0.52-2.04-0.53-1.46-0.01-2.51 0.16-3.88 0.89-0.81 0.43 0.68 1.69 0.76 2.65 0.17 2.17 0.58 2.32 1.95 2.2 1.88-0.17 1.75-0.3 3.04-0.33 0.39-0.01-0.37-1.82-0.5-2.35"/>
      <path id="path2097" style="fill-rule:evenodd;stroke:#000000;stroke-width:.75304px;fill:#5e5b18" d="m237.91 181.34c-0.33 1.6-0.85 2.65-0.33 3.61 0.9 1.66-2.69 0.94-2.99 0.62-0.26-0.27-2.32-0.79-2.64-0.73-1.46 0.29-1.11-1.79-0.84-2.42 0.5-1.17 0.8-1.7 1.53-2.76 0.57-0.83 1.88 0.36 2.4 0.69 0.55 0.36 2 0.68 2.87 0.99z" inkscape:transform-center-x="-15.979006" inkscape:transform-center-y="-3.5523649" sodipodi:nodetypes="cssssssc"/>
      <path id="path2111" sodipodi:nodetypes="csssssc" style="fill-rule:evenodd;stroke:#000000;stroke-width:.63757px;fill:#5e5b18" d="m243.21 180.91c0.95-0.52-3.47 0.11-4.54 0.44-1.32 0.42-0.79 1.2-0.77 1.87 0.04 1.02-0.27 1.57 0.69 1.27 0.81-0.25 3.15-0.09 3.86-0.11 1.37-0.03 1.9-0.26 1.45-1.56-0.3-0.86-0.1-0.82-0.69-1.91z"/>
      <path id="path2117" style="fill-rule:evenodd;stroke:#000000;stroke-width:.75304px;fill:#5e5b18" d="m265.52 171.13c1.1-0.02-1.57-0.68-2.67-0.7-1.46-0.03-2.71-0.2-3.26 0.98-0.44 0.93 0.66 1.7 0.73 2.66 0.15 2.16 0.56 2.33 1.93 2.22 1.88-0.13 1.76-0.27 3.04-0.28 0.39 0-0.35-1.83-0.47-2.35" sodipodi:nodetypes="csssssc" inkscape:transform-center-y="-5.8836669" inkscape:transform-center-x="15.380698"/>
      <path id="path2113" sodipodi:nodetypes="cssssssc" style="fill-rule:evenodd;stroke:#000000;stroke-width:.75304px;fill:#5e5b18" d="m270.31 166.09c0.99 0.37-0.85 2.36-1.56 3.29-0.88 1.15-0.95 0.97-2.09 1.49-0.29 0.13-2.92 1.92-3.21-0.11-0.17-1.13-1.12-1.59 0.65-2.33 0.55-0.22 1.14-2.27 2.12-2.16 0.55 0.07 3.38-1.45 3.88-1.47 0.78-0.02-0.21 0.87 0.21 1.29z"/>
      <path id="path2325" style="fill-rule:evenodd;stroke:#000000;stroke-width:.75304px;fill:#7ad24c" d="m152 289.85c10.88-11.77 9.65-31.73 17.75-45.66 8.31-24.49 19.97-50.15 40.49-61.56 14.12-6.73 30.05 7.04 43.49-3.57 14.5-10.24 27.47-23.97 43.48-30.74 16.37-8.94 34.19-18.69 52.44-15.44 10.83 5.79 14.46 23.69 9.39 36.17-5.14 31.16-10.18 63.32-5.85 95.12 0.38 20.82-12.84 43.89-31.01 42.84-14.4-2.06-26.26-16-41.25-14.5-25.19-1.61-50.2 4.47-75.39 3.35-16.74 0.72-33.58 0.14-50.22-1.64-1.66-0.53-3.12-2.2-3.32-4.37z"/>
      <path id="path2119" sodipodi:nodetypes="ccccccccccccccccccccccc" style="fill-rule:evenodd;fill:url(#linearGradient6568)" d="m159.58 281.82c-3.27 2.26-5.38 5.24-7.83 8.78 2.19 1.71 4.27 3.94 7.04 2.95 10.72-0.77 21.45 0.64 32.18-0.32 7.68-0.83 15.77 1.54 23.22-1.4 9.32-1.77 18.58-0.19 27.96-0.14 11.03 1.49 21.9-2.77 32.96-1.96 6.06 0.35 12.24 1.1 18.16 2.37 9.34 4.54 19.06 7.67 28.55 11.64 7.96 2.21 17.54-0.2 22.04-9.32 4.41-7.79 8.14-15.69 8.49-26.8 0.24-9.51-1.08-16.82-1.21-25.83-0.23-9.35 2.03-28.29 1.71-37.99-2.12-2.01-9.76 2.33-10.98 7.96-4.11 3.41-19.25-7.89-24.84-10.79-9-2.74-5.63 9.82-14.48 6.54-0.44 17.73 5.63 36.73-1.57 53.46-3.02 7.98-6.38 16.68-13.81 19.33-7.65 4.07-17.22 3.02-25.52 3.04-45.77-14.03-33.9 3.39-51.21 0.01-9.44-1.42-17.79 4.14-27.21 0.99-5.83-4.84-6.55-1.96-12.73-5.66-1.08-0.41-10.07-0.54-10.92 3.14z"/>
      <path id="path2327" style="fill-rule:evenodd;stroke:#000000;stroke-width:.75304px;fill:#7f8f83" d="m172.12 278.71c2.35-5.46 5.86-9.87 8.96-14.63 3.05-6.87 5.65-14.09 8.86-20.81 3.76-6.16 9.39-9.96 13.85-15.16 2.06-3.34 4.26-7.02 7.7-8.17 0.91-3.12 2.15-6.62 5.18-7.08 4.27-0.99 5.02-7.5 8.94-9.18 2.6-2.55 5.07-5.39 8.11-7.14 0.86-2.92 3.32-4.73 5.79-4.85 1.9-1.37 2.51-4.6 4.97-4.72 2.49-0.04 4.63-2.5 6.91-2.79 1.66 0.62 2.74-3.33 4.76-3.19 3.6-0.55 6.99-3.13 10.68-1.85 2.52-0.35 5.09-0.9 7.5 0.24 2.67-2.48 4.78 1.35 7.3 1.19 2.26-0.56 3.97 0.59 5.87 1.77 4.64 0.24 9.16 2.6 12.91 5.93 3.42 1.58 6.96 2.72 9.95 5.42 3.47 1.44 6.52 4.69 7.05 9.33 0.82 2.57-0.76 5.2-1.5 7.51-3.68 4.54-5.56 10.96-6.7 17.11-1.05 8.37-2.51 16.63-3.47 25.01-0.54 3.65-1.91 7.08-3.26 10.38-1.95 3.9-4.22 7.52-6.71 10.9-2.97 3.8-5.63 8.63-10.15 9.64-4.56 2.6-9.65-0.52-14.32 0.91-6.84-1.18-13.99 0.22-20.53-3.06-6.28-3.27-13.19-2.03-19.83-2.71-6.34-1.35-10.62 5.2-16.54 4.45-3.94-0.14-7.75 2.01-11.74 2-6.1 0.97-12.22-0.95-18.32-1.02-3.57-1.43-7.29-2.78-10.86-3.99-0.45-0.48-0.9-0.96-1.36-1.44z"/>
      <path id="path2329" sodipodi:rx="60.927002" sodipodi:ry="34.474102" style="fill:#a4ad6a" sodipodi:type="arc" d="m486.73 308.9a60.927 34.474 0 1 1 -121.85 0 60.927 34.474 0 1 1 121.85 0z" transform="matrix(.71770 -.22381 .22411 1.2459 -111.94 -54.51)" sodipodi:cy="308.90161" sodipodi:cx="425.80637"/>
      <path id="path2304" sodipodi:rx="51.787155" sodipodi:ry="44.565136" style="fill:#000000" sodipodi:type="arc" d="m489.34 298.27a51.787 44.565 0 1 1 -103.58 0 51.787 44.565 0 1 1 103.58 0z" transform="matrix(.71072 0 0 .91187 -48.978 -35.814)" sodipodi:cy="298.26697" sodipodi:cx="437.54861"/>
      <path id="path2302" sodipodi:rx="51.787155" sodipodi:ry="44.565136" style="fill:#37412f" sodipodi:type="arc" d="m489.34 298.27a51.787 44.565 0 1 1 -103.58 0 51.787 44.565 0 1 1 103.58 0z" transform="matrix(.7038 0 0 .90526 -46.546 -34.432)" sodipodi:cy="298.26697" sodipodi:cx="437.54861"/>
      <path id="path2300" sodipodi:rx="51.787155" sodipodi:ry="44.565136" style="fill:#5b8d2c" sodipodi:type="arc" d="m489.34 298.27a51.787 44.565 0 1 1 -103.58 0 51.787 44.565 0 1 1 103.58 0z" transform="matrix(.67842 0 0 .87883 -35.32 -26.843)" sodipodi:cy="298.26697" sodipodi:cx="437.54861"/>
      <path id="path3949" sodipodi:rx="38.400002" sodipodi:ry="33.467892" style="fill:#406026" sodipodi:type="arc" d="m469.61 291.75a38.4 33.468 0 1 1 -76.8 0 38.4 33.468 0 1 1 76.8 0z" transform="matrix(.70020 0 0 .92387 -41.009 -34.549)" sodipodi:cy="291.74954" sodipodi:cx="431.20734"/>
      <path id="path2285" sodipodi:rx="38.400002" sodipodi:ry="33.467892" style="fill:#95cb5d" sodipodi:type="arc" d="m469.61 291.75a38.4 33.468 0 1 1 -76.8 0 38.4 33.468 0 1 1 76.8 0z" transform="matrix(.70020 0 0 .92387 -41.009 -34.549)" sodipodi:cy="291.74954" sodipodi:cx="431.20734"/>
      <path id="path2272" sodipodi:rx="19.728441" sodipodi:ry="17.614679" style="fill:#7d8a54" sodipodi:type="arc" d="m449.53 285.41a19.728 17.615 0 1 1 -39.46 0 19.728 17.615 0 1 1 39.46 0z" transform="matrix(.70870 0 0 .87768 -44.633 -14.771)" sodipodi:cy="285.40823" sodipodi:cx="429.79816"/>
      <g id="g2263" transform="matrix(.67842 0 0 .83588 8.6559 -12.707)">
        <path id="path2261" sodipodi:rx="17.790825" sodipodi:ry="13.915596" style="fill:#dafcbf" sodipodi:type="arc" d="m443.54 294.04a17.791 13.916 0 1 1 -35.58 0 17.791 13.916 0 1 1 35.58 0z" transform="matrix(1.0495 0 0 1.3165 -76.409 -90.056)" sodipodi:cy="294.03943" sodipodi:cx="425.7468"/>
        <g id="g2254">
          <path id="path1331" sodipodi:rx="15.5" sodipodi:ry="13.25" style="fill:#3e302f" sodipodi:type="arc" d="m442 282.34a15.5 13.25 0 1 1 -31 0 15.5 13.25 0 1 1 31 0z" transform="matrix(.91936 0 0 .96226 -22.097 25.008)" sodipodi:cy="282.34448" sodipodi:cx="426.5"/>
          <path id="path1333" sodipodi:rx="15.5" sodipodi:ry="13.25" style="fill:#d3d6b9" sodipodi:type="arc" d="m442 282.34a15.5 13.25 0 1 1 -31 0 15.5 13.25 0 1 1 31 0z" transform="matrix(.67985 0 0 .77548 80.581 77.745)" sodipodi:cy="282.34448" sodipodi:cx="426.5"/>
          <path id="path1335" sodipodi:rx="15.5" sodipodi:ry="13.25" style="fill:#010101" sodipodi:type="arc" d="m442 282.34a15.5 13.25 0 1 1 -31 0 15.5 13.25 0 1 1 31 0z" transform="matrix(.63423 0 0 .72211 100.04 92.813)" sodipodi:cy="282.34448" sodipodi:cx="426.5"/>
          <path id="path1337" style="fill-rule:evenodd;stroke:#000000;stroke-width:0.7;fill:#c5d5d4" d="m365.06 291.9c-0.32 0.11-0.96 0.76-1.29 1.05-0.35 0.31-0.69 0.61-1 0.88-0.33 0.29-0.41 1.19-0.49 1.75-0.12 0.81-0.57 0.89 0.19 1.23 0.63 0.28 0.76-0.45 1-0.88 0.32-0.55 0.35-0.83 0.8-1.22 0.37-0.33 0.72-0.64 0.99-0.88 0.34-0.3 0.95-0.2 1.29-0.35 0.41-0.18 0.87-0.18 1.4-0.18 0.4 0 0.96-0.32 1.19-0.53 0.36-0.32 0.66-0.64 0.9-1.05 0.43-0.77-0.58-1.35-0.7-1.41-0.44-0.19-0.86-0.17-1.39-0.17-0.37 0-0.84 0.37-1.2 0.53-0.43 0.18-0.82 0.37-1.19 0.7-0.17 0.15-0.33 0.35-0.5 0.53z"/>
          <path id="path1339" style="fill-rule:evenodd;stroke:#000000;stroke-width:1.5;fill:#c5d5d4" d="m375.95 291.92c0.25 0.1 0.74 0.67 0.99 0.92l0.77 0.77c0.25 0.26 0.32 1.04 0.38 1.53 0.09 0.71 0.44 0.78-0.15 1.07-0.49 0.25-0.58-0.39-0.77-0.76-0.24-0.49-0.27-0.73-0.61-1.07l-0.77-0.77c-0.26-0.26-0.73-0.17-0.99-0.31-0.32-0.15-0.67-0.15-1.08-0.15-0.31 0-0.74-0.28-0.92-0.46-0.28-0.28-0.51-0.56-0.69-0.92-0.33-0.67 0.45-1.18 0.54-1.23 0.34-0.16 0.66-0.15 1.07-0.15 0.29 0 0.65 0.32 0.92 0.46 0.33 0.17 0.64 0.33 0.92 0.61 0.14 0.14 0.26 0.31 0.39 0.46z"/>
        </g>
      </g>
      <path id="path2350" sodipodi:nodetypes="ccccccccscsccccccccccccccccccccccccccccccccccccccccccccccccccccccccccccccccccccccccccccccccccccccccc" style="fill-rule:evenodd;stroke:#000000;stroke-width:.75304px;fill:#5e5b18" d="m315.23 203.1l-2.32 0.86-3.47 1.14-4.4-0.28-3.48-0.86-3.7-1.43-5.56-3.99-5.09-3.42s-4.4-2.29-5.33-2.29c-0.92 0-6.25-1.42-6.25-1.42s-6.02-0.86-6.95-0.86h-5.79l-5.55 1.43-4.17 0.85-3.24 1.14-4.4 1.72-2.78 1.99-3.01 2.57-2.55 2.28-4.17 3.71-2.08 2.86-2.78 2.85-1.39 2.28-2.32 3.71-1.85 1.14-1.62 1.43-0.46 0.57-1.85 2.85-2.32 4.85-0.93 4-0.23 1.71 0.47 5.13 0.69 4.85 0.93 3.43 0.46 5.13 2.55 6.57 2.54 4.85 1.62 3.13 1.63 1.72 3.01 3.42 0.92 2.7-0.87 2.49-3.12 0.74-3.62 1.79-2.81 1.7-6.71 1.14-7.41 1.42-7.65 0.61-7.41-0.61-6.48 0.23-5.79-3.36-3.93-1.43-1.86-1.43 3.01-5.42 5.1-7.99 3.47-9.13 5.33-11.7 3.01-4.85 5.79-4.85 4.16-4.85 3.48-3.99 2.78-4.28 2.31-1.71c0.54-0.86 0.86-0.37 1.62-2.57l2.09-3.71 3.47-1.71 3.01-2.85 3.47-4.57 6.03-5.13 2.31-1.72 2.08-3.42 2.55-2 2.14-1.57 3.42-3.06 2.26-0.07 5.38-3.29h1.39l3.24-2.85 4.17-1.71 5.33-1.14 3.7 0.28 3.01-0.28 2.32 0.28h3.7l1.62 0.86 1.62 0.57 3.25-0.29 1.62 0.58 2.78 1.71h1.85l3.24 1.14 3.01 1.43 3.71 1.99 4.4 2.86 3.47 1.99 3.01 1.71 2.31 2 1.63 2 0.92 2-0.69 3.7z"/>
      <path id="path2377" style="fill-rule:evenodd;stroke:#000000;stroke-width:.75305px;fill:#d2c06c" d="m270.33 164.73c2.93-3.18 6.15-5.91 9.84-7.58 6.55-3.43 12.81-7.6 18.9-12.12 7.97-5.76 16.88-8.92 25.74-11.81 6.3-2.87 12.98-4.6 19.66-5.21 4.41-0.37 8.72 1.22 12.38 4.19 3.88 2.91 8.46 6.7 8.45 12.95 0.2 6.12-2.27 11.8-2.77 17.84-0.51 5.95-1.39 11.81-2.62 17.61-0.93 4.94-0.82 10.04-2.09 14.9-0.44 4.49-2.93 7.65-6.48 8.47-1.72 1.49-7.6 3.92-3.72-0.42 2.4-4.18 5.48-8.08 6.01-13.39 1.85-9.55 4.63-19.06 4.66-28.98-0.86-3.55-2.8-6.74-0.03-9.99 2.6-4.49 0.57-10.03-2.42-13.36-3.07-3.96-7.85-1.8-11.78-2.32-6.77 0.38-12.52 5.47-18.69 8.36-4.97 2.43-9.1 6.86-14.23 8.85-4.55 3.43-7.97 9.35-13.49 10.61-5.09 2.96-10.76 4.83-16.41 4.17-3.64-0.93-7.82 0.4-10.91-2.77z"/>
      <path id="path3289" style="fill-rule:evenodd;fill:#577b4a" d="m215.42 221.54c-6.25 7.31-13.01 13.96-18.92 21.71-2.57 3.52-5.58 6.55-7.79 10.47-2.51 3.9-4.62 8.2-6.1 12.83-1.37 2.96-3.78 5.46-3.54 9.18-0.66 2.68 0.8 4.96 3.02 4.16 3.04 0.36 6.03 1.5 9.1 1.17 4.87 0.19 9.63-1.56 14.5-1.4 3.57-0.41 6.81-2.58 10.31-3.32 2.55 0.17 6.11 1.83 7.6-1.8-0.5-3.25-3.6-4.92-4.83-7.89-2.63-4.26-5.23-8.71-6.85-13.7-1.23-3.19-1.27-6.67-0.72-10.06 0.32-4.42 1.05-8.85 2.76-12.79 0.74-2.78 0.91-5.72 1.46-8.56z"/>
      <path id="path1341" sodipodi:rx="9.9643669" sodipodi:ry="3.9857469" style="stroke:#000000;stroke-linecap:round;stroke-width:0.7;fill:#8b9795" sodipodi:type="arc" d="m154.45 93.421a9.9644 3.9857 0 1 1 -19.93 0 9.9644 3.9857 0 1 1 19.93 0z" transform="matrix(.66272 -.17879 .14511 .81654 84.571 220.32)" sodipodi:cy="93.42131" sodipodi:cx="144.48332"/>
      <path id="path2345" sodipodi:nodetypes="cssssc" style="stroke:#000000;stroke-width:.75304px;fill:none" d="m219.14 211.02c1.93 1.21 2.31 3.62 2.31 7.42 0 2.26-2.36 5.39-3.7 4.57-1.83-1.13-3.11-1.91-4.63-2.86-2.14-1.33 0.52-4.71 1.79-6.13 1.24-1.39 2.37-1.17 4.23-3z"/>
      <path id="path2347" sodipodi:nodetypes="cssssc" style="stroke:#000000;stroke-width:.75304px;fill:none" d="m219.37 211.66c4.1 1.69 1.48 7.59 2.84 7.21 1.63-0.46 3.18-4.14 4.34-5.57 1.39-1.71 1.69-2.58 1.39-5.7-0.32-3.33-3.16-3.44-4.63-1.14-0.93 1.44-3.23 3.6-3.94 5.2z"/>
      <path id="path2349" sodipodi:nodetypes="cssssc" style="stroke:#000000;stroke-width:.75304px;fill:none" d="m227.94 201.89c-2.74 1.69-4.1 1.47-0.93 3.43 2.54 1.56-0.57 8.87 3.01 4.42 0.44-0.55 3.11-4.59 3.88-4.92 5.36-2.35-2.58-3.2-3.53-4.64-0.41-0.62-1.66 1.33-2.43 1.71z"/>
      <path id="path2351" sodipodi:nodetypes="cssssc" style="stroke:#000000;stroke-width:.75304px;fill:none" d="m231.18 199.61c-1.87 0 3.28 3.41 5.09 2.85 1.71-0.52 2.84-2.79 4.46-3.63 5.67-2.94 0.61-3.23-1.21-4.36-2.44-1.49-2.84-1.99-4.4 0.36-1.36 2.04-2.76 1.86-3.94 4.78z"/>
      <path id="path2353" sodipodi:nodetypes="cssssc" style="stroke:#000000;stroke-width:.75304px;fill:none" d="m240.44 189.91c-2.57 1.58-4.61 3.43-0.92 4.56 2.34 0.73 2.67 2.03 5.55 1.15 2.04-0.63 5.92-1.24 4.4-4.14-0.81-1.55-4.01-4.3-5.5-3.92-0.37 0.09-3.08 2.21-3.53 2.35z"/>
      <path id="path2355" sodipodi:nodetypes="cssssc" style="stroke:#000000;stroke-width:.75304px;fill:none" d="m245.77 187.56c-1.47-1.81 3.12 2.84 4.05 5.13 0.51 1.26 3.6 0.27 4.98 0.07 3.05-0.43-1.2-4.96-1.33-5.7-0.57-3.17-2.39-3.37-4.63-1.72-1.94 1.43-0.59 0.93-3.07 2.22z"/>
      <path id="path2357" sodipodi:nodetypes="csssssc" style="stroke:#000000;stroke-width:.75304px;fill:none" d="m252.95 184.2c-2.08 0.64 1.72 4.98 3.24 6.85 1.81 2.24 4.61-0.9 5.44-0.93 2.92-0.09 5.76 1.99 4.75-2.49-0.01-0.04-2.61-4.72-2.78-5.14-0.77-1.88-1.91-2.5-3.71-2.5-1.46 0-5.88 3.16-6.94 4.21z"/>
      <path id="path2359" sodipodi:nodetypes="csssssssssssc" style="stroke:#000000;stroke-width:.75304px;fill:none" d="m261.51 179.64c0.55 0.77 1.71 2.1 2.32 2.85 0.71 0.87 1.02 1.55 1.62 2.28 0.44 0.54 0.66 2.5 0.93 3.14 0.66 1.63-0.09 1.48 1.21 2.28 0.73 0.45 2.58 0.58 3.42 0.58 1.23 0 3.05-0.08 3.76-0.08 1.15 0-2.14-2.79-2.14-4.2 0-1.67-0.05-2.69-0.46-3.71-0.39-0.97-1.12-1.66-1.63-2.29-0.44-0.55-0.79-1.15-1.44-1.35-0.98-0.3-2.47-0.22-3.65-0.22-1.12 0-2.64 0.08-3.94 0.72z"/>
      <path id="path2361" sodipodi:nodetypes="csssssssssssc" style="stroke:#000000;stroke-width:.75304px;fill:none" d="m270.31 178.78c-1.11 0 1.19 2.33 1.86 3.43 0.61 1 0.69 1.95 0.69 3.42 0 1.68 0.5 2.04 1.16 2.85 0.9 1.11 0.48 1.58 1.62 2.29 1 0.61 1.7 0.85 3.01 0.85 1.61 0 2.63 0.84 2.72 0.79 0.21-0.14-0.64-4.48-0.64-5.07 0-1.16-0.29-3.17-0.46-3.99-0.33-1.62-0.4-1.92-1.16-2.86-0.71-0.87-1.49-0.97-2.08-1.71-0.35-0.42-2.92 0-3.48 0-1.27 0-2.18-0.32-3.24 0z"/>
      <path id="path2363" style="stroke:#000000;stroke-width:.75304px;fill:none" d="m280.73 179.92c-1.28 0-1.31 0.38-0.69 3.43 0.25 1.22 0.46 2.35 0.46 3.99 0 1.66 0.7 1.77 0.7 3.43 0 1.25 1.16 1.78 1.85 1.99 1.26 0.39 1.59 0.78 2.78 1.14 1.05 0.33 1.79 0.96 2.54 1.43 0.62 0.38 0.47-3.22 0.47-3.71v-4.28c0-1.4-0.03-3.01-0.23-3.99-0.14-0.65-1.43-1.76-1.86-2.29-0.62-0.76-1.89-0.85-3.01-0.85-1.06 0-1.95-0.03-3.01-0.29z"/>
      <path id="path2365" style="stroke:#000000;stroke-width:.75304px;fill:none" d="m289.07 182.49c-1.25 0 0.46 3.03 0.46 4.57 0 1.28-0.69 2.28-0.69 3.71v4.27c0 0.99 1.49 1.55 1.85 2 0.69 0.85 1.72 1.17 2.55 1.43 1.13 0.35 1.39 2.01 1.39-0.29 0-1.4 0.76-2.15 1.15-3.14 0.58-1.42 0.48-2.81 0.24-3.99-0.25-1.22-0.7-2.04-0.7-3.42 0-1.77-0.01-2.59-0.69-3.43-0.44-0.53-1.8-1.1-2.32-1.42-1.02-0.63-2.01-0.67-3.24-0.29z"/>
      <path id="path2367" sodipodi:nodetypes="csssssssssssssc" style="stroke:#000000;stroke-width:.75304px;fill:none" d="m295.55 184.49c-0.83-0.52 1.72 0.91 2.55 1.43 0.7 0.43 1.94 1.25 2.72 1.49 0.91 0.28 1.52 0.39 1.91 1.36 0.56 1.37 0.31 1.81-0.23 3.14-0.53 1.31-0.93 1.62-0.93 3.42 0 1.09 0.24 2.98 0.24 3.71 0 1.31-0.57 2.26-0.93 3.14-0.44 1.08-2.5-0.2-2.78-0.29-0.8-0.25-2.05-0.84-3.01-1.14-0.91-0.28-0.35-2.86-0.23-3.42 0.23-1.12 0.91-2.22 1.16-3.43 0.31-1.53-0.24-2.62-0.24-3.99 0-1.16-0.23-2.64-0.23-3.42v-2z"/>
      <path id="path2369" sodipodi:nodetypes="cssssssssssc" style="stroke:#000000;stroke-width:.75304px;fill:none" d="m302.96 190.12c0-1.27 0.04 1.74-0.69 2.64-0.56 0.69-0.46 2.74-0.46 3.71v4.28c0 1.49-1.23 1.29-0.99 2.5 0.07 0.32 2.79 0.92 3.3 0.92 1.23 0 2.29 0 3.24 0.29 0.25 0.08 0.7-3.01 0.7-3.42v-4.28c0-1.51 0.43-2.4 0.69-3.71 0.16-0.78-1.5-1.57-1.79-1.93-0.44-0.54-2.98-1.75-4-1z"/>
      <path id="path2371" sodipodi:nodetypes="cssssssc" style="stroke:#000000;stroke-width:.75304px;fill:none" d="m212.1 218.64c0.87 1.27 1.25 2.4 2.19 2.44 1.62 0.07-0.95 3.23-1.33 3.35-0.34 0.11-1.89 1.86-2.03 2.21-0.66 1.64-1.83 0.06-2.08-0.57-0.48-1.18-0.66-1.79-0.93-3.14-0.21-1.05 1.34-1.67 1.85-1.99 0.56-0.35 1.62-1.6 2.33-2.3z"/>
      <path id="path2373" sodipodi:nodetypes="cssssssc" style="fill-rule:evenodd;stroke:#000000;stroke-width:.75304px;fill:#5e5b18" d="m207.79 223.29c0.84-0.51 0.5 2.33 1.16 3.14 0.84 1.03 0.31 2.19-0.23 2.85-0.75 0.92-1.08 1.43-2.09 2-1.09 0.62-0.75 1.14-2 1.68-0.31 0.13-0.31-4.06-0.37-4.46-0.22-1.38 1.06-1.49 1.39-2.57 0.45-1.5 0.52-1.28 2.14-2.64z"/>
      <path id="path2375" sodipodi:nodetypes="cssssssc" style="fill-rule:evenodd;stroke:#000000;stroke-width:.75304px;fill:#5e5b18" d="m203.62 228.14c0.92-0.57 0.7 2.44 0.7 3.71 0 1.58-0.15 1.51-0.7 2.85-0.13 0.34-2.06 2.43-2.39 2.64-0.84 0.51-0.18-0.08-0.82-2.25-0.57-1.95-0.44-2.61 0.34-3.36 0.44-0.42 1.59-1.44 1.95-1.88 0.55-0.67 0.17-0.17 0.92-1.71z"/>
      <path id="path2378" sodipodi:nodetypes="csssssc" style="fill-rule:evenodd;stroke:#000000;stroke-width:.75304px;fill:#5e5b18" d="m199.22 233.56c0.73-0.9 1.6 4.36 0.94 4.72-0.51 0.28-1.59 2.19-1.93 2.4-1.32 0.81-0.83-0.19-2.02-0.56-0.57-0.17-0.69-2.34-0.69-3.42 0-0.19 1.96-1.56 2.08-1.71 0.47-0.58 1.1-0.92 1.62-1.43z"/>
      <path id="path2380" sodipodi:nodetypes="csssssc" style="stroke:#000000;stroke-width:.75304px;fill:none" d="m195.06 237.56c0.78-0.97-1.51 0.85-2.32 1.78-1.07 1.23-2.06 2.17-1.8 3.49 0.22 1.05 1.44 0.66 2.03 1.29 1.33 1.42 1.72 1.19 2.64-0.05 1.28-1.71 1.11-1.71 2.03-2.81 0.28-0.34-1.28-1.02-1.67-1.29"/>
      <path id="path2382" sodipodi:nodetypes="csssssc" style="stroke:#000000;stroke-width:.75304px;fill:none" d="m190.42 242.98c0.27-1.33-1.35 2.19-1.85 3.42-0.62 1.53 0.38 1.89 0.93 2.57 0.83 1.02 1.04 1.85 1.49 0.74 0.38-0.94 2.18-2.7 2.68-3.31 0.95-1.17 0.89-1.03-0.47-2-0.9-0.64-1.49-0.79-2.78-1.42z"/>
      <path id="path2384" sodipodi:nodetypes="csssssc" style="stroke:#000000;stroke-width:.75304px;fill:none" d="m188.57 247.94c-0.98-0.61 1.08 1.21 1.85 2.17 0.5 0.6-1.24 2.39-1.39 2.57-0.7 0.87-0.84 1.76-1.44 2.5-0.51 0.63-1.57-0.82-1.57-2.22 0-1.75 0.67-2.13 0.93-3.42 0.03-0.16 1.57-1.45 1.62-1.6z"/>
      <path id="path2386" sodipodi:nodetypes="cssssc" style="stroke:#000000;stroke-width:.75304px;fill:none" d="m187.43 255.25c-0.48 1.84-1.11 2.48-1.87 3.42-0.98 1.21-0.34 1.53-1.62 1.14-0.55-0.17-0.66-1.62-0.46-2.57 0.16-0.78 1.21-2.28 1.39-2.85 0.49-1.62 1.59-0.34 2.56 0.86z"/>
      <path id="path2388" sodipodi:nodetypes="cssssc" style="stroke:#000000;stroke-width:.75304px;fill:none" d="m184.4 260.67c0.71-0.88-0.45 2.55-1.15 3.42-0.89 1.09 0.32 2.52-1.39 2-1.32-0.41-1.23-0.64-0.93-2.14 0.22-1.09 0.79-2.1 1.16-3 0.86-2.12 0.6-1.55 2.31-0.28z"/>
      <path id="path2390" style="stroke:#000000;stroke-width:.75304px;fill:none" d="m181.62 266.94c0.42-1.02-0.49 2.33-1.15 3.14-0.85 1.04-0.86 1.8-1.86 0.57-1.17-1.44-0.48-1.76 0.7-2.85 0.67-0.62 0.88-1.94 1.39-2.57 0.39-0.48 0.68 1.1 0.92 1.71z"/>
      <path id="path2392" style="stroke:#000000;stroke-width:.75304px;fill:none" d="m179.31 271.51c0.79-0.98-0.93 2.61-0.93 3.99 0 2.08-1.64 0.23-1.85-0.28-0.5-1.22-1.61-0.35-1.16-2.57 0.25-1.2 1.23-1.59 1.62-2.57 0.39-0.95 1.78 0.6 2.32 1.43z"/>
      <path id="path2394" style="stroke:#000000;stroke-width:.75304px;fill:none" d="m177.69 276.64c0.49-1.21-1.31 2.19-2.09 3.14-0.93 1.16-1.19-0.22-2.31-0.57-1.55-0.47-0.46-1.46-0.23-2.57 0.14-0.69 1.4-1.72 1.85-2.28 0.9-1.11 1.29 0.16 1.85 0.86 0.35 0.43 0.62 0.95 0.93 1.42z"/>
      <path id="path3008" sodipodi:rx="9.9643669" sodipodi:ry="3.9857469" style="fill:url(#linearGradient6570)" sodipodi:type="arc" d="m154.45 93.421a9.9644 3.9857 0 1 1 -19.93 0 9.9644 3.9857 0 1 1 19.93 0z" transform="matrix(.51648 -.16117 .11309 .73606 107.23 225.66)" sodipodi:cy="93.42131" sodipodi:cx="144.48332"/>
      <path id="path3905" sodipodi:rx="19.728441" sodipodi:ry="17.614679" style="fill:url(#linearGradient4472)" sodipodi:type="arc" d="m449.53 285.41a19.728 17.615 0 1 1 -39.46 0 19.728 17.615 0 1 1 39.46 0z" transform="matrix(.70870 0 0 .87768 -44.633 -14.771)" sodipodi:cy="285.40823" sodipodi:cx="429.79816"/>
      <g id="g3907" style="fill:url(#linearGradient4472)" transform="matrix(.67842 0 0 .83588 8.6559 -12.707)">
        <path id="path3909" sodipodi:rx="17.790825" sodipodi:ry="13.915596" style="fill:url(#linearGradient4472)" sodipodi:type="arc" d="m443.54 294.04a17.791 13.916 0 1 1 -35.58 0 17.791 13.916 0 1 1 35.58 0z" transform="matrix(1.0495 0 0 1.3165 -76.409 -90.056)" sodipodi:cy="294.03943" sodipodi:cx="425.7468"/>
        <g id="g3911" style="fill:url(#linearGradient4472)">
          <path id="path3913" sodipodi:rx="15.5" sodipodi:ry="13.25" style="fill:url(#linearGradient4472)" sodipodi:type="arc" d="m442 282.34a15.5 13.25 0 1 1 -31 0 15.5 13.25 0 1 1 31 0z" transform="matrix(.91936 0 0 .96226 -22.097 25.008)" sodipodi:cy="282.34448" sodipodi:cx="426.5"/>
          <path id="path3915" sodipodi:rx="15.5" sodipodi:ry="13.25" style="fill:url(#linearGradient4472)" sodipodi:type="arc" d="m442 282.34a15.5 13.25 0 1 1 -31 0 15.5 13.25 0 1 1 31 0z" transform="matrix(.67985 0 0 .77548 80.581 77.745)" sodipodi:cy="282.34448" sodipodi:cx="426.5"/>
          <path id="path3917" sodipodi:rx="15.5" sodipodi:ry="13.25" style="fill:url(#linearGradient4472)" sodipodi:type="arc" d="m442 282.34a15.5 13.25 0 1 1 -31 0 15.5 13.25 0 1 1 31 0z" transform="matrix(.63423 0 0 .72211 100.04 92.813)" sodipodi:cy="282.34448" sodipodi:cx="426.5"/>
          <path id="path3919" style="fill:url(#linearGradient4472);fill-rule:evenodd" d="m365.06 291.9c-0.32 0.11-0.96 0.76-1.29 1.05-0.35 0.31-0.69 0.61-1 0.88-0.33 0.29-0.41 1.19-0.49 1.75-0.12 0.81-0.57 0.89 0.19 1.23 0.63 0.28 0.76-0.45 1-0.88 0.32-0.55 0.35-0.83 0.8-1.22 0.37-0.33 0.72-0.64 0.99-0.88 0.34-0.3 0.95-0.2 1.29-0.35 0.41-0.18 0.87-0.18 1.4-0.18 0.4 0 0.96-0.32 1.19-0.53 0.36-0.32 0.66-0.64 0.9-1.05 0.43-0.77-0.58-1.35-0.7-1.41-0.44-0.19-0.86-0.17-1.39-0.17-0.37 0-0.84 0.37-1.2 0.53-0.43 0.18-0.82 0.37-1.19 0.7-0.17 0.15-0.33 0.35-0.5 0.53z"/>
          <path id="path3921" style="fill:url(#linearGradient4472);fill-rule:evenodd" d="m375.95 291.92c0.25 0.1 0.74 0.67 0.99 0.92l0.77 0.77c0.25 0.26 0.32 1.04 0.38 1.53 0.09 0.71 0.44 0.78-0.15 1.07-0.49 0.25-0.58-0.39-0.77-0.76-0.24-0.49-0.27-0.73-0.61-1.07l-0.77-0.77c-0.26-0.26-0.73-0.17-0.99-0.31-0.32-0.15-0.67-0.15-1.08-0.15-0.31 0-0.74-0.28-0.92-0.46-0.28-0.28-0.51-0.56-0.69-0.92-0.33-0.67 0.45-1.18 0.54-1.23 0.34-0.16 0.66-0.15 1.07-0.15 0.29 0 0.65 0.32 0.92 0.46 0.33 0.17 0.64 0.33 0.92 0.61 0.14 0.14 0.26 0.31 0.39 0.46z"/>
        </g>
      </g>
      <path id="path4033" sodipodi:nodetypes="ccccccccss" style="fill-rule:evenodd;fill:url(#linearGradient6586)" d="m238.04 189.71c20.14-8.96-26.22-8.01-43.49 16.59-7.99 6.5-8.31 14.08-14.94 24.34-3.75 8.89-7.28 15.79-14.49 34.2-2.48 7.75-8.71 14.3-5.3 22.37 7.12-0.3 7.49 1.9 10.57-7.73 6.78-12.21 7.96-21.33 15.56-32.76 6.42-11.09 20.24-25.38 30.34-36.55 1.5-3.53 8.26-11.72 11.18-13.73 5.67-3.91 1.61-2.75 10.57-6.73z"/>
      <path id="path4084" sodipodi:nodetypes="cccc" style="fill-rule:evenodd;fill:#626d20" d="m164.55 278.31c10.53-1.72 30.74 15.49 10.49 13.5-22.76-1.6-14.03-0.04-21.5-2.06 3.98-9.81 6.64-10.45 11.01-11.44z"/>
      <path id="path2323" sodipodi:nodetypes="ccccccccccccccccccccccccccccccccccccccccccccccccc" style="fill-rule:evenodd;stroke:#000000;stroke-width:.75304px;fill:#97d366" d="m152.49 297.1c1.07-2.23 0.56-7.17 3.59-6.05 2.52-0.02 5.05 0.16 7.55-0.4 1.53 3.54 3.84-0.33 6.38 1.15 2.25 0.72 4.46 1.03 6.72 0.06 1.98 2.22 4.3 1.1 6.59 0.93 2.28 1.3 4.56 0.98 6.83-0.13 2.76 1.39 5.55 0.45 8.33-0.13 2.34 1.5 4.76 0.49 6.95-0.86 2.38-0.46 4.85 2 6.94-0.29 2.38 0.17 4.33 0.78 6.4-1.13 2.19-1.2 4.48 0.51 6.11 0.85 2.4-2.36 5.64-1.27 8.03 0.28 2.28-0.53 4.47-1.49 6.63-0.42 2.22-0.59 4.29-2.71 6.64-1.29 1.97-0.93 4.24-3.07 6.19-0.69 2.07 2.48 4.25-2.11 6.61-0.26 1.25 1.46 4.24 1.63 5.42-0.52 2.64-1.01 5.14 2.78 7.65 0.21 2.7-0.57 5.02 2.1 7.82 1.26 2.73 1.02 5.5-0.5 8.31 0.37 3.4 0.32 7.2-1.55 10.31 1.14 3.46 2.11 6.83 4.47 10.68 5.34 1.67 2.69 4.66 1.56 6.84 3.33 2.36 0.74 4.29 2.26 6.58 3.23 2.09 0.75 3.97 1.99 6.26 1.43 6.14-1.12 14.42-10.65 18.91-15.64 2.75-4.11-1.48 6.25-2.87 7.12-2.48 2.42-5.25 7.4-8.8 8.2-3.8 1.73-7.27 5.08-11.49 4.6-4.08 0.33-7.54-2.69-11.46-3.56-3.43-1.03-6.41-3.58-9.99-3.86-3.12-1.84-6.23-3.93-9.34-5.58-4.46-1.27-8.99-1.35-13.52-0.7-3.51-0.17-7.18 0.27-10.59 0.04-2.48-1.47-5.63 1.38-8.24-0.32-3.21 0.61-6.53 1.22-9.64 0.1-2.29 1.5-4.42-0.4-6.73 0.11-2.57 0.89-5.09-0.95-7.57 0.65-3.3 1.26-6.49-1.49-9.78-0.66-2.47-0.88-4.9-0.88-7.23 0.46-2.49 0.71-5.13 0-7.68 0.84-3.92 0.78-7.89 1.52-11.8 0.21-5.64-0.38-11.35 1.05-16.91-0.57-1.25 2.23-4.49 0.53-6.57 0.85-2.33 0.35-4.4 1.48-6.86 0.99-2.58 0.4-5.12 1.07-7.64-0.13-3.12 1.51-6.31 0.69-9.41-0.32-0.38-0.08-0.77-0.16-1.15-0.24z"/>
      <path id="path4155" sodipodi:nodetypes="ccccccscccccc" style="fill-rule:evenodd;fill:#a6933c;fill-opacity:.38342" d="m271.66 163.87c10.08-5.99 20.88-10.15 30.15-18.07 12.97-7.69 26.94-13 40.91-16.9 14.25 0.47 23.7 7.55 20.27 28.43-4.51 13.09-3.18 43.1-13.33 45.3 2.98-4.73 6.19-13.25 6.49-21.33 0.98-7.57 3.3-15.73 3.56-22.1 0.26-6.46 1.67-12.61 0.84-16.38-7.34-16.31-25.67-5.69-35.45-0.34-16.6 7.39-30.43 28.1-49.62 23.39l-2.01-0.71-1.81-1.29z"/>
      <path id="path4172" sodipodi:nodetypes="cccccccccccccc" style="fill-rule:evenodd;fill:url(#linearGradient6588)" d="m313.19 157.3c5.5-5.57 11.84-9.23 18.01-13.71 2.4-2.41 5.34-3.35 8.28-4.22 3.63-0.84 7.36 0.49 11.02 0.56 1.89 2.18 5.22 3.98 5.59 7.49 0 7.51-1.78 17.75-1.78 25.26-2.05 6.33-1.92 14-4.95 19.76-1.53 3.34-4.84 5.6-6.37 8.95-7.48 4.05-10.34-1.7-15.17-2.09-12.48-3.68-22.88-13.03-34.76-18.86-2.71-1.4-8.44-1.96-9.77-5.69 1.54-6.07 10.11-4.77 14.77-6.26 4.8-1.81 8.17-6.16 12.58-9.11 0.85-0.51 1.7-1.57 2.55-2.08z"/>
      <path id="path4272" sodipodi:nodetypes="cccsccccscsssccc" style="fill-rule:evenodd;fill:url(#linearGradient6590)" d="m156.83 304.18c14.07 22.07 35.59 31.68 57.38 34.51 21.38 9.61 43.54 6.51 64.82 11.34 9.35 1.82 18.79 5.48 34.45 3.36 12.92-1.75 26.88-1.29 39.78-5.12 17.76-0.2 17.13-9.95 5.04-15.77-3.06-6.18-27.71-0.78-32.98-1.28-0.86-1.39-5.62-3.44 2.58-7.77 4.94-1.42 9.14-4.65 12.95-9.89 3.21-4.42 4.74-8.85 7.24-19.43-6.14 8.95-9.33 11.98-12.44 13-3.12 1.02-5.28 3.29-8.48 3.89-3.2 0.59-7.89-0.49-10.76-0.73-2.86-0.24-5.89-2.64-7.99-4.13-10.79-5.06-29.83-9.8-41.24-7.97-36.79 1.87-73.61 3.07-110.35 5.99z"/>
      <path id="path4544" style="fill-rule:evenodd;fill:url(#linearGradient6592)" d="m403.97 334.68c-0.21 7.21 6.61 12.47 12.66 16.57 8.33 5.78 18.09 10.64 23.54 18.86 5.76 6.98 10.3 15.11 18.64 20.17 4.5 2.5 9.96 0.82 13.85-1.73 3.37-2.37 8.31-3.98 9.11-8.03 1.38-3.37 2.68-6.91 2.29-10.53-3.4-2.05-6.97 0.7-9.62 2.45-3.97 3.48-9.81 0.37-11.45-3.47-3-4.37-5.16-9.16-8.54-13.34-7.51-7.92-18.07-13.07-26.53-20.13-3.14-2.5-6.41-7.62-11.42-5.05-3.96 1.9-8.37 2.72-12.53 4.23z"/>
      <path id="path4523" sodipodi:nodetypes="cccccccccccccccccccccccccccc" style="opacity:.21028;fill-rule:evenodd;fill:#18110b;fill-opacity:.67876" d="m245.02 598.45c11.95 1.97 23.9 4.15 35.85 0.68 16.36-3.27 33.47-0.33 48.96-9.03 13.29-6.06 25.39-15.41 36.18-26.83 15.06-3.69 29.65-9.45 44.05-16.06 5.41 1.46 13.19 10.96 17.23 2.82 10.87-27.67 26.54-52.15 44.67-72.96 13.96-5.91 29.04-10.79 43.49-4.93 6.99 0.21 12.9 0.76 8.61 11.14 18.19 6.52 35.22 17.09 52.66 25.92 18.55 18.46 38.76 34.07 59.69 47.86 8.77 6.89 13.49 17.99 17.47 29.43-1.3 17.06-6.75 35.46-17.94 13.61-21.95-24.5-46.69-44.81-71.09-65.13-13.17-11.28-28.64-16.71-43.85-22.06-4.88 12.04-5.96 27.28-17.26 6.56-6.34-7.72-14.93-15.79-25.14-11.48-6.07 12.35-27.75 25.5-20.71 42.12 3.27 9.76-3.59 10.77-4.12 21.48-22.22 4.97-26.77 20.82-49.23 14.77-33.08 4.56-61.81 28.38-94.47 35.46-18.71 8.58-37.98 1.64-56.03-5.47-17.9-7.92-38.6-14.51-55.43 0.94-9.3 7.62-10.43 9.03-22.1 10.67-6.22 2.61-21.39-9.38-28.93-5.61-11.03-18.59 26.43-16.75 37.25-17.58 19.98-1.5 37.94-20.01 58-5.88-0.61-0.16 4.2 1.35 2.19-0.44z"/>
      <path id="path4498" sodipodi:nodetypes="cccccccccccccccccccccccccccc" style="fill-rule:evenodd;stroke:#000000;stroke-width:3.0504;fill:#3f2409" d="m245.21 594.1c11.88 1.98 23.76 4.16 35.63 0.82 16.26-3.13 33.27-0.2 48.65-8.64 13.19-5.88 25.2-14.96 35.9-26.1 14.96-3.54 29.44-9.12 43.73-15.52 5.39 1.45 13.15 10.77 17.15 2.82 10.73-27.01 26.24-50.9 44.2-71.17 13.86-5.73 28.84-10.45 43.22-4.66 6.95 0.25 12.82 0.8 8.59 10.94 18.1 6.45 35.06 16.86 52.42 25.57 18.49 18.14 38.62 33.49 59.46 47.07 8.74 6.77 13.46 17.65 17.45 28.85-1.24 16.69-6.62 34.66-17.8 13.25-21.88-24.07-46.53-44.03-70.85-64.01-13.12-11.08-28.5-16.46-43.64-21.76-4.82 11.76-5.85 26.66-17.14 6.34-6.33-7.57-14.89-15.5-25.03-11.33-6 12.06-27.52 24.84-20.47 41.12 3.28 9.56-3.54 10.52-4.03 21-22.08 4.77-26.56 20.25-48.9 14.24-32.88 4.33-61.37 27.51-93.82 34.3-18.57 8.32-37.75 1.45-55.71-5.58-17.82-7.83-38.41-14.35-55.1 0.69-9.22 7.41-10.34 8.79-21.94 10.35-6.17 2.52-21.29-9.27-28.78-5.61-11.01-18.23 26.23-16.28 36.98-17.04 19.86-1.39 37.67-19.42 57.65-5.52-0.6-0.16 4.17 1.34 2.18-0.42z"/>
      <path id="path4496" sodipodi:nodetypes="ccccscccsc" style="fill-rule:evenodd;stroke:#000000;stroke-width:.75304px;fill:#485d3e" d="m378.61 516.2c6.94 28.93-21.01 32.58-29.5 50.82-4.14 39.11 39.6-45.7 29.28 2.57-4.48 43.27 31.42-22.81 16.08-39.06-4.34-14.62-5.78-21.84-4.12-27.24s5.48-9.37 13.53-16.71c-5.02-10.52-8.36-20.17-11.67-27.27-3.23 2.41-10.8 10.93-13.32 15.01-2.51 4.08-3.95 10.43-4.08 17.82s1.05 15.82 3.8 24.06z"/>
      <path id="path5765" sodipodi:nodetypes="ccccccccccccsscccccccccc" style="fill-rule:evenodd;fill:#091104" d="m535.12 431.77c22.11 1.03 44.8 2.45 65.32 11.53 8.73 3.41 18.06 5.86 26.08 10.73 6.7 6.51 16.93 7.28 23.77 13.44 7.24 8.28 17.26 16.66 17.02 28.67 0.29 10.39-10.31 18.36-20.22 17.26-7.27-1.22-14.46 0.3-21.6 1.61-5.99 1.07-12.38 0.9-17.89-1.95-8.5-3.06-19.07 2.72-21.04 10.11-3.17 7.42-14.56 12.59-20.97 14.3-5.15-1.73-16.32-7.55-4.38-12.47 9.8-3.3 8.69-3.14 12.42-5.62 4.01-3.78 1.82-7.45 0.3-11.3-0.7-1.77-0.45-0.32-6.22-4.47-3.49-2.51-11.22-0.48-3.04-8.52 6.26-5.25 14.37-6.42 22.37-4.55 6.48 5.23 14.07 9.25 22.99 7.55 12.57 0.22 25.1-1.85 37.69-1.14 4.37-5.97-1.45-13.12-7.26-15.25-26.3-7.77-53.95-16.29-81.64-11.13-8.71 0.33-16.83 3.97-25.44 4.9-8.84-1.16-11.78-11.41-12.36-19.01-0.4-8.27 0.7-17.93 7.36-23.62 1.94-1.32 4.49-1.9 6.74-1.07z"/>
      <path id="path5554" sodipodi:nodetypes="csssssssssssssssssssssssc" style="fill:#3c5627" d="m593.87 609.91c0-0.12-0.01-0.25-0.02-0.4-0.02-0.14-0.04-0.29-0.07-0.45s-0.06-0.34-0.11-0.52c-0.04-0.18-0.09-0.37-0.15-0.57-0.05-0.2-0.12-0.4-0.19-0.62s-0.14-0.44-0.23-0.67c-0.08-0.24-0.17-0.48-0.27-0.73s-0.2-0.51-0.31-0.77c-0.11-0.27-0.23-0.54-0.35-0.82s-0.25-0.56-0.39-0.86c-0.13-0.29-0.27-0.59-0.42-0.9s-0.3-0.62-0.46-0.94-0.33-0.64-0.5-0.97c-0.17-0.34-0.35-0.67-0.54-1.02-0.18-0.34-0.37-0.69-0.56-1.04-0.2-0.35-0.4-0.71-0.61-1.07-1.65-2.91-4.98-4.62-6.72-8.94-1.33-3.31-6.17-9.98-9.04-13.36-2.87-3.39-4.01-3.99-7.32-7.07-3.32-3.08-6.82-5.92-10.47-8.33-3.65-2.42-7.44-4.41-11.32-5.8s-7.84-2.18-11.83-2.18c-31.95 0-69.62 5.02-60.17 2.93 4.89-1.08 18.47 40.78 20.33 42.22"/>
      <path id="path6260" sodipodi:nodetypes="cccccccccccccccccc" style="opacity:.60280;fill:url(#radialGradient6594)" d="m492.22 596.07c26.65-6.33 56.11-4.85 80.23-19.39 6.63 1.92 13.97 21.06 20.53 25.21 12.17 12.58 28.72 9.06 44.26 4.62 18.93-5.45 35.24-17.94 46.15-34.23 27.49-35.09 31.83-78.41 15.05-128.4-10.69-29.75-45.74-67.55-78.86-64.4-13.18-0.7-43.64 16.32-36.64 44.34-0.11 13.35 26.22 20.44 38.06 10.96 19.78-14.71 25.02-16.96 15.7-2.96-9.22 8.97-23.2 25.13-37.05 18.09-11.56-4-30.54-2.86-33.09-18.31-2.82-24.24 9.13-49.67 31.05-61.18 27.48-15.95 61.85-4.33 84.41 14.91 11.52 10.46 22.42 22.36 31.51 34.91 25.74 37.29 30.53 88.57 13.35 130.85-18.75 49.26-65.59 88.75-119.19 91.8-43.1 3.1-84.86-17.73-115.47-46.82z"/>
      <path id="path4494" sodipodi:nodetypes="ccccccccccccsscccccccccc" style="fill-rule:evenodd;stroke:#000000;stroke-width:.75304px;fill:#5f844e" d="m533.12 429.77c22.11 1.03 44.8 2.45 65.32 11.53 8.73 3.41 18.06 5.86 26.08 10.73 6.7 6.51 16.93 7.28 23.77 13.44 7.24 8.28 17.26 16.66 17.02 28.67 0.29 10.39-10.31 18.36-20.22 17.26-7.27-1.22-14.46 0.3-21.6 1.61-5.99 1.07-12.38 0.9-17.89-1.95-8.5-3.06-19.07 2.72-21.04 10.11-3.17 7.42-14.56 12.59-20.97 14.3-5.15-1.73-16.32-7.55-4.38-12.47 9.8-3.3 8.69-3.14 12.42-5.62 4.01-3.78 1.82-7.45 0.3-11.3-0.7-1.77-0.45-0.32-6.22-4.47-3.49-2.51-11.22-0.48-3.04-8.52 6.26-5.25 14.37-6.42 22.37-4.55 6.48 5.23 14.07 9.25 22.99 7.55 12.57 0.22 25.1-1.85 37.69-1.14 4.37-5.97-1.45-13.12-7.26-15.25-26.3-7.77-53.95-16.29-81.64-11.13-8.71 0.33-16.83 3.97-25.44 4.9-8.84-1.16-11.78-11.41-12.36-19.01-0.4-8.27 0.7-17.93 7.36-23.62 1.94-1.32 4.49-1.9 6.74-1.07z"/>
      <path id="path4683" sodipodi:nodetypes="cccccscsccccccc" style="fill-rule:evenodd;fill:#121808" d="m343.7 364.67c-1.66 25.81-23.04 47.49-25.83 77.96-1.3 17.15-7.85 22.08-10.62 38.94-5.93 16.25-25.98 56.54-33.22 71.84-0.09 13.41-26.86 36.27-20.95 41.66 12.91-1.17 12.73 1.69 12.14 1.27-0.59-0.43 3.91-1.83 8.32-1.49 5.38 6.8 4.16 24.98-3.18 25.42-12.92 0.77-4.6 16.49 6 11.44 18.44 15.91 26.39-53.09 8.58-58.43 10.54-18.82 13.29-16.99 43.69-90.05 15.05-18.64 6.65-42.88 21.95-58.18 10.87-11.78 7.72-32.22 14.6-36.27 15.82-8.59 1.08-8.28-7.03-19.53-4.67-1.96-9.38-5.22-14.45-4.58z"/>
      <path id="path4492" sodipodi:nodetypes="cccccscsccccccc" style="fill-rule:evenodd;stroke:#000000;stroke-width:.75304px;fill:#5f844e" d="m342.34 364.67c-1.66 25.81-23.04 47.49-25.83 77.96-1.3 17.15-7.85 22.08-10.62 38.94-5.92 16.25-25.98 56.54-33.22 71.84-0.09 13.41-26.85 36.27-20.95 41.66 12.91-1.17 12.73 1.69 12.15 1.27-0.59-0.43 3.9-1.83 8.31-1.49 5.39 6.8 4.16 24.98-3.18 25.42-12.91 0.77-4.6 16.49 6 11.44 18.44 15.91 26.39-53.09 8.58-58.43 10.54-18.82 13.29-16.99 43.69-90.05 15.05-18.64 6.65-42.88 21.95-58.18 10.87-11.78 7.73-32.22 14.61-36.27 15.81-8.59 1.07-8.28-7.03-19.53-4.68-1.96-9.38-5.22-14.46-4.58z"/>
      <path id="path4675" style="fill-rule:evenodd;fill:#111d0c" d="m401.78 278.31c16.64-3.46 28.71 15.78 44.77 16.58 11.84 1.23 23.52-2.65 35.38-2.25 10.7 0.31 21.95-2.17 32 3.57 9.18 4.57 23.41 13.61 19.24 28.5-4.08 11.59-8.51 23.01-10.12 35.64-4.5 15.53-10.86 32.08-7.13 48.93 0.94 15.12-5.87 29.19-4.82 44.32-2.79 10.75 0.37 21.21 2.87 31.37 0.19 14.88-6.61 30.4-17.29 37.6-7.21 4.76-17.36 4.28-21.35-6.07-0.58-13.99 15.81-9.7 17.97-19.55 4.95-10.3 3.1-26.05-9.12-24.52-10.61 0.17-19.6 9.15-25.72 19.14-8.91 10.6-14.88-12.51-7.95-19.21 7.57-11.11 19.36-13.9 30.28-16.69 10.87-4.36 10.37-20.82 12.01-32.23 1.47-14.23 1.77-28.72 4.39-42.71 0.23-15.65 4.31-32.03-0.04-47.21-7.12-7.66-18.02-3.32-26.78-4.9-12.58 0.48-25.16-0.54-37.58-2.85-13.06-0.03-24.46 9.89-37.26 11.39-13.66-0.8-18.93-20.15-16.96-34.4 2.19-12.38 9.73-25.7 21.25-23.98l1.96-0.47z"/>
      <path id="path4541" style="fill-rule:evenodd;stroke:#000000;stroke-width:.75304px;fill:#5f844e" d="m400.42 279.98c16.64-3.45 28.71 15.78 44.78 16.58 11.83 1.23 23.51-2.64 35.37-2.25 10.71 0.31 21.96-2.17 32 3.57 9.19 4.57 23.41 13.61 19.24 28.51-4.08 11.58-8.51 23-10.12 35.63-4.5 15.53-10.86 32.08-7.13 48.93 0.94 15.12-5.87 29.19-4.82 44.33-2.79 10.74 0.37 21.21 2.88 31.36 0.18 14.88-6.62 30.4-17.29 37.6-7.21 4.76-17.37 4.28-21.36-6.07-0.58-13.98 15.81-9.7 17.97-19.55 4.95-10.3 3.1-26.05-9.11-24.52-10.62 0.17-19.61 9.15-25.72 19.14-8.92 10.6-14.88-12.5-7.95-19.21 7.56-11.11 19.36-13.9 30.27-16.69 10.87-4.36 10.37-20.82 12.02-32.23 1.46-14.23 1.76-28.72 4.38-42.71 0.24-15.65 4.31-32.03-0.04-47.21-7.12-7.66-18.02-3.32-26.78-4.9-12.57 0.48-25.15-0.54-37.58-2.85-13.06-0.03-24.46 9.89-37.26 11.39-13.66-0.8-18.93-20.15-16.96-34.4 2.19-12.38 9.73-25.7 21.26-23.98l1.95-0.47z"/>
      <path id="path6311" sodipodi:nodetypes="cccccccccc" style="fill-rule:evenodd;stroke:#000000;stroke-width:1px;fill:#161412" d="m512.76 530.88c7.65 30.46 23.24 43.42 14.64 73.32 3.5 4.44 13.14 1.31 14.4-1.15 1.82-10.67-0.91-11.21 9.88-14.96 4.63-2.23 8.29-2.1 13-3.2 6.84-1.81 16.99 0.56 15.25-6.59-9.29-3.58-25.56-11.93-32.77-19.96-10.74-8.93-24.38-29.48-25.43-43.22-0.16-6.88-0.31 0.6-3.1 5.94-0.63 8.27-3.07 9.57-5.87 9.82z"/>
      <path id="path6300" sodipodi:nodetypes="cccccccccc" style="fill-rule:evenodd;stroke:#000000;stroke-width:1px;fill:#3f2409" d="m510.76 528.88c7.65 30.46 23.24 43.42 14.64 73.32 3.5 4.44 13.14 1.31 14.4-1.15 1.82-10.67-0.91-11.21 9.88-14.96 4.63-2.23 8.29-2.1 13-3.2 6.84-1.81 16.99 0.56 15.25-6.59-9.29-3.58-25.56-11.93-32.77-19.96-10.74-8.93-24.38-29.48-25.43-43.22-0.16-6.88-0.31 0.6-3.1 5.94-0.63 8.27-3.07 9.57-5.87 9.82z"/>
      <path id="path6313" style="opacity:.66355;fill-rule:evenodd;fill:url(#linearGradient6596)" d="m400.42 279.98c16.64-3.45 28.71 15.78 44.78 16.58 11.83 1.23 23.51-2.64 35.37-2.25 10.71 0.31 21.96-2.17 32 3.57 9.19 4.57 23.41 13.61 19.24 28.51-4.08 11.58-8.51 23-10.12 35.63-4.5 15.53-10.86 32.08-7.13 48.93 0.94 15.12-5.87 29.19-4.82 44.33-2.79 10.74 0.37 21.21 2.88 31.36 0.18 14.88-6.62 30.4-17.29 37.6-7.21 4.76-17.37 4.28-21.36-6.07-0.58-13.98 15.81-9.7 17.97-19.55 4.95-10.3 3.1-26.05-9.11-24.52-10.62 0.17-19.61 9.15-25.72 19.14-8.92 10.6-14.88-12.5-7.95-19.21 7.56-11.11 19.36-13.9 30.27-16.69 10.87-4.36 10.37-20.82 12.02-32.23 1.46-14.23 1.76-28.72 4.38-42.71 0.24-15.65 4.31-32.03-0.04-47.21-7.12-7.66-18.02-3.32-26.78-4.9-12.57 0.48-25.15-0.54-37.58-2.85-13.06-0.03-24.46 9.89-37.26 11.39-13.66-0.8-18.93-20.15-16.96-34.4 2.19-12.38 9.73-25.7 21.26-23.98l1.95-0.47z"/>
      <path id="path6323" sodipodi:nodetypes="cccccscsccccccc" style="fill-rule:evenodd;fill:url(#radialGradient6598)" d="m342.34 364.67c-1.66 25.81-23.04 47.49-25.83 77.96-1.3 17.15-7.85 22.08-10.62 38.94-5.92 16.25-25.98 56.54-33.22 71.84-0.09 13.41-26.85 36.27-20.95 41.66 12.91-1.17 12.73 1.69 12.15 1.27-0.59-0.43 3.9-1.83 8.31-1.49 5.39 6.8 4.16 24.98-3.18 25.42-12.91 0.77-4.6 16.49 6 11.44 18.44 15.91 26.39-53.09 8.58-58.43 10.54-18.82 13.29-16.99 43.69-90.05 15.05-18.64 6.65-42.88 21.95-58.18 10.87-11.78 7.73-32.22 14.61-36.27 15.81-8.59 1.07-8.28-7.03-19.53-4.68-1.96-9.38-5.22-14.46-4.58z"/>
      <path id="path6337" sodipodi:nodetypes="ccccscccsc" style="fill-rule:evenodd;stroke:#000000;stroke-width:.75304px;fill:url(#radialGradient6600)" d="m378.61 516.2c6.94 28.93-21.01 32.58-29.5 50.82-4.14 39.11 39.6-45.7 29.28 2.57-4.48 43.27 31.42-22.81 16.08-39.06-4.34-14.62-5.78-21.84-4.12-27.24s5.48-9.37 13.53-16.71c-5.02-10.52-8.36-20.17-11.67-27.27-3.23 2.41-10.8 10.93-13.32 15.01-2.51 4.08-3.95 10.43-4.08 17.82s1.05 15.82 3.8 24.06z"/>
      <path id="path6347" sodipodi:nodetypes="ccccccccccccsscccccccccc" style="fill-rule:evenodd;fill:url(#radialGradient6602)" d="m533.12 429.77c22.11 1.03 44.8 2.45 65.32 11.53 8.73 3.41 18.06 5.86 26.08 10.73 6.7 6.51 16.93 7.28 23.77 13.44 7.24 8.28 17.26 16.66 17.02 28.67 0.29 10.39-10.31 18.36-20.22 17.26-7.27-1.22-14.46 0.3-21.6 1.61-5.99 1.07-12.38 0.9-17.89-1.95-8.5-3.06-19.07 2.72-21.04 10.11-3.17 7.42-14.56 12.59-20.97 14.3-5.15-1.73-16.32-7.55-4.38-12.47 9.8-3.3 8.69-3.14 12.42-5.62 4.01-3.78 1.82-7.45 0.3-11.3-0.7-1.77-0.45-0.32-6.22-4.47-3.49-2.51-11.22-0.48-3.04-8.52 6.26-5.25 14.37-6.42 22.37-4.55 6.48 5.23 14.07 9.25 22.99 7.55 12.57 0.22 25.1-1.85 37.69-1.14 4.37-5.97-1.45-13.12-7.26-15.25-26.3-7.77-53.95-16.29-81.64-11.13-8.71 0.33-16.83 3.97-25.44 4.9-8.84-1.16-11.78-11.41-12.36-19.01-0.4-8.27 0.7-17.93 7.36-23.62 1.94-1.32 4.49-1.9 6.74-1.07z"/>
      <path id="path6357" style="stroke:#000000;stroke-width:1px;fill:none" d="m85.002 519.17c-0.997 4.4 3.565 9.02 5.231 15.69 1.773 7.09 7.593 15.44 13.077 20.92 5.25 5.25 11.01 13.63 14.39 17 5.62 5.62 8.99 8.05 15.69 13.08 6.24 4.68 8.15-0.1 10.46 9.15 2.13 8.54-0.28 9.67 6.54 13.08 2.34 1.17 3.59 1.8 5.23 2.62"/>
      <path id="path6359" style="fill-rule:evenodd;stroke:#000000;stroke-width:.86427px;fill:#3f2409" d="m208.48 630.08c8.34 3.24 21.9 12.15 32.07 18.92 7.77 5.17 9.49 4.57 11.55 10.95 1.52 4.73 4.64 10.45 6.41 15.93 1.48 4.58 4.52 6.03 7.7 10.96 2.6 4.04 8.38 6.5 11.54 8.96 4.25 3.3 7.03 5.45 10.27 7.96 4.16 3.23 4.85 5.76 8.98 8.96 5.26 4.09 3.85 5.81 3.85 7.97 0 0.99-16.85-1.77-17.96-1.99-7.39-1.44-15.99-2.85-21.81-3.98-6.75-1.31-12.78 1.23-16.68 1.99-5.41 1.05-11.07 1.99-17.96 1.99-5.08 0-11.31-1-17.96-1-5.08 0-11.31-0.99-17.96-0.99-4.98 0-12.12-1-17.97-1h-19.24c-6.42 0-12.39-1.08-17.96 0-6.42 1.25-7.88-4.55-8.98-7.96-1.51-4.68 1.28-8.75 1.28-13.94v-14.94c0-4.93-4.18-9.31-7.7-12.94-4.01-4.15-6.28-5.58-7.69-9.96-1.5-4.66-6.14-9.08-7.7-13.94-1.81-5.63-3.08-11.75-6.416-16.93-2.897-4.49-7.109-8.04-8.98-10.95-2.375-3.69-4.151-6.44-6.415-9.96-2.922-4.53-5.507-9.35-8.98-12.94-3.345-3.46-7.195-7.58-10.264-9.96-4.913-3.81-7.934-5.16-11.546-7.96-4.036-3.14-5.037-5.9-8.981-8.96-2.215-1.72-4.366-8.58-5.131-10.96-1.546-4.8 0.901-7.77 2.565-12.94 1.433-4.45 3.718-7.56 5.132-11.95 1.488-4.62 1.139-9.51 2.566-13.94 1.491-4.63 0-11.1 0-15.93 0-5.11 1.86-8.41 5.132-10.95 1.41-1.1 21.142 16.41 23.093 17.92 4.62 3.59 8.693 13.05 10.263 17.92 1.67 5.19 9.006 7.99 11.546 9.96 4.036 3.13 11.906 5.94 15.396 7.96 2.08 1.22 5.23 8.12 6.41 9.96 0.98 1.52 1.73 2.01 2.57 2.99"/>
      <path id="path6361" style="fill-rule:evenodd;fill:url(#radialGradient6604)" d="m210.48 632.08c8.34 3.24 21.9 12.15 32.07 18.92 7.77 5.17 9.49 4.57 11.55 10.95 1.52 4.73 4.64 10.45 6.41 15.93 1.48 4.58 4.52 6.03 7.7 10.96 2.6 4.04 8.38 6.5 11.54 8.96 4.25 3.3 7.03 5.45 10.27 7.96 4.16 3.23 4.85 5.76 8.98 8.96 5.26 4.09 3.85 5.81 3.85 7.97 0 0.99-16.85-1.77-17.96-1.99-7.39-1.44-15.99-2.85-21.81-3.98-6.75-1.31-12.78 1.23-16.68 1.99-5.41 1.05-11.07 1.99-17.96 1.99-5.08 0-11.31-1-17.96-1-5.08 0-11.31-0.99-17.96-0.99-4.98 0-12.12-1-17.97-1h-19.24c-6.42 0-12.39-1.08-17.96 0-6.42 1.25-7.88-4.55-8.98-7.96-1.51-4.68 1.28-8.75 1.28-13.94v-14.94c0-4.93-4.18-9.31-7.7-12.94-4.01-4.15-6.28-5.58-7.69-9.96-1.5-4.66-6.14-9.08-7.7-13.94-1.81-5.63-3.08-11.75-6.42-16.93-2.893-4.49-7.105-8.04-8.976-10.95-2.375-3.69-4.151-6.44-6.415-9.96-2.922-4.53-5.507-9.35-8.98-12.94-3.345-3.46-7.195-7.58-10.264-9.96-4.913-3.81-7.934-5.16-11.546-7.96-4.036-3.14-5.037-5.9-8.981-8.96-2.215-1.72-4.366-8.58-5.131-10.96-1.546-4.8 0.901-7.77 2.565-12.94 1.433-4.45 3.718-7.56 5.132-11.95 1.488-4.62 1.139-9.51 2.566-13.94 1.491-4.63 0-11.1 0-15.93 0-5.11 1.86-8.41 5.132-10.95 1.41-1.1 21.142 16.41 23.093 17.92 4.62 3.59 8.693 13.05 10.263 17.92 1.67 5.19 9.006 7.99 11.542 9.96 4.04 3.13 11.91 5.94 15.4 7.96 2.08 1.22 5.23 8.12 6.41 9.96 0.98 1.52 1.73 2.01 2.57 2.99"/>
    </g>
  </g>
  <metadata>
    <rdf:RDF>
      <cc:Work>
        <dc:format>image/svg+xml</dc:format>
        <dc:type rdf:resource="http://purl.org/dc/dcmitype/StillImage"/>
        <cc:license rdf:resource="http://creativecommons.org/licenses/publicdomain/"/>
        <dc:publisher>
          <cc:Agent rdf:about="http://openclipart.org/">
            <dc:title>Openclipart</dc:title>
          </cc:Agent>
        </dc:publisher>
        <dc:title>Green chameleon</dc:title>
        <dc:date>2006-12-19T13:20:10</dc:date>
        <dc:description/>
        <dc:source>https://openclipart.org/detail/2152/green-chameleon-by-lamatin</dc:source>
        <dc:creator>
          <cc:Agent>
            <dc:title>lamatin</dc:title>
          </cc:Agent>
        </dc:creator>
        <dc:subject>
          <rdf:Bag>
            <rdf:li>animal</rdf:li>
            <rdf:li>branch</rdf:li>
            <rdf:li>chameleon</rdf:li>
            <rdf:li>climb</rdf:li>
            <rdf:li>eye</rdf:li>
            <rdf:li>green</rdf:li>
            <rdf:li>tree</rdf:li>
          </rdf:Bag>
        </dc:subject>
      </cc:Work>
      <cc:License rdf:about="http://creativecommons.org/licenses/publicdomain/">
        <cc:permits rdf:resource="http://creativecommons.org/ns#Reproduction"/>
        <cc:permits rdf:resource="http://creativecommons.org/ns#Distribution"/>
        <cc:permits rdf:resource="http://creativecommons.org/ns#DerivativeWorks"/>
      </cc:License>
    </rdf:RDF>
  </metadata>
</svg>