<?xml version="1.0" encoding="UTF-8" standalone="no"?>
<!-- Created with Inkscape (http://www.inkscape.org/) -->
<svg xmlns:dc="http://purl.org/dc/elements/1.1/" xmlns:cc="http://creativecommons.org/ns#" xmlns:rdf="http://www.w3.org/1999/02/22-rdf-syntax-ns#" xmlns:svg="http://www.w3.org/2000/svg" xmlns="http://www.w3.org/2000/svg" xmlns:sodipodi="http://sodipodi.sourceforge.net/DTD/sodipodi-0.dtd" xmlns:inkscape="http://www.inkscape.org/namespaces/inkscape" id="svg14779" version="1.1" inkscape:version="0.48+devel r12701" width="455.10751" height="304.521" xml:space="preserve" sodipodi:docname="Pteranodon_with_Fish.svg"><title id="title4309">Pteranodon with Fish</title><metadata id="metadata14785"><rdf:RDF><cc:Work rdf:about=""><dc:format>image/svg+xml</dc:format><dc:type rdf:resource="http://purl.org/dc/dcmitype/StillImage"/><dc:title>Pteranodon with Fish</dc:title><dc:date>12/01/2013</dc:date><dc:creator><cc:Agent><dc:title>edited by Paul Sherman</dc:title></cc:Agent></dc:creator><dc:rights><cc:Agent><dc:title>PD</dc:title></cc:Agent></dc:rights><dc:publisher><cc:Agent><dc:title>WPClipart</dc:title></cc:Agent></dc:publisher><dc:subject><rdf:Bag><rdf:li>Pteranodon</rdf:li><rdf:li>dinosaur</rdf:li><rdf:li>animal</rdf:li><rdf:li>extinct</rdf:li><rdf:li>fish</rdf:li></rdf:Bag></dc:subject><cc:license rdf:resource="http://creativecommons.org/publicdomain/zero/1.0/"/></cc:Work><cc:License rdf:about="http://creativecommons.org/publicdomain/zero/1.0/"><cc:permits rdf:resource="http://creativecommons.org/ns#Reproduction"/><cc:permits rdf:resource="http://creativecommons.org/ns#Distribution"/><cc:permits rdf:resource="http://creativecommons.org/ns#DerivativeWorks"/></cc:License></rdf:RDF></metadata><defs id="defs14783"/><sodipodi:namedview pagecolor="#ffffff" bordercolor="#666666" borderopacity="1" objecttolerance="10" gridtolerance="10" guidetolerance="10" inkscape:pageopacity="0" inkscape:pageshadow="2" inkscape:window-width="1261" inkscape:window-height="989" id="namedview14781" showgrid="false" inkscape:zoom="1.09" inkscape:cx="205.34134" inkscape:cy="82.717718" inkscape:window-x="61" inkscape:window-y="0" inkscape:window-maximized="0" inkscape:current-layer="g14787" fit-margin-top="4" fit-margin-left="4" fit-margin-right="4" fit-margin-bottom="4"/><g id="g14787" inkscape:groupmode="layer" inkscape:label="Pteranodon_1" transform="matrix(1.25,0,0,-1.25,179.94953,299.92827)"><g id="g4182"><g transform="matrix(0.39642752,0,0,0.4572799,-141.3001,-0.04581956)" id="g14789"><path inkscape:connector-curvature="0" id="path14791" style="fill:#8c849b;fill-opacity:1;fill-rule:nonzero;stroke:none" d="M 93.5547,106.066 C 90.9141,99.5234 77.3711,91.3711 70.3672,84.8281 c -4.3633,3.3282 -3.1016,8.7227 -2.0664,14.2344 5.625,7.0035 11.1328,13.8905 16.7578,20.7815 0.4609,-5.168 8.0352,-8.614 8.4961,-13.778"/><path inkscape:connector-curvature="0" id="path14793" style="fill:none;stroke:none" d="M 93.5547,106.066 C 90.9141,99.5234 77.3711,91.3711 70.3672,84.8281 c -4.3633,3.3282 -3.1016,8.7227 -2.0664,14.2344 5.625,7.0035 11.1328,13.8905 16.7578,20.7815 0.4609,-5.168 8.0352,-8.614 8.4961,-13.778 z"/><path inkscape:connector-curvature="0" id="path14795" style="fill:#958ca6;fill-opacity:1;fill-rule:nonzero;stroke:none" d="M 93.5547,106.523 C 91.0273,100.324 77.9414,92.4023 71.2852,86.2031 c -4.2461,3.2149 -3.0977,8.2657 -2.0664,13.6641 5.3945,6.6558 10.789,13.3168 16.1835,19.9768 0.461,-4.938 7.6915,-8.383 8.1524,-13.321"/><path inkscape:connector-curvature="0" id="path14797" style="fill:#9e95b0;fill-opacity:1;fill-rule:nonzero;stroke:none" d="M 93.5547,107.098 C 91.1445,101.016 78.6328,93.5508 72.0898,87.4688 c -4.0195,3.0976 -2.871,8.0351 -1.8359,13.1992 5.1641,6.43 10.3281,12.859 15.3789,19.176 0.5742,-4.707 7.461,-8.039 7.9219,-12.746"/><path inkscape:connector-curvature="0" id="path14799" style="fill:#a89fbc;fill-opacity:1;fill-rule:nonzero;stroke:none" d="M 93.5547,107.559 C 91.2578,101.816 79.207,94.5859 73.0078,88.8438 c -3.9023,2.9882 -2.7539,7.6914 -1.8359,12.6292 4.9336,6.086 9.8711,12.285 14.8047,18.371 0.4609,-4.594 7.1172,-7.696 7.5781,-12.285"/><path inkscape:connector-curvature="0" id="path14801" style="fill:#66526c;fill-opacity:1;fill-rule:nonzero;stroke:none" d="m 392.922,264.953 c -5.625,5.969 -2.524,8.149 1.148,11.25 2.297,1.262 4.707,2.297 8.153,2.067 7.804,8.265 17.445,12.398 23.414,24.796 2.871,-1.953 -2.637,-9.757 -1.492,-13.546 5.398,4.132 9.3,8.382 12.398,12.859 1.836,-2.758 -4.82,-9.531 -6.887,-14.465 3.672,3.559 8.035,6.887 11.707,10.332 0.461,-3.676 -5.738,-8.957 -8.609,-13.547 3.332,2.871 6.43,5.856 9.758,8.61 0.918,-3.559 -5.508,-8.379 -6.199,-12.286 1.953,1.036 4.25,2.411 6.085,3.446 -1.148,-5.051 -5.742,-9.528 -12.168,-13.66 -7.46,-1.84 -15.152,-4.825 -23.417,-5.512 -3.903,0.918 -8.493,0.805 -13.891,-0.344"/><path inkscape:connector-curvature="0" id="path14803" style="fill:none;stroke:#231f20;stroke-width:0.89999998;stroke-linecap:butt;stroke-linejoin:miter;stroke-miterlimit:4;stroke-opacity:1;stroke-dasharray:none" d="m 392.922,264.953 c -5.625,5.969 -2.524,8.149 1.148,11.25 2.297,1.262 4.707,2.297 8.153,2.067 7.804,8.265 17.445,12.398 23.414,24.796 2.871,-1.953 -2.637,-9.757 -1.492,-13.546 5.398,4.132 9.3,8.382 12.398,12.859 1.836,-2.758 -4.82,-9.531 -6.887,-14.465 3.672,3.559 8.035,6.887 11.707,10.332 0.461,-3.676 -5.738,-8.957 -8.609,-13.547 3.332,2.871 6.43,5.856 9.758,8.61 0.918,-3.559 -5.508,-8.379 -6.199,-12.286 1.953,1.036 4.25,2.411 6.085,3.446 -1.148,-5.051 -5.742,-9.528 -12.168,-13.66 -7.46,-1.84 -15.152,-4.825 -23.417,-5.512 -3.903,0.918 -8.493,0.805 -13.891,-0.344 z"/><path inkscape:connector-curvature="0" id="path14805" style="fill:#6d5874;fill-opacity:1;fill-rule:nonzero;stroke:none" d="m 394.988,266.215 c -5.394,5.512 -2.41,7.578 0.918,10.449 2.184,1.031 4.481,2.063 7.692,1.836 7.234,7.574 16.187,11.363 21.695,22.844 2.641,-1.949 -2.41,-9.071 -1.262,-12.629 4.938,3.789 8.496,7.691 11.481,11.828 1.718,-2.527 -4.477,-8.84 -6.43,-13.32 3.445,3.215 7.461,6.316 10.906,9.531 0.457,-3.445 -5.281,-8.383 -7.922,-12.516 2.985,2.528 5.969,5.399 8.954,7.922 0.918,-3.328 -5.051,-7.805 -5.625,-11.363 1.722,0.918 3.902,2.18 5.625,3.211 -1.032,-4.707 -5.282,-8.84 -11.25,-12.625 -7,-1.723 -14.235,-4.363 -21.922,-4.938 -3.676,0.805 -7.922,0.688 -12.86,-0.23"/><path inkscape:connector-curvature="0" id="path14807" style="fill:#765f7d;fill-opacity:1;fill-rule:nonzero;stroke:none" d="m 396.941,267.477 c -5.05,5.168 -2.296,7.003 0.805,9.531 2.067,1.031 4.133,1.836 7.117,1.719 6.657,6.89 15.035,10.336 20.086,20.781 2.41,-1.723 -2.179,-8.266 -1.148,-11.594 4.594,3.441 7.922,7.117 10.562,10.789 1.606,-2.297 -4.019,-8.035 -5.855,-12.168 3.215,2.985 6.887,5.738 10.101,8.61 0.461,-3.098 -4.937,-7.575 -7.347,-11.364 2.871,2.293 5.511,4.821 8.379,7.231 0.804,-3.098 -4.703,-7.117 -5.278,-10.446 1.723,0.801 3.672,2.067 5.278,2.868 -0.918,-4.246 -4.821,-8.036 -10.446,-11.477 -6.425,-1.496 -13.086,-3.906 -20.203,-4.363 -3.441,0.801 -7.461,0.687 -12.051,-0.117"/><path inkscape:connector-curvature="0" id="path14809" style="fill:#7e6687;fill-opacity:1;fill-rule:nonzero;stroke:none" d="m 399.008,268.625 c -4.707,4.824 -2.18,6.43 0.687,8.84 1.836,0.918 3.672,1.609 6.543,1.379 6.086,6.312 13.66,9.297 18.254,18.941 2.41,-1.605 -1.953,-7.578 -0.922,-10.562 4.25,3.101 7.235,6.316 9.758,9.757 1.492,-2.179 -3.785,-7.343 -5.394,-11.132 2.984,2.64 6.429,5.164 9.296,7.804 0.348,-2.871 -4.476,-6.886 -6.656,-10.332 2.524,2.067 5.051,4.364 7.578,6.43 0.801,-2.754 -4.25,-6.43 -4.707,-9.414 1.493,0.805 3.328,1.836 4.821,2.527 -0.805,-3.906 -4.477,-7.234 -9.528,-10.336 -5.968,-1.375 -12.054,-3.441 -18.711,-3.785 -3.097,0.688 -6.773,0.688 -11.019,-0.117"/><path inkscape:connector-curvature="0" id="path14811" style="fill:#ba151b;fill-opacity:1;fill-rule:nonzero;stroke:none" d="m 148.195,83.5625 1.606,-30.4219 11.25,10.6758 13.89,-3.2109 -11.25,21.3515 -15.496,1.6055"/><path inkscape:connector-curvature="0" id="path14813" style="fill:none;stroke:#231f20;stroke-width:0.89999998;stroke-linecap:butt;stroke-linejoin:miter;stroke-miterlimit:4;stroke-opacity:1;stroke-dasharray:none" d="m 148.195,83.5625 1.606,-30.4219 11.25,10.6758 13.89,-3.2109 -11.25,21.3515 -15.496,1.6055 z"/><path inkscape:connector-curvature="0" id="path14815" style="fill:#765f7d;fill-opacity:1;fill-rule:nonzero;stroke:#000000;stroke-width:2.63054096;stroke-miterlimit:4;stroke-opacity:1;stroke-dasharray:none" d="M 186.074,333.488 C 124.316,390.203 57.168,460 2.87109,516.715 23.5313,457.59 54.4102,385.266 86.207,329.586 c 18.023,-23.648 35.012,-47.184 56.938,-70.832 19.628,-21.469 42.242,-42.938 69.214,-64.406 49.477,32.605 107.672,62.34 157.149,94.941 -18.137,5.512 -29.961,2.414 -29.848,11.941 -19.855,-15.613 -84.828,1.836 -153.586,32.258"/><path inkscape:connector-curvature="0" id="path14817" style="fill:none;stroke:#231f20;stroke-width:0.9000208;stroke-linecap:butt;stroke-linejoin:miter;stroke-miterlimit:4;stroke-opacity:1;stroke-dasharray:none" d="M 186.074,333.488 C 124.316,390.203 57.168,460 2.87109,516.715 23.5313,457.59 54.4102,385.266 86.207,329.586 c 18.023,-23.648 35.012,-47.184 56.938,-70.832 19.628,-21.469 42.242,-42.938 69.214,-64.406 49.477,32.605 107.672,62.34 157.149,94.941 -18.137,5.512 -29.961,2.414 -29.848,11.941 -19.855,-15.613 -84.828,1.836 -153.586,32.258 z"/><path inkscape:connector-curvature="0" id="path14819" style="fill:#846b8d;fill-opacity:1;fill-rule:nonzero;stroke:none" d="M 186.074,317.301 C 136.027,363.34 81.3867,420.051 37.3086,466.086 c 16.7578,-48.102 41.8984,-106.766 67.7264,-152 14.574,-19.172 28.352,-38.344 46.145,-57.516 15.953,-17.449 34.32,-34.898 56.246,-52.347 40.176,26.519 87.469,50.742 127.527,77.144 -14.691,4.481 -24.219,1.953 -24.105,9.645 -16.184,-12.629 -68.989,1.492 -124.774,26.289"/><path inkscape:connector-curvature="0" id="path14821" style="fill:#886f92;fill-opacity:1;fill-rule:nonzero;stroke:none" d="m 187.105,313.055 c -45.683,41.902 -95.3862,93.562 -135.562,135.582 15.2656,-43.856 38.1093,-97.239 61.641,-138.453 13.316,-17.45 25.828,-35.016 42.129,-52.465 14.46,-15.844 31.222,-31.684 51.195,-47.641 36.617,24.106 79.664,46.149 116.164,70.258 -13.313,4.019 -22.039,1.836 -21.926,8.84 -14.691,-11.481 -62.789,1.379 -113.641,23.879"/><path inkscape:connector-curvature="0" id="path14823" style="fill:#8d7398;fill-opacity:1;fill-rule:nonzero;stroke:none" d="m 188.027,308.809 c -41.211,37.882 -85.98,84.492 -122.2497,122.379 13.7735,-39.493 34.3207,-87.825 55.6717,-125.02 11.938,-15.73 23.301,-31.457 37.879,-47.301 13.086,-14.234 28.238,-28.586 46.262,-42.937 33.058,21.812 71.855,41.675 104.914,63.371 -12.168,3.676 -19.973,1.609 -19.856,7.922 -13.316,-10.332 -56.707,1.265 -102.621,21.586"/><path inkscape:connector-curvature="0" id="path14825" style="fill:#93789f;fill-opacity:1;fill-rule:nonzero;stroke:none" d="m 189.059,304.559 c -36.731,33.754 -76.793,75.425 -109.1645,109.179 12.3985,-35.246 30.7615,-78.297 49.7035,-111.476 10.675,-14.004 20.777,-28.125 33.863,-42.133 11.707,-12.856 25.137,-25.598 41.211,-38.457 29.5,19.516 64.051,37.195 93.551,56.598 -10.789,3.214 -17.793,1.492 -17.676,7.117 -11.824,-9.297 -50.625,1.035 -91.488,19.172"/><path inkscape:connector-curvature="0" id="path14827" style="fill:#7e6687;fill-opacity:1;fill-rule:nonzero;stroke:none" d="m 273.086,296.293 c -21.469,14.465 -105.723,18.941 -130.633,-1.148 31.684,-0.231 108.82,5.625 115.02,-15.383 0.574,-8.035 10.906,-15.844 15.613,16.531"/><path inkscape:connector-curvature="0" id="path14829" style="fill:#6b5671;fill-opacity:1;fill-rule:nonzero;stroke:none" d="m 223.496,252.668 c -11.594,11.02 -21.926,25.945 -35.125,30.078 -0.117,-11.937 -4.707,-14.578 -4.824,-26.519 9.875,-17.563 24.566,-41.215 34.437,-58.778 20.895,10.563 29.848,32.375 5.512,55.219"/><path inkscape:connector-curvature="0" id="path14831" style="fill:#725c79;fill-opacity:1;fill-rule:nonzero;stroke:none" d="m 222.234,251.75 c -10.906,11.594 -21.812,24.914 -33.75,31.801 0.575,-11.367 -3.214,-14.352 -2.64,-25.602 9.871,-17.566 23.992,-36.851 33.863,-54.418 16.875,10.219 22.727,27.438 2.527,48.219"/><path inkscape:connector-curvature="0" id="path14833" style="fill:#7a6382;fill-opacity:1;fill-rule:nonzero;stroke:none" d="m 220.969,250.945 c -10.215,12.055 -21.696,23.649 -32.485,33.293 1.262,-10.562 -1.605,-13.89 -0.343,-24.566 9.757,-17.567 23.531,-32.488 33.289,-50.055 12.855,9.875 15.609,22.617 -0.461,41.328"/><path inkscape:connector-curvature="0" id="path14835" style="fill:#826a8c;fill-opacity:1;fill-rule:nonzero;stroke:none" d="m 219.707,250.145 c -9.527,12.398 -21.578,22.5 -31.223,34.898 2.067,-9.988 -0.113,-13.547 1.954,-23.648 9.753,-17.567 23.07,-28.129 32.714,-45.579 8.723,9.414 8.493,17.68 -3.445,34.329"/><path inkscape:connector-curvature="0" id="path14837" style="fill:#6b5671;fill-opacity:1;fill-rule:nonzero;stroke:none" d="m 187.453,284.699 c -11.824,4.821 -23.762,3.903 -38.226,1.492 -19.743,15.27 -39.946,38.231 -60.1489,62.223 -8.0351,5.625 -8.0351,-2.41 -0.2304,-24.223 17.1053,-24.796 37.5353,-45.921 55.2153,-65.437 13.773,5.051 25.828,4.246 44.421,-4.133 2.297,11.481 5.969,27.895 -1.031,30.078"/><path inkscape:connector-curvature="0" id="path14839" style="fill:#725c79;fill-opacity:1;fill-rule:nonzero;stroke:none" d="m 187.68,284.355 c -10.446,4.36 -26.973,3.559 -39.602,1.606 -17.445,13.891 -38.566,36.277 -56.4764,57.977 -7.1172,5.164 -6.4258,-0.805 0.5742,-20.321 15.1522,-22.273 35.1252,-44.66 50.8512,-62.222 12.055,4.246 29.274,3.902 45.688,-3.907 3.215,6.891 5.855,22.848 -1.035,26.867"/><path inkscape:connector-curvature="0" id="path14841" style="fill:#7a6382;fill-opacity:1;fill-rule:nonzero;stroke:none" d="m 187.91,284.008 c -9.066,4.019 -30.187,3.215 -41.094,1.722 -15.152,12.629 -37.078,34.329 -52.8043,53.727 -6.082,4.707 -4.7031,0.922 1.6094,-16.301 13.0859,-19.859 32.5979,-43.394 46.2579,-59.121 10.332,3.442 32.945,3.672 47.066,-3.558 4.133,2.179 5.739,17.562 -1.035,23.531"/><path inkscape:connector-curvature="0" id="path14843" style="fill:#826a8c;fill-opacity:1;fill-rule:nonzero;stroke:none" d="m 188.027,283.551 c -7.578,3.789 -33.289,2.871 -42.359,1.949 -12.855,11.254 -35.813,32.492 -49.1289,49.48 -5.1641,4.133 -3.0977,2.528 2.4101,-12.398 11.2498,-17.332 30.1918,-42.133 41.8988,-56.023 8.609,2.757 36.386,3.445 48.441,-3.215 4.82,-2.41 5.508,12.398 -1.262,20.207"/><path inkscape:connector-curvature="0" id="path14845" style="fill:#846b8d;fill-opacity:1;fill-rule:nonzero;stroke:#000000;stroke-width:2.63054096;stroke-miterlimit:4;stroke-opacity:1;stroke-dasharray:none" d="m 362.16,284.469 6.887,1.379 c 16.644,-8.84 10.219,-6.66 41.555,-5.168 3.328,-15.039 34.089,-37.883 37.304,-52.809 C 552.367,123.629 739.473,52.3398 903.16,1.13672 738.668,-4.03125 511.73,33.3945 362.16,89.9922 336.219,126.844 303.387,153.137 255.406,155.66 c -6.543,13.317 -12.972,26.633 -19.398,39.953 25.941,39.606 77.254,63.485 126.152,88.856"/><path inkscape:connector-curvature="0" id="path14847" style="fill:none;stroke:#231f20;stroke-width:0.89999998;stroke-linecap:butt;stroke-linejoin:miter;stroke-miterlimit:4;stroke-opacity:1;stroke-dasharray:none" d="m 362.16,284.469 6.887,1.379 c 16.644,-8.84 10.219,-6.66 41.555,-5.168 3.328,-15.039 34.089,-37.883 37.304,-52.809 C 552.367,123.629 739.473,52.3398 903.16,1.13672 738.668,-4.03125 511.73,33.3945 362.16,89.9922 336.219,126.844 303.387,153.137 255.406,155.66 c -6.543,13.317 -12.972,26.633 -19.398,39.953 25.941,39.606 77.254,63.485 126.152,88.856 z"/><path inkscape:connector-curvature="0" id="path14849" style="fill:#8f759a;fill-opacity:1;fill-rule:nonzero;stroke:none" d="m 372.375,268.168 5.168,0.918 c 12.625,-6.66 7.691,-5.051 31.449,-3.902 2.414,-11.254 40.18,-44.43 42.59,-55.797 C 530.324,130.75 662.793,71.1641 786.305,32.5938 662.219,28.6875 499.676,62.6719 386.84,105.375 c -19.516,27.898 -44.195,47.645 -80.469,49.598 -4.933,9.988 -9.754,20.09 -14.691,30.078 19.629,29.847 43.847,63.945 80.695,83.117"/><path inkscape:connector-curvature="0" id="path14851" style="fill:#93789f;fill-opacity:1;fill-rule:nonzero;stroke:none" d="m 380.641,252.211 c 1.492,0.227 3.101,0.57 4.593,0.801 8.379,1.953 4.129,3.445 27.434,-3.328 2.18,-9.989 35.125,-46.727 37.305,-56.598 C 518.848,124.32 641.441,72.1992 749.457,38.4453 640.867,35.0039 492.102,64.8516 393.383,102.047 c -17.106,24.453 -35.356,45.117 -67.035,46.84 -4.25,8.726 -9.989,16.074 -14.235,24.797 11.938,30.078 31.223,65.668 68.528,78.527"/><path inkscape:connector-curvature="0" id="path14853" style="fill:#977ca4;fill-opacity:1;fill-rule:nonzero;stroke:none" d="m 389.02,236.25 c 1.265,0.23 2.527,0.461 3.902,0.805 4.25,10.449 0.574,11.711 23.418,-2.985 1.836,-8.496 30.191,-48.793 32.027,-57.285 C 507.367,117.891 620.09,73.2305 712.609,44.3008 619.633,41.4336 484.41,66.918 399.813,98.832 c -14.579,20.895 -26.29,42.477 -53.493,43.856 -3.675,7.578 -10.218,12.167 -13.89,19.746 4.363,30.078 18.597,67.273 56.59,73.816"/><path inkscape:connector-curvature="0" id="path14855" style="fill:#9b7fa8;fill-opacity:1;fill-rule:nonzero;stroke:none" d="m 397.285,220.293 3.215,0.691 c 0.113,19.055 -2.984,20.09 19.629,-2.414 1.492,-7.117 25.023,-51.086 26.516,-58.203 49.128,-49.019 152.093,-86.2147 229.117,-110.2107 -77.367,-2.4102 -199.043,18.8281 -269.407,45.3476 -12.167,17.4491 -17.449,39.9531 -40.062,41.0981 -3.102,6.316 -10.445,8.265 -13.547,14.464 -3.211,30.309 6.086,69 44.539,69.227"/><path inkscape:connector-curvature="0" id="path14857" style="fill:#8f759a;fill-opacity:1;fill-rule:nonzero;stroke:none" d="m 401.074,263.918 c 8.266,-22.844 -6.773,-100.797 -21.808,-123.641 1.949,31.571 7.804,87.707 -5.743,95.973 -5.394,1.492 5.743,26.176 27.551,27.668"/><path inkscape:connector-curvature="0" id="path14859" style="fill:#7e6687;fill-opacity:1;fill-rule:nonzero;stroke:none" d="m 325.43,278.844 c -21.469,14.465 -108.594,11.711 -133.5,-8.383 31.566,-0.344 108.816,5.629 114.902,-15.383 0.688,-8.148 13.891,-8.609 18.598,23.766"/><path inkscape:connector-curvature="0" id="path14861" style="fill:#d09787;fill-opacity:1;fill-rule:nonzero;stroke:none" d="m 258.16,155.66 c -32.371,-13.777 -59.113,-6.887 -80.465,20.664 8.379,11.942 -0.804,23.996 7.575,36.047 3.675,-9.527 24.796,-15.039 28.468,-16.758 4.707,3.903 9.297,7.692 13.891,11.594 10.215,-17.223 20.316,-34.328 30.531,-51.547"/><path inkscape:connector-curvature="0" id="path14863" style="fill:none;stroke:#231f20;stroke-width:0.89999998;stroke-linecap:butt;stroke-linejoin:miter;stroke-miterlimit:4;stroke-opacity:1;stroke-dasharray:none" d="m 258.16,155.66 c -32.371,-13.777 -59.113,-6.887 -80.465,20.664 8.379,11.942 -0.804,23.996 7.575,36.047 3.675,-9.527 24.796,-15.039 28.468,-16.758 4.707,3.903 9.297,7.692 13.891,11.594 10.215,-17.223 20.316,-34.328 30.531,-51.547 z"/><path inkscape:connector-curvature="0" id="path14865" style="fill:#d49a8a;fill-opacity:1;fill-rule:nonzero;stroke:none" d="m 256.668,158.188 c -29.73,-12.629 -56.129,-7.122 -75.645,18.136 7.575,11.02 -0.804,22.156 6.887,33.18 3.328,-8.727 22.844,-13.777 26.172,-15.387 4.246,3.563 8.496,7.121 12.742,10.68 9.297,-15.844 20.547,-30.883 29.844,-46.609"/><path inkscape:connector-curvature="0" id="path14867" style="fill:#dda191;fill-opacity:1;fill-rule:nonzero;stroke:none" d="m 255.176,160.598 c -27.09,-11.481 -53.145,-7.235 -70.938,15.84 6.887,10.105 -0.691,20.093 6.313,30.195 3.097,-7.922 20.777,-12.629 23.875,-14.008 3.789,3.215 7.691,6.43 11.594,9.645 8.496,-14.352 20.664,-27.321 29.156,-41.672"/><path inkscape:connector-curvature="0" id="path14869" style="fill:#e3a697;fill-opacity:1;fill-rule:nonzero;stroke:none" d="m 253.684,163.121 c -24.45,-10.445 -50.161,-7.461 -66.231,13.317 6.313,9.187 -0.574,18.253 5.625,27.324 2.867,-7.117 18.824,-11.364 21.578,-12.629 3.559,2.871 7.004,5.855 10.563,8.726 7.687,-12.972 20.773,-23.765 28.465,-36.738"/><path inkscape:connector-curvature="0" id="path14871" style="fill:#ebad9e;fill-opacity:1;fill-rule:nonzero;stroke:none" d="m 252.191,165.531 c -21.808,-9.297 -47.175,-7.574 -61.527,11.024 5.625,8.152 -0.574,16.3 5.051,24.336 2.527,-6.313 16.762,-10.102 19.285,-11.25 3.102,2.64 6.199,5.168 9.414,7.808 6.774,-11.597 21.008,-20.32 27.777,-31.918"/><path inkscape:connector-curvature="0" id="path14873" style="fill:#807a88;fill-opacity:1;fill-rule:nonzero;stroke:none" d="m 258.16,169.895 c -32.371,-10.332 -59.113,-5.165 -80.465,15.5 8.379,8.953 -0.804,17.91 7.575,26.976 3.675,-7.117 24.796,-11.25 28.468,-12.512 4.707,2.871 9.297,5.739 13.891,8.61 10.215,-12.856 20.316,-25.715 30.531,-38.574"/><path inkscape:connector-curvature="0" id="path14875" style="fill:none;stroke:#231f20;stroke-width:0.89999998;stroke-linecap:butt;stroke-linejoin:miter;stroke-miterlimit:4;stroke-opacity:1;stroke-dasharray:none" d="m 258.16,169.895 c -32.371,-10.332 -59.113,-5.165 -80.465,15.5 8.379,8.953 -0.804,17.91 7.575,26.976 3.675,-7.117 24.796,-11.25 28.468,-12.512 4.707,2.871 9.297,5.739 13.891,8.61 10.215,-12.856 20.316,-25.715 30.531,-38.574 z"/><path inkscape:connector-curvature="0" id="path14877" style="fill:#878290;fill-opacity:1;fill-rule:nonzero;stroke:none" d="m 258.16,171.848 c -32.371,-9.071 -58.769,-3.328 -80.008,14.808 8.266,7.922 -1.148,14.582 7.118,22.5 3.675,-6.199 24.796,-9.871 28.468,-11.019 4.707,2.527 9.297,5.168 13.891,7.691 10.215,-11.363 20.316,-22.73 30.531,-33.98"/><path inkscape:connector-curvature="0" id="path14879" style="fill:#8f8a99;fill-opacity:1;fill-rule:nonzero;stroke:none" d="m 258.16,173.797 c -32.371,-7.918 -58.426,-1.375 -79.664,14.238 8.266,6.887 -1.492,11.137 6.774,18.024 3.675,-5.395 24.796,-8.61 28.468,-9.528 4.707,2.18 9.297,4.36 13.891,6.543 10.215,-9.758 20.316,-19.515 30.531,-29.277"/><path inkscape:connector-curvature="0" id="path14881" style="fill:#9691a1;fill-opacity:1;fill-rule:nonzero;stroke:none" d="m 258.16,175.637 c -32.371,-6.543 -58.082,0.574 -79.316,13.777 8.261,5.738 -1.84,7.691 6.426,13.43 3.675,-4.477 24.796,-7.231 28.468,-8.035 4.707,1.836 9.297,3.789 13.891,5.625 10.215,-8.266 20.316,-16.532 30.531,-24.797"/><path inkscape:connector-curvature="0" id="path14883" style="fill:#a09aac;fill-opacity:1;fill-rule:nonzero;stroke:none" d="m 258.16,177.586 c -32.371,-5.395 -57.738,2.414 -78.972,13.203 8.378,4.594 -2.297,4.25 6.082,8.957 3.675,-3.676 24.796,-5.855 28.468,-6.547 4.707,1.492 9.297,2.985 13.891,4.481 10.215,-6.66 20.316,-13.321 30.531,-20.094"/><path inkscape:connector-curvature="0" id="path14885" style="fill:#66526c;fill-opacity:1;fill-rule:nonzero;stroke:none" d="m 363.422,284.125 c -4.82,-1.379 -9.527,-0.23 -6.656,7.461 13.086,8.727 26.172,26.519 39.945,26.519 0.23,-0.574 -1.031,-1.378 0,-1.835 2.984,-0.461 6.887,-0.231 8.953,-1.493 -6.199,-1.836 -13.43,-3.214 -15.379,-7.117 4.016,-3.101 10.672,-3.101 12.051,-9.414 -0.574,-0.461 -1.148,-1.035 -1.723,-1.492 -8.609,3.789 -14.347,9.758 -37.191,-12.629"/><path inkscape:connector-curvature="0" id="path14887" style="fill:none;stroke:#231f20;stroke-width:0.89999998;stroke-linecap:butt;stroke-linejoin:miter;stroke-miterlimit:4;stroke-opacity:1;stroke-dasharray:none" d="m 363.422,284.125 c -4.82,-1.379 -9.527,-0.23 -6.656,7.461 13.086,8.727 26.172,26.519 39.945,26.519 0.23,-0.574 -1.031,-1.378 0,-1.835 2.984,-0.461 6.887,-0.231 8.953,-1.493 -6.199,-1.836 -13.43,-3.214 -15.379,-7.117 4.016,-3.101 10.672,-3.101 12.051,-9.414 -0.574,-0.461 -1.148,-1.035 -1.723,-1.492 -8.609,3.789 -14.347,9.758 -37.191,-12.629 z"/><path inkscape:connector-curvature="0" id="path14889" style="fill:#6b5671;fill-opacity:1;fill-rule:nonzero;stroke:none" d="m 365.031,285.961 c -4.25,-1.262 -8.496,-0.344 -5.968,6.66 11.707,7.922 23.414,23.992 35.699,24.223 0.226,-0.574 -0.922,-1.262 -0.117,-1.723 2.757,-0.344 6.199,-0.113 8.152,-1.262 -5.512,-1.722 -12.055,-2.984 -13.777,-6.546 3.675,-2.754 9.527,-2.063 10.793,-7.692 -0.461,-0.574 -1.036,-1.031 -1.61,-1.492 -7.691,3.445 -12.742,8.152 -33.172,-12.168"/><path inkscape:connector-curvature="0" id="path14891" style="fill:#6f5975;fill-opacity:1;fill-rule:nonzero;stroke:none" d="m 366.637,287.684 c -3.789,-1.149 -7.461,-0.344 -5.282,5.855 10.219,7.231 20.547,21.695 31.454,21.926 0.113,-0.344 -0.805,-1.031 -0.114,-1.379 2.41,-0.457 5.508,-0.113 7.118,-1.145 -4.825,-1.609 -10.563,-2.757 -12.055,-5.855 3.215,-2.527 8.379,-1.266 9.527,-6.199 -0.457,-0.461 -0.918,-0.918 -1.379,-1.266 -6.769,2.871 -11.363,6.43 -29.269,-11.937"/><path inkscape:connector-curvature="0" id="path14893" style="fill:#735d7a;fill-opacity:1;fill-rule:nonzero;stroke:none" d="m 368.242,289.52 c -3.211,-1.149 -6.426,-0.457 -4.476,5.05 8.726,6.43 17.679,19.172 26.976,19.633 0.231,-0.344 -0.687,-0.918 0,-1.262 2.067,-0.347 4.707,0 6.199,-0.921 -4.246,-1.375 -9.183,-2.524 -10.445,-5.278 2.754,-2.066 7.231,-0.23 8.266,-4.594 -0.461,-0.343 -0.805,-0.687 -1.266,-1.148 -5.851,2.527 -9.754,4.707 -25.254,-11.48"/><path inkscape:connector-curvature="0" id="path14895" style="fill:#6d5874;fill-opacity:1;fill-rule:nonzero;stroke:none" d="m 386.84,250.145 c 9.758,5.625 21.465,11.48 31.336,17.105 3.215,7.344 -0.227,15.727 -13.086,13.316 -8.379,0 -16.871,-0.691 -25.254,-0.691 4.133,-9.871 6.316,-19.746 7.004,-29.73"/><path inkscape:connector-curvature="0" id="path14897" style="fill:#765f7d;fill-opacity:1;fill-rule:nonzero;stroke:none" d="m 386.84,252.668 c 9.758,5.168 21.465,10.676 31.336,15.844 3.215,6.429 -0.227,13.66 -13.086,11.019 -8.379,-0.23 -16.871,-1.148 -25.254,-1.492 4.133,-8.379 6.316,-16.875 7.004,-25.371"/><path inkscape:connector-curvature="0" id="path14899" style="fill:#7e6687;fill-opacity:1;fill-rule:nonzero;stroke:none" d="m 386.84,255.078 c 9.758,4.824 21.465,9.875 31.336,14.695 3.215,5.512 -0.227,11.481 -13.086,8.727 -8.379,-0.574 -16.871,-1.609 -25.254,-2.184 4.133,-7 6.316,-14.003 7.004,-21.238"/><path inkscape:connector-curvature="0" id="path14901" style="fill:#866d90;fill-opacity:1;fill-rule:nonzero;stroke:none" d="m 386.84,257.605 c 9.758,4.364 21.465,9.071 31.336,13.317 3.215,4.707 -0.227,9.414 -13.086,6.66 -8.379,-0.918 -16.871,-2.184 -25.254,-3.102 4.133,-5.394 6.316,-11.136 7.004,-16.875"/><path inkscape:connector-curvature="0" id="path14903" style="fill:#6b5671;fill-opacity:1;fill-rule:nonzero;stroke:none" d="m 387.988,249.684 c -46.375,-19.86 -26.976,-29.504 -63.25,-46.379 0.692,-28.242 -38.683,-21.469 -66.578,-39.61 -21.695,21.582 -7.805,42.938 -54.062,39.61 0.457,12.511 2.754,24.91 18.019,37.425 5.512,0 11.137,0 16.645,0 15.957,11.594 37.652,23.188 72.086,34.786 35.699,19.285 75.761,32.371 77.14,-25.832"/><path inkscape:connector-curvature="0" id="path14905" style="fill:#6d5874;fill-opacity:1;fill-rule:nonzero;stroke:none" d="m 383.395,251.176 c -45.227,-19.172 -24.106,-30.422 -59.461,-46.61 0.691,-27.324 -37.649,-20.781 -64.739,-38.23 -21.238,20.781 -7.578,41.328 -52.687,38.23 0.457,11.938 2.64,23.993 17.562,35.934 5.395,0 10.789,0 16.184,0 15.496,11.25 36.617,22.387 70.137,33.523 34.894,18.598 71.742,33.176 73.004,-22.847"/><path inkscape:connector-curvature="0" id="path14907" style="fill:#705b77;fill-opacity:1;fill-rule:nonzero;stroke:none" d="m 378.805,252.555 c -43.965,-18.485 -21.239,-31.227 -55.672,-46.84 0.801,-26.176 -36.617,-19.863 -62.906,-36.852 -20.661,20.09 -7.461,39.836 -51.309,36.852 0.457,11.48 2.641,23.074 17.102,34.668 5.281,0 10.445,0 15.726,0 15.152,10.68 35.699,21.469 68.301,32.262 33.863,17.793 67.496,33.867 68.758,-20.09"/><path inkscape:connector-curvature="0" id="path14909" style="fill:#735d7a;fill-opacity:1;fill-rule:nonzero;stroke:none" d="m 374.211,254.047 c -42.699,-17.797 -18.363,-32.145 -51.77,-47.184 0.692,-25.144 -35.699,-19.058 -61.296,-35.359 -19.973,19.285 -7.231,38.226 -49.817,35.359 0.457,11.137 2.524,22.157 16.645,33.293 5.05,0 10.215,0 15.265,0 14.696,10.332 34.668,20.664 66.465,30.996 32.942,17.219 63.246,34.668 64.508,-17.105"/><path inkscape:connector-curvature="0" id="path14911" style="fill:#6b5671;fill-opacity:1;fill-rule:nonzero;stroke:none" d="m 294.203,198.137 c 18.137,-8.953 35.703,-16.645 50.281,-27.324 -9.644,-5.969 -6.89,-14.579 -16.644,-20.665 -22.156,3.907 -53.035,10.68 -75.188,14.582 -6.543,28.356 7.344,39.493 41.551,33.407"/><path inkscape:connector-curvature="0" id="path14913" style="fill:#725c79;fill-opacity:1;fill-rule:nonzero;stroke:none" d="m 294.434,196.301 c 18.023,-8.035 34.437,-16.418 50.05,-25.488 -9.757,-4.821 -7.234,-12.168 -16.992,-16.875 -22.152,3.675 -49.012,12.054 -71.168,15.843 -3.902,24.11 7.692,32.719 38.11,26.52"/><path inkscape:connector-curvature="0" id="path14915" style="fill:#7a6382;fill-opacity:1;fill-rule:nonzero;stroke:none" d="m 294.664,194.348 c 17.906,-6.887 33.176,-16.071 49.82,-23.535 -9.875,-3.559 -7.464,-9.641 -17.336,-13.2 -22.039,3.672 -44.996,13.547 -67.035,17.219 -1.379,19.859 7.922,25.945 34.551,19.516"/><path inkscape:connector-curvature="0" id="path14917" style="fill:#826a8c;fill-opacity:1;fill-rule:nonzero;stroke:none" d="m 295.008,192.398 c 17.562,-5.855 31.797,-15.73 49.476,-21.585 -9.875,-2.293 -7.808,-7.118 -17.679,-9.528 -22.039,3.559 -40.981,15.153 -62.903,18.715 1.145,15.496 8.149,19.172 31.106,12.398"/><path inkscape:connector-curvature="0" id="path14919" style="fill:#6b5671;fill-opacity:1;fill-rule:nonzero;stroke:none" d="m 345.629,169.895 c 13.316,-13.2 22.156,-29.043 31.684,-49.02 28.238,-18.484 62.789,-33.9805 98.375,-48.7891 11.019,-7.8086 4.476,-11.7109 -19.403,-11.5976 -33.402,10.4492 -65.656,22.043 -95.504,35.9336 -7,20.2071 -18.48,40.2971 -40.289,60.5001 7.461,8.496 17.676,21.012 25.137,12.973"/><path inkscape:connector-curvature="0" id="path14921" style="fill:#725c79;fill-opacity:1;fill-rule:nonzero;stroke:none" d="m 345.172,169.895 c 11.824,-11.364 24.449,-33.293 33.058,-50.743 25.137,-16.07 59.922,-32.9489 91.833,-45.9215 9.871,-6.7735 4.476,-8.7227 -16.875,-8.7227 -29.961,9.0703 -63.133,21.2383 -89.879,33.293 -6.2,17.6792 -21.121,43.2812 -40.637,60.8442 2.984,7.347 13.66,18.367 22.5,11.25"/><path inkscape:connector-curvature="0" id="path14923" style="fill:#7a6382;fill-opacity:1;fill-rule:nonzero;stroke:none" d="m 344.711,170.012 c 10.445,-9.758 26.746,-37.543 34.324,-52.465 22.27,-13.777 57.278,-32.1447 85.403,-43.2814 8.722,-5.625 4.589,-5.625 -14.348,-5.625 -26.402,7.6914 -60.61,20.3203 -84.258,30.6524 -5.508,15.039 -23.875,46.035 -40.977,61.074 -1.492,6.313 9.641,15.727 19.856,9.645"/><path inkscape:connector-curvature="0" id="path14925" style="fill:#826a8c;fill-opacity:1;fill-rule:nonzero;stroke:none" d="m 344.254,170.125 c 9.066,-8.152 28.926,-41.902 35.582,-54.301 19.285,-11.367 54.641,-31.1131 78.977,-40.4099 7.574,-4.7071 4.589,-2.7539 -11.825,-2.7539 -22.957,6.4257 -58.082,19.5156 -78.629,28.0078 -4.707,12.516 -26.515,49.023 -41.324,61.422 -5.969,5.281 5.508,13.086 17.219,8.035"/><path inkscape:connector-curvature="0" id="path14927" style="fill:#d09787;fill-opacity:1;fill-rule:nonzero;stroke:none" d="m 93.668,75.5273 c 24.105,26.2887 51.543,49.2497 78.633,72.6717 24.332,26.403 23.531,25.254 19.398,59.582 C 157.836,173.914 126.5,138.785 92.6367,104.918 90.1094,95.043 90.4531,85.2852 93.668,75.5273"/><path inkscape:connector-curvature="0" id="path14929" style="fill:none;stroke:#231f20;stroke-width:0.89999998;stroke-linecap:butt;stroke-linejoin:miter;stroke-miterlimit:4;stroke-opacity:1;stroke-dasharray:none" d="m 93.668,75.5273 c 24.105,26.2887 51.543,49.2497 78.633,72.6717 24.332,26.403 23.531,25.254 19.398,59.582 C 157.836,173.914 126.5,138.785 92.6367,104.918 90.1094,95.043 90.4531,85.2852 93.668,75.5273 Z"/><path inkscape:connector-curvature="0" id="path14931" style="fill:#d49a8a;fill-opacity:1;fill-rule:nonzero;stroke:none" d="m 98.9492,82.5313 c 21.5818,23.5347 48.3278,46.3787 72.4338,67.2737 21.808,23.648 21.121,22.617 17.445,53.269 C 158.523,172.766 128.336,139.016 98.0313,108.82 95.7344,99.9805 96.0781,91.2578 98.9492,82.5313"/><path inkscape:connector-curvature="0" id="path14933" style="fill:#d89d8d;fill-opacity:1;fill-rule:nonzero;stroke:none" d="m 104.23,89.5352 c 18.942,20.7778 44.997,43.5078 66.348,61.9918 19.168,20.778 18.594,19.86 15.266,46.84 -26.629,-26.633 -55.785,-59.008 -82.418,-85.644 -1.953,-7.805 -1.723,-15.4964 0.804,-23.1878"/><path inkscape:connector-curvature="0" id="path14935" style="fill:#dca090;fill-opacity:1;fill-rule:nonzero;stroke:none" d="m 109.512,96.5352 c 16.414,18.0278 41.781,40.6408 60.148,56.6018 16.645,18.023 16.184,17.218 13.317,40.636 -23.075,-23.074 -51.082,-54.07 -74.157,-77.144 -1.718,-6.774 -1.492,-13.434 0.692,-20.0938"/><path inkscape:connector-curvature="0" id="path14937" style="fill:#ebad9e;fill-opacity:1;fill-rule:nonzero;stroke:none" d="m 120.645,111.004 c 11.48,12.625 29.269,28.582 42.242,39.719 11.593,12.629 11.25,12.172 9.297,28.472 -16.184,-16.187 -35.93,-37.886 -52.114,-54.074 -1.148,-4.707 -1.031,-9.414 0.575,-14.117"/><path inkscape:connector-curvature="0" id="path14939" style="fill:#ba3028;fill-opacity:1;fill-rule:nonzero;stroke:none" d="m 95.2773,80.8086 c 25.2537,31.1134 51.3087,62.7964 77.0237,93.5664 20.203,49.477 -50.051,-23.996 -80.6994,-54.992 1.7226,-13.778 1.9531,-24.7971 3.6757,-38.5744"/><path inkscape:connector-curvature="0" id="path14941" style="fill:none;stroke:#231f20;stroke-width:0.89999998;stroke-linecap:butt;stroke-linejoin:miter;stroke-miterlimit:4;stroke-opacity:1;stroke-dasharray:none" d="m 95.2773,80.8086 c 25.2537,31.1134 51.3087,62.7964 77.0237,93.5664 20.203,49.477 -50.051,-23.996 -80.6994,-54.992 1.7226,-13.778 1.9531,-24.7971 3.6757,-38.5744 z"/><path inkscape:connector-curvature="0" id="path14943" style="fill:#ada5c2;fill-opacity:1;fill-rule:nonzero;stroke:none" d="m 119.383,137.523 c 15.035,-8.152 27.894,-18.484 35.812,-33.64 4.246,-7.6916 8.496,-21.8127 8.496,-29.5041 1.149,-4.4766 -2.066,-4.8203 -9.644,-0.918 -4.016,8.1524 -13.66,21.2383 -23.414,26.6331 -16.074,0.691 -32.1447,1.379 -48.215,2.183 12.3984,11.711 24.684,23.536 36.965,35.246"/><path inkscape:connector-curvature="0" id="path14945" style="fill:none;stroke:#231f20;stroke-width:0.89999998;stroke-linecap:butt;stroke-linejoin:miter;stroke-miterlimit:4;stroke-opacity:1;stroke-dasharray:none" d="m 119.383,137.523 c 15.035,-8.152 27.894,-18.484 35.812,-33.64 4.246,-7.6916 8.496,-21.8127 8.496,-29.5041 1.149,-4.4766 -2.066,-4.8203 -9.644,-0.918 -4.016,8.1524 -13.66,21.2383 -23.414,26.6331 -16.074,0.691 -32.1447,1.379 -48.215,2.183 12.3984,11.711 24.684,23.536 36.965,35.246 z"/><path inkscape:connector-curvature="0" id="path14947" style="fill:#b8afce;fill-opacity:1;fill-rule:nonzero;stroke:none" d="m 120.414,134.996 c 13.203,-7.117 25.254,-15.613 32.258,-29.047 3.785,-6.656 8.035,-19.0545 8.035,-25.7146 0.918,-4.0156 -1.836,-4.3633 -8.379,-0.918 -3.676,7.2344 -13.433,18.1406 -22.043,22.8476 -14.117,0.688 -28.121,1.262 -42.1248,1.836 10.6757,10.332 21.4648,20.664 32.2538,30.996"/><path inkscape:connector-curvature="0" id="path14949" style="fill:#c3b9db;fill-opacity:1;fill-rule:nonzero;stroke:none" d="m 121.563,132.469 c 11.25,-6.082 22.613,-12.856 28.582,-24.336 3.214,-5.742 7.578,-16.301 7.578,-22.1564 0.8,-3.4453 -1.61,-3.6758 -7.235,-0.8047 -3.097,6.3125 -13.086,14.9221 -20.547,19.0581 -12.05,0.571 -24.105,1.032 -36.1558,1.606 9.1838,8.84 18.4808,17.793 27.7778,26.633"/><path inkscape:connector-curvature="0" id="path14951" style="fill:#cdc4e7;fill-opacity:1;fill-rule:nonzero;stroke:none" d="m 122.598,129.945 c 9.527,-5.168 20.086,-9.988 25.023,-19.632 2.754,-4.821 7.117,-13.6607 7.117,-18.481 0.688,-2.9882 -1.379,-3.2148 -6.086,-0.6914 -2.64,5.168 -12.855,11.7114 -18.937,15.1564 -10.106,0.457 -20.203,0.918 -30.3048,1.375 7.6918,7.348 15.4958,14.808 23.1878,22.273"/><path inkscape:connector-curvature="0" id="path14953" style="fill:#bfeafb;fill-opacity:1;fill-rule:nonzero;stroke:none" d="m 113.641,118.465 c 9.875,0.574 29.961,-9.301 34.324,-13.203 -2.297,6.086 -19.629,18.023 -26.516,18.597 -17.105,0.344 -14.004,-2.296 -7.808,-5.394"/><path inkscape:connector-curvature="0" id="path14955" style="fill:#746f8c;fill-opacity:1;fill-rule:nonzero;stroke:none" d="m 57.3945,95.2734 c 0.3438,26.9806 54.6405,56.9416 59.3475,85.0706 2.067,7.461 4.246,14.922 6.313,22.386 16.3,35.817 83.453,62.68 104.8,115.493 3.79,2.867 9.645,3.558 13.434,-2.184 5.621,-28.355 -21.121,-63.258 -44.082,-90.922 -2.867,-8.496 -4.82,-17.566 -5.738,-27.211 -1.149,-8.609 -4.59,-16.301 -18.711,-19.172 -24.91,-20.32 -49.36,-44.543 -74.2697,-73.242 C 84.9453,99.293 70.9414,94.2422 57.3945,95.2734"/><path inkscape:connector-curvature="0" id="path14957" style="fill:none;stroke:#231f20;stroke-width:0.89999998;stroke-linecap:butt;stroke-linejoin:miter;stroke-miterlimit:4;stroke-opacity:1;stroke-dasharray:none" d="m 57.3945,95.2734 c 0.3438,26.9806 54.6405,56.9416 59.3475,85.0706 2.067,7.461 4.246,14.922 6.313,22.386 16.3,35.817 83.453,62.68 104.8,115.493 3.79,2.867 9.645,3.558 13.434,-2.184 5.621,-28.355 -21.121,-63.258 -44.082,-90.922 -2.867,-8.496 -4.82,-17.566 -5.738,-27.211 -1.149,-8.609 -4.59,-16.301 -18.711,-19.172 -24.91,-20.32 -49.36,-44.543 -74.2697,-73.242 C 84.9453,99.293 70.9414,94.2422 57.3945,95.2734 Z"/><path inkscape:connector-curvature="0" id="path14959" style="fill:#807c9b;fill-opacity:1;fill-rule:nonzero;stroke:none" d="m 233.254,308.578 c 5.277,-22.156 -13.086,-52.808 -47.641,-89.316 -6.769,-8.383 -60.605,-64.063 -70.25,-56.141 -2.754,1.84 2.758,8.727 3.446,20.32 -0.918,35.821 76.332,69.571 114.445,125.137"/><path inkscape:connector-curvature="0" id="path14961" style="fill:#8480a1;fill-opacity:1;fill-rule:nonzero;stroke:none" d="m 228.547,301.23 c 2.41,-20.32 -14.809,-47.07 -45.344,-80.132 -6.199,-7.578 -56.359,-58.778 -65.199,-51.66 -2.41,1.722 2.527,7.804 3.215,18.48 -0.805,32.719 72.89,64.98 107.328,113.312"/><path inkscape:connector-curvature="0" id="path14963" style="fill:#8984a6;fill-opacity:1;fill-rule:nonzero;stroke:none" d="m 223.953,293.883 c -0.687,-18.367 -16.644,-41.215 -43.16,-70.949 -5.508,-6.887 -52.113,-53.614 -60.035,-47.184 -2.18,1.492 2.183,7.004 2.758,16.648 -0.692,29.618 69.562,60.383 100.437,101.485"/><path inkscape:connector-curvature="0" id="path14965" style="fill:#8d89ab;fill-opacity:1;fill-rule:nonzero;stroke:none" d="m 219.246,286.535 c -3.672,-16.531 -18.363,-35.472 -40.863,-61.762 -4.934,-6.085 -47.867,-48.449 -54.985,-42.707 -1.949,1.262 2.067,6.2 2.528,14.692 -0.574,26.519 66.23,55.797 93.32,89.777"/><path inkscape:connector-curvature="0" id="path14967" style="fill:#918db1;fill-opacity:1;fill-rule:nonzero;stroke:none" d="M 214.656,279.188 C 208,264.609 194.453,249.453 175.973,226.609 c -4.364,-5.398 -43.735,-43.281 -49.934,-38.343 -1.605,1.261 1.836,5.507 2.297,12.972 -0.574,23.418 62.789,51.2 86.32,77.95"/><path inkscape:connector-curvature="0" id="path14969" style="fill:#9591b6;fill-opacity:1;fill-rule:nonzero;stroke:none" d="m 209.949,271.84 c -9.64,-12.742 -21.922,-23.879 -36.386,-43.395 -3.672,-4.593 -39.489,-38.113 -44.77,-33.867 -1.492,1.035 1.492,4.707 1.953,11.02 -0.461,20.437 59.461,46.726 79.203,66.242"/><path inkscape:connector-curvature="0" id="path14971" style="fill:#b0b6ce;fill-opacity:1;fill-rule:nonzero;stroke:none" d="m 188.254,250.371 c -4.59,-5.969 -10.445,-11.25 -17.219,-20.547 -1.836,-2.183 -27.09,-29.621 -29.5,-27.668 -0.687,0.574 0.692,2.297 0.805,5.282 -0.113,9.64 36.504,33.75 45.914,42.933"/><path inkscape:connector-curvature="0" id="path14973" style="fill:#5a556a;fill-opacity:1;fill-rule:nonzero;stroke:none" d="m 144.98,182.41 c 4.133,6.656 4.708,13.203 1.606,19.746 11.824,19.403 23.531,29.504 35.355,40.18 -4.707,-8.035 -8.609,-16.07 -7.574,-24.109 -1.609,-5.739 -2.64,-11.364 0,-17.106 -6.89,-11.937 -16.644,-18.137 -29.387,-18.711"/><path inkscape:connector-curvature="0" id="path14975" style="fill:#90736b;fill-opacity:1;fill-rule:nonzero;stroke:none" d="m 165.297,210.191 c 3.215,0 5.512,-4.019 5.051,-9.07 -0.457,-4.937 -3.559,-9.07 -6.774,-9.07 -3.215,0 -5.508,4.133 -5.051,9.07 0.575,5.051 3.559,9.07 6.774,9.07"/><path inkscape:connector-curvature="0" id="path14977" style="fill:none;stroke:#231f20;stroke-width:0.89999998;stroke-linecap:butt;stroke-linejoin:miter;stroke-miterlimit:4;stroke-opacity:1;stroke-dasharray:none" d="m 165.297,210.191 c 3.215,0 5.512,-4.019 5.051,-9.07 -0.457,-4.937 -3.559,-9.07 -6.774,-9.07 -3.215,0 -5.508,4.133 -5.051,9.07 0.575,5.051 3.559,9.07 6.774,9.07 z"/><path inkscape:connector-curvature="0" id="path14979" style="fill:#3d3a3b;fill-opacity:1;fill-rule:nonzero;stroke:none" d="m 165.066,206.977 c 2.067,0 3.446,-2.641 3.215,-5.856 -0.343,-3.215 -2.297,-5.855 -4.359,-5.855 -2.184,0 -3.563,2.64 -3.332,5.855 0.344,3.215 2.297,5.856 4.476,5.856"/><path inkscape:connector-curvature="0" id="path14981" style="fill:#231f20;fill-opacity:1;fill-rule:nonzero;stroke:none" d="m 164.84,204.797 c 1.262,0 2.18,-1.609 1.949,-3.676 -0.23,-1.949 -1.379,-3.672 -2.754,-3.672 -1.262,0 -2.18,1.723 -1.953,3.672 0.231,2.067 1.379,3.676 2.758,3.676"/><path inkscape:connector-curvature="0" id="path14983" style="fill:none;stroke:#231f20;stroke-width:0.89999998;stroke-linecap:butt;stroke-linejoin:miter;stroke-miterlimit:4;stroke-opacity:1;stroke-dasharray:none" d="m 164.84,204.797 c 1.262,0 2.18,-1.609 1.949,-3.676 -0.23,-1.949 -1.379,-3.672 -2.754,-3.672 -1.262,0 -2.18,1.723 -1.953,3.672 0.231,2.067 1.379,3.676 2.758,3.676 z"/><path inkscape:connector-curvature="0" id="path14985" style="fill:#ba151b;fill-opacity:1;fill-rule:nonzero;stroke:none" d="m 153.016,104.918 13.886,-1.035 7.004,-10.215 -14.465,0 -6.425,11.25"/><path inkscape:connector-curvature="0" id="path14987" style="fill:none;stroke:#231f20;stroke-width:0.89999998;stroke-linecap:butt;stroke-linejoin:miter;stroke-miterlimit:4;stroke-opacity:1;stroke-dasharray:none" d="m 153.016,104.918 13.886,-1.035 7.004,-10.215 -14.465,0 -6.425,11.25 z"/><path inkscape:connector-curvature="0" id="path14989" style="fill:#d5d4d5;fill-opacity:1;fill-rule:nonzero;stroke:none" d="m 165.984,205.945 c 0.575,0 1.149,-0.574 1.149,-1.379 0,-0.804 -0.574,-1.492 -1.149,-1.492 -0.687,0 -1.144,0.688 -1.144,1.492 0,0.805 0.457,1.379 1.144,1.379"/><path inkscape:connector-curvature="0" id="path14991" style="fill:none;stroke:#d5d4d5;stroke-width:0.89999998;stroke-linecap:butt;stroke-linejoin:miter;stroke-miterlimit:4;stroke-opacity:1;stroke-dasharray:none" d="m 165.984,205.945 c 0.575,0 1.149,-0.574 1.149,-1.379 0,-0.804 -0.574,-1.492 -1.149,-1.492 -0.687,0 -1.144,0.688 -1.144,1.492 0,0.805 0.457,1.379 1.144,1.379 z"/><path inkscape:connector-curvature="0" id="path14993" style="fill:#f2f2f2;fill-opacity:1;fill-rule:nonzero;stroke:none" d="m 165.984,205.371 c 0.348,0 0.575,-0.348 0.575,-0.805 0,-0.461 -0.227,-0.804 -0.575,-0.804 -0.343,0 -0.687,0.343 -0.687,0.804 0,0.457 0.344,0.805 0.687,0.805"/><path inkscape:connector-curvature="0" id="path14995" style="fill:none;stroke:#f2f2f2;stroke-width:0.89999998;stroke-linecap:butt;stroke-linejoin:miter;stroke-miterlimit:4;stroke-opacity:1;stroke-dasharray:none" d="m 165.984,205.371 c 0.348,0 0.575,-0.348 0.575,-0.805 0,-0.461 -0.227,-0.804 -0.575,-0.804 -0.343,0 -0.687,0.343 -0.687,0.804 0,0.457 0.344,0.805 0.687,0.805 z"/><path inkscape:connector-curvature="0" id="path14997" style="fill:#d1a149;fill-opacity:1;fill-rule:nonzero;stroke:none" d="m 57.2813,96.0781 c 13.6601,2.2969 26.2851,6.1989 35.5859,12.8559 24.3318,24.453 48.6678,49.023 73.0038,73.476 5.738,2.985 10.445,2.754 14.121,-0.918 C 165.297,175.98 125.809,139.129 98.7188,104.457 74.3828,93.7813 59.3477,90.5664 57.2813,96.0781"/><path inkscape:connector-curvature="0" id="path14999" style="fill:#8984a6;fill-opacity:1;fill-rule:nonzero;stroke:none" d="m 78.7461,110.656 c 4.4766,1.723 8.8398,3.215 13.3164,6.199 14.5785,13.547 24.7925,27.094 34.7815,40.641 -1.492,4.594 -50.969,-38.918 -48.0979,-46.84"/><path inkscape:connector-curvature="0" id="path15001" style="fill:#8f8baf;fill-opacity:1;fill-rule:nonzero;stroke:none" d="m 83.2227,115.707 c 3.5586,1.379 7.1171,2.527 10.6757,4.938 11.7066,10.906 19.8596,21.812 28.0076,32.718 -1.261,3.676 -41.0935,-31.34 -38.6833,-37.656"/><path inkscape:connector-curvature="0" id="path15003" style="fill:#9894b9;fill-opacity:1;fill-rule:nonzero;stroke:none" d="m 87.5859,120.645 c 2.7539,1.148 5.3946,2.066 8.1485,3.789 8.8396,8.265 15.0386,16.531 21.2386,24.796 -1.035,2.872 -31.1097,-23.648 -29.3871,-28.585"/><path inkscape:connector-curvature="0" id="path15005" style="fill:#7a6382;fill-opacity:1;fill-rule:nonzero;stroke:none" d="m 282.613,212.258 c 12.395,8.152 24.793,9.644 37.075,4.363 -5.051,16.188 8.265,33.406 34.207,51.547 -15.61,12.281 -94.012,-42.02 -71.282,-55.91"/><path inkscape:connector-curvature="0" id="path15007" style="fill:#81698a;fill-opacity:1;fill-rule:nonzero;stroke:none" d="m 285.367,216.047 c 11.02,7.348 21.926,8.609 32.946,3.902 -4.594,14.352 7.23,29.735 30.187,45.809 -13.773,10.789 -83.223,-37.313 -63.133,-49.711"/><path inkscape:connector-curvature="0" id="path15009" style="fill:#897094;fill-opacity:1;fill-rule:nonzero;stroke:none" d="m 288.121,219.949 c 9.527,6.43 19.172,7.461 28.695,3.328 -3.902,12.516 6.317,25.946 26.403,39.953 -12.051,9.528 -72.66,-32.488 -55.098,-43.281"/><path inkscape:connector-curvature="0" id="path15011" style="fill:#92779d;fill-opacity:1;fill-rule:nonzero;stroke:none" d="m 290.875,223.852 c 8.152,5.398 16.301,6.316 24.453,2.871 -3.332,10.675 5.508,22.043 22.496,33.98 -10.215,8.152 -61.984,-27.664 -46.949,-36.851"/><path inkscape:connector-curvature="0" id="path15013" style="fill:#5e4b62;fill-opacity:1;fill-rule:nonzero;stroke:none" d="m 236.926,202.73 c 2.066,13.43 14.922,22.961 32.601,30.536 -4.824,1.492 -9.644,2.984 -14.464,4.363 -14.579,-12.399 -23.075,-24.336 -18.137,-34.899"/><path inkscape:connector-curvature="0" id="path15015" style="fill:#8f759a;fill-opacity:1;fill-rule:nonzero;stroke:none" d="m 422.883,246.469 c 12.055,-41.672 -0.918,-83.348 -39.258,-125.133 45.918,32.488 60.035,64.977 59.461,97.465 -6.773,9.183 -13.543,18.371 -20.203,27.668"/><path inkscape:connector-curvature="0" id="path15017" style="fill:#866d90;fill-opacity:1;fill-rule:nonzero;stroke:none" d="M 715.02,58.9961 404.059,109.738 648.098,85.0586 715.02,58.9961"/><path inkscape:connector-curvature="0" id="path15019" style="fill:#c8c7c7;fill-opacity:1;fill-rule:nonzero;stroke:none" d="m 497.957,63.8164 c -0.461,-1.375 0,-2.4101 1.262,-3.0976 2.179,0.4609 4.246,1.9531 5.969,5.7382 -2.754,-1.7187 -5.165,-2.5234 -7.231,-2.6406"/><path inkscape:connector-curvature="0" id="path15021" style="fill:#c8c7c7;fill-opacity:1;fill-rule:nonzero;stroke:none" d="m 513.68,51.6484 c -0.457,-1.6054 0.117,-2.8711 1.609,-3.6718 2.524,0.5742 4.934,2.2968 6.887,6.6562 -3.215,-1.9492 -6.082,-2.8672 -8.496,-2.9844"/><path inkscape:connector-curvature="0" id="path15023" style="fill:#c8c7c7;fill-opacity:1;fill-rule:nonzero;stroke:none" d="m 510.121,34.4297 c -0.918,-1.1484 -1.031,-2.2969 -0.226,-3.4453 2.179,-0.3438 4.703,0.2304 7.918,3.2148 -3.329,-0.5742 -5.852,-0.4609 -7.692,0.2305"/><path inkscape:connector-curvature="0" id="path15025" style="fill:#65516a;fill-opacity:1;fill-rule:nonzero;stroke:none" d="m 56.8203,361.387 c 17.5625,-20.551 29.1563,-26.059 34.7813,-16.532 -6.6563,9.528 -11.3633,19.059 -2.9844,28.93 -1.1484,2.641 -3.0977,3.445 -5.9688,2.41 -5.625,-4.363 -3.5586,-12.629 -5.2773,-18.941 -9.4141,7.117 -2.6406,18.023 -9.6445,23.074 -2.9844,0.231 -4.8203,-0.574 -6.4297,-1.375 -0.4571,-4.937 4.3633,-8.84 4.5937,-16.305 -8.3789,5.969 -7.4609,12.86 -13.6601,14.235 -4.0157,0.347 -6.3125,-0.688 -8.4961,-1.949 1.9531,-5.051 9.9883,-7.579 13.0859,-13.547"/><path inkscape:connector-curvature="0" id="path15027" style="fill:#c8c7c7;fill-opacity:1;fill-rule:nonzero;stroke:none" d="m 81.9609,375.852 c 1.4922,0.343 2.7539,0.23 4.2461,0.461 0.461,1.949 1.9532,4.015 3.4453,5.507 -3.1015,-1.375 -5.7421,-3.215 -7.6914,-5.968"/><path inkscape:connector-curvature="0" id="path15029" style="fill:#c8c7c7;fill-opacity:1;fill-rule:nonzero;stroke:none" d="m 62.6758,378.492 c 1.3789,0.688 2.6406,1.031 3.9023,1.723 -0.5742,1.836 -0.3437,4.015 0.2305,5.855 -2.1797,-2.297 -3.7891,-4.707 -4.1328,-7.578"/><path inkscape:connector-curvature="0" id="path15031" style="fill:#c8c7c7;fill-opacity:1;fill-rule:nonzero;stroke:none" d="m 44.8828,374.359 c 1.6094,0.918 3.2149,1.262 4.8203,2.18 -0.8008,2.297 -0.3437,5.051 0.3477,7.348 -2.7578,-2.754 -4.8242,-5.856 -5.168,-9.528"/><path inkscape:connector-curvature="0" id="path15033" style="fill:#65516a;fill-opacity:1;fill-rule:nonzero;stroke:none" d="M 488.887,47.2852 C 464.438,56.6992 468.109,66 474.422,72.0859 c 9.988,-7.9218 16.992,-4.3632 23.187,-8.039 0.575,-1.4922 1.266,-2.4102 1.84,-3.9024 -2.758,-1.1484 -6.543,-1.3789 -10.793,-0.5742 6.317,-4.9375 15.153,-5.0508 24.68,-5.8555 3.789,-2.4101 3.215,-4.4765 2.641,-6.1992 -4.934,-1.9492 -13.774,1.3789 -21.235,2.4102 5.738,-5.2813 13.774,-8.4922 17.102,-16.0703 -0.114,-3.2149 -1.949,-3.2149 -3.328,-3.6758 -6.543,2.8711 -12.168,12.1719 -19.629,17.1055"/></g></g></g></svg>