<?xml version="1.0" encoding="UTF-8"?>
<svg viewBox="0 0 640 480" xmlns="http://www.w3.org/2000/svg">
 <defs>
  <linearGradient id="i" transform="translate(89.768 450.23) scale(1 1.0854) translate(0 -433.65) scale(1.2358 1) translate(-17.128) scale(1 1.0578) translate(292.62 -.907) scale(1.2682 1) translate(-369.87) scale(.97165 1) translate(4.6144 -15.677)" x1="6.7108" x2="6.7108" y1="67.66" y2="67.66" gradientTransform="matrix(.6811 0 0 .6811 28.282 -431.29)">
   <stop offset="0"/>
   <stop offset="1"/>
  </linearGradient>
  <linearGradient id="p" transform="translate(89.768 450.23) scale(1 1.0854) translate(0 -433.65) scale(1.2358 1) translate(-17.128) scale(1 1.0578) translate(292.62 -.907) scale(1.2682 1) translate(-369.87) scale(.97165 1) translate(4.6144 -15.677)" x1="1.0891" x2="1.0891" y1="8.9029" y2="8.9029" gradientTransform="matrix(.6811 0 0 .6811 28.282 -431.29)">
   <stop stop-color="#bfbfbf" offset="0"/>
   <stop stop-color="#615a44" offset="1"/>
  </linearGradient>
  <linearGradient id="r" transform="translate(89.768 450.23) scale(1 1.0854) translate(0 -433.65) scale(1.2358 1) translate(-17.128) scale(1 1.0578) translate(292.62 -.907) scale(1.2682 1) translate(-369.87) scale(.97165 1) translate(4.6144 -15.677)" x1="3.4102" x2="1.9992" y1="25.7" y2="25.7" gradientTransform="matrix(.6811 0 0 .6811 28.282 -431.29)">
   <stop stop-color="#fee0b3" offset="0"/>
   <stop stop-color="#99998e" offset="1"/>
  </linearGradient>
  <linearGradient id="q" transform="translate(89.768 450.23) scale(1 1.0854) translate(0 -433.65) scale(1.2358 1) translate(-17.128) scale(1 1.0578) translate(292.62 -.907) scale(1.2682 1) translate(-369.87) scale(.97165 1) translate(4.6144 -15.677)" x1="2.9952" x2="1.6315" y1="19.022" y2="19.022" gradientTransform="matrix(.6811 0 0 .6811 28.282 -431.29)">
   <stop stop-color="#fee0b3" offset="0"/>
   <stop stop-color="#99998e" offset="1"/>
  </linearGradient>
  <linearGradient id="o" transform="translate(89.768 450.23) scale(1 1.0854) translate(0 -433.65) scale(1.2358 1) translate(-17.128) scale(1 1.0578) translate(292.62 -.907) scale(1.2682 1) translate(-369.87) scale(.97165 1) translate(4.6144 -15.677)" x1=".25963" x2=".25963" y1="19.096" y2="19.096" gradientTransform="matrix(.6811 0 0 .6811 28.282 -431.29)">
   <stop stop-color="#615a44" offset="0"/>
   <stop stop-color="#bfbfbf" offset="1"/>
  </linearGradient>
  <linearGradient id="n" transform="translate(89.768 450.23) scale(1 1.0854) translate(0 -433.65) scale(1.2358 1) translate(-17.128) scale(1 1.0578) translate(292.62 -.907) scale(1.2682 1) translate(-369.87) scale(.97165 1) translate(4.6144 -15.677)" x1="1.7239" x2=".35347" y1="35.336" y2="35.336" gradientTransform="matrix(.6811 0 0 .6811 28.282 -431.29)">
   <stop stop-color="#fee0b3" offset="0"/>
   <stop stop-color="#99998e" offset="1"/>
  </linearGradient>
  <linearGradient id="k" transform="translate(89.768 450.23) scale(1 1.0854) translate(0 -433.65) scale(1.2358 1) translate(-17.128) scale(1 1.0578) translate(292.62 -.907) scale(1.2682 1) translate(-369.87) scale(.97165 1) translate(4.6144 -15.677)" x1="3.39" x2="3.39" y1="171.02" y2="171.02" gradientTransform="matrix(.6811 0 0 .6811 28.282 -431.29)">
   <stop offset="0"/>
   <stop offset="1"/>
  </linearGradient>
  <linearGradient id="m" transform="translate(89.768 450.23) scale(1 1.0854) translate(0 -433.65) scale(1.2358 1) translate(-17.128) scale(1 1.0578) translate(292.62 -.907) scale(1.2682 1) translate(-369.87) scale(.97165 1) translate(4.6144 -15.677)" x1=".58877" x2=".58877" y1="9.7234" y2="9.7234" gradientTransform="matrix(.6811 0 0 .6811 28.282 -431.29)">
   <stop stop-color="#caa48c" offset="0"/>
   <stop stop-color="#99998e" offset="1"/>
  </linearGradient>
  <linearGradient id="l" transform="translate(89.768 450.23) scale(1 1.0854) translate(0 -433.65) scale(1.2358 1) translate(-17.128) scale(1 1.0578) translate(292.62 -.907) scale(1.2682 1) translate(-369.87) scale(.97165 1) translate(4.6144 -15.677)" x1="1.6668" x2=".23225" y1="34.294" y2="34.294" gradientTransform="matrix(.6811 0 0 .6811 28.282 -431.29)">
   <stop stop-color="#fee0b3" offset="0"/>
   <stop stop-color="#99998e" offset="1"/>
  </linearGradient>
  <linearGradient id="s" transform="translate(89.768 450.23) scale(1 1.0854) translate(0 -433.65) scale(1.2358 1) translate(-17.128) scale(1 1.0578) translate(292.62 -.907) scale(1.2682 1) translate(-369.87) scale(.97165 1) translate(4.6144 -15.677)" x1=".49503" x2=".49503" y1="4.5092" y2="4.5092" gradientTransform="matrix(.6811 0 0 .6811 28.282 -431.29)">
   <stop stop-color="#615a44" offset="0"/>
   <stop stop-color="#bfbfbf" offset="1"/>
  </linearGradient>
  <linearGradient id="t" transform="translate(89.768 450.23) scale(1 1.0854) translate(0 -433.65) scale(1.2358 1) translate(-17.128) scale(1 1.0578) translate(292.62 -.907) scale(1.2682 1) translate(-369.87) scale(.97165 1) translate(4.6144 -15.677)" x1=".72099" x2=".72099" y1="5.6374" y2="5.6374" gradientTransform="matrix(.6811 0 0 .6811 28.282 -431.29)">
   <stop stop-color="#615a44" offset="0"/>
   <stop stop-color="#bfbfbf" offset="1"/>
  </linearGradient>
  <linearGradient id="g" transform="translate(89.768 450.23) scale(1 1.0854) translate(0 -433.65) scale(1.2358 1) translate(-17.128) scale(1 1.0578) translate(292.62 -.907) scale(1.2682 1) translate(-369.87) scale(.97165 1) translate(4.6144 -15.677)" x1="5.0833" x2="5.0833" y1="47.098" y2="47.098" gradientTransform="matrix(.6811 0 0 .6811 28.282 -431.29)">
   <stop stop-color="#a69f77" offset="0"/>
   <stop stop-color="#caa48c" offset="1"/>
  </linearGradient>
  <linearGradient id="j" transform="translate(89.768 450.23) scale(1 1.0854) translate(0 -433.65) scale(1.2358 1) translate(-17.128) scale(1 1.0578) translate(292.62 -.907) scale(1.2682 1) translate(-369.87) scale(.97165 1) translate(4.6144 -15.677)" x1=".61499" x2=".61499" y1="3.0523" y2="3.0523" gradientTransform="matrix(.6811 0 0 .6811 28.282 -431.29)">
   <stop offset="0"/>
   <stop offset="1"/>
  </linearGradient>
  <linearGradient id="h" transform="translate(89.768 450.23) scale(1 1.0854) translate(0 -433.65) scale(1.2358 1) translate(-17.128) scale(1 1.0578) translate(292.62 -.907) scale(1.2682 1) translate(-369.87) scale(.97165 1) translate(4.6144 -15.677)" x1=".97745" x2=".97745" y1="7.0949" y2="7.0949" gradientTransform="matrix(.6811 0 0 .6811 28.282 -431.29)">
   <stop stop-color="#615a44" offset="0"/>
   <stop stop-color="#bfbfbf" offset="1"/>
  </linearGradient>
  <linearGradient id="f" transform="translate(89.768 450.23) scale(1 1.0854) translate(0 -433.65) scale(1.2358 1) translate(-17.128) scale(1 1.0578) translate(292.62 -.907) scale(1.2682 1) translate(-369.87) scale(.97165 1) translate(4.6144 -15.677)" x1="4.9771" x2="4.9771" y1="80.606" y2="80.606" gradientTransform="matrix(.6811 0 0 .6811 28.282 -431.29)">
   <stop offset="0"/>
   <stop offset="1"/>
  </linearGradient>
  <linearGradient id="a" transform="translate(89.768 450.23) scale(1 1.0854) translate(0 -433.65) scale(1.2358 1) translate(-17.128) scale(1 1.0578) translate(292.62 -.907) scale(1.2682 1) translate(-369.87) scale(.97165 1) translate(4.6144 -15.677)" x1="9.6595" x2="9.6595" y1="57.23" y2="57.23" gradientTransform="matrix(.6811 0 0 .6811 28.282 -431.29)">
   <stop offset="0"/>
   <stop offset="1"/>
  </linearGradient>
  <linearGradient id="e" transform="translate(89.768 450.23) scale(1 1.0854) translate(0 -433.65) scale(1.2358 1) translate(-17.128) scale(1 1.0578) translate(292.62 -.907) scale(1.2682 1) translate(-369.87) scale(.97165 1) translate(4.6144 -15.677)" x1="2.3296" x2="2.3296" y1="36.791" y2="36.791" gradientTransform="matrix(.6811 0 0 .6811 28.282 -431.29)">
   <stop offset="0"/>
   <stop offset="1"/>
  </linearGradient>
  <linearGradient id="b" transform="translate(89.768 450.23) scale(1 1.0854) translate(0 -433.65) scale(1.2358 1) translate(-17.128) scale(1 1.0578) translate(292.62 -.907) scale(1.2682 1) translate(-369.87) scale(.97165 1) translate(4.6144 -15.677)" x1="12.705" x2="12.705" y1="93.839" y2="93.839" gradientTransform="matrix(.6811 0 0 .6811 28.282 -431.29)">
   <stop stop-color="#fff" offset="0"/>
   <stop stop-color="#fff" offset="1"/>
  </linearGradient>
  <linearGradient id="d" transform="translate(89.768 450.23) scale(1 1.0854) translate(0 -433.65) scale(1.2358 1) translate(-17.128) scale(1 1.0578) translate(292.62 -.907) scale(1.2682 1) translate(-369.87) scale(.97165 1) translate(4.6144 -15.677)" x1="17.166" x2="17.166" y1="237.89" y2="237.89" gradientTransform="matrix(.6811 0 0 .6811 28.282 -431.29)">
   <stop stop-color="#fff" offset="0"/>
   <stop stop-color="#fff" offset="1"/>
  </linearGradient>
  <linearGradient id="c" transform="translate(89.768 450.23) scale(1 1.0854) translate(0 -433.65) scale(1.2358 1) translate(-17.128) scale(1 1.0578) translate(292.62 -.907) scale(1.2682 1) translate(-369.87) scale(.97165 1) translate(4.6144 -15.677)" x1="1.0057" x2="1.0057" y1="10.129" y2="10.129" gradientTransform="matrix(.6811 0 0 .6811 28.282 -431.29)">
   <stop stop-color="#615a44" offset="0"/>
   <stop stop-color="#bfbfbf" offset="1"/>
  </linearGradient>
 </defs>
 <switch>
  <g>
   <g stroke-miterlimit="2.414" stroke-width="0">
    <path d="m376.65 225.49c-3.8833 2.9266-7.2778 13.624-10.311 12.253-3.396-1.5546 5.2173-6.6754 4.1254-11.522-6.4311 2.5604-14.799 12.893-18.075 10.973-3.029-1.7395 15.527-8.5055 11.038-22.953-1.6965-6.2184-3.5193-5.1196-6.9153-5.944-2.5447-1.5546-6.3062-0.36511-8.3666 2.4685-2.6696 3.5662 5.3345 6.0347 1.9401 8.6858-6.1859-5.2115-11.888-5.0289-10.796-15.272 0.24362-3.8383-8.129-2.8336-12.736-2.3767-13.946 1.0988-19.649 11.247-32.504 10.697-22.196 27.253-19.77 70.507-25.228 66.116-7.8839-6.494-3.5178 0.36514-2.1853 1.4616 6.3107 5.2138-10.432 24.783-11.4 30.911 0 11.522-4.733 22.13-10.311 33.651 8.3711 6.3114 22.561 2.5616 50.944 9.4195 14.188 2.743 8.6088-1.0976 13.098 10.242 1.6995 3.1092 0.72946 3.8417-1.6949 4.3906-0.97156 2.9255-1.4604 2.0116-5.9468 1.6465-8.4883 2.3778-14.309-1.007-15.886-2.9267-2.6695 0.73251-4.9736 0.5488-6.7919-0.73251-9.4631 4.4812-21.226 1.1895-30.929-3.0173-11.039-3.1092-8.3711-2.1965-17.831-0.82324-4.2456 0.6395-4.9751 1.3709-10.675 5.5777 16.618 8.3218 39.543 4.3905 64.405 6.0358 4.1254 0.27328 7.1589 0.63953 8.9788 4.9382 6.4264-0.093018 6.4264 9.4183 12.25 14.174-1.2152 2.286-5.094 2.286-9.3397 1.6442 1.5762 4.3905-8.3696 0.64182-12.492 0.64182 0.60306 5.6685-2.9132 2.9255-5.8234 3.8406-11.28-0.36627 4.9752-7.0405-15.768-4.2976-4.9706 0.45697-8.2448-0.36508-15.888-4.2057-17.95-5.2138-35.175-1.7383-52.639-4.9382-9.0976-1.7383-4.6097-11.705-13.948-9.5113-19.287 4.7556-16.374-1.829-18.437-6.1277-40.633-5.851-131.12 23.503-92.544 56.973 21.469 19.112 105.52-7.68 157.31-7.1324 84.54 1.7372 126.14 40.053 127.36 52.582-3.8803-0.27441-61.252-61.36-188.12-28.988-126.63 30.999-171.63-24.692-97.762-80.839 1.4574-3.1104-9.46 1.7372-5.2143-2.0116 23.409-6.1277 7.6417-13.717 17.102-19.936-10.674-65.11-8.9757-119.43 42.329-172.56 10.068-10.609 41.603-29.537 33.719-31.916-10.066-3.0173 14.676-0.3651 19.042-10.059 3.8818-8.3218 22.803-20.484 45.002-24.69 14.068-12.529 28.746-31.734 30.2-37.037 1.5731-5.3044-10.186 3.2929 6.428-7.223-23.894-27.71 16.497-31.366 31.778-25.24-0.60458-2.9266 2.3056-8.0463 20.86-2.286 5.9452-1.2813 36.873-9.8776 86.604-9.0532-0.24521 0 2.4274 0.64067-0.12186-2.3767 1.8183 1.2802 2.3042 0.73023 2.062 2.3767 2.5493 0 2.1823 0 4.366 0.18368 2.9117-3.3824 2.3026-2.4685 6.7905-3.3824-3.1522 0.82437-4.3645 1.6465-4.6097 3.201 4.6097 0 10.677 0.18372 16.135 0.82324 6.9138 0.45697 4.7284 10.425-0.72952 13.717 0 0 0 6.7672 1.3356 5.6696l9.9442-3.0174s-10.068 3.2929-10.31 4.115c-0.2421 0.82322-0.8512 2.5604-1.0919 3.2917 1.9401 0.27441 20.013 2.1034 20.013 2.1034l-20.013-1.1895c-2.9132 4.2068-4.9736 4.665-7.8838 7.4986 0 3.2011 2.7884 7.1323-3.0336 7.9567-10.674 5.0289 7.5199-1.372 0.48581 9.8753-6.064 9.602-11.886 1.8279-16.252 4.022-20.984 10.883-27.775 17.832-34.689 27.16-17.466 6.3114-20.62 43.438-29.231 51.303 15.647 10.792 56.643 20.484 77.383 25.696 8.3681 3.1092 19.528 8.8695 24.989 16.644 3.2727 4.6638-7.1605-1.3709-8.493-2.379 0.24213 3.8429 5.3376 14.816 0.24213 17.285-1.3325-1.0976-3.0305-16.004-11.4-15.18-1.9401 6.4916 0.60611 14.264-3.8802 14.814-3.2756 0.36626 1.5762-12.71-7.8884-16.277-5.4579 2.2848-11.519-5.6707-15.644-5.6707-9.8255-2.1034-22.196 4.7568-30.444 4.7568 0 2.1034 7.7636 3.565 12.614 8.2288 10.797 10.425 21.226 25.606 14.193 34.57-1.4559 2.1011-1.4559-8.4148-2.7884-11.523z" fill="url(#j)" fill-rule="evenodd"/>
    <path d="m409.76 22.481c-5.5797 2.0116-12.131 17.832 6.428 15.453 0.85281 1.922 2.0635 2.1046 1.334 3.2929-4.0021 1.0069-5.2143 1.0069-9.5803 1.7372 0.60614 0.82208 0.24362 0.64066 0.97009 1.1883 3.7629-0.54768 6.5483-1.4616 8.8539-1.4616 0 1.0965-0.48425 1.736-0.96704 2.6511-3.6442-0.1837-2.6726-0.1837-5.7031-0.1837-1.6979 1.0988 0.12186-0.91392-0.48578 1.0069 2.3056 0.36626 3.5178 0.45697 6.1889 0.45697-3.6442 9.7857-33.113 10.973-32.388 23.683 0.24362 3.751 9.7022-5.2115 18.073-5.2115 2.6666 0 6.0625 2.4685 4.6067 4.9371-6.7904 12.255-6.428 0.27325-17.828 5.7626-22.563 10.609-29.355 22.221-33.477 25.97-5.3345 0-7.5198-0.63951-12.494 6.2184 6.4295-5.8521 7.5199-5.0289 11.888-4.7568-19.286 10.975-20.982 40.786-27.412 47.645-27.535-26.427-30.809-38.68-26.563-67.942-8.6087 24.874 2.6681 43.894 17.952 61.635-5.5813-4.115-16.371-17.01-21.346-25.697-3.2757-5.6696-5.3407-28.258-13.345-24.142-6.064 3.2918 15.893-20.027 7.4012-17.01-12.859 4.8475 18.191-21.216-1.092-33.835-4.8549-11.338-52.52-15.637-30.446 17.286-28.866-38.592 28.747-29.996 34.325-22.68 2.7914-2.1046-16.129-9.8753 10.189-4.3882 29.112-12.62 67.441-12.712 104.92-11.616z" fill="url(#h)" fill-rule="evenodd"/>
    <path d="m413.4 22.757c15.404-0.91393 6.064 14.997 4.6097 8.6869-2.671-2.1046-5.4579 5.6696-10.311 4.2976-3.6381-1.0069-3.2741-12.528 5.7016-12.984z" fill="url(#g)" fill-rule="evenodd"/>
    <path d="m383.81 42.052c7.7635 1.0988 10.916 0.54768 21.71 9.3288-1.0919 0-9.9458-8.6881-23.773-8.23 2.1838-0.64181 1.4558-0.73366 2.0635-1.0988z" fill="url(#f)" fill-rule="evenodd"/>
    <path d="m348.88 38.027c3.76 0.09185 4.2458-3.2929 8.9773-1.0046-9.4615 0-9.9488 9.602-21.955 4.6638-8.9742-0.45698-22.194 7.7718-20.256 6.4032 7.1575-5.3963 6.3077-10.975 5.8234-5.3963-0.1203 2.286 13.704-2.0116 13.704-2.0116-5.0955-3.9347 9.3397-11.892 13.706-2.6545z" fill="url(#e)" fill-rule="evenodd"/>
    <path d="m337.23 37.388c0.36096-0.91394 3.5178 0.091854 2.9072 0.91394-0.84668 1.2802-4.2442 0.91392-2.9072-0.91394z" fill="url(#d)" fill-rule="evenodd"/>
    <path d="m299.03 123.53c-17.708-24.049-58.094-12.162-65.009-10.059 1.3325-2.1034 11.764-10.973 33.113-8.5951-12.978-4.3905-35.174-4.4813-46.334-2.3778 8.4884-10.425 38.085-38.316 31.656-38.316-7.3965 0 7.1574-6.401 6.4295-3.3836-2.1822 8.1392 10.43 2.6511 14.919 3.0173 2.7884 0.18371 4.3645 2.0116 9.2194 0.27555 2.5462-0.91506 1.092-4.2068-2.668-4.2068-19.528-0.1837-20.016-6.9509-21.955-13.626 14.19-1.7372 3.5193-7.7742 17.83-6.3102-3.6396 5.1208-4.4879 8.5951-2.0619 13.443 1.5746-2.6511 3.5178-9.5113 8.2462-10.059 3.5178 16.916 6.6717 4.2975 12.25 8.8695 8.6133 7.4079-17.828 36.67-6.6717 28.257 10.311-7.7741-17.708 24.875-3.1522 15.364 6.428-4.0231 6.428 17.649 14.19 27.708z" fill="url(#c)" fill-rule="evenodd"/>
    <path d="m409.64 54.852c0.6091 1.8302 2.1838 8.0486-1.6965 5.6719-1.5777-1.0069 1.2152 1.6465-3.8817 1.829-1.4544-1.0081 0-5.2126 5.5782-7.5009z" fill="url(#b)" fill-rule="evenodd"/>
    <path d="m385.5 64.181c-2.7852 1.8279-8.9742 10.7-2.3025 9.8764-8.9758 3.4743-2.4259-8.23 2.3025-9.8764z" fill="url(#a)" fill-rule="evenodd"/>
    <path d="m255.97 103.04c-13.342 2.6522-29.591 9.602-27.896 16.369 67.679-35.298 85.996 35.756 102.61 38.408-29.475-3.8394-32.629-20.484-36.75-15.27 1.3325 11.432 35.898 14.174 48.392 21.032-7.2763-2.4685-31.051-4.2975-39.297 0.91394 8.2462-3.3836 43.662-1.3709 53.851 6.6754-1.3356 0-11.522-1.0046-12.976 0 7.7636 1.4639 30.562-0.73024 34.567 5.9451 1.8183 3.1092-2.7914 1.3709-3.8833 4.1138-0.48279 2.1964 7.7635 3.7499 4.8548 5.2138-9.2209 4.5719-30.687 6.8602-41.847 10.243-22.924 7.0416-20.618 6.4917-35.78 13.443-16.86 6.4916-38.813-25.697-84.173 23.226 5.5783-2.6522 5.5783-1.8279 9.457-2.3767-7.1528 13.26-1.5746 23.41-1.5746 34.933-19.286-12.622-40.753-68.586-50.577-58.526-7.3996 7.4974-1.4574-31.185-8.2494-24.05-10.55 11.247-4.73-46.365 5.0955-51.395-4.2457 8.0486-7.8839 14.815-3.7615 20.028 2.1822-49.016 59.309-51.942 87.933-48.925z" fill="url(#t)" fill-rule="evenodd"/>
    <path d="m167.91 133.31c-7.1559 15.454-14.918 49.929-4.1239 54.96 3.396 1.5535 2.1822-6.1277 4.1239-3.0173 3.032 5.394-0.72792 22.312 6.1858 27.433 2.0635 1.5546 1.698-7.8648 4.7315-3.658 9.5803 12.53 21.104 26.52 21.829 34.201-25.712-3.0173 4.0051-1.0046 7.8854 9.9683-22.925-2.2871-33.233 0.6407-41.119 7.7742 39.785-18.747 69.864 14.904 80.538 35.664 9.4616 17.466-1.5746 49.014-12.736 55.874-7.8838 4.9394-35.416 6.037-38.449 18.29 10.914-11.704 24.744-11.338 30.931-11.981-2.429 4.7568-8.6133 8.3241-11.281 10.425-1.334 2.0115 13.342 3.7499 4.6097 5.0289-24.259 5.0289-11.645 7.5916-11.645 10.7-6.9123-1.0988-17.464 3.4743-23.772-8.23-3.7599-7.0416-23.773 4.4813-24.622-8.1381-24.378-14.266 27.169-30.908-22.56-48.009 19.649 15.361 10.916 19.112 10.311 32.828-0.60762-9.9682-36.995-12.619-24.865-24.415-6.3077 2.651-2.9117 4.8475-2.9117 8.0462-5.5798 1.0046-23.288-13.443-26.441-25.147-1.2137 19.295 39.905 26.428 19.407 44.351-10.068-19.752-45.969-7.9556-31.778-17.101 2.5462-1.7372 5.2158-6.5847 14.798-5.0289-6.6732-2.0115-7.5199-0.45697-16.618 2.8359-7.2793-30.177-8.1275-72.427 2.3041-101.87 25.714-77.548 85.994-94.099 76.17-97.21-8.0057-2.379 6.1874-3.7499 9.096-4.5731z" fill="url(#s)" fill-rule="evenodd"/>
    <path d="m383.2 176.93c23.166 3.5662 30.201 5.6696 44.757 18.837 0.60455 2.379-7.8838-4.5708-15.888-7.68 3.8802 2.9255 4.3645 3.4754 6.7919 5.4859 2.1823 2.1941 4.6082 13.536 3.0305 13.536-1.5762 0-0.60611-9.695-13.221-14.174 0.2421 5.7614 1.3355 15.727-1.2138 15.546-2.4244-0.27441 2.5493-9.3288-6.7904-15.179-8.49 3.9313-11.4-6.1277-18.681-6.5847-1.4544 0 3.1538-1.007-1.8183-4.7568-2.1822-1.6464 0.36557-5.3963 3.0336-5.0301z" fill="url(#r)" fill-rule="evenodd"/>
    <path d="m380.17 234c-1.9386 5.487-0.48425-9.3276-3.8818-11.066-0.48569 2.6534-7.5198 14.174-9.096 12.987-0.4873-0.36513 5.5782-7.2253 5.7001-14.905-1.8183 4.2976-18.072 16.094-19.165 15.18-2.5477-0.5488 6.0641-1.0965 10.552-13.715 2.9132-8.6869-1.3325-13.444-4.9721-14.724-8.3697-1.1895-3.2726-3.2929-12.495 2.5592-0.84821 0.82553 1.3371 4.2976 2.9132 7.2242-1.334 0.36626-4.4864-2.5604-7.0326-4.2975-1.9402-1.6464-2.5508-2.4674-1.2153-7.6812 0-2.6511-0.24365-5.4882-5.7001-5.4882 1.4574-1.0965 8.49-4.7534 13.222-4.5708 11.16 2.1034 15.768 7.0416 18.314 10.332 2.9102 3.8417 17.103 15.547 12.858 28.165z" fill="url(#q)" fill-rule="evenodd"/>
    <path d="m291.5 212.51c-16.371 25.972-18.798 57.886-24.134 63.008-2.3072-2.0116-12.13-6.1277-9.4631-3.3848 14.071 14.54 7.5214 13.717-3.7584 36.214-1.8198-13.076-10.433-25.604-23.894-36.67-1.698-7.7718-8.4915-40.144 0.84976-41.699-4.7269-3.2929-16.496 5.3033-5.9437-2.0127 13.34-14.54 36.023-28.808 66.343-15.456z" fill="url(#p)" fill-rule="evenodd"/>
    <path d="m122.19 343.46c2.4259 1.5546 1.698 4.7568 2.668 7.4998 1.8198-2.7441 0.60613-6.3114-2.9117-12.62 12.614 11.98 21.469 8.23 26.807 17.651 1.0919 1.8279 4.0021 10.79 10.066 12.893-12.248-1.736-58.703 1.0058-83.568 19.204-5.3361-1.7372 1.8198-9.7834 10.188-16.003-1.4543-2.1034-12.736 4.572-11.038 1.0977 2.1838-5.0289-1.334-6.8603-8.4899-4.2068-5.4579 2.1034 5.0925-7.3172 2.3041-7.3172 17.466-8.687 3.8818-13.626 11.038-15.546 2.3041 0.45697 24.622-5.6696 34.689 10.973 5.0939-3.1988 7.1559-6.9486 8.2478-13.624z" fill="url(#o)" fill-rule="evenodd"/>
    <path d="m308 366.5c-4.6066-1.8279 4.3661-6.8579-13.823-9.2335 4.727 3.9313 13.342 2.6522 12.128 12.253-8.0073 1.4616-5.3376-9.602-19.286-9.695 5.094 1.8301 15.644 10.06 12.006 10.336-12.006 1.0046-8.6103-2.6534-12.006-3.6603-3.3976-1.0954-3.1539 1.3732-9.3397-0.45468-19.165 5.4848-32.507-8.4137-46.213-4.8475 14.677-7.8649-2.0635-4.0243-3.396-3.8406-1.3325 0.18256 12.859-3.3824 15.646-11.247 17.467 7.2242 23.653 1.0046 48.395 8.1381 14.796 4.2987 12.981-2.743 15.888 12.252z" fill="url(#n)" fill-rule="evenodd"/>
    <path d="m62.389 368.79c1.4559 2.1034 2.4244 1.5546 7.2762 0.82324 3.032-0.2756 6.9138 8.0463 1.9416 14.722-11.888 8.0474-28.989 35.482 2.4259 49.747 22.802 10.336 80.657-6.3091 129.66-11.522 51.671-5.4859 120.56 12.894 144.09 44.17-50.577-39.506-109.4-39.049-159.26-31.733-137.3 40.237-195.76-9.7846-126.14-66.207z" fill="url(#m)" fill-rule="evenodd"/>
    <path d="m280.71 398.33c-12.615 1.0046-4.4879-3.7488-8.0057-4.4813-3.5193-0.6384-18.92 2.5604-25.35-2.8336-10.311-6.2195-29.714-1.372-36.631-6.494-3.032-5.1196-0.36246-5.7614 15.65-10.7 7.031-1.0965 19.281 2.0116 33.108 2.1034 13.467 0.090698 28.747-2.743 31.295 2.8348 1.3325 0-15.405-1.4639-16.861 0.64069 29.595 0.54883 15.526-1.6464 29.353 13.9-10.433 3.658-9.3382-6.4939-13.101-9.145-3.032-2.1964-0.48276-2.9266-20.376-0.54764 23.167-0.82324 21.104 5.7603 23.528 12.253-14.434 0.91391-8.1245-6.7672-15.04-7.0416-7.3966-0.36624-9.4585-3.3836-13.222 0 16.744-1.186 15.894 3.5673 15.65 9.5113z" fill="url(#l)" fill-rule="evenodd"/>
    <path d="m331.65 459.41c1.4573 1.0977 1.4573 1.0977 2.7899 2.1964 1.3355 0.91394 1.3355 0.91394-2.7899-2.1964z" fill="none"/>
    <path d="m383.2 27.602c14.919-0.91394 17.95-0.27327 5.5782 0.82322-6.9138 0-24.136 2.5604-5.5782-0.82322z" fill="url(#k)" fill-rule="evenodd"/>
    <path d="m375.2 43.513c2.9102 4.7568 6.5483 7.9555 16.133 10.152-4.0036-1.5546-12.978-3.3836-14.312-11.066-1.0919-0.090698-2.0635 1.5546-1.8213 0.91393z" fill="url(#i)" fill-rule="evenodd"/>
   </g>
  </g>
 </switch>
</svg>
