<svg viewBox="3.50597 2.41606 1036.54 413.809" xmlns="http://www.w3.org/2000/svg" xmlns:xlink="http://www.w3.org/1999/xlink"><linearGradient id="a" gradientUnits="userSpaceOnUse" x1="88.1" x2="130" y1="257.6" y2="257.6"><stop offset="0" stop-color="#caa"/><stop offset="1" stop-color="#a66" stop-opacity="0"/></linearGradient><filter id="b" height="1.2" width="1" x="0" y="-.1"><feGaussianBlur stdDeviation="5.4855"/></filter><clipPath id="c"><path d="m1009.1 83.3c2.1-2.4 11.9.5 14-2.1-4.8-23.8 28.8-55.2 12.4-52.1-20.3 4-84.5 61.6-100.4 78.5-16.1 16.9-33 37.8-48.9 55.8-8.7 9.8-15.3 18.2-16.7 18.2l-797.5 1.3s-34.9 10-42.6 13.7c-2.1.5-14.3 6.3-18 8.5-1.3.8-3.4 1.6-4.8 2.4-1.1.8-2.9 1.1-2.9 2.6 0 1.1-3.2 5 16.4 19.6.3 0 25.9 18.8 46.5 22.5 2.4.8 6.1 2.9 7.9 1.3 6.7-8.2 39.5-14.1 53.1-8 1.8.8 3.2 3.6 6.2 5.7-7.7-2.9-9.6.1-9.6.1-3 4-19.6 11.8-28.7 13.2-2.1.4-9-1.4-7.3 1.3 2.4 2.3 6.4 5.8 9.2 7.6 5.5 3.7 12.9 6.2 17.5 7.2 0 0 46.3 7.9 67.1 9.3 25.9 3.2 51 2.6 76.9 1.9 4.8 0 22.7-.8 30.1-1.1 4.5 0 10 .8 13.5 2.9 0 .3 13 34.1 55.2 79.3 21.7 23.3 69.2 50.7 70.8 41.5 1.6-10-4.8-19.8-11.9-37.5-23.8-59.7-11.6-83.2-10.8-83.2 33-2.4 61.8-2.9 93.8-9 32.5-5 76.1-19 76.4-19 .8 0 33.6-12.2 33.6-12.2 32.4-12.9 55.6-13.2 80.8-16.8 12.7-2.1 63.4-13.2 66.1-14.8 12.3-2.2 22.3-5 35.1-6.1.8 0 60.3-3.2 63.2-2.9.3 0 9.5-1.1 9.8-1.1.3.8 18-.8 34.6 24.1 33.8 41 60.3 65.3 101.8 80.9 6.1-.5-12.2-23-14.8-26.2-25.9-32.8-23-67.4-31.5-98 2.9-11.1 7.4-21.9 11.4-32.2 18.5-45.7 36.7-70.6 42.5-76.9z"/></clipPath><radialGradient id="d" cx="30" cy="80.6" gradientTransform="matrix(2.6 0 0 1.3 -6.5 109.2)" gradientUnits="userSpaceOnUse" r="8.2"><stop offset="0" stop-color="#020202" stop-opacity=".4"/><stop offset="1" stop-color="#232323" stop-opacity="0"/></radialGradient><radialGradient id="e" cx="30.7" cy="82.8" fx="30.7" fy="82.8" gradientTransform="matrix(2.6 0 0 1.3 -6.5 109.2)" gradientUnits="userSpaceOnUse" r="8.2" xlink:href="#d"/><filter id="f" color-interpolation-filters="sRGB" height="2.1" width="2.3" x="-.6" y="-.6"><feFlood flood-color="#fff" flood-opacity=".8" result="flood"/><feComposite in="flood" in2="SourceGraphic" operator="in" result="composite1" stdDeviation=".26"/><feGaussianBlur in="composite1" result="blur" stdDeviation="1.7"/><feOffset dx="0" dy="0" result="offset"/><feComposite dx="-.2" in="SourceGraphic" in2="offset" operator="over" result="composite2"/></filter><filter id="g" color-interpolation-filters="sRGB" height="1.3" width="1.1" x="-.1" y="-.1"><feGaussianBlur stdDeviation="1.4"/></filter><linearGradient id="h" gradientTransform="matrix(2.4 0 0 3.1 -.6 -37.6)" gradientUnits="userSpaceOnUse" x1="31.8" x2="32.5" y1="73.5" y2="81.3"><stop offset="0" stop-color="#808080" stop-opacity="0"/><stop offset=".7" stop-color="#1a1a1a" stop-opacity=".4"/><stop offset="1" stop-opacity="0"/></linearGradient><radialGradient id="i" cx="64.8" cy="204.9" gradientTransform="matrix(1.4 .5 -.7 1.8 106 -207.1)" gradientUnits="userSpaceOnUse" r="2.1"><stop offset="0" stop-color="#fff" stop-opacity=".7"/><stop offset="1" stop-color="#5e5e5e" stop-opacity="0"/></radialGradient><radialGradient id="j" cx="16.6" cy="82.8" fx="16.6" fy="82.8" gradientTransform="matrix(2.6 0 0 2.4 -6.4 23.8)" r="3.6" xlink:href="#d"/><path d="m1009.1 83.3c2.1-2.4 11.9.5 14-2.1-4.8-23.8 28.8-55.2 12.4-52.1-20.3 4-84.5 61.6-100.4 78.5-16.1 16.9-33 37.8-48.9 55.8-8.7 9.8-15.3 18.2-16.7 18.2-42.3.8-34.6-3.7-101.5-17.7-.3-1.1-1.3-1.1-1.9-1.6 0-1.3-5-13.2-7.4-13.2-2.1 0-13.2 4.2-21.9 6.3s-21.4-.3-22.5.5c-12.4-1.3-77-16.5-86.2-17.9-10.2-2.2-117.1-17.6-121.8-17.3-.8-2.6 5.8.3 5.8-1.6.3 0 .3 0-10.3-5.8-8.7-4.8-25.1-33-25.9-67.1-.3-9.8-4.5-42-4.5-42-6.9-12.2-49.7 41.8-56.6 52.1-9.8 15.3-18 25.9-25.9 35.7-5.3 7.1-12.4 13-19.6 16.9-12.2 2.1-26.7 4.5-36.7 6.3-30.1 5.3-118.7 21.1-169.4 34.9.5 0-69 23.3-70.6 24.1-.3 0-15.3 6.3-20.6 8.7-.3 0-34.9 10-42.6 13.7-2.1.5-14.3 6.3-18 8.5-1.3.8-3.4 1.6-4.8 2.4-1.1.8-2.9 1.1-2.9 2.6 0 1.1-3.2 5 16.4 19.6.3 0 25.9 18.8 46.5 22.5 2.4.8 6.1 2.9 7.9 1.3l4.5 1.6s-1.1-3.7.3-4c.5 1.1 5.6 2.4 5.6 2.4s-.8-3.4-.8-4.8c0 0 3.2 2.4 5.3 2.9.5-1.1.5-3.4 1.3-4l1.9-.8c1.3 1.3 3.7 2.6 5.8 3.2.3-1.6.5-2.4 1.6-4.5 1.3.3 1.9.5 2.6.8 1.1.5 1.9 1.1 3.7 1.6 0 0 1.1-2.6 1.9-3.4.5.3.3 0 1.3.8 0 0 2.4 1.6 3.7 1.9.7-.7.8-2.5.9-2.6 1.1 1.1 2.7 1.8 2.7 1.8s-.3-1.3.3-1.6c2.6 0 5.6 0 7.4 1.1.8.5 1.3 1.3 1.6 2.4.3 1.9-1.9-.8-3.4-.8-.5 0-.2 4.8-1.8 3.4l-.9-2.1c-.8 1.1-1.8 3.4-2.3 4-1.6.8-1-1.2-1.8-2-.3.5-1.9 2.1-2.9 3.8-.2.6 0-2.6 0-2.6s-1.3 1.9-1.1 3.4c-1.3-.8-1-2.1-1.7-3.3-1.5 1.5-2.3 3.2-2.3 4.5l-.8.3-.7-3.4s-3.5 2.1-4 4.5c-.3.3-.5.3-.8 0-.5-.3-.8-2.4-1.3-3.4-1.3 1.9-2.4 2.9-2.9 4.2-.3.5-.8.3-.8.3l-.4-3.2c-.8 1.1-2.3 3.4-2.5 4.5 0 0-.3.3-.5 0-.8-.6-.6-1.9-1.1-2.9 0 0-1.6 1.9-1.5 4.5l-.7 1c-.8-.8-2-3.7-2-3.7s-.8 1.8 0 4.7c-.3.5 0 1.5.3 1.8l8.2 6.9c2.4 1.3 9.5 6.1 18.5 7.9 0 0 46.3 7.9 67.1 9.3 25.9 3.2 51 2.6 76.9 1.9 4.8 0 22.7-.8 30.1-1.1 4.5 0 10 .8 13.5 2.9 0 .3 13 34.1 55.2 79.3 21.7 23.3 69.2 50.7 70.8 41.5 1.6-10-4.8-19.8-11.9-37.5-23.8-59.7-11.6-83.2-10.8-83.2 33-2.4 61.8-2.9 93.8-9 32.5-5 76.1-19 76.4-19 .8 0 33.6-12.2 33.6-12.2 5-.8 9 1.1 13.7 2.4.5.5 21.7 8.7 33 13.7 2.1.8 4.8 2.4 6.6 3.4.5.5 1.6 1.3 2.1 1.3 1.1 0 1.6-1.3 2.9-2.4 7.9-7.1 15.3-26.4 20.4-31.2 2.9-2.4 8.5-3.7 8.5-3.7-2.9-.3-6.3-.3-9.8.8 1.6-.8 2.6-1.1 3.4-1.1 12.7-2.1 63.4-13.2 66.1-14.8 4.2-.3 13 2.6 17.7 4.5 2.6 1.6 5.3 3.4 6.6 1.6.5-.8 7.9-9.8 10.3-12.2h.5c.8 0 60.3-3.2 63.2-2.9.3 0 9.5-1.1 9.8-1.1.3.8 18-.8 34.6 24.1 33.8 41 60.3 65.3 101.8 80.9 6.1-.5-12.2-23-14.8-26.2-25.9-32.8-18.2-61.9-31.5-98 2.9-11.1 7.4-21.9 11.4-32.2 18.5-45.7 36.7-70.6 42.5-76.9z" fill="#457"/><path d="m36.9 228.9c-.5-2.6.1-8.3.9-9.1 0 0-.6-1.3-4.3-3.1s-13.8-3.4-14.3 1.1c2.6 4.2 17.7 11.1 17.7 11.1z" fill="url(#j)"/><path d="m68.9 208.3c6.3-1.1 36.2-10.6 38.1-9.3 7.7 3.2.3 20.4-9.5 27.5s-63.4-8.5-55.5-14.5c7.9-6.1 18.2-2.1 27-3.7z" fill="url(#e)"/><path d="m38.8 221.5c-1.6 2.1-1.1 4.5-1.9 7.4-1.1-2.9 0-6.7.1-8.6s-2.8-2.8-4.6-4.3c3.4.8 4 2.1 5.7 2.8 1.1.5 1.8 1.6.7 2.8z"/><path d="m35.2 209c-2.5-10.6 73.4-33.4 78.1-12.3s-75.6 22.9-78.1 12.3z" fill="url(#h)" filter="url(#g)"/><path d="m71 205.9c0 2.3-1.7 4.2-3.8 4.2s-4-1.9-4-4.2 2-4.2 4-4.2c2.1.1 3.8 1.9 3.8 4.2z" filter="url(#f)"/><path d="m149.6 256.5c-4.8-.3-22.1-5.6-23.4-8.2s-3.7-2.6-6.1-3.4c0 0 3.4-.5 6.1.3s2.4.8 5.7 4.2 14.3 5.1 17.7 7.2z"/><path d="m88.1 265.3c3-1.5 3.1-.1 7.7-.7 2.9-.4 11.2-2.6 15.5-5.2s7.5-3.8 10.9-6.3l3.8-2.9c-19.5 8.6-32.7 10.1-32.7 10.1z" fill="url(#a)"/><path d="m67.2 201.7c-2.2 0-4.4 2.4-3.9 4.9s1.6 3.2 4.2 3.4c-2.8-1.5-3.6-5.5-.3-8.3z" fill="url(#i)"/><path clip-path="url(#c)" d="m425.5 251.3c7.8 1.2 4.7 2.9 10 5.7 6.7 3.5 7.8-15.1 17.9-7.5 4.4 4.1 8.3-1.8 11.1-.7 4.8 1.9 11 4.9 16.8 4 4.6-.7 15.2-5.7 20.6-.4 8.8 8.7 18.8-4.2 23.5-6.2 9.5-.3 8.2-2.7 16.6-5.8 4.2-1.5 9 4.1 13.3 3 2.7-.7 5.1-6.3 7-11.1 1.7-4.4 4.6 7.7 9.6 10 2.7 1.3 7-7.1 10-7.1 2.2 0 3.3 7.4 4.9 8.8 3.2 2.7 6.5.2 10.4.5 3.7 8.7 11.8-5.8 17.6-3.4 3.8 1.6 8.4-3.3 12.8-4.3 5.8-1.3 13.3 3.3 17.8-1.9 4.8-5.6 6.9-9.6 16.2-10.9 9.4-1.3 10.8-8.8 17.3-11.3 5.7-1.6 9.3.7 12.8-4.2 3-4.1 21.9.4 26.5-3.4 2.8-2.3 8.2 3.6 15.3-1.4 5.9-3.2 12.3 1.2 19-3 4.9-3 11.6-2.4 17.6-2.4 8.7 0 17.4 2.2 25.8 1.6 14.2-.4 27.5 3.3 41.3 3.9 5.9.3 10.9-5.5 18-2 5.4 5.4 8.9 1.4 17.2 1.4 6.8.1 13.7-1.3 16.1.7 1.8 1.5-25.7 7.4-26.1 10.8v99.1l-459.4-4c-1.4-29.9 24.1-25.9 24.1-25.9s-14.2-3.1-20.5-5.2c-13.7-4.6-12.2-9-27.1-15.2 10.6.4 19.5 4.3 26.3 1.5 5.1-2.1 10.8 1.6 13-3.4 2.4-5.9 2.6-10.4 6.7-10.3zm-150.9 58.3h-245.9v-73.7c13.3.1 33.3 2.4 44.2-1.7 5.5-2 11.3-1.6 17.9-1.8 3.4-1.7 6.5-5 9.2-5.9 13.9-4.9 20.6-1.5 37.7-1.9 3.1-.1 8.9-.7 12.9 1.1 4.1 1.8 6.4 6 10.7 7.4 8.7 2.8 17.2 2.3 22.7 4.9 3.5 1.7 12.4-4.7 14.9-1.8 1.8 3.7 6.6 1.2 9.7 1.9 7.4 3.1 12.9-4.7 23 2.7.4-3.2 2.2-24.9-2.2-35.7 7.8 2.9 7 23.5 9.8 30.6 1.5 3.7 8 13.2 13.3 12 3.5-19.8-7-36-6.6-45.4 3 .8 3 7.7 7.3 13 4.3 5.4 6 21.2 5 28.7-2.2 10.8 9.2 9.3 12.8 11.7 2.5-26.4-3.6-34.1-3.8-45.3 3 4.5 5.9 14.8 9.6 21.5s3.5 15.3 2.3 18.9 2.8 7.6 2.9 8.7c2 11.5 1.3 2.6 12.4 4.8 18.8-2.6-21.8 8 14.4 9.3-18.9 6.3-17 15-10.3 19.2z" fill="#e0e7ed" opacity=".6"/><path d="m291.1 269.9c5.8-16.9 9.7-35.8 7.9-55 0-10.3 5.4-18.4-.2-39.2 3.2 5.2 4 14 4.2 19.5s-.9 10-1.1 12.3c-1 9.7 1.9 21.2.3 30.4-2.8 10.9-3.6 20.4-11.2 32.1zm-64.4-3.8c2.7-10.6 6.6-28.4 6.3-37.3.6-21.2-6.3-25.6-4.7-42.8.8-3.9-6.4-8-6.4-8s3.4 2.1 4.6 4.6c.6 1.2.7 2.7.3 4.4-1.4 6.1 1.8 18.2 3.8 34.3 1.5 15.5-4.9 36.2-3.9 44.8zm15.8-88.9s3.3.9 5.2 5.2-.9 9.2-.8 20.2 8.1 22 7.3 35.9c-.8 12.3-1.1 21.3-4.4 29.7 0 0 2-13.5 2.3-29.4.7-13.8-8-28.8-7-39s2-13.5 1.1-16.9-3.7-5.7-3.7-5.7zm22.9-.4s1.6 2.9 2.1 5.2c1.6 6.7-2.1 13.7-1.9 24.3s3.8 18 4.4 28.6.3 36.5.3 36.5 3.2-18.1 1.9-34.5-4.1-19.6-4.3-30.3c-.1-10.7 1.9-21 .9-24.2-1.1-3.2-3.5-5.5-3.5-5.5zm19.5-.3c2.3 9.8 1.5 16 2.9 25 1.5 10.4 1.8 27 .6 37.7-1.2 15.9-4.2 24.9-7.8 33.2 0 0 1.7-7.8 4.9-26.2 0 0 3.3-13.5.9-42-1.5-9.5-1.5-27.3-1.5-27.3z"/><path d="m5.2 217.8s83.5 3.9 116.7-10.9c44.9-25.7 163-30.5 163-30.5s31.5-3.7 60.1 3.2c28.7 6.8 207.4 23.2 307 10.9s253.8 4.1 253.8 4.1l36.9-2.1c17.8 20.7-3.5 50.5 34 106.5-33.5-24.5-63.6-56.3-80.5-91.2 0 0-79.6 2.5-107.1 7.9l-10 10.3-20.6-6.2c-114.2 13.2-203.3 54.3-331.6 63.9 0 0-87.2-20.8-112.6-12.3-25.3 8.6-21.7 11-21.7 11l-100.8-19.5c-46-35.5-74.9-31-125.2-10.7-18.1-2.4-42.9-19.7-61.4-34.4z" fill="#a1adbe" filter="url(#b)" opacity=".4"/><path d="m1013.6 52.8s-62.2 43.7-100.4 123.1c-5.2 16.2-10.4 16.8-25.3 16.3-292.5-1.6-308.7-59.5-562.6-55.4" fill="none" stroke="#313f74"/><g fill="#b3b3b3"><path d="m117.7 253.6c.7-1.4 1.4-3.4 2.5-4.4l.7 3.2zm-4.7 1.8c.7-1.4 1.8-3.1 2.9-4.1l.3 3.2zm-5.1 1.6c.7-1.4 1.2-3.3 2.3-4.3l.7 3.3zm-5.2 1.5c.2-1.5 1.9-3.6 3.4-4.5v3.3c-1.8.1-2.4.9-3.4 1.2zm-4.9.3c.7-1.4 1.4-2.6 2.5-3.6l.7 3.2z"/><path d="m79.3 251.1c1.6.8 3.1 1.5 4.9 1.8l-.8-2.6zm10.1.5-.2-3.2c-1.9 1-1.7.5-2.9.9 0 0 1.7 1.5 3.1 2.3zm4.6-4.4c1 1.4 2 1.9 3.8 2.1l-1.1-2.7zm7.7-1.7c1.6.8 4.6 2.5 4.6 2.5l-.4-3zm8.2-.1c1.6.8 1.5 1.6 3.3 1.9l-.8-2.5z"/></g></svg>