<?xml version="1.0" encoding="UTF-8" standalone="no"?>
<!-- Created with Inkscape (http://www.inkscape.org/) -->
<svg xmlns:dc="http://purl.org/dc/elements/1.1/" xmlns:cc="http://creativecommons.org/ns#" xmlns:rdf="http://www.w3.org/1999/02/22-rdf-syntax-ns#" xmlns:svg="http://www.w3.org/2000/svg" xmlns="http://www.w3.org/2000/svg" xmlns:sodipodi="http://sodipodi.sourceforge.net/DTD/sodipodi-0.dtd" xmlns:inkscape="http://www.inkscape.org/namespaces/inkscape" id="svg23831" version="1.1" inkscape:version="0.48.1 " width="271.25" height="178.75" xml:space="preserve" sodipodi:docname="Shrew__LongNosed_2.pdf"><metadata id="metadata23837"><rdf:RDF><cc:Work rdf:about=""><dc:format>image/svg+xml</dc:format><dc:type rdf:resource="http://purl.org/dc/dcmitype/StillImage"/><dc:title/></cc:Work></rdf:RDF></metadata><defs id="defs23835"/><sodipodi:namedview pagecolor="#ffffff" bordercolor="#666666" borderopacity="1" objecttolerance="10" gridtolerance="10" guidetolerance="10" inkscape:pageopacity="0" inkscape:pageshadow="2" inkscape:window-width="640" inkscape:window-height="480" id="namedview23833" showgrid="false" inkscape:zoom="1.627972" inkscape:cx="135.625" inkscape:cy="89.375" inkscape:window-x="460" inkscape:window-y="105" inkscape:window-maximized="0" inkscape:current-layer="g23839"/><g id="g23839" inkscape:groupmode="layer" inkscape:label="Shrew__LongNosed_2" transform="matrix(1.25,0,0,-1.25,0,178.75)"><g id="g23841" transform="scale(0.24,0.24)"><path d="m 501.945,569.582 0,5.945 -7.113,9.071 2.047,1.949 38.41,-14.137 61.418,-36.18 41.434,-33.347 41.336,-4 24.273,-7.02 51.477,-25.449 42.308,-33.351 12.188,-14.141 3.121,5.074 3.898,0 15.305,-16.969 9.066,-19.211 1.953,-5.07 -1.074,-21.258 5.071,-15.211 5.07,-37.347 -3.121,-32.082 -7.899,-24.282 0,-7.117 51.379,-49.441 6.238,-12.188 1.95,-21.16 -7.02,-5.07 -10.234,3.121 -5.949,12.969 -11.211,11.308 -2.047,0 12.187,-28.277 -3.996,-6.242 -3.121,-1.949 -1.949,-0.875 -3.121,0 -10.137,14.136 -5.07,11.02 -4.875,5.07 -1.071,-1.07 3.997,-10.145 0,-4.875 -7.118,-7.117 -9.945,0.879 -9.262,9.066 -20.082,35.399 -1.949,3.023 -23.203,-20.09 -12.188,-37.543 -23.105,-39.296 -27.395,-34.227 -19.203,-18.332 -7.996,-16.9688 2.047,-21.2578 -2.047,-7.01952 -1.07,-3.1211 -5.949,-3.99609 -17.254,2.04687 -10.141,7.01954 -4.875,5.9492 -3.117,11.1172 -6.145,3.0234 -9.066,11.1172 -3.996,8.0899 -12.09,10.2422 -5.945,1.9492 -4.192,7.0195 1.95,7.1211 7.019,5.0703 30.516,1.9492 24.078,30.3285 11.211,27.3 2.047,11.118 0,3.902 -20.375,21.258 -11.016,33.347 -0.879,5.95 -1.07,1.07 -1.172,0 0,-15.211 5.168,-32.277 0,-10.141 -5.168,-9.945 -8.969,0 -5.164,5.949 -1.953,12.187 -0.875,1.075 -3.121,-5.075 0,-16.085 -1.949,-2.247 -3.121,-0.875 -3.02,0 -7.996,15.016 -4.191,13.262 -1.95,1.949 1.071,-8.094 4,-15.015 0,-5.071 -5.071,-5.168 -3.996,0 -13.066,14.141 -6.141,31.398 1.949,15.016 -2.828,13.262 -5.066,7.898 -12.188,9.363 -1.074,0 0,-6.242 1.074,-0.879 -11.015,0 -38.41,5.95 -15.211,4 -16.184,3.117 -0.875,1.074 0,1.949 9.942,5.168 1.074,0.879 -7.02,3.024 -16.086,2.046 -11.308,0 -14.039,-13.066 -22.032,-10.141 -17.257,-4 0,-1.07 13.257,-2.051 0.879,0 1.074,0.879 0,-2.828 22.129,-9.066 11.993,-8.192 60.539,0 8.191,-1.074 3.02,-2.828 0,-2.047 -12.086,-6.144 9.066,-3.122 1.949,0 -7.898,-7.898 -4.289,0 -1.949,-2.047 21.253,-1.949 1.071,-1.172 -18.328,-12.969 -16.086,-6.238 -2.047,-1.953 8.187,-1.949 9.071,0 5.066,-2.047 0.879,-1.074 -16.965,-12.188 -25.445,-5.949 -41.141,0.879 -69.801,18.332 -24.082,2.047 -46.597,-2.047 -26.227,5.949 -9.066,5.168 -5.946,8.094 -2.046,9.066 -5.071,12.192 2.047,15.015 3.024,9.067 -14.137,10.144 -12.09,9.066 -7.117,8.094 -15.207,-10.14 -11.016,-3.996 -32.269,0.972 -17.161,1.949 -34.218,-4.875 -23.4964,-10.14 -19.2031,-24.281 -2.8282,-21.258 1.9493,-12.09 31.3945,-28.281 23.1989,-9.067 30.223,-4 36.461,-12.09 24.082,-19.2106 1.07,-5.9492 -5.066,0 -10.141,7.8984 -21.254,4.1953 -27.101,-2.2421 -47.4768,-3.9024 -20.375,1.9492 -27.1016,10.1446 -21.2539,16.1878 -12.0898,13.164 -10.13674,17.062 -7.117191,33.352 1.070311,27.398 11.11332,37.25 12.0898,22.137 35.3906,36.469 26.2227,17.066 25.1523,9.067 30.516,5.07 20.082,0.879 1.074,1.172 -7.02,14.136 -1.171,23.114 3.121,16.187 7.992,22.231 -0.875,0.878 -9.067,-3.902 15.012,21.16 35.293,27.207 7.117,3.024 23.102,40.469 10.238,12.089 3.899,4 -5.946,0 -7.019,-3.121 -3.121,0 3.121,5.168 50.304,31.301 31.391,13.066 1.949,0 1.953,2.145 -7.019,4.879 -0.879,0 0,2.242 49.43,11.016 38.41,3.121 37.336,-1.168 0.879,-1.074 1.07,0 0,3.121 -8.969,7.019 1.953,2.051 40.262,-13.07 26.32,-11.016 0,0" style="fill:#231f20;fill-opacity:1;fill-rule:nonzero;stroke:none" id="path23843"/><path d="m 495.805,568.508 8.093,-6.047 5.067,-1.07 0,8.191 -6.141,11.016 33.344,-12.09 41.527,-23.207 42.41,-30.328 16.961,-18.332 33.344,-0.879 22.324,-3.899 32.172,-13.261 39.289,-23.207 27.395,-22.332 16.183,-22.04 0,-2.046 3.024,-3.024 0.875,0 3.121,12.094 12.187,-13.262 10.137,-23.113 1.949,-24.082 5.95,-33.352 2.047,-22.332 -2.047,-24.183 -7.02,-23.207 -12.187,-19.207 -38.118,-35.301 -14.136,-11.117 -3.121,-12.09 L 753.18,133.504 719.836,84.9414 708.82,71.875 693.613,58.6133 l -9.945,-15.0156 -6.238,7.1171 -16.965,11.8985 -4.192,0 -0.878,-0.8789 15.015,-12.1914 6.141,-8.0899 3.996,-19.0156 -1.949,-17.26172 -14.137,2.04688 -10.137,7.02344 -5.07,12.1875 -2.047,14.1406 -7.019,11.0196 -22.129,11.0195 -9.262,2.2422 -2.828,5.9453 1.949,4 2.828,1.9492 32.465,3.1211 7.992,5.0703 -0.875,3.0234 12.965,15.0152 6.238,3.122 9.946,-3.122 12.089,-7.0191 2.047,0 1.071,1.0743 -5.067,7.1168 -12.187,7.02 -8.969,0 8.09,7.121 12.187,-2.051 9.946,-8.094 1.949,-2.046 4.191,0 -3.023,8.191 -12.184,7.898 -15.015,0 7.996,20.379 18.035,0 15.207,-9.066 3.121,0 0.875,0.879 -5.066,7.019 -12.969,7.118 -18.133,1.074 0.879,28.277 -2.926,14.141 -6.141,12.187 -1.949,0 -2.051,-2.242 7.997,-26.035 -0.879,-10.141 -15.305,16.09 -7.898,22.328 -3.118,14.141 -27.101,23.988 -3.121,6.238 -12.188,14.141 -12.086,26.231 -3.121,16.089 5.07,16.969 10.137,9.262 -5.066,17.066 2.047,18.332 8.09,7.899 12.187,1.074 5.07,9.066 0.875,8.192 5.071,4.875 11.113,4.195 13.16,-1.949 5.168,-9.363 4.777,-2.829 1.172,0 -3.121,9.946 -9.945,8.191 -14.137,0 -11.211,-3.996 -7.992,-10.141 -1.074,-7.121 -5.067,-5.07 -7.996,0 -11.211,-12.09 -2.925,-21.258 2.925,-11.019 1.071,-1.074 -11.016,-15.016 -3.117,-16.188 7.992,-31.203 14.039,-22.332 27.395,-29.156 5.945,-47.488 -1.949,-13.262 -1.949,-4.875 -0.875,-1.074 -2.247,0 -2.824,7.121 0,5.07 -8.191,7.899 -5.067,-4.875 -2.05,-19.211 -7.02,12.187 -7.113,18.137 -8.094,5.949 -2.047,-2.047 8.188,-36.175 -1.071,-1.075 -2.925,0 -10.137,14.141 -4,19.207 0,17.164 0.879,0 -1.949,18.137 -7.118,10.14 -17.16,11.899 -7.113,1.168 0,-5.071 2.047,-2.046 0,-3.024 -53.426,8.973 -10.238,2.242 -3.899,0 8.094,5.949 5.164,1.168 0,2.828 -10.234,3.121 -29.344,5.071 6.238,12.093 -7.117,7.993 -1.074,16.093 0,3.118 9.07,3.902 13.258,3.023 8.969,5.071 0,1.168 -7.02,0 -12.187,-5.071 -17.157,-3.121 1.071,-26.23 3.996,-5.946 1.074,0 -4.191,-9.07 -25.055,-21.16 -82.77,-26.23 -0.878,0 -1.168,-1.172 10.136,-5.071 10.239,-2.828 -7.118,-6.238 -23.398,-9.07 -23.203,-3.024 -19.203,1.949 -9.067,3.122 -1.949,0 10.137,5.07 5.07,0 0.879,1.074 -3.902,3.996 -17.254,4 -26.324,14.141 -25.153,17.16 -8.187,10.238 -5.946,2.828 -1.953,-5.07 -10.136,-7.996 -7.997,-3.024 -66.683,0 -37.3361,-11.117 -11.2109,-7.019 -18.1328,-23.207 -3.0235,-17.262 -0.9765,-1.07 -6.1407,14.136 0,14.141 10.1407,32.473 16.1796,22.039 34.4142,25.449 16.965,7.02 0,0.878 -9.067,0 L 94.2461,278.797 66.8477,255.59 50.7656,230.234 40.625,196.008 l 7.0195,-26.328 9.0664,-15.016 24.2735,-23.402 17.2578,-9.949 16.0858,-5.071 31.391,-3.898 29.148,-10.239 11.211,-7.023 1.953,-1.9492 -35.293,0 -43.48,-4.289 -20.0822,0 -28.2735,9.3593 -26.3203,18.9179 -20.2812,26.328 -7.89455,31.301 0.87891,30.328 9.26174,33.348 11.8906,23.211 32.4648,35.297 27.1993,17.164 28.1754,10.14 31.391,4.875 16.086,-0.972 22.324,-11.02 4,-3.023 3.117,0 0,7.019 -22.324,13.067 -9.066,14.14 -3.121,21.16 0,6.145 9.066,28.277 4.195,7.996 0,1.075 -1.949,2.046 -2.246,0 -0.875,-0.976 0,4 5.07,5.949 34.219,26.328 11.016,3.117 12.187,24.282 17.254,27.109 14.137,12.188 1.07,0 1.949,1.953 0,1.168 -1.949,1.949 -11.308,-1.949 -3.899,-3.121 26.227,18.14 43.285,21.16 16.375,1.071 1.953,2.047 -9.066,7.902 -1.075,0 -1.168,1.168 40.457,8.972 33.34,3.118 41.531,-1.071 9.848,-4 2.145,0 0.879,1.953 -3.024,7.118 6.141,0 41.336,-16.09 0,0" style="fill:#968967;fill-opacity:1;fill-rule:nonzero;stroke:none" id="path23845"/><path d="m 687.664,332.137 5.07,-42.321 -3.117,-71.476 3.117,-15.309 0,-3.902 -3.996,0.879 -4.191,25.351 3.117,39.297 0,4 -16.184,6.145 -9.066,19.015 0,7.02 4,11.215 9.066,7.996 8.188,1.949 -1.07,13.262 -7.996,17.258 2.828,0 10.234,-20.379 0,0" style="fill:#231f20;fill-opacity:1;fill-rule:nonzero;stroke:none" id="path23847"/><path d="m 812.844,301.906 17.156,-12.09 2.926,-10.14 -2.047,-16.09 -12.09,-11.02 -9.945,-4 -11.309,0.879 -1.949,1.95 -30.223,-46.317 -1.168,0 -1.949,-2.047 30.223,49.535 13.258,32.18 5.945,27.305 3.121,13.066 1.07,1.071 2.047,0 -5.066,-24.282 0,0" style="fill:#231f20;fill-opacity:1;fill-rule:nonzero;stroke:none" id="path23849"/><path d="m 687.664,292.938 -1.168,-15.215 0,-2.922 -9.066,0.875 -7.02,8.191 -5.07,14.141 5.07,12.969 12.188,8.191 1.949,0 3.117,-26.23 0,0" style="fill:#231f20;fill-opacity:1;fill-rule:nonzero;stroke:none" id="path23851"/><path d="m 826.98,284.746 0,-15.016 -6.242,-11.214 -11.015,-5.95 -10.137,1.075 -0.879,0.875 5.07,15.214 7.02,20.086 0,2.047 3.996,1.953 5.945,-1.953 6.242,-7.117 0,0" style="fill:#231f20;fill-opacity:1;fill-rule:nonzero;stroke:none" id="path23853"/><path d="m 893.66,181.871 1.953,-14.141 0,-4 -3.121,-1.07 -3.023,0 -11.114,18.137 -9.066,8.094 -11.016,3.121 -1.074,0 -1.949,-1.949 16.086,-32.473 0,-2.926 -3.117,-3.023 -2.828,0.879 -20.375,31.3 -10.141,0 -1.949,-1.949 9.066,-13.066 0,-9.266 -4.875,-0.879 -6.238,2.051 -7.899,12.09 -6.238,12.187 -12.965,18.043 3.996,5.071 30.223,33.347 49.426,-47.39 6.238,-12.188 0,0" style="fill:#6b6660;fill-opacity:1;fill-rule:nonzero;stroke:none" id="path23855"/><path d="m 440.43,207.027 8.968,-7.019 23.204,0 29.343,1.07 15.016,-1.07 1.074,-0.879 -19.207,-7.117 0,-4.196 13.063,-1.949 3.121,0 -19.207,-11.117 1.949,-1.949 23.398,0 0,-1.949 -30.515,-15.309 -7.016,0 -1.953,-1.953 3.023,-3.121 25.153,-2.824 -15.012,-8.192 -21.156,-4 -36.363,0.879 -58.497,16.188 -33.339,4.191 -55.375,-1.168 -17.254,3.117 -11.02,5.07 -5.066,5.95 -3.121,10.238 -5.071,12.973 3.996,18.332 14.137,-7.024 18.328,-6.238 -12.183,-3.902 7.992,-7.118 10.14,-1.953 22.325,-3.117 29.148,3.996 23.399,12.094 8.968,6.238 0.977,2.828 -20.184,4.196 38.414,11.894 23.203,-7.019 23.2,-9.071 0,0" style="fill:#6b6660;fill-opacity:1;fill-rule:nonzero;stroke:none" id="path23857"/><path d="m 374.137,221.656 -26.614,-8.386 -0.878,0 -1.168,-1.172 10.136,-5.071 10.239,-2.828 -7.118,-6.238 -23.398,-9.07 -23.203,-3.024 -19.203,1.949 -9.067,3.122 -1.949,0 10.137,5.07 5.07,0 0.879,1.074 -3.902,3.996 -17.254,4 -26.324,14.141 -25.153,17.16 -8.187,10.238 -5.946,2.828 -1.953,-5.07 -10.136,-7.996 -7.997,-3.024 -66.683,0 -37.3361,-11.117 -11.2109,-7.019 -18.1328,-23.207 -3.0235,-17.262 -0.9765,-1.07 -6.1407,14.136 0,14.141 10.1407,32.473 16.1796,22.039 34.4142,25.449 16.965,7.02 0,0.878 -3.317,0 c 20.571,4 44.75,2.243 62.395,2.243 -2.34,0 -7.797,3.902 -11.602,5.461 1.563,1.558 28.664,3.023 34.121,3.023 4.582,-4.582 9.262,-9.266 14.723,-11.605 3.121,-7.704 9.262,-9.262 14.719,-14.723 0,-1.559 0,-3.121 -0.778,-4.68 0.778,-3.902 2.34,-8.484 5.458,-11.605 l 0,-3.121 c 4.679,-4.68 6.921,-18.625 8.484,-24.864 7.797,-3.023 14.816,-6.925 24.078,-6.925 -3.117,3.902 -6.238,8.484 -6.238,13.945 l 6.238,6.242 c 6.242,-9.363 24.082,-8.582 32.563,-17.066 0,-2.34 -2.34,-11.703 0.781,-13.262 7.019,-3.805 37.238,-9.266 37.238,5.461 l -0.777,0.781 c -3.903,0 -10.043,2.34 -13.164,3.899 0,1.562 -0.778,2.339 -0.778,3.902 3.117,2.242 2.34,10.043 2.34,13.941 l 35.68,5.461 c 0,-1.558 -3.899,-5.461 -4.68,-6.238 1.172,-7.996 5.852,-13.457 11.309,-18.43 l 0,0 z m -264.196,65.039 c -4.679,-1.656 -9.066,-3.8 -12.8707,-6.433 l 12.8707,6.433 0,0 z M 84.6914,270.703 c -0.4883,-0.195 -0.8789,-0.39 -1.0742,-0.39 0,-0.196 -0.1953,-0.485 -0.3906,-0.875 l 1.4648,1.265 0,0 z m -28.1758,-31.398 -0.0976,0 0,-0.098 0.0976,0.098 0,0 z m -0.8789,-1.266 c -0.1953,-0.195 -0.4844,-0.293 -0.7773,-0.293 0,-0.391 -0.1953,-1.074 -0.3906,-1.66 l 1.1679,1.953 0,0 z m -8.0898,-18.434 -0.4883,-1.656 c 0.0977,0.391 0.0977,0.781 0.0977,1.172 l 0.3906,0.484" style="fill:#6d6655;fill-opacity:1;fill-rule:nonzero;stroke:none" id="path23859"/><path d="m 173.406,102.688 1.461,-0.583 11.211,-7.023 1.953,-1.9492 -35.293,0 -43.48,-4.289 -20.0822,0 L 60.9023,98.2031 34.582,117.121 14.3008,143.449 6.69922,173.68 c 5.26558,-11.41 12.28128,-21.844 20.27738,-28.282 0,3.903 -1.5586,8.582 -1.5586,11.704 6.2383,-3.122 10.039,-15.602 15.5,-19.407 8.5781,-7.019 20.1797,-14.039 27.1992,-24.086 l -0.7813,10.047 c 0,-0.781 2.2422,-3.023 3.8047,-3.023 20.1797,-7.801 43.4804,-10.141 64.4374,-15.602 11.313,-2.633 24.57,-2.343 37.828,-2.343" style="fill:#6d6655;fill-opacity:1;fill-rule:nonzero;stroke:none" id="path23861"/><path d="m 42.2813,189.672 5.3632,-19.992 9.0664,-15.016 24.2735,-23.402 13.8437,-7.996 -0.3906,-0.391 c -3.1172,-1.465 -22.5195,5.461 -26.3203,7.02 -14.0391,7.023 -25.6406,21.746 -35.7774,31.789 -6.9218,6.925 -20.5703,13.847 -25.64058,23.597 l 0.58594,19.797 9.26174,33.348 11.8906,23.211 32.4648,35.297 27.1993,17.164 28.1754,10.14 31.391,4.875 16.086,-0.972 20.473,-10.047 c -2.047,-0.485 -4.875,-1.266 -6.043,-1.266 l 0,-0.781 c -9.262,-4.68 -28.664,3.023 -38.704,-0.781 -2.339,-0.778 -20.96,-6.239 -20.96,-10.918 -9.36,0 -31.8794,-13.848 -40.3598,-18.532 -5.461,-2.339 -22.5235,-10.82 -22.5235,-17.843 l 1.5625,0 c 0,-13.164 -13.164,-34.91 -18.6211,-46.512 1.5586,0 3.1211,1.559 4.6797,1.559 0,-9.36 -7.0195,-24.864 -1.5586,-33.348 l 0.5821,0" style="fill:#b9a66f;fill-opacity:1;fill-rule:nonzero;stroke:none" id="path23863"/><path d="m 676.941,184.113 2.536,-8.191 -0.879,-10.141 -15.305,16.09 -7.898,22.328 -3.118,14.141 -27.101,23.988 -3.121,6.238 -12.188,14.141 -12.086,26.231 -3.121,16.089 5.07,16.969 10.137,9.262 -5.066,17.066 2.047,18.332 8.09,7.899 3.316,0.293 c -3.512,-2.145 -7.117,-4.485 -10.141,-7.508 l 6.047,-6.145 c 0,-1.168 1.266,-2.437 1.266,-3.605 0,-2.442 -6.043,-9.754 -7.313,-10.922 8.481,-18.238 17.063,-32.766 13.356,-55.777 -3.606,-1.27 -4.875,0 -8.481,0 3.606,-6.047 43.676,-38.911 43.676,-40.078 l -4.777,0 -1.266,-1.27 c 0,-2.438 -1.172,-7.215 -1.172,-10.922 3.606,-3.605 6.043,-6.043 7.215,-9.652 l 1.266,0 c 6.047,-11.02 6.047,-31.594 15.793,-41.348 l 0,-2.437 c 1.172,0 2.242,-0.387 3.218,-1.071 l 0,0 z m -42.699,209.946 2.34,2.144 -0.488,-0.976 -1.266,-1.168 -0.586,0 0,0 z m -0.879,5.754 c -2.828,1.851 -6.238,4.386 -7.019,5.167 l -34.024,0 c -16.965,0 -31.586,-3.707 -46.113,-10.921 l 0,-2.438 c 10.918,-10.922 32.758,-12.191 46.113,-18.234 -12.09,-4.879 -36.363,-3.61 -46.113,-10.922 l 0,-2.438 c 1.172,0 2.438,-1.269 4.875,-1.269 -4.875,-4.778 -12.187,-12.09 -18.23,-15.797 -7.313,3.707 -21.836,3.707 -27.981,0 0,-2.34 6.145,-6.047 6.145,-7.215 -18.231,0 -26.715,1.168 -42.508,8.481 -6.141,2.441 -41.238,27.89 -39.969,36.472 l 1.168,2.438 c 0,0 3.606,1.168 4.875,1.168 l 0,1.172 c -2.437,1.269 -14.625,3.707 -14.625,3.707 -7.211,3.605 -59.469,27.886 -59.469,34.031 -18.23,0 -49.816,-19.504 -43.675,-40.078 l 2.339,0 0,-1.27 c 7.313,-4.875 35.293,15.797 41.336,18.235 -6.043,3.609 -13.355,7.316 -18.23,12.191 0,1.168 38.898,-38.906 38.898,-57.145 3.61,-1.168 8.485,-3.605 12.09,-6.043 0,-4.878 -7.215,-9.753 -10.918,-13.359 1.266,0 9.75,-4.875 12.184,-6.144 l 0,-2.34 c 9.652,0 13.359,-4.875 24.277,-4.875 -10.918,-8.485 -26.711,-17.067 -35.195,-27.891 0,-2.437 4.777,-6.043 6.047,-7.312 -19.403,-4.778 -36.465,-4.778 -57.133,0 -6.043,13.359 -6.043,9.75 -8.481,24.281 -20.57,0 -32.754,-33.934 -44.941,-46.125 20.668,-4.875 47.379,-6.043 66.879,-9.652 1.168,-3.708 -2.438,-18.235 -2.438,-24.379 l 24.957,-11.411 61.809,19.602 25.055,21.16 4.191,9.07 -1.074,0 -3.996,5.946 -1.071,26.23 17.157,3.121 12.187,5.071 7.02,0 0,-1.168 -8.969,-5.071 -13.258,-3.023 -9.07,-3.902 0,-3.118 1.074,-16.093 7.117,-7.993 -6.238,-12.093 29.344,-5.071 10.234,-3.121 0,-2.828 -5.164,-1.168 -8.094,-5.949 3.899,0 10.238,-2.242 53.426,-8.973 0,3.024 -2.047,2.046 0,5.071 7.113,-1.168 13.067,-8.973 c 0.195,1.27 0.488,2.535 0.488,3.024 l 1.168,1.269 2.437,0 c 0,3.606 2.438,8.481 -2.437,10.922 0,1.168 -1.168,3.605 -2.438,3.605 0,4.875 3.703,12.192 7.313,15.797 l 6.043,0 c 0,-1.168 8.582,-7.214 9.75,-7.214 0,-3.708 8.48,-8.583 8.48,-11.02 1.27,0 2.438,-1.168 3.707,-2.34 1.852,0 11.016,-2.926 15.11,-4.875 l -11.309,11.992 -14.039,22.332 -7.992,31.203 3.117,16.188 11.016,15.016 -1.071,1.074 -2.925,11.019 2.925,21.258 11.211,12.09 7.996,0 5.067,5.07 1.074,7.121 6.238,7.997" style="fill:#6d6655;fill-opacity:1;fill-rule:nonzero;stroke:none" id="path23865"/><path d="m 495.805,568.508 8.093,-6.047 5.067,-1.07 0,8.191 -6.141,11.016 33.344,-12.09 41.527,-23.207 42.41,-30.328 16.961,-18.332 33.344,-0.879 22.324,-3.899 32.172,-13.261 39.289,-23.207 27.395,-22.332 16.183,-22.04 0,-2.046 3.024,-3.024 0.875,0 3.121,12.094 12.187,-13.262 10.137,-23.113 1.367,-16.672 -17.843,9.555 c 0,2.437 2.437,4.875 2.437,7.312 l 1.172,0 c 14.621,18.235 -23.008,21.844 -29.152,24.281 -3.606,1.27 -35.192,15.797 -35.192,19.504 3.703,0 13.356,-1.269 14.621,-2.437 2.438,0 6.047,1.168 8.485,1.168 l 0,3.609 c -3.61,0 -2.438,9.75 -2.438,12.188 -16.965,8.484 -54.691,7.316 -68.047,20.675 -1.172,1.168 -4.777,6.043 -3.609,4.875 7.312,-6.144 16.965,-17.066 21.84,-24.378 l 1.265,0 c 1.168,-1.172 -1.265,-8.485 -1.265,-9.653 -18.231,0 -77.703,2.438 -26.715,2.438 -12.09,7.215 -30.32,14.527 -41.238,25.449 0,1.269 2.437,3.707 2.437,4.875 -21.933,0 -46.211,-6.047 -68.047,-6.047 0,3.609 2.438,8.484 2.438,13.363 l 3.605,3.606 c 1.27,0 2.438,-1.168 3.707,-1.168 0,15.797 -31.59,21.84 -40.07,20.672 l 1.172,-20.672 c -7.313,-3.707 -23.106,10.918 -27.883,16.965 -18.23,25.55 -40.07,24.281 -68.047,35.203 9.746,3.707 57.031,6.144 57.031,21.941 l -131.027,-1.269 c 0,-7.313 42.504,-8.485 46.113,-10.922 0,-10.922 -25.445,-8.485 -25.445,-19.403 7.313,-2.441 13.356,-8.484 16.961,-14.628 -25.441,-10.922 -64.34,-20.575 -92.223,-33.934 8.481,18.137 27.883,33.934 38.801,52.168 0,0 3.703,2.437 2.438,2.437 -34.024,-4.875 -37.633,-10.921 -54.594,-19.402 -1.27,0 -3.707,2.438 -4.875,2.438 0,2.437 1.168,6.043 2.437,7.214 -15.793,-3.609 -35.293,-6.046 -48.648,-14.531 1.266,0 4.875,-1.265 6.141,-1.265 1.171,-2.34 2.437,-6.047 2.437,-8.485 l 19.402,1.27 c -21.839,-10.922 -63.175,-32.864 -78.968,-54.707 -4.875,-6.047 -6.043,-20.672 -9.653,-26.719 0,8.484 2.34,25.551 1.172,31.594 -13.355,-13.356 -15.793,-38.907 -29.148,-52.266 l 1.265,23.109 c -4.875,-10.921 -19.5,-19.402 -24.371,-30.324 -2.925,-4.972 -5.07,-24.476 -5.754,-30.816 l -2.925,19.601 0,6.145 9.066,28.277 4.195,7.996 0,1.075 -1.949,2.046 -2.246,0 -0.875,-0.976 0,4 5.07,5.949 34.219,26.328 11.016,3.117 12.187,24.282 17.254,27.109 14.137,12.188 1.07,0 1.949,1.953 0,1.168 -1.949,1.949 -11.308,-1.949 -3.899,-3.121 26.227,18.14 43.285,21.16 16.375,1.071 1.953,2.047 -9.066,7.902 -1.075,0 -1.168,1.168 40.457,8.972 33.34,3.118 41.531,-1.071 9.848,-4 2.145,0 0.879,1.953 -3.024,7.118 6.141,0 41.336,-16.09 0,0" style="fill:#b9a66f;fill-opacity:1;fill-rule:nonzero;stroke:none" id="path23867"/><path d="m 756.297,262.902 c -1.266,-6.047 -4.871,-13.359 -4.871,-19.402 -2.438,0 0,-1.172 -2.438,-1.172 l 1.266,-23.109 -2.438,-1.27 c 0,-10.922 -40.066,-1.172 -46.211,1.27 1.27,10.918 6.145,25.449 2.438,36.469 -9.652,30.324 3.707,66.699 -6.043,98.292 -2.437,7.215 1.168,20.575 2.438,27.887 1.167,8.485 -4.875,20.676 -6.047,29.156 3.609,-1.168 9.652,-3.605 13.359,-3.605 3.605,2.437 8.48,7.215 10.918,9.652 10.918,0 40.066,18.235 31.586,9.754 0,-31.597 26.711,-51 57.031,-51 0,-1.269 -1.168,-3.707 -1.168,-4.879 l -1.269,-52.265 c -2.438,-2.438 -4.875,-12.09 -4.875,-15.797 -8.481,-5.949 -16.961,-24.184 -16.961,-33.836 -1.27,-1.27 -4.875,-4.875 -4.875,-6.145 l -1.172,-1.168 c -4.875,0 -14.621,-1.269 -20.668,1.168" style="fill:#968967;fill-opacity:1;fill-rule:nonzero;stroke:none" id="path23869"/><path d="m 756.297,266.316 c -1.168,-5.656 -4.582,-12.48 -4.582,-18.136 -2.242,0 0,-1.075 -2.242,-1.075 0.39,-7.117 0.781,-14.335 1.172,-21.453 -0.782,-0.39 -1.559,-0.781 -2.243,-1.168 0,-10.144 -37.242,-1.074 -42.894,1.168 1.07,10.141 5.652,23.696 2.242,33.836 -9.066,28.282 3.41,62.02 -5.656,91.371 -2.242,6.731 1.172,19.211 2.242,25.938 1.172,7.898 -4.484,19.211 -5.652,27.109 3.41,-1.172 9.066,-3.414 12.476,-3.414 3.317,2.242 7.899,6.731 10.141,9.071 10.137,0 37.238,16.871 29.344,8.972 0,-29.351 24.761,-47.394 53.035,-47.394 0,-1.071 -1.172,-3.411 -1.172,-4.485 -0.391,-16.187 -0.68,-32.375 -1.07,-48.562 -2.243,-2.242 -4.583,-11.309 -4.583,-14.625 -7.898,-5.559 -15.792,-22.528 -15.792,-31.496 -1.075,-1.172 -4.485,-4.586 -4.485,-5.657 -0.39,-0.39 -0.781,-0.781 -1.172,-1.171 -4.484,0 -13.453,-1.071 -19.109,1.171" style="fill:#9d8f69;fill-opacity:1;fill-rule:nonzero;stroke:none" id="path23871"/><path d="m 756.297,269.633 c -1.07,-5.168 -4.192,-11.508 -4.192,-16.676 -2.144,0 0,-1.074 -2.144,-1.074 0.391,-6.531 0.781,-13.164 1.074,-19.793 -0.683,-0.293 -1.367,-0.684 -2.047,-1.074 0,-9.36 -34.414,-0.977 -39.679,1.074 1.07,9.359 5.265,21.937 2.144,31.301 -8.383,26.035 3.121,57.238 -5.265,84.347 -2.047,6.242 1.074,17.746 2.144,23.989 0.977,7.312 -4.191,17.746 -5.262,24.964 3.118,-0.976 8.383,-3.121 11.504,-3.121 3.117,2.145 7.309,6.34 9.36,8.387 9.355,0 34.414,15.602 27.101,8.289 0,-27.109 22.91,-43.785 49.035,-43.785 0,-0.977 -1.07,-3.121 -1.07,-4.094 -0.391,-15.019 -0.684,-29.937 -1.074,-44.855 -2.047,-2.149 -4.094,-10.434 -4.094,-13.555 -7.312,-5.168 -14.625,-20.773 -14.625,-29.156 -1.07,-0.977 -4.191,-4.098 -4.191,-5.168 -0.391,-0.391 -0.68,-0.684 -1.071,-1.074 -4.097,0 -12.48,-0.977 -17.648,1.074" style="fill:#a5966b;fill-opacity:1;fill-rule:nonzero;stroke:none" id="path23873"/><path d="m 756.199,272.945 c -0.875,-4.777 -3.801,-10.531 -3.801,-15.308 -1.851,0 0,-0.879 -1.851,-0.879 0.293,-6.141 0.586,-12.188 0.879,-18.235 -0.586,-0.293 -1.27,-0.582 -1.856,-0.972 0,-8.582 -31.586,-0.879 -36.363,0.972 0.977,8.582 4.777,20.09 1.949,28.672 -7.699,23.989 2.828,52.559 -4.777,77.422 -1.949,5.754 0.879,16.285 1.855,22.039 0.973,6.633 -3.804,16.285 -4.777,22.914 2.922,-0.972 7.699,-2.824 10.527,-2.824 2.829,1.852 6.727,5.75 8.579,7.606 8.679,0 31.589,14.332 24.863,7.703 0,-24.867 21.054,-40.176 44.941,-40.176 0,-0.977 -0.879,-2.926 -0.879,-3.902 -0.39,-13.653 -0.679,-27.399 -0.972,-41.051 -1.95,-1.953 -3.805,-9.559 -3.805,-12.481 -6.727,-4.683 -13.453,-19.015 -13.453,-26.722 -0.973,-0.875 -3.801,-3.801 -3.801,-4.778 -0.293,-0.289 -0.684,-0.582 -0.977,-0.875 -3.8,0 -11.503,-0.976 -16.281,0.875" style="fill:#ac9c6c;fill-opacity:1;fill-rule:nonzero;stroke:none" id="path23875"/><path d="m 756.199,276.359 c -0.875,-4.386 -3.41,-9.652 -3.41,-13.945 -1.754,0 0,-0.875 -1.754,-0.875 0.293,-5.559 0.582,-11.019 0.875,-16.578 -0.582,-0.293 -1.168,-0.586 -1.754,-0.879 0,-7.801 -28.758,-0.875 -33.047,0.879 0.778,7.898 4.289,18.332 1.657,26.133 -6.922,21.746 2.632,47.781 -4.289,70.406 -1.758,5.266 0.875,14.82 1.753,20.086 0.879,6.047 -3.511,14.723 -4.386,20.867 2.633,-0.879 6.922,-2.633 9.554,-2.633 2.629,1.754 6.141,5.266 7.895,7.02 7.801,0 28.664,12.973 22.617,6.926 0,-22.625 19.11,-36.567 40.848,-36.567 0,-0.879 -0.875,-2.633 -0.875,-3.511 -0.293,-12.481 -0.586,-24.965 -0.879,-37.446 -1.656,-1.656 -3.41,-8.679 -3.41,-11.312 -6.145,-4.289 -12.188,-17.258 -12.188,-24.282 -0.879,-0.875 -3.508,-3.41 -3.508,-4.289 -0.293,-0.293 -0.585,-0.586 -0.878,-0.879 -3.508,0 -10.43,-0.875 -14.821,0.879" style="fill:#b2a06e;fill-opacity:1;fill-rule:nonzero;stroke:none" id="path23877"/><path d="m 756.199,279.676 c -0.777,-3.903 -3.117,-8.582 -3.117,-12.578 -1.559,0 0,-0.782 -1.559,-0.782 l 0.778,-14.921 -1.559,-0.778 c 0,-7.023 -25.933,-0.781 -29.832,0.778 0.781,7.121 3.899,16.48 1.559,23.601 -6.239,19.598 2.34,43 -3.899,63.383 -1.558,4.777 0.782,13.359 1.559,18.137 0.781,5.461 -3.117,13.261 -3.899,18.82 2.34,-0.781 6.239,-2.438 8.579,-2.438 2.339,1.657 5.558,4.778 7.117,6.336 7.019,0 25.836,11.801 20.375,6.243 0,-20.379 17.258,-32.961 36.851,-32.961 0,-0.778 -0.781,-2.34 -0.781,-3.118 l -0.777,-33.742 c -1.563,-1.558 -3.121,-7.801 -3.121,-10.14 -5.555,-3.996 -11.016,-15.602 -11.016,-21.942 -0.781,-0.777 -3.121,-3.117 -3.121,-3.898 l -0.777,-0.781 c -3.121,0 -9.457,-0.782 -13.36,0.781" style="fill:#b9a66f;fill-opacity:1;fill-rule:nonzero;stroke:none" id="path23879"/><path d="m 774.723,189.867 -1.168,-0.976 -3.121,-12.09 L 753.18,133.504 719.836,84.9414 708.82,71.875 693.613,58.6133 l -9.945,-15.0156 -6.238,7.1171 -16.965,11.8985 -4.192,0 -0.878,-0.8789 15.015,-12.1914 6.141,-8.0899 3.996,-19.0156 -1.949,-17.26172 -14.137,2.04688 -10.137,7.02344 -5.07,12.1875 -2.047,14.1406 -7.019,11.0196 -22.129,11.0195 -9.262,2.2422 -2.828,5.9453 1.949,4 2.828,1.9492 32.465,3.1211 7.992,5.0703 -0.875,3.0234 12.965,15.0152 6.238,3.122 9.946,-3.122 12.089,-7.0191 2.047,0 1.071,1.0743 -5.067,7.1168 -12.187,7.02 -8.969,0 8.09,7.121 12.187,-2.051 9.946,-8.094 1.949,-2.046 4.191,0 -3.023,8.191 -12.184,7.898 -15.015,0 7.996,20.379 18.035,0 15.207,-9.066 3.121,0 0.875,0.879 -5.066,7.019 -12.969,7.118 -18.133,1.074 0.879,28.277 -2.926,14.141 -1.949,3.898 c 0.098,0.098 0.098,0.098 0.098,0.195 0,1.27 -1.754,2.438 -1.754,2.438 -0.782,0 0.777,1.758 -1.075,2.828 l -1.461,2.828 -0.097,0 c 0.293,1.074 0.777,2.145 0.777,2.828 1.172,0 2.438,1.27 3.61,1.27 0,1.168 2.437,3.605 3.605,3.605 0,1.27 1.27,3.707 2.438,3.707 l 2.437,-3.707 1.27,0 c 2.433,-2.437 2.433,-8.48 2.433,-12.089 1.172,-1.27 2.438,-2.438 2.438,-3.708 l 2.339,0 c 1.27,1.27 4.875,6.145 8.583,6.145 3.605,-7.312 12.085,-12.187 16.96,-17.066 2.438,0 7.313,2.437 8.485,4.879 l 2.433,1.167 c 0,-2.437 3.707,-7.214 6.047,-7.214 0,-4.875 0,-12.192 3.703,-15.797 l 2.438,0 c 3.609,3.605 6.047,9.652 8.48,14.527 1.172,0 2.438,1.27 2.438,2.438 l 1.172,1.269 1.265,0 0,1.168 1.172,0 0,1.172 1.266,1.27 6.047,0 0,-1.27 c 0.972,-0.977 5.359,0.586 7.504,1.074 l 0,0 z m -97,-8.387 c 1.949,-5.265 2.242,-10.433 0.39,-15.308 l 0.485,-0.391 0.879,10.141 -1.754,5.558" style="fill:#bc9b8a;fill-opacity:1;fill-rule:nonzero;stroke:none" id="path23881"/><path d="m 605.285,258.125 5.461,-8.68 27.395,-29.156 5.945,-47.488 -1.949,-13.262 -1.949,-4.875 -0.875,-1.074 -2.247,0 -2.824,7.121 0,5.07 -8.191,7.899 -5.067,-4.875 -2.05,-19.211 -7.02,12.187 -7.113,18.137 -8.094,5.949 -2.047,-2.047 8.188,-36.175 -1.071,-1.075 -2.925,0 -10.137,14.141 -4,19.207 0,17.164 0.879,0 -1.949,18.137 -7.118,10.14 L 562,235.406 c 2.926,10.239 0.879,21.645 10.043,29.641 l 0,0.391 c 0.879,0 2.242,0.976 2.242,0.976 2.731,0 8.09,1.266 11.309,0.391 4.484,-1.367 11.211,-5.852 16.183,-5.852 0.391,-0.488 2.243,-1.367 2.731,-1.754 l 0,-0.488 c 0,0 0.293,-0.293 0.777,-0.586" style="fill:#6b6660;fill-opacity:1;fill-rule:nonzero;stroke:none" id="path23883"/><path d="m 511.402,196.594 -12.574,-4.582 0,-2.242 c -3.316,-0.196 -6.824,-0.098 -9.555,-0.098 l -0.585,0.488 0,3.606 c 1.074,0.488 3.121,2.047 4.582,2.535 3.804,1.074 11.015,0.879 18.132,0.293 l 0,0 z m -4.484,-15.406 -6.824,-3.903 c -0.973,0.879 -2.34,1.367 -3.215,2.242 l 0,2.539 c 2.437,0 6.238,-0.488 10.039,-0.878 l 0,0 z m 6.535,-14.239 -21.937,-10.922 c -2.828,-0.097 -5.266,-0.289 -6.825,-0.289 0,2.047 -0.488,5.071 0.977,6.629 6.141,0 15.695,3.024 21.836,3.996 2.047,0.293 4.094,0.489 5.949,0.586 l 0,0 z m -8.68,-22.133 c -7.503,0 -15.695,1.364 -20.57,2.829 -3.019,1.07 -13.16,2.046 -15.207,5.07 -0.488,0.484 -0.976,2.535 -1.558,3.605 -4.485,0 -13.165,1.953 -17.161,3.024 -11.601,3.511 -22.714,5.558 -36.363,5.558 2.047,-1.074 2.047,-1.558 5.07,-2.047 -7.117,-4.582 -25.836,-2.046 -33.441,0.973 l 0,1.563 c 0.488,0 1.074,0.488 1.562,0.488 -29.929,0 -59.761,7.605 -89.105,7.605 0,-2.535 3.996,-3.023 5.555,-3.511 l 0,-1.559 c -7.602,-1.465 -22.813,1.07 -30.418,3.024 -4.969,1.363 -13.551,7.605 -19.301,7.8 l 2.926,-9.558 5.066,-5.95 11.02,-5.07 17.254,-3.117 55.375,1.168 33.339,-4.191 58.497,-16.188 36.363,-0.879 21.156,4 9.941,5.363" style="fill:#534f4d;fill-opacity:1;fill-rule:nonzero;stroke:none" id="path23885"/><path d="m 605.285,258.125 5.461,-8.68 27.395,-29.156 5.945,-47.488 -1.949,-13.262 -0.391,-0.976 c 0,5.851 -1.07,12.289 -1.656,15.41 -2.535,13.648 1.558,30.91 -8.578,41.05 -1.074,0 -3.024,0.977 -3.512,1.465 l 0,0.582 c -2.531,1.953 -6.141,10.145 -9.648,10.145 0,0.973 -0.489,0 -0.489,0.973 -8.093,0 -13.746,22.234 -21.254,22.234 0,3.512 0.489,7.508 0.879,11.406 1.461,-0.582 2.922,-0.875 4.289,-0.875 0.391,-0.488 2.243,-1.367 2.731,-1.754 l 0,-0.488 c 0,0 0.293,-0.293 0.777,-0.586 l 0,0 z m 28.078,-91.566 c -0.293,4.781 -0.488,9.168 -0.879,11.507 -0.484,2.047 -2.531,5.559 -2.531,7.606 -0.976,0 -1.953,0.976 -2.535,1.465 l -0.488,0 c -7.41,-2.242 -9.262,-21.844 -7.215,-30.621 l 1.269,12.289 5.067,4.875 7.312,-7.121 0,0 z m -21.254,-5.168 c -0.484,8.191 0,16.773 -4.875,21.746 l 0,1.465 -6.14,5.558 c -0.973,0 -1.949,-0.488 -3.02,-0.488 -0.683,-1.367 -1.172,-2.731 -1.66,-4.098 l 0.293,0.293 8.094,-5.949 7.113,-18.137 0.195,-0.39 0,0 z m -16.765,19.601 c -1.852,-10.922 1.558,-22.621 2.144,-32.57 l 1.364,-1.852 2.925,0 1.071,1.075 -7.504,33.347 0,0 z m -10.629,2.145 0,13.945 0.879,0 -1.949,18.137 -7.118,10.14 L 562,235.406 c 0.586,1.949 0.977,3.996 1.27,5.946 0.195,0.683 0.39,1.367 0.39,2.05 l 0.485,0.485 c 1.074,0 5.07,-0.485 5.07,-2.047 2.047,0 4.582,-3.996 6.629,-3.996 0,-0.586 3.511,-4.098 3.996,-4.586 l 0,-0.488 c 0,0 1.074,0 1.074,-1.071 l 0.488,-0.488 c 0.973,0 5.071,-4.582 6.043,-5.559 0,-10.629 0.977,-21.746 -0.972,-31.886 -0.684,-2.926 -1.27,-6.532 -1.758,-10.629" style="fill:#534f4d;fill-opacity:1;fill-rule:nonzero;stroke:none" id="path23887"/><path d="m 895.125,163.633 -2.633,-0.973 -3.023,0 -11.114,18.137 -9.066,8.094 -11.016,3.121 -1.074,0 -1.558,-1.563 c -0.586,1.758 -0.879,3.317 -0.879,4.781 5.558,2.536 12.676,3.606 18.23,-0.976 l 0,-0.488 c 6.047,-5.071 9.653,-15.7 14.625,-21.844 2.242,-2.438 4.973,-5.266 7.508,-8.289 l 0,0 z m -29.152,-11.309 c -3.118,4.192 -5.75,8.871 -7.211,13.067 -3.024,8.582 -7.508,14.136 -12.09,21.746 -1.074,1.558 -5.07,3.023 -5.559,4.582 -3.019,0 -7.601,0.976 -10.136,-1.559 0,-1.953 0.875,-5.074 2.144,-8.094 l 1.754,1.754 10.141,0 20.375,-31.3 0.582,-0.196 0,0 z m -32.266,28.375 4.969,-7.117 c -1.754,1.363 -3.508,4.094 -4.969,7.117 l 0,0 z m 5.848,-8.386 0.586,-0.875 c -0.196,0.195 -0.391,0.386 -0.586,0.484 l 0,0.391 z m 2.437,-10.922 0,-1.852 -4.875,-0.879 -6.238,2.051 -7.899,12.09 -6.238,12.187 -12.965,18.043 3.996,5.071 10.043,11.214 c 0.094,-3.609 0.192,-7.218 -1.562,-10.339 -1.461,-3.118 0.488,-6.629 1.074,-9.164 3.215,-12.969 8.969,-34.813 24.664,-38.422" style="fill:#534f4d;fill-opacity:1;fill-rule:nonzero;stroke:none" id="path23889"/><path d="m 774.723,189.867 -1.168,-0.976 -3.121,-12.09 L 753.18,133.504 719.836,84.9414 708.82,71.875 693.613,58.6133 683.668,43.5977 677.43,50.7148 661.539,61.9297 c 3.215,0 7.699,-0.6836 10.332,0.5859 1.27,-0.5859 3.805,-0.5859 5.754,-0.5859 1.363,1.2656 2.633,2.5351 3.215,4.4844 -0.582,2.6328 -3.215,5.1679 -3.215,8.3867 l 7.797,0 c 0,0.6836 0.683,1.9492 0.683,3.2187 0.586,0.6836 1.852,2.6328 1.852,3.8985 1.367,0.6836 3.316,1.3672 5.266,1.3672 1.851,1.8515 9.652,8.3867 9.652,10.3359 0.684,0 1.949,1.2656 2.633,1.2656 0,1.9531 0.582,5.1683 0.582,6.4373 1.949,0 3.902,1.364 6.531,1.364 l 1.27,1.269 0,5.168 c 3.898,3.902 9.652,1.949 14.816,1.949 0.684,3.219 -1.266,6.438 -1.266,9.656 1.266,0.68 3.899,2.633 5.168,2.633 l 0,10.336 c 1.266,0 5.848,1.949 7.118,1.949 0,2.536 1.265,5.852 1.949,8.387 -1.949,0 -3.219,3.899 -4.485,3.899 l 0,3.218 c 0,0 1.266,1.27 1.95,1.27 0,1.949 -0.684,5.168 -0.684,7.117 -1.266,0 0,0.684 -1.266,0.684 0,3.218 2.536,7.117 2.536,10.336 0.484,0 0.875,0.293 1.265,0.488 0.488,-1.074 1.172,-2.047 1.949,-2.828 l 2.438,0 c 3.609,3.605 6.047,9.652 8.48,14.527 1.172,0 2.438,1.27 2.438,2.438 l 1.172,1.269 1.265,0 0,1.168 1.172,0 0,1.172 1.266,1.27 6.047,0 0,-1.27 c 0.972,-0.977 5.359,0.586 7.504,1.074 l 0,0 z m -99.047,-147.1482 0.875,-1.2657 3.996,-19.0156 -1.949,-17.26172 -14.137,2.04688 -10.137,7.02344 -5.07,12.1875 -0.684,4.3867 c 0.196,0 0.391,0 0.586,0 1.367,-6.4336 14.235,-11.0156 19.403,-5.8476 l 0,0.6796 c 2.632,0 3.312,3.9024 5.261,3.9024 l 0,1.2656 1.27,0.6836 0.586,11.2149" style="fill:#9f887d;fill-opacity:1;fill-rule:nonzero;stroke:none" id="path23891"/><path d="m 608.602,65.2461 -2.633,5.5547 1.949,4 2.828,1.9492 32.465,3.1211 7.992,5.0703 -0.875,3.0234 12.965,15.0152 6.238,3.122 6.532,-2.047 c 0.195,-0.684 0.292,-1.461 0.292,-2.047 l -0.679,-0.684 c -1.27,0 -3.219,-0.586 -4.485,-0.586 l -1.269,-1.363 c 0,-0.5859 0.586,-1.9531 0.586,-3.2187 l -1.27,0 c -1.949,-1.9493 -3.215,-3.9024 -7.113,-3.9024 0,-1.2656 0.68,-3.2148 0.68,-4.4844 -2.633,0 -6.532,-1.2656 -5.848,-1.9492 l 0,-0.6836 1.266,0 c 0,-1.8515 -1.266,-4.4844 -1.266,-6.4336 -0.684,0 -3.219,0 -3.219,0.6797 1.27,0 0,-1.3633 0,-1.9492 -4.582,0 -5.847,0.5859 -10.332,-3.9023 l 0,-1.9493 c 0.582,0 1.266,-0.6836 1.266,-1.2656 1.949,0 4.484,-4.5859 5.851,-5.8516 -2.632,0 -11.699,5.168 -11.699,7.8008 -6.433,0 -14.234,4.4844 -20.668,0.586 l 0,-0.586 c -1.269,-0.6836 -5.168,-1.3672 -7.117,-1.3672 l -0.684,-0.582 c 0,-1.2695 -0.777,-3.2187 -1.753,-5.0703 l 0,0 z m 71.851,44.2699 -3.023,1.656 -8.969,0 8.09,7.121 7.019,-1.172 c 0.196,-0.488 0.684,-1.074 1.172,-1.558 l 0,-1.27 -4.289,-4.777 0,0 z m 7.309,12.675 -13.16,0 7.996,20.379 18.035,0 0.195,-0.093 c -0.683,-8.192 -5.754,-8.485 -14.137,-12.68 0.684,0 2.633,-2.535 3.215,-3.215 0,-1.953 -0.875,-3.219 -2.144,-4.391 l 0,0 z m 11.504,26.524 -15.598,0.879 0.879,28.277 -2.926,14.141 -1.949,3.898 c 0.098,0.098 0.098,0.098 0.098,0.195 0,1.27 -1.754,2.438 -1.754,2.438 -0.782,0 0.777,1.758 -1.075,2.828 l -1.461,2.828 -0.097,0 c 0.293,1.074 0.777,2.145 0.777,2.828 1.172,0 2.438,1.27 3.61,1.27 0,1.168 2.437,3.605 3.605,3.605 0,0.586 0.293,1.27 0.684,1.953 0.976,-0.292 1.949,-0.585 2.632,-0.585 0,-1.27 3.508,-3.512 4.192,-4.778 l 0.976,-3.512 0.582,-1.949 -0.582,-0.781 c 0,-0.293 0.778,-0.684 0.875,-1.074 0,-0.485 9.75,0.781 9.555,-5.653 0.098,-0.101 0.098,0.094 -0.879,-6.632 0.293,1.851 -0.387,-6.243 -3.019,-5.852 1.949,-1.949 -0.684,-4.68 1.949,-7.312 0,-5.852 -0.684,-12.286 -4.582,-16.188 l 0,-1.266 c 2.633,-1.269 4.582,-5.851 4.582,-8.386 -0.293,0 -0.684,-0.489 -1.074,-1.172 l 0,0 z m -21.543,32.765 c 1.949,-5.265 2.242,-10.433 0.39,-15.308 l 0.485,-0.391 0.879,10.141 -1.754,5.558" style="fill:#d4ab96;fill-opacity:1;fill-rule:nonzero;stroke:none" id="path23893"/><path d="m 677.82,316.047 c 2.825,0 5.164,-3.219 5.164,-7.117 0,-3.903 -2.339,-7.117 -5.164,-7.117 -2.828,0 -5.168,3.214 -5.168,7.117 0,3.898 2.34,7.117 5.168,7.117" style="fill:#ffffff;fill-opacity:1;fill-rule:nonzero;stroke:none" id="path23895"/><path d="m 677.82,316.047 c 2.825,0 5.164,-3.219 5.164,-7.117 0,-3.903 -2.339,-7.117 -5.164,-7.117 -2.828,0 -5.168,3.214 -5.168,7.117 0,3.898 2.34,7.117 5.168,7.117 z" style="fill:none;stroke:#ffffff;stroke-opacity:1;stroke-width:0.9;stroke-linecap:butt;stroke-linejoin:miter;stroke-miterlimit:3.8636;stroke-dasharray:none" id="path23897"/><path d="m 821.813,289.816 c 2.828,0 5.167,-3.218 5.167,-7.117 0,-3.902 -2.339,-7.121 -5.167,-7.121 -2.926,0 -5.266,3.219 -5.266,7.121 0,3.899 2.34,7.117 5.266,7.117" style="fill:#ffffff;fill-opacity:1;fill-rule:nonzero;stroke:none" id="path23899"/><path d="m 821.813,289.816 c 2.828,0 5.167,-3.218 5.167,-7.117 0,-3.902 -2.339,-7.121 -5.167,-7.121 -2.926,0 -5.266,3.219 -5.266,7.121 0,3.899 2.34,7.117 5.266,7.117 z" style="fill:none;stroke:#ffffff;stroke-opacity:1;stroke-width:0.9;stroke-linecap:butt;stroke-linejoin:miter;stroke-miterlimit:3.8636;stroke-dasharray:none" id="path23901"/></g></g></svg>