<?xml version="1.0" encoding="UTF-8" standalone="no"?>
<!-- Created with Inkscape (http://www.inkscape.org/) -->
<svg xmlns:inkscape="http://www.inkscape.org/namespaces/inkscape" xmlns:rdf="http://www.w3.org/1999/02/22-rdf-syntax-ns#" xmlns="http://www.w3.org/2000/svg" xmlns:sodipodi="http://sodipodi.sourceforge.net/DTD/sodipodi-0.dtd" xmlns:cc="http://creativecommons.org/ns#" xmlns:xlink="http://www.w3.org/1999/xlink" xmlns:dc="http://purl.org/dc/elements/1.1/" xmlns:svg="http://www.w3.org/2000/svg" xmlns:ns1="http://sozi.baierouge.fr" id="svg2" sodipodi:docname="widow.svg" viewBox="0 0 247.51 394.24" sodipodi:version="0.32" version="1.0" inkscape:output_extension="org.inkscape.output.svg.inkscape" inkscape:version="0.46">
  <defs id="defs4">
    <linearGradient id="linearGradient3628">
      <stop id="stop3630" style="stop-color:#ffffff;stop-opacity:0" offset="0"/>
      <stop id="stop3632" style="stop-color:#ffffff" offset="1"/>
    </linearGradient>
    <linearGradient id="linearGradient3666" y2="286.69" xlink:href="#linearGradient3628" gradientUnits="userSpaceOnUse" x2="262.06" y1="284.92" x1="265.93" inkscape:collect="always"/>
    <filter id="filter3696" inkscape:collect="always">
      <feGaussianBlur id="feGaussianBlur3698" stdDeviation="0.18764335" inkscape:collect="always"/>
    </filter>
    <linearGradient id="linearGradient3706" y2="277.83" xlink:href="#linearGradient3628" gradientUnits="userSpaceOnUse" x2="271.72" y1="276.33" x1="276.14" inkscape:collect="always"/>
    <filter id="filter3744" inkscape:collect="always">
      <feGaussianBlur id="feGaussianBlur3746" stdDeviation="0.21616972" inkscape:collect="always"/>
    </filter>
  </defs>
  <sodipodi:namedview id="base" bordercolor="#666666" inkscape:pageshadow="2" guidetolerance="10" pagecolor="#ffffff" gridtolerance="10000" inkscape:window-height="975" inkscape:zoom="1" objecttolerance="10" showgrid="false" borderopacity="1.0" inkscape:current-layer="g2450" inkscape:cx="459.11587" inkscape:cy="136.31314" inkscape:window-y="25" inkscape:window-x="0" inkscape:window-width="1679" inkscape:pageopacity="0.0" inkscape:document-units="px"/>
  <g id="layer1" inkscape:label="Layer 1" inkscape:groupmode="layer" transform="translate(-103.87 -35.04)">
    <g id="g3437" transform="translate(-39,-57)">
      <g id="g2450">
        <g id="g2485" transform="matrix(.78071 .62489 -.62489 .78071 231.15 -104.49)">
          <g id="g3284">
            <g id="g3253">
              <path id="path2453" sodipodi:nodetypes="ccccc" style="fill-rule:evenodd;fill:#000000" d="m278.37 275.04l-9.04-62.72 7.1-1.21 9.73 63.26-7.79 0.67z"/>
              <path id="path3225" sodipodi:nodetypes="ccccc" style="fill-rule:evenodd;fill:#000000" d="m269.31 212.34l-34.13-63.19 5.36-3.04 35.87 65.03-7.1 1.2z"/>
              <path id="path3227" sodipodi:nodetypes="cccc" style="fill-rule:evenodd;fill:#000000" d="m235.33 149.15l-44.26-50.359 49.4 47.479-5.14 2.88z"/>
            </g>
            <g id="g3271">
              <path id="path3229" sodipodi:nodetypes="ccccc" style="fill-rule:evenodd;fill:#000000" d="m291.96 281.65c0.9 0.18 4.93 4.39 4.93 4.39l14.81-62.78h-7.24l-12.5 58.39z"/>
              <path id="path3231" sodipodi:nodetypes="ccccc" style="fill-rule:evenodd;fill:#000000" d="m304.55 223.3l1.52-35.76 6.14 1.17-0.38 34.63-7.28-0.04z"/>
              <path id="path3233" sodipodi:nodetypes="cccc" style="fill-rule:evenodd;fill:#000000" d="m306.13 187.6c0.18-1.07-0.77-47.74-0.77-47.74l6.86 49.15-6.09-1.41z"/>
            </g>
            <path id="path3235" sodipodi:nodetypes="ccccc" style="fill-rule:evenodd;fill:#000000" d="m299.4 289.55c0.36 0.18 4.53 5.94 4.53 5.94l34.46-15.81-2.41-5.26-36.58 15.13z"/>
            <path id="path3237" sodipodi:nodetypes="ccccc" style="fill-rule:evenodd;fill:#000000" d="m338.21 279.55l31.08-21.47-6.25-3.75-27.15 20.31 2.32 4.91z"/>
            <path id="path3239" sodipodi:nodetypes="cccc" style="fill-rule:evenodd;fill:#000000" d="m363.12 254.42l13.67-38.49-7.68 42.18-5.99-3.69z"/>
            <path id="path3243" style="fill-rule:evenodd;fill:#000000" d="m322.86 303.43l10.71 1.08 24.29 10.53 13.03 7.86-4.1 6.61-17.86-10.54-14.47-5.36-11.6-10.18z"/>
            <path id="path3245" sodipodi:nodetypes="cccccc" style="fill-rule:evenodd;fill:#000000" d="m366.77 329.43c0.89 0.53 33.59 29.54 33.59 29.54l12.68 10 4.46-5.36-46.69-40.7-4.04 6.52z"/>
            <path id="path3247" sodipodi:nodetypes="cccc" style="fill-rule:evenodd;fill:#000000" d="m413.02 368.83c0.72 1.25 15.55 42.1 15.55 42.1l-11.15-47.32-4.4 5.22z"/>
          </g>
          <path id="path3249" sodipodi:nodetypes="cccccccccccccscsscsccccsccccccccccccccc" style="fill-rule:evenodd;fill:#000000" d="m268.93 280.04l1.78-3.39 0.54-4.29 3.04-0.18 3.66 2.06 1.96 0.62 6.16-0.71 2.16 4.84 4.53 2.04 4.03 4.36 3.03 3.94 4.29 6.25-0.18 0.89s8.21 0.89 9.11 1.25c0.89 0.36 7.85 3.39 7.85 3.39s1.43 1.25 2.68 1.97c1.25 0.71 12.32 11.07 13.04 11.78 0.71 0.72 3.75 8.22 3.75 8.22s0.35 13.75 0.53 14.46c0.18 0.72-2.32 10-2.32 10l-4.46 7.68-7.5 5.18-8.93 1.07s-5.72-1.07-6.61-1.43-4.82-2.14-4.82-2.14l-5.54-2.32-7.14-6.25-5.18-6.97-2.85-3.75-4.11-19.82-5.18-6.96-6.43-3.22-7.16-4.89-3.11-5.12-0.17-6.06 0.71-7.23 1.34-4.29 4.11 0.36 3.39-1.34z"/>
          <path id="path3251" sodipodi:nodetypes="cscccsscc" style="fill-rule:evenodd;fill:#ff0000" d="m299.66 329.33c2.06-2.65 4.62-4.96 6.95-6.75 2.56-1.96 5.85-3.06 8.41-5.03l1.31 11.24 10.49 4.08s-2.73 3.74-6.08 6.57c-3.35 2.84-7.31 4.77-6.96 4.68 0.72-0.18-2.66-11.55-2.66-11.55l-11.46-3.24z"/>
          <path id="path3304" sodipodi:nodetypes="ccccc" style="fill-rule:evenodd;fill:#000000" d="m261.5 292.04l-60.74-17.78-2.04 6.56 61.84 19.28 0.94-8.06z"/>
          <path id="path3306" sodipodi:nodetypes="ccccc" style="fill-rule:evenodd;fill:#000000" d="m200.76 274.28l-56.62-43.35-3.78 4.85 58.38 45 2.02-6.5z"/>
          <path id="path3308" sodipodi:nodetypes="cccc" style="fill-rule:evenodd;fill:#000000" d="m144.12 231l-43.8-50.89 40.11 55.64 3.69-4.75z"/>
          <path id="path3312" sodipodi:nodetypes="ccccc" style="fill-rule:evenodd;fill:#000000" d="m266.24 303.59c0.05 0.91 4.16 5.15 4.16 5.15l-64.94 6.06 1.19-7.34 59.59-3.87z"/>
          <path id="path3314" sodipodi:nodetypes="ccccc" style="fill-rule:evenodd;fill:#000000" d="m206.67 307.52l-36.09-2.15 0.65 6.09 34.23 3.33 1.21-7.27z"/>
          <path id="path3316" sodipodi:nodetypes="cccc" style="fill-rule:evenodd;fill:#000000" d="m171.61 305.66c-1.08 0.03-47.59-9.45-47.59-9.45l47.24 15.16 0.35-5.71z"/>
          <path id="path3318" style="fill-rule:evenodd;fill:#000000" d="m276.85 309.88c0.13 0.38 5.63 4.71 5.63 4.71l-20.65 31.79-4.86-3.15 19.88-33.35z"/>
          <path id="path3320" sodipodi:nodetypes="ccccc" style="fill-rule:evenodd;fill:#000000" d="m261.78 346.27l-25.82 27.53-2.8-6.72 23.95-23.89 4.67 3.08z"/>
          <path id="path3322" sodipodi:nodetypes="cccc" style="fill-rule:evenodd;fill:#000000" d="m233.39 367.11l-40.22 7.98 42.79-1.63-2.57-6.35z"/>
          <path id="path3324" style="fill-rule:evenodd;fill:#000000" d="m285.44 335.18l-0.5 10.76 6.89 25.56 5.88 14.04 7.14-3.1-7.83-19.2-3.2-15.09-8.38-12.97z"/>
          <path id="path3326" sodipodi:nodetypes="cccccc" style="fill-rule:evenodd;fill:#000000" d="m304.67 382.41c0.4 0.96 24.44 37.53 24.44 37.53l8.05 14-5.95 3.64-33.44-52.12 6.9-3.05z"/>
          <path id="path3328" sodipodi:nodetypes="cccc" style="fill-rule:evenodd;fill:#000000" d="m336.81 433.89c1.13 0.89 39.61 21.53 39.61 21.53l-45.17-18 5.56-3.53z"/>
          <path id="path3636" style="filter:url(#filter3696);fill-rule:evenodd;fill:url(#linearGradient3666)" d="m260.19 285.24c0.31 0.06 4 1.37 4 1.37l3 2.25-1-3.12-0.81-4.38-3.94-0.37-1.25 4.25z"/>
          <path id="path3638" style="filter:url(#filter3744);fill-rule:evenodd;fill:url(#linearGradient3706)" d="m271.31 272.36l-0.56 4.25 3.44 1.31 2.75 2.57-0.69-3.75-2.06-4.57-2.88 0.19z"/>
          <path id="path2596" style="opacity:.56897;fill:#cccccc" d="m288.89 308.56c-0.53 0.46-1.05 0.94-1.52 1.48-8.01 9.11-4.55 26.36 7.7 38.52 12.26 12.16 28.72 14.65 36.73 5.54 1.08-1.23 1.92-2.63 2.59-4.13-8.7 3.83-20 2.94-29.94-3.37-13.92-8.84-20.35-25.19-15.56-38.04z"/>
          <path id="path3431" style="opacity:.56897;fill:#e6e6e6" d="m268.53 279.75c-2.38 0.68-4.45 2.01-5.94 4-4.58 6.15-1.91 16.22 5.97 22.5 7.05 5.61 15.87 6.28 20.94 1.97-4.66 0.69-10.03-0.35-14.88-3.31-9.09-5.56-12.82-15.71-8.34-22.63 0.63-0.97 1.39-1.79 2.25-2.53z"/>
        </g>
      </g>
    </g>
  </g>
  <metadata>
    <rdf:RDF>
      <cc:Work>
        <dc:format>image/svg+xml</dc:format>
        <dc:type rdf:resource="http://purl.org/dc/dcmitype/StillImage"/>
        <cc:license rdf:resource="http://creativecommons.org/licenses/publicdomain/"/>
        <dc:publisher>
          <cc:Agent rdf:about="http://openclipart.org/">
            <dc:title>Openclipart</dc:title>
          </cc:Agent>
        </dc:publisher>
        <dc:title>black widow</dc:title>
        <dc:date>2008-09-18T02:21:15</dc:date>
        <dc:description>black widow spider</dc:description>
        <dc:source>https://openclipart.org/detail/19308/black-widow-by-jbruce</dc:source>
        <dc:creator>
          <cc:Agent>
            <dc:title>jbruce</dc:title>
          </cc:Agent>
        </dc:creator>
        <dc:subject>
          <rdf:Bag>
            <rdf:li>black</rdf:li>
            <rdf:li>spider</rdf:li>
            <rdf:li>widow</rdf:li>
          </rdf:Bag>
        </dc:subject>
      </cc:Work>
      <cc:License rdf:about="http://creativecommons.org/licenses/publicdomain/">
        <cc:permits rdf:resource="http://creativecommons.org/ns#Reproduction"/>
        <cc:permits rdf:resource="http://creativecommons.org/ns#Distribution"/>
        <cc:permits rdf:resource="http://creativecommons.org/ns#DerivativeWorks"/>
      </cc:License>
    </rdf:RDF>
  </metadata>
</svg>